<?xml version="1.0" encoding="utf-8"?>
<!-- Generator: Adobe Illustrator 15.0.0, SVG Export Plug-In . SVG Version: 6.00 Build 0)  -->
<!DOCTYPE svg PUBLIC "-//W3C//DTD SVG 1.1//EN" "http://www.w3.org/Graphics/SVG/1.1/DTD/svg11.dtd">
<svg version="1.1" xmlns="http://www.w3.org/2000/svg" xmlns:xlink="http://www.w3.org/1999/xlink" x="0px" y="0px" width="79px"
	 height="105px" viewBox="0 0 79 105" enable-background="new 0 0 79 105" xml:space="preserve">
<g id="guitar_gray">
	<g>
		<g>
			<g>
				<path fill="#A7A9AC" d="M45.862,81.536c0,0,0-5.988,0-6.53c-0.978-9.71,6.043-15.503,8.914-17.318
					c0.646-4.768-1.486-12.166-3.847-21.02c-2.357-8.858,0.669-9.489,4.038-11.547c3.372-2.06,6.333-12.338-2.276-15.824
					c-8.608-3.487-12.681,4.659-12.681,4.659s-0.236,0.782-0.651,2.149l-2.211-0.59c0.261-1.475-0.298-2.82-1.348-3.113
					c-1.147-0.32-2.445,0.741-2.898,2.369c-0.453,1.626,0.11,3.203,1.258,3.522c0.939,0.262,1.979-0.4,2.573-1.544l2.248,0.6
					c-0.535,1.765-1.247,4.116-2.069,6.818l-2.178-0.581c0.261-1.473-0.298-2.82-1.35-3.112c-1.146-0.319-2.443,0.741-2.896,2.369
					c-0.453,1.626,0.11,3.206,1.258,3.525c0.94,0.261,1.979-0.404,2.574-1.546l2.215,0.592c-0.646,2.126-1.347,4.434-2.073,6.818
					l-2.143-0.572c0.26-1.474-0.298-2.82-1.348-3.113c-1.148-0.32-2.445,0.741-2.898,2.368c-0.453,1.628,0.11,3.208,1.258,3.526
					c0.94,0.259,1.978-0.403,2.572-1.548l2.178,0.583c-0.685,2.25-1.387,4.551-2.079,6.818l-2.099-0.562
					c0.259-1.473-0.298-2.82-1.349-3.114c-1.147-0.319-2.445,0.742-2.898,2.37c-0.453,1.626,0.11,3.205,1.258,3.525
					c0.94,0.259,1.979-0.404,2.573-1.546l2.133,0.57c-0.719,2.357-1.424,4.662-2.086,6.813l-2.045-0.546
					c0.259-1.474-0.298-2.82-1.349-3.113c-1.147-0.318-2.444,0.741-2.898,2.369c-0.452,1.626,0.111,3.206,1.258,3.525
					c0.939,0.261,1.979-0.404,2.574-1.548l2.079,0.556c-0.8,2.597-1.521,4.93-2.107,6.81l-1.971-0.526
					c0.259-1.474-0.299-2.82-1.35-3.114c-1.147-0.319-2.444,0.742-2.897,2.369c-0.453,1.628,0.11,3.207,1.257,3.526
					c0.939,0.259,1.979-0.404,2.574-1.547l1.997,0.532c-0.646,2.058-1.068,3.356-1.158,3.542c-0.573,1.177-1.055,4.095-0.497,5.717
					c2.56,2.057,5.401,7.582,5.401,7.582v7.054H45.862z M30.138,62.654c-1.112,0-2.014-0.901-2.014-2.015
					c0-1.11,0.901-2.013,2.014-2.013c1.111,0,2.013,0.902,2.013,2.013C32.151,61.753,31.25,62.654,30.138,62.654z M32.689,54.421
					c-1.112,0-2.012-0.9-2.012-2.013c0-1.111,0.9-2.013,2.012-2.013c1.113,0,2.013,0.902,2.013,2.013
					C34.702,53.521,33.802,54.421,32.689,54.421z M35.241,46.188c-1.112,0-2.014-0.901-2.014-2.013c0-1.111,0.902-2.013,2.014-2.013
					s2.013,0.902,2.013,2.013C37.254,45.288,36.353,46.188,35.241,46.188z M37.792,37.955c-1.112,0-2.014-0.899-2.014-2.012
					c0-1.112,0.902-2.014,2.014-2.014s2.014,0.902,2.014,2.014C39.806,37.056,38.904,37.955,37.792,37.955z M40.344,29.726
					c-1.112,0-2.014-0.902-2.014-2.016c0-1.11,0.902-2.013,2.014-2.013s2.013,0.902,2.013,2.013
					C42.357,28.823,41.456,29.726,40.344,29.726z M42.896,21.494c-1.112,0-2.014-0.904-2.014-2.014c0-1.112,0.901-2.013,2.014-2.013
					c1.111,0,2.013,0.9,2.013,2.013C44.908,20.59,44.007,21.494,42.896,21.494z"/>
			</g>
			<rect x="30.341" y="82.934" fill="#939598" width="15.431" height="13.638"/>
		</g>
		<g>
			
				<line fill="#010101" stroke="#FFFFFF" stroke-width="0.5477" stroke-miterlimit="10" x1="31.103" y1="82.786" x2="31.103" y2="96.571"/>
			
				<line fill="#010101" stroke="#FFFFFF" stroke-width="0.5477" stroke-miterlimit="10" x1="33.884" y1="82.786" x2="33.884" y2="96.571"/>
			
				<line fill="#010101" stroke="#FFFFFF" stroke-width="0.5477" stroke-miterlimit="10" x1="36.665" y1="82.786" x2="36.665" y2="96.571"/>
			
				<line fill="#010101" stroke="#FFFFFF" stroke-width="0.5477" stroke-miterlimit="10" x1="39.447" y1="82.786" x2="39.447" y2="96.571"/>
			
				<line fill="#010101" stroke="#FFFFFF" stroke-width="0.5477" stroke-miterlimit="10" x1="42.229" y1="82.786" x2="42.229" y2="96.571"/>
			
				<line fill="#010101" stroke="#FFFFFF" stroke-width="0.5477" stroke-miterlimit="10" x1="45.009" y1="82.786" x2="45.009" y2="96.571"/>
		</g>
	</g>
</g>
<g id="guitar" display="none">
	<g display="inline">
		<g>
			<g>
				<path fill="#C49A6C" d="M45.862,81.536c0,0,0-5.988,0-6.53c-0.978-9.71,6.043-15.503,8.914-17.318
					c0.646-4.768-1.486-12.166-3.847-21.02c-2.357-8.858,0.669-9.489,4.038-11.547c3.372-2.06,6.333-12.338-2.276-15.824
					c-8.608-3.487-12.681,4.659-12.681,4.659s-0.236,0.782-0.651,2.149l-2.211-0.59c0.261-1.475-0.298-2.82-1.348-3.113
					c-1.147-0.32-2.445,0.741-2.898,2.369c-0.453,1.626,0.11,3.203,1.258,3.522c0.939,0.262,1.979-0.4,2.573-1.544l2.248,0.6
					c-0.535,1.765-1.247,4.116-2.069,6.818l-2.178-0.581c0.261-1.473-0.298-2.82-1.35-3.112c-1.146-0.319-2.443,0.741-2.896,2.369
					c-0.453,1.626,0.11,3.206,1.258,3.525c0.94,0.261,1.979-0.404,2.574-1.546l2.215,0.592c-0.646,2.126-1.347,4.434-2.073,6.818
					l-2.143-0.572c0.26-1.474-0.298-2.82-1.348-3.113c-1.148-0.32-2.445,0.741-2.898,2.368c-0.453,1.628,0.11,3.208,1.258,3.526
					c0.94,0.259,1.978-0.403,2.572-1.548l2.178,0.583c-0.685,2.25-1.387,4.551-2.079,6.818l-2.099-0.562
					c0.259-1.473-0.298-2.82-1.349-3.114c-1.147-0.319-2.445,0.742-2.898,2.37c-0.453,1.626,0.11,3.205,1.258,3.525
					c0.94,0.259,1.979-0.404,2.573-1.546l2.133,0.57c-0.719,2.357-1.424,4.662-2.086,6.813l-2.045-0.546
					c0.259-1.474-0.298-2.82-1.349-3.113c-1.147-0.318-2.444,0.741-2.898,2.369c-0.452,1.626,0.111,3.206,1.258,3.525
					c0.939,0.261,1.979-0.404,2.574-1.548l2.079,0.556c-0.8,2.597-1.521,4.93-2.107,6.81l-1.971-0.526
					c0.259-1.474-0.299-2.82-1.35-3.114c-1.147-0.319-2.444,0.742-2.897,2.369c-0.453,1.628,0.11,3.207,1.257,3.526
					c0.939,0.259,1.979-0.404,2.574-1.547l1.997,0.532c-0.646,2.058-1.068,3.356-1.158,3.542c-0.573,1.177-1.055,4.095-0.497,5.717
					c2.56,2.057,5.401,7.582,5.401,7.582v7.054H45.862z M30.138,62.654c-1.112,0-2.014-0.901-2.014-2.015
					c0-1.11,0.901-2.013,2.014-2.013c1.111,0,2.013,0.902,2.013,2.013C32.151,61.753,31.25,62.654,30.138,62.654z M32.689,54.421
					c-1.112,0-2.012-0.9-2.012-2.013c0-1.111,0.9-2.013,2.012-2.013c1.113,0,2.013,0.902,2.013,2.013
					C34.702,53.521,33.802,54.421,32.689,54.421z M35.241,46.188c-1.112,0-2.014-0.901-2.014-2.013c0-1.111,0.902-2.013,2.014-2.013
					s2.013,0.902,2.013,2.013C37.254,45.288,36.353,46.188,35.241,46.188z M37.792,37.955c-1.112,0-2.014-0.899-2.014-2.012
					c0-1.112,0.902-2.014,2.014-2.014s2.014,0.902,2.014,2.014C39.806,37.056,38.904,37.955,37.792,37.955z M40.344,29.726
					c-1.112,0-2.014-0.902-2.014-2.016c0-1.11,0.902-2.013,2.014-2.013s2.013,0.902,2.013,2.013
					C42.357,28.823,41.456,29.726,40.344,29.726z M42.896,21.494c-1.112,0-2.014-0.904-2.014-2.014c0-1.112,0.901-2.013,2.014-2.013
					c1.111,0,2.013,0.9,2.013,2.013C44.908,20.59,44.007,21.494,42.896,21.494z"/>
			</g>
			<rect x="30.341" y="82.934" fill="#594A42" width="15.431" height="13.638"/>
		</g>
		<g>
			
				<line fill="#010101" stroke="#FFFFFF" stroke-width="0.5477" stroke-miterlimit="10" x1="31.103" y1="82.786" x2="31.103" y2="96.571"/>
			
				<line fill="#010101" stroke="#FFFFFF" stroke-width="0.5477" stroke-miterlimit="10" x1="33.884" y1="82.786" x2="33.884" y2="96.571"/>
			
				<line fill="#010101" stroke="#FFFFFF" stroke-width="0.5477" stroke-miterlimit="10" x1="36.665" y1="82.786" x2="36.665" y2="96.571"/>
			
				<line fill="#010101" stroke="#FFFFFF" stroke-width="0.5477" stroke-miterlimit="10" x1="39.447" y1="82.786" x2="39.447" y2="96.571"/>
			
				<line fill="#010101" stroke="#FFFFFF" stroke-width="0.5477" stroke-miterlimit="10" x1="42.229" y1="82.786" x2="42.229" y2="96.571"/>
			
				<line fill="#010101" stroke="#FFFFFF" stroke-width="0.5477" stroke-miterlimit="10" x1="45.009" y1="82.786" x2="45.009" y2="96.571"/>
		</g>
	</g>
</g>
<g id="keyboard_gray" display="none">
	<g display="inline">
		<path fill="#939598" d="M67.112,33.814H11.889c-2.393,0-4.34,1.947-4.34,4.34v28.691c0,2.393,1.947,4.34,4.34,4.34h2.517V47.825
			H63.61v23.361h3.502c2.394,0,4.339-1.947,4.339-4.34V38.155C71.451,35.761,69.506,33.814,67.112,33.814z"/>
		<g>
			<g>
				<rect x="56.854" y="47.966" fill="#FFFFFF" width="6.614" height="22.938"/>
				<path fill="#808285" d="M63.256,48.178v22.514h-6.19V48.178H63.256 M63.68,47.754h-7.038v23.361h7.038V47.754L63.68,47.754z"/>
			</g>
			<g>
				<rect x="14.621" y="47.966" fill="#FFFFFF" width="6.616" height="22.938"/>
				<path fill="#808285" d="M21.025,48.178v22.514h-6.193V48.178H21.025 M21.448,47.754h-7.04v23.361h7.04V47.754L21.448,47.754z"/>
			</g>
			<g>
				<rect x="21.66" y="47.966" fill="#FFFFFF" width="6.615" height="22.938"/>
				<path fill="#808285" d="M28.064,48.178v22.514h-6.192V48.178H28.064 M28.487,47.754h-7.039v23.361h7.039V47.754L28.487,47.754z"
					/>
			</g>
			<g>
				<rect x="49.814" y="47.966" fill="#FFFFFF" width="6.615" height="22.938"/>
				<path fill="#808285" d="M56.218,48.178v22.514h-6.191V48.178H56.218 M56.642,47.754h-7.039v23.361h7.039V47.754L56.642,47.754z"
					/>
			</g>
			<g>
				<rect x="35.737" y="47.966" fill="#FFFFFF" width="6.615" height="22.938"/>
				<path fill="#808285" d="M42.141,48.178v22.514h-6.191V48.178H42.141 M42.564,47.754h-7.039v23.361h7.039V47.754L42.564,47.754z"
					/>
			</g>
			<g>
				<rect x="28.699" y="47.966" fill="#FFFFFF" width="6.614" height="22.938"/>
				<path fill="#808285" d="M35.102,48.178v22.514h-6.19V48.178H35.102 M35.525,47.754h-7.038v23.361h7.038V47.754L35.525,47.754z"
					/>
			</g>
			<g>
				<rect x="42.776" y="47.966" fill="#FFFFFF" width="6.614" height="22.938"/>
				<path fill="#808285" d="M49.179,48.178v22.514h-6.19V48.178H49.179 M49.603,47.754h-7.038v23.361h7.038V47.754L49.603,47.754z"
					/>
			</g>
		</g>
		<g>
			<g>
				<rect x="19.454" y="47.752" fill="#808285" width="4.46" height="12.333"/>
				<rect x="26.257" y="47.752" fill="#808285" width="4.46" height="12.333"/>
			</g>
			<g>
				<rect x="40.139" y="47.752" fill="#808285" width="4.46" height="12.333"/>
				<rect x="47.372" y="47.752" fill="#808285" width="4.46" height="12.333"/>
				<rect x="54.411" y="47.752" fill="#808285" width="4.46" height="12.333"/>
			</g>
		</g>
		<circle fill="#F1F2F2" cx="17.447" cy="39.681" r="2.007"/>
		<circle fill="#F1F2F2" cx="24.967" cy="39.681" r="2.007"/>
	</g>
</g>
<g id="keyboard" display="none">
	<g display="inline">
		<path fill="#4E6879" d="M67.112,33.814H11.889c-2.393,0-4.34,1.947-4.34,4.34v28.691c0,2.393,1.947,4.34,4.34,4.34h2.517V47.825
			H63.61v23.361h3.502c2.394,0,4.339-1.947,4.339-4.34V38.155C71.451,35.761,69.506,33.814,67.112,33.814z"/>
		<g>
			<g>
				<rect x="56.854" y="47.966" fill="#FFFFFF" width="6.614" height="22.938"/>
				<path d="M63.256,48.178v22.514h-6.19V48.178H63.256 M63.68,47.754h-7.038v23.361h7.038V47.754L63.68,47.754z"/>
			</g>
			<g>
				<rect x="14.621" y="47.966" fill="#FFFFFF" width="6.616" height="22.938"/>
				<path d="M21.025,48.178v22.514h-6.193V48.178H21.025 M21.448,47.754h-7.04v23.361h7.04V47.754L21.448,47.754z"/>
			</g>
			<g>
				<rect x="21.66" y="47.966" fill="#FFFFFF" width="6.615" height="22.938"/>
				<path d="M28.064,48.178v22.514h-6.192V48.178H28.064 M28.487,47.754h-7.039v23.361h7.039V47.754L28.487,47.754z"/>
			</g>
			<g>
				<rect x="49.814" y="47.966" fill="#FFFFFF" width="6.615" height="22.938"/>
				<path d="M56.218,48.178v22.514h-6.191V48.178H56.218 M56.642,47.754h-7.039v23.361h7.039V47.754L56.642,47.754z"/>
			</g>
			<g>
				<rect x="35.737" y="47.966" fill="#FFFFFF" width="6.615" height="22.938"/>
				<path d="M42.141,48.178v22.514h-6.191V48.178H42.141 M42.564,47.754h-7.039v23.361h7.039V47.754L42.564,47.754z"/>
			</g>
			<g>
				<rect x="28.699" y="47.966" fill="#FFFFFF" width="6.614" height="22.938"/>
				<path d="M35.102,48.178v22.514h-6.19V48.178H35.102 M35.525,47.754h-7.038v23.361h7.038V47.754L35.525,47.754z"/>
			</g>
			<g>
				<rect x="42.776" y="47.966" fill="#FFFFFF" width="6.614" height="22.938"/>
				<path d="M49.179,48.178v22.514h-6.19V48.178H49.179 M49.603,47.754h-7.038v23.361h7.038V47.754L49.603,47.754z"/>
			</g>
		</g>
		<g>
			<g>
				<rect x="19.454" y="47.752" width="4.46" height="12.333"/>
				<rect x="26.257" y="47.752" width="4.46" height="12.333"/>
			</g>
			<g>
				<rect x="40.139" y="47.752" width="4.46" height="12.333"/>
				<rect x="47.372" y="47.752" width="4.46" height="12.333"/>
				<rect x="54.411" y="47.752" width="4.46" height="12.333"/>
			</g>
		</g>
		<circle fill="#E4DFD8" cx="17.447" cy="39.681" r="2.007"/>
		<circle fill="#E4DFD8" cx="24.967" cy="39.681" r="2.007"/>
	</g>
</g>
<g id="drum_gray" display="none">
	<g display="inline">
		<g>
			<path fill="#939598" d="M15.089,70.008c0.085-0.51,0.207-1.107,0.412-1.629c0.181-0.535,0.441-1.037,0.715-1.525
				c0.585-0.957,1.324-1.805,2.153-2.533c1.668-1.463,3.664-2.455,5.72-3.15c4.111-1.465,8.559-1.75,12.876-1.244
				c4.308,0.48,8.615,1.766,12.359,4.174c1.863,1.205,3.619,2.672,4.943,4.576c1.334,1.881,2.188,4.301,1.922,6.781
				c-0.061,0.377-0.061,0.527-0.143,0.875c-0.07,0.328-0.146,0.648-0.248,0.934c-0.178,0.59-0.441,1.15-0.725,1.695
				c-0.594,1.072-1.365,2.023-2.23,2.844c-1.748,1.633-3.82,2.791-5.979,3.572c-4.346,1.533-8.965,1.814-13.436,1.281
				c-2.233-0.307-4.442-0.855-6.543-1.697c-2.093-0.855-4.084-1.973-5.884-3.346c-1.783-1.381-3.378-3.057-4.521-5.031
				c-1.175-1.938-1.8-4.303-1.394-6.549L15.089,70.008z M15.958,70.139c-0.282,2.021,0.351,4.09,1.484,5.809
				c1.135,1.738,2.71,3.18,4.445,4.357c3.497,2.359,7.628,3.711,11.815,4.273c4.188,0.543,8.533,0.312,12.52-1.061
				c1.98-0.689,3.879-1.668,5.422-3.055c1.545-1.367,2.688-3.193,2.947-5.223c0.279-2.02-0.348-4.084-1.488-5.809
				c-1.133-1.74-2.707-3.18-4.441-4.361c-3.498-2.357-7.625-3.709-11.82-4.273c-4.184-0.539-8.531-0.312-12.515,1.061
				c-1.981,0.691-3.879,1.672-5.428,3.049c-1.545,1.379-2.678,3.186-2.946,5.248L15.958,70.139z"/>
			<path fill="#D1D3D4" d="M60.037,48.662l-42.471-5.619l-1.879,26.28c-0.059,0.251-0.129,0.498-0.163,0.757
				c-0.903,6.809,7.214,13.496,18.124,14.949c10.905,1.443,20.483-2.91,21.386-9.719c0.026-0.202,0.02-0.404,0.03-0.606
				L60.037,48.662z"/>
			<path fill="#E6E7E8" d="M40.566,83.723c3.326-0.295,6.34-1.154,8.748-2.467c2.055-11.326,3.793-21.85,5.031-33.433l-9.652-1.25
				C42.52,59.551,41.77,69.703,40.566,83.723z"/>
			<g>
				<path fill="#939598" d="M17.543,43.044c0.899-6.812,11.136-11.078,22.848-9.522c11.72,1.542,20.491,8.326,19.593,15.134
					c-0.904,6.801-11.135,11.066-22.853,9.52C25.413,56.627,16.641,49.851,17.543,43.044z"/>
				<path fill="#939598" d="M17.334,43.012c0.38-2.296,1.781-4.303,3.545-5.729c1.771-1.45,3.87-2.445,6.036-3.141
					c4.357-1.37,9.019-1.634,13.532-1.053c4.517,0.603,8.955,2.068,12.794,4.54c1.904,1.242,3.672,2.748,4.99,4.612
					c1.328,1.852,2.092,4.13,1.908,6.432c-0.162,2.286-1.266,4.65-3.076,6.258c-1.814,1.59-3.99,2.652-6.213,3.412
					c-4.484,1.5-9.273,1.701-13.884,1.094c-4.603-0.645-9.161-2.121-13.056-4.77c-1.938-1.326-3.731-2.914-5.072-4.882
					C17.476,47.825,16.926,45.297,17.334,43.012z M17.755,43.076c-0.217,2.232,0.918,4.244,2.223,5.878
					c1.334,1.667,3.086,2.994,4.962,4.062c3.792,2.101,8.044,3.347,12.359,3.897c4.314,0.551,8.738,0.418,12.91-0.672
					c2.076-0.555,4.086-1.387,5.801-2.619c0.859-0.606,1.705-1.261,2.393-2.085c0.701-0.813,1.221-1.814,1.426-2.901
					c0.191-1.09,0.109-2.233-0.244-3.293c-0.352-1.053-0.908-2.035-1.584-2.927c-1.355-1.777-3.135-3.188-5.041-4.334
					c-3.848-2.274-8.221-3.528-12.625-4.125c-4.404-0.571-8.956-0.5-13.26,0.71c-2.136,0.616-4.223,1.514-5.979,2.89
					C19.35,38.901,17.943,40.848,17.755,43.076z"/>
			</g>
			<path fill="#F1F2F2" d="M18.332,43.526c0.762-5.784,10.409-9.274,21.537-7.809C51,37.184,59.404,43.063,58.646,48.85
				c-0.766,5.783-10.41,9.271-21.543,7.806C25.972,55.186,17.57,49.304,18.332,43.526z"/>
			<path fill="#E6E7E8" d="M58.646,48.853c0.447-3.409-2.311-6.847-6.918-9.4c2.189,5.695,1.24,12.399-5.074,14.765
				C39.511,56.123,32.276,55.324,25.376,53c3.181,1.738,7.224,3.064,11.726,3.66C48.236,58.129,57.879,54.633,58.646,48.853z"/>
			<path fill="#A7A9AC" d="M53.676,80.572c1.453-1.012,1.936-3.02,1.752-4.703c-0.045-0.432-0.291-1.072-0.693-1.305
				c-0.713-0.422-1.42,0.229-1.811,0.783c-0.355,0.508-0.578,1.016-0.811,1.578c-0.432,1.066-0.574,2.205-0.07,3.348
				C52.344,80.951,53.154,80.934,53.676,80.572z"/>
			<path fill="#A7A9AC" d="M57.744,58.279c1.453-1.016,1.932-3.021,1.75-4.703c-0.049-0.435-0.291-1.074-0.693-1.309
				c-0.717-0.421-1.422,0.235-1.811,0.787c-0.354,0.504-0.58,1.006-0.811,1.577c-0.434,1.066-0.576,2.207-0.068,3.342
				C56.412,58.656,57.223,58.639,57.744,58.279z"/>
			<path fill="#A7A9AC" d="M34.612,86.352c1.453-1.008,1.93-3.016,1.748-4.699c-0.044-0.432-0.288-1.07-0.692-1.307
				c-0.712-0.42-1.419,0.236-1.809,0.781c-0.355,0.51-0.58,1.018-0.81,1.586c-0.433,1.062-0.574,2.201-0.07,3.342
				C33.279,86.734,34.094,86.713,34.612,86.352z"/>
			<path fill="#A7A9AC" d="M35.523,64.256c1.348-1.148,1.631-3.189,1.282-4.844c-0.082-0.424-0.389-1.033-0.815-1.236
				c-0.754-0.35-1.385,0.375-1.727,0.959c-0.303,0.537-0.474,1.064-0.651,1.648c-0.329,1.1-0.355,2.25,0.254,3.336
				C34.232,64.76,35.041,64.672,35.523,64.256z"/>
			<path fill="#A7A9AC" d="M18.881,53.66c1.294-1.208,1.484-3.259,1.072-4.9c-0.107-0.427-0.441-1.022-0.87-1.2
				c-0.77-0.317-1.373,0.427-1.684,1.033c-0.281,0.551-0.431,1.084-0.581,1.671c-0.285,1.122-0.261,2.265,0.397,3.316
				C17.607,54.219,18.416,54.088,18.881,53.66z"/>
			<path fill="#A7A9AC" d="M16.155,72.809c1.261-1.246,1.387-3.309,0.912-4.934c-0.122-0.416-0.474-1.002-0.914-1.176
				c-0.773-0.283-1.358,0.471-1.643,1.098c-0.26,0.557-0.397,1.096-0.521,1.695c-0.244,1.115-0.185,2.271,0.508,3.303
				C14.913,73.412,15.712,73.256,16.155,72.809z"/>
		</g>
		<g>
			<path fill="#A7A9AC" d="M73.057,30.631c-0.389-0.658-1.396-0.836-2.189-0.365L41.434,48.252c-0.627-0.104-1.429,0.09-2.152,0.523
				c-0.563,0.332-1.025,0.774-1.303,1.24c-0.33,0.557-0.371,1.099-0.117,1.528c0.242,0.404,0.708,0.629,1.311,0.629
				c0.566,0,1.206-0.194,1.801-0.551c0.73-0.431,1.279-1.044,1.488-1.638l29.875-17.259c0.43-0.254,0.738-0.653,0.852-1.092
				C73.277,31.279,73.229,30.924,73.057,30.631z"/>
			<path fill="#A7A9AC" d="M31.924,43.871L8.362,18.66c-0.624-0.649-1.65-0.76-2.203-0.23c-0.569,0.547-0.51,1.539,0.138,2.218
				l24.17,24.613c0.042,0.628,0.408,1.364,0.994,1.979c0.654,0.681,1.447,1.087,2.124,1.087c0.357,0,0.668-0.116,0.896-0.334
				c0.679-0.654,0.409-1.964-0.629-3.046C33.271,44.336,32.577,43.946,31.924,43.871z"/>
		</g>
	</g>
</g>
<g id="drum" display="none">
	<g display="inline">
		<g>
			<path fill="#85878A" d="M15.089,70.008c0.085-0.51,0.207-1.107,0.412-1.629c0.181-0.535,0.441-1.037,0.715-1.525
				c0.585-0.957,1.324-1.805,2.153-2.533c1.668-1.463,3.664-2.455,5.72-3.15c4.111-1.465,8.559-1.75,12.876-1.244
				c4.308,0.48,8.615,1.766,12.359,4.174c1.863,1.205,3.619,2.672,4.943,4.576c1.334,1.881,2.188,4.301,1.922,6.781
				c-0.061,0.377-0.061,0.527-0.143,0.875c-0.07,0.328-0.146,0.648-0.248,0.934c-0.178,0.59-0.441,1.15-0.725,1.695
				c-0.594,1.072-1.365,2.023-2.23,2.844c-1.748,1.633-3.82,2.791-5.979,3.572c-4.346,1.533-8.965,1.814-13.436,1.281
				c-2.233-0.307-4.442-0.855-6.543-1.697c-2.093-0.855-4.084-1.973-5.884-3.346c-1.783-1.381-3.378-3.057-4.521-5.031
				c-1.175-1.938-1.8-4.303-1.394-6.549L15.089,70.008z M15.958,70.139c-0.282,2.021,0.351,4.09,1.484,5.809
				c1.135,1.738,2.71,3.18,4.445,4.357c3.497,2.359,7.628,3.711,11.815,4.273c4.188,0.543,8.533,0.312,12.52-1.061
				c1.98-0.689,3.879-1.668,5.422-3.055c1.545-1.367,2.688-3.193,2.947-5.223c0.279-2.02-0.348-4.084-1.488-5.809
				c-1.133-1.74-2.707-3.18-4.441-4.361c-3.498-2.357-7.625-3.709-11.82-4.273c-4.184-0.539-8.531-0.312-12.515,1.061
				c-1.981,0.691-3.879,1.672-5.428,3.049c-1.545,1.379-2.678,3.186-2.946,5.248L15.958,70.139z"/>
			<path fill="#00AEEF" d="M60.037,48.662l-42.471-5.619l-1.879,26.28c-0.059,0.251-0.129,0.498-0.163,0.757
				c-0.903,6.809,7.214,13.496,18.124,14.949c10.905,1.443,20.483-2.91,21.386-9.719c0.026-0.202,0.02-0.404,0.03-0.606
				L60.037,48.662z"/>
			<path fill="#44C8F5" d="M40.566,83.723c3.326-0.295,6.34-1.154,8.748-2.467c2.055-11.326,3.793-21.85,5.031-33.433l-9.652-1.25
				C42.52,59.551,41.77,69.703,40.566,83.723z"/>
			<g>
				<path fill="#969491" d="M17.543,43.044c0.899-6.812,11.136-11.078,22.848-9.522c11.72,1.542,20.491,8.326,19.593,15.134
					c-0.904,6.801-11.135,11.066-22.853,9.52C25.413,56.627,16.641,49.851,17.543,43.044z"/>
				<path fill="#969491" d="M17.334,43.012c0.38-2.296,1.781-4.303,3.545-5.729c1.771-1.45,3.87-2.445,6.036-3.141
					c4.357-1.37,9.019-1.634,13.532-1.053c4.517,0.603,8.955,2.068,12.794,4.54c1.904,1.242,3.672,2.748,4.99,4.612
					c1.328,1.852,2.092,4.13,1.908,6.432c-0.162,2.286-1.266,4.65-3.076,6.258c-1.814,1.59-3.99,2.652-6.213,3.412
					c-4.484,1.5-9.273,1.701-13.884,1.094c-4.603-0.645-9.161-2.121-13.056-4.77c-1.938-1.326-3.731-2.914-5.072-4.882
					C17.476,47.825,16.926,45.297,17.334,43.012z M17.755,43.076c-0.217,2.232,0.918,4.244,2.223,5.878
					c1.334,1.667,3.086,2.994,4.962,4.062c3.792,2.101,8.044,3.347,12.359,3.897c4.314,0.551,8.738,0.418,12.91-0.672
					c2.076-0.555,4.086-1.387,5.801-2.619c0.859-0.606,1.705-1.261,2.393-2.085c0.701-0.813,1.221-1.814,1.426-2.901
					c0.191-1.09,0.109-2.233-0.244-3.293c-0.352-1.053-0.908-2.035-1.584-2.927c-1.355-1.777-3.135-3.188-5.041-4.334
					c-3.848-2.274-8.221-3.528-12.625-4.125c-4.404-0.571-8.956-0.5-13.26,0.71c-2.136,0.616-4.223,1.514-5.979,2.89
					C19.35,38.901,17.943,40.848,17.755,43.076z"/>
			</g>
			<path fill="#E7E3DD" d="M18.332,43.526c0.762-5.784,10.409-9.274,21.537-7.809C51,37.184,59.404,43.063,58.646,48.85
				c-0.766,5.783-10.41,9.271-21.543,7.806C25.972,55.186,17.57,49.304,18.332,43.526z"/>
			<path fill="#E0DCD7" d="M58.646,48.853c0.447-3.409-2.311-6.847-6.918-9.4c2.189,5.695,1.24,12.399-5.074,14.765
				C39.511,56.123,32.276,55.324,25.376,53c3.181,1.738,7.224,3.064,11.726,3.66C48.236,58.129,57.879,54.633,58.646,48.853z"/>
			<path fill="#A7A7A9" d="M53.676,80.572c1.453-1.012,1.936-3.02,1.752-4.703c-0.045-0.432-0.291-1.072-0.693-1.305
				c-0.713-0.422-1.42,0.229-1.811,0.783c-0.355,0.508-0.578,1.016-0.811,1.578c-0.432,1.066-0.574,2.205-0.07,3.348
				C52.344,80.951,53.154,80.934,53.676,80.572z"/>
			<path fill="#A7A7A9" d="M57.744,58.279c1.453-1.016,1.932-3.021,1.75-4.703c-0.049-0.435-0.291-1.074-0.693-1.309
				c-0.717-0.421-1.422,0.235-1.811,0.787c-0.354,0.504-0.58,1.006-0.811,1.577c-0.434,1.066-0.576,2.207-0.068,3.342
				C56.412,58.656,57.223,58.639,57.744,58.279z"/>
			<path fill="#A7A7A9" d="M34.612,86.352c1.453-1.008,1.93-3.016,1.748-4.699c-0.044-0.432-0.288-1.07-0.692-1.307
				c-0.712-0.42-1.419,0.236-1.809,0.781c-0.355,0.51-0.58,1.018-0.81,1.586c-0.433,1.062-0.574,2.201-0.07,3.342
				C33.279,86.734,34.094,86.713,34.612,86.352z"/>
			<path fill="#A7A7A9" d="M35.523,64.256c1.348-1.148,1.631-3.189,1.282-4.844c-0.082-0.424-0.389-1.033-0.815-1.236
				c-0.754-0.35-1.385,0.375-1.727,0.959c-0.303,0.537-0.474,1.064-0.651,1.648c-0.329,1.1-0.355,2.25,0.254,3.336
				C34.232,64.76,35.041,64.672,35.523,64.256z"/>
			<path fill="#A7A7A9" d="M18.881,53.66c1.294-1.208,1.484-3.259,1.072-4.9c-0.107-0.427-0.441-1.022-0.87-1.2
				c-0.77-0.317-1.373,0.427-1.684,1.033c-0.281,0.551-0.431,1.084-0.581,1.671c-0.285,1.122-0.261,2.265,0.397,3.316
				C17.607,54.219,18.416,54.088,18.881,53.66z"/>
			<path fill="#A7A7A9" d="M16.155,72.809c1.261-1.246,1.387-3.309,0.912-4.934c-0.122-0.416-0.474-1.002-0.914-1.176
				c-0.773-0.283-1.358,0.471-1.643,1.098c-0.26,0.557-0.397,1.096-0.521,1.695c-0.244,1.115-0.185,2.271,0.508,3.303
				C14.913,73.412,15.712,73.256,16.155,72.809z"/>
		</g>
		<g>
			<path fill="#9B8579" d="M73.057,30.631c-0.389-0.658-1.396-0.836-2.189-0.365L41.434,48.252c-0.627-0.104-1.429,0.09-2.152,0.523
				c-0.563,0.332-1.025,0.774-1.303,1.24c-0.33,0.557-0.371,1.099-0.117,1.528c0.242,0.404,0.708,0.629,1.311,0.629
				c0.566,0,1.206-0.194,1.801-0.551c0.73-0.431,1.279-1.044,1.488-1.638l29.875-17.259c0.43-0.254,0.738-0.653,0.852-1.092
				C73.277,31.279,73.229,30.924,73.057,30.631z"/>
			<path fill="#9B8579" d="M31.924,43.871L8.362,18.66c-0.624-0.649-1.65-0.76-2.203-0.23c-0.569,0.547-0.51,1.539,0.138,2.218
				l24.17,24.613c0.042,0.628,0.408,1.364,0.994,1.979c0.654,0.681,1.447,1.087,2.124,1.087c0.357,0,0.668-0.116,0.896-0.334
				c0.679-0.654,0.409-1.964-0.629-3.046C33.271,44.336,32.577,43.946,31.924,43.871z"/>
		</g>
	</g>
</g>
<g id="laptop_gray" display="none">
	<g id="laptop1_1_" display="inline">
		<g>
			<polygon fill="#A7A9AC" points="7.001,74.023 72.802,73.812 72.91,71.604 37.875,65.34 6.872,71.817 			"/>
			
				<rect x="17.224" y="30.899" transform="matrix(-1 0.0032 -0.0032 -1 79.7604 93.1163)" fill="#A7A9AC" width="45.161" height="31.448"/>
			
				<rect x="20.412" y="33.103" transform="matrix(-1 0.0032 -0.0032 -1 79.7674 93.0995)" fill="#F2F2F2" width="38.792" height="27.022"/>
			<polygon fill="#E6E7E8" points="17.289,62.242 62.433,62.099 72.91,71.604 6.872,71.817 			"/>
			
				<line fill="none" stroke="#C7C6C7" stroke-width="0.4629" stroke-miterlimit="10" x1="60.84" y1="63.638" x2="19.841" y2="63.77"/>
			
				<line fill="none" stroke="#C7C6C7" stroke-width="0.4629" stroke-miterlimit="10" x1="61.951" y1="64.853" x2="18.734" y2="64.991"/>
			
				<line fill="none" stroke="#C7C6C7" stroke-width="0.4629" stroke-miterlimit="10" x1="63.059" y1="66.065" x2="17.628" y2="66.211"/>
			
				<line fill="none" stroke="#C7C6C7" stroke-width="0.4629" stroke-miterlimit="10" x1="16.183" y1="67.714" x2="64.244" y2="67.559"/>
			<g>
				
					<line fill="none" stroke="#C7C6C7" stroke-width="0.4629" stroke-miterlimit="10" x1="20.002" y1="63.655" x2="16.248" y2="67.603"/>
				
					<line fill="none" stroke="#C7C6C7" stroke-width="0.4629" stroke-miterlimit="10" x1="22.562" y1="63.646" x2="19.275" y2="67.599"/>
				
					<line fill="none" stroke="#C7C6C7" stroke-width="0.4629" stroke-miterlimit="10" x1="25.124" y1="63.632" x2="22.301" y2="67.6"/>
				
					<line fill="none" stroke="#C7C6C7" stroke-width="0.4629" stroke-miterlimit="10" x1="27.678" y1="63.623" x2="25.328" y2="67.596"/>
				
					<line fill="none" stroke="#C7C6C7" stroke-width="0.4629" stroke-miterlimit="10" x1="30.24" y1="63.609" x2="28.355" y2="67.593"/>
				
					<line fill="none" stroke="#C7C6C7" stroke-width="0.4629" stroke-miterlimit="10" x1="32.8" y1="63.601" x2="31.381" y2="67.59"/>
				
					<line fill="none" stroke="#C7C6C7" stroke-width="0.4629" stroke-miterlimit="10" x1="35.356" y1="63.587" x2="34.406" y2="67.585"/>
				
					<line fill="none" stroke="#C7C6C7" stroke-width="0.4629" stroke-miterlimit="10" x1="37.917" y1="63.574" x2="37.654" y2="66.117"/>
				
					<line fill="none" stroke="#C7C6C7" stroke-width="0.4629" stroke-miterlimit="10" x1="40.477" y1="63.564" x2="40.482" y2="66.108"/>
				
					<line fill="none" stroke="#C7C6C7" stroke-width="0.4629" stroke-miterlimit="10" x1="43.034" y1="63.552" x2="43.308" y2="66.1"/>
				
					<line fill="none" stroke="#C7C6C7" stroke-width="0.4629" stroke-miterlimit="10" x1="45.593" y1="63.541" x2="46.514" y2="67.575"/>
				<polygon fill="#C7C6C7" points="46.523,70.554 45.608,68.451 35.375,68.49 34.418,70.573 				"/>
				
					<line fill="none" stroke="#C7C6C7" stroke-width="0.4629" stroke-miterlimit="10" x1="48.149" y1="63.528" x2="49.542" y2="67.573"/>
				
					<line fill="none" stroke="#C7C6C7" stroke-width="0.4629" stroke-miterlimit="10" x1="50.711" y1="63.517" x2="52.565" y2="67.569"/>
				
					<line fill="none" stroke="#C7C6C7" stroke-width="0.4629" stroke-miterlimit="10" x1="53.271" y1="63.504" x2="55.594" y2="67.565"/>
				
					<line fill="none" stroke="#C7C6C7" stroke-width="0.4629" stroke-miterlimit="10" x1="55.829" y1="63.492" x2="58.618" y2="67.564"/>
				
					<line fill="none" stroke="#C7C6C7" stroke-width="0.4629" stroke-miterlimit="10" x1="58.388" y1="63.48" x2="61.644" y2="67.56"/>
				
					<line fill="none" stroke="#C7C6C7" stroke-width="0.4629" stroke-miterlimit="10" x1="60.626" y1="63.523" x2="64.353" y2="67.612"/>
			</g>
		</g>
	</g>
</g>
<g id="laptop" display="none">
	<g id="laptop1" display="inline">
		<g>
			<polygon fill="#6B6E79" points="6.91,74.096 72.858,73.848 72.967,71.635 37.85,65.375 6.779,71.883 			"/>
			
				<rect x="17.142" y="30.854" transform="matrix(-1 0.0038 -0.0038 -1 79.7246 93.0781)" fill="#6B6E79" width="45.264" height="31.521"/>
			
				<rect x="20.337" y="33.064" transform="matrix(-1 0.0038 -0.0038 -1 79.7312 93.0607)" fill="#595B64" width="38.881" height="27.084"/>
			<polygon fill="#878992" points="17.215,62.283 62.462,62.113 72.967,71.635 6.779,71.883 			"/>
			
				<line fill="none" stroke="#9E9CA3" stroke-width="0.4632" stroke-miterlimit="10" x1="60.867" y1="63.655" x2="19.773" y2="63.811"/>
			
				<line fill="none" stroke="#9E9CA3" stroke-width="0.4632" stroke-miterlimit="10" x1="61.98" y1="64.873" x2="18.665" y2="65.035"/>
			
				<line fill="none" stroke="#9E9CA3" stroke-width="0.4632" stroke-miterlimit="10" x1="63.092" y1="66.089" x2="17.558" y2="66.26"/>
			
				<line fill="none" stroke="#9E9CA3" stroke-width="0.4632" stroke-miterlimit="10" x1="16.109" y1="67.766" x2="64.281" y2="67.584"/>
			<g>
				
					<line fill="none" stroke="#9E9CA3" stroke-width="0.4632" stroke-miterlimit="10" x1="19.936" y1="63.697" x2="16.175" y2="67.653"/>
				
					<line fill="none" stroke="#9E9CA3" stroke-width="0.4632" stroke-miterlimit="10" x1="22.5" y1="63.686" x2="19.209" y2="67.649"/>
				
					<line fill="none" stroke="#9E9CA3" stroke-width="0.4632" stroke-miterlimit="10" x1="25.068" y1="63.67" x2="22.242" y2="67.648"/>
				
					<line fill="none" stroke="#9E9CA3" stroke-width="0.4632" stroke-miterlimit="10" x1="27.629" y1="63.66" x2="25.275" y2="67.643"/>
				
					<line fill="none" stroke="#9E9CA3" stroke-width="0.4632" stroke-miterlimit="10" x1="30.196" y1="63.645" x2="28.31" y2="67.639"/>
				
					<line fill="none" stroke="#9E9CA3" stroke-width="0.4632" stroke-miterlimit="10" x1="32.763" y1="63.633" x2="31.344" y2="67.633"/>
				
					<line fill="none" stroke="#9E9CA3" stroke-width="0.4632" stroke-miterlimit="10" x1="35.324" y1="63.619" x2="34.375" y2="67.627"/>
				
					<line fill="none" stroke="#9E9CA3" stroke-width="0.4632" stroke-miterlimit="10" x1="37.891" y1="63.605" x2="37.629" y2="66.153"/>
				
					<line fill="none" stroke="#9E9CA3" stroke-width="0.4632" stroke-miterlimit="10" x1="40.457" y1="63.595" x2="40.464" y2="66.143"/>
				
					<line fill="none" stroke="#9E9CA3" stroke-width="0.4632" stroke-miterlimit="10" x1="43.021" y1="63.579" x2="43.294" y2="66.133"/>
				
					<line fill="none" stroke="#9E9CA3" stroke-width="0.4632" stroke-miterlimit="10" x1="45.585" y1="63.567" x2="46.511" y2="67.609"/>
				<polygon fill="none" stroke="#9E9CA3" stroke-width="0.4632" stroke-miterlimit="10" points="46.521,70.596 45.604,68.488 
					35.346,68.534 34.387,70.621 				"/>
				
					<line fill="none" stroke="#9E9CA3" stroke-width="0.4632" stroke-miterlimit="10" x1="48.148" y1="63.554" x2="49.544" y2="67.606"/>
				
					<line fill="none" stroke="#9E9CA3" stroke-width="0.4632" stroke-miterlimit="10" x1="50.715" y1="63.541" x2="52.575" y2="67.601"/>
				
					<line fill="none" stroke="#9E9CA3" stroke-width="0.4632" stroke-miterlimit="10" x1="53.28" y1="63.527" x2="55.61" y2="67.597"/>
				
					<line fill="none" stroke="#9E9CA3" stroke-width="0.4632" stroke-miterlimit="10" x1="55.846" y1="63.514" x2="58.644" y2="67.594"/>
				
					<line fill="none" stroke="#9E9CA3" stroke-width="0.4632" stroke-miterlimit="10" x1="58.41" y1="63.5" x2="61.676" y2="67.588"/>
				
					<line fill="none" stroke="#9E9CA3" stroke-width="0.4632" stroke-miterlimit="10" x1="60.653" y1="63.54" x2="64.391" y2="67.639"/>
			</g>
		</g>
	</g>
</g>
</svg>
