<?xml version="1.0" encoding="utf-8"?>
<!-- Generator: Adobe Illustrator 15.0.0, SVG Export Plug-In . SVG Version: 6.00 Build 0)  -->
<!DOCTYPE svg PUBLIC "-//W3C//DTD SVG 1.1//EN" "http://www.w3.org/Graphics/SVG/1.1/DTD/svg11.dtd">
<svg version="1.1" xmlns="http://www.w3.org/2000/svg" xmlns:xlink="http://www.w3.org/1999/xlink" x="0px" y="0px" width="150px"
	 height="150px" viewBox="0 0 150 150" enable-background="new 0 0 150 150" xml:space="preserve">
<g id="mixer" display="none">
	<g id="MIXER" display="inline">
		<g>
			<path fill="#4D4D4D" d="M17.816,81.472l33.636-33.166l2.175-6.002l19.268-16.826l-2.563-1.157
				C53.963,37.227,52.47,42.605,52.47,42.605c-6.887,4.528-35.583,36.716-37.099,38.304c-1.537,1.592-2.154,5.503-2.154,5.503
				s0.247,2.301,0.205,3.618c-0.032,0.82,0.599,1.146,1.07,1.278C13.748,83.855,17.816,81.472,17.816,81.472z"/>
			<path fill="#5C5F62" d="M84.306,115.356l31.644-37.177l3.382-7.273l15.621-17.646L72.916,25.241L54.424,42.096l-2.969,5.97
				L17.819,81.234c0,0-4.066,2.388-3.318,9.831c0.295,0.08,0.516,0.088,0.516,0.088l65.84,33.598l0.365,0.125
				C80.24,116.474,84.306,115.356,84.306,115.356z"/>
			<path fill="#4D4D4D" d="M134.939,53.263l-15.62,17.646l-3.383,7.272l-31.634,37.176c0,0-4.065,1.119-3.076,9.537l2.229,0.784
				l2.021-0.613c2.602-3.079,4.751-5.463,8.065-8.461c18.479-16.781,41.324-49.757,41.324-49.757l0.035-0.648l0.854-1.287
				l1.027-10.8L134.939,53.263z"/>
		</g>
		<polygon fill="#C0BDBE" points="54.428,42.115 118.792,70.791 115.606,77.894 51.61,48.543 		"/>
		<g>
			<path fill="#AFB4B7" d="M31.227,72.438c-0.126-0.458,0.309-4.954,0.309-4.954s0.921-3.041,4.256-0.807l0.511,4.845
				c0,0,0.333,2.122-2.328,2.496C33.963,74.031,31.649,73.95,31.227,72.438z"/>
			
				<ellipse transform="matrix(0.9994 0.034 -0.034 0.9994 2.3095 -1.1092)" fill="#3C3C3B" cx="33.746" cy="67.303" rx="1.937" ry="1.393"/>
		</g>
		<g>
			<path fill="#AFB4B7" d="M26.841,78.898c-0.15-0.529,0.353-5.73,0.353-5.73s1.061-3.499,4.909-0.931l0.586,5.603
				c0,0,0.375,2.451-2.701,2.899C30.001,80.737,27.332,80.642,26.841,78.898z"/>
			
				<ellipse transform="matrix(0.9994 0.0342 -0.0342 0.9994 2.5181 -0.975)" fill="#EBF7FC" cx="29.728" cy="73.041" rx="2.239" ry="1.614"/>
		</g>
		<g>
			<path fill="#AFB4B7" d="M50.06,54.242c-0.102-0.412,0.289-4.465,0.289-4.465s0.834-2.73,3.813-0.726l0.458,4.366
				c0,0,0.31,1.91-2.084,2.256C52.521,55.674,50.437,55.602,50.06,54.242z"/>
			
				<ellipse transform="matrix(0.9994 0.0358 -0.0358 0.9994 1.8112 -1.8392)" fill="#104066" cx="52.296" cy="49.689" rx="1.747" ry="1.255"/>
		</g>
		<g>
			<path fill="#AFB4B7" d="M45.699,57.98c-0.117-0.41,0.269-4.475,0.269-4.475s0.83-2.73,3.823-0.719l0.445,4.356
				c0,0,0.31,1.911-2.084,2.255C48.157,59.416,46.084,59.342,45.699,57.98z"/>
			
				<ellipse transform="matrix(0.9994 0.034 -0.034 0.9994 1.8421 -1.5982)" fill="#104066" cx="47.941" cy="53.396" rx="1.746" ry="1.257"/>
		</g>
		<g>
			<path fill="#AFB4B7" d="M40.835,62.357c-0.122-0.457,0.306-4.956,0.306-4.956s0.922-3.029,4.244-0.808l0.516,4.845
				c0,0,0.333,2.12-2.33,2.506C43.571,63.948,41.264,63.869,40.835,62.357z"/>
			
				<ellipse transform="matrix(0.9994 0.0336 -0.0336 0.9994 1.946 -1.4233)" fill="#104066" cx="43.353" cy="57.231" rx="1.934" ry="1.394"/>
		</g>
		<g>
			<path fill="#AFB4B7" d="M36.546,67.475c-0.13-0.447,0.306-4.956,0.306-4.956s0.921-3.029,4.244-0.807l0.513,4.844
				c0,0,0.334,2.12-2.33,2.504C39.279,69.063,36.969,68.987,36.546,67.475z"/>
			
				<ellipse transform="matrix(0.9994 0.0347 -0.0347 0.9994 2.1868 -1.3203)" fill="#AC2143" cx="39.115" cy="62.315" rx="1.934" ry="1.392"/>
		</g>
		<g>
			<path fill="#AFB4B7" d="M41.379,76.675c-0.125-0.459,0.308-4.955,0.308-4.955s0.923-3.043,4.244-0.808l0.513,4.845
				c0,0,0.324,2.118-2.342,2.495C44.113,78.266,41.802,78.188,41.379,76.675z"/>
			
				<ellipse transform="matrix(0.9994 0.0351 -0.0351 0.9994 2.5404 -1.4977)" fill="#3C3C3B" cx="43.891" cy="71.543" rx="1.939" ry="1.392"/>
		</g>
		<g>
			<path fill="#AFB4B7" d="M60.212,58.477c-0.122-0.414,0.272-4.464,0.272-4.464s0.827-2.727,3.822-0.725l0.462,4.366
				c0,0,0.305,1.91-2.099,2.255C62.669,59.909,60.59,59.835,60.212,58.477z"/>
			
				<ellipse transform="matrix(0.9994 0.0344 -0.0344 0.9994 1.8903 -2.1168)" fill="#104066" cx="62.463" cy="53.876" rx="1.746" ry="1.256"/>
		</g>
		<g>
			<path fill="#2D2C2C" d="M61.112,42.035c-0.101-0.412,0.225-3.315,0.225-3.315s0.84-2.729,3.823-0.728l0.514,3.224
				c0,0,0.306,1.91-2.097,2.256C63.575,43.466,61.497,43.395,61.112,42.035z"/>
			
				<ellipse transform="matrix(0.9994 0.034 -0.034 0.9994 1.3466 -2.1287)" fill="#605B5B" cx="63.291" cy="38.547" rx="1.746" ry="1.257"/>
		</g>
		<g>
			<path fill="#2D2C2C" d="M71.362,46.73c-0.114-0.412,0.222-3.321,0.222-3.321s0.843-2.717,3.826-0.719l0.513,3.224
				c0,0,0.307,1.91-2.1,2.255C73.823,48.162,71.745,48.093,71.362,46.73z"/>
			
				<ellipse transform="matrix(0.9994 0.0344 -0.0344 0.9994 1.5353 -2.5052)" fill="#605B5B" cx="73.533" cy="43.34" rx="1.745" ry="1.258"/>
		</g>
		<g>
			<path fill="#AFB4B7" d="M55.844,62.219c-0.109-0.422,0.277-4.476,0.277-4.476s0.832-2.729,3.823-0.718l0.468,4.355
				c0,0,0.3,1.906-2.104,2.255C58.309,63.648,56.226,63.578,55.844,62.219z"/>
			
				<ellipse transform="matrix(0.9994 0.0351 -0.0351 0.9994 2.0557 -2.0025)" fill="#104066" cx="58.113" cy="57.599" rx="1.747" ry="1.256"/>
		</g>
		<g>
			<path fill="#AFB4B7" d="M50.988,66.593c-0.13-0.458,0.309-4.957,0.309-4.957s0.922-3.032,4.243-0.808l0.511,4.845
				c0,0,0.335,2.122-2.326,2.506C53.723,68.183,51.416,68.103,50.988,66.593z"/>
			
				<ellipse transform="matrix(0.9994 0.0333 -0.0333 0.9994 2.078 -1.7479)" fill="#104066" cx="53.517" cy="61.515" rx="1.936" ry="1.391"/>
		</g>
		<g>
			<path fill="#AFB4B7" d="M46.699,71.71c-0.128-0.445,0.308-4.954,0.308-4.954s0.917-3.028,4.243-0.808l0.513,4.847
				c0,0,0.33,2.118-2.33,2.504C49.432,73.3,47.122,73.22,46.699,71.71z"/>
			
				<ellipse transform="matrix(0.9994 0.0336 -0.0336 0.9994 2.2612 -1.6127)" fill="#AC2143" cx="49.186" cy="66.573" rx="1.936" ry="1.393"/>
		</g>
		<g>
			<path fill="#AFB4B7" d="M52.185,81.734c-0.123-0.459,0.308-4.958,0.308-4.958s0.923-3.041,4.239-0.807l0.513,4.845
				c0,0,0.336,2.121-2.329,2.496C54.921,83.323,52.614,83.245,52.185,81.734z"/>
			
				<ellipse transform="matrix(0.9994 0.0341 -0.0341 0.9994 2.6435 -1.8208)" fill="#3C3C3B" cx="54.728" cy="76.625" rx="1.934" ry="1.395"/>
		</g>
		<g>
			<path fill="#AFB4B7" d="M71.018,63.538c-0.117-0.413,0.273-4.462,0.273-4.462s0.827-2.73,3.823-0.729l0.463,4.366
				c0,0,0.305,1.91-2.101,2.256C73.477,64.969,71.398,64.898,71.018,63.538z"/>
			
				<ellipse transform="matrix(0.9994 0.034 -0.034 0.9994 2.0454 -2.4591)" fill="#104066" cx="73.31" cy="58.895" rx="1.744" ry="1.255"/>
		</g>
		<g>
			<path fill="#AFB4B7" d="M66.659,67.276c-0.103-0.41,0.275-4.475,0.275-4.475s0.827-2.729,3.82-0.719l0.464,4.356
				c0,0,0.305,1.91-2.096,2.256C69.123,68.708,67.04,68.637,66.659,67.276z"/>
			
				<ellipse transform="matrix(0.9994 0.0344 -0.0344 0.9994 2.1982 -2.3333)" fill="#104066" cx="68.907" cy="62.717" rx="1.746" ry="1.256"/>
		</g>
		<g>
			<path fill="#AFB4B7" d="M61.798,71.653c-0.129-0.457,0.309-4.958,0.309-4.958s0.918-3.032,4.243-0.809l0.513,4.847
				c0,0,0.326,2.12-2.339,2.503C64.531,73.242,62.224,73.162,61.798,71.653z"/>
			
				<ellipse transform="matrix(0.9994 0.0348 -0.0348 0.9994 2.3503 -2.1988)" fill="#104066" cx="64.351" cy="66.43" rx="1.93" ry="1.398"/>
		</g>
		<g>
			<path fill="#AFB4B7" d="M57.507,76.773c-0.131-0.449,0.308-4.957,0.308-4.957s0.923-3.028,4.243-0.807l0.513,4.844
				c0,0,0.333,2.122-2.33,2.507C60.241,78.36,57.931,78.283,57.507,76.773z"/>
			
				<ellipse transform="matrix(0.9994 0.0344 -0.0344 0.9994 2.499 -2.0214)" fill="#AC2143" cx="60.044" cy="71.673" rx="1.939" ry="1.397"/>
		</g>
		<g>
			<path fill="#AFB4B7" d="M62.75,87.264c-0.118-0.486,0.312-5.254,0.312-5.254s0.897-3.214,4.118-0.868l0.484,5.153
				c0,0,0.317,2.235-2.265,2.662C65.4,88.943,63.158,88.867,62.75,87.264z"/>
			
				<ellipse transform="matrix(0.9994 0.0335 -0.0335 0.9994 2.7834 -2.1424)" fill="#3C3C3B" cx="65.235" cy="81.873" rx="1.878" ry="1.481"/>
		</g>
		<g>
			<path fill="#AFB4B7" d="M81.074,67.904c-0.101-0.444,0.276-4.744,0.276-4.744s0.814-2.901,3.727-0.785l0.436,4.628
				c0,0,0.289,2.016-2.043,2.4C83.456,69.416,81.44,69.348,81.074,67.904z"/>
			
				<ellipse transform="matrix(0.9995 0.0331 -0.0331 0.9995 2.1344 -2.7208)" fill="#104066" cx="83.26" cy="63.118" rx="1.689" ry="1.33"/>
		</g>
		<g>
			<path fill="#AFB4B7" d="M76.827,71.886c-0.1-0.438,0.281-4.735,0.281-4.735s0.814-2.906,3.727-0.786l0.444,4.628
				c0,0,0.287,2.025-2.037,2.4C79.218,73.396,77.201,73.327,76.827,71.886z"/>
			
				<ellipse transform="matrix(0.9994 0.0349 -0.0349 0.9994 2.3892 -2.7182)" fill="#104066" cx="78.989" cy="67.021" rx="1.691" ry="1.329"/>
		</g>
		<g>
			<path fill="#AFB4B7" d="M72.105,76.54c-0.124-0.484,0.309-5.256,0.309-5.256s0.917-3.215,4.133-0.855l0.483,5.137
				c0,0,0.31,2.246-2.266,2.663C74.75,78.219,72.514,78.146,72.105,76.54z"/>
			
				<ellipse transform="matrix(0.9994 0.0342 -0.0342 0.9994 2.4755 -2.5062)" fill="#104066" cx="74.512" cy="71.121" rx="1.878" ry="1.478"/>
		</g>
		<g>
			<path fill="#AFB4B7" d="M67.925,81.984c-0.123-0.488,0.309-5.259,0.309-5.259s0.921-3.214,4.135-0.868l0.485,5.139
				c0,0,0.309,2.248-2.264,2.663C70.575,83.658,68.332,83.579,67.925,81.984z"/>
			<path fill="#AC2143" d="M72.227,76.606c-0.029,0.817-0.893,1.451-1.931,1.415c-1.037-0.036-1.855-0.726-1.828-1.543
				c0.027-0.813,0.891-1.448,1.929-1.413C71.435,75.101,72.253,75.792,72.227,76.606z"/>
		</g>
		<g>
			<path fill="#AFB4B7" d="M37.21,83.732c-0.168-0.515,0.359-5.715,0.359-5.715s1.061-3.514,4.89-0.933l0.586,5.601
				c0,0,0.379,2.453-2.7,2.9C40.374,85.571,37.701,85.481,37.21,83.732z"/>
			
				<ellipse transform="matrix(0.9994 0.0338 -0.0338 0.9994 2.6567 -1.3147)" fill="#EBF7FC" cx="40.191" cy="77.875" rx="2.238" ry="1.611"/>
		</g>
		<g>
			<path fill="#AFB4B7" d="M47.73,88.968c-0.155-0.532,0.363-5.729,0.363-5.729s1.058-3.501,4.888-0.928l0.598,5.598
				c0,0,0.382,2.45-2.694,2.907C50.887,90.806,48.217,90.712,47.73,88.968z"/>
			
				<ellipse transform="matrix(0.9994 0.0351 -0.0351 0.9994 2.9432 -1.7236)" fill="#EBF7FC" cx="50.632" cy="83.082" rx="2.243" ry="1.613"/>
		</g>
		<g>
			<path fill="#AFB4B7" d="M58.624,94.371c-0.146-0.53,0.356-5.728,0.356-5.728s1.062-3.503,4.904-0.93l0.581,5.6
				c0,0,0.392,2.449-2.692,2.907C61.785,96.208,59.119,96.119,58.624,94.371z"/>
			
				<ellipse transform="matrix(0.9994 0.0347 -0.0347 0.9994 3.1033 -2.0815)" fill="#EBF7FC" cx="61.533" cy="88.386" rx="2.238" ry="1.612"/>
		</g>
		<g>
			<path fill="#AFB4B7" d="M69.37,99.769c-0.147-0.525,0.353-5.725,0.353-5.725s1.064-3.504,4.91-0.922l0.593,5.592
				c0,0,0.375,2.447-2.702,2.903C72.531,101.604,69.862,101.515,69.37,99.769z"/>
			
				<ellipse transform="matrix(0.9994 0.0337 -0.0337 0.9994 3.2065 -2.3843)" fill="#EBF7FC" cx="72.284" cy="93.86" rx="2.244" ry="1.611"/>
		</g>
		<g>
			<path fill="#AFB4B7" d="M80.201,104.937c-0.151-0.519,0.375-5.717,0.375-5.717s1.061-3.511,4.888-0.933l0.591,5.604
				c0,0,0.386,2.448-2.694,2.895C83.363,106.771,80.69,106.679,80.201,104.937z"/>
			
				<ellipse transform="matrix(0.9994 0.0336 -0.0336 0.9994 3.3741 -2.7344)" fill="#EBF7FC" cx="83.068" cy="99.052" rx="2.239" ry="1.611"/>
		</g>
		
			<ellipse transform="matrix(0.9994 0.034 -0.034 0.9994 1.1062 -2.4823)" fill="#3C3C3B" cx="73.488" cy="31.26" rx="5.224" ry="3.535"/>
		
			<ellipse transform="matrix(0.9994 0.0337 -0.0337 0.9994 1.2444 -2.7878)" fill="#3C3C3B" cx="83.43" cy="35.57" rx="5.382" ry="3.611"/>
		
			<ellipse transform="matrix(0.9994 0.0343 -0.0343 0.9994 1.2599 -2.8446)" fill="none" stroke="#272929" stroke-width="0.694" stroke-miterlimit="10" cx="83.469" cy="35.267" rx="4.203" ry="2.616"/>
		
			<ellipse transform="matrix(0.9994 0.0343 -0.0343 0.9994 1.2837 -2.8974)" fill="#282B2B" cx="85.013" cy="35.932" rx="0.704" ry="0.428"/>
		
			<ellipse transform="matrix(0.9994 0.0342 -0.0342 0.9994 1.2341 -2.7783)" fill="#282B2B" cx="81.857" cy="34.698" rx="0.707" ry="0.432"/>
		
			<ellipse transform="matrix(0.9994 0.0344 -0.0344 0.9994 1.2933 -2.8092)" fill="#282B2B" cx="82.392" cy="36.23" rx="0.704" ry="0.433"/>
		<path fill="#3C3C3B" d="M79.009,31.542c-0.068,1.995-2.529,3.521-5.502,3.429c-2.974-0.101-5.31-1.802-5.242-3.792
			c0.067-2,2.527-3.521,5.503-3.433C76.725,27.846,79.076,29.544,79.009,31.542z"/>
		
			<ellipse transform="matrix(0.9994 0.0342 -0.0342 0.9994 1.1068 -2.501)" fill="none" stroke="#272929" stroke-width="0.694" stroke-miterlimit="10" cx="73.644" cy="31.096" rx="4.204" ry="2.619"/>
		
			<ellipse transform="matrix(0.9993 0.0369 -0.0369 0.9993 1.2222 -2.7518)" fill="#282B2B" cx="75.247" cy="31.774" rx="0.702" ry="0.433"/>
		
			<ellipse transform="matrix(0.9995 0.0329 -0.0329 0.9995 1.0406 -2.3485)" fill="#282B2B" cx="71.908" cy="30.457" rx="0.705" ry="0.434"/>
		
			<ellipse transform="matrix(0.9995 0.0325 -0.0325 0.9995 1.0768 -2.338)" fill="#282B2B" cx="72.563" cy="32.001" rx="0.707" ry="0.431"/>
		<g>
			<g>
				
					<ellipse transform="matrix(0.9994 0.0343 -0.0343 0.9994 1.4359 -3.1082)" fill="#BFBDB8" cx="91.411" cy="40.343" rx="2.8" ry="2.009"/>
				<path fill="#EAEAEC" d="M89.65,38.581l-0.083,1.523c0,0,0.034,1.197,1.855,1.214c0.511,0.005,1.396-0.309,1.854-0.889
					l0.056-1.631L89.65,38.581z"/>
			</g>
		</g>
		<g>
			<g>
				
					<ellipse transform="matrix(0.9994 0.0337 -0.0337 0.9994 1.5164 -3.2789)" fill="#BFBDB8" cx="97.917" cy="43.293" rx="2.8" ry="2.012"/>
				<path fill="#EAEAEC" d="M96.015,41.445l-0.08,1.522c0,0,0.033,1.195,1.849,1.215c0.532,0.003,1.398-0.308,1.856-0.888
					l0.057-1.629L96.015,41.445z"/>
			</g>
		</g>
		<g>
			<g>
				
					<ellipse transform="matrix(0.9994 0.0339 -0.0339 0.9994 1.6397 -3.5208)" fill="#BFBDB8" cx="104.501" cy="46.525" rx="2.798" ry="2.01"/>
				<path fill="#EAEAEC" d="M102.631,44.765l-0.1,1.538c0,0,0.051,1.195,1.849,1.202c0.531,0.006,1.401-0.309,1.879-0.892
					l0.033-1.615L102.631,44.765z"/>
			</g>
		</g>
		<g>
			<g>
				
					<ellipse transform="matrix(0.9994 0.0349 -0.0349 0.9994 1.8277 -3.9405)" fill="#BFBDB8" cx="113.806" cy="50.392" rx="3.211" ry="2.304"/>
				<path fill="#EAEAEC" d="M111.655,48.391l-0.104,1.747c0,0,0.062,1.373,2.117,1.39c0.615,0.004,1.607-0.353,2.129-1.019
					l0.063-1.869L111.655,48.391z"/>
			</g>
		</g>
		<g>
			<g>
				
					<ellipse transform="matrix(0.9994 0.034 -0.034 0.9994 2.1175 -4.0291)" fill="#BFBDB8" cx="119.49" cy="60.228" rx="3.202" ry="2.304"/>
				<path fill="#EAEAEC" d="M117.425,58.188l-0.091,1.743c0,0,0.034,1.374,2.117,1.4c0.616,0.006,1.604-0.363,2.128-1.019
					l0.064-1.879L117.425,58.188z"/>
			</g>
		</g>
		<g>
			<g>
				
					<ellipse transform="matrix(0.9994 0.034 -0.034 0.9994 2.292 -3.883)" fill="#BFBDB8" cx="115.25" cy="65.409" rx="3.201" ry="2.306"/>
				<path fill="#EAEAEC" d="M113.075,63.424l-0.093,1.743c0,0,0.062,1.376,2.119,1.394c0.612,0.006,1.601-0.351,2.124-1.019
					l0.064-1.866L113.075,63.424z"/>
			</g>
		</g>
		<g>
			<g>
				
					<ellipse transform="matrix(0.9994 0.0352 -0.0352 0.9994 2.0099 -3.7911)" fill="#BFBDB8" cx="108.788" cy="55.247" rx="2.798" ry="2.01"/>
				<path fill="#EAEAEC" d="M106.95,53.484l-0.076,1.522c0,0,0.033,1.198,1.85,1.216c0.534,0.005,1.399-0.309,1.859-0.889
					l0.056-1.629L106.95,53.484z"/>
			</g>
		</g>
		<g>
			<g>
				
					<ellipse transform="matrix(0.9994 0.0335 -0.0335 0.9994 2.0708 -3.4637)" fill="#BFBDB8" cx="104.49" cy="60.118" rx="2.801" ry="2.011"/>
				
					<ellipse transform="matrix(0.9994 0.0338 -0.0338 0.9994 2.596 -3.2502)" fill="#605B5B" cx="97.476" cy="75.192" rx="2.32" ry="1.67"/>
				<path fill="#EAEAEC" d="M102.615,58.358l-0.082,1.522c0,0,0.057,1.198,1.852,1.215c0.533,0.004,1.401-0.309,1.858-0.889
					l0.054-1.629L102.615,58.358z"/>
			</g>
		</g>
		<g>
			<g>
				
					<ellipse transform="matrix(0.9994 0.0345 -0.0345 0.9994 1.8183 -3.3613)" fill="#BFBDB8" cx="98.245" cy="50.973" rx="2.8" ry="2.011"/>
				<path fill="#EAEAEC" d="M96.467,49.222l-0.079,1.535c0,0,0.055,1.195,1.846,1.214c0.535,0.003,1.402-0.308,1.86-0.888
					l0.054-1.631L96.467,49.222z"/>
			</g>
		</g>
		<g>
			<g>
				<path fill="#BFBDB8" d="M96.721,55.466c-0.037,1.11-1.32,1.966-2.865,1.916c-1.549-0.052-2.772-0.994-2.733-2.103
					c0.036-1.109,1.319-1.968,2.866-1.917C95.535,53.415,96.76,54.356,96.721,55.466z"/>
				<path fill="#EAEAEC" d="M92.057,53.558l-0.08,1.522c0,0,0.049,1.198,1.85,1.216c0.534,0.004,1.398-0.31,1.858-0.89l0.055-1.631
					L92.057,53.558z"/>
			</g>
		</g>
		<g>
			<g>
				
					<ellipse transform="matrix(0.9994 0.0332 -0.0332 0.9994 1.7362 -2.7488)" fill="#BFBDB8" cx="83.644" cy="50.908" rx="2.802" ry="2.01"/>
				<path fill="#EAEAEC" d="M81.757,49.078l-0.082,1.538c0,0,0.053,1.195,1.851,1.205c0.531,0.013,1.402-0.308,1.855-0.894
					l0.054-1.615L81.757,49.078z"/>
			</g>
		</g>
		<g>
			<g>
				
					<ellipse transform="matrix(0.9994 0.0351 -0.0351 0.9994 1.6671 -3.0473)" fill="#BFBDB8" cx="87.606" cy="45.948" rx="2.803" ry="2.011"/>
				<path fill="#EAEAEC" d="M85.734,44.233l-0.078,1.535c0,0,0.05,1.195,1.851,1.214c0.532,0.006,1.4-0.308,1.855-0.888l0.052-1.631
					L85.734,44.233z"/>
			</g>
		</g>
		<g>
			<path fill="#FFFFFF" d="M79.735,39.893c-0.034,0.709-0.875,1.258-1.9,1.225c-1.03-0.034-1.84-0.64-1.816-1.352
				c0.036-0.713,0.873-1.261,1.906-1.226C78.946,38.574,79.764,39.183,79.735,39.893z"/>
			<g>
				
					<ellipse transform="matrix(0.9994 0.0342 -0.0342 0.9994 1.4642 -2.6442)" fill="#BFBDB8" cx="77.947" cy="41.435" rx="2.803" ry="2.009"/>
				<path fill="#EAEAEC" d="M76.064,39.686l-0.08,1.522c0,0,0.057,1.199,1.848,1.216c0.54,0.005,1.399-0.306,1.857-0.889
					l0.056-1.631L76.064,39.686z"/>
				
					<ellipse transform="matrix(0.9994 0.035 -0.035 0.9994 1.4397 -2.698)" fill="#595958" cx="77.884" cy="39.828" rx="1.488" ry="1.028"/>
			</g>
		</g>
		<g>
			
				<ellipse transform="matrix(0.9994 0.0335 -0.0335 0.9994 1.2269 -2.2577)" fill="#FFFFFF" cx="67.948" cy="35.461" rx="1.857" ry="1.29"/>
			<g>
				
					<ellipse transform="matrix(0.9994 0.0343 -0.0343 0.9994 1.3119 -2.3121)" fill="#BFBDB8" cx="67.957" cy="37.03" rx="2.801" ry="2.01"/>
				<path fill="#EAEAEC" d="M66.121,35.264l-0.077,1.538c0,0,0.052,1.195,1.846,1.2c0.534,0.005,1.4-0.307,1.865-0.889l0.048-1.615
					L66.121,35.264z"/>
				
					<ellipse transform="matrix(0.9994 0.0347 -0.0347 0.9994 1.2685 -2.3349)" fill="#595958" cx="67.914" cy="35.384" rx="1.485" ry="1.024"/>
			</g>
		</g>
		<path fill="none" stroke="#9A999A" stroke-width="0.7175" stroke-miterlimit="10" d="M121.441,53.615l3.691-0.961
			c0,0,1.399-0.651,1.548,0.747c0.16,1.391,0.711,2.695,0.711,2.695s-0.24,1.08-1.21,0.65l-4.284-1.931
			C121.896,54.817,120.238,54.071,121.441,53.615z"/>
		<path fill="#9A999A" d="M92.806,34.832c-0.309-0.01-1.021,0.855-1.021,0.855l27.076,12.293l0.934-1.252L92.806,34.832z"/>
		<polygon fill="#4F5553" points="99.886,88.729 98.773,90.091 98.748,88.923 99.958,87.619 		"/>
		<polygon fill="#474D4C" points="95.287,88.348 98.773,90.091 98.803,88.94 95.276,87.069 		"/>
		<polygon fill="#5F6664" points="96.396,85.864 95.221,87.122 98.777,88.979 99.949,87.585 		"/>
		<polygon fill="#4F5553" points="84.577,88.562 83.463,89.93 83.438,88.762 84.651,87.457 		"/>
		<polygon fill="#474D4C" points="79.98,88.185 83.463,89.93 83.491,88.771 79.967,86.909 		"/>
		<polygon fill="#5F6664" points="81.085,85.695 79.913,86.958 83.468,88.818 84.638,87.42 		"/>
		<polygon fill="#4F5553" points="79.925,93.431 78.81,94.794 78.785,93.625 79.999,92.322 		"/>
		<polygon fill="#474D4C" points="75.327,93.049 78.81,94.794 78.841,93.64 75.315,91.775 		"/>
		<polygon fill="#5F6664" points="76.433,90.563 75.256,91.825 78.816,93.685 79.982,92.289 		"/>
		<polygon fill="#5F6664" points="63.136,101.599 61.447,103.601 82.328,114.001 84.066,112.208 		"/>
		<polygon fill="none" stroke="#5F6664" stroke-width="0.1793" stroke-miterlimit="10" points="20.721,80.589 19.032,82.59 
			28.573,87.043 30.308,85.249 		"/>
		<polygon fill="none" stroke="#5F6664" stroke-width="0.1793" stroke-miterlimit="10" points="31.007,85.903 29.318,87.908 
			38.857,92.359 40.595,90.563 		"/>
		<polygon fill="none" stroke="#5F6664" stroke-width="0.1793" stroke-miterlimit="10" points="41.723,91.059 40.034,93.059 
			49.573,97.513 51.304,95.714 		"/>
		<polygon fill="none" stroke="#5F6664" stroke-width="0.1793" stroke-miterlimit="10" points="52.482,96.447 50.792,98.451 
			60.333,102.902 62.072,101.111 		"/>
		
			<ellipse transform="matrix(0.9994 0.0335 -0.0335 0.9994 1.7103 -3.2658)" fill="#FFFFFF" cx="98.267" cy="49.381" rx="1.857" ry="1.288"/>
		
			<ellipse transform="matrix(0.9995 0.0313 -0.0313 0.9995 1.5947 -3.0562)" fill="#595958" cx="98.267" cy="49.333" rx="1.488" ry="1.028"/>
		
			<ellipse transform="matrix(0.9994 0.0335 -0.0335 0.9994 1.8494 -3.1116)" fill="#FFFFFF" cx="93.883" cy="53.696" rx="1.86" ry="1.288"/>
		
			<ellipse transform="matrix(0.9995 0.0328 -0.0328 0.9995 1.8121 -3.0458)" fill="#595958" cx="93.829" cy="53.762" rx="1.49" ry="1.025"/>
		
			<ellipse transform="matrix(0.9994 0.034 -0.034 0.9994 1.3717 -3.0886)" fill="#FFFFFF" cx="91.439" cy="38.76" rx="1.858" ry="1.291"/>
		
			<ellipse transform="matrix(0.9994 0.0355 -0.0355 0.9994 1.4314 -3.2275)" fill="#595958" cx="91.623" cy="38.704" rx="1.486" ry="1.031"/>
		
			<ellipse transform="matrix(0.9994 0.0345 -0.0345 0.9994 1.4941 -3.3512)" fill="#FFFFFF" cx="97.77" cy="41.58" rx="1.86" ry="1.287"/>
		
			<ellipse transform="matrix(0.9994 0.0336 -0.0336 0.9994 1.4518 -3.2604)" fill="#595958" cx="97.798" cy="41.593" rx="1.483" ry="1.027"/>
		
			<ellipse transform="matrix(0.9995 0.0325 -0.0325 0.9995 1.5146 -3.3686)" fill="#FFFFFF" cx="104.379" cy="44.906" rx="1.855" ry="1.291"/>
		
			<ellipse transform="matrix(0.9994 0.0343 -0.0343 0.9994 1.6008 -3.5543)" fill="#595958" cx="104.434" cy="44.896" rx="1.488" ry="1.03"/>
		
			<ellipse transform="matrix(0.9994 0.0335 -0.0335 0.9994 1.6883 -3.7769)" fill="#FFFFFF" cx="113.693" cy="48.555" rx="2.138" ry="1.476"/>
		
			<ellipse transform="matrix(0.9995 0.0319 -0.0319 0.9995 1.6064 -3.6043)" fill="#595958" cx="113.714" cy="48.521" rx="1.706" ry="1.183"/>
		
			<ellipse transform="matrix(0.9994 0.0344 -0.0344 0.9994 2.0804 -4.0763)" fill="#FFFFFF" cx="119.49" cy="58.416" rx="2.136" ry="1.478"/>
		
			<ellipse transform="matrix(0.9994 0.0337 -0.0337 0.9994 2.0411 -3.9983)" fill="#595958" cx="119.48" cy="58.474" rx="1.708" ry="1.177"/>
		
			<ellipse transform="matrix(0.9994 0.0345 -0.0345 0.9994 2.2609 -3.9306)" fill="#FFFFFF" cx="115.153" cy="63.62" rx="2.139" ry="1.475"/>
		
			<ellipse transform="matrix(0.9994 0.035 -0.035 0.9994 2.292 -3.9863)" fill="#595958" cx="115.15" cy="63.556" rx="1.704" ry="1.178"/>
		
			<ellipse transform="matrix(0.9994 0.0349 -0.0349 0.9994 1.9367 -3.7648)" fill="#FFFFFF" cx="108.794" cy="53.586" rx="1.861" ry="1.29"/>
		
			<ellipse transform="matrix(0.9994 0.0333 -0.0333 0.9994 1.845 -3.5958)" fill="#595958" cx="108.792" cy="53.55" rx="1.487" ry="1.027"/>
		
			<ellipse transform="matrix(0.9994 0.0348 -0.0348 0.9994 2.1009 -3.5997)" fill="#FFFFFF" cx="104.456" cy="58.551" rx="1.859" ry="1.29"/>
		
			<ellipse transform="matrix(0.9994 0.0351 -0.0351 0.9994 2.1213 -3.63)" fill="#595958" cx="104.395" cy="58.57" rx="1.488" ry="1.028"/>
		<path fill="#EAEAEC" d="M95.819,73.441l-0.077,1.525c0,0,0.045,1.198,1.847,1.214c0.534,0.005,1.4-0.31,1.857-0.891l0.056-1.63
			L95.819,73.441z"/>
		
			<ellipse transform="matrix(0.9994 0.0333 -0.0333 0.9994 2.5078 -3.2129)" fill="#EF3824" cx="97.641" cy="73.628" rx="1.861" ry="1.291"/>
		
			<ellipse transform="matrix(0.9995 0.0324 -0.0324 0.9995 2.4371 -3.1268)" fill="#595958" cx="97.618" cy="73.572" rx="0.971" ry="0.668"/>
		
			<ellipse transform="matrix(0.9994 0.0335 -0.0335 0.9994 2.6723 -3.411)" fill="#605B5B" cx="103.202" cy="78.099" rx="2.319" ry="1.668"/>
		<path fill="#EAEAEC" d="M101.59,76.212l-0.083,1.536c0,0,0.055,1.197,1.851,1.201c0.535,0.007,1.402-0.308,1.86-0.889l0.052-1.627
			L101.59,76.212z"/>
		
			<ellipse transform="matrix(0.9994 0.0352 -0.0352 0.9994 2.7521 -3.5886)" fill="#EF3824" cx="103.389" cy="76.438" rx="1.861" ry="1.291"/>
		
			<ellipse transform="matrix(0.9994 0.0351 -0.0351 0.9994 2.7439 -3.5835)" fill="#595958" cx="103.431" cy="76.355" rx="0.974" ry="0.671"/>
		
			<ellipse transform="matrix(0.9994 0.0357 -0.0357 0.9994 2.881 -3.3079)" fill="#605B5B" cx="93.976" cy="78.938" rx="2.323" ry="1.67"/>
		<path fill="#EAEAEC" d="M92.344,77.152l-0.08,1.521c0,0,0.054,1.198,1.849,1.217c0.535,0.005,1.399-0.307,1.856-0.89l0.057-1.63
			L92.344,77.152z"/>
		
			<ellipse transform="matrix(0.9994 0.0346 -0.0346 0.9994 2.7337 -3.2137)" fill="#EBF7FC" cx="94.178" cy="77.341" rx="1.862" ry="1.29"/>
		
			<ellipse transform="matrix(0.9995 0.0323 -0.0323 0.9995 2.5384 -3.0009)" fill="#595958" cx="94.227" cy="77.131" rx="0.968" ry="0.665"/>
		
			<ellipse transform="matrix(0.9994 0.0341 -0.0341 0.9994 2.8431 -3.3537)" fill="#605B5B" cx="99.741" cy="81.676" rx="2.32" ry="1.666"/>
		<path fill="#EAEAEC" d="M98.114,79.924l-0.082,1.523c0,0,0.053,1.195,1.85,1.213c0.533,0.007,1.4-0.308,1.859-0.888l0.054-1.632
			L98.114,79.924z"/>
		
			<ellipse transform="matrix(0.9995 0.0321 -0.0321 0.9995 2.6218 -3.1652)" fill="#EBF7FC" cx="99.872" cy="80.06" rx="1.855" ry="1.29"/>
		<path fill="#595958" d="M100.909,80.119c-0.011,0.368-0.455,0.653-0.989,0.636s-0.957-0.332-0.944-0.699
			c0.014-0.372,0.455-0.656,0.99-0.639C100.5,79.435,100.923,79.749,100.909,80.119z"/>
		
			<ellipse transform="matrix(0.9994 0.0344 -0.0344 0.9994 1.7421 -2.8451)" fill="#FFFFFF" cx="83.557" cy="49.206" rx="1.859" ry="1.289"/>
		
			<ellipse transform="matrix(0.9995 0.0306 -0.0306 0.9995 1.5454 -2.5313)" fill="#595958" cx="83.563" cy="49.281" rx="1.486" ry="1.03"/>
		
			<ellipse transform="matrix(0.9994 0.0336 -0.0336 0.9994 1.5441 -2.9206)" fill="#FFFFFF" cx="87.549" cy="44.417" rx="1.857" ry="1.287"/>
		<path fill="#595958" d="M89.032,44.428c-0.035,0.582-0.72,1.006-1.54,0.992c-0.821-0.035-1.47-0.513-1.455-1.08
			c0.021-0.569,0.704-1.007,1.525-0.979C88.398,43.377,89.053,43.858,89.032,44.428z"/>
		<g>
			
				<ellipse transform="matrix(0.9994 0.0333 -0.0333 0.9994 3.1504 -3.163)" fill="#AB5F68" cx="96.418" cy="92.883" rx="0.63" ry="0.596"/>
			
				<ellipse transform="matrix(0.9995 0.0325 -0.0325 0.9995 3.147 -3.0204)" fill="#AB5F68" cx="94.511" cy="95.322" rx="0.631" ry="0.594"/>
			
				<ellipse transform="matrix(0.9995 0.0302 -0.0302 0.9995 2.8602 -2.6894)" fill="#AB5F68" cx="90.337" cy="93.211" rx="0.63" ry="0.595"/>
		</g>
		<g>
			
				<ellipse transform="matrix(0.9994 0.0347 -0.0347 0.9994 3.4111 -3.1787)" fill="#FEE093" cx="93.349" cy="96.756" rx="0.634" ry="0.596"/>
			
				<ellipse transform="matrix(0.9994 0.0349 -0.0349 0.9994 3.3621 -3.0556)" fill="#FEE093" cx="89.166" cy="94.732" rx="0.629" ry="0.597"/>
		</g>
		<g>
			
				<ellipse transform="matrix(0.9995 0.0312 -0.0312 0.9995 3.1055 -2.8156)" fill="#D6EBD0" cx="91.813" cy="98.147" rx="0.626" ry="0.597"/>
			
				<ellipse transform="matrix(0.9995 0.032 -0.032 0.9995 3.1246 -2.7538)" fill="#D6EBD0" cx="87.558" cy="96.197" rx="0.625" ry="0.596"/>
			<path fill="#D6EBD0" d="M91.156,99.888c-0.02,0.315-0.31,0.579-0.65,0.579c-0.346-0.015-0.618-0.295-0.604-0.623
				c0.013-0.325,0.307-0.582,0.649-0.576C90.894,99.278,91.168,99.558,91.156,99.888z"/>
			
				<ellipse transform="matrix(0.9995 0.0311 -0.0311 0.9995 3.0852 -2.6319)" fill="#D6EBD0" cx="86.179" cy="97.897" rx="0.628" ry="0.599"/>
		</g>
		
			<line fill="none" stroke="#5F6664" stroke-width="0.3586" stroke-linecap="round" stroke-linejoin="round" stroke-miterlimit="10" x1="113.362" y1="79.349" x2="82.807" y2="114.197"/>
		
			<line fill="none" stroke="#5F6664" stroke-width="0.3586" stroke-linecap="round" stroke-linejoin="round" stroke-miterlimit="10" x1="91.871" y1="69.223" x2="60.673" y2="103.454"/>
		<g>
			<path fill="#AFB4B7" d="M83.878,83.562c-0.147-0.527,0.357-5.727,0.357-5.727s1.059-3.5,4.901-0.933l0.598,5.603
				c0,0,0.385,2.451-2.7,2.906C87.042,85.396,84.372,85.306,83.878,83.562z"/>
			
				<ellipse transform="matrix(0.9994 0.0342 -0.0342 0.9994 2.7047 -2.9197)" fill="#EBF7FC" cx="86.755" cy="77.655" rx="2.243" ry="1.611"/>
		</g>
	</g>
</g>
<g id="gift" display="none">
	<g id="Gift" display="inline">
		<path id="FillGiftBase" fill="#3880B4" d="M77.269,41.111l-55.693,2.302l-0.296-0.095l-0.017,17.245l2.941,1.106l1.157,41.326
			l21.642,11.876v0.004l19.013,10.43v-0.009l0.022-0.006l-0.003,0.015l19.586-5.16l0.006-0.008l24.494-6.448l11.465-37.422h-0.006
			l0.815-2.661l0,0v0.003l3.565-0.419l2.709-17.046L77.269,41.111z M21.291,43.427h0.006l0,0H21.291z"/>
		<path id="FillGiftShade" fill="#3E739E" d="M72.698,79.207l-0.377,2.599l20.905-2.342l0.485-2.625l0.012-0.062l-21.014,2.363
			L72.698,79.207z M34.739,65.589L34.739,65.589l-10.521-3.925v0.006l0.078,2.684l12.208,4.588l-0.028-2.676v-0.022l12.487,4.654
			v0.05l-0.117,2.631l21.337,8.041l0.257-2.71l-25.958-9.675L34.739,65.589z M108.641,75.104L108.641,75.104l-4.484,0.509
			l2.686-0.296l-0.018,0.047l-0.648,2.643l15.438-1.727l0.81-2.659l0.017-0.061L108.641,75.104z"/>
		<path id="FillGiftRibbonBase" fill="#F9B722" d="M36.504,68.941l12.342,4.637l-1.827,41.303l-3.855-2.108l-6.258-3.429v-0.005
			L36.504,68.941z M85.644,120.147l3.276-0.866l7.686-2.033l9.554-39.261l-12.934,1.477L85.644,120.147z M114.261,51.967
			c-0.179,0.165-0.346,0.324-0.558,0.458l-4.186,3.277l-0.319,0.269c0.313-0.009,0.638,0.003,0.939-0.056l3.296,1.135l-0.033,0.114
			l-0.006,0.033l-4.754,17.904v0.003l-4.498,0.503l-8.75,1.001v-0.003l-1.67,0.175v-0.002l1.67-0.176l3.397-18.058l-0.631-0.296
			l-0.053-0.042l-7.621-3.716c6.958,1.444,16.272,3.176,17.51,2.392l0.539-0.417c0.159-0.143,0.212-0.327,0.33-0.489
			c0.084-0.126,0.179-0.249,0.263-0.402c0.692-1.327,0.453-2.984-0.42-3.979c-3.347-3.715-10.521-3.111-16.498-1.753
			c-2.034,0.466-3.906,1.014-5.453,1.505c-0.224,0.067-0.459,0.145-0.659,0.218c-0.342,0.115-0.649,0.209-0.934,0.307
			c-1,0.344-1.735,0.643-2.109,0.776c-0.182,0.07-0.31,0.126-0.31,0.126l1.634-1.293l0.428-0.341l0.555-0.425l0.082-0.07
			l0.084-0.072l0.192-0.157c-0.086-0.062-0.383-0.246-0.866-0.511c-0.083-0.061-0.188-0.105-0.299-0.165
			c-0.731-1.011-1.605-1.773-2.509-2.204c-0.072-0.042-0.17-0.1-0.245-0.131c-2.205-0.989-4.487-1.492-6.76-1.95
			c-1.372-0.291-2.749-0.562-4.085-0.902c-1.134-0.299-2.268-0.651-3.335-1.123c-1.067-0.472-2.084-1.109-3.037-1.872
			c-0.505-0.419-1.014-0.815-1.478-1.338c0.101,0.48,0.218,0.933,0.358,1.372c0.326,1.17,0.751,2.199,1.131,3.037
			c0.146,0.305,0.288,0.618,0.417,0.883l2.188,0.377l0.298,0.062l3.738,0.645l2.668,0.461l6.646,1.148l0.095,0.042v0.014
			c-0.047-0.008-0.072-0.008-0.105-0.017c-1.208-0.243-2.444-0.249-3.522,0.176c-0.126,0.062-0.249,0.106-0.372,0.179
			c-0.104,0.053-0.215,0.062-0.313,0.142c-0.044,0.023-0.059,0.059-0.095,0.084c-3.422,2.277-3.277,8.409-2.044,9.339
			c0.134,0.101,0.293,0.173,0.444,0.218l-13.01-2.335l-0.215-0.04l-8.562-1.536c-0.285-0.208-0.491-0.707-0.637-1.344
			c-0.005-0.017-0.011-0.05-0.017-0.061c-0.128-0.623-0.173-1.372-0.112-2.205l-4.313,0.819l0,0v0.056l-0.325,18.596l-2.995-1.114
			l-9.741-3.638l0,0l0.117-17.904v-0.081l0.008-0.176l8.767-0.804l2.442-0.224l6.855,1.145c0.341-0.729,0.827-1.371,1.424-1.908
			c0.207-0.198,0.411-0.419,0.654-0.575c0.793-0.498,1.721-0.676,2.654-0.668c-0.54-0.307-1.036-0.625-1.447-0.885
			c-0.662-0.444-1.631-0.944-2.72-1.434c-3.855-1.746-9.594-3.355-12.638-1.824l7.364-4.115c3.55-1.966,11.146,0.676,14.722,2.713
			c-0.296-2.109-0.285-4.442,0.43-6.855c0.883-2.978,1.757-3.989,2.531-3.811l5.112,1.014l13.535,2.682
			c-3.282-2.911-8.183-3.602-12.867-4.364c0.821-1.841,1.729-2.955,2.699-2.796c0,0,4.495,0.886,9.367,2.084
			c4.878,1.196,9.708,2.682,9.708,2.682c-0.976,0.059-2.087,2.712-3.16,6.14c-0.416,1.346-0.826,2.796-1.212,4.269
			c-0.402,1.517-0.766,3.042-1.089,4.467c-0.319,1.433-0.609,2.727-0.828,3.782c-0.116,0.537-0.206,1.011-0.295,1.402l0.117-0.095
			l1.218-0.953l0.135-0.106c0.563-0.991,1.161-2.154,1.765-3.419c1.251-2.648,2.45-5.671,3.277-8.392l5.598,1.746l-0.017,0.042
			c-0.958-0.232-3.255,1.726-4.626,3.143c-0.629,0.657-1.917,2.134-3.276,3.755c-0.884,1.014-1.777,2.095-2.565,3.036
			c0.408-0.165,2.783-1.103,6.026-2.039c0.913-0.263,1.886-0.52,2.913-0.76c6.048-1.43,13.51-2.157,16.935,1.648
			C115.469,48.369,115.675,50.596,114.261,51.967z M86.939,48.064c0.219-1.011,0.47-2.324,0.67-3.813
			c0.062-0.419,0.112-0.88,0.163-1.341c0.173-1.067,0.229-2.12,0.207-3.157c0-0.022,0-0.025,0-0.028
			c0-0.044,0.011-0.072,0.011-0.137c0-0.111-0.006-0.229-0.006-0.341c0-1.576-0.146-3.212-0.441-4.492
			c-0.296-1.383-0.774-2.383-1.414-2.542c-0.284-0.059-0.569,0.059-0.891,0.349c-0.252,0.251-0.514,0.66-0.773,1.207
			c-0.279,0.575-0.556,1.307-0.844,2.257c-0.721,2.445-0.737,4.822-0.428,6.945c0.229,1.556,0.629,2.958,1.073,4.188
			c0.438,1.192,0.907,2.165,1.296,2.875c0.081,0.154,0.156,0.276,0.224,0.405l0.226-0.175l0.342-0.283l0.17-0.134
			C86.605,49.503,86.761,48.886,86.939,48.064z M109.518,55.719l-0.319,0.268c0.313-0.028,0.638,0.002,0.939-0.056L109.518,55.719z"
			/>
		<path id="FillGiftRibbonShade" fill="#F7991C" d="M36.477,66.243l12.487,4.654l-0.006,0.05l-0.111,2.631L36.51,68.941
			l-0.034-2.676V66.243z M95.398,76.596L95.398,76.596l-1.676,0.176l-0.012,0.062l-0.485,2.623l12.934-1.478l0.651-2.643
			l0.012-0.047l-2.685,0.296L95.398,76.596z M91.096,45.26c-0.876,1.014-1.775,2.095-2.558,3.036
			c0.407-0.165,2.781-1.104,6.022-2.039c0.902-0.262,1.875-0.52,2.917-0.76c1.854-2.083,2.279-5.545,1.91-6.735
			c-0.061-0.229-0.207-0.354-0.396-0.402c-0.961-0.232-3.266,1.726-4.631,3.143C93.739,42.162,92.453,43.653,91.096,45.26z
			 M71.698,27.512c-0.235,0.511-0.458,1.092-0.671,1.698l13.538,2.685C81.28,28.981,76.375,28.292,71.698,27.512z M86.901,49.554
			l0.117-0.095l1.212-0.952l0.135-0.106c0.569-0.992,1.167-2.154,1.765-3.419c1.251-2.648,2.456-5.671,3.28-8.392
			c1.061-3.489,1.466-6.392,0.377-7.028l-0.305-0.079c-0.969,0.059-2.102,2.713-3.156,6.141c-0.42,1.346-0.821,2.796-1.213,4.269
			c-0.397,1.537-0.76,3.042-1.089,4.467c-0.319,1.434-0.61,2.727-0.828,3.783C87.074,48.688,86.979,49.163,86.901,49.554z
			 M53.506,42.064c-3.861-1.747-9.593-3.355-12.638-1.825l-0.391,0.193c-0.176,0.101-0.307,0.204-0.442,0.304
			c-0.782,0.618-1.011,1.283-0.95,1.919c0.14,1.531,2.062,2.906,3.012,3.04l3.978,0.657l6.855,1.142
			c0.347-0.737,0.827-1.369,1.425-1.908c0.218-0.195,0.413-0.416,0.659-0.572c0.799-0.5,1.715-0.676,2.654-0.668
			c-0.554-0.312-1.045-0.625-1.447-0.885C55.545,43.053,54.584,42.553,53.506,42.064z M83.616,36.041
			c-0.727,2.444-0.744,4.822-0.432,6.926c0.229,1.575,0.627,2.978,1.073,4.207c0.436,1.193,0.911,2.165,1.294,2.875
			c0.081,0.154,0.153,0.276,0.226,0.405l0.229-0.176l0.334-0.282l0.174-0.134c0.091-0.352,0.246-0.966,0.42-1.791
			c0.209-1.011,0.469-2.325,0.662-3.813c0.058-0.419,0.111-0.88,0.176-1.341c0.159-1.067,0.229-2.121,0.192-3.157
			c0-0.003,0-0.025,0-0.031c0-0.044,0.011-0.07,0.011-0.134c0-0.112-0.005-0.229-0.005-0.341c0-1.576-0.146-3.196-0.428-4.492
			c-0.308-1.383-0.782-2.383-1.414-2.542c-0.298-0.059-0.585,0.059-0.894,0.349c-0.252,0.252-0.514,0.66-0.776,1.208
			C84.174,34.359,83.9,35.091,83.616,36.041z M108.746,51.618c-3.352-3.716-10.526-3.112-16.493-1.754
			c-2.033,0.466-3.911,1.014-5.464,1.506c-0.219,0.073-0.452,0.145-0.665,0.218c-0.326,0.115-0.637,0.215-0.919,0.302
			c-1.004,0.349-1.729,0.648-2.117,0.78c-0.177,0.075-0.3,0.125-0.3,0.125l1.623-1.293l0.437-0.341l0.55-0.425l0.085-0.07
			l0.089-0.073l0.195-0.156c-0.084-0.059-0.386-0.246-0.866-0.511c-0.084-0.062-0.195-0.106-0.299-0.156
			c-0.734-1.015-1.606-1.78-2.509-2.208c-0.083-0.039-0.17-0.1-0.249-0.131c-2.204-0.986-4.488-1.492-6.757-1.944
			c-1.377-0.296-2.749-0.567-4.087-0.908c-1.142-0.291-2.268-0.645-3.335-1.117c-1.064-0.475-2.087-1.114-3.04-1.877
			c-0.497-0.419-1-0.816-1.463-1.335c0.101,0.48,0.223,0.938,0.352,1.369c0.335,1.17,0.743,2.204,1.134,3.04
			c0.146,0.301,0.291,0.614,0.417,0.88l2.193,0.377l0.298,0.061l3.729,0.646l2.677,0.461l6.638,1.151l0.078,0.014v0.014
			c-0.05-0.008-0.062-0.008-0.111-0.017c-1.202-0.243-2.442-0.249-3.515,0.176c-0.123,0.062-0.246,0.106-0.375,0.179
			c-0.1,0.053-0.212,0.062-0.312,0.142c-0.044,0.023-0.062,0.059-0.093,0.084c-3.43,2.277-3.282,8.409-2.047,9.339
			c0.142,0.101,0.282,0.173,0.447,0.218l0.251,0.044c0.011,0,0.011,0,0.017,0.003c1.227,0.09,3.126-1.654,7.951-5.589
			c0.479,0.108,3.634,0.829,7.632,1.656c6.961,1.445,16.27,3.177,17.51,2.392l0.536-0.417c0.154-0.162,0.207-0.326,0.325-0.489
			c0.089-0.125,0.175-0.249,0.265-0.402C109.848,54.27,109.606,52.613,108.746,51.618z"/>
		<path id="FillGiftTint" fill="#5094CF" d="M42.097,45.724l3.973,0.654l-2.436,0.224l-8.772,0.805l-0.005,0.175v0.087l-13.56-4.249
			l0.299-0.011l17.494-0.743C39.226,44.207,41.147,45.581,42.097,45.724z M52.115,50.861l-4.313,0.819v0.002v0.056l4.442,1.392
			c-0.006-0.017-0.012-0.05-0.017-0.062C52.098,52.451,52.059,51.688,52.115,50.861z M90.516,54.499
			c-3.992-0.827-7.152-1.548-7.632-1.657c-4.827,3.933-6.732,5.677-7.951,5.59c-0.005-0.003-0.005-0.003-0.017-0.003l-0.251-0.045
			l-13.001-2.335l-0.224-0.04l10.851,3.397l-1.847,19.488l-0.257,2.71l-4.14,43.683l0.084-0.595l6.193-42.884l0.377-2.596
			l0.011-0.066l2.803-19.352l22.689-1.55l-0.057-0.042L90.516,54.499z M128.698,56.146l-0.073-0.022l-14.364-4.16
			c-0.171,0.165-0.335,0.324-0.547,0.458l-4.185,3.276l0.62,0.213l3.294,1.134l-0.043,0.115l-0.006,0.034l15.314-1.048h0.028
			H128.698z"/>
	</g>
</g>
<g id="processors_1_">
	<g id="processors">
		<g>
			<g>
				<polygon fill="#302F2D" points="120.039,78.102 120.566,93.16 141.89,83.894 141.476,72.172 				"/>
				<polygon fill="#5B5757" points="120.039,78.102 13.84,76.816 42.32,70.631 141.476,72.172 				"/>
				<polygon fill="#3B3B39" points="120.566,93.16 14.801,90.978 14.295,76.648 120.039,78.102 				"/>
				<polygon fill="#4FB2E3" points="69.093,88.048 51.792,87.398 51.349,80.453 68.636,80.756 				"/>
				<polygon fill="#6198D0" points="21.442,85.977 16.985,85.629 16.785,80.147 21.048,80.419 				"/>
				<polygon fill="#5F6163" points="76.756,81.509 70.989,81.293 70.839,78.979 76.604,79.08 				"/>
				<polygon fill="#5F6163" points="76.893,85.454 71.128,85.236 70.977,82.922 76.743,83.022 				"/>
				<polygon fill="#5F6163" points="77.029,89.198 71.259,88.979 71.111,86.668 76.878,86.767 				"/>
				<polygon fill="#5F6163" points="115.374,90.412 85.782,89.259 85.636,86.944 115.223,87.983 				"/>
				<polygon fill="#5F6163" points="50.293,81.26 44.524,81.038 44.381,78.728 50.144,78.825 				"/>
				<polygon fill="#5F6163" points="50.433,85.198 44.67,84.983 44.519,82.67 50.281,82.771 				"/>
				<polygon fill="#5F6163" points="50.567,88.946 44.798,88.728 44.648,86.417 50.41,86.517 				"/>
				<polygon fill="#5F6163" points="43.38,81.105 37.611,80.891 37.467,78.572 43.229,78.677 				"/>
				<polygon fill="#5F6163" points="43.518,85.047 37.75,84.832 37.599,82.514 43.365,82.619 				"/>
				<polygon fill="#5F6163" points="43.651,88.795 37.881,88.579 37.733,86.262 43.498,86.365 				"/>
				<polygon fill="none" stroke="#5F6163" stroke-width="0.3434" stroke-miterlimit="10" points="22.948,89.525 17.18,89.309 
					17.032,86.992 22.797,87.096 				"/>
				<path fill="#535150" d="M14.956,91.031L8.69,90.766L8.086,76.527l6.276,0.256L14.956,91.031z M13.195,79.175
					c-0.031-0.609-0.55-1.116-1.185-1.157l-1.579-0.07c-0.625-0.023-1.113,0.46-1.101,1.062l0,0
					c0.026,0.608,0.555,1.131,1.185,1.154l1.588,0.066C12.73,80.257,13.221,79.786,13.195,79.175L13.195,79.175z M13.611,88.637
					c-0.023-0.609-0.556-1.117-1.184-1.157l-1.594-0.064c-0.626-0.026-1.112,0.457-1.093,1.06l0,0
					c0.02,0.609,0.539,1.131,1.185,1.154l1.573,0.067C13.144,89.72,13.633,89.245,13.611,88.637L13.611,88.637z"/>
				<path fill="#535150" d="M126.857,93.315l-6.74-0.125l-0.629-15.156l6.749,0.111L126.857,93.315z M124.978,80.829
					c-0.027-0.682-0.594-1.244-1.271-1.254l-1.686-0.034c-0.683-0.021-1.197,0.524-1.184,1.19l0,0
					c0.033,0.684,0.604,1.245,1.266,1.259l1.698,0.029C124.476,82.043,125.005,81.506,124.978,80.829L124.978,80.829z
					 M125.412,90.701c-0.029-0.679-0.596-1.234-1.269-1.251l-1.698-0.03c-0.677-0.017-1.201,0.531-1.178,1.198l0,0
					c0.03,0.672,0.597,1.237,1.274,1.247l1.686,0.038C124.91,91.916,125.436,91.378,125.412,90.701L125.412,90.701z"/>
				
					<line fill="none" stroke="#3B3B39" stroke-width="1.3734" stroke-miterlimit="10" x1="89.879" y1="84.155" x2="90.103" y2="90.463"/>
				
					<line fill="none" stroke="#3B3B39" stroke-width="1.3734" stroke-miterlimit="10" x1="94.415" y1="83.994" x2="94.634" y2="90.302"/>
				
					<line fill="none" stroke="#3B3B39" stroke-width="1.3734" stroke-miterlimit="10" x1="98.946" y1="83.833" x2="99.168" y2="90.144"/>
				
					<line fill="none" stroke="#3B3B39" stroke-width="1.3734" stroke-miterlimit="10" x1="103.48" y1="83.678" x2="103.756" y2="91.562"/>
				
					<line fill="none" stroke="#3B3B39" stroke-width="1.3734" stroke-miterlimit="10" x1="108.017" y1="83.517" x2="108.294" y2="91.404"/>
				
					<line fill="none" stroke="#3B3B39" stroke-width="1.3734" stroke-miterlimit="10" x1="112.55" y1="83.358" x2="112.829" y2="91.243"/>
				
					<ellipse transform="matrix(0.9994 -0.0346 0.0346 0.9994 -2.8735 2.8692)" fill="none" stroke="#676462" stroke-width="0.6866" stroke-miterlimit="10" cx="81.354" cy="84.353" rx="2.762" ry="3.254"/>
			</g>
		</g>
		<g>
			<g>
				<path fill="#FBD8BB" d="M73.007,76.362C73.052,77.032,73.87,75.945,73.007,76.362L73.007,76.362z"/>
			</g>
			<g>
				<polygon fill="#302F2D" points="120.057,64.15 120.591,79.208 141.913,69.94 141.5,58.22 				"/>
				<polygon fill="#5B5757" points="120.057,64.15 13.864,62.865 42.338,56.684 141.5,58.22 				"/>
				<polygon fill="#D8D5D5" points="120.591,79.208 14.824,77.025 14.32,62.7 120.057,64.15 				"/>
				<polygon fill="#464546" points="117.645,78.75 17.744,76.688 17.265,63.154 117.146,64.526 				"/>
				<polygon fill="#5F6163" points="84.569,77.718 40.508,77.264 39.903,63.396 84.314,64.237 				"/>
				<polygon fill="#5F6163" points="28.817,71.663 18.291,71.345 18.145,69.027 28.666,69.231 				"/>
				<path fill="#D8D5D5" d="M14.983,77.079l-6.277-0.253L8.113,62.583l6.266,0.266L14.983,77.079z M13.221,65.223
					c-0.022-0.609-0.551-1.127-1.183-1.154L10.438,64c-0.62-0.028-1.112,0.446-1.102,1.06l0,0c0.023,0.611,0.547,1.119,1.185,1.156
					l1.577,0.069C12.756,66.312,13.251,65.835,13.221,65.223L13.221,65.223z M13.633,74.687c-0.024-0.614-0.553-1.13-1.185-1.156
					l-1.579-0.069c-0.641-0.035-1.116,0.447-1.112,1.062l0,0c0.031,0.609,0.562,1.12,1.188,1.154l1.574,0.066
					C13.168,75.77,13.659,75.297,13.633,74.687L13.633,74.687z"/>
				<path fill="#D8D5D5" d="M126.879,79.366l-6.743-0.128l-0.622-15.156l6.735,0.126L126.879,79.366z M124.998,66.879
					c-0.033-0.678-0.592-1.234-1.269-1.248l-1.695-0.035c-0.677-0.013-1.2,0.537-1.176,1.201l0,0
					c0.025,0.679,0.594,1.237,1.267,1.251l1.688,0.035C124.499,68.094,125.026,67.554,124.998,66.879L124.998,66.879z
					 M125.432,76.75c-0.023-0.684-0.592-1.245-1.267-1.256l-1.696-0.032c-0.681-0.014-1.204,0.524-1.176,1.187l0,0
					c0.028,0.683,0.594,1.247,1.266,1.259l1.686,0.029C124.93,77.964,125.464,77.422,125.432,76.75L125.432,76.75z"/>
			</g>
			
				<line fill="none" stroke="#464546" stroke-width="0.4305" stroke-miterlimit="10" x1="40.202" y1="66.775" x2="84.182" y2="67.439"/>
			
				<line fill="none" stroke="#464546" stroke-width="0.4305" stroke-miterlimit="10" x1="40.302" y1="74.909" x2="84.28" y2="75.576"/>
			<path fill="#0491C9" d="M82.535,71.085c0.05,0.592-0.41,1.119-1.031,1.174c-0.623,0.054-1.169-0.382-1.222-0.976
				c-0.052-0.592,0.409-1.119,1.031-1.174C81.937,70.057,82.48,70.492,82.535,71.085z"/>
			
				<ellipse transform="matrix(0.9964 -0.0852 0.0852 0.9964 -5.8418 3.9472)" fill="#EF4131" cx="43.302" cy="70.384" rx="0.341" ry="0.318"/>
			
				<ellipse transform="matrix(0.9962 -0.0868 0.0868 0.9962 -5.9396 4.4089)" fill="#35B34A" cx="47.755" cy="70.54" rx="0.338" ry="0.318"/>
			
				<ellipse transform="matrix(0.9964 -0.0846 0.0846 0.9964 -5.7952 4.6439)" fill="#35B34A" cx="51.896" cy="70.699" rx="0.338" ry="0.317"/>
		</g>
	</g>
</g>
<g id="stomp_box1_1_" display="none">
	<g id="stomp_box1" display="inline">
		<g>
			<g>
				<polygon fill="#5196D1" points="38.261,76.477 91.052,83.212 114.683,51.286 70.386,45.54 				"/>
				<polygon fill="#4682B6" points="35.317,100.855 88,107.913 91.052,83.212 38.261,76.477 				"/>
				<polygon fill="#3F73A0" points="114.683,51.286 91.052,83.212 88,107.913 111.938,73.403 				"/>
			</g>
			<polygon fill="#3F5A75" points="98.815,65.25 94.752,64.724 98.587,60.827 102.251,61.302 			"/>
		</g>
		<g>
			<path fill="#3F5A75" d="M94.505,48.273l-0.559,6.025c-0.037,0.069-0.059,0.147-0.068,0.198c-0.191,1.83,2.895,3.71,6.896,4.176
				c3.999,0.48,7.406-0.588,7.602-2.427l0.627-6.24L94.505,48.273z"/>
			<path fill="#63728B" d="M109.003,50.022c-0.195,1.829-3.604,2.912-7.582,2.446c-4.021-0.485-7.09-2.354-6.896-4.175
				c0.181-1.827,3.604-2.912,7.587-2.444C106.11,46.326,109.199,48.197,109.003,50.022z"/>
		</g>
		<g>
			<path fill="#3F5A75" d="M68.799,44.624l-0.558,6.044c-0.037,0.051-0.059,0.127-0.069,0.179c-0.191,1.83,2.895,3.71,6.896,4.176
				c4,0.482,7.406-0.588,7.603-2.427l0.627-6.24L68.799,44.624z"/>
			<path fill="#63728B" d="M83.298,46.373c-0.196,1.827-3.605,2.91-7.583,2.444c-4.021-0.485-7.09-2.351-6.896-4.176
				c0.181-1.83,3.605-2.912,7.588-2.447C80.405,42.674,83.493,44.548,83.298,46.373z"/>
		</g>
		<g>
			<path fill="#3F5A75" d="M79.114,53.083l-0.563,6.025c-0.017,0.068-0.054,0.147-0.063,0.198c-0.19,1.83,2.89,3.71,6.896,4.176
				c3.997,0.482,7.406-0.588,7.598-2.427l0.627-6.241L79.114,53.083z"/>
			<path fill="#63728B" d="M93.608,54.832c-0.191,1.827-3.605,2.909-7.598,2.444c-4.007-0.485-7.087-2.354-6.896-4.176
				c0.196-1.829,3.605-2.912,7.603-2.446C90.719,51.136,93.802,53.007,93.608,54.832z"/>
		</g>
		<g>
			<path fill="#D7D7DE" d="M76.038,76.308c-0.142,1.32-3.066,2.06-6.529,1.644c-3.468-0.416-6.162-1.827-6.022-3.145
				c0.14-1.325,3.069-2.062,6.532-1.646C73.481,73.575,76.176,74.985,76.038,76.308z"/>
		</g>
		<g>
			<path fill="#9DA0AA" d="M72.914,75.671l0.632-5.748l-6.226-0.681l-0.627,5.743l-0.005,0.101
				c-0.049,0.421,1.305,0.921,3.017,1.106c1.724,0.191,3.149-0.01,3.188-0.431L72.914,75.671z"/>
		</g>
		<path fill="#B6BAC6" d="M65.556,64.195l-0.421,4.225c-0.015,0.051-0.054,0.088-0.054,0.154c-0.147,1.271,2.18,2.559,5.202,2.919
			c3.015,0.338,5.584-0.421,5.73-1.717l0.471-4.342L65.556,64.195z"/>
		<path fill="#D7D7DE" d="M76.489,65.417c-0.152,1.273-2.714,2.033-5.726,1.694c-3.022-0.338-5.349-1.646-5.207-2.919
			c0.154-1.279,2.719-2.038,5.736-1.7C74.31,62.833,76.631,64.143,76.489,65.417z"/>
	</g>
</g>
<g id="laptop_2" display="none">
	<g id="laptop2" display="inline">
		<polygon fill="#747680" points="67.755,20.854 53.062,69.41 10.609,88.866 79.293,129.146 121.161,98.593 139.392,38.54 		"/>
		<polygon fill="#595B64" points="71.246,28.854 60.135,68.965 114.428,91.238 127.79,43.997 		"/>
		<path fill="#6A6A72" d="M123.462,44.379L72.814,30.818l-8.55,30.865C85.028,63.698,109.615,59.753,123.462,44.379z"/>
		<g>
			<path fill="#97969E" d="M89.944,112.355l-0.153-0.071L32.874,84.758L56.629,73.83l0.113,0.049l55.477,24.247L89.944,112.355z
				 M34.179,84.775l55.718,26.958l21.158-13.507L56.646,74.439L34.179,84.775z"/>
		</g>
		<g>
			
				<line fill="none" stroke="#97969E" stroke-width="0.5527" stroke-miterlimit="10" x1="38.621" y1="86.96" x2="61.736" y2="76.329"/>
			
				<line fill="none" stroke="#97969E" stroke-width="0.5527" stroke-miterlimit="10" x1="43.71" y1="89.432" x2="66.559" y2="78.466"/>
			
				<line fill="none" stroke="#97969E" stroke-width="0.5527" stroke-miterlimit="10" x1="48.802" y1="91.9" x2="71.381" y2="80.607"/>
			
				<line fill="none" stroke="#97969E" stroke-width="0.5527" stroke-miterlimit="10" x1="57.265" y1="92.477" x2="76.209" y2="82.747"/>
			<line fill="none" stroke="#97969E" stroke-width="0.5527" stroke-miterlimit="10" x1="62" y1="94.95" x2="81.033" y2="84.892"/>
			
				<line fill="none" stroke="#97969E" stroke-width="0.5527" stroke-miterlimit="10" x1="67.376" y1="97.317" x2="85.856" y2="87.027"/>
			
				<line fill="none" stroke="#97969E" stroke-width="0.5527" stroke-miterlimit="10" x1="69.16" y1="101.785" x2="90.684" y2="89.169"/>
			
				<line fill="none" stroke="#97969E" stroke-width="0.5527" stroke-miterlimit="10" x1="74.248" y1="104.256" x2="95.505" y2="91.312"/>
			
				<line fill="none" stroke="#97969E" stroke-width="0.5527" stroke-miterlimit="10" x1="79.336" y1="106.725" x2="100.329" y2="93.447"/>
			
				<line fill="none" stroke="#97969E" stroke-width="0.5527" stroke-miterlimit="10" x1="84.428" y1="109.194" x2="105.157" y2="95.587"/>
		</g>
		<g>
			
				<line fill="none" stroke="#97969E" stroke-width="0.5527" stroke-miterlimit="10" x1="53.812" y1="75.534" x2="108.58" y2="99.576"/>
			
				<line fill="none" stroke="#97969E" stroke-width="0.5527" stroke-miterlimit="10" x1="51.138" y1="76.792" x2="106.019" y2="101.3"/>
			
				<line fill="none" stroke="#97969E" stroke-width="0.5527" stroke-miterlimit="10" x1="48.471" y1="78.045" x2="103.451" y2="103.015"/>
			
				<line fill="none" stroke="#97969E" stroke-width="0.5527" stroke-miterlimit="10" x1="45.8" y1="79.3" x2="100.889" y2="104.741"/>
			
				<line fill="none" stroke="#97969E" stroke-width="0.5527" stroke-miterlimit="10" x1="43.127" y1="80.558" x2="98.32" y2="106.461"/>
			
				<line fill="none" stroke="#97969E" stroke-width="0.5527" stroke-miterlimit="10" x1="40.452" y1="81.809" x2="95.76" y2="108.181"/>
			
				<line fill="none" stroke="#97969E" stroke-width="0.5527" stroke-miterlimit="10" x1="37.784" y1="83.065" x2="93.198" y2="109.904"/>
		</g>
		<polygon fill="none" stroke="#97969E" stroke-width="0.5527" stroke-miterlimit="10" points="48.984,94.309 37.366,99.897 
			54.039,109.148 65.548,102.373 		"/>
	</g>
</g>
<g id="laptop1_1_" display="none">
	<g id="laptop1" display="inline">
		<g>
			<polygon fill="#757881" points="11.198,115.516 138.675,117.508 138.969,113.232 71.326,99.819 11.031,111.232 			"/>
			
				<rect x="32.016" y="33.171" transform="matrix(0.9999 0.0156 -0.0156 0.9999 1.003 -1.1754)" fill="#747680" width="87.477" height="60.917"/>
			
				<rect x="38.183" y="37.448" transform="matrix(0.9999 0.0156 -0.0156 0.9999 1.0021 -1.1746)" fill="#595B64" width="75.153" height="52.349"/>
			<polygon fill="#7E828C" points="31.557,93.068 119.02,94.435 138.969,113.232 11.031,111.232 			"/>
			
				<line fill="none" stroke="#97969E" stroke-width="0.486" stroke-miterlimit="10" x1="115.875" y1="97.36" x2="36.443" y2="96.118"/>
			
				<line fill="none" stroke="#97969E" stroke-width="0.486" stroke-miterlimit="10" x1="117.984" y1="99.753" x2="34.258" y2="98.444"/>
			
				<line fill="none" stroke="#97969E" stroke-width="0.486" stroke-miterlimit="10" x1="120.093" y1="102.143" x2="32.072" y2="100.768"/>
			
				<line fill="none" stroke="#97969E" stroke-width="0.486" stroke-miterlimit="10" x1="29.217" y1="103.623" x2="122.328" y2="105.077"/>
			<g>
				
					<line fill="none" stroke="#97969E" stroke-width="0.486" stroke-miterlimit="10" x1="36.764" y1="95.903" x2="29.347" y2="103.41"/>
				
					<line fill="none" stroke="#97969E" stroke-width="0.486" stroke-miterlimit="10" x1="41.723" y1="95.979" x2="35.211" y2="103.515"/>
				
					<line fill="none" stroke="#97969E" stroke-width="0.486" stroke-miterlimit="10" x1="46.686" y1="96.045" x2="41.076" y2="103.626"/>
				
					<line fill="none" stroke="#97969E" stroke-width="0.486" stroke-miterlimit="10" x1="51.635" y1="96.119" x2="46.937" y2="103.728"/>
				
					<line fill="none" stroke="#97969E" stroke-width="0.486" stroke-miterlimit="10" x1="56.597" y1="96.186" x2="52.799" y2="103.834"/>
				
					<line fill="none" stroke="#97969E" stroke-width="0.486" stroke-miterlimit="10" x1="61.56" y1="96.261" x2="58.666" y2="103.937"/>
				
					<line fill="none" stroke="#97969E" stroke-width="0.486" stroke-miterlimit="10" x1="66.512" y1="96.333" x2="64.527" y2="104.041"/>
				
					<line fill="none" stroke="#97969E" stroke-width="0.486" stroke-miterlimit="10" x1="71.471" y1="96.403" x2="70.872" y2="101.315"/>
				
					<line fill="none" stroke="#97969E" stroke-width="0.486" stroke-miterlimit="10" x1="76.433" y1="96.473" x2="76.352" y2="101.401"/>
				
					<line fill="none" stroke="#97969E" stroke-width="0.486" stroke-miterlimit="10" x1="81.387" y1="96.542" x2="81.825" y2="101.486"/>
				
					<line fill="none" stroke="#97969E" stroke-width="0.486" stroke-miterlimit="10" x1="86.345" y1="96.615" x2="87.981" y2="104.46"/>
				<polygon fill="none" stroke="#97969E" stroke-width="0.486" stroke-miterlimit="10" points="87.89,110.234 86.197,106.127 
					66.367,105.829 64.437,109.828 				"/>
				
					<line fill="none" stroke="#97969E" stroke-width="0.486" stroke-miterlimit="10" x1="91.302" y1="96.685" x2="93.845" y2="104.568"/>
				
					<line fill="none" stroke="#97969E" stroke-width="0.486" stroke-miterlimit="10" x1="96.26" y1="96.752" x2="99.705" y2="104.672"/>
				
					<line fill="none" stroke="#97969E" stroke-width="0.486" stroke-miterlimit="10" x1="101.219" y1="96.824" x2="105.572" y2="104.778"/>
				
					<line fill="none" stroke="#97969E" stroke-width="0.486" stroke-miterlimit="10" x1="106.176" y1="96.895" x2="111.432" y2="104.884"/>
				
					<line fill="none" stroke="#97969E" stroke-width="0.486" stroke-miterlimit="10" x1="111.134" y1="96.964" x2="117.295" y2="104.989"/>
				
					<line fill="none" stroke="#97969E" stroke-width="0.486" stroke-miterlimit="10" x1="115.47" y1="97.129" x2="122.539" y2="105.186"/>
			</g>
		</g>
	</g>
</g>
<g id="auratone" display="none">
	<g id="AURATONE" display="inline">
		<polygon fill="#64421F" points="97.759,112.626 113.035,103.374 116.298,44.98 101.443,38.597 66.04,74.366 		"/>
		<polygon fill="#754D29" points="97.759,112.626 33.702,103.847 37.308,37.374 101.443,38.597 		"/>
		<polygon fill="#303235" points="93.781,107.558 38.126,99.93 41.315,41.95 96.99,43.248 		"/>
		<polygon fill="#404043" points="89.387,102.692 40.135,95.944 42.957,44.63 92.224,45.774 		"/>
		<path fill="#A4A0A1" d="M64.993,95.716c-0.651-0.056-1.318-0.134-2.003-0.205c-6.323-0.781-11.288-2.553-11.129-3.951
			c0.172-1.421,5.429-1.945,11.746-1.193c6.315,0.781,11.288,2.553,11.116,3.959C74.571,95.597,70.373,96.154,64.993,95.716"/>
	</g>
</g>
</svg>
