<?xml version="1.0" encoding="utf-8"?>
<!-- Generator: Adobe Illustrator 14.0.0, SVG Export Plug-In . SVG Version: 6.00 Build 43363)  -->
<!DOCTYPE svg PUBLIC "-//W3C//DTD SVG 1.1//EN" "http://www.w3.org/Graphics/SVG/1.1/DTD/svg11.dtd">
<svg version="1.1" xmlns="http://www.w3.org/2000/svg" xmlns:xlink="http://www.w3.org/1999/xlink" x="0px" y="0px" width="150px"
	 height="150px" viewBox="0 0 150 150" enable-background="new 0 0 150 150" xml:space="preserve">
<g id="Layer_1">
	<g id="udev7">
		<path id="FillGiftBase" fill="#3B81B4" d="M74.478,42.839l-37.97,1.864l-0.203-0.076l-0.01,13.966l2.003,0.896l0.789,33.468
			l14.753,9.619v0.004l12.962,8.445v-0.006l0.015-0.005l-0.001,0.011l13.352-4.179l0.002-0.008l16.701-5.222l7.817-30.308h-0.002
			l0.554-2.153l0,0v0.002l2.432-0.339l1.849-13.807L74.478,42.839z M36.314,44.715h0.003l0,0H36.314z"/>
		<path id="FillGiftShade" fill="#3F749F" d="M71.362,73.693l-0.257,2.104l14.252-1.895l0.331-2.127l0.009-0.049L71.37,73.639
			L71.362,73.693z M45.483,62.664L45.483,62.664l-7.174-3.178v0.004l0.053,2.175l8.324,3.714l-0.019-2.167v-0.019l8.513,3.77v0.041
			l-0.08,2.131l14.547,6.514l0.174-2.194l-17.697-7.835L45.483,62.664z M95.867,70.37L95.867,70.37l-3.056,0.411l1.828-0.239
			l-0.012,0.039l-0.442,2.14l10.525-1.398l0.553-2.154l0.013-0.049L95.867,70.37z"/>
		<path id="FillGiftRibbonBase" fill="#F8B61F" d="M46.687,65.378l8.415,3.755l-1.247,33.451l-2.63-1.708l-4.269-2.775v-0.006
			L46.687,65.378z M80.188,106.85l2.237-0.7l5.237-1.649l6.514-31.797l-8.816,1.199L80.188,106.85z M99.699,51.632
			c-0.123,0.134-0.238,0.262-0.381,0.371l-2.854,2.655l-0.218,0.218c0.214-0.006,0.435,0.004,0.641-0.047l2.249,0.918L99.11,55.84
			l-0.002,0.027l-3.241,14.5v0.002L92.8,70.777l-5.964,0.813v-0.001l-1.139,0.142v-0.002l1.139-0.143l2.315-14.624l-0.43-0.24
			l-0.04-0.036l-5.195-3.009c4.747,1.169,11.092,2.572,11.938,1.937l0.364-0.338c0.111-0.115,0.148-0.265,0.228-0.395
			c0.055-0.103,0.12-0.202,0.178-0.329c0.474-1.075,0.309-2.417-0.283-3.223c-2.28-3.009-7.174-2.521-11.252-1.421
			c-1.386,0.379-2.659,0.822-3.714,1.219c-0.154,0.052-0.314,0.119-0.448,0.178c-0.231,0.092-0.443,0.167-0.635,0.246
			c-0.685,0.278-1.185,0.524-1.439,0.63c-0.122,0.054-0.211,0.102-0.211,0.102l1.114-1.048l0.291-0.276l0.376-0.344l0.058-0.055
			l0.055-0.058l0.13-0.128c-0.058-0.049-0.261-0.198-0.59-0.414c-0.059-0.049-0.128-0.085-0.204-0.136
			c-0.499-0.819-1.094-1.437-1.71-1.785c-0.049-0.037-0.116-0.081-0.169-0.107c-1.5-0.803-3.058-1.208-4.608-1.581
			c-0.934-0.235-1.874-0.452-2.785-0.729c-0.771-0.242-1.546-0.53-2.273-0.912c-0.728-0.382-1.422-0.899-2.07-1.514
			c-0.344-0.341-0.691-0.661-1.008-1.087c0.069,0.39,0.15,0.756,0.244,1.112c0.221,0.947,0.511,1.78,0.771,2.459
			c0.099,0.247,0.197,0.503,0.284,0.717l1.493,0.307l0.202,0.047l2.548,0.525l1.822,0.373l4.531,0.928l0.065,0.04v0.012
			c-0.034-0.007-0.05-0.007-0.071-0.014c-0.823-0.197-1.667-0.202-2.401,0.143c-0.085,0.049-0.17,0.087-0.254,0.145
			c-0.07,0.043-0.146,0.048-0.212,0.116c-0.031,0.018-0.041,0.047-0.066,0.067c-2.332,1.843-2.234,6.808-1.394,7.564
			c0.091,0.081,0.203,0.14,0.302,0.176l-8.87-1.892l-0.146-0.033l-5.838-1.243c-0.193-0.167-0.334-0.573-0.434-1.089
			c-0.003-0.014-0.007-0.042-0.012-0.05c-0.087-0.504-0.117-1.108-0.076-1.785l-2.94,0.663l0,0v0.045l-0.222,15.061l-2.042-0.903
			l-6.642-2.945l0,0l0.081-14.501v-0.065l0.005-0.143l5.977-0.652l1.664-0.182l4.676,0.928c0.231-0.59,0.562-1.11,0.97-1.545
			c0.14-0.16,0.28-0.338,0.446-0.466c0.541-0.402,1.173-0.547,1.809-0.541c-0.365-0.247-0.705-0.506-0.986-0.717
			c-0.449-0.359-1.112-0.765-1.854-1.161c-2.628-1.414-6.541-2.717-8.617-1.478l5.021-3.333C57.073,37.211,62.25,39.35,64.688,41
			c-0.201-1.708-0.194-3.598,0.295-5.552c0.601-2.412,1.195-3.231,1.726-3.085l3.485,0.821l9.227,2.171
			c-2.237-2.358-5.578-2.917-8.773-3.532c0.561-1.493,1.177-2.394,1.839-2.266c0,0,3.063,0.719,6.386,1.689
			c3.324,0.968,6.619,2.171,6.619,2.171c-0.665,0.049-1.421,2.197-2.151,4.974c-0.287,1.09-0.563,2.266-0.829,3.457
			c-0.276,1.226-0.524,2.461-0.744,3.617c-0.214,1.161-0.414,2.208-0.563,3.064c-0.079,0.435-0.138,0.818-0.202,1.136l0.078-0.078
			l0.834-0.772l0.091-0.085c0.383-0.803,0.79-1.744,1.202-2.769c0.855-2.146,1.67-4.591,2.236-6.797l3.816,1.413l-0.011,0.036
			c-0.653-0.188-2.221,1.398-3.154,2.544c-0.429,0.532-1.308,1.73-2.236,3.042c-0.603,0.819-1.21,1.694-1.746,2.46
			c0.278-0.135,1.897-0.894,4.108-1.652c0.621-0.212,1.282-0.421,1.986-0.616c4.124-1.157,9.213-1.746,11.55,1.333
			C100.521,48.718,100.661,50.521,99.699,51.632z M81.072,48.471c0.148-0.819,0.32-1.881,0.458-3.088
			c0.04-0.337,0.075-0.713,0.108-1.086c0.121-0.864,0.157-1.717,0.142-2.557c0-0.02,0-0.023,0-0.024
			c0-0.037,0.008-0.056,0.008-0.112c0-0.09-0.004-0.185-0.004-0.274c0-1.276-0.098-2.602-0.3-3.636
			c-0.202-1.121-0.527-1.93-0.964-2.062c-0.195-0.047-0.386,0.05-0.608,0.284c-0.171,0.204-0.35,0.533-0.526,0.977
			c-0.191,0.466-0.381,1.059-0.578,1.828c-0.49,1.98-0.501,3.908-0.289,5.627c0.156,1.261,0.428,2.393,0.731,3.392
			c0.298,0.966,0.618,1.753,0.885,2.328c0.053,0.125,0.108,0.224,0.151,0.327l0.152-0.142l0.234-0.23l0.116-0.109
			C80.842,49.636,80.949,49.136,81.072,48.471z M96.465,54.67l-0.218,0.219c0.214-0.024,0.435,0.002,0.641-0.047L96.465,54.67z"/>
		<path id="FillGiftRibbonShade" fill="#F79A1F" d="M46.668,63.192l8.513,3.77l-0.003,0.041l-0.076,2.131l-8.412-3.755l-0.021-2.167
			V63.192z M86.84,71.578L86.84,71.578l-1.143,0.142l-0.009,0.05l-0.331,2.125l8.818-1.199l0.443-2.141l0.009-0.039l-1.83,0.241
			L86.84,71.578z M83.906,46.199c-0.598,0.819-1.21,1.694-1.744,2.46c0.276-0.135,1.896-0.894,4.106-1.652
			c0.612-0.212,1.274-0.421,1.987-0.616c1.267-1.689,1.555-4.49,1.301-5.455c-0.041-0.185-0.139-0.287-0.267-0.325
			c-0.659-0.188-2.23,1.398-3.158,2.545C85.707,43.69,84.83,44.898,83.906,46.199z M70.681,31.825
			c-0.16,0.414-0.313,0.886-0.458,1.376l9.231,2.174C77.214,33.016,73.869,32.457,70.681,31.825z M81.046,49.676l0.08-0.077
			l0.827-0.771l0.091-0.085c0.388-0.803,0.796-1.745,1.204-2.77c0.852-2.145,1.675-4.591,2.235-6.797
			c0.724-2.826,1-5.177,0.257-5.692l-0.207-0.063c-0.66,0.05-1.434,2.197-2.153,4.973c-0.284,1.089-0.559,2.264-0.825,3.457
			c-0.271,1.244-0.52,2.462-0.745,3.617c-0.216,1.162-0.414,2.208-0.563,3.064C81.163,48.975,81.098,49.36,81.046,49.676z
			 M58.279,43.612c-2.633-1.415-6.541-2.718-8.618-1.479l-0.266,0.155c-0.123,0.082-0.21,0.165-0.3,0.248
			c-0.533,0.499-0.69,1.035-0.648,1.554c0.095,1.239,1.405,2.353,2.053,2.459l2.712,0.531l4.674,0.923
			c0.236-0.596,0.563-1.108,0.971-1.544c0.149-0.156,0.281-0.338,0.449-0.462c0.545-0.408,1.17-0.547,1.811-0.541
			c-0.378-0.253-0.713-0.506-0.986-0.716C59.668,44.411,59.013,44.007,58.279,43.612z M78.806,38.732
			c-0.496,1.98-0.505,3.908-0.294,5.608c0.157,1.279,0.427,2.413,0.732,3.41c0.297,0.967,0.621,1.753,0.882,2.328
			c0.056,0.125,0.104,0.224,0.153,0.329l0.157-0.143l0.229-0.231l0.117-0.108c0.06-0.285,0.167-0.783,0.286-1.45
			c0.143-0.819,0.321-1.881,0.45-3.088c0.043-0.337,0.075-0.713,0.12-1.086c0.107-0.865,0.157-1.718,0.129-2.557
			c0-0.002,0-0.022,0-0.027c0-0.035,0.009-0.054,0.009-0.108c0-0.09-0.003-0.186-0.003-0.276c0-1.276-0.099-2.586-0.289-3.635
			c-0.209-1.12-0.535-1.93-0.964-2.062c-0.204-0.048-0.399,0.049-0.609,0.282c-0.172,0.204-0.351,0.534-0.53,0.978
			C79.187,37.371,78.999,37.963,78.806,38.732z M95.939,51.349c-2.286-3.009-7.177-2.521-11.246-1.421
			c-1.385,0.378-2.664,0.821-3.726,1.22c-0.147,0.058-0.307,0.117-0.452,0.175c-0.22,0.094-0.434,0.174-0.623,0.243
			c-0.686,0.284-1.177,0.527-1.446,0.631c-0.12,0.059-0.201,0.103-0.201,0.103l1.105-1.048l0.297-0.277l0.373-0.341l0.058-0.057
			l0.062-0.058l0.134-0.127c-0.059-0.048-0.264-0.199-0.591-0.414c-0.059-0.05-0.135-0.086-0.205-0.127
			c-0.501-0.821-1.096-1.441-1.712-1.787c-0.056-0.032-0.113-0.083-0.168-0.106c-1.505-0.799-3.06-1.208-4.606-1.575
			c-0.94-0.242-1.874-0.459-2.786-0.736c-0.78-0.234-1.547-0.522-2.274-0.905c-0.726-0.384-1.422-0.905-2.073-1.52
			c-0.338-0.339-0.682-0.661-0.998-1.082c0.068,0.39,0.152,0.761,0.239,1.109c0.23,0.948,0.507,1.786,0.773,2.461
			c0.099,0.243,0.199,0.498,0.285,0.713l1.496,0.305l0.204,0.05l2.542,0.522l1.825,0.373l4.524,0.933l0.055,0.011v0.012
			c-0.035-0.007-0.044-0.007-0.076-0.014c-0.819-0.197-1.666-0.202-2.396,0.143c-0.084,0.049-0.168,0.087-0.256,0.145
			c-0.069,0.043-0.145,0.048-0.213,0.116c-0.031,0.018-0.042,0.047-0.063,0.067c-2.339,1.843-2.238,6.808-1.396,7.564
			c0.096,0.081,0.191,0.14,0.304,0.176l0.171,0.036c0.007,0,0.007,0,0.013,0.002c0.835,0.073,2.13-1.34,5.418-4.526
			c0.329,0.086,2.479,0.671,5.205,1.34c4.746,1.17,11.092,2.573,11.937,1.937l0.367-0.337c0.104-0.132,0.14-0.264,0.22-0.396
			c0.063-0.101,0.122-0.202,0.182-0.327C96.691,53.496,96.525,52.154,95.939,51.349z"/>
		<path id="FillGiftTint" fill="#5194D0" d="M50.5,46.574l2.708,0.53l-1.661,0.181l-5.98,0.651l-0.004,0.143v0.07l-9.245-3.441
			l0.203-0.008l11.928-0.603C48.542,45.347,49.852,46.46,50.5,46.574z M57.33,50.736l-2.941,0.663V51.4v0.047l3.029,1.125
			c-0.004-0.014-0.007-0.043-0.011-0.049C57.317,52.022,57.292,51.405,57.33,50.736z M83.511,53.682
			c-2.722-0.67-4.874-1.253-5.204-1.342c-3.291,3.185-4.59,4.598-5.421,4.527c-0.003-0.002-0.003-0.002-0.011-0.002l-0.172-0.037
			l-8.864-1.891l-0.151-0.031l7.396,2.751l-1.259,15.782l-0.175,2.195l-2.822,35.38l0.058-0.483l4.222-34.732l0.258-2.099
			l0.007-0.054l1.91-15.672l15.468-1.256l-0.039-0.036L83.511,53.682z M109.542,55.016l-0.049-0.018l-9.794-3.369
			c-0.114,0.133-0.227,0.264-0.37,0.372l-2.856,2.653l0.426,0.173l2.244,0.918l-0.032,0.092l-0.002,0.026l10.444-0.848h0.019
			H109.542L109.542,55.016z"/>
	</g>
</g>
<g id="Layer_2">
</g>
</svg>
