<?xml version="1.0" encoding="utf-8"?>
<!-- Generator: Adobe Illustrator 14.0.0, SVG Export Plug-In . SVG Version: 6.00 Build 43363)  -->
<!DOCTYPE svg PUBLIC "-//W3C//DTD SVG 1.1//EN" "http://www.w3.org/Graphics/SVG/1.1/DTD/svg11.dtd">
<svg version="1.1" xmlns="http://www.w3.org/2000/svg" xmlns:xlink="http://www.w3.org/1999/xlink" x="0px" y="0px" width="150px"
	 height="150px" viewBox="0 0 150 150" enable-background="new 0 0 150 150" xml:space="preserve">
<g id="Layer_1">
	<g id="udev6">
		<g id="AURATONE">
			<polygon fill="#65431F" points="96.268,109.204 111.113,100.059 114.284,42.343 99.848,36.033 65.443,71.387 			"/>
			<polygon fill="#754E2A" points="96.268,109.204 34.019,100.526 37.523,34.825 99.848,36.033 			"/>
			<polygon fill="#313335" points="92.401,104.194 38.318,96.655 41.418,39.348 95.521,40.631 			"/>
			<polygon fill="#414144" points="88.132,99.386 40.27,92.716 43.012,41.997 90.89,43.128 			"/>
			<path fill="#A4A0A1" d="M64.428,92.491c-0.634-0.056-1.281-0.137-1.948-0.203c-6.146-0.776-10.969-2.526-10.817-3.905
				c0.167-1.406,5.275-1.922,11.417-1.183c6.136,0.774,10.969,2.525,10.801,3.912C73.736,92.373,69.654,92.924,64.428,92.491"/>
		</g>
	</g>
</g>
<g id="Layer_2">
</g>
</svg>
