<?xml version="1.0" encoding="utf-8"?>
<!-- Generator: Adobe Illustrator 14.0.0, SVG Export Plug-In . SVG Version: 6.00 Build 43363)  -->
<!DOCTYPE svg PUBLIC "-//W3C//DTD SVG 1.1//EN" "http://www.w3.org/Graphics/SVG/1.1/DTD/svg11.dtd">
<svg version="1.1" id="Layer_1" xmlns="http://www.w3.org/2000/svg" xmlns:xlink="http://www.w3.org/1999/xlink" x="0px" y="0px"
	 width="150px" height="150px" viewBox="0 0 150 150" enable-background="new 0 0 150 150" xml:space="preserve">
<g id="udev4">
	<g>
		<g>
			<polygon fill="#5196D1" points="36.02,70.666 88.706,79.558 112.291,37.386 68.08,29.791 			"/>
			<polygon fill="#4682B6" points="33.083,102.866 85.66,112.184 88.706,79.558 36.02,70.666 			"/>
			<polygon fill="#3F73A0" points="112.291,37.386 88.706,79.558 85.66,112.184 109.552,66.603 			"/>
		</g>
		<polygon fill="#3F5A75" points="96.455,55.832 92.4,55.137 96.229,49.99 99.883,50.613 		"/>
	</g>
	<g>
		<path fill="#3F5A75" d="M92.153,33.404l-0.558,7.961c-0.035,0.09-0.059,0.193-0.068,0.262c-0.192,2.414,2.887,4.9,6.885,5.514
			c3.99,0.638,7.39-0.772,7.584-3.204l0.625-8.246L92.153,33.404z"/>
		<path fill="#63728B" d="M106.621,35.716c-0.194,2.416-3.594,3.847-7.563,3.232c-4.015-0.641-7.081-3.109-6.883-5.515
			c0.176-2.417,3.601-3.848,7.568-3.235C103.734,30.833,106.817,33.305,106.621,35.716z"/>
	</g>
	<g>
		<path fill="#3F5A75" d="M66.496,28.585l-0.557,7.984c-0.037,0.068-0.059,0.168-0.067,0.237c-0.191,2.417,2.889,4.9,6.882,5.515
			c3.992,0.636,7.391-0.774,7.588-3.206l0.627-8.243L66.496,28.585z"/>
		<path fill="#63728B" d="M80.969,30.891c-0.197,2.417-3.598,3.847-7.566,3.232c-4.016-0.64-7.076-3.108-6.884-5.516
			c0.18-2.417,3.603-3.846,7.572-3.231C78.079,26.009,81.161,28.483,80.969,30.891z"/>
	</g>
	<g>
		<path fill="#3F5A75" d="M76.794,39.76l-0.562,7.958c-0.019,0.091-0.054,0.193-0.066,0.262c-0.187,2.417,2.888,4.902,6.885,5.517
			c3.989,0.637,7.39-0.774,7.585-3.208l0.624-8.243L76.794,39.76z"/>
		<path fill="#63728B" d="M91.26,42.065c-0.192,2.417-3.593,3.847-7.585,3.232c-3.995-0.64-7.074-3.109-6.881-5.517
			c0.194-2.416,3.6-3.845,7.588-3.231C88.373,37.187,91.454,39.659,91.26,42.065z"/>
	</g>
	<g>
		<path fill="#D7D7DE" d="M73.724,70.439c-0.143,1.747-3.063,2.725-6.52,2.174c-3.459-0.549-6.146-2.415-6.009-4.155
			c0.138-1.752,3.061-2.726,6.519-2.177C71.172,66.828,73.859,68.692,73.724,70.439z"/>
	</g>
	<g>
		<path fill="#9DA0AA" d="M70.607,69.597l0.629-7.593l-6.216-0.897l-0.626,7.585l-0.005,0.133c-0.046,0.556,1.306,1.214,3.013,1.461
			c1.723,0.253,3.143-0.009,3.184-0.566L70.607,69.597z"/>
	</g>
	<path fill="#B6BAC6" d="M63.262,54.438l-0.421,5.577c-0.014,0.071-0.054,0.12-0.054,0.206c-0.148,1.679,2.174,3.381,5.191,3.858
		c3.008,0.445,5.571-0.559,5.72-2.269l0.466-5.735L63.262,54.438z"/>
	<path fill="#D7D7DE" d="M74.171,56.051c-0.147,1.683-2.708,2.686-5.713,2.239c-3.018-0.445-5.34-2.173-5.196-3.857
		c0.154-1.685,2.711-2.692,5.724-2.24C71.999,52.638,74.315,54.366,74.171,56.051z"/>
</g>
<g id="udev5" display="none">
	<polygon display="inline" fill="#747680" points="71.173,31.201 60.807,68.405 30.856,83.313 79.314,114.173 108.852,90.765 
		121.714,44.752 	"/>
	<polygon display="inline" fill="#595B64" points="73.637,37.332 65.798,68.065 104.102,85.131 113.529,48.934 	"/>
	<path display="inline" fill="#6A6A72" d="M110.475,49.226l-35.731-10.39l-6.032,23.649C83.36,64.028,100.706,61.006,110.475,49.226
		z"/>
	<g display="inline">
		<path fill="#97969E" d="M86.829,101.31l-0.108-0.055l-40.156-21.09l16.759-8.372l0.08,0.037l39.14,18.578L86.829,101.31z
			 M47.485,80.179l39.309,20.656l14.928-10.35L63.336,72.26L47.485,80.179z"/>
	</g>
	<g display="inline">
		
			<line fill="none" stroke="#97969E" stroke-width="0.3524" stroke-miterlimit="10" x1="50.619" y1="81.852" x2="66.926" y2="73.707"/>
		
			<line fill="none" stroke="#97969E" stroke-width="0.3524" stroke-miterlimit="10" x1="54.209" y1="83.746" x2="70.33" y2="75.344"/>
		
			<line fill="none" stroke="#97969E" stroke-width="0.3524" stroke-miterlimit="10" x1="57.801" y1="85.638" x2="73.731" y2="76.984"/>
		
			<line fill="none" stroke="#97969E" stroke-width="0.3524" stroke-miterlimit="10" x1="63.772" y1="86.077" x2="77.138" y2="78.623"/>
		
			<line fill="none" stroke="#97969E" stroke-width="0.3524" stroke-miterlimit="10" x1="67.113" y1="87.974" x2="80.542" y2="80.266"/>
		
			<line fill="none" stroke="#97969E" stroke-width="0.3524" stroke-miterlimit="10" x1="70.907" y1="89.786" x2="83.943" y2="81.903"/>
		
			<line fill="none" stroke="#97969E" stroke-width="0.3524" stroke-miterlimit="10" x1="72.165" y1="93.211" x2="87.349" y2="83.544"/>
		
			<line fill="none" stroke="#97969E" stroke-width="0.3524" stroke-miterlimit="10" x1="75.754" y1="95.104" x2="90.751" y2="85.187"/>
		
			<line fill="none" stroke="#97969E" stroke-width="0.3524" stroke-miterlimit="10" x1="79.344" y1="96.995" x2="94.155" y2="86.822"/>
		
			<line fill="none" stroke="#97969E" stroke-width="0.3524" stroke-miterlimit="10" x1="82.937" y1="98.887" x2="97.563" y2="88.462"/>
	</g>
	<g display="inline">
		
			<line fill="none" stroke="#97969E" stroke-width="0.3524" stroke-miterlimit="10" x1="61.336" y1="73.098" x2="99.976" y2="91.519"/>
		
			<line fill="none" stroke="#97969E" stroke-width="0.3524" stroke-miterlimit="10" x1="59.45" y1="74.061" x2="98.169" y2="92.839"/>
		
			<line fill="none" stroke="#97969E" stroke-width="0.3524" stroke-miterlimit="10" x1="57.568" y1="75.021" x2="96.358" y2="94.153"/>
		
			<line fill="none" stroke="#97969E" stroke-width="0.3524" stroke-miterlimit="10" x1="55.683" y1="75.982" x2="94.549" y2="95.476"/>
		
			<line fill="none" stroke="#97969E" stroke-width="0.3524" stroke-miterlimit="10" x1="53.798" y1="76.946" x2="92.737" y2="96.793"/>
		
			<line fill="none" stroke="#97969E" stroke-width="0.3524" stroke-miterlimit="10" x1="51.912" y1="77.904" x2="90.932" y2="98.11"/>
		
			<line fill="none" stroke="#97969E" stroke-width="0.3524" stroke-miterlimit="10" x1="50.029" y1="78.867" x2="89.124" y2="99.432"/>
	</g>
	<polygon display="inline" fill="none" stroke="#97969E" stroke-width="0.3524" stroke-miterlimit="10" points="57.931,87.481 
		49.733,91.765 61.497,98.851 69.617,93.661 	"/>
</g>
</svg>
