<?xml version="1.0" encoding="utf-8"?>
<!-- Generator: Adobe Illustrator 14.0.0, SVG Export Plug-In . SVG Version: 6.00 Build 43363)  -->
<!DOCTYPE svg PUBLIC "-//W3C//DTD SVG 1.1//EN" "http://www.w3.org/Graphics/SVG/1.1/DTD/svg11.dtd">
<svg version="1.1" id="Layer_1" xmlns="http://www.w3.org/2000/svg" xmlns:xlink="http://www.w3.org/1999/xlink" x="0px" y="0px"
	 width="150px" height="150px" viewBox="0 0 150 150" enable-background="new 0 0 150 150" xml:space="preserve">
<g id="uins1">
	<polygon fill="#565659" points="133.671,133.732 134.137,126.988 136.749,125.639 137.1,135.348 	"/>
	<polyline fill="#727174" points="139.105,124.164 102.26,132.74 103.156,135.58 139.371,126.623 139.445,123.98 	"/>
	<polyline fill="#727174" points="140.395,133.209 102.77,132.695 103.087,135.436 140.169,135.676 140.766,133.117 	"/>
	<g>
		<path fill="none" stroke="#717476" stroke-width="9.4413" stroke-miterlimit="10" d="M42.965,57.452"/>
		<path fill="none" stroke="#717476" stroke-width="9.4413" stroke-miterlimit="10" d="M33.002,57.452"/>
		<path fill="#8E8D8A" d="M102.916,51.138c0.229,3.121-6.209,5.124-14.178,5.865c-7.969,0.745-14.301-0.131-14.532-3.254
			c-0.232-3.12,5.729-6.091,13.69-6.837C95.861,46.174,102.686,48.017,102.916,51.138z"/>
		<path fill="#636462" d="M102.855,51.414c0.172,2.346-6.148,4.848-14.117,5.59c-7.969,0.745-14.563-0.553-14.735-2.905
			c-0.173-2.35,6.149-4.852,14.112-5.586C96.08,47.771,102.684,49.069,102.855,51.414z"/>
		<path fill="none" stroke="#515251" stroke-width="1.3467" stroke-miterlimit="10" d="M99.832,52.478
			c0.104,1.415-4.893,3.035-11.158,3.621c-6.271,0.585-11.431-0.087-11.54-1.507c-0.104-1.415,4.991-2.712,11.259-3.297
			C94.656,50.71,99.729,51.062,99.832,52.478z"/>
		<path fill="#8E8D8A" d="M69.402,54.342c-0.24,3.121-6.885,3.883-14.852,3.115c-7.967-0.769-14.09-2.83-13.85-5.949
			c0.24-3.12,6.56-4.926,14.528-4.159C63.193,48.122,69.646,51.225,69.402,54.342z"/>
		<path fill="#636462" d="M67.832,55.179c-0.155,1.994-5.775,3.08-12.553,2.428c-6.779-0.656-12.15-2.804-12-4.802
			c0.154-1.993,5.776-3.079,12.555-2.425C62.611,51.033,67.986,53.184,67.832,55.179z"/>
		<path fill="none" stroke="#515251" stroke-width="1.3467" stroke-miterlimit="10" d="M66.164,55.083
			c-0.109,1.415-5.278,2.069-11.544,1.469c-6.268-0.606-11.259-2.245-11.151-3.662c0.109-1.415,5.326-1.736,11.593-1.13
			C61.326,52.369,66.275,53.667,66.164,55.083z"/>
		<path fill="#CFCFD0" stroke="#F4F3F3" stroke-width="0.4884" stroke-miterlimit="10" d="M39.693,51.808l0.075-1.776l1.109,0.071
			c0,0,2.458-3.093,14.49-1.922c10.054,0.978,11.571,2.53,13.83,4.61l0.845,0.091l-0.176,2.042l-1.05-0.484
			c0,0-2.776-3.469-13.437-4.145c-10.663-0.676-12.528,0.327-14.071,1.323l-0.319,0.367L39.693,51.808z"/>
		<path fill="#8E8D8A" d="M60.356,76.439c-0.204,2.975-5.88,3.699-12.682,2.971c-6.807-0.734-12.033-2.697-11.829-5.671
			c0.203-2.974,5.602-4.695,12.406-3.963C55.056,70.51,60.565,73.469,60.356,76.439z"/>
		<path fill="#636462" d="M60.274,76.689c-0.157,2.233-5.798,3.449-12.599,2.721c-6.807-0.734-12.195-3.139-12.044-5.378
			c0.154-2.232,5.796-3.45,12.598-2.717C55.034,72.05,60.427,74.458,60.274,76.689z"/>
		<path fill="none" stroke="#515251" stroke-width="1.215" stroke-miterlimit="10" d="M57.592,77.146
			c-0.094,1.348-4.506,1.973-9.858,1.399s-9.615-2.139-9.523-3.491c0.093-1.349,4.547-1.655,9.9-1.077
			C53.46,74.558,57.685,75.795,57.592,77.146z"/>
		<path fill="#CFCFD0" stroke="#F4F3F3" stroke-width="0.4406" stroke-miterlimit="10" d="M34.986,74.024l0.064-1.692l0.948,0.067
			c0,0,2.099-2.949,12.375-1.832c8.583,0.931,9.879,2.413,11.809,4.392l0.72,0.088l-0.149,1.95l-0.898-0.47
			c0,0-2.372-3.301-11.474-3.947c-9.105-0.644-10.699,0.309-12.015,1.262l-0.273,0.352L34.986,74.024z"/>
		
			<line fill="none" stroke="#717476" stroke-width="4.3887" stroke-linecap="round" stroke-linejoin="round" stroke-miterlimit="10" x1="33.22" y1="57.452" x2="111.775" y2="57.452"/>
		<g>
			<path fill="#605C5C" d="M126.021,20.399c1.498,3.821-3.756,10.114-11.736,14.055c-7.98,3.951-15.669,4.043-17.167,0.227
				c-1.498-3.82,3.756-10.113,11.737-14.058C116.837,16.679,124.523,16.579,126.021,20.399z"/>
			<path fill="#9D9898" d="M126.17,20.328l0.002,0.005c0.32,0.828,0.313,1.781,0.113,2.627c-0.203,0.855-0.557,1.643-0.982,2.372
				c-0.855,1.457-1.951,2.688-3.121,3.812c-2.354,2.243-5.055,3.96-7.847,5.392c-2.808,1.405-5.778,2.475-8.84,2.935
				c-1.536,0.22-3.103,0.293-4.646,0.014c-0.77-0.145-1.543-0.382-2.246-0.803c-0.701-0.417-1.338-1.053-1.68-1.917
				c-0.331-0.833-0.34-1.808-0.145-2.67c0.189-0.873,0.547-1.676,0.957-2.419c0.846-1.484,1.938-2.75,3.104-3.893
				c2.354-2.262,5.037-4.08,7.875-5.461c2.842-1.372,5.83-2.415,8.92-2.825c1.545-0.192,3.116-0.236,4.663,0.071
				c0.767,0.159,1.54,0.411,2.229,0.843C125.227,18.835,125.852,19.488,126.17,20.328z M125.876,20.47
				c-0.296-0.745-0.866-1.32-1.513-1.703c-0.661-0.387-1.389-0.612-2.135-0.747c-1.492-0.264-3.024-0.188-4.535,0.031
				c-3.012,0.457-5.957,1.497-8.737,2.885c-2.771,1.413-5.453,3.1-7.774,5.3c-1.152,1.1-2.229,2.321-3.048,3.727
				c-0.403,0.704-0.745,1.457-0.923,2.251c-0.182,0.793-0.186,1.627,0.104,2.376c0.275,0.722,0.832,1.313,1.48,1.706
				c0.643,0.4,1.378,0.645,2.117,0.79c1.486,0.292,3.031,0.246,4.541,0.052c3.041-0.406,6.003-1.423,8.811-2.779
				c2.814-1.36,5.473-3.147,7.805-5.368c1.156-1.118,2.218-2.373,3.031-3.808c0.401-0.718,0.734-1.487,0.92-2.298
				C126.186,22.077,126.178,21.223,125.876,20.47z"/>
		</g>
		<path fill="#4D4B4B" d="M122.092,22.342c1.09,2.781-2.736,7.361-8.546,10.231c-5.81,2.872-11.403,2.942-12.497,0.163
			c-1.09-2.783,2.735-7.363,8.547-10.233C115.402,19.633,120.999,19.56,122.092,22.342z"/>
		<path d="M116.641,24.639c0.532,1.358-1.334,3.593-4.173,4.998c-2.837,1.402-5.565,1.436-6.096,0.079
			c-0.532-1.36,1.33-3.597,4.166-4.998C113.375,23.316,116.107,23.28,116.641,24.639z"/>
		<path fill="none" stroke="#000000" stroke-width="1.0886" stroke-miterlimit="10" d="M32.929,53.71"/>
		
			<line fill="none" stroke="#717476" stroke-width="4.3887" stroke-linecap="round" stroke-linejoin="round" stroke-miterlimit="10" x1="32.929" y1="53.71" x2="31.908" y2="131.699"/>
		<polygon fill="#B0ADAD" points="122.738,77.65 113.432,80.205 113.016,76.492 121.723,71.108 125.219,73.474 		"/>
		<polygon fill="#C4C2C1" points="122.738,77.65 131.838,75.561 130.598,69.992 121.723,71.108 		"/>
		
			<line fill="none" stroke="#717476" stroke-width="4.6365" stroke-linecap="round" stroke-linejoin="round" stroke-miterlimit="10" x1="111.613" y1="53.71" x2="110.294" y2="131.514"/>
		<ellipse fill="#8E8D8A" cx="69.557" cy="93.188" rx="12.312" ry="13.814"/>
		<rect x="61.247" y="97.979" fill="#717476" width="16.622" height="36.646"/>
		
			<line fill="none" stroke="#91918F" stroke-width="1.6624" stroke-linecap="round" stroke-linejoin="round" stroke-miterlimit="10" x1="111.962" y1="28.509" x2="98.33" y2="68.366"/>
		
			<line fill="none" stroke="#91918F" stroke-width="1.6624" stroke-linecap="round" stroke-linejoin="round" stroke-miterlimit="10" x1="117.438" y1="42.224" x2="117.438" y2="92.055"/>
		<path fill="#636462" d="M133.241,47.513c-0.003,0.767-6.979,1.377-15.589,1.369c-8.606-0.006-15.586-0.636-15.588-1.402
			c0-0.768,6.983-1.379,15.59-1.368C126.264,46.118,133.244,46.748,133.241,47.513z"/>
		<path fill="#2C3531" d="M108.938,27.567c0.041,0.083,0.078,0.169,0.129,0.248l2.729,6.359c0.157,0.24,2.168-0.237,2.433-0.334
			c0.328-0.122,0.508-0.521,0.4-0.889l-1.837-7.216C111.391,25.936,110.086,26.467,108.938,27.567z"/>
		<g>
			<polygon fill="#91918F" points="23.572,27.589 25.826,28.646 29.048,25.255 24.147,22.828 			"/>
			<g>
				<path fill="#605C5C" d="M8.784,23.391c-2.555,1.102,1.905,5.289,9.962,9.358c8.058,4.069,16.666,6.48,19.222,5.38
					c2.557-1.098-1.906-5.289-9.963-9.358C19.947,24.706,11.34,22.294,8.784,23.391z"/>
				<path fill="#9D9898" d="M8.827,23.513c-0.324,0.134-0.609,0.369-0.647,0.721c-0.04,0.349,0.122,0.721,0.308,1.043
					c0.393,0.65,0.927,1.2,1.473,1.714c1.107,1.019,2.319,1.898,3.562,2.708c2.495,1.606,5.102,3,7.775,4.201
					c2.674,1.2,5.405,2.25,8.186,3.079c1.392,0.41,2.797,0.769,4.216,1.011c0.709,0.119,1.423,0.21,2.136,0.236
					c0.705,0.021,1.443,0.002,2.074-0.254c0.32-0.138,0.585-0.367,0.615-0.69c0.034-0.325-0.124-0.686-0.312-1
					c-0.393-0.634-0.928-1.174-1.477-1.677c-1.109-1.003-2.329-1.857-3.571-2.659c-2.491-1.597-5.119-2.922-7.77-4.163
					c-2.658-1.228-5.377-2.297-8.146-3.161c-1.384-0.431-2.784-0.809-4.2-1.07c-0.707-0.13-1.418-0.231-2.132-0.269
					C10.208,23.254,9.479,23.257,8.827,23.513z M8.74,23.271c0.715-0.291,1.461-0.299,2.186-0.282
					c0.729,0.026,1.452,0.117,2.168,0.235c1.435,0.241,2.849,0.598,4.249,1.007c2.797,0.831,5.535,1.893,8.217,3.101
					c2.684,1.208,5.293,2.618,7.799,4.241c1.248,0.821,2.472,1.696,3.598,2.733c0.558,0.522,1.103,1.077,1.528,1.775
					c0.198,0.35,0.4,0.748,0.353,1.235c-0.055,0.511-0.475,0.819-0.811,0.958c-0.736,0.295-1.474,0.282-2.203,0.261
					c-0.729-0.037-1.451-0.136-2.165-0.261c-1.432-0.26-2.839-0.645-4.232-1.064c-2.785-0.864-5.51-1.951-8.177-3.182
					c-2.66-1.25-5.291-2.591-7.794-4.204c-1.247-0.811-2.479-1.663-3.608-2.682c-0.559-0.514-1.107-1.06-1.531-1.739
					c-0.199-0.341-0.396-0.737-0.356-1.203C8.009,23.716,8.406,23.41,8.74,23.271z"/>
			</g>
			<path fill="#4D4B4B" d="M12.753,25.397c-1.859,0.801,1.388,3.85,7.253,6.812c5.867,2.962,12.13,4.715,13.993,3.918
				c1.861-0.803-1.388-3.852-7.252-6.821C20.88,26.352,14.615,24.599,12.753,25.397z"/>
			<path d="M18.347,28.016c-0.909,0.389,0.677,1.88,3.541,3.327c2.865,1.445,5.924,2.302,6.835,1.912
				c0.909-0.391-0.678-1.88-3.542-3.325C22.314,28.481,19.255,27.626,18.347,28.016z"/>
			
				<line fill="none" stroke="#91918F" stroke-width="1.6624" stroke-linecap="round" stroke-linejoin="round" stroke-miterlimit="10" x1="23.053" y1="31.766" x2="39.435" y2="70.297"/>
			<path fill="#2C3531" d="M26.003,30.559c-0.037,0.088-0.066,0.176-0.111,0.26l-2.277,6.577c-0.141,0.253-2.177-0.044-2.448-0.117
				c-0.337-0.093-0.544-0.475-0.462-0.854l1.325-7.353C23.443,29.148,24.782,29.563,26.003,30.559z"/>
		</g>
		<g>
			<path fill="#717476" d="M112.145,79.402l15.482-2.119c0.956-0.129,1.827,0.631,1.949,1.695c0.104,0.928-0.395,1.78-1.154,2.076
				l-14.714,5.771c-1.792,0.702-3.754-0.349-4.381-2.351c-0.632-2.002,0.313-4.188,2.104-4.891
				C111.656,79.5,111.909,79.436,112.145,79.402z"/>
		</g>
		<g>
			<path fill="#717476" d="M31.432,87.457l10.201-1.607c0.493-0.086,0.948,0.295,1.018,0.854c0.063,0.491-0.207,0.955-0.618,1.096
				l-9.813,3.496c-0.933,0.33-1.93-0.239-2.228-1.28c-0.298-1.043,0.217-2.154,1.149-2.488
				C31.235,87.496,31.339,87.473,31.432,87.457z"/>
		</g>
		<path fill="#4F5254" d="M91.857,59.844c0,1.926-1.498,2.444-3.213,2.444l0,0c-1.715,0-2.998-0.518-2.998-2.444v-4.135
			c0-1.924,1.388-3.482,3.103-3.482l0,0c1.717,0,3.104,1.559,3.104,3.482v4.135H91.857z"/>
		<path fill="#4F5254" d="M57.902,59.844c0,1.926-1.498,2.444-3.212,2.444l0,0c-1.716,0-2.998-0.518-2.998-2.444v-4.135
			c0-1.924,1.39-3.482,3.104-3.482l0,0c1.717,0,3.105,1.559,3.105,3.482L57.902,59.844L57.902,59.844z"/>
		<path fill="#4F5254" d="M120.001,84.57c0,1.639-1.183,2.963-2.64,2.963l0,0c-1.461,0-2.646-1.324-2.646-2.963v-3.521
			c0-1.635,1.185-2.963,2.646-2.963l0,0c1.457,0,2.64,1.328,2.64,2.963V84.57z"/>
		<polygon fill="#91918F" points="115.631,45.004 119.098,45.004 120.417,39.076 114.805,39.447 		"/>
		<path fill="#CFCFD0" stroke="#F4F3F3" stroke-width="0.4884" stroke-miterlimit="10" d="M73.247,54.235l-0.193-1.764l1.107-0.141
			c0,0,1.958-3.51,13.993-4.624c10.059-0.93,11.785,0.316,14.324,1.941l0.849-0.073l0.129,2.047l-1.106-0.281
			c0,0-3.257-2.895-13.867-1.553c-10.609,1.342-12.305,2.683-13.67,3.954l-0.261,0.424L73.247,54.235z"/>
		<polygon fill="#636462" points="114.785,47.845 115.404,52.485 118.508,52.718 120.368,48.076 		"/>
		
			<path fill="none" stroke="#A7A6A5" stroke-width="1.5735" stroke-linecap="round" stroke-linejoin="round" stroke-miterlimit="10" d="
			M46.013,79.607c-0.741,0-7.783-2.088-7.783-2.088s-1.587,0.489-2.327,3.971c-0.741,3.48-1.296,6.961-1.296,6.961"/>
		<path fill="#555755" d="M38.026,75.941v6.496l4.962,0.696l2.481-6.961C45.471,76.174,41.541,73.854,38.026,75.941z"/>
		<ellipse fill="#6A6C6E" cx="69.559" cy="93.188" rx="9.479" ry="10.637"/>
		<rect x="30.402" y="54.341" fill="#909092" width="4.757" height="7.657"/>
		<rect x="31.023" y="55.271" fill="#909092" width="6.825" height="5.334"/>
		<rect x="105.477" y="55.271" fill="#909092" width="6.825" height="5.334"/>
		<rect x="99.139" y="55.271" fill="#909092" width="6.825" height="5.334"/>
		<rect x="109.096" y="53.993" fill="#909092" width="4.758" height="7.657"/>
		<path fill="#717476" d="M89.594,136.334H49.522c-0.769,0-1.47-0.389-1.805-0.998c-0.336-0.611-0.249-1.34,0.227-1.875
			l19.441-21.893c0.374-0.422,0.942-0.67,1.547-0.678c0.588,0.016,1.183,0.229,1.571,0.639l20.63,21.893
			c0.5,0.529,0.607,1.27,0.277,1.891C91.081,135.936,90.373,136.334,89.594,136.334z M53.654,132.783h31.651L69.008,115.49
			L53.654,132.783z"/>
		<polygon fill="#6A6C6E" points="115.816,135.555 104.441,135.322 106.512,124.416 114.991,125.811 		"/>
		<polygon fill="#6A6C6E" points="26.059,135.555 37.433,135.322 35.366,124.416 26.886,125.811 		"/>
		<ellipse fill="#9A9C9E" cx="124.286" cy="73.82" rx="0.932" ry="1.275"/>
		<ellipse fill="#9A9C9E" cx="127.391" cy="73.24" rx="0.93" ry="1.275"/>
	</g>
	<polygon fill="#727174" points="129.432,134.496 130.895,129.576 139.079,128.592 140.169,135.676 	"/>
</g>
</svg>
