<?xml version="1.0" encoding="utf-8"?>
<!-- Generator: Adobe Illustrator 16.0.0, SVG Export Plug-In . SVG Version: 6.00 Build 0)  -->
<!DOCTYPE svg PUBLIC "-//W3C//DTD SVG 1.1//EN" "http://www.w3.org/Graphics/SVG/1.1/DTD/svg11.dtd">
<svg version="1.1" id="Layer_1" xmlns="http://www.w3.org/2000/svg" xmlns:xlink="http://www.w3.org/1999/xlink" x="0px" y="0px"
	 width="150px" height="150px" viewBox="0 0 150 150" enable-background="new 0 0 150 150" xml:space="preserve">
<g id="eyes">
	<g id="Eyes3">
		<path fill="#543318" d="M136.096,76.973c0.09-0.68,0.172-1.359,0.166-2.064c-0.01-8.025-5.771-14.521-12.844-14.515
			c-7.086,0.015-12.816,6.528-12.805,14.552c0,0.216,0.04,0.42,0.049,0.631C119.615,73.55,128.032,74.411,136.096,76.973z"/>
		<path fill="#543318" d="M13.872,76.973c-0.087-0.68-0.169-1.359-0.166-2.064c0.017-8.025,5.771-14.521,12.847-14.515
			c7.082,0.015,12.813,6.528,12.805,14.552c0,0.216-0.041,0.42-0.048,0.631C30.356,73.55,21.938,74.411,13.872,76.973z"/>
	</g>
</g>
</svg>
