<?xml version="1.0" encoding="utf-8"?>
<!-- Generator: Adobe Illustrator 14.0.0, SVG Export Plug-In . SVG Version: 6.00 Build 43363)  -->
<!DOCTYPE svg PUBLIC "-//W3C//DTD SVG 1.1//EN" "http://www.w3.org/Graphics/SVG/1.1/DTD/svg11.dtd">
<svg version="1.1" id="Layer_1" xmlns="http://www.w3.org/2000/svg" xmlns:xlink="http://www.w3.org/1999/xlink" x="0px" y="0px"
	 width="150px" height="150px" viewBox="0 0 150 150" enable-background="new 0 0 150 150" xml:space="preserve">
<g id="ugtr2">
	<g>
		<g>
			<g>
				
					<line id="nut_2_" fill="none" stroke="#FFFFFF" stroke-width="0.8111" stroke-miterlimit="10" x1="117.808" y1="51.017" x2="119.889" y2="55.099"/>
				<path id="fillBassGuitarColorBase" fill="#35464F" d="M5.057,86.919c0,0,4.722-15.246,23.93-11.625c0,0,7.695,1.937,13.718-5.22
					c6.026-7.15,19.363-10.131,20.08-4.609c0,0,0.753,1.601-3.809,4.262c-4.564,2.641-7.949,5.912-2.999,7.692l3.071,6.923
					c0,0-8.709,3.335-6.334,7.824c0,0,1.854,3.758,7.831,1.075c0.292,0.042,6.622,0.211,0.136,6.952c0,0-6.875,5.147-16.62,5.316
					c-0.035-0.006-6.109-0.174-10.653,8.313c0,0-8.775,12.327-16.532,8.553C9.121,118.612,0.992,93.87,5.057,86.919z"/>
				<path fill="#EDE7E3" d="M61.326,95.751c-8.302,2.873-10.454-3.233-10.75-4.249c-0.297-1.023,1.556-11.912,1.556-11.912
					c0.833-2.605-0.02-3.276-0.02-3.276c-1.604-0.945-4.338,2.368-4.338,2.368c-4.117,3.601-12.366,3.34-14.437,3.501
					c-2.069,0.16-8.122,1.725-6.127,6.929c1.998,5.189,2.817,12.283,2.817,12.283c0.014,0.095,0.02,0.186,0.026,0.282
					c1.801,0.22,4.053-0.648,5.126,0.612c1.038,1.155,2.058,2.357,3.017,3.627c0.508-0.354,1.028-0.672,1.544-0.945
					c2.5-1.338,7.02-1.038,13.209-2.313c6.191-1.273,8.758-5.128,9.189-6.306C62.573,95.174,61.326,95.751,61.326,95.751z"/>
				<g>
					<path fill="#B6B7BA" d="M123.4,40.402c-0.284-0.571-0.912-0.917-1.572-0.809c-0.701,0.116-1.203,0.704-1.235,1.381
						c-0.602,0.216-1.032,0.674-0.911,1.258c0.12,0.562,0.613,0.984,1.239,1.213l-0.059,0.006c0,0,1.699,0.942,1.741,1.828
						l-0.097-0.758l0.368-0.079l0.063,0.386c0.059-0.517,0.711-1.483,0.951-1.821c0.563-0.421,0.906-1.008,0.768-1.633
						C124.523,40.792,123.998,40.432,123.4,40.402z"/>
					<path fill="#B6B7BA" d="M122.977,45.089l-0.045-0.262C122.918,44.938,122.924,45.033,122.977,45.089z"/>
					<path fill="#B6B7BA" d="M129.408,39.037c-0.283-0.571-0.909-0.919-1.571-0.81c-0.7,0.118-1.202,0.707-1.237,1.382
						c-0.601,0.216-1.042,0.673-0.91,1.259c0.117,0.561,0.604,0.984,1.239,1.212l-0.069,0.006c0,0,1.704,0.944,1.746,1.828
						l-0.058-0.276l0.368-0.079l0.03-0.098c0.057-0.518,0.717-1.49,0.95-1.824c0.563-0.422,0.9-1.005,0.761-1.632
						C130.531,39.426,130.006,39.065,129.408,39.037z"/>
					<path fill="#B6B7BA" d="M128.987,43.723l-0.046-0.262C128.929,43.57,128.935,43.666,128.987,43.723z"/>
					<path fill="#B6B7BA" d="M135.728,37.68c-0.282-0.568-0.909-0.917-1.567-0.81c-0.704,0.117-1.203,0.706-1.239,1.382
						c-0.611,0.214-1.045,0.672-0.921,1.259c0.118,0.562,0.614,0.986,1.243,1.214l-0.072,0.007c0,0,1.702,0.945,1.744,1.828
						l-0.099-0.386l0.375-0.081l0.066,0.015c0.061-0.518,0.711-1.486,0.945-1.823c0.57-0.421,0.904-1.006,0.77-1.634
						C136.849,38.072,136.324,37.712,135.728,37.68z"/>
					<path fill="#B6B7BA" d="M135.306,42.369l-0.048-0.262C135.247,42.218,135.253,42.313,135.306,42.369z"/>
					<path fill="#B6B7BA" d="M142.84,37.258c-0.124-0.58-0.65-0.939-1.248-0.971c-0.281-0.568-0.906-0.918-1.572-0.81
						c-0.699,0.116-1.199,0.707-1.234,1.383c-0.602,0.215-1.032,0.674-0.91,1.259c0.119,0.562,0.614,0.985,1.243,1.213l-0.063,0.005
						c0,0,1.701,0.943,1.741,1.829l-0.097-0.203l0.372-0.078l0.06-0.172c0.059-0.515,0.709-1.48,0.949-1.82
						C142.639,38.473,142.973,37.885,142.84,37.258z"/>
					<path fill="#B6B7BA" d="M141.169,40.975l-0.045-0.262C141.11,40.823,141.116,40.919,141.169,40.975z"/>
				</g>
				<path fill="#E6CCA9" d="M46.337,82.248c0.097-0.547,71.551-31.271,71.551-31.271s1.165-0.692,1.142-2.015
					c-0.019-1.322-1.291-3.702,1.929-4.156c3.217-0.456,22.017-4.581,22.017-4.581s4.222,0.412,4.058,4.198
					c-0.175,3.784-2.857,5.034-6.886,3.783c0,0-0.988-1.47-3.587,0.926c-2.617,2.395-6.873,5.708-8.642,6.381
					c0,0-2.274-2.947-7.665-0.443L49.999,89.747c0,0-0.991,0.02-2.023-1.14C46.923,87.42,45.833,85.031,46.337,82.248z"/>
				<path id="fretwirres" fill="none" stroke="#9D9FA1" stroke-width="0.3571" stroke-miterlimit="10" d="M111.762,53.693
					l2.31,4.618 M106.259,56.248l2.309,4.617 M100.914,58.372l2.309,4.616 M96.162,60.363l2.547,5.31 M91.635,62.408l2.542,5.512
					 M87.259,64.226l2.735,5.965 M83.053,66.106l2.738,5.967 M79.26,67.752l2.737,5.965 M75.611,69.396l2.736,5.965 M72.017,70.758
					l3.022,6.562 M68.815,72.193l3.049,6.695 M65.683,73.671l3.049,6.694 M62.804,74.935l3.049,6.697 M60.057,76.376l3.047,6.693
					 M52.944,79.606l3.176,6.92 M50.748,80.602l3.327,7.297 M55.189,78.517l3.189,7.005 M57.335,77.213l3.367,7.324 M48.479,81.488
					l3.328,7.297 M46.661,82.331l3.329,7.295"/>
			</g>
			<path fill="#B6B7BA" d="M123.48,47.921c0.105,0.637-0.328,1.237-0.968,1.341c-0.636,0.109-1.239-0.323-1.347-0.958
				c-0.105-0.635,0.329-1.237,0.963-1.341C122.768,46.858,123.373,47.285,123.48,47.921z M128.485,45.533
				c0.647,0,1.173,0.522,1.173,1.166c0,0.645-0.522,1.167-1.173,1.167c-0.646,0-1.173-0.52-1.173-1.167
				C127.313,46.055,127.839,45.533,128.485,45.533z M134.498,44.275c0.647,0,1.173,0.522,1.173,1.167s-0.522,1.167-1.173,1.167
				c-0.647,0-1.173-0.522-1.173-1.167S133.851,44.275,134.498,44.275z M142.048,43.858c0.104,0.637-0.326,1.238-0.964,1.342
				c-0.641,0.108-1.243-0.323-1.348-0.957c-0.107-0.636,0.323-1.237,0.96-1.345C141.339,42.796,141.94,43.223,142.048,43.858z"/>
			<path fill="#D2D6DF" d="M30.056,101.677c0.182,3.065-3.217,8.576-5.005,12.329c-1.842,3.878-0.18,5.326-0.18,5.326
				c3.214,1.707,7.244-5.314,8.55-8.053c1.034-2.17,2.833-4.022,4.781-5.363c-0.958-1.27-1.979-2.472-3.017-3.627
				C34.106,101.028,31.855,101.896,30.056,101.677z"/>
			<path fill="#222428" d="M19.465,92.346l2.717-1.258l5.469,11.674l-2.718,1.259L19.465,92.346z M30.907,87.473l1.907-0.885
				l4.995,10.65l-1.907,0.884L30.907,87.473z"/>
			<polygon fill="none" stroke="#ECEFF5" stroke-width="0.1739" stroke-miterlimit="10" points="19.379,105.174 11.968,108.611 
				7.483,99.056 14.894,95.618 			"/>
			<polygon fill="#F8F9FB" points="13.384,107.953 11.96,108.611 7.486,99.051 8.909,98.392 			"/>
			<path id="fret_markers" fill="#80807D" d="M113.844,53.378l2.405-1.113l1.542,3.295l-2.405,1.112L113.844,53.378z
				 M102.991,58.365l1.885-0.873l1.666,3.554l-1.885,0.873L102.991,58.365z M93.34,62.942l1.886-0.875l1.668,3.554l-1.887,0.875
				L93.34,62.942z M84.857,66.641l1.428-0.664l1.852,3.941l-1.428,0.664L84.857,66.641z M77.165,70.127l1.431-0.665l1.854,3.94
				l-1.431,0.666L77.165,70.127z M67.239,74.565l1.171-0.542l2.029,4.33l-1.17,0.543L67.239,74.565z M59.049,78.369l0.844-0.393
				l2.035,4.328l-0.844,0.392L59.049,78.369z M54.099,80.402l0.844-0.392l2.037,4.326l-0.843,0.393L54.099,80.402z M49.794,82.545
				l0.843-0.394l2.035,4.327l-0.842,0.392L49.794,82.545z"/>
			
				<line id="nut_1_" fill="none" stroke="#FFFFFF" stroke-width="0.8111" stroke-miterlimit="10" x1="117.823" y1="50.897" x2="119.755" y2="55.125"/>
			<path id="strings" fill="none" stroke="#ECEFF5" stroke-width="0.1739" stroke-miterlimit="10" d="M9.631,99.966l108.805-48.501
				l4.724-2.49 M10.827,102.092L119.136,52.53l8.997-4.671 M11.783,104.333l107.484-50.671l15.456-7.275 M12.852,106.618
				l106.83-51.857l20.608-10.158"/>
			<path fill="#35464F" d="M32.106,105.396c0.888-0.176,1.758,0.427,1.944,1.346c0.185,0.92-0.386,1.81-1.273,1.985
				c-0.889,0.174-1.758-0.428-1.944-1.347C30.647,106.462,31.219,105.573,32.106,105.396z M30.857,110.854
				c0.184,0.919-0.385,1.808-1.276,1.985c-0.883,0.176-1.752-0.428-1.94-1.346c-0.181-0.906,0.386-1.812,1.275-1.984
				C29.802,109.33,30.673,109.937,30.857,110.854z M26.075,115.362c0.888-0.177,1.757,0.428,1.943,1.349
				c0.185,0.919-0.384,1.81-1.272,1.985c-0.888,0.173-1.757-0.427-1.943-1.347C24.619,116.43,25.187,115.538,26.075,115.362z"/>
		</g>
	</g>
</g>
</svg>
