<?xml version="1.0" encoding="utf-8"?>
<!-- Generator: Adobe Illustrator 14.0.0, SVG Export Plug-In . SVG Version: 6.00 Build 43363)  -->
<!DOCTYPE svg PUBLIC "-//W3C//DTD SVG 1.1//EN" "http://www.w3.org/Graphics/SVG/1.1/DTD/svg11.dtd">
<svg version="1.1" id="Layer_1" xmlns="http://www.w3.org/2000/svg" xmlns:xlink="http://www.w3.org/1999/xlink" x="0px" y="0px"
	 width="150px" height="150px" viewBox="0 0 150 150" enable-background="new 0 0 150 150" xml:space="preserve">
<g id="ugtr1">
	<g>
		<path fill="#908678" d="M22.616,110.42c0,0,1.764-0.205,2.438,0.662l-2.056,6.516c0,0-1.882,0.662-2.403-0.906L22.616,110.42z"/>
		<path fill="#908678" d="M22.616,110.42c0,0,1.764-0.205,2.438,0.662l-2.056,6.516c0,0-1.882,0.662-2.403-0.906L22.616,110.42z"/>
		<path id="fillGuitarColorBase" fill="#A39161" d="M6.899,104.109c0,0,6.808,20.481,21.418,16.619c0,0,6.385-1.521,12.929-10.313
			c0,0,3.365-6.938,11.477-6.188c0,0,16.354-0.635,14.036-8.18c0,0,0.012-1.814-3.408-1.096c-3.416,0.729-8.558,0.688-9.048-7.396
			l4.483-11.188c0,0-4.116,1.311-5.057-3.809c-0.938-5.117,4.066-7.53,6.324-8.978c2.258-1.441,1.852-2.646,0.293-3.322
			c-1.558-0.682-7.281-4.729-21.143,9.326c0,0-2.382,4.826-15.665,4.896c0,0-7.878-0.854-13.53,2.27
			C4.354,79.889,0.81,88.57,6.899,104.109z"/>
		<path fill="#F1F3F5" d="M26.864,101.803c0,0,2.689,4.369,1.797,8.299c-0.892,3.939-1.947,6.57-0.102,7.855
			c1.848,1.27,6.353-3.496,6.353-3.496s5.104-5.521,6.378-7.271c1.271-1.752,5.501-4.85,10.812-4.532
			c5.309,0.313,11.498-1.367,12.469-4.814c0,0,0-0.52-2.253,0.314c-2.25,0.834-10.792,1.278-10.758-9.207
			c-0.035-0.074-0.092-0.103-0.092-0.103l-0.455-9.377c0,0,0.008-3.291-0.94-3.521c0,0-0.229-1.021-3.478,1.856
			c0,0-4.967,3.338-7.356,3.771c-2.389,0.43-9.66,0.857-9.66,0.857s-7.269,0.854-8.405,5.696c0,0-0.322,1.464,0.584,3.354"/>
		<path fill="#B59F7E" d="M47.6,81.369c0.067,0.641,0.24,1.348,0.449,2.006c0.209,0.666,0.471,1.32,0.769,1.957
			c0.6,1.271,1.356,2.475,2.228,3.586l-0.604-0.146l38.142-17.868l19.07-8.937l9.535-4.479c0.813-0.354,1.545-0.771,2.438-1.104
			c0.871-0.312,1.797-0.507,2.754-0.492c0.953,0.021,1.951,0.283,2.758,0.869c0.354,0.254,0.703,0.5,1.063,0.729
			c0.185,0.104,0.354,0.229,0.526,0.312c0.084,0.043,0.17,0.082,0.224,0.104c0.021,0.012,0.063-0.011-0.065,0.008
			c-0.062-0.019-0.314,0.125-0.337,0.312c-0.024,0.16-0.016,0.185,0.021,0.25l-0.146-0.42l0.33-0.207l0.007-0.004
			c3.43-2.17,6.872-4.333,10.245-6.562c0.205-0.139,0.425-0.285,0.603-0.418l0.104-0.076c0.021-0.014,0.031-0.033,0.147-0.086
			c0.199-0.082,0.313-0.068,0.438-0.064c0.232,0.027,0.39,0.1,0.521,0.162c0.521,0.266,0.9,0.531,1.339,0.73
			c0.844,0.414,1.743,0.543,2.637,0.326c0.86-0.229,1.822-0.662,2.543-1.205c0.729-0.559,1.229-1.326,1.354-2.212l0.521,0.076
			c0.05,1.046-0.521,2.113-1.348,2.82c-0.854,0.686-1.771,1.168-2.854,1.457c-1.082,0.283-2.297,0.111-3.271-0.371
			c-0.482-0.225-0.955-0.533-1.339-0.719c-0.09-0.043-0.188-0.07-0.188-0.068c0.007-0.002-0.021,0.012,0.063-0.018
			c0.057-0.035,0.021-0.02-0.021,0.006l-0.014,0.018c0.082-0.062,0.01-0.004,0.021-0.012l-0.049,0.039
			c-0.23,0.176-0.436,0.312-0.646,0.459c-1.69,1.146-3.396,2.248-5.104,3.354c-1.701,1.111-3.451,2.144-5.18,3.214l-0.01,0.004
			l0.188-0.627c0.047,0.125,0.078,0.196,0.037,0.411c-0.043,0.246-0.352,0.421-0.455,0.414c-0.236,0.027-0.307-0.021-0.396-0.036
			c-0.155-0.052-0.27-0.104-0.381-0.162c-0.227-0.113-0.416-0.231-0.608-0.354c-0.384-0.242-0.753-0.504-1.104-0.761
			c-0.621-0.448-1.396-0.668-2.188-0.683c-0.801-0.012-1.613,0.158-2.396,0.438c-0.754,0.274-1.563,0.717-2.354,1.065l-9.531,4.469
			l-19.07,8.936L50.874,89.678l-0.36,0.17l-0.246-0.311c-0.912-1.166-1.711-2.434-2.346-3.773c-0.314-0.678-0.593-1.369-0.818-2.082
			c-0.224-0.725-0.405-1.432-0.491-2.229L47.6,81.369z"/>
		<path fill="#DABF96" d="M47.102,81.408c0,0,0.261,3.627,3.551,7.816l68.265-31.981c0,0,3.461-1.851,5.938-0.062
			c2.48,1.789,2.162,1.098,2.162,1.098s10.244-6.455,10.943-7.051c0.697-0.596,2.352,2.123,5.559,0.939
			c1.785-0.654,3.377-1.686,3.668-3.647c0.73-4.894-4.104-4.528-7.449-4.062c-7.043,0.979-21.809,2.973-21.809,2.973l-0.67,2.8
			c0,0-0.531,0.656-2.717,1.65C111.904,53.078,111.945,53.053,47.102,81.408z"/>
		<path fill="#AAABAD" d="M121.673,47.513c0.677,0,1.224,0.547,1.224,1.223c0,0.675-0.547,1.223-1.224,1.223
			c-0.676,0-1.223-0.547-1.223-1.223C120.45,48.06,120.997,47.513,121.673,47.513z M125.816,46.943c0.675,0,1.228,0.547,1.228,1.222
			s-0.553,1.222-1.228,1.222c-0.676,0-1.229-0.547-1.229-1.222C124.596,47.491,125.143,46.943,125.816,46.943z M129.743,46.439
			c0.676,0,1.223,0.548,1.223,1.223c0,0.675-0.547,1.223-1.223,1.223c-0.677,0-1.224-0.548-1.224-1.223
			C128.521,46.988,129.066,46.439,129.743,46.439z M133.891,45.867c0.678,0,1.225,0.548,1.225,1.225
			c0,0.676-0.547,1.225-1.225,1.225c-0.677,0-1.226-0.548-1.226-1.225C132.665,46.415,133.214,45.867,133.891,45.867z
			 M137.896,45.266c0.676,0,1.23,0.548,1.23,1.224c0,0.676-0.555,1.224-1.23,1.224c-0.674,0-1.223-0.548-1.223-1.224
			C136.675,45.813,137.223,45.266,137.896,45.266z M141.928,44.718c0.676,0,1.223,0.547,1.223,1.223
			c0,0.676-0.547,1.223-1.223,1.223c-0.677,0-1.224-0.547-1.224-1.223C140.704,45.266,141.251,44.718,141.928,44.718z"/>
		<path fill="#AAABAD" d="M121.339,43.966c0.781-0.113,1.49,0.308,1.582,0.94c0.095,0.633-0.467,1.238-1.25,1.352
			c-0.782,0.114-1.491-0.307-1.584-0.94C119.995,44.685,120.557,44.08,121.339,43.966z M121.438,45.775l0.33-0.048l0.176,1.206
			l-0.332,0.048L121.438,45.775z M125.359,43.375c0.783-0.113,1.492,0.308,1.584,0.941c0.093,0.633-0.479,1.237-1.254,1.351
			c-0.782,0.114-1.492-0.308-1.584-0.941C124.018,44.094,124.577,43.489,125.359,43.375z M125.468,45.229l0.337-0.049l0.178,1.208
			l-0.336,0.049L125.468,45.229z M130.977,43.734c0.094,0.633-0.47,1.238-1.252,1.354c-0.781,0.111-1.492-0.309-1.586-0.941
			c-0.091-0.633,0.469-1.238,1.254-1.354C130.175,42.681,130.884,43.101,130.977,43.734z M129.46,44.627l0.336-0.049l0.177,1.207
			l-0.336,0.049L129.46,44.627z M133.411,42.21c0.784-0.114,1.493,0.308,1.588,0.941c0.092,0.634-0.47,1.24-1.252,1.354
			c-0.785,0.114-1.494-0.308-1.588-0.941C132.066,42.931,132.628,42.325,133.411,42.21z M133.518,44.044l0.33-0.047l0.172,1.208
			l-0.33,0.047L133.518,44.044z M137.434,41.627c0.782-0.113,1.494,0.308,1.586,0.941c0.092,0.634-0.472,1.239-1.254,1.354
			c-0.785,0.114-1.496-0.308-1.588-0.941C136.085,42.348,136.646,41.742,137.434,41.627z M137.503,43.461l0.336-0.049l0.177,1.207
			l-0.336,0.049L137.503,43.461z M141.249,41.154c0.78-0.114,1.489,0.307,1.584,0.941c0.092,0.633-0.47,1.239-1.25,1.354
			c-0.783,0.114-1.492-0.307-1.584-0.94C139.904,41.873,140.466,41.268,141.249,41.154z M141.311,42.989l0.332-0.049l0.178,1.206
			l-0.332,0.05L141.311,42.989z"/>
		
			<line id="nut" fill="none" stroke="#FFFFFF" stroke-width="0.8155" stroke-miterlimit="10" x1="116.137" y1="51.146" x2="118.907" y2="57.248"/>
		<path fill="none" stroke="#8D8F92" stroke-width="0.4078" stroke-miterlimit="10" d="M110.318,53.789l2.771,6.103 M104.904,56.156
			l2.878,6.444 M99.904,58.348l2.972,6.537 M95.376,60.251l2.886,6.733 M91.032,62.276l2.997,6.654 M86.9,64.076l3.063,6.933
			 M83.02,65.733l3.129,6.828 M79.378,67.229l3.36,7.072 M76.13,68.785l3.228,7.1 M72.991,70.119l3.188,7.256 M69.866,71.313
			l3.41,7.384 M55.626,77.76l3.449,7.596 M57.558,76.883l3.451,7.594 M59.706,75.906l3.452,7.596 M61.964,74.881l3.451,7.594
			 M64.438,73.756l3.453,7.596 M67.108,72.543l3.451,7.598 M50.136,80.123l3.471,7.641 M51.85,79.344l3.472,7.639 M53.566,78.563
			l3.52,7.75 M48.539,80.795l3.498,7.76"/>
		<path id="fretmarkers" fill="#777170" d="M103.895,60.145c0.242,0,0.438,0.197,0.438,0.438c0,0.242-0.196,0.438-0.438,0.438
			s-0.438-0.188-0.438-0.438C103.456,60.342,103.65,60.145,103.895,60.145z M94.678,64.266c0.241,0,0.438,0.197,0.438,0.438
			c0,0.242-0.197,0.438-0.438,0.438c-0.242,0-0.439-0.188-0.439-0.438C94.236,64.463,94.436,64.266,94.678,64.266z M86.55,67.932
			c0.242,0,0.438,0.197,0.438,0.439s-0.196,0.439-0.438,0.439c-0.241,0-0.438-0.197-0.438-0.439S86.309,67.932,86.55,67.932z
			 M79.421,71.092c0.242,0,0.438,0.197,0.438,0.439c0,0.242-0.196,0.439-0.438,0.439c-0.241,0-0.438-0.197-0.438-0.439
			C78.98,71.29,79.18,71.092,79.421,71.092z M71.001,76.883c0.242,0,0.438,0.197,0.438,0.439c0,0.24-0.195,0.438-0.438,0.438
			s-0.438-0.197-0.438-0.438C70.563,77.08,70.759,76.883,71.001,76.883z M69.472,73.805c0.242,0,0.439,0.197,0.439,0.439
			c0,0.242-0.197,0.439-0.439,0.439c-0.242,0-0.439-0.197-0.439-0.439C69.033,74.002,69.229,73.805,69.472,73.805z M62.574,78.799
			c0.242,0,0.438,0.197,0.438,0.439c0,0.24-0.195,0.438-0.438,0.438c-0.243,0-0.438-0.197-0.438-0.438
			C62.135,78.996,62.332,78.799,62.574,78.799z M58.287,80.719c0.242,0,0.439,0.197,0.439,0.439s-0.197,0.439-0.439,0.439
			c-0.242,0-0.438-0.197-0.438-0.439S58.044,80.719,58.287,80.719z M54.273,82.543c0.244,0,0.44,0.197,0.44,0.439
			s-0.196,0.438-0.44,0.438c-0.242,0-0.439-0.196-0.439-0.438S54.031,82.543,54.273,82.543z M50.95,84.053
			c0.242,0,0.438,0.197,0.438,0.439c0,0.24-0.196,0.438-0.438,0.438c-0.242,0-0.438-0.197-0.438-0.438
			C50.512,84.25,50.708,84.053,50.95,84.053z"/>
		<g>
			
				<ellipse transform="matrix(-0.414 -0.9103 0.9103 -0.414 -53.8145 182.7778)" fill="#CAC8BE" cx="31.924" cy="108.71" rx="2.096" ry="2.01"/>
			
				<ellipse transform="matrix(-0.414 -0.9103 0.9103 -0.414 -61.7749 190.1235)" fill="#CAC8BE" cx="30.308" cy="114.945" rx="2.096" ry="2.01"/>
			
				<ellipse transform="matrix(-0.4134 -0.9105 0.9105 -0.4134 -53.5176 182.4814)" fill="#FFFFFF" cx="32.018" cy="108.479" rx="2.096" ry="2.011"/>
			
				<ellipse transform="matrix(-0.4134 -0.9106 0.9106 -0.4134 -46.9399 174.8421)" fill="#CAC8BE" cx="32.851" cy="102.542" rx="2.097" ry="2.01"/>
			
				<ellipse transform="matrix(-0.4133 -0.9106 0.9106 -0.4133 -46.6302 174.5889)" fill="#FFFFFF" cx="32.931" cy="102.317" rx="2.097" ry="2.011"/>
			
				<ellipse transform="matrix(-0.4137 -0.9104 0.9104 -0.4137 -61.3964 189.8689)" fill="#FFFFFF" cx="30.437" cy="114.703" rx="2.096" ry="2.011"/>
		</g>
		<path fill="none" stroke="#FFFFFF" stroke-width="0.2039" stroke-miterlimit="10" d="M38.302,101.021"/>
		<path fill="#CAC8BE" d="M17.884,93.621l4.789,9.711l0.233-0.105l0.74,1.215l3.129-1.27l-0.496-1.09c0,0,1.926-0.828,1.944-1.313
			c0.018-0.479-4.529-9.453-4.529-9.453s-0.329-0.414-0.913-0.146C22.197,91.438,17.884,93.621,17.884,93.621z M48.464,90.301
			c0.312,0.689,0.01,1.5-0.68,1.814l0,0c-0.688,0.313-1.5,0.008-1.812-0.684l-3.451-7.604c-0.312-0.688-0.008-1.5,0.682-1.813l0,0
			c0.688-0.313,1.498-0.008,1.811,0.687L48.464,90.301z M40.259,93.615c0.35,0.77,0.01,1.678-0.761,2.025l0,0
			c-0.771,0.352-1.679,0.01-2.028-0.771l-3.244-7.146c-0.35-0.77-0.01-1.678,0.762-2.02l0,0c0.77-0.355,1.677-0.012,2.025,0.768
			L40.259,93.615z M32.436,97.623c0.238,0.811-0.229,1.664-1.039,1.898l0,0c-0.812,0.237-1.662-0.229-1.9-1.039l-2.201-7.527
			c-0.238-0.813,0.228-1.662,1.038-1.9l0,0c0.812-0.229,1.662,0.23,1.9,1.041L32.436,97.623z M24.472,106.461
			c0,0-3.191-0.711-3.524,5.172c0,0-0.737,5.717,0.922,6.064C24.415,118.23,28.343,107.848,24.472,106.461z"/>
		<g id="trembar">
			
				<polyline fill="none" stroke="#E3E5E6" stroke-width="0.8155" stroke-linecap="round" stroke-linejoin="round" stroke-miterlimit="10" points="
				23.321,103.535 35.804,106.906 38.249,106.916 			"/>
			<path fill="#FFFFFF" d="M43.145,106.912c-0.881,0.301-1.778,0.438-2.68,0.535c-0.451,0.043-0.902,0.068-1.357,0.061
				c-0.456-0.01-0.912-0.02-1.374-0.109c-0.229-0.043-0.382-0.266-0.339-0.479c0.029-0.146,0.134-0.271,0.266-0.313
				c0.439-0.17,0.887-0.271,1.332-0.354c0.447-0.096,0.896-0.146,1.348-0.189c0.903-0.061,1.812-0.094,2.732,0.047
				c0.229,0.035,0.387,0.248,0.354,0.48C43.401,106.734,43.289,106.859,43.145,106.912z"/>
		</g>
	</g>
</g>
</svg>
