<?xml version="1.0" encoding="utf-8"?>
<!-- Generator: Adobe Illustrator 16.0.0, SVG Export Plug-In . SVG Version: 6.00 Build 0)  -->
<!DOCTYPE svg PUBLIC "-//W3C//DTD SVG 1.1//EN" "http://www.w3.org/Graphics/SVG/1.1/DTD/svg11.dtd">
<svg version="1.1" id="Layer_1" xmlns="http://www.w3.org/2000/svg" xmlns:xlink="http://www.w3.org/1999/xlink" x="0px" y="0px"
	 width="150px" height="150px" viewBox="0 0 150 150" enable-background="new 0 0 150 150" xml:space="preserve">
<g id="Head">
	<path fill="#F9D7B9" d="M98.607,120.707l-15.783-7.605l0.544-8.682l-17.619,0.51l0.272,7.408l-14.174,7.59
		c0,0-5.767,26.67,20.882,26.67C98.631,146.598,99.006,139.469,98.607,120.707z"/>
	<path fill="#E1C3A9" d="M83.061,109.453l0.387-5.033l-17.622,0.404l0.171,4.649C71.821,110.881,77.484,110.662,83.061,109.453z"/>
	<g id="Head2">
		<g>
			<path fill="#F9D7B9" d="M113.004,33.855c-0.357-2.063-0.747-4.114-1.163-6.144C108.137,9.663,90.982,3.159,75.833,3.409
				C40.261,4,33.778,33.025,33.778,33.025s-13.113,74.374,42.054,74.543c7.441,0.021,15.788-1.599,22.2-5.894
				c9.843-6.593,14.233-17.892,16.106-29.918C116.079,59.305,115.156,46.316,113.004,33.855z"/>
			<path fill="#F9D7B9" d="M115.768,53.594c-0.248-0.248-0.521-0.562-0.808-0.908c0.036,7.797-0.765,15.725-2.048,23.519
				C129.359,65.259,115.768,53.594,115.768,53.594z"/>
			<path fill="#F9D7B9" d="M34.232,53.594c0.248-0.248,0.521-0.562,0.806-0.908c-0.035,7.797,0.766,15.725,2.05,23.519
				C20.641,65.259,34.232,53.594,34.232,53.594z"/>
		</g>
	</g>
</g>
</svg>
