<?xml version="1.0" encoding="utf-8"?>
<!-- Generator: Adobe Illustrator 14.0.0, SVG Export Plug-In . SVG Version: 6.00 Build 43363)  -->
<!DOCTYPE svg PUBLIC "-//W3C//DTD SVG 1.1//EN" "http://www.w3.org/Graphics/SVG/1.1/DTD/svg11.dtd">
<svg version="1.1" id="Layer_1" xmlns="http://www.w3.org/2000/svg" xmlns:xlink="http://www.w3.org/1999/xlink" x="0px" y="0px"
	 width="150px" height="150px" viewBox="0 0 150 150" enable-background="new 0 0 150 150" xml:space="preserve">
<g id="ukb1">
	<path fill="#9A9DA5" d="M139.805,80.518c-0.402,0-0.757-0.218-0.821-0.524l-7.231-33.085c-0.075-0.339,0.234-0.66,0.685-0.723
		c0.455-0.054,0.887,0.171,0.961,0.512l7.229,33.09c0.075,0.337-0.233,0.66-0.683,0.716
		C139.895,80.515,139.848,80.518,139.805,80.518z M14.475,113.646c-0.044,0-0.088-0.001-0.133-0.005
		c-0.687-0.054-1.185-0.514-1.112-1.029l4.488-31.981c0.071-0.514,0.684-0.884,1.374-0.834c0.688,0.055,1.185,0.516,1.113,1.029
		l-4.489,31.982C15.649,113.289,15.106,113.646,14.475,113.646z M81.913,115.751c-0.618,0-1.154-0.343-1.238-0.814l-5.497-31.221
		c-0.088-0.513,0.397-0.981,1.073-1.05c0.686-0.067,1.314,0.293,1.401,0.806l5.496,31.221c0.09,0.513-0.391,0.982-1.071,1.05
		C82.023,115.748,81.969,115.751,81.913,115.751z"/>
	<polygon fill="#415462" points="135.222,41.499 135.869,48.338 79.089,84.975 64.795,80.111 68.157,66.22 	"/>
	<polygon fill="#7B808B" points="12.716,74.202 14.15,80.664 79.089,84.975 77.663,78.557 68.157,66.22 	"/>
	<polygon fill="#4E6879" points="13.379,73.98 91.023,40.682 134.989,41.469 77.318,78.396 	"/>
	<polygon fill="#4E6879" points="13.7,73.968 91.33,40.681 135.276,41.467 77.597,78.384 	"/>
	<g>
		<g>
			<polygon fill="#FFFFFF" points="78.652,45.71 81.177,44.633 109.887,45.308 107.775,46.438 			"/>
			<path fill="#B3BABF" d="M107.775,46.61c-0.002,0-0.004,0-0.007,0l-29.123-0.728c-0.104-0.002-0.191-0.055-0.216-0.129
				c-0.022-0.075,0.017-0.153,0.11-0.191l2.521-1.077c0.037-0.017,0.082-0.02,0.124-0.022l28.707,0.674
				c0.099,0.002,0.183,0.051,0.212,0.121c0.028,0.07-0.005,0.144-0.085,0.189l-2.11,1.131
				C107.87,46.598,107.825,46.61,107.775,46.61z M79.47,45.56l28.235,0.705l1.495-0.801l-27.968-0.658L79.47,45.56z"/>
		</g>
		<g>
			<polygon fill="#FFFFFF" points="76.077,46.812 78.689,45.697 107.809,46.423 105.619,47.593 			"/>
			<path fill="#B3BABF" d="M105.619,47.765c-0.001,0-0.003,0-0.009,0l-29.542-0.782c-0.102-0.002-0.193-0.056-0.212-0.131
				c-0.027-0.074,0.016-0.151,0.106-0.189l2.614-1.114c0.036-0.016,0.084-0.021,0.121-0.022l29.118,0.725
				c0.098,0.002,0.184,0.052,0.212,0.118c0.029,0.068-0.007,0.144-0.086,0.189l-2.188,1.17
				C105.715,47.754,105.669,47.765,105.619,47.765z M76.891,46.662l28.659,0.757l1.576-0.842l-28.38-0.708L76.891,46.662z"/>
		</g>
		<g>
			<polygon fill="#FFFFFF" points="73.326,47.988 76.029,46.832 105.58,47.617 103.316,48.829 			"/>
			<path fill="#B3BABF" d="M103.316,49.001c-0.003,0-0.007,0-0.009,0l-29.99-0.842c-0.103-0.003-0.189-0.056-0.213-0.131
				c-0.025-0.074,0.019-0.151,0.108-0.189l2.703-1.156c0.038-0.017,0.086-0.024,0.123-0.022l29.56,0.785
				c0.09,0.002,0.185,0.052,0.21,0.122c0.021,0.065-0.007,0.145-0.087,0.188l-2.268,1.213
				C103.411,48.99,103.364,49.001,103.316,49.001z M74.137,47.839l29.109,0.817l1.653-0.886l-28.813-0.766L74.137,47.839z"/>
		</g>
		<g>
			<polygon fill="#FFFFFF" points="70.562,49.166 73.365,47.969 103.345,48.815 100.996,50.076 			"/>
			<path fill="#B3BABF" d="M100.996,50.247c-0.005,0-0.008,0-0.01,0l-30.435-0.908c-0.103-0.005-0.193-0.059-0.213-0.13
				c-0.025-0.075,0.017-0.151,0.108-0.192l2.792-1.197c0.049-0.015,0.088-0.022,0.123-0.021l29.981,0.845
				c0.096,0.002,0.193,0.051,0.211,0.121c0.028,0.068-0.007,0.146-0.087,0.189l-2.351,1.26
				C101.09,50.236,101.045,50.247,100.996,50.247z M71.369,49.018l29.557,0.884l1.744-0.936l-29.247-0.825L71.369,49.018z"/>
		</g>
		
			<polygon fill="#FFFFFF" stroke="#B3BABF" stroke-width="0.5432" stroke-linecap="round" stroke-linejoin="round" stroke-miterlimit="10" points="
			54.79,55.9 58.174,54.457 90.556,55.677 87.693,57.215 		"/>
		
			<polygon fill="#FFFFFF" stroke="#B3BABF" stroke-width="0.5432" stroke-linecap="round" stroke-linejoin="round" stroke-miterlimit="10" points="
			51.318,57.385 54.838,55.88 87.734,57.193 84.746,58.795 		"/>
		
			<polygon fill="#FFFFFF" stroke="#B3BABF" stroke-width="0.5432" stroke-linecap="round" stroke-linejoin="round" stroke-miterlimit="10" points="
			47.583,58.979 51.252,57.413 84.691,58.825 81.577,60.499 		"/>
		
			<polygon fill="#FFFFFF" stroke="#B3BABF" stroke-width="0.5432" stroke-linecap="round" stroke-linejoin="round" stroke-miterlimit="10" points="
			43.811,60.59 47.635,58.956 81.62,60.472 78.367,62.22 		"/>
		<g>
			<polygon fill="#FFFFFF" points="67.674,50.432 70.579,49.192 101.025,50.103 98.584,51.414 			"/>
			<path fill="#B3BABF" d="M98.584,51.585c-0.003,0-0.006,0-0.01,0l-30.91-0.982c-0.102-0.003-0.188-0.057-0.213-0.131
				c-0.023-0.074,0.021-0.151,0.108-0.19l2.905-1.24c0.036-0.016,0.079-0.023,0.122-0.022l30.448,0.912
				c0.099,0.003,0.184,0.051,0.211,0.118c0.027,0.066-0.008,0.144-0.087,0.189l-2.442,1.31
				C98.68,51.575,98.632,51.585,98.584,51.585z M68.479,50.286l30.037,0.955l1.834-0.986l-29.714-0.881L68.479,50.286z"/>
		</g>
		<g>
			<polygon fill="#FFFFFF" points="64.702,51.701 67.715,50.413 98.622,51.394 96.083,52.757 			"/>
			<path fill="#B3BABF" d="M96.083,52.929c-0.004,0-0.009,0-0.01,0l-31.381-1.056c-0.104-0.004-0.19-0.057-0.214-0.131
				c-0.023-0.074,0.021-0.152,0.109-0.19l3.013-1.288c0.037-0.016,0.08-0.025,0.124-0.022l30.907,0.981
				c0.098,0.002,0.182,0.052,0.211,0.122c0.026,0.07-0.008,0.146-0.087,0.189l-2.548,1.362
				C96.178,52.918,96.129,52.929,96.083,52.929z M65.501,51.556l30.511,1.027l1.935-1.038L67.77,50.587L65.501,51.556z"/>
		</g>
		<g>
			<polygon fill="#FFFFFF" points="61.513,53.063 64.645,51.726 96.031,52.783 93.394,54.199 			"/>
			<path fill="#B3BABF" d="M93.394,54.37c-0.002,0-0.007,0-0.01,0l-31.881-1.135c-0.102-0.003-0.189-0.057-0.212-0.131
				s0.021-0.151,0.109-0.189l3.13-1.337c0.038-0.016,0.081-0.023,0.124-0.022l31.389,1.058c0.098,0.002,0.182,0.051,0.21,0.122
				c0.026,0.07-0.007,0.146-0.088,0.188l-2.638,1.416C93.488,54.359,93.441,54.37,93.394,54.37z M62.311,52.92l31.014,1.104
				l2.037-1.092L64.7,51.899L62.311,52.92z"/>
		</g>
		<g>
			<polygon fill="#FFFFFF" points="58.307,54.432 61.561,53.044 93.433,54.179 90.686,55.653 			"/>
			<path fill="#B3BABF" d="M90.686,55.825c-0.005,0-0.008,0-0.019,0L58.29,54.601c-0.103-0.003-0.188-0.057-0.211-0.131
				c-0.024-0.075,0.021-0.15,0.109-0.188l3.254-1.388c0.037-0.014,0.083-0.024,0.123-0.021l31.874,1.135
				c0.093,0.003,0.181,0.053,0.208,0.121c0.022,0.068-0.011,0.145-0.089,0.188l-2.747,1.475
				C90.781,55.814,90.734,55.825,90.686,55.825z M59.104,54.29l31.512,1.189l2.147-1.151l-31.146-1.109L59.104,54.29z"/>
		</g>
		<g>
			<polygon fill="#FFFFFF" points="54.79,55.9 58.174,54.457 90.556,55.677 87.693,57.215 			"/>
			<path fill="#B3BABF" d="M87.693,57.386c-0.003,0-0.008,0-0.012,0l-32.904-1.313c-0.101-0.005-0.187-0.058-0.211-0.132
				c-0.023-0.074,0.021-0.151,0.109-0.188l3.383-1.444c0.038-0.017,0.081-0.024,0.125-0.022l32.381,1.222
				c0.099,0.003,0.182,0.053,0.21,0.123c0.027,0.069-0.009,0.145-0.089,0.187l-2.862,1.538
				C87.789,57.375,87.74,57.386,87.693,57.386z M55.581,55.761l32.043,1.279l2.267-1.216l-31.662-1.197L55.581,55.761z"/>
		</g>
		<g>
			<polygon fill="#FFFFFF" points="51.318,57.385 54.838,55.88 87.734,57.193 84.746,58.795 			"/>
			<path fill="#B3BABF" d="M84.746,58.966c-0.005,0-0.018,0-0.018,0L51.3,57.557c-0.1-0.005-0.186-0.059-0.209-0.132
				c-0.023-0.074,0.021-0.15,0.109-0.188l3.521-1.505c0.038-0.017,0.082-0.021,0.125-0.022l32.895,1.313
				c0.095,0.004,0.182,0.054,0.205,0.123c0.027,0.069-0.009,0.144-0.089,0.188l-2.985,1.602
				C84.84,58.956,84.795,58.966,84.746,58.966z M52.104,57.246L84.68,58.62l2.391-1.282l-32.177-1.285L52.104,57.246z"/>
		</g>
		<g>
			<polygon fill="#FFFFFF" points="47.583,58.979 51.252,57.413 84.691,58.825 81.577,60.499 			"/>
			<path fill="#B3BABF" d="M81.577,60.67c-0.008,0-0.01,0-0.016,0l-33.993-1.52c-0.102-0.005-0.186-0.06-0.209-0.133
				c-0.025-0.074,0.022-0.15,0.108-0.188l3.669-1.566c0.04-0.017,0.083-0.024,0.126-0.021l33.439,1.411
				c0.097,0.005,0.18,0.054,0.207,0.124c0.027,0.07-0.008,0.144-0.087,0.187l-3.113,1.674C81.671,60.659,81.623,60.67,81.577,60.67z
				 M48.365,58.842l33.143,1.481l2.512-1.354L51.3,57.588L48.365,58.842z"/>
		</g>
		<g>
			<polygon fill="#FFFFFF" points="43.811,60.59 47.635,58.956 81.62,60.472 78.367,62.22 			"/>
			<path fill="#B3BABF" d="M78.367,62.392c-0.006,0-0.012,0-0.014,0l-34.566-1.631c-0.102-0.005-0.186-0.059-0.209-0.132
				c-0.022-0.074,0.022-0.15,0.11-0.188l3.825-1.634c0.038-0.017,0.084-0.021,0.127-0.022l33.983,1.517
				c0.092,0.005,0.186,0.055,0.203,0.123c0.023,0.065-0.01,0.145-0.087,0.188l-3.251,1.748
				C78.463,62.381,78.416,62.392,78.367,62.392z M44.59,60.454l33.71,1.591l2.663-1.432l-33.273-1.485L44.59,60.454z"/>
		</g>
		
			<polygon fill="#FFFFFF" stroke="#B3BABF" stroke-width="0.5432" stroke-linecap="round" stroke-linejoin="round" stroke-miterlimit="10" points="
			21.843,69.972 26.623,67.929 63.657,70.111 59.546,72.321 		"/>
		<g>
			<polygon fill="#FFFFFF" points="39.824,62.328 43.817,60.624 78.391,62.256 74.986,64.083 			"/>
			<path fill="#B3BABF" d="M74.986,64.254c-0.005,0-0.011,0-0.019-0.001l-35.161-1.754c-0.1-0.005-0.185-0.059-0.208-0.133
				c-0.023-0.073,0.023-0.149,0.11-0.187l3.992-1.704c0.04-0.016,0.083-0.023,0.129-0.021l34.574,1.632
				c0.095,0.013,0.179,0.054,0.205,0.123c0.025,0.07-0.01,0.145-0.088,0.187l-3.404,1.828
				C75.082,64.244,75.034,64.254,74.986,64.254z M40.599,62.194l34.32,1.714l2.816-1.513l-33.864-1.597L40.599,62.194z"/>
		</g>
		<g>
			<polygon fill="#FFFFFF" points="35.718,64.082 39.886,62.304 75.038,64.057 71.48,65.968 			"/>
			<path fill="#B3BABF" d="M71.48,66.139c-0.007,0-0.01,0-0.018-0.001l-35.761-1.885c-0.102-0.005-0.186-0.06-0.208-0.132
				c-0.022-0.074,0.021-0.149,0.109-0.188l4.167-1.777c0.039-0.018,0.086-0.022,0.128-0.022l35.151,1.753
				c0.086,0.005,0.18,0.055,0.205,0.124c0.017,0.069-0.018,0.145-0.087,0.186l-3.559,1.911
				C71.574,66.128,71.527,66.139,71.48,66.139z M36.488,63.95l34.925,1.843l2.973-1.597l-34.446-1.718L36.488,63.95z"/>
		</g>
		<g>
			<polygon fill="#FFFFFF" points="31.284,65.977 35.64,64.116 71.41,66.002 67.678,68.009 			"/>
			<path fill="#B3BABF" d="M67.678,68.18c-0.004,0-0.011,0-0.016-0.001l-36.396-2.031c-0.101-0.006-0.184-0.06-0.206-0.133
				c-0.022-0.074,0.023-0.149,0.11-0.187l4.356-1.861c0.039-0.016,0.083-0.026,0.129-0.021l35.77,1.885
				c0.097,0.006,0.179,0.054,0.203,0.124c0.028,0.069-0.007,0.144-0.087,0.186l-3.723,2.006
				C67.774,68.168,67.727,68.18,67.678,68.18z M32.049,65.848l35.564,1.984l3.149-1.693l-35.068-1.85L32.049,65.848z"/>
		</g>
		<g>
			<polyline fill="#FFFFFF" points="31.346,65.951 67.733,67.978 63.822,70.078 26.79,67.898 			"/>
			<path fill="#B3BABF" d="M63.822,70.25c-0.006,0-0.013,0-0.019,0l-37.031-2.18c-0.1-0.006-0.182-0.061-0.205-0.133
				c-0.022-0.074,0.023-0.149,0.11-0.187l4.554-1.948c0.04-0.016,0.087-0.028,0.131-0.021l36.388,2.027
				c0.096,0.006,0.176,0.055,0.203,0.125c0.026,0.068-0.008,0.143-0.086,0.185l-3.913,2.102C63.916,70.239,63.87,70.25,63.822,70.25
				z M27.549,67.771l36.206,2.131l3.333-1.79l-35.689-1.987L27.549,67.771z"/>
		</g>
		<g>
			<polygon fill="#FFFFFF" points="21.843,69.972 26.623,67.929 63.657,70.111 59.546,72.321 			"/>
			<path fill="#B3BABF" d="M59.546,72.492c-0.006,0-0.014,0-0.019,0l-37.704-2.35c-0.1-0.007-0.183-0.062-0.205-0.134
				s0.022-0.148,0.11-0.186l4.779-2.042c0.04-0.017,0.087-0.026,0.132-0.021l37.036,2.181c0.095,0.007,0.176,0.056,0.202,0.125
				c0.026,0.069-0.009,0.144-0.088,0.186l-4.112,2.209C59.64,72.481,59.594,72.492,59.546,72.492z M22.597,69.846l36.884,2.299
				l3.535-1.899l-36.342-2.142L22.597,69.846z"/>
		</g>
	</g>
	<path fill="#4E6879" d="M87.567,46.292l1.504-0.69l19.214,0.471l-1.327,0.711L87.567,46.292z M85.104,47.418l1.561-0.714
		l19.494,0.507l-1.377,0.739L85.104,47.418z M79.67,49.91l1.68-0.768l20.102,0.588l-1.488,0.8L79.67,49.91z M76.921,51.169
		l1.743-0.798l20.408,0.637l-1.543,0.828L76.921,51.169z M74.124,52.451l1.805-0.828l20.72,0.684l-1.607,0.862L74.124,52.451z
		 M68.032,55.243l1.953-0.895l21.377,0.792l-1.736,0.933L68.032,55.243z M64.832,56.709l2.031-0.929l21.72,0.849l-1.812,0.97
		L64.832,56.709z M57.702,59.976l2.212-1.013l22.469,0.987l-1.975,1.057L57.702,59.976z M54.071,61.64l2.305-1.056l22.846,1.059
		l-2.062,1.105L54.071,61.64z M50.352,63.345l2.405-1.104l23.226,1.144l-2.152,1.147L50.352,63.345z M41.788,67.269l2.639-1.21
		l24.088,1.321l-2.373,1.272L41.788,67.269z M37.435,69.263l2.763-1.265l24.515,1.42l-2.487,1.327L37.435,69.263z"/>
	<g>
		<polygon fill="#4E6879" points="102.98,42.615 104.118,42.063 104.027,42.061 102.871,42.613 		"/>
		<polygon fill="#4E6879" points="103.968,43.981 103.971,43.981 104.063,43.936 		"/>
		<polygon fill="#4E6879" points="103.694,43.975 103.968,43.981 104.063,43.936 105.15,43.391 104.817,43.385 103.667,43.94 		"/>
		<g>
			<path fill="#DCDCE0" d="M104.021,41.878l-6.59-0.101h-0.032l-1.843,0.845l12.66,0.255l0.034,0l1.704-0.858L104.021,41.878z
				 M106.914,42.694l1.105-0.556l1.267,0.024l-1.103,0.558L106.914,42.694z M105.127,42.658l1.124-0.555l1.411,0.027l-1.106,0.557
				L105.127,42.658z M103.345,42.623l1.141-0.553l1.398,0.027l-1.122,0.555L103.345,42.623z M102.871,42.613l1.154-0.552
				l0.086,0.002l-1.14,0.553L102.871,42.613z M101.576,42.587l1.15-0.552l0.928,0.018l-1.104,0.529l0.017,0.025L101.576,42.587z
				 M99.813,42.55l1.163-0.549l1.389,0.027l-1.147,0.551L99.813,42.55z M98.058,42.516l1.178-0.547l1.367,0.026l-1.163,0.55
				L98.058,42.516z M96.264,42.48l1.19-0.546l1.402,0.027l-1.176,0.546L96.264,42.48z"/>
			<path fill="#DCDCE0" d="M94.694,43.017l-1.904,0.875l12.873,0.284h0.034l1.749-0.893l-12.73-0.265L94.694,43.017z M97.959,43.242
				l-1.229,0.581l-1.414-0.031l1.246-0.579L97.959,43.242z M99.744,43.279l-1.21,0.583L97.11,43.83l1.229-0.581L99.744,43.279z
				 M101.537,43.316l-1.201,0.585l-1.438-0.031l1.211-0.583L101.537,43.316z M103.34,43.354l-1.189,0.586l-1.449-0.031l1.202-0.586
				L103.34,43.354z M104.817,43.385l0.333,0.006l-1.088,0.544l-0.092,0.045h-0.003l-0.273-0.006l-1.18-0.026l1.188-0.588
				L104.817,43.385z M106.803,43.426l-1.161,0.591l-1.312-0.028l1.18-0.59L106.803,43.426z M94.935,43.782l-1.439-0.031l1.255-0.576
				l1.423,0.029L94.935,43.782z"/>
		</g>
	</g>
	<path fill="#E4DFD8" d="M117.164,50.193c-0.868-0.027-1.244-0.248-0.844-0.49c0.404-0.242,1.425-0.409,2.278-0.395
		c0.866,0.023,1.25,0.249,0.861,0.487C119.065,50.039,118.039,50.219,117.164,50.193z M112.501,50.055
		c-0.86-0.027-1.217-0.244-0.8-0.486c0.412-0.241,1.436-0.414,2.287-0.392c0.854,0.026,1.219,0.239,0.815,0.481
		C114.395,49.9,113.362,50.079,112.501,50.055z M107.256,49.9c-0.849-0.024-1.176-0.241-0.751-0.481
		c0.43-0.238,1.458-0.411,2.294-0.387c0.843,0.024,1.187,0.235,0.767,0.476C109.143,49.749,108.106,49.926,107.256,49.9z
		 M114.335,51.936c-0.891-0.029-1.265-0.261-0.842-0.518c0.42-0.253,1.47-0.438,2.349-0.41c0.883,0.026,1.271,0.254,0.857,0.512
		C116.288,51.776,115.225,51.964,114.335,51.936z M109.57,51.785c-0.879-0.027-1.232-0.257-0.794-0.515
		c0.438-0.251,1.493-0.434,2.354-0.405c0.872,0.024,1.247,0.252,0.825,0.505C111.514,51.626,110.449,51.813,109.57,51.785z
		 M104.211,51.617c-0.866-0.029-1.198-0.258-0.743-0.51c0.439-0.249,1.509-0.432,2.361-0.405c0.859,0.026,1.206,0.25,0.764,0.501
		C106.146,51.457,105.079,51.642,104.211,51.617z M111.353,53.772c-0.906-0.031-1.28-0.276-0.836-0.546
		c0.442-0.271,1.528-0.46,2.425-0.433c0.904,0.03,1.283,0.271,0.852,0.542C113.36,53.608,112.267,53.805,111.353,53.772z
		 M106.484,53.604c-0.896-0.032-1.246-0.274-0.789-0.542c0.458-0.266,1.544-0.457,2.433-0.428c0.889,0.031,1.252,0.268,0.804,0.536
		C108.479,53.44,107.383,53.637,106.484,53.604z M101.009,53.418c-0.883-0.032-1.211-0.272-0.731-0.539
		c0.474-0.262,1.563-0.451,2.44-0.423c0.88,0.028,1.219,0.265,0.755,0.529C103,53.254,101.895,53.448,101.009,53.418z
		 M108.213,55.706c-0.933-0.035-1.299-0.293-0.827-0.577c0.465-0.285,1.582-0.486,2.502-0.453c0.921,0.031,1.304,0.288,0.849,0.573
		C110.279,55.535,109.145,55.741,108.213,55.706z M103.233,55.522c-0.921-0.034-1.265-0.291-0.781-0.573
		c0.481-0.281,1.599-0.479,2.511-0.448c0.913,0.031,1.271,0.285,0.798,0.567C105.287,55.352,104.152,55.556,103.233,55.522z
		 M97.636,55.318c-0.903-0.036-1.225-0.291-0.72-0.57c0.5-0.276,1.633-0.475,2.521-0.443c0.895,0.039,1.229,0.282,0.743,0.565
		C99.681,55.146,98.545,55.352,97.636,55.318z M104.897,57.749c-0.949-0.039-1.315-0.314-0.824-0.615
		c0.495-0.303,1.654-0.513,2.592-0.474c0.941,0.037,1.316,0.302,0.84,0.608C107.021,57.571,105.853,57.787,104.897,57.749z
		 M99.801,57.547c-0.938-0.038-1.281-0.311-0.766-0.61c0.509-0.296,1.669-0.506,2.596-0.469c0.93,0.035,1.282,0.303,0.789,0.602
		C101.918,57.369,100.744,57.584,99.801,57.547z M94.079,57.318c-0.927-0.037-1.241-0.305-0.708-0.601
		c0.528-0.294,1.691-0.501,2.603-0.466c0.919,0.039,1.247,0.303,0.731,0.597C96.188,57.145,95.005,57.355,94.079,57.318z"/>
	<path fill="#013346" d="M117.977,42.854l0.525-0.291l11.176,0.22l-0.477,0.302L117.977,42.854z M116.379,43.74l0.538-0.298
		l11.318,0.236l-0.495,0.302L116.379,43.74z M114.392,44.84l0.559-0.309l11.491,0.254l-0.508,0.314L114.392,44.84z M112.681,45.788
		l0.58-0.321l11.638,0.275l-0.525,0.325L112.681,45.788z M86.402,60.341l0.868-0.479l13.85,0.602l-0.796,0.491L86.402,60.341z
		 M83.733,61.816l0.903-0.495l14.063,0.644l-0.824,0.513L83.733,61.816z M80.399,63.663l0.942-0.52l14.334,0.69l-0.867,0.537
		L80.399,63.663z M77.504,65.269l0.977-0.542l14.56,0.735l-0.896,0.559L77.504,65.269z"/>
	<path fill="#E4DFD8" d="M125.33,43.276l1.476-0.88l1.284,0.026l-1.456,0.881L125.33,43.276z M120.589,44.048l1.555-0.897
		l1.291,0.027l-1.541,0.9L120.589,44.048z M121.933,45.307l1.573-0.94l1.321,0.029l-1.555,0.94L121.933,45.307z M116.998,46.125
		l1.662-0.96l1.325,0.031l-1.643,0.963L116.998,46.125z M95.318,61.213l2.453-1.466l1.589,0.068l-2.423,1.469L95.318,61.213z
		 M88.8,62.438l2.605-1.508l1.597,0.072l-2.581,1.511L88.8,62.438z M89.589,64.638l2.664-1.593l1.649,0.078l-2.639,1.596
		L89.589,64.638z M82.709,65.96l2.828-1.639l1.661,0.081l-2.806,1.643L82.709,65.96z"/>
</g>
</svg>
