<?xml version="1.0" encoding="utf-8"?>
<!-- Generator: Adobe Illustrator 14.0.0, SVG Export Plug-In . SVG Version: 6.00 Build 43363)  -->
<!DOCTYPE svg PUBLIC "-//W3C//DTD SVG 1.1//EN" "http://www.w3.org/Graphics/SVG/1.1/DTD/svg11.dtd">
<svg version="1.1" id="Layer_1" xmlns="http://www.w3.org/2000/svg" xmlns:xlink="http://www.w3.org/1999/xlink" x="0px" y="0px"
	 width="150px" height="150px" viewBox="0 0 150 150" enable-background="new 0 0 150 150" xml:space="preserve">
<g id="ukb2">
	<path fill="#5E5D57" d="M32.218,70.309l26.312-4.538l72.705,1.749c0,0,2.358-0.158,3.445,1.103l-0.726,21.396l-86.313,3.131
		L32.218,70.309z"/>
	<path fill="#35373B" d="M134.842,68.577c-1.089-1.26-3.606-1.057-3.606-1.057L59.364,65.8c0.609,6.25,0.444,20.826-0.064,27.08
		l74.657-2.861L134.842,68.577z"/>
	<path fill="#585B65" d="M59.364,65.799l-0.835-0.029l-26.312,4.538l15.426,22.841l11.656-0.271
		C59.808,86.626,59.974,72.049,59.364,65.799z"/>
	<path fill="#383B40" d="M68.322,66.302l-15.77-33.411c0,0,23.042,0.69,23.253,0.696c0.837,0.022,3.338,5.257,3.856,6.142
		c4.237,7.21,12.015,7.215,20.361,7.59c9.41,0.424,30.024,3.078,33.433,12.212c1.265,3.387-1.283,5.996-4.192,8.162L68.322,66.302z"
		/>
	<path fill="#9C9994" d="M59.451,36.819l2.004,35.535c0.026,0.446-0.371,0.827-0.886,0.849c-0.514,0.021-0.951-0.323-0.978-0.769
		c0-0.004,0-0.013,0-0.018l-1.108-35.564c-0.007-0.232,0.204-0.425,0.471-0.432C59.219,36.414,59.439,36.591,59.451,36.819z"/>
	<polygon fill="#4D4F55" points="118.193,90.141 120.735,119.902 123.437,120.386 126.176,119.432 129.623,89.983 	"/>
	<path fill="#404247" d="M117.824,85.701l0.819,9.531c3.007,0.699,7.346,0.421,10.408-0.577l1.135-9.082L117.824,85.701z"/>
	<polygon fill="#4D4F55" points="55.024,84.211 57.08,114.055 59.142,114.326 61.485,113.582 64.275,84.053 	"/>
	<path fill="#404247" d="M62.958,97.458l1.316-13.402l-9.25,0.13l0.982,13.735C58.138,98.383,60.883,98.166,62.958,97.458z"/>
	<path fill="#4D4F55" d="M27.337,70.097l-0.362,14.465c0,0-0.002,3.781-2.721,3.938l-4.174,0.316c0,0-2.9,0-1.993,5.354
		l40.997,2.518c0,0,19.047-4.566,39.183-3.149c18.156,1.278,30.984,0.491,36.059-2.501l0.513-22.461c0,0-11.762,3.111-20.828,2.009
		c0,0-26.993-0.962-54.93,1.085C57.995,71.515,27.337,70.097,27.337,70.097z"/>
	<path fill="#6B6D75" d="M134.331,91.038l0.515-22.461c0,0-9.767,2.387-20.829,2.009c0,0-0.479-0.016-1.362-0.042
		c0.977,7.756,0.604,15.708,0.758,23.581C123.563,94.124,130.812,93.111,134.331,91.038z"/>
	<polygon fill="#4D4F55" points="36.396,95.196 38.936,119.819 41.597,120.44 44.299,119.868 47.824,95.041 	"/>
	<path fill="#404247" d="M47.389,97.955l0.435-2.915l-11.428,0.156l0.259,2.389C40.234,99.144,43.813,98.498,47.389,97.955z"/>
	<g>
		<path fill="#6B6D75" d="M26.181,70.021l-0.391,14.523c0,0-0.001,3.78-2.722,3.937l-4.171,0.315c0,0-2.901,0-1.996,5.354
			c0,0,41.945,2.617,42.182,2.538l0.071-25.046C59.033,71.662,26.181,70.021,26.181,70.021z"/>
	</g>
	<path fill="#383B40" d="M41.574,68.801l0.85-6.911c0,0,9.523-6.545,14.067-0.976L54.815,66.5L41.574,68.801z"/>
</g>
</svg>
