<?xml version="1.0" encoding="utf-8"?>
<!-- Generator: Adobe Illustrator 16.0.0, SVG Export Plug-In . SVG Version: 6.00 Build 0)  -->
<!DOCTYPE svg PUBLIC "-//W3C//DTD SVG 1.1//EN" "http://www.w3.org/Graphics/SVG/1.1/DTD/svg11.dtd">
<svg version="1.1" id="Layer_1" xmlns="http://www.w3.org/2000/svg" xmlns:xlink="http://www.w3.org/1999/xlink" x="0px" y="0px"
	 width="150px" height="150px" viewBox="0 0 150 150" enable-background="new 0 0 150 150" xml:space="preserve">
<g id="eyebrows1" display="none">
	<g id="eb1" display="inline">
		
			<path id="StrokeEyebrowColorBase_3_" fill="none" stroke="#816951" stroke-width="5.0953" stroke-linecap="round" stroke-linejoin="round" stroke-miterlimit="10" d="
			M48.009,76.35c0,0-18.577-9.966-31.873,1.383"/>
		
			<path id="StrokeEyebrowColorBase_2_" fill="none" stroke="#816951" stroke-width="5.0953" stroke-linecap="round" stroke-linejoin="round" stroke-miterlimit="10" d="
			M101.966,76.757c0,0,18.308-10.45,31.898,0.539"/>
	</g>
</g>
<g id="Pants">
	<g id="flo1_1_">
		<path id="fillClothesLowerColorBase" fill="#535763" d="M99.386,136.082c1.153-18.73,6.062-70.519,6.062-70.519
			s5.477-46.204-4.631-62.752L57.709,2.675c0,0-7.179,4.71-8.12,61.437c0,0-2.545,50.908-4.045,72.283
			c5.309,2.48,12.251,2.307,16.694-0.727L74.472,45.01l7.005-0.224l2.132,91.439C88.662,138.822,94.656,138.336,99.386,136.082z"/>
		<path id="fillClothesLowerColorShade_1_" fill="#484B56" d="M103.865,10.243c-0.547-1.349-1.75-6.887-2.425-7.998L56.854,2.002
			c0,0-1.042,4.734-2.262,8.077C71.637,15.494,88.92,15.331,103.865,10.243z"/>
	</g>
	<g id="mlo4" display="none">
		<path id="fillClothesLowerColorBase_1_" display="inline" fill="#54667B" d="M107.424,15.438
			c-0.303-7.404-0.705-12.145-0.705-13.633c-0.838,0.036-15.44,2.702-26.918,1.84c-0.032-0.003-0.072-0.006-0.108-0.009
			c-0.03,0-0.069-0.005-0.103-0.005c-11.955-0.662-25.309-1.367-26.292-1.53c-0.6,1.055-0.605,2.865-2.219,10.573
			c-0.825,7.197-1.916,14.22-2.218,21.92c0.008,0.02,0.025,0.037,0.035,0.057c-2.318,34.571-6.56,107.076-6.563,107.076
			c3.709,4.932,16.639,3.916,16.639,3.916c4.913-21.697,12.99-82.385,17.602-103.535c1.084,0.122,2.145,0.186,3.239,0.109
			c0.334-0.022,0.665-0.047,0.994-0.077c6.869,33.54,2.808,103.349,2.808,103.353c4.424,4.332,16.953,2.158,16.953,2.158
			c4.319-24.953,7.221-99.92,6.887-113.113c0.025-0.047,0.058-0.091,0.076-0.138C107.727,27.09,107.727,21.855,107.424,15.438z"/>
		<path id="fillClothesLowerColorShade" display="inline" fill="#4D5E71" d="M107.49,23.913c-0.01-3.138,0.09-5.153-0.066-8.475
			c-0.303-7.404-0.704-12.145-0.704-13.633c-0.837,0.036-15.44,2.702-26.918,1.84l0,0c-0.032-0.003-0.072-0.006-0.108-0.009
			c-0.029,0-0.07-0.005-0.104-0.005l0,0c-11.955-0.662-25.309-1.367-26.292-1.53c-0.6,1.055-0.605,2.865-2.219,10.573
			c-0.382,3.317-0.816,6.606-1.205,9.935C67.327,31.355,85.391,31.542,107.49,23.913z M107.49,23.913
			c-0.01-3.138,0.09-5.153-0.066-8.475c-0.303-7.404-0.704-12.145-0.704-13.633c-0.837,0.036-15.44,2.702-26.918,1.84l0,0
			c-0.032-0.003-0.072-0.006-0.108-0.009c-0.029,0-0.07-0.005-0.104-0.005l0,0c-11.955-0.662-25.309-1.367-26.292-1.53
			c-0.6,1.055-0.605,2.865-2.219,10.573c-0.382,3.317-0.816,6.606-1.205,9.935C67.327,31.355,85.391,31.542,107.49,23.913z
			 M93.31,94.111c-10.597-4.613-7.923-16.653-9.532-27.151c2.432,30.674-0.585,78.532-0.585,78.532
			c4.423,4.332,16.953,2.152,16.953,2.152c1.714-9.885,4.269-38.701,5.19-54.959C101.981,95.344,98.023,96.215,93.31,94.111z
			 M51.33,91.248c-1.886-0.924-3.696-2.121-5.419-3.539c-1.225,23.949-3.577,54.018-3.577,54.018
			c3.708,4.932,16.639,3.916,16.639,3.916c3.45-15.246,9.325-57.205,13.189-80.119C69.394,79.439,62.453,96.094,51.33,91.248z"/>
	</g>
</g>
</svg>
