<?xml version="1.0" encoding="utf-8"?>
<!-- Generator: Adobe Illustrator 14.0.0, SVG Export Plug-In . SVG Version: 6.00 Build 43363)  -->
<!DOCTYPE svg PUBLIC "-//W3C//DTD SVG 1.1//EN" "http://www.w3.org/Graphics/SVG/1.1/DTD/svg11.dtd">
<svg version="1.1" id="Layer_1" xmlns="http://www.w3.org/2000/svg" xmlns:xlink="http://www.w3.org/1999/xlink" x="0px" y="0px"
	 width="150px" height="150px" viewBox="0 0 150 150" enable-background="new 0 0 150 150" xml:space="preserve">
<g id="Shoes" display="none">
	<g id="fsh1" display="inline">
		<path fill="#915944" d="M37.37,94.391c5.184-4.423,17.808-18.535,17.808-18.535c0.865-0.763,1.721-1.496,2.575-2.224
			c19.829,3.836,43.435-14.431,56.204-30.312c0.463-0.07,0.708-0.095,0.708-0.095c6.007,8.954-0.532,53.55-0.532,53.55l-8.923,0.058
			l-3.04-16.697c-15.5,21.7-47.001,26.664-60.181,26.64C28.82,106.744,32.203,98.805,37.37,94.391z"/>
	</g>
	<g id="fsh2" display="inline">
		<g>
			<path fill="#535763" d="M29.622,73.078c4.688-3.625,10.724-4.043,16.202-5.745c3.941-1.237,7.871-2.483,11.803-3.766
				l11.059-1.205c16.5,7.771,35.218,9.757,52.311,0.91l3.137,0.169c2.386,10.512,1.052,21.015,1.052,21.015
				c-15.793-1.354-36.558,1.167-61.229,3.688c-24.685,2.521-36.215-1.935-36.215-1.935C20.283,83.313,25.398,76.35,29.622,73.078z"
				/>
			<path id="fillShoesColorTint" fill="#7C7B83" d="M27.063,75.475c0.813-0.923,1.716-1.744,2.575-2.412
				c4.681-3.627,10.716-4.043,16.191-5.747c3.625-1.117,7.235-2.27,10.844-3.442c3.482,5.226,1.068,9.148-3.664,11.616
				C45.396,79.46,31.777,79.665,27.063,75.475z"/>
			<path fill="#AAA6BA" d="M126.057,80.939c-0.449,2.16-0.299,3.625-0.299,3.625c-15.791-1.354-37.113,1.041-61.776,3.562
				c-24.69,2.522-36.218-1.931-36.218-1.931c-2.07-0.795-3.152-1.918-3.575-3.176C69.139,89.533,90.082,79.002,126.057,80.939z"/>
		</g>
	</g>
	<g id="ush1" display="inline">
		<g>
			<path id="fillShoeColorBase_4_" fill="#78655F" d="M12.693,122.777l119.545-12.537l-3.729-30.502l0.592-34.212
				c2.553-2.131,5.896-3.75,8.34-5.596c2.969-2.228,7.516-5.542,6.752-9.824c-0.625-3.373-5.068-7.292-8.613-5.864
				c-3.254,1.316-5.832,4.141-7.813,7.229c-8.789-0.749-51.99-4.438-51.99-4.427c-0.61,11.831,2.943,25.236-2.125,36.405
				c-0.364,0.802-0.754,1.561-1.185,2.292c-7.241,12.315-16.07,21.252-27.764,27.903c-7.922,4.5-23.052,1.828-33.904,12.905
				C10.799,106.553-0.973,121.614,12.693,122.777z M129.172,40.823l0.074-4.075c1.688-3.213,4.018-6.581,6.977-8.473
				c1.422-0.902,5.592-2.075,4.92,1.2c-0.297,1.453-1.062,2.664-2.084,3.718c-2.619,2.773-5.804,4.885-8.934,7.014
				C129.826,40.409,129.495,40.612,129.172,40.823z"/>
			<path id="fillShoeColorTint_4_" fill="#EEDCB4" d="M37.689,120.15l-31.761-2.606l-0.207,10.103l27.715,2.783
				c34.897-2.262,45.69-9.379,60.783-12.41c0.104,2.008,0.137,3.025,0.188,4.035c0.041,0.998,0.1,2.008,0.183,4.032
				c-0.091-2.024-0.142-3.034-0.183-4.032c0.073,1.59,0.133,3.221-0.056,4.844l41.912-2.039l-1.371-15.42L37.689,120.15z"/>
			<path id="fillShoeColorShade_2_" fill="#715B4A" d="M61.263,75.402c0.713,2.224,2.848,4.116,4.646,5.478
				c0.522,0.369,1.161,0.845,1.832,1.283c0.428,0.458,0.987,0.86,1.584,0.922c0.074,0.009,0.091-0.03,0.149-0.037
				c0.774,0.306,1.562,0.495,2.305,0.306c1.057-0.285-0.153-1.924-0.494-2.262c-2.267-2.27-4.56-4.515-7.088-6.469
				c-0.281-0.236-1.065-0.678-1.521-0.521c-0.385,0-0.754,0.079-1.103,0.236C61.101,74.505,61.139,74.985,61.263,75.402z
				 M57.022,79.318c0.182,0.057,0.331,0.14,0.497,0.223c0.004-0.159,0.024-0.309,0.149-0.425c0.572-0.563,1.712,0.373,2.102,0.759
				c2.181,2.218,5.123,4.839,5.256,8.188c0.033,0.435-0.232,0.742-0.696,0.688c-3.884-0.482-7.06-5.061-8.29-8.473
				C55.75,79.469,56.271,79.096,57.022,79.318z M66.594,69.056c0.078-0.021,0.19,0,0.277,0c0.249-0.358,0.896-0.228,1.298,0.006
				c1.649,0.216,3.034,1.059,4.273,2.334c0.224,0.222,0.431,0.537,0.633,0.804c0.481,0.342,0.979,0.663,1.443,1.023
				c0.456,0.354,1.231,0.937,1.977,1.656c0.054,0.006,0.095,0,0.157,0.022c0.647,0.241,1.145,0.75,1.551,1.333
				c0.049,0.062,0.129,0.146,0.311,0.369c0.262,0.344,0.398,0.705,0.564,1.09c0.203,0.526,0.023,1.121-0.623,1.049
				c-0.012,0-0.057-0.021-0.096-0.021c-0.041,0.094-0.019,0.162-0.074,0.252c-2.387,4.198-11.104-6.788-12.011-8.89
				C66.142,69.792,66.112,69.114,66.594,69.056z M70.668,63.852c0.07,0.234,0.187,0.498,0.439,0.833
				c2.354,3.213,8.136,5.337,12.016,5.312c1.41-0.014,0.281-1.789-0.189-2.261c-3.314-3.293-7.688-5.073-12.286-5.666
				C69.689,61.949,69.992,62.929,70.668,63.852z M75.484,58.075c0.112-0.017,0.257,0.046,0.366,0.04
				c0.189,0.135,0.354,0.29,0.555,0.41c0.882,0.568,1.769,1.072,2.714,1.52c1.817,0.868,3.723,1.341,5.737,1.316
				c1.807-0.017-0.336-2.568-0.987-2.891c-2.951-1.443-5.729-3.271-8.979-3.515c-0.41-0.268-0.879-0.489-1.488-0.589
				c-0.666-0.12-0.725,0.446-0.604,0.943C72.679,56.135,74.394,58.21,75.484,58.075z M73.448,48.966
				c0.456,0.827,1.24,1.505,2.185,1.716c0.34,0.096,0.688,0.16,1.041,0.245c0.7,0.554,1.541,0.987,2.057,1.167
				c1.604,0.56,3.447,1.14,5.179,1.15c1.837,0.008-0.406-2.583-0.99-2.914c-2.812-1.561-5.924-2.083-9.036-2.792
				C72.935,47.314,73.204,48.556,73.448,48.966z M76.01,45.53c2.818,0.782,5.732,1.026,8.598,1.656
				c0.931,0.145,0.683-0.979,0.434-1.453c-0.452-0.825-1.262-1.511-2.188-1.716c-0.812-0.158-1.613-0.332-2.396-0.583
				c-0.397-0.112-0.608-0.07-0.759,0.023c-1.596-0.228-3.172-0.481-4.726-0.922C72.807,41.921,74.816,45.19,76.01,45.53z
				 M75.476,38.143c0.12,0.031,0.24,0.038,0.356,0.071l0.004,0.014c0.93,0.135,1.85,0.381,2.773,0.554c0,0.008,0,0.014,0.008,0.014
				c1.23,0.394,2.412,0.694,3.693,0.709c1.526,0.025,0.229-1.722-0.89-2.646c-0.556-0.659-1.256-1.233-1.675-1.258
				c-1.704-0.125-3.393-0.282-5.078-0.558c-0.17-0.017-0.27,0.04-0.369,0.087c-0.066-0.017-0.141-0.042-0.215-0.042
				C72.359,34.829,74.567,37.915,75.476,38.143z"/>
			<polygon fill="#808890" points="70.904,35.144 132.049,35.144 133.445,19.571 70.664,20.104 			"/>
		</g>
	</g>
	<g id="msh1" display="inline">
		<path id="fillShoeColorBase_1_" fill="#4F4E55" d="M106.105,65.128c9.078,2.475,25.49-1.221,25.49-1.221v25.916L24.682,91.945
			c-11.764-1.488-2.77-13.004-2.77-13.004s58.941-25.979,58.941-26.98C80.854,51.961,97.027,62.643,106.105,65.128z"/>
		<polyline id="fillShoeColorTint" fill="#8C898D" points="13.576,89.523 15.67,98.039 135.025,97.699 136.424,87.816 
			14.974,89.859 		"/>
	</g>
	<g id="msh2" display="inline">
		<g>
			<path id="fillShoesColorBase_4_" fill="#274655" d="M90.037,52.921c0,0,21.676,13.318,31.543,16.365
				c9.865,3.046,20.84-4.208,20.84-4.208v34.186L13.825,99.913c-15.913-1.962,2.765-13.14,2.765-13.14s57.137-36.108,57.137-37.432
				L90.037,52.921z"/>
			<path fill="#E4E4E4" d="M37.771,71.439c0,0-31.73,12.807-31.73,19.584c12.394,0,34.011,0.303,50.011,0.303
				C55.737,80.123,37.771,71.439,37.771,71.439z"/>
			<path fill="#B9BBBD" d="M54.066,70.067c2.139,0,3.905,1.488,3.905,3.316c0,1.824-1.767,3.29-3.905,3.29
				c-2.147,0-3.888-1.466-3.888-3.29C50.179,71.555,51.924,70.067,54.066,70.067z M58.995,68.084c0,1.815,1.716,3.295,3.872,3.295
				c2.146,0,3.892-1.48,3.892-3.295c0-1.818-1.729-3.308-3.892-3.308C60.74,64.776,58.995,66.266,58.995,68.084z M67.957,61.702
				c0,1.82,1.737,3.3,3.896,3.3c2.145,0,3.889-1.48,3.889-3.3c0-1.828-1.745-3.301-3.889-3.301
				C69.698,58.401,67.957,59.875,67.957,61.702z"/>
			<path fill="#DADCDD" d="M53.034,73.736c-3.672-3.739-7.867-5.331-7.913-5.354c-0.721-0.27-1.103-1.084-0.829-1.803
				c0.273-0.731,1.082-1.101,1.808-0.831c0.194,0.07,4.809,1.812,8.945,6.017c0.539,0.553,0.535,1.442-0.021,1.992
				c-0.273,0.27-0.63,0.402-0.982,0.402C53.673,74.159,53.312,74.018,53.034,73.736z M62.867,68.857c0.356,0,0.713-0.135,0.99-0.408
				c0.547-0.549,0.556-1.437,0.013-1.992c-4.146-4.183-8.759-5.913-8.954-5.986c-0.708-0.263-1.529,0.102-1.803,0.831
				c-0.27,0.726,0.104,1.534,0.825,1.813c0.045,0.013,4.244,1.598,7.93,5.322C62.142,68.718,62.506,68.857,62.867,68.857z
				 M71.841,62.494c0.353,0,0.709-0.135,0.991-0.408c0.546-0.543,0.552-1.437,0.008-1.99c-4.149-4.206-8.771-5.944-8.962-6.017
				c-0.729-0.269-1.537,0.102-1.807,0.832c-0.274,0.721,0.104,1.534,0.824,1.807c0.046,0.019,4.245,1.61,7.946,5.357
				C71.115,62.355,71.477,62.494,71.841,62.494z"/>
			<rect x="4.403" y="89.475" fill="#D7D8D9" width="141.195" height="11.181"/>
		</g>
	</g>
</g>
<g id="lower_garments">
	<g id="flo1_1_" display="none">
		<path id="fillClothesLowerColorBase" display="inline" fill="#535763" d="M98.075,135.837c1.153-18.731,6.062-70.519,6.062-70.519
			s5.477-46.204-4.631-62.752L56.399,2.429c0,0-7.179,4.71-8.12,61.437c0,0-2.545,50.907-4.045,72.282
			c5.309,2.479,12.251,2.308,16.694-0.729l12.233-90.658l7.005-0.224l2.132,91.438C87.352,138.577,93.346,138.091,98.075,135.837z"
			/>
		<path id="fillClothesLowerColorShade_1_" display="inline" fill="#484B56" d="M102.555,9.997c-0.547-1.349-1.75-6.887-2.425-7.998
			L55.543,1.757c0,0-1.042,4.734-2.262,8.077C70.326,15.248,87.609,15.085,102.555,9.997z"/>
	</g>
	<g id="mlo4" display="none">
		<path id="fillClothesLowerColorBase_1_" display="inline" fill="#54667B" d="M106.113,15.192
			c-0.303-7.404-0.705-12.145-0.705-13.633c-0.838,0.036-15.44,2.702-26.918,1.84c-0.032-0.003-0.072-0.006-0.108-0.009
			c-0.03,0-0.069-0.005-0.103-0.005C66.324,2.723,52.97,2.018,51.988,1.855c-0.6,1.055-0.605,2.865-2.219,10.573
			c-0.825,7.197-1.916,14.22-2.218,21.92c0.008,0.02,0.025,0.037,0.035,0.057c-2.318,34.572-6.56,107.075-6.563,107.075
			c3.709,4.934,16.639,3.916,16.639,3.916C62.575,123.7,70.653,63.012,75.264,41.862c1.083,0.122,2.144,0.186,3.239,0.109
			c0.334-0.022,0.665-0.047,0.994-0.077c6.869,33.539,2.808,103.348,2.808,103.352c4.424,4.333,16.953,2.158,16.953,2.158
			c4.319-24.953,7.221-99.919,6.887-113.112c0.025-0.047,0.06-0.091,0.076-0.138C106.416,26.845,106.416,21.61,106.113,15.192z"/>
		<path id="fillClothesLowerColorShade" display="inline" fill="#4D5E71" d="M106.18,23.667c-0.01-3.138,0.09-5.153-0.066-8.475
			c-0.303-7.404-0.702-12.145-0.702-13.633c-0.837,0.036-15.438,2.702-26.918,1.84l0,0C78.46,3.396,78.42,3.393,78.384,3.39
			c-0.028,0-0.069-0.005-0.104-0.005l0,0C66.324,2.723,52.97,2.018,51.988,1.855c-0.6,1.055-0.605,2.865-2.219,10.573
			c-0.382,3.317-0.816,6.606-1.205,9.935C66.016,31.11,84.08,31.297,106.18,23.667z M106.18,23.667
			c-0.01-3.138,0.09-5.153-0.066-8.475c-0.303-7.404-0.702-12.145-0.702-13.633c-0.837,0.036-15.438,2.702-26.918,1.84l0,0
			C78.46,3.396,78.42,3.393,78.384,3.39c-0.028,0-0.069-0.005-0.104-0.005l0,0C66.324,2.723,52.97,2.018,51.988,1.855
			c-0.6,1.055-0.605,2.865-2.219,10.573c-0.382,3.317-0.816,6.606-1.205,9.935C66.016,31.11,84.08,31.297,106.18,23.667z
			 M91.999,93.865c-10.597-4.612-7.923-16.652-9.532-27.15c2.432,30.674-0.585,78.531-0.585,78.531
			c4.423,4.333,16.953,2.152,16.953,2.152c1.714-9.885,4.269-38.7,5.19-54.959C100.671,95.098,96.713,95.971,91.999,93.865z
			 M50.019,91.002c-1.886-0.923-3.696-2.12-5.419-3.539c-1.225,23.949-3.577,54.018-3.577,54.018
			c3.708,4.935,16.639,3.916,16.639,3.916c3.45-15.246,9.325-57.205,13.189-80.119C68.083,79.193,61.142,95.848,50.019,91.002z"/>
	</g>
	<g id="flo2">
		<path fill="#4A636E" d="M122.87,56.366c-0.278-1.505-0.632-3.089-1.022-4.707c-4.363-17.9-11.287-44.112-11.287-44.112
			c-0.008-0.019-18.664,4.107-33.601,4.107c-27.712,0.627-24.639-1.493-36.735-4.168C36.037,21.3,29.143,38.849,29.155,40.809
			c-1.257,2.864-2.175,6.934-2.833,11.75c-1.255,57.284-5.735,84.537-5.735,84.537c11.424,3.277,27.254,7.842,53.761,5.601
			c38.646-3.269,57.866-9.705,57.866-9.705l-2.985-7.095L122.87,56.366z"/>
		<path fill="#435B65" d="M74.17,128.561c4.111,0,7.193-3.084,11.303-3.084c-11.303-1.025-22.604-1.025-33.908-5.137
			c-18.095-6.222-24.664-21.47-26.238-38.716c-1.782,37.478-4.74,55.472-4.74,55.472c11.424,3.276,27.254,7.84,53.761,5.598
			c38.646-3.267,57.866-9.703,57.866-9.703l-1.927-4.575C112.02,133.703,92.24,134.08,74.17,128.561z"/>
	</g>
</g>
<g id="Male" display="none">
	<g id="mbo1" display="inline">
		<path id="fillSkinColorBase_13_" fill="#F9D7B9" d="M85.43,56.33l-5.64-2.885l0.194-3.293l-6.296,0.194l0.098,2.808l-5.064,2.878
			c-0.001,0-2.061,10.115,7.461,10.115C85.438,66.148,85.57,63.445,85.43,56.33z"/>
		<path id="fillSkinColorShade" fill="#E1C3A9" d="M79.848,52.061l0.137-1.906l-6.295,0.151l0.062,1.765
			C75.831,52.603,77.855,52.52,79.848,52.061z"/>
		<path id="fillSkinColorBase_11_" fill="#F9D7B9" d="M86.553,92.157c0.348-26.06-1.546-34.183-1.445-35.879
			c0,0-1.279-0.701-3.561-2.072c-0.229,1.583-0.48,6.139-5.23,5.892c-3.949-0.207-3.597-2.875-4.479-5.828
			c-1.878,0.776-4.02,1.503-4.524,1.868c0,0,0.537,22.031-1.722,35.409c0,0,1.23,0.316,1.22,0.344
			C71.093,94.914,82.555,94.463,86.553,92.157z"/>
		<path id="fillSkinColorBase_10_" fill="#F9D7B9" d="M86.241,90.18c-0.107-2.673-0.25-4.385-0.25-4.922
			c-0.296,0.012-5.462,0.977-9.521,0.664l0,0c-0.011-0.002-0.025-0.002-0.039-0.005c-0.01,0-0.024,0-0.035,0l0,0
			c-4.229-0.239-8.952-0.494-9.297-0.554c-0.212,0.381-0.214,1.033-0.785,3.818c-0.292,2.598-0.678,5.135-0.785,7.914
			c0.873,1.838,5.155,2.284,6.667,2.34c1.864,0.069,3,0.504,4.277,0.412c1.305-0.076,2.428-0.341,4.174-0.408
			c1.373-0.054,4.922-0.754,5.629-2.414C86.348,94.387,86.348,92.498,86.241,90.18z"/>
		<path id="fillSkinColorBase_9_" fill="#F9D7B9" d="M76.314,97.684l9.924-0.898c0.175,3.824-0.862,31.919-2.426,41.131
			c0,0-4.431,0.786-5.996-0.781C77.816,137.134,79.443,108.628,76.314,97.684z"/>
		<path id="fillSkinColorBase_8_" fill="#F9D7B9" d="M65.617,95.945l10.255,1.734c-1.449,4.117-4.815,30.703-6.769,39.506
			c0,0-4.572,0.366-5.884-1.414C63.22,135.773,64.818,107.871,65.617,95.945z"/>
	</g>
	<g id="uhd2" display="inline">
		<g>
			<path id="fillSkinColorBase_5_" fill="#F9D7B9" d="M91.775,23.387c-0.139-0.783-0.289-1.56-0.45-2.33
				c-1.437-6.842-8.082-9.313-13.954-9.218c-13.784,0.227-16.297,11.235-16.297,11.235s-5.081,28.208,16.297,28.273
				c2.884,0.011,6.117-0.604,8.604-2.232c3.813-2.502,5.517-6.785,6.24-11.347C92.968,33.041,92.609,28.113,91.775,23.387z"/>
			<path id="fillSkinColorBase_4_" fill="#F9D7B9" d="M92.848,30.874c-0.099-0.094-0.205-0.213-0.313-0.344
				c0.014,2.957-0.297,5.964-0.793,8.92C98.113,35.298,92.848,30.874,92.848,30.874z"/>
			<path id="fillSkinColorBase_3_" fill="#F9D7B9" d="M61.25,30.874c0.096-0.094,0.202-0.213,0.312-0.344
				c-0.014,2.957,0.297,5.964,0.794,8.92C55.985,35.298,61.25,30.874,61.25,30.874z"/>
		</g>
	</g>
	<g id="uey1" display="inline">
		<path fill="#543318" d="M88.376,31.939c-0.002,1.422-1.022,2.575-2.278,2.575c-1.252-0.001-2.271-1.156-2.269-2.579
			c0.002-1.422,1.022-2.574,2.276-2.572C87.361,29.362,88.378,30.517,88.376,31.939z"/>
		<path fill="#543318" d="M71.131,31.852c-0.001,1.422-1.022,2.575-2.278,2.575c-1.253-0.001-2.271-1.157-2.268-2.58
			c0.002-1.422,1.023-2.573,2.277-2.572C70.117,29.274,71.133,30.43,71.131,31.852z"/>
	</g>
	<g id="uey2" display="inline">
		<g>
			<path fill="#543318" d="M70.651,33.415c0.284-0.429,0.458-0.956,0.459-1.532c0.001-1.422-1.014-2.577-2.27-2.579
				c-1.254-0.001-2.275,1.152-2.277,2.575c-0.001,0.635,0.208,1.21,0.545,1.66C68.039,33.223,69.432,32.936,70.651,33.415z"/>
		</g>
	</g>
	<g id="umo2" display="inline">
		
			<path fill="none" stroke="#816951" stroke-width="1.0628" stroke-linecap="round" stroke-linejoin="round" stroke-miterlimit="10" d="
			M73.694,43.059c0,0,3.376,4.402,7.103-0.037"/>
	</g>
	<g id="ueb2_1_" display="inline">
		
			<path id="StrokeEyebrowColorBase_5_" fill="none" stroke="#816951" stroke-width="1.0628" stroke-linecap="round" stroke-linejoin="round" stroke-miterlimit="10" d="
			M71.556,24.773c0,0-4.272-1.041-6.364,1.946"/>
		
			<path id="StrokeEyebrowColorBase" fill="none" stroke="#816951" stroke-width="1.0628" stroke-linecap="round" stroke-linejoin="round" stroke-miterlimit="10" d="
			M82.878,24.945c0,0,4.149-1.455,6.522,1.312"/>
	</g>
	<g id="mlo4_1_" display="inline">
		<path id="fillClothesLowerColorBase_2_" fill="#54667B" d="M86.241,90.18c-0.107-2.673-0.25-4.385-0.25-4.922
			c-0.296,0.012-5.462,0.977-9.521,0.664c-0.011-0.002-0.025-0.002-0.039-0.005c-0.01,0-0.024,0-0.035,0
			c-4.229-0.239-8.952-0.494-9.297-0.554c-0.212,0.381-0.214,1.033-0.785,3.818c-0.292,2.598-0.678,5.135-0.785,7.914
			c0.002,0.008,0.009,0.014,0.013,0.021c-0.82,12.481-2.321,38.657-2.321,38.657c1.312,1.779,5.884,1.414,5.884,1.414
			c1.738-7.834,4.595-29.744,6.227-37.379c0.382,0.043,0.759,0.065,1.146,0.039c0.117-0.01,0.233-0.017,0.352-0.029
			c2.43,12.107,0.992,37.313,0.992,37.313c1.564,1.563,5.996,0.781,5.996,0.781c1.529-9.011,2.555-36.074,2.436-40.838
			c0.012-0.019,0.021-0.033,0.027-0.052C86.348,94.387,86.348,92.498,86.241,90.18z"/>
		<path id="fillClothesLowerColorShade_2_" fill="#4D5E71" d="M86.264,93.24c-0.002-1.135,0.032-1.86-0.021-3.061
			c-0.107-2.674-0.25-4.386-0.25-4.923c-0.297,0.011-5.461,0.978-9.52,0.664l0,0c-0.012-0.002-0.027-0.002-0.039-0.005
			c-0.011,0-0.025,0-0.035,0l0,0c-4.229-0.239-8.953-0.494-9.298-0.555c-0.212,0.382-0.214,1.035-0.785,3.818
			c-0.136,1.196-0.29,2.385-0.426,3.588C72.059,95.928,78.447,95.995,86.264,93.24z M86.264,93.24
			c-0.002-1.135,0.032-1.86-0.021-3.061c-0.107-2.674-0.25-4.386-0.25-4.923c-0.297,0.011-5.461,0.978-9.52,0.664l0,0
			c-0.012-0.002-0.027-0.002-0.039-0.005c-0.011,0-0.025,0-0.035,0l0,0c-4.229-0.239-8.953-0.494-9.298-0.555
			c-0.212,0.382-0.214,1.035-0.785,3.818c-0.136,1.196-0.29,2.385-0.426,3.588C72.059,95.928,78.447,95.995,86.264,93.24z
			 M81.249,118.584c-3.748-1.665-2.804-6.014-3.372-9.803c0.859,11.074-0.163,28.621-0.163,28.621
			c1.563,1.562,5.953,0.509,5.953,0.509c0.604-3.568,1.511-13.972,1.836-19.845C84.314,119.027,82.917,119.344,81.249,118.584z
			 M66.401,117.551c-0.667-0.334-1.307-0.766-1.917-1.277c-0.433,8.646-1.265,19.502-1.265,19.502
			c1.312,1.779,5.885,1.414,5.885,1.414c1.22-5.506,3.298-20.653,4.664-28.926C72.79,113.286,70.335,119.299,66.401,117.551z"/>
	</g>
	<g id="mup1_1_" display="inline">
		<path id="fillClothesUpperColorBase_19_" fill="#C74541" d="M86.553,92.157c0.348-26.06-1.543-34.405-1.441-36.102
			c0,0-1.282-0.479-3.563-1.851c-0.229,1.585-0.481,6.141-5.231,5.892c-3.948-0.204-3.596-2.874-4.479-5.826
			c-1.878,0.776-4.02,1.502-4.524,1.868c0,0,0.351,22.088-1.908,35.467c0,0,1.172,0.644,1.163,0.67
			C70.85,95.297,82.555,94.463,86.553,92.157z"/>
		<path id="fillClothesUpperColorShade_12_" fill="#BD413D" d="M86.05,89.113c-4.137,1.033-8.272,1.033-11.893-0.518
			c-5.707-1.781-6.984-7.012-7.228-12.63c-0.279,5.408-0.748,11.041-1.524,15.64c0,0,1.172,0.644,1.163,0.67
			c4.282,3.021,15.987,2.188,19.985-0.118c0.016-1.13,0.024-2.207,0.031-3.271C86.404,88.963,86.229,89.042,86.05,89.113z"/>
	</g>
	<g id="fsh3" display="inline">
		<g>
			<path id="fillShoeColorTint_5_" fill="#EEDCB4" d="M70.494,142.025l0.083,1.979l-5.379,0.009
				c0.033-0.209,0.036-0.414,0.037-0.619c-0.002,0.129-0.001,0.256-0.002,0.517c0.001-0.261,0-0.388,0.002-0.517
				c0-0.131,0-0.261,0-0.518c-1.951,0.297-3.376,1.141-7.858,1.215l-3.531-0.523l0.089-1.293l4.048,0.525L70.494,142.025z"/>
			<path id="fillShoeColorBase_5_" fill="#78655F" d="M70.632,131.389c-0.313,0.109-0.584,0.325-0.815,0.586l-6.387-0.854
				c-0.152,1.511,0.221,3.248-0.496,4.649c-0.051,0.099-0.104,0.19-0.164,0.282c-1.002,1.532-2.187,2.623-3.726,3.403
				c-1.041,0.525-2.961,0.093-4.417,1.443c-0.001,0-1.601,1.856,0.141,2.091l15.38-0.873l-0.291-3.929l0.287-4.416
				c0.221-0.119,0.442-0.235,0.628-0.363c0.393-0.268,0.999-0.661,0.924-1.215C71.641,131.757,71.095,131.229,70.632,131.389z
				 M71.311,132.092c-0.046,0.184-0.153,0.334-0.29,0.465c-0.252,0.241-0.541,0.439-0.837,0.625l0.058-0.901
				c0.138-0.146,0.284-0.277,0.445-0.37C70.876,131.801,71.417,131.677,71.311,132.092z"/>
			<path id="fillShoeColorShade_3_" fill="#715B4A" d="M61.323,137.086c0.046-0.02,0.094-0.025,0.143-0.023
				c0.059-0.017,0.157,0.047,0.191,0.076c0.311,0.268,0.593,0.566,0.868,0.872c0.041,0.046,0.186,0.261,0.05,0.29
				c-0.097,0.018-0.196-0.01-0.294-0.054c-0.008,0-0.01,0.004-0.019,0.004c-0.076-0.012-0.145-0.067-0.199-0.129
				c-0.082-0.062-0.161-0.121-0.225-0.177c-0.222-0.187-0.483-0.441-0.561-0.729C61.264,137.166,61.262,137.104,61.323,137.086z
				 M60.71,137.693c0.022,0.012,0.041,0.021,0.062,0.033c0-0.021,0.005-0.039,0.022-0.054c0.077-0.071,0.217,0.056,0.264,0.111
				c0.267,0.294,0.625,0.649,0.624,1.08c0,0.054-0.034,0.093-0.093,0.083c-0.496-0.09-0.873-0.694-1.011-1.135
				C60.546,137.705,60.617,137.662,60.71,137.693z M61.998,136.443c0.011-0.004,0.024,0,0.036,0
				c0.035-0.043,0.118-0.021,0.166,0.011c0.208,0.036,0.381,0.153,0.533,0.326c0.027,0.03,0.052,0.071,0.077,0.108
				c0.059,0.045,0.121,0.09,0.179,0.139c0.056,0.05,0.151,0.128,0.243,0.227c0.006,0,0.012,0,0.02,0.003
				c0.08,0.034,0.141,0.103,0.188,0.183c0.008,0.01,0.017,0.021,0.039,0.05c0.029,0.046,0.047,0.093,0.065,0.142
				c0.021,0.07-0.004,0.141-0.085,0.131c-0.006,0-0.01-0.004-0.014-0.004c-0.005,0.01-0.003,0.02-0.01,0.031
				c-0.331,0.521-1.378-0.938-1.483-1.211C61.935,136.531,61.935,136.443,61.998,136.443z M62.559,135.572
				c0.586,0.102,1.134,0.354,1.538,0.8c0.058,0.062,0.192,0.297,0.011,0.288c-0.497-0.018-1.223-0.327-1.505-0.753
				c-0.032-0.048-0.044-0.078-0.052-0.109C62.471,135.676,62.437,135.549,62.559,135.572z M62.875,134.718
				c-0.011-0.062,0-0.134,0.083-0.116c0.08,0.018,0.137,0.049,0.188,0.086c0.414,0.052,0.76,0.303,1.127,0.504
				c0.081,0.045,0.34,0.385,0.109,0.377c-0.259-0.012-0.5-0.082-0.727-0.204c-0.119-0.065-0.23-0.134-0.337-0.212
				c-0.024-0.014-0.043-0.033-0.066-0.055c-0.017,0-0.032-0.006-0.047-0.004C63.064,135.102,62.856,134.823,62.875,134.718z
				 M63.062,133.729c0.393,0.113,0.789,0.196,1.139,0.418c0.076,0.047,0.346,0.391,0.111,0.377
				c-0.222-0.012-0.454-0.097-0.656-0.181c-0.065-0.024-0.17-0.086-0.256-0.159c-0.045-0.012-0.088-0.025-0.133-0.035
				c-0.118-0.03-0.213-0.123-0.267-0.233C62.971,133.857,62.944,133.695,63.062,133.729z M63.233,133.098
				c0.196,0.063,0.397,0.106,0.6,0.148c0.02-0.014,0.046-0.018,0.097,0.001c0.099,0.037,0.2,0.065,0.303,0.089
				c0.118,0.031,0.217,0.123,0.27,0.23c0.029,0.063,0.053,0.209-0.065,0.184c-0.362-0.096-0.734-0.143-1.09-0.264
				C63.197,133.436,62.96,133.005,63.233,133.098z M63.166,132.136c0.009,0.007,0.019,0.009,0.028,0.011
				c0.012-0.004,0.025-0.012,0.046-0.011c0.214,0.05,0.429,0.077,0.646,0.104c0.054,0.004,0.14,0.083,0.208,0.171
				c0.138,0.123,0.292,0.354,0.098,0.343c-0.166-0.009-0.315-0.053-0.47-0.111v-0.002c-0.117-0.031-0.234-0.063-0.351-0.088
				c-0.001,0,0-0.001,0-0.001c-0.015-0.008-0.031-0.009-0.046-0.012C63.21,132.502,62.946,132.094,63.166,132.136z"/>
			<polygon fill="#808890" points="70.998,130.665 63.1,129.125 62.911,131.119 70.614,132.553 			"/>
		</g>
		<g>
			<path id="fillShoeColorBase_2_" fill="#78655F" d="M92.792,141.341c-1.392-1.419-3.33-1.075-4.347-1.653
				c-1.498-0.852-2.629-1.996-3.557-3.576c-0.056-0.094-0.104-0.189-0.152-0.293c-0.649-1.432-0.193-3.15-0.272-4.664
				c0-0.002-5.534,0.472-6.662,0.566c-0.254-0.396-0.584-0.759-1.002-0.927c-0.452-0.183-1.022,0.319-1.104,0.751
				c-0.098,0.55,0.484,0.975,0.867,1.26c0.312,0.237,0.74,0.444,1.066,0.719l0.076,4.383l-0.479,3.91l15.319,1.605
				C94.3,143.271,92.792,141.341,92.792,141.341z M77.499,132.839c-0.399-0.272-0.81-0.543-1.146-0.899
				c-0.129-0.135-0.229-0.289-0.268-0.476c-0.085-0.419,0.449-0.269,0.631-0.153c0.379,0.241,0.68,0.674,0.895,1.086l0.01,0.522
				C77.579,132.893,77.538,132.864,77.499,132.839z"/>
			<path id="fillShoeColorTint_1_" fill="#EEDCB4" d="M76.889,141.713l-0.177,1.975l5.371,0.262
				c-0.022-0.208-0.017-0.417-0.006-0.619c-0.007,0.128-0.013,0.257-0.022,0.518c0.01-0.261,0.018-0.39,0.022-0.518
				c0.006-0.13,0.01-0.26,0.022-0.518c1.936,0.389,3.317,1.299,7.791,1.59l3.551-0.355l-0.026-1.295l-4.069,0.334L76.889,141.713z"
				/>
			<path id="fillShoeColorShade_1_" fill="#715B4A" d="M86.285,137.214c-0.044-0.021-0.094-0.03-0.143-0.03
				c-0.059-0.021-0.158,0.035-0.194,0.066c-0.324,0.25-0.618,0.538-0.908,0.829c-0.043,0.043-0.198,0.253-0.062,0.292
				c0.094,0.021,0.194,0,0.295-0.04c0.008,0,0.01,0.006,0.02,0.004c0.076-0.007,0.146-0.06,0.203-0.118
				c0.086-0.056,0.167-0.117,0.232-0.164c0.231-0.175,0.506-0.417,0.598-0.701C86.341,137.297,86.346,137.234,86.285,137.214z
				 M86.995,137.975c-0.159,0.438-0.565,1.023-1.063,1.086c-0.06,0.008-0.095-0.033-0.089-0.086
				c0.017-0.431,0.394-0.767,0.675-1.052c0.049-0.049,0.194-0.169,0.27-0.096c0.016,0.013,0.018,0.032,0.02,0.053
				c0.021-0.01,0.039-0.021,0.063-0.028C86.965,137.822,87.031,137.871,86.995,137.975z M85.684,136.669
				c-0.117,0.269-1.233,1.676-1.539,1.14c-0.011-0.012-0.004-0.021-0.013-0.033c-0.004,0-0.01,0.004-0.012,0.004
				c-0.082,0.01-0.104-0.067-0.078-0.135c0.021-0.051,0.038-0.096,0.071-0.142c0.023-0.028,0.033-0.039,0.039-0.049
				c0.054-0.074,0.117-0.14,0.199-0.17c0.008-0.003,0.015-0.001,0.021-0.003c0.097-0.094,0.194-0.166,0.254-0.213
				s0.123-0.086,0.185-0.131c0.026-0.033,0.053-0.074,0.082-0.103c0.159-0.164,0.334-0.271,0.547-0.299
				c0.053-0.031,0.135-0.048,0.168-0.001c0.01,0,0.024-0.003,0.035,0C85.703,136.543,85.699,136.632,85.684,136.669z
				 M85.122,135.641c-0.59,0.077-1.149,0.307-1.574,0.728c-0.062,0.062-0.205,0.287-0.024,0.29c0.498,0.003,1.238-0.27,1.541-0.68
				c0.031-0.043,0.047-0.078,0.057-0.107C85.206,135.752,85.245,135.625,85.122,135.641z M84.848,134.775
				c0.016-0.064,0.008-0.139-0.078-0.123c-0.076,0.015-0.138,0.043-0.189,0.076c-0.417,0.031-0.771,0.267-1.15,0.451
				c-0.084,0.04-0.359,0.368-0.127,0.37c0.258,0.003,0.502-0.059,0.735-0.17c0.12-0.058,0.233-0.122,0.347-0.194
				c0.027-0.015,0.049-0.033,0.072-0.052c0.014,0,0.031-0.009,0.047-0.007C84.643,135.146,84.861,134.881,84.848,134.775z
				 M84.708,133.777c-0.399,0.093-0.799,0.158-1.158,0.357c-0.075,0.043-0.362,0.375-0.127,0.374
				c0.222-0.002,0.457-0.073,0.663-0.147c0.066-0.021,0.176-0.077,0.264-0.148c0.047-0.012,0.09-0.02,0.135-0.031
				c0.121-0.027,0.222-0.115,0.279-0.221C84.794,133.91,84.829,133.75,84.708,133.777z M84.566,133.139
				c-0.198,0.057-0.399,0.09-0.604,0.117c-0.021-0.012-0.047-0.016-0.099-0.003c-0.098,0.031-0.202,0.056-0.307,0.075
				c-0.119,0.027-0.223,0.113-0.279,0.221c-0.031,0.063-0.063,0.204,0.056,0.188c0.367-0.081,0.739-0.114,1.103-0.213
				C84.588,133.479,84.846,133.059,84.566,133.139z M84.682,132.184c-0.01,0-0.02,0.004-0.027,0.004
				c-0.014-0.006-0.025-0.012-0.047-0.01c-0.217,0.035-0.434,0.057-0.65,0.072c-0.055,0.003-0.145,0.076-0.215,0.16
				c-0.145,0.12-0.311,0.343-0.115,0.34c0.164-0.003,0.314-0.04,0.475-0.091c0.002,0,0.002,0,0.002-0.002
				c0.117-0.022,0.235-0.054,0.354-0.072l0.001-0.002c0.014-0.004,0.029-0.004,0.045-0.009
				C84.62,132.545,84.902,132.15,84.682,132.184z"/>
			<polygon fill="#808890" points="85.12,130.264 77.074,130.193 77.253,132.189 85.089,132.189 			"/>
		</g>
	</g>
	<g id="mhf3" display="inline">
		<path id="fillHairColorBase_3_" fill="#584D4B" d="M64.713,10.51c0.4-0.485,0.999-0.854,1.368-1.146
			c6.583-5.247,15.795-4.826,22.433,0.111c0.606,0.285,1.205,0.581,1.795,0.875c0.139,0.072,0.252,0.156,0.368,0.236
			c0.47,0.2,0.942,0.396,1.429,0.589c2.146,0.854,1.893,3.49,0.5,4.598c1.539,3.836,2.063,9.306,0.69,17.089l-0.03,0.235
			c0,0-0.354,1.134-0.492-0.413c-0.127-1.404-0.681-10.023-2.129-13.209c-0.258,0.348-0.621,0.649-1.146,0.851
			c-7.923,3.073-17.91,2.879-25.541-1.173c-1.152,0.474-2.165,1.647-2.279,4.053c-0.208,4.327,0.112,10.357-0.559,10.382
			c-0.241,0.011-0.94-3.304-1.308-7.611C59.369,20.857,59.899,14.363,64.713,10.51z"/>
	</g>
	<path id="fillSkinColorBase_1_" display="inline" fill="#F9D7B9" d="M58.918,90.357c-0.596,0.381-1.307,3.735-1.734,5.879
		c0.01,0.009,0.017,0.014,0.027,0.02c-0.404,1.328-0.351,2.861,0.119,4.158c0.439,1.209,2.12,0.393,1.684-0.809
		c-0.252-0.69-0.325-1.709-0.127-2.508c0.092,0.021,0.18,0.043,0.26,0.062c-0.017,1.487,0.002,2.993,0.396,4.442
		c0.417,1.553,2.685,1.013,2.261-0.55c-0.321-1.185-0.343-2.397-0.327-3.612c0.049,1.525,0.307,3.107,0.992,4.437
		c0.741,1.431,2.715,0.144,1.982-1.274c-0.177-0.341-0.309-0.701-0.413-1.07c-0.192-0.692-0.285-1.406-0.322-2.123
		c-0.042-0.891-0.103-1.826,0.261-2.649c0.087-0.2,0.177-0.413,0.316-0.571c0.171-0.188,0.387-0.236,0.619-0.285
		c0.146-0.028,0.513-0.146,0.645-0.016c0.35,0.344,0.812,0.563,1.2,0.854c0.459,0.346,1.136,0.051,1.371-0.425
		c0.127-0.254,0.151-0.551,0.073-0.828c-0.11-0.396-0.515-0.709-0.793-0.971c-0.316-0.295-0.65-0.565-1.025-0.763
		c-0.605-0.321-1.235-0.589-1.851-0.888c-0.093-0.043-1.906-0.592-2.419-0.715c-0.01-0.002-0.022-0.008-0.033-0.01
		c-0.022-0.007-0.488-0.099-0.706-0.136c-0.139-0.022-0.279-0.043-0.423-0.055C60.213,89.893,59.556,89.949,58.918,90.357z"/>
	<path display="inline" fill="#F9D7B9" d="M64.911,59.899c1.814-2.673,6.161,0.099,4.353,2.764
		c-6.38,9.403-5.46,18.007-5.039,29.097c0.122,3.229-5.99,3.336-6.11,0.122C57.661,79.909,58.045,70.016,64.911,59.899z"/>
	<path id="fillClothesUpperColorBase_20_" display="inline" fill="#C74541" d="M59.762,65.721c1.035,1.074,5.891,3.625,7.258,4.269
		c0.402-0.698,1.917-2.7,2.116-2.973c1.15-1.582,2.542-10.237-0.142-11.146c-0.801-0.27-1.896,0.319-2.981,0.885
		c0,0-1.739,0.781-3.48,3.972C62.032,61.647,60.95,63.314,59.762,65.721z"/>
	<path id="fillSkinColorBase_2_" display="inline" fill="#F9D7B9" d="M92.143,90.328c-0.144,0.012-0.283,0.031-0.422,0.055
		c-0.219,0.037-0.685,0.129-0.707,0.135c-0.011,0.004-0.022,0.008-0.033,0.01c-0.513,0.123-2.326,0.673-2.418,0.716
		c-0.615,0.299-1.246,0.565-1.852,0.888c-0.375,0.196-0.709,0.469-1.025,0.764c-0.277,0.262-0.683,0.573-0.793,0.97
		c-0.078,0.276-0.054,0.575,0.073,0.829c0.235,0.475,0.912,0.77,1.371,0.424c0.388-0.292,0.851-0.51,1.2-0.854
		c0.132-0.132,0.499-0.015,0.645,0.016c0.232,0.048,0.448,0.096,0.619,0.283c0.141,0.16,0.229,0.373,0.316,0.572
		c0.363,0.823,0.303,1.76,0.261,2.649c-0.037,0.717-0.13,1.431-0.321,2.123c-0.104,0.37-0.236,0.729-0.414,1.069
		c-0.731,1.418,1.241,2.705,1.982,1.275c0.686-1.328,0.943-2.91,0.992-4.436c0.016,1.215-0.006,2.428-0.327,3.611
		c-0.424,1.563,1.844,2.104,2.261,0.551c0.395-1.449,0.413-2.955,0.396-4.443c0.08-0.02,0.168-0.041,0.26-0.063
		c0.197,0.799,0.125,1.817-0.127,2.508c-0.438,1.201,1.244,2.019,1.684,0.81c0.471-1.297,0.523-2.83,0.119-4.158
		c0.012-0.006,0.018-0.011,0.027-0.02c-0.428-2.144-1.139-5.498-1.734-5.878C93.538,90.324,92.881,90.268,92.143,90.328z"/>
	<path display="inline" fill="#F9D7B9" d="M88.184,60.274c-1.813-2.673-6.16,0.099-4.353,2.764c6.38,9.403,5.46,18.007,5.039,29.097
		c-0.122,3.229,5.989,3.336,6.11,0.122C95.434,80.284,95.049,70.391,88.184,60.274z"/>
	<path id="fillClothesUpperColorBase_21_" display="inline" fill="#C74541" d="M90.563,61.104c-1.742-3.19-3.48-3.972-3.48-3.972
		c-1.085-0.566-2.182-1.155-2.98-0.885c-2.686,0.909-0.141,11.072,1.01,12.654c0.199,0.272,0.562,0.766,0.964,1.464
		c1.366-0.644,6.224-3.195,7.259-4.269C92.145,63.689,91.063,62.022,90.563,61.104z"/>
</g>
<g id="Female" display="none">
	<g display="inline">
		<g>
			<g id="fhb1">
				<path id="fillHairColorBase_6_" fill="#4D2E15" d="M75.412,4.912C56.561,5.293,54.411,19.73,55.779,39.453
					c0.888,12.806-0.488,24.823-0.488,24.823l3.81,1.252c0,0,24.029,5.098,36.338-1.828l-0.195-40.796
					C95.243,22.904,94.461,4.527,75.412,4.912z"/>
			</g>
			<g id="fbo2">
				<path id="fillSkinColorBase_19_" fill="#F9D7B9" d="M68.59,129.063l2.981-23.525c-0.691-2.212-7.662-0.434-7.662-0.434
					s-0.967,14.916-0.896,23.885C64.992,129.706,66.661,129.54,68.59,129.063z"/>
				<path id="fillSkinColorBase_18_" fill="#F9D7B9" d="M82.128,128.404c0.8-9.37,2.556-23.879,2.556-23.879
					s-6.904-2.483-8.051-0.254c0,0,0.053,14.453-0.01,24.271C78.42,128.879,80.343,128.798,82.128,128.404z"/>
				<path id="fillSkinColorBase_16_" fill="#F9D7B9" d="M83.754,55.134l-5.602-2.866l0.191-3.271L72.09,49.19l0.097,2.789
					l-5.031,2.861c0,0-2.047,10.048,7.413,10.048C83.764,64.889,83.896,62.204,83.754,55.134z"/>
				<path id="fillSkinColorShade_1_" fill="#E1C3A9" d="M78.188,51.086l0.156-2.087L72.09,49.15l0.12,2.033
					C74.215,51.438,76.182,51.392,78.188,51.086z"/>
				<path id="fillSkinColorBase_15_" fill="#F9D7B9" d="M83.063,83.014c-0.705-1.988-1.396-5.738-1.602-7.044
					c-0.428-2.7-0.711-5.824,0.428-7.245c1.135-1.423,1.846-2.704,1.135-6.82c0,0,2.26-3.384,2.703-3.885
					c0,0-0.963-2.354-4.082-3.952c-4.719,3.789-8.615,5.92-13.525,0.234c-1.743,1.089-3.779,1.993-4.861,3.072l3.569,4.812
					c0,0-2.131,3.553,1.563,7.531c0,0,1.609,3.042-0.291,9.34c0,0-0.798,1.948-1.599,4.099C72.029,85.329,77.8,85.807,83.063,83.014
					z"/>
				<path id="fillSkinColorBase_14_" fill="#F9D7B9" d="M66.938,82.184c0,0-2.679,1.758-3.03,22.924l7.662,0.434l1.42-7.909h2.857
					c0,0,0.604,4.966,0.604,8.05l8.119-0.063c0,0,2.043-17.175-1.729-23.349L66.938,82.184z"/>
			</g>
			<g id="uhd2_1_">
				<g>
					<path id="fillSkinColorBase_12_" fill="#F9D7B9" d="M90.061,22.408c-0.138-0.778-0.289-1.55-0.449-2.315
						c-1.424-6.797-8.029-9.251-13.861-9.157C62.055,11.16,59.558,22.097,59.558,22.097S54.51,50.121,75.749,50.186
						c2.864,0.011,6.077-0.602,8.547-2.218c3.789-2.484,5.479-6.74,6.201-11.273C91.243,31.999,90.889,27.104,90.061,22.408z"/>
					<path id="fillSkinColorBase_7_" fill="#F9D7B9" d="M91.123,29.845c-0.098-0.093-0.203-0.211-0.311-0.341
						c0.014,2.937-0.295,5.924-0.789,8.861C96.355,34.241,91.123,29.845,91.123,29.845z"/>
					<path id="fillSkinColorBase_6_" fill="#F9D7B9" d="M59.733,29.845c0.096-0.093,0.201-0.211,0.311-0.341
						c-0.014,2.937,0.295,5.924,0.789,8.861C54.501,34.241,59.733,29.845,59.733,29.845z"/>
				</g>
			</g>
			<g id="uey3_1_">
				<path fill="#543318" d="M86.605,31.205c0.015-0.119,0.031-0.242,0.031-0.363c-0.005-1.417-1.016-2.559-2.263-2.559
					c-1.247,0.002-2.258,1.149-2.254,2.563c0,0.038,0.007,0.074,0.008,0.111C83.703,30.602,85.186,30.753,86.605,31.205z"/>
				<path fill="#543318" d="M65.082,31.205c-0.015-0.119-0.03-0.242-0.03-0.363c0.003-1.417,1.017-2.559,2.262-2.559
					c1.248,0.002,2.257,1.149,2.256,2.563c0,0.038-0.007,0.074-0.009,0.111C67.985,30.602,66.502,30.753,65.082,31.205z"/>
			</g>
			<g id="umo3_1_">
				<path fill="#F5F5F5" d="M79.152,41.915c-3.928,1.851-7.057,0.036-7.057,0.036s0.619,4.494,3.465,4.494
					C78.406,46.444,79.152,41.915,79.152,41.915z"/>
			</g>
			<g id="ueb2_2_">
				
					<path id="StrokeEyebrowColorBase_7_" fill="none" stroke="#816951" stroke-width="1.0558" stroke-linecap="round" stroke-linejoin="round" stroke-miterlimit="10" d="
					M69.971,23.785c0,0-4.245-1.034-6.322,1.933"/>
				
					<path id="StrokeEyebrowColorBase_6_" fill="none" stroke="#816951" stroke-width="1.0558" stroke-linecap="round" stroke-linejoin="round" stroke-miterlimit="10" d="
					M81.221,23.955c0,0,4.12-1.445,6.479,1.303"/>
			</g>
			<g id="fsh2_1_">
				<g>
					<path id="fillShoesColorBase" fill="#535763" d="M81.834,141.549l2.9,0.317c0.5,0.163,1,0.321,1.502,0.479
						c0.697,0.218,1.467,0.271,2.063,0.731c0.537,0.418,1.188,1.303,0.24,1.673c0,0-1.47,0.567-4.612,0.247
						c-3.141-0.321-5.783-0.643-7.795-0.471c0,0-0.17-1.336,0.135-2.676L81.834,141.549z"/>
					<path id="fillShoesColorTint_1_" fill="#7C7B83" d="M85.38,143.271c-0.754-0.479-0.81-0.938-0.522-1.367
						c0.459,0.148,0.918,0.297,1.379,0.438c0.697,0.217,1.467,0.27,2.063,0.732c0.109,0.084,0.227,0.189,0.329,0.307
						C87.518,144.366,86.452,143.661,85.38,143.271z"/>
					<path fill="#AAA6BA" d="M88.992,144.342c-0.055,0.161-0.192,0.305-0.455,0.405c0,0-1.469,0.567-4.612,0.245
						c-3.14-0.32-5.854-0.626-7.864-0.453c0,0,0.02-0.188-0.037-0.461C80.604,143.831,83.27,145.171,88.992,144.342z"/>
					<path fill="#F9D7B9" d="M82.829,119.038c0.424,0.679-2.036,20.235-1.413,20.675c1.014,0.717,2.279,1.702,3.4,2.193
						c-1.352,1.482-3.51,1.098-5.207,0.729c-0.27-0.059-3.316-0.553-3.275-0.706c0.866-2.199-0.118-22.296,0.118-23.179
						c0.007-0.019,2.729-0.969,2.959-0.972C80.221,117.771,82.457,118.443,82.829,119.038z"/>
				</g>
				<g>
					<path id="fillShoesColorBase_1_" fill="#535763" d="M61.749,141.191l-2.899,0.315c-0.5,0.164-1.001,0.322-1.503,0.482
						c-0.697,0.217-1.466,0.267-2.062,0.729c-0.537,0.415-1.188,1.305-0.238,1.672c0,0,1.468,0.565,4.609,0.245
						c3.142-0.321,5.784-0.643,7.795-0.468c0,0,0.169-1.338-0.133-2.677L61.749,141.191z"/>
					<path id="fillShoesLowerColorTint" fill="#7C7B83" d="M58.205,142.915c0.754-0.478,0.811-0.938,0.523-1.368
						c-0.459,0.15-0.92,0.297-1.381,0.439c-0.697,0.218-1.465,0.27-2.062,0.731c-0.109,0.087-0.222,0.19-0.326,0.306
						C56.065,144.01,57.132,143.305,58.205,142.915z"/>
					<path id="_x3C_Path_x3E_" fill="#AAA6BA" d="M54.592,143.984c0.053,0.16,0.191,0.304,0.455,0.404c0,0,1.467,0.567,4.608,0.245
						c3.142-0.319,5.857-0.625,7.868-0.452c0,0-0.019-0.188,0.038-0.461C62.98,143.475,60.315,144.814,54.592,143.984z"/>
					<path fill="#F9D7B9" d="M63.255,118.915c-0.424,0.675-0.233,19.971-0.856,20.407c-1.012,0.714-2.511,1.729-3.631,2.226
						c1.351,1.481,3.509,1.097,5.207,0.729c0.268-0.057,3.315-0.553,3.275-0.705c-0.359-2.508,2.857-22.09,2.619-22.973
						c-0.004-0.018-3.088-1.016-3.318-1.018C65.741,117.576,63.625,118.32,63.255,118.915z"/>
				</g>
			</g>
			<g id="flo1_2_">
				<path id="fillClothesLowerColorBase_3_" fill="#535763" d="M82.268,131.861c0.43-6.989,2.26-26.313,2.26-26.313
					S86.57,88.311,82.8,82.135l-16.084-0.05c0,0-2.679,1.758-3.029,22.924c0,0-0.95,18.994-1.51,26.97
					c1.98,0.927,4.571,0.86,6.229-0.271l4.564-33.826l2.614-0.084l0.796,34.117C78.266,132.885,80.502,132.702,82.268,131.861z"/>
				<path id="fillClothesLowerColorShade_3_" fill="#474B55" d="M83.455,83.454c-0.195-0.479-0.413-0.922-0.655-1.318l-16.084-0.051
					c0,0-0.434,0.287-0.976,2.009C71.443,86.951,78.223,86.857,83.455,83.454z"/>
			</g>
			<g id="fup1_1_">
				<path id="fillClothesUpperColorBase_26_" fill="#D6453F" d="M84.576,62.507c0,0,0.908-4.284,1.423-4.794
					c0,0-0.312-1.252-3.063-3.149c-1.076-0.74-2.186-1.188-3.465-1.69c-0.976,2.749-2.242,6.067-4.456,8.403
					c0.061,0.118-2.986-5.637-3.969-8.4c-2.111,0.541-6.875,2.026-8.641,4.772l3.431,5.147c0,0-2.466,3.628,1.809,7.694
					c0,0,1.315,3.629-0.986,9.729c-0.439,1.16-0.796,2.624-1.32,3.756c6.444,2.483,13.259,2.51,19.403,0.117
					c-0.917-2.252-1.699-5.66-1.977-7.213c-0.496-2.758-0.824-5.955,0.492-7.403C84.576,68.023,85.398,66.717,84.576,62.507z"/>
				<path id="fillClothesUpperColorShade_13_" fill="#B03833" d="M75.017,64.842l1.084-3.371l-1.047-0.268l-1.11-3.294l-0.07,0.018
					l-1.841-5.406l0.046-1.106l-1.913,1.456c-0.013,2.468-0.331,7.951-0.331,7.951l3.765-1.198l0.867,2.025l1.233-0.024
					L75.017,64.842z M75.023,61.268l1.318-3.359l0.069,0.018l1.84-5.406l0.292-1.058l1.573,1.404c0.012,2.467,0.33,7.951,0.33,7.951
					l-3.762-1.198L75.023,61.268z"/>
				<path id="fillClothesUpperColorBase_25_" fill="#D6453F" d="M71.993,52.062l1.952,5.847l-3.67,1.767c0,0,0.648-4.118-0.079-6.7
					l1.902-1.613L71.993,52.062z M78.409,52.034l-2.065,5.874l3.672,1.766c0,0-0.649-4.117,0.077-6.699l-1.502-1.533L78.409,52.034z
					"/>
			</g>
			<g id="fhf1">
				<path id="fillHairColorBase_5_" fill="#4D2E15" d="M93.346,30.274c0.002,0-0.604-21.403-13.943-21.902
					c-6.096-3.539-14.307-0.784-17.816,5.053C49.023,34.317,59.631,39.22,59.631,39.22c3.671-18.058,16.909-21.786,22.893-22.542
					C85.3,22.608,89.38,29.64,93.346,30.274z"/>
			</g>
		</g>
		<path id="fillSkinColorBase_22_" fill="#F9D7B9" d="M57.47,90.084c-0.596,0.38-1.307,3.734-1.734,5.878
			c0.01,0.009,0.017,0.015,0.027,0.021c-0.404,1.328-0.351,2.86,0.119,4.158c0.439,1.209,2.12,0.393,1.684-0.81
			c-0.252-0.69-0.325-1.709-0.127-2.508c0.092,0.021,0.18,0.043,0.26,0.062c-0.017,1.488,0.002,2.994,0.396,4.443
			c0.417,1.553,2.685,1.012,2.261-0.551c-0.321-1.185-0.343-2.396-0.327-3.611c0.049,1.525,0.307,3.107,0.992,4.436
			c0.741,1.431,2.715,0.144,1.982-1.274c-0.177-0.341-0.309-0.7-0.413-1.07c-0.192-0.692-0.285-1.405-0.322-2.123
			c-0.042-0.891-0.103-1.825,0.261-2.649c0.087-0.199,0.177-0.412,0.316-0.571c0.171-0.188,0.387-0.236,0.619-0.284
			c0.146-0.029,0.513-0.146,0.645-0.016c0.35,0.344,0.812,0.562,1.2,0.854c0.459,0.346,1.136,0.051,1.371-0.424
			c0.127-0.254,0.151-0.552,0.073-0.829c-0.11-0.396-0.515-0.708-0.793-0.97c-0.316-0.295-0.65-0.566-1.025-0.764
			c-0.605-0.32-1.235-0.588-1.851-0.888c-0.093-0.043-1.906-0.592-2.419-0.715c-0.01-0.002-0.022-0.007-0.033-0.01
			c-0.022-0.007-0.488-0.099-0.706-0.136c-0.139-0.022-0.279-0.043-0.423-0.055C58.765,89.617,58.107,89.675,57.47,90.084z"/>
		<path fill="#F9D7B9" d="M62.623,58.565c1.628-2.774,5.847-0.402,4.189,2.417c-5.829,9.92-6.341,18.472-5.767,30.282
			c0.173,3.564-4.257,3.627-4.389,0.139C56.178,78.895,56.483,69.032,62.623,58.565z"/>
		<path id="fillClothesUpperColorBase_30_" fill="#D6453F" d="M59.076,65.712c0.956,1.056,3.803,2.948,5.173,3.655
			c0.442-0.665,0.835-1.131,1.053-1.39c1.266-1.514,4.35-11.572,1.519-12.384c-0.825-0.235-1.974,0.366-3.096,0.938
			c0,0-1.247,0.312-2.801,3.862C60.284,62.043,59.498,63.097,59.076,65.712z"/>
		<path id="fillSkinColorBase_21_" fill="#F9D7B9" d="M89.667,89.68c-0.144,0.012-0.284,0.03-0.423,0.055
			c-0.219,0.037-0.684,0.129-0.706,0.135c-0.011,0.003-0.022,0.008-0.033,0.01c-0.513,0.123-2.325,0.672-2.419,0.715
			c-0.615,0.299-1.245,0.566-1.852,0.889c-0.375,0.195-0.709,0.468-1.024,0.763c-0.278,0.262-0.683,0.573-0.793,0.97
			c-0.078,0.277-0.054,0.575,0.073,0.829c0.234,0.476,0.912,0.771,1.371,0.424c0.388-0.292,0.851-0.51,1.199-0.854
			c0.133-0.132,0.5-0.015,0.646,0.016c0.231,0.048,0.448,0.097,0.619,0.284c0.14,0.159,0.229,0.372,0.315,0.572
			c0.363,0.822,0.303,1.759,0.262,2.648c-0.037,0.717-0.131,1.432-0.322,2.123c-0.104,0.37-0.236,0.73-0.413,1.07
			c-0.731,1.418,1.241,2.705,1.981,1.275c0.687-1.328,0.943-2.91,0.992-4.437c0.017,1.215-0.006,2.429-0.326,3.612
			c-0.424,1.562,1.844,2.103,2.261,0.55c0.396-1.449,0.413-2.955,0.396-4.443c0.08-0.02,0.168-0.04,0.26-0.062
			c0.199,0.799,0.125,1.816-0.127,2.508c-0.437,1.201,1.244,2.018,1.685,0.809c0.47-1.297,0.522-2.83,0.119-4.158
			c0.011-0.006,0.018-0.01,0.026-0.02c-0.428-2.143-1.139-5.498-1.733-5.878C91.063,89.675,90.404,89.617,89.667,89.68z"/>
		<path fill="#F9D7B9" d="M86.547,58.565c-1.628-2.774-5.847-0.402-4.189,2.417c5.83,9.92,6.343,18.472,5.768,30.282
			c-0.173,3.564,4.258,3.627,4.391,0.139C92.992,78.895,92.688,69.032,86.547,58.565z"/>
		<path id="fillClothesUpperColorBase_29_" fill="#D6453F" d="M88.245,60.394c-1.554-3.55-2.802-3.862-2.802-3.862
			c-1.121-0.572-2.271-1.174-3.096-0.938c-2.83,0.813,0.254,10.87,1.521,12.384c0.217,0.259,0.61,0.726,1.053,1.39
			c1.37-0.707,4.218-2.599,5.173-3.655C89.672,63.097,88.887,62.043,88.245,60.394z"/>
	</g>
</g>
<g id="eyebrows2" display="none">
	<g id="ueb2" display="inline">
		
			<path id="StrokeEyebrowColorBase_1_" fill="none" stroke="#816951" stroke-width="5.1394" stroke-linecap="round" stroke-linejoin="round" stroke-miterlimit="10" d="
			M47.239,70.807c0,0-20.662-5.03-30.775,9.407"/>
		
			<path id="StrokeEyebrowColorBase_4_" fill="none" stroke="#816951" stroke-width="5.1394" stroke-linecap="round" stroke-linejoin="round" stroke-miterlimit="10" d="
			M132.732,80.214c-10.114-14.438-30.775-9.407-30.775-9.407"/>
	</g>
</g>
<g id="eyebrows1" display="none">
	<g id="eb1" display="inline">
		
			<path id="StrokeEyebrowColorBase_3_" fill="none" stroke="#816951" stroke-width="5.0953" stroke-linecap="round" stroke-linejoin="round" stroke-miterlimit="10" d="
			M48.486,78.71c0,0-18.577-9.966-31.873,1.383"/>
		
			<path id="StrokeEyebrowColorBase_2_" fill="none" stroke="#816951" stroke-width="5.0953" stroke-linecap="round" stroke-linejoin="round" stroke-miterlimit="10" d="
			M102.443,79.117c0,0,18.308-10.45,31.896,0.539"/>
	</g>
</g>
<g id="Mouths" display="none">
	<g id="Mouth_1" display="inline">
		
			<path fill="none" stroke="#816951" stroke-width="18.4529" stroke-linecap="round" stroke-linejoin="round" stroke-miterlimit="10" d="
			M13.334,69.625c0,0,49.156,26.02,123.332-0.631"/>
	</g>
	<g id="Mouth_2" display="inline">
		
			<path fill="none" stroke="#816951" stroke-width="18.4529" stroke-linecap="round" stroke-linejoin="round" stroke-miterlimit="10" d="
			M13.334,58.421c0,0,58.65,76.447,123.332-0.632"/>
	</g>
	<g id="Mouth_3" display="inline">
		<path fill="#F5F5F5" d="M136.666,35.352C68.109,67.851,13.334,36.237,13.334,36.237s10.994,78.516,60.736,78.412
			C123.797,114.544,136.666,35.352,136.666,35.352z"/>
	</g>
</g>
<g id="eyes" display="none">
	<g id="Eyes1" display="inline">
		<path fill="#543318" d="M136.665,76.516c-0.019,8.024-5.771,14.524-12.856,14.512c-7.066-0.01-12.81-6.521-12.799-14.547
			c0.018-8.026,5.774-14.521,12.85-14.513C130.939,61.979,136.673,68.49,136.665,76.516z"/>
		<path fill="#543318" d="M39.38,76.021c-0.017,8.022-5.771,14.521-12.857,14.512c-7.07-0.006-12.811-6.521-12.796-14.551
			c0.017-8.021,5.774-14.521,12.847-14.51C33.654,61.483,39.386,67.999,39.38,76.021z"/>
	</g>
	<g id="Eyes2" display="inline">
		<g>
			<path fill="#543318" d="M36.666,84.842c1.601-2.421,2.584-5.393,2.589-8.646c0.011-8.021-5.722-14.535-12.804-14.55
				c-7.076-0.006-12.833,6.489-12.847,14.515c-0.006,3.586,1.18,6.824,3.079,9.363C21.933,83.759,29.787,82.141,36.666,84.842z"/>
		</g>
		<g>
			<path fill="#543318" d="M113.337,84.842c-1.604-2.421-2.582-5.393-2.588-8.646c-0.013-8.021,5.719-14.535,12.806-14.55
				c7.074-0.006,12.832,6.489,12.842,14.515c0.006,3.586-1.174,6.824-3.072,9.363C128.07,83.759,120.217,82.141,113.337,84.842z"/>
		</g>
		<g>
			<path fill="#543318" d="M36.666,84.842c1.601-2.421,2.584-5.393,2.589-8.646c0.011-8.021-5.722-14.535-12.804-14.55
				c-7.076-0.006-12.833,6.489-12.847,14.515c-0.006,3.586,1.18,6.824,3.079,9.363C21.933,83.759,29.787,82.141,36.666,84.842z"/>
		</g>
	</g>
	<g id="Eyes3" display="inline">
		<path fill="#543318" d="M136.23,78.223c0.09-0.68,0.172-1.357,0.166-2.063c-0.01-8.025-5.771-14.521-12.846-14.515
			c-7.086,0.015-12.814,6.529-12.805,14.55c0,0.218,0.04,0.422,0.049,0.633C119.75,74.8,128.167,75.661,136.23,78.223z"/>
		<path fill="#543318" d="M14.006,78.223c-0.087-0.68-0.169-1.357-0.166-2.063c0.017-8.025,5.771-14.521,12.847-14.515
			c7.082,0.015,12.813,6.529,12.805,14.55c0,0.218-0.041,0.422-0.048,0.633C30.49,74.8,22.072,75.661,14.006,78.223z"/>
	</g>
</g>
<g id="female_uppers" display="none">
	<g id="fup3" display="inline">
		<path id="fillClothesUpperColorBase_4_" fill="#5E886C" d="M94.659,3.214c-2.11,1.485-7.505,10.472-19.807,9.95
			c-7.266-0.307-11.393-3.279-17.034-9.846c-6.232,3.684-11.187,7.371-13.112,9.253l9.536,13.185c0,0-5.777,9.629,4.235,20.414
			c0,0,3.086,9.631-2.31,25.808c0,0-7.318,16.564-9.247,27.347l-3.462,43.522c0,0,30.43,8.858,60.468,0
			c0,0,2.249-41.147-1.542-53.152c0-1.536-6.889-19.282-8.044-26.604c-1.16-7.316-1.714-15.404,1.364-19.256
			c3.079-3.859,4.976-7.226,3.05-18.393c0,0,6.584-10.461,7.786-11.817C106.538,13.623,102.048,6.908,94.659,3.214z"/>
	</g>
	<g id="fup2" display="inline">
		<path id="fillClothesUpperColorBase_5_" fill="#FCE75D" d="M146.755,97.771c-1.772-20.488-3.685-42.508-4.315-49.5
			c-1.146-12.819-3.613-15.212-4.594-15.648c-0.027-0.019-0.049-0.031-0.082-0.051c-1.938-2.932-5.81-7.487-12.72-11.028
			l-0.504-0.255l-0.446,0.356c-8.91,9.101-15.057,13.014-25.001,12.536c-6.694-0.321-13.243-3.803-19.997-11.625l-0.488-0.571
			l-0.639,0.402c-1.941,1.212-4.014,2.371-6.016,3.492c-4.144,2.311-8.057,4.502-10.624,7.025
			C58.614,34.778,41.916,46.06,33.184,46.23c-0.089-0.016-8.972-1.706-17.661-7.622l-0.82-0.557l-0.456,0.877
			c-2.324,4.492-5.614,7.883-10.056,10.375l-1.078,0.604l0.924,0.817c2.522,2.232,5.229,4.514,8.044,6.786
			c5.211,4.207,11.75,6.333,19.442,6.333c0.002,0,0,0,0,0c17.83,0,36.466-11.201,41.101-14.176l0.366,0.494
			c-1.237,2.553-5.672,13.882,5.64,26.142c0.503,1.064,4.894,11.275-1.073,31.071c-0.027,0.07-2.786,6.255-5.498,13.525
			l-0.795,1.285l1.32,0.338c10.445,4.106,20.514,6.188,29.919,6.188h0.001c9.783,0,19.053-2.078,27.453-6.534l1.107-0.618
			l-0.705-0.843c-1.51-4.264-4.401-16.993-5.463-23.698c-1.276-8.063-2.524-19.324,1.277-24.078c0.639-0.803,1.24-1.592,1.792-2.425
			c0.769,4.24,1.735,12.484,2.89,28.242l0.086,1.216l1.127-0.474c2.486-1.038,5.396-1.604,8.223-1.604
			c1.924,0,3.725,0.256,5.35,0.771l1.25,0.396L146.755,97.771z"/>
		<path id="fillClothesUpperColorShade_1_" fill="#E6D456" d="M6.836,47.591c-0.839,0.608-1.716,1.182-2.651,1.708l-1.077,0.603
			l0.925,0.817c2.521,2.232,5.227,4.515,8.044,6.788c5.209,4.205,11.748,6.333,19.442,6.333l0,0c16.066,0,34.523-9.89,41.064-13.867
			c0.911-2.19,1.901-4.605,3.513-6.089C54.676,56.225,22.889,72.395,6.836,47.591z M133.407,84.839
			c-1.242-9.034-1.55-17.561-1.925-28.074c-0.392,2.525-0.026,7.833-1.215,8.985c-0.097,0.188-0.201,0.36-0.289,0.545
			c0.088-0.182,0.192-0.348,0.285-0.542c-0.188,0.405-0.396,0.784-0.604,1.142c-0.707,1.352-0.707,1.352-0.005,0
			c-6.413,10.791-23.366,0.695-32.891,2.228c-4.658,0.749-8.306,4.022-13.293,2.993c-4.203-0.87-10.763-3.662-11.833-8.416
			c0.861,3.831,2.879,8.153,6.984,12.606c0.253,0.543,1.491,3.399,1.897,8.637c12.184-5.444,22.439-12.439,43.106-0.18
			c-0.097-4.81,0.483-9.244,2.526-11.801c0.639-0.802,1.238-1.597,1.793-2.433c0.556,3.129,1.231,8.446,2.012,17.351
			c0.271,3.165,0.563,6.766,0.855,10.896l0.097,1.209l1.125-0.469c1.088-0.451,2.263-0.798,3.473-1.064
			C134.314,95.771,133.809,87.739,133.407,84.839z M125.514,72.849c0.26-0.275,0.495-0.595,0.75-0.888
			C126.009,72.253,125.775,72.573,125.514,72.849z"/>
	</g>
	<g id="fup1" display="inline">
		<path id="fillClothesUpperColorBase_3_" fill="#D6453F" d="M48.584,19.012c-0.749,0-1.492-0.528-2.333-1.115
			c-0.924,0.526-1.852,1.049-2.764,1.561c-4.987,2.789-9.868,4.944-12.96,7.974c-1.398,0.968-6.188,3.696-11.686,6.875
			c1.364,8.431,8.051,14.728,13.427,20.544c5.676-2.815,9.988-5.454,12.027-6.754l0.38,0.5C52.79,40.002,57.56,27.988,48.584,19.012
			z"/>
		<path id="fillClothesUpperColorBase_2_" fill="#D6453F" d="M109.459,67.643l1.979-0.168c5.881-1.96,13.58-2.11,19.724-7.19
			c-0.54-6.204-0.979-11.145-1.233-13.989c-1.382-15.428-4.277-18.456-5.449-18.982c-0.037-0.022-0.146,0.118-0.176,0.089
			c-0.514-0.762-2.75-0.996-3.494-1.914C109.271,34.632,107.693,53.522,109.459,67.643z"/>
		<path id="fillClothesUpperColorBase_1_" fill="#D6453F" d="M118.962,49.894c0,0,3.74-17.618,5.853-19.713
			c0,0-1.28-5.146-12.604-12.944c-4.421-3.044-8.984-4.883-14.247-6.953c-4.007,11.307-9.214,24.949-18.313,34.55
			c0.25,0.491-12.276-23.174-16.314-34.54c-8.681,2.224-28.269,8.331-35.528,19.625L41.91,51.085c0,0-10.138,14.919,7.436,31.634
			c0,0,5.41,14.922-4.055,39.997c-1.804,4.771-3.272,10.789-5.424,15.444c26.495,10.213,54.516,10.32,79.775,0.48
			c-3.774-9.258-6.983-23.276-8.127-29.658c-2.031-11.338-3.389-24.479,2.026-30.439C118.962,72.577,122.346,67.203,118.962,49.894z
			"/>
		<path id="fillClothesUpperColorShade" fill="#B03833" d="M79.66,59.497l4.464-13.864l-4.31-1.095l-4.563-13.549l-0.287,0.074
			L67.396,8.838l0.19-4.554l-7.863,5.985c-0.052,10.143-1.364,32.691-1.364,32.691l15.481-4.925l3.561,8.323l5.07-0.099
			L79.66,59.497z M79.686,44.801l5.418-13.812l0.283,0.074l7.566-22.225l1.199-4.352l6.468,5.775
			c0.047,10.143,1.364,32.69,1.364,32.69L86.51,38.026L79.686,44.801z"/>
		<path id="fillClothesUpperColorBase" fill="#D6453F" d="M67.227,6.949l8.024,24.04l-15.09,7.26c0,0,2.665-16.925-0.325-27.546
			l7.819-6.625L67.227,6.949z M93.605,6.832l-8.496,24.156l15.092,7.259c0,0-2.666-16.924,0.326-27.546l-6.176-6.303L93.605,6.832z"
			/>
	</g>
</g>
<g id="Male_Uppers" display="none">
	<g id="mup1" display="inline">
		<path id="fillClothesUpperColorBase_18_" fill="#C74541" d="M124.316,35.866c-1.635-12.446-6.266-17.125-6.266-17.125
			c-2.789-3.175-5.584-6.436-8.501-6.558c-9.771-0.424-3.557,35.88-1.815,42.405c0.303,1.13,0.861,3.177,1.281,5.92
			c5.207-0.369,13.344-2.946,18.012-5.115C126.197,46.163,124.789,39.447,124.316,35.866z"/>
		<path id="fillClothesUpperColorBase_17_" fill="#C74541" d="M70.868,36.299L62.82,12.38l-13.695,0.012L39.731,19.5
			c-0.235,0.185-8.492,6.866-16.76,10.917c0.769,5.975,6.732,14.157,10.792,18.153c7.964-3.056,14.382-5.617,17.646-7.625
			L70.868,36.299z"/>
		<path id="fillClothesUpperColorShade_11_" fill="#BD413D" d="M106.365,47.699c0.52,3.118,1.027,5.593,1.376,6.89
			c0.303,1.13,0.87,3.177,1.284,5.92c3.533-0.25,8.404-1.523,12.637-2.995C115.645,55.642,110.133,51.787,106.365,47.699z"/>
		<path id="fillClothesUpperColorShade_10_" fill="#BD413D" d="M67.111,25.134C57.259,34.907,43.42,42.063,29.524,43.67
			c1.451,1.921,2.941,3.628,4.24,4.904c7.964-3.056,14.382-5.617,17.646-7.624l19.456-4.65L67.111,25.134z"/>
		<path id="fillClothesUpperColorBase_16_" fill="#C74541" d="M115.645,136.945c1.198-89.985-5.324-118.8-4.979-124.661
			c0,0-4.425-1.649-12.303-6.386c-0.787,5.469-1.662,21.201-18.063,20.345c-13.639-0.712-12.423-9.921-15.47-20.121
			c-6.482,2.681-13.878,5.19-15.62,6.447c0,0,1.212,76.281-6.588,122.473c0,0,4.048,2.226,4.017,2.315
			C61.425,147.784,101.839,144.898,115.645,136.945z"/>
		<path id="fillClothesUpperColorShade_9_" fill="#BD413D" d="M113.909,126.434c-14.283,3.571-28.565,3.571-41.062-1.785
			c-19.705-6.148-24.115-24.209-24.958-43.604c-0.966,18.672-2.582,38.123-5.265,53.998c0,0,4.048,2.227,4.017,2.314
			c14.784,10.428,55.202,7.551,69.001-0.406c0.053-3.898,0.088-7.625,0.11-11.291C115.139,125.917,114.527,126.188,113.909,126.434z
			"/>
	</g>
	<g id="mup2" display="inline">
		<path id="fillClothesUpperColorBase_15_" fill="#6B8893" d="M124.316,35.951c-0.635-4.824-1.976-9.533-4.31-13.817
			c-1.854-3.399-5.776-9.598-10.146-9.781c-9.764-0.425-3.867,35.802-2.121,42.327c0.303,1.129,0.869,3.173,1.285,5.917
			c5.205-0.366,13.336-2.943,18.004-5.112C126.197,46.248,124.787,39.532,124.316,35.951z"/>
		<path id="fillClothesUpperColorSahde" fill="#637F89" d="M106.363,47.783c0.52,3.118,1.029,5.593,1.377,6.89
			c0.303,1.13,0.869,3.177,1.285,5.92c3.533-0.25,8.399-1.523,12.635-2.995C115.643,55.726,110.131,51.872,106.363,47.783z"/>
		<path id="fillClothesUpperColorBase_14_" fill="#6B8893" d="M70.867,36.383l-8.048-23.919l-13.489,0.1l-9.6,7.028
			c-0.235,0.185-8.492,6.866-16.76,10.918c0.769,5.975,6.732,14.157,10.792,18.152c7.964-3.056,14.382-5.617,17.646-7.624
			L70.867,36.383z"/>
		<path id="fillClothesUpperColorShade_8_" fill="#637F89" d="M67.109,25.218c-9.852,9.773-23.691,16.929-37.587,18.536
			c1.451,1.921,2.941,3.628,4.24,4.904c7.964-3.056,14.382-5.617,17.646-7.624l19.456-4.65L67.109,25.218z"/>
		<path id="fillClothesUpperColorBase_13_" fill="#6B8893" d="M115.643,137.029c1.199-89.987-5.072-118.521-4.723-124.373
			c0,0-4.684-1.938-12.559-6.674c-3.48,5.199-3.646,5.686-14.865,18.535c-8.945-8.293-12.235-9.988-18.704-18.704
			c-6.482,2.681-13.843,5.583-15.583,6.84c0,0,1.21,76.279-6.587,122.473c0,0,4.047,2.226,4.014,2.315
			C61.424,147.868,101.838,144.982,115.643,137.029z"/>
		<path id="fillClothesUpperColorShade_7_" fill="#637F89" d="M76.416,131.874c3.57,0,5.355,0,7.141-1.785
			C51.863,118.995,51.115,84.001,48.85,56.291c-0.666,24.895-2.312,55.656-6.228,78.835c0,0,4.048,2.226,4.017,2.315
			c14.784,10.427,55.202,7.55,69.003-0.407c0.018-1.302,0.024-2.529,0.041-3.798C102.588,135.641,89.385,135.766,76.416,131.874z"/>
	</g>
	<g id="mup3" display="inline">
		<path id="fillClothesUpperColorBase_11_" fill="#939688" d="M124.316,38.753c-0.635-4.824-1.976-9.533-4.31-13.817
			c-1.854-3.399-5.776-9.598-10.146-9.781c-9.764-0.425-3.867,35.802-2.121,42.327c0.303,1.129,0.869,3.173,1.285,5.917
			c5.205-0.366,13.336-2.943,18.004-5.112C126.197,49.05,124.787,42.334,124.316,38.753z"/>
		<path id="fillClothesUpperColorShade_6_" fill="#84887B" d="M104.418,27.352c-0.363,11.032,2.252,26.138,3.322,30.127
			c0.303,1.13,0.869,3.177,1.285,5.921c2.059-0.147,7.809-2.023,10.391-2.699C118.834,47.508,115.652,34.398,104.418,27.352z"/>
		<path id="fillClothesUpperColorBase_10_" fill="#939688" d="M70.867,39.186l-8.048-23.919l-13.489,0.1l-9.6,7.028
			c-0.235,0.185-8.492,6.866-16.76,10.918c0.769,5.975,6.732,14.157,10.792,18.152c7.964-3.056,14.382-5.617,17.646-7.624
			L70.867,39.186z"/>
		<path id="fillClothesUpperColorShade_4_" fill="#84887B" d="M27.657,43.926c1.979,2.979,4.24,5.701,6.105,7.537
			c7.964-3.056,14.382-5.617,17.646-7.624l19.459-4.653l-5.03-14.949C55.175,35.655,43.019,45.647,27.657,43.926z"/>
		<path id="fillClothesUpperColorBase_9_" fill="#939688" d="M115.643,139.833c1.199-89.986-5.072-118.519-4.723-124.372
			c0,0-4.684-1.937-12.559-6.674c-3.48,5.2-5.947,15.188-17.17,28.037c-8.946-8.296-9.934-19.49-16.399-28.206
			c-6.482,2.681-13.843,5.583-15.583,6.84c0,0,1.21,76.278-6.587,122.472c0,0,4.047,2.226,4.014,2.315
			C61.424,150.671,101.838,147.786,115.643,139.833z"/>
		<path id="fillClothesUpperColorShade_5_" fill="#84887B" d="M95.314,141.484c1.785-1.784,3.567-3.569,5.354-5.354
			c-27.003,11.047-48.099-4.065-54.587-26.192c-0.891,9.91-2.02,19.465-3.46,27.992c0,0,4.047,2.226,4.014,2.315
			c14.788,10.426,55.202,7.545,69.006-0.408c0.01-0.821,0.02-1.604,0.026-2.42C109.035,139.938,102.176,141.484,95.314,141.484z"/>
		<path id="fillClothesUpperColorShade_3_" fill="#84887B" d="M81.402,49.86l3.771-11.72l-3.848-1.033l-3.65-11.345l-0.243,0.063
			L71.034,7.04l0.162-3.852l-6.648,5.06c-0.043,8.575-1.152,27.634-1.152,27.634l13.086-4.164l3.01,7.036l4.285-0.083L81.402,49.86z
			 M81.242,37.157l4.76-11.396l0.24,0.063l6.396-18.788l1.016-3.679l5.465,4.882c0.039,8.574,1.152,27.633,1.152,27.633
			l-13.08-4.163L81.242,37.157z"/>
		<path id="fillClothesUpperColorBase_12_" fill="#939688" d="M70.891,5.439l6.785,20.322l-12.758,6.137
			c0,0,2.252-14.307-0.275-23.286l6.611-5.6L70.891,5.439z M93.189,5.34l-7.183,20.419l12.759,6.138c0,0-2.254-14.308,0.271-23.286
			L93.82,3.283L93.189,5.34z"/>
	</g>
	<g id="mup4" display="inline">
		<path id="fillClothesUpperColorBase_8_" fill="#E1DEE0" d="M131.271,38.757c-0.635-4.824-1.975-9.533-4.31-13.817
			c-1.854-3.399-5.776-9.598-10.146-9.781c-9.767-0.425-3.866,35.802-2.121,42.327c0.303,1.129,1.291,39.188,1.703,41.934
			c5.207-0.371,13.34-2.947,18.008-5.109C133.574,85.066,131.742,42.338,131.271,38.757z"/>
		<path id="fillClothesUpperColorBase_7_" fill="#E1DEE0" d="M77.82,39.189L69.773,15.27l-13.489,0.1l-9.6,7.028
			c-0.235,0.185-19.766,10.937-28.031,14.988c0.769,5.982,0.849,12.523,4.909,16.515c7.965-3.057,31.536-8.043,34.8-10.048
			L77.82,39.189z"/>
		<path id="fillClothesUpperColorShade_2_" fill="#D9D6D9" d="M133.166,73.882c-11.385,1.234-15.336-35.624-12.428-54.373
			c-0.514,0.303-1.057,0.607-1.661,0.91c0.604-0.303,1.147-0.606,1.661-0.91c0.044-0.292,0.076-0.586,0.123-0.875
			c-0.047,0.29-0.079,0.584-0.123,0.875c0.617-0.366,1.188-0.732,1.693-1.097c-1.67-1.789-3.596-3.164-5.615-3.253
			c-9.768-0.425-3.867,35.802-2.121,42.327c0.304,1.129,1.293,39.188,1.705,41.934c5.205-0.371,13.341-2.947,18.006-5.109
			C134.059,90.451,133.691,84.123,133.166,73.882z M71.792,21.267C57.95,34.757,39.019,44.999,19.739,45.631
			c0.606,3.168,1.625,6.09,3.825,8.257c7.964-3.056,31.536-8.042,34.8-10.047l19.457-4.65L71.792,21.267z"/>
		<path id="fillClothesUpperColorTint_1_" fill="#EBE8E9" d="M115.532,78.662c0.37,9.73,0.745,19.422,0.97,20.758
			c5.822-0.371,14.914-2.947,20.135-5.109c-0.328-3.252-0.793-10.67-1.283-19.058C128.939,77.512,122.15,78.881,115.532,78.662z
			 M27.55,30.404c-3.877,2.04-11.552,3.681-14.187,4.959c0.888,6.871,3.585,16.927,8.276,21.523
			c3.162-1.214,8.472-3.891,14.214-5.392C30.824,46.873,27.533,35.054,27.55,30.404z"/>
		<path id="fillClothesUpperColorBase_6_" fill="#E1DEE0" d="M122.598,139.836c1.198-89.985-5.072-118.519-4.724-124.372
			c0,0-4.685-1.937-12.56-6.674c-2.746,4.103-14.949,13.688-14.949,13.688s-1.232,0.815-2.805,5.526
			c-0.941-4.5-0.754-5.003-0.754-5.003s-10.377-8.07-15.063-14.38c-6.482,2.681-13.844,5.583-15.583,6.84
			c0,0,1.21,76.277-6.587,122.471c0,0,4.047,2.228,4.014,2.316C68.378,150.674,108.792,147.789,122.598,139.836z"/>
		<path fill="#C7C6C8" d="M90.68,146.824h0.723L91.941,29.63l-3.85-1.032l-0.34-5.701l-0.417-1.569L78.001,7.042l0.16-3.856
			l-6.648,5.06c-0.043,8.575-1.152,27.634-1.152,27.634l15.725-12.241l0.186,6.62l4.834,0.279L90.68,146.824z M88.01,28.659
			l1.936-7.229l0.209-0.633l9.438-13.754l1.017-3.682l5.467,4.882c0.037,8.574,1.15,27.633,1.15,27.633L90.465,23.21L88.01,28.659z"
			/>
		<path id="fillClothesUpperColorTint" fill="#E8E5E7" d="M78.641,5.413l8.48,15.594l-15.252,10.89c0,0,2.252-14.307-0.275-23.286
			l6.611-5.6L78.641,5.413z M100.145,5.344L89.736,21.328l15.972,10.569c0,0-2.249-14.307,0.278-23.286l-5.219-5.328L100.145,5.344z
			"/>
	</g>
	<g id="mup5_2_" display="inline">
		<path id="fillClothesUpperColorBase_24_" fill="#DDAC0E" d="M143.393,35.771c-0.543-5.008-1.692-9.897-3.697-14.345
			c-1.594-3.53-4.965-9.965-8.719-10.155c-8.385-0.441-3.318,37.17-1.819,43.945c0.262,1.173,3.608,77.615,3.967,80.464
			c4.474-0.386,11.257-3.546,15.267-5.791C147.672,120.293,143.796,39.49,143.393,35.771z"/>
		<path id="fillClothesUpperColorShade_16_" fill="#CB9832" d="M131.861,11.532c-1.326-0.8-0.973,0.233-0.885-0.08
			c-7.957,3.783-3.18,37.633-1.82,43.764c0.262,1.173,3.611,77.615,3.968,80.464c4.472-0.386,11.255-3.546,15.265-5.791
			c-0.068-0.916-0.164-2.486-0.285-4.574C141.695,126.592,136.49,128.451,131.861,11.532z"/>
		<path id="fillClothesUpperColorBase_23_" fill="#DDAC0E" d="M82.205,35.869L78.486,8.726l-16.731,3.718
			c0,0-18.963,38.704-49.451-0.001c-5.636,5.124-6.693,5.949-11.432,8.454c26.532,55.906,65.114,21.092,72.56,17.495L82.205,35.869z
			"/>
		<path id="fillClothesUpperColorShade_15_" fill="#CB9832" d="M3.231,20.388c-0.717,0.188-1.495,0.354-2.359,0.508
			c26.532,55.906,65.114,21.091,72.56,17.493l8.664-2.356l-4.197-15.072C38.805,74.841,6.921,35.947,3.231,20.388z"/>
		<path id="fillClothesUpperColorBase_22_" fill="#DDAC0E" d="M135.92,140.718c-1.661-92.951-5.105-123.174-4.755-129.251
			c0,0-8.28-4.228-17.112-6.458c-1.298,7.706-4.943,19.95-17.937,19.95c-12.99,0-14.015-12.769-15.976-20.124
			c-6.549,2.783-17.561,5.828-19.315,7.133c0,0,1.221,79.197-6.654,127.156c0,0,4.086,2.312,4.055,2.405
			C73.166,152.352,121.975,148.977,135.92,140.718z"/>
		<path id="fillClothesUpperColorShade_17_" fill="#CB9832" d="M79.747,133.547c3.604-1.854,12.625,0.618,14.427-4.943
			c-28.143,3.215-34.586-21.433-34.702-45.232c-0.979,19.293-2.606,39.354-5.301,55.754c0,0,4.086,2.311,4.055,2.4
			c14.939,10.826,63.749,7.455,77.694-0.806c0.023-1.935,0.042-3.808,0.063-5.688C114.697,142.207,94.143,143.695,79.747,133.547z"
			/>
	</g>
</g>
<g id="Head" display="none">
	<path display="inline" fill="#F9D7B9" d="M98.607,121.527l-15.783-7.605l0.544-8.682l-17.619,0.51l0.272,7.408l-14.174,7.59
		c0,0-5.767,26.67,20.882,26.67C98.631,147.418,99.006,140.289,98.607,121.527z"/>
	<path display="inline" fill="#E1C3A9" d="M83.061,110.273l0.389-5.033l-17.622,0.404l0.171,4.647
		C71.821,111.701,77.484,111.482,83.061,110.273z"/>
	<g id="Head2" display="inline">
		<g>
			<path fill="#F9D7B9" d="M113.004,34.675c-0.357-2.063-0.747-4.114-1.163-6.144C108.137,10.483,90.982,3.979,75.833,4.229
				C40.261,4.82,33.778,33.845,33.778,33.845s-13.113,74.374,42.054,74.544c7.441,0.021,15.788-1.601,22.2-5.896
				c9.843-6.595,14.233-17.894,16.106-29.919C116.079,60.125,115.156,47.136,113.004,34.675z"/>
			<path fill="#F9D7B9" d="M115.768,54.414c-0.248-0.248-0.521-0.562-0.808-0.908c0.036,7.797-0.765,15.725-2.048,23.52
				C129.359,66.079,115.768,54.414,115.768,54.414z"/>
			<path fill="#F9D7B9" d="M34.232,54.414c0.248-0.248,0.521-0.562,0.806-0.908c-0.035,7.797,0.766,15.725,2.05,23.52
				C20.641,66.079,34.232,54.414,34.232,54.414z"/>
		</g>
	</g>
</g>
<g id="Head1" display="none">
	<path display="inline" fill="#F9D7B9" d="M97.24,121.527l-14.869-7.605l0.513-8.682l-16.599,0.51l0.257,7.408l-13.353,7.59
		c0,0-5.433,26.67,19.672,26.67C97.262,147.418,97.615,140.289,97.24,121.527z"/>
	<path display="inline" fill="#E1C3A9" d="M82.594,110.273l0.363-5.033l-16.601,0.404l0.161,4.647
		C72.005,111.701,77.342,111.482,82.594,110.273z"/>
	<g id="HEAD_1" display="inline">
		<g>
			<path fill="#F9D7B9" d="M116.799,33.994c2.365,12.461,3.381,25.449,1.247,37.902c-2.062,12.028-6.892,23.327-17.715,29.92
				c-7.054,4.293-16.233,5.912-24.416,5.892c-60.676-0.17-43.334-74.162-43.334-74.162S36.792,4.138,75.915,3.548
				c16.664-0.251,35.53,6.254,39.604,24.302C115.979,29.879,116.406,31.93,116.799,33.994z"/>
			<path fill="#F9D7B9" d="M119.838,53.732c-0.271-0.248-0.572-0.562-0.887-0.908c0.04,7.797-0.844,15.725-2.256,23.52
				C134.788,65.398,119.838,53.732,119.838,53.732z"/>
			<path fill="#F9D7B9" d="M30.163,53.732c0.271-0.248,0.572-0.562,0.886-0.908c-0.04,7.797,0.843,15.725,2.254,23.52
				C15.213,65.398,30.163,53.732,30.163,53.732z"/>
		</g>
	</g>
</g>
</svg>
