<?xml version="1.0" encoding="utf-8"?>
<!-- Generator: Adobe Illustrator 16.0.0, SVG Export Plug-In . SVG Version: 6.00 Build 0)  -->
<!DOCTYPE svg PUBLIC "-//W3C//DTD SVG 1.1//EN" "http://www.w3.org/Graphics/SVG/1.1/DTD/svg11.dtd">
<svg version="1.1" id="Layer_1" xmlns="http://www.w3.org/2000/svg" xmlns:xlink="http://www.w3.org/1999/xlink" x="0px" y="0px"
	 width="150px" height="150px" viewBox="0 0 150 150" enable-background="new 0 0 150 150" xml:space="preserve">
<g id="Shoes">
	<g id="fsh1" display="none">
		<path display="inline" fill="#915944" d="M37.37,94.391c5.184-4.423,17.808-18.535,17.808-18.535
			c0.865-0.763,1.721-1.496,2.575-2.224c19.829,3.836,43.435-14.431,56.204-30.313c0.463-0.069,0.708-0.095,0.708-0.095
			c6.007,8.955-0.532,53.551-0.532,53.551l-8.923,0.058l-3.04-16.697c-15.5,21.7-47.001,26.664-60.182,26.64
			C28.819,106.744,32.203,98.805,37.37,94.391z"/>
	</g>
	<g id="fsh2" display="none">
		<g display="inline">
			<path fill="#535763" d="M29.622,73.078c4.688-3.625,10.724-4.043,16.202-5.745c3.94-1.237,7.87-2.483,11.803-3.767l11.059-1.205
				c16.5,7.771,35.219,9.758,52.312,0.91l3.137,0.17c2.386,10.512,1.052,21.015,1.052,21.015
				c-15.793-1.354-36.558,1.167-61.229,3.688c-24.686,2.521-36.215-1.933-36.215-1.933C20.283,83.313,25.397,76.35,29.622,73.078z"
				/>
			<path id="fillShoesColorTint" fill="#7C7B83" d="M27.063,75.475c0.813-0.923,1.716-1.744,2.575-2.412
				c4.681-3.627,10.716-4.043,16.191-5.746c3.625-1.117,7.234-2.271,10.844-3.442c3.481,5.226,1.068,9.147-3.664,11.616
				C45.396,79.46,31.776,79.665,27.063,75.475z"/>
			<path fill="#AAA6BA" d="M126.057,80.939c-0.449,2.16-0.299,3.625-0.299,3.625c-15.791-1.354-37.113,1.041-61.776,3.562
				c-24.689,2.522-36.218-1.931-36.218-1.931c-2.07-0.795-3.152-1.918-3.575-3.176C69.139,89.533,90.082,79.002,126.057,80.939z"/>
		</g>
	</g>
	<g id="ush1">
		<g>
			<path id="fillShoeColorBase_4_" fill="#78655F" d="M12.692,122.777l119.546-12.537l-3.727-30.502l0.59-34.213
				c2.553-2.131,5.897-3.75,8.34-5.596c2.969-2.228,7.516-5.542,6.752-9.824c-0.625-3.373-5.068-7.292-8.613-5.863
				c-3.254,1.315-5.832,4.141-7.813,7.229c-8.789-0.749-51.99-4.438-51.99-4.427c-0.612,11.831,2.943,25.235-2.126,36.405
				c-0.363,0.802-0.754,1.561-1.185,2.292c-7.241,12.315-16.07,21.252-27.764,27.903c-7.923,4.5-23.053,1.828-33.904,12.907
				C10.799,106.553-0.974,121.614,12.692,122.777z M129.172,40.823l0.074-4.075c1.688-3.213,4.018-6.581,6.977-8.474
				c1.422-0.901,5.592-2.074,4.92,1.2c-0.297,1.453-1.063,2.664-2.084,3.718c-2.619,2.773-5.804,4.886-8.934,7.015
				C129.826,40.409,129.495,40.611,129.172,40.823z"/>
			<path id="fillShoeColorTint_4_" fill="#EEDCB4" d="M37.688,120.15l-31.761-2.606l-0.207,10.103l27.715,2.783
				c34.897-2.262,45.69-9.379,60.783-12.41c0.104,2.008,0.137,3.025,0.188,4.034c0.041,0.999,0.1,2.009,0.183,4.033
				c-0.091-2.024-0.142-3.034-0.183-4.033c0.074,1.591,0.133,3.222-0.055,4.845l41.912-2.039l-1.371-15.42L37.688,120.15z"/>
			<path id="fillShoeColorShade_2_" fill="#715B4A" d="M61.263,75.402c0.713,2.224,2.848,4.115,4.646,5.478
				c0.521,0.369,1.16,0.845,1.832,1.283c0.428,0.458,0.986,0.86,1.584,0.922c0.073,0.009,0.091-0.03,0.148-0.037
				c0.774,0.306,1.563,0.495,2.305,0.306c1.058-0.285-0.152-1.925-0.493-2.262c-2.268-2.27-4.561-4.515-7.089-6.469
				c-0.28-0.236-1.064-0.678-1.521-0.521c-0.385,0-0.754,0.08-1.104,0.236C61.101,74.505,61.139,74.984,61.263,75.402z
				 M57.021,79.318c0.183,0.057,0.331,0.14,0.497,0.223c0.004-0.159,0.024-0.309,0.149-0.425c0.572-0.563,1.712,0.373,2.102,0.759
				c2.182,2.218,5.123,4.839,5.256,8.188c0.033,0.433-0.231,0.742-0.695,0.686c-3.885-0.484-7.061-5.059-8.29-8.471
				C55.75,79.469,56.271,79.096,57.021,79.318z M66.594,69.057c0.078-0.021,0.19,0,0.277,0c0.249-0.358,0.896-0.229,1.298,0.006
				c1.648,0.215,3.034,1.059,4.272,2.334c0.225,0.222,0.432,0.537,0.634,0.804c0.48,0.342,0.979,0.663,1.442,1.022
				c0.456,0.354,1.231,0.938,1.978,1.656c0.054,0.006,0.095,0,0.157,0.021c0.65,0.242,1.145,0.75,1.551,1.334
				c0.049,0.062,0.129,0.148,0.311,0.369c0.262,0.344,0.398,0.705,0.564,1.09c0.203,0.527,0.023,1.121-0.623,1.049
				c-0.012,0-0.057-0.022-0.096-0.022c-0.041,0.095-0.017,0.163-0.074,0.253c-2.387,4.198-11.104-6.787-12.012-8.89
				C66.142,69.792,66.111,69.114,66.594,69.057z M70.668,63.852c0.069,0.234,0.187,0.498,0.438,0.834
				c2.354,3.213,8.137,5.336,12.017,5.312c1.41-0.015,0.281-1.789-0.189-2.261c-3.316-3.293-7.689-5.073-12.286-5.666
				C69.688,61.949,69.992,62.93,70.668,63.852z M75.483,58.075c0.112-0.017,0.258,0.046,0.366,0.04
				c0.189,0.135,0.353,0.29,0.555,0.41c0.88,0.567,1.767,1.072,2.712,1.52c1.819,0.868,3.723,1.341,5.739,1.316
				c1.805-0.018-0.336-2.568-0.989-2.892c-2.951-1.442-5.729-3.271-8.979-3.515c-0.41-0.268-0.879-0.489-1.488-0.589
				c-0.666-0.12-0.725,0.446-0.604,0.942C72.679,56.135,74.394,58.21,75.483,58.075z M73.447,48.966
				c0.456,0.827,1.24,1.505,2.186,1.716c0.34,0.096,0.688,0.16,1.041,0.245c0.7,0.554,1.541,0.987,2.057,1.167
				c1.604,0.561,3.447,1.141,5.177,1.15c1.837,0.008-0.406-2.583-0.99-2.914c-2.812-1.562-5.924-2.083-9.036-2.792
				C72.935,47.313,73.204,48.556,73.447,48.966z M76.01,45.53c2.818,0.781,5.732,1.025,8.598,1.655
				c0.929,0.146,0.681-0.979,0.432-1.453c-0.452-0.824-1.26-1.511-2.186-1.716c-0.812-0.158-1.615-0.332-2.396-0.583
				c-0.397-0.111-0.608-0.069-0.759,0.023c-1.596-0.229-3.172-0.481-4.727-0.922C72.807,41.921,74.815,45.189,76.01,45.53z
				 M75.476,38.143c0.12,0.031,0.24,0.038,0.356,0.071l0.004,0.014c0.93,0.135,1.85,0.381,2.773,0.555c0,0.008,0,0.014,0.008,0.014
				c1.23,0.394,2.412,0.694,3.693,0.709c1.528,0.025,0.231-1.722-0.888-2.646c-0.556-0.658-1.256-1.232-1.675-1.258
				c-1.704-0.125-3.391-0.282-5.078-0.558c-0.17-0.018-0.271,0.04-0.369,0.087c-0.066-0.017-0.141-0.042-0.215-0.042
				C72.358,34.829,74.566,37.915,75.476,38.143z"/>
			<polygon fill="#808890" points="70.903,35.144 132.049,35.144 133.445,19.57 70.664,20.104 			"/>
		</g>
	</g>
	<g id="msh1" display="none">
		<path id="fillShoeColorBase_1_" display="inline" fill="#4F4E55" d="M106.105,65.128c9.078,2.476,25.49-1.221,25.49-1.221v25.916
			L24.682,91.945c-11.764-1.488-2.77-13.004-2.77-13.004s58.941-25.979,58.941-26.98C80.854,51.961,97.027,62.643,106.105,65.128z"
			/>
		<polyline id="fillShoeColorTint" display="inline" fill="#8C898D" points="13.576,89.523 15.67,98.039 135.025,97.699 
			136.424,87.816 14.974,89.859 		"/>
	</g>
	<g id="msh2" display="none">
		<g display="inline">
			<path id="fillShoesColorBase_4_" fill="#274655" d="M90.037,52.921c0,0,21.676,13.318,31.543,16.365
				c9.865,3.046,20.84-4.208,20.84-4.208v34.186L13.825,99.913c-15.913-1.962,2.765-13.14,2.765-13.14s57.137-36.108,57.137-37.43
				L90.037,52.921z"/>
			<path fill="#E4E4E4" d="M37.771,71.439c0,0-31.729,12.807-31.729,19.584c12.394,0,34.011,0.303,50.011,0.303
				C55.736,80.123,37.771,71.439,37.771,71.439z"/>
			<path fill="#B9BBBD" d="M54.065,70.066c2.14,0,3.905,1.488,3.905,3.316c0,1.824-1.767,3.29-3.905,3.29
				c-2.146,0-3.888-1.466-3.888-3.29C50.179,71.555,51.924,70.066,54.065,70.066z M58.995,68.084c0,1.814,1.716,3.295,3.872,3.295
				c2.146,0,3.892-1.48,3.892-3.295c0-1.818-1.729-3.309-3.892-3.309C60.74,64.775,58.995,66.266,58.995,68.084z M67.957,61.702
				c0,1.819,1.736,3.3,3.896,3.3c2.146,0,3.89-1.48,3.89-3.3c0-1.828-1.745-3.302-3.89-3.302
				C69.697,58.4,67.957,59.875,67.957,61.702z"/>
			<path fill="#DADCDD" d="M53.034,73.736c-3.673-3.739-7.867-5.331-7.913-5.354c-0.722-0.271-1.104-1.084-0.829-1.803
				c0.272-0.731,1.082-1.101,1.808-0.831c0.194,0.07,4.81,1.813,8.945,6.018c0.539,0.553,0.535,1.441-0.021,1.991
				c-0.272,0.271-0.63,0.402-0.981,0.402C53.673,74.159,53.312,74.018,53.034,73.736z M62.867,68.857
				c0.355,0,0.713-0.135,0.989-0.408c0.547-0.549,0.557-1.438,0.014-1.992c-4.146-4.184-8.76-5.913-8.954-5.986
				c-0.708-0.263-1.529,0.103-1.804,0.831c-0.27,0.726,0.104,1.534,0.825,1.813c0.045,0.013,4.244,1.598,7.931,5.322
				C62.142,68.718,62.506,68.857,62.867,68.857z M71.841,62.494c0.353,0,0.709-0.135,0.991-0.408
				c0.546-0.543,0.552-1.438,0.008-1.99c-4.149-4.205-8.771-5.943-8.962-6.017c-0.729-0.269-1.537,0.103-1.808,0.832
				c-0.273,0.721,0.104,1.534,0.824,1.807c0.046,0.019,4.245,1.61,7.946,5.357C71.115,62.355,71.477,62.494,71.841,62.494z"/>
			<rect x="4.402" y="89.475" fill="#D7D8D9" width="141.195" height="11.181"/>
		</g>
	</g>
</g>
</svg>
