<?xml version="1.0" encoding="utf-8"?>
<!-- Generator: Adobe Illustrator 16.0.0, SVG Export Plug-In . SVG Version: 6.00 Build 0)  -->
<!DOCTYPE svg PUBLIC "-//W3C//DTD SVG 1.1//EN" "http://www.w3.org/Graphics/SVG/1.1/DTD/svg11.dtd">
<svg version="1.1" id="Layer_1" xmlns="http://www.w3.org/2000/svg" xmlns:xlink="http://www.w3.org/1999/xlink" x="0px" y="0px"
	 width="150px" height="150px" viewBox="0 0 150 150" enable-background="new 0 0 150 150" xml:space="preserve">
<g id="fhr1" display="none">
	<g display="inline">
		<g>
			<g id="Hair_below_1">
				<path fill="#4D2E15" d="M76.779,0.014C31.486,0.93,26.319,35.617,29.605,83.006c2.133,30.769-1.174,59.642-1.174,59.642
					l9.154,3.01c0,0,57.737,12.248,87.31-4.393l-0.469-98.02C124.427,43.245,122.546-0.911,76.779,0.014z"/>
			</g>
			<path fill="#F5F5F5" d="M101.021,125.692l-13.766-7.043l0.475-8.035l-15.37,0.475l0.237,6.852l-12.361,7.027
				c0,0-5.029,24.693,18.213,24.693C101.041,149.661,101.367,143.063,101.021,125.692z"/>
			<path fill="#F5F5F5" d="M87.346,115.745l0.385-5.131l-15.367,0.369l0.292,4.996C77.584,116.606,82.413,116.495,87.346,115.745z"
				/>
			<g>
				<path fill="#F5F5F5" d="M115.926,45.647c-0.336-1.912-0.707-3.809-1.102-5.689C111.32,23.25,95.098,17.228,80.764,17.46
					c-33.647,0.546-39.78,27.418-39.78,27.418s-12.403,68.857,39.78,69.014c7.041,0.02,14.934-1.479,21-5.455
					c9.311-6.104,13.465-16.561,15.234-27.699C118.834,69.208,117.961,57.182,115.926,45.647z"/>
				<path fill="#F5F5F5" d="M118.539,63.92c-0.234-0.229-0.492-0.519-0.764-0.839c0.035,7.217-0.723,14.558-1.938,21.775
					C131.396,74.719,118.539,63.92,118.539,63.92z"/>
				<path fill="#F5F5F5" d="M41.415,63.92c0.235-0.229,0.494-0.519,0.763-0.839c-0.034,7.217,0.724,14.558,1.939,21.775
					C28.559,74.719,41.415,63.92,41.415,63.92z"/>
			</g>
		</g>
	</g>
	<g id="Hair_Top1_Female_1_" display="inline">
		<path fill="#4D2E15" d="M101.918,27.84c0,0-50.635-1.997-62.141,54.606c0,0-25.491-11.78,4.695-61.978
			C56.475,0.505,91.384-4.493,101.918,27.84z"/>
		<path fill="#4D2E15" d="M86.498,8.299c0,0,17.571,49.984,34.286,52.65C120.784,60.95,119.314,8.675,86.498,8.299z"/>
	</g>
</g>
<g id="fhr2" display="none">
	<g id="Hair_below_2" display="inline">
		<path fill="#45474E" d="M26.691,82.528c1.479-21.25,1.609-43.637,11.628-63.019C46.298,4.072,65.243,0.173,80.707,0.004
			c41.961-0.46,53.557,35.834,52.16,85.055c-0.363,12.766-2.055,43.568-9.404,60.111c-31.926-9.744-51.555-14.82-74.379-1.326
			c-2.728-6.807-6.086-18.816-5.7-26.566c-0.385,7.75,1.182,20.545,3.909,27.355c-2.639,1.559-5.247,3.334-7.826,5.367
			C28.98,133.903,25.426,100.646,26.691,82.528z"/>
	</g>
	<g display="inline">
		<path fill="#F5F5F5" d="M101.185,125.692l-13.766-7.043l0.475-8.035l-15.37,0.475l0.237,6.852L60.4,124.968
			c0,0-5.029,24.693,18.213,24.693C101.205,149.661,101.531,143.063,101.185,125.692z"/>
		<path fill="#F5F5F5" d="M87.509,115.745l0.385-5.131l-15.367,0.369l0.292,4.996C77.748,116.606,82.577,116.495,87.509,115.745z"/>
		<g>
			<path fill="#F5F5F5" d="M116.089,45.647c-0.336-1.912-0.707-3.809-1.102-5.689c-3.504-16.708-19.727-22.73-34.061-22.499
				c-33.647,0.546-39.78,27.418-39.78,27.418s-12.403,68.857,39.78,69.014c7.041,0.02,14.934-1.479,21-5.455
				c9.311-6.104,13.465-16.561,15.234-27.699C118.998,69.208,118.125,57.182,116.089,45.647z"/>
			<path fill="#F5F5F5" d="M118.703,63.92c-0.234-0.229-0.492-0.519-0.764-0.839c0.035,7.217-0.723,14.558-1.938,21.775
				C131.56,74.719,118.703,63.92,118.703,63.92z"/>
			<path fill="#F5F5F5" d="M41.578,63.92c0.235-0.229,0.494-0.519,0.763-0.839c-0.034,7.217,0.724,14.558,1.939,21.775
				C28.722,74.719,41.578,63.92,41.578,63.92z"/>
		</g>
	</g>
	<g id="Hair_Top2_Female" display="inline">
		<path fill="#45474E" d="M108.884,19.167c0,0-27.41,33.956-70.773,39.273c0,0-6.643-24.533,15.859-41.306
			C66.324,7.926,86.708,4.185,108.884,19.167z"/>
		<path fill="#45474E" d="M103.158,22.849c0,0,1.635,18.41,9.818,24.954c0,0-1.639-7.364-0.41-11.864c0,0-0.09,18.094,7.523,23.979
			c0,0,10.068-30.116-12.84-43.206L103.158,22.849z"/>
		<path fill="#45474E" d="M100.292,25.304c0,0-8.182,19.228-22.498,28.228c0,0,8.182-15.545,4.09-22.5L100.292,25.304z"/>
	</g>
</g>
<g id="mhr1" display="none">
	<path display="inline" fill="#E8E8E9" d="M96.132,125.951l-13.607-6.958l0.471-7.944l-15.19,0.467l0.235,6.778l-12.218,6.943
		c0,0-4.971,24.404,18,24.404C96.152,149.642,96.474,143.12,96.132,125.951z"/>
	<path display="inline" fill="#E8E8E9" d="M82.616,116.121l0.38-5.072l-15.188,0.367l0.291,4.937
		C72.969,116.974,77.741,116.863,82.616,116.121z"/>
	<g display="inline">
		<path fill="#E8E8E9" d="M110.863,46.838c-0.333-1.889-0.698-3.765-1.088-5.622c-3.462-16.514-19.499-22.467-33.664-22.237
			C42.856,19.519,35.075,39.34,35.075,39.34s-10.54,74.796,41.036,74.949c6.957,0.021,14.759-1.46,20.754-5.393
			c9.202-6.031,13.308-16.369,15.06-27.376C113.738,70.125,112.875,58.239,110.863,46.838z"/>
		<path fill="#E8E8E9" d="M113.447,64.899c-0.231-0.226-0.487-0.514-0.754-0.831c0.033,7.133-0.716,14.387-1.916,21.522
			C126.153,75.573,113.447,64.899,113.447,64.899z"/>
		<path fill="#E8E8E9" d="M37.218,64.899c0.233-0.226,0.489-0.514,0.755-0.831c-0.033,7.133,0.716,14.387,1.917,21.522
			C24.512,75.573,37.218,64.899,37.218,64.899z"/>
	</g>
	<g id="Hair_Top3_Male_1_" display="inline">
		<path fill="#584D4B" d="M43.991,12.08c0.983-1.193,2.456-2.099,3.361-2.82C63.547-3.64,86.202-2.608,102.523,9.534
			c1.492,0.701,2.964,1.426,4.413,2.16c0.336,0.169,0.62,0.375,0.906,0.581c1.155,0.484,2.32,0.968,3.511,1.44
			c5.281,2.109,4.653,8.584,1.226,11.308c3.783,9.436,5.079,22.889,1.7,42.033l-0.081,0.576c0,0-0.868,2.789-1.21-1.016
			c-0.309-3.455-0.413-25.221-5.233-32.485c-0.633,0.854-1.53,1.594-2.817,2.094c-19.489,7.558-44.05,7.081-62.817-2.886
			c-2.833,1.167-5.324,4.052-5.604,9.968c-0.512,10.641,0.273,25.473-1.376,25.532c-0.594,0.028-2.313-8.124-3.217-18.717
			C30.85,37.526,32.153,21.554,43.991,12.08z"/>
	</g>
</g>
<g id="mhr2">
	<path fill="#E8E8E9" d="M96.483,125.951l-13.607-6.958l0.471-7.944l-15.19,0.467l0.235,6.778l-12.218,6.943
		c0,0-4.971,24.404,18,24.404C96.503,149.642,96.825,143.12,96.483,125.951z"/>
	<path fill="#E8E8E9" d="M82.967,116.121l0.38-5.072l-15.188,0.367l0.291,4.937C73.32,116.974,78.092,116.863,82.967,116.121z"/>
	<g>
		<path fill="#E8E8E9" d="M111.214,46.838c-0.333-1.889-0.698-3.765-1.088-5.622c-3.462-16.514-19.499-22.467-33.664-22.237
			c-33.255,0.54-39.317,27.099-39.317,27.099s-12.259,68.058,39.317,68.211c6.957,0.021,14.759-1.46,20.754-5.393
			c9.202-6.031,13.308-16.369,15.06-27.376C114.089,70.125,113.226,58.239,111.214,46.838z"/>
		<path fill="#E8E8E9" d="M113.798,64.899c-0.231-0.226-0.487-0.514-0.754-0.831c0.033,7.133-0.716,14.387-1.916,21.522
			C126.504,75.573,113.798,64.899,113.798,64.899z"/>
		<path fill="#E8E8E9" d="M37.569,64.899c0.233-0.226,0.489-0.514,0.755-0.831c-0.033,7.133,0.716,14.387,1.917,21.522
			C24.863,75.573,37.569,64.899,37.569,64.899z"/>
	</g>
	<path id="HAIR_1" fill="#734C40" d="M115.891,51.982c6.082-5.512,5.775-14.933-0.814-19.619c2.79-5.224-0.839-10.753-4.807-11.523
		c1.035-4.268,0.361-8.753-3.305-11.326c-3.952-2.772-9.052-2.907-13.557-1.248C88.598-0.199,74.634-3.261,68.163,4.342
		c-2.139-1.56-4.661-2.346-7.516-1.877c-3.987,0.654-7.021,3.967-8.844,7.627c-4.166-1.16-8.636,0.124-12.117,3.486
		c-3.25,3.146-4.218,7.407-3.145,11.272c-2.226,1.503-4.22,3.372-5.651,5.704c-2.671,4.368-0.085,8.196,3.24,10.63
		c-1.544,1.08-2.936,2.363-3.845,4.001c-1.619,2.906,0.775,5.077,3.059,6.397c-1.432,0.584-2.672,1.57-2.544,3.349
		c0.166,2.262,2.3,4.186,3.876,5.611c-0.986,0.81-1.57,1.936-1.229,3.474c0.437,1.935,2.226,3.464,3.906,4.268
		c0.017,0.119,0.029,0.227,0.051,0.343l0.48-0.106c0,0-0.288,3.38,0.729-0.332c1.018-3.718,0.691-30.7,7.611-33.594
		c6.918-2.895,11.363-0.024,14.116,0.642c4.23,1.022,33.451,1.624,39.024-0.481c3.694-1.398,10.854-0.711,11.178,9.572
		c0.196,6.308-0.084,14.143,0.023,19.264c-0.207,0.26-0.158,0.613,0.024,0.826c0.087,2.763,0.321,4.558,0.865,4.57
		c0.075,0.002,0.17-0.139,0.279-0.407c0.144,0.246,0.438,0.404,0.755,0.234c2.771-1.492,3.869-4.848,2.081-7.341
		C117.158,58.585,118.524,55.114,115.891,51.982z"/>
</g>
<g id="mhr3" display="none">
	<g display="inline">
		<path fill="#F5F5F5" d="M96.315,125.604l-13.767-7.041l0.475-8.037l-15.369,0.475l0.238,6.854l-12.361,7.027
			c0,0-5.029,24.691,18.213,24.691C96.335,149.573,96.66,142.976,96.315,125.604z"/>
		<path fill="#F5F5F5" d="M82.64,115.659l0.384-5.133l-15.365,0.371l0.292,4.994C72.878,116.521,77.707,116.407,82.64,115.659z"/>
		<g>
			<path fill="#F5F5F5" d="M111.22,45.561c-0.337-1.912-0.707-3.809-1.103-5.689c-1.796-33.172-19.727-22.73-34.06-22.499
				c-33.647,0.546-39.78,27.418-39.78,27.418s-12.402,68.856,39.78,69.015c7.04,0.02,14.934-1.479,20.999-5.455
				c9.311-6.104,13.465-16.563,15.235-27.7C114.128,69.121,113.255,57.095,111.22,45.561z"/>
			<path fill="#F5F5F5" d="M113.833,63.833c-0.235-0.229-0.492-0.519-0.764-0.839c0.034,7.217-0.723,14.558-1.938,21.774
				C126.689,74.633,113.833,63.833,113.833,63.833z"/>
			<path fill="#F5F5F5" d="M36.709,63.833c0.234-0.229,0.494-0.519,0.763-0.839c-0.034,7.217,0.724,14.558,1.939,21.774
				C23.853,74.633,36.709,63.833,36.709,63.833z"/>
		</g>
	</g>
	<g display="inline">
		<g>
			<path fill="#B8824C" d="M106.576,12.059c-0.014-0.492-0.117-0.976-0.267-1.449C83.541-1.744,66.395-1.3,53.123,6.374
				c-6.202,2.08-12.156,6.353-16.979,10.072c-0.279,0.213-0.319,0.538-0.233,0.813c-0.379,0.514,0.219,1.402,0.855,1.013
				c1.382-0.847,2.885-1.563,4.445-2.133c-3.701,4.015-7.03,8.641-10.034,13.689c0.068,0.357,0.157,0.711,0.271,1.068
				c0.289,0.923,1,1.242,1.711,1.152c-1.556,8.58-1.465,19.492,1.113,33.369l0.505-0.11c0,0-0.22,3.48,0.755-0.356
				c0.764-3.051,0.278-14.076,3.651-22.914c3.087-8.083,6.853-11.078,10.456-10.536c-2.782,2.977-3.807,8.188-3.807,8.188
				s19.302-3.49,31.239-6.097c-2.924,2.818-5.82,5.354-8.441,7.12c13.38-1.145,23.364-7.313,29.273-14.196
				c2.006-0.946,4.315-2.052,7.221-3.406c0.443-0.177,5.395,41.89,6.709,41.899c0.583,0.008,2.178-8.144,2.955-18.704
				C115.811,32.226,119.022,16.424,106.576,12.059z"/>
			<path fill="#AA7846" d="M34.272,65.414l0.506-0.109c0,0-0.22,3.478,0.755-0.357c0.599-2.391,0.437-9.682,1.961-16.976
				c-1.893,0.142-3.657-0.467-5.331-1.464C32.301,52.104,32.964,58.375,34.272,65.414z"/>
			<path fill="#AA7846" d="M107.24,37.344c1.657,12.148,3.797,27.655,4.594,27.662c0.582,0.008,2.178-8.144,2.955-18.704
				c0.284-3.923,0.738-7.981,0.979-11.886C113.216,36.473,110.162,37.54,107.24,37.344z"/>
		</g>
	</g>
</g>
<g id="mhr4" display="none">
	<g display="inline">
		<path fill="#F5F5F5" d="M99.924,125.691l-13.767-7.041l0.475-8.037l-15.369,0.475l0.238,6.854l-12.361,7.027
			c0,0-5.029,24.691,18.213,24.691C99.944,149.66,100.269,143.063,99.924,125.691z"/>
		<path fill="#F5F5F5" d="M86.249,115.746l0.384-5.133l-15.365,0.371l0.292,4.994C76.487,116.607,81.316,116.494,86.249,115.746z"/>
		<g>
			<path fill="#F5F5F5" d="M114.829,45.647c-0.337-1.912-0.707-3.809-1.103-5.689c0-10.663-19.727-22.73-34.06-22.499
				c-33.647,0.546-39.78,27.418-39.78,27.418s-12.402,68.856,39.78,69.015c7.04,0.02,14.934-1.479,20.999-5.455
				c9.311-6.104,13.465-16.563,15.235-27.7C117.737,69.208,116.864,57.182,114.829,45.647z"/>
			<path fill="#F5F5F5" d="M117.442,63.92c-0.235-0.229-0.492-0.519-0.764-0.839c0.034,7.217-0.723,14.558-1.938,21.774
				C130.298,74.72,117.442,63.92,117.442,63.92z"/>
			<path fill="#F5F5F5" d="M40.318,63.92c0.234-0.229,0.494-0.519,0.763-0.839c-0.034,7.217,0.724,14.558,1.939,21.774
				C27.461,74.72,40.318,63.92,40.318,63.92z"/>
		</g>
	</g>
	<g id="Hair_Top5_Male_1_" display="inline">
		<path fill="#A6A6A7" d="M63.875,28.347c15.566-4.595,33.521-2.164,42.639,8.887c5.852,7.086,7.879,16.691,10.126,26.65
			c0.04-13.042-1.985-23.48-1.985-23.48s-0.55-22.654-37.167-23.135c-32.212-0.421-35.132,20.792-35.132,20.792
			s-3.135,12.333-3.23,26.99C45.505,51.09,47.264,32.894,63.875,28.347z"/>
		<path fill="#616869" d="M96.564,12.66c-0.697-0.485,3.917-1.513,3.987-1.541c2.147-0.857,6.453-1.214,6.453-1.214
			s-6.91-3.751-8.934-4.177c-3.942-0.832-8.011-0.667-11.979-0.098c3.66-0.523,8.266-0.432,10.81-2.777
			c-1.016,0.152-1.999-0.123-2.997-0.288c-4.646-0.773-10.04-2.355-14.391,0.261c1.612-1.079,3.354-1.84,5.141-2.573
			C72.67-1.683,53.902,7.763,53.506,21.036c-0.292,9.83,10.989,13.199,25.473,13.641c5.944,0.183,12.19,0.357,18-1.131
			c2.77-0.71,5.653-2,7.889-3.814c5.04-4.091,3.862-11.672-1.687-14.646C101.141,13.991,98.461,13.977,96.564,12.66z"/>
	</g>
</g>
</svg>
