<?xml version="1.0" encoding="utf-8"?>
<!-- Generator: Adobe Illustrator 14.0.0, SVG Export Plug-In . SVG Version: 6.00 Build 43363)  -->
<!DOCTYPE svg PUBLIC "-//W3C//DTD SVG 1.1//EN" "http://www.w3.org/Graphics/SVG/1.1/DTD/svg11.dtd">
<svg version="1.1" id="Layer_1" xmlns="http://www.w3.org/2000/svg" xmlns:xlink="http://www.w3.org/1999/xlink" x="0px" y="0px"
	 width="150px" height="150px" viewBox="0 0 150 150" enable-background="new 0 0 150 150" xml:space="preserve">
<g>
	<polygon fill="#757881" points="23.697,111.579 126.202,113.532 126.438,109.339 72.047,96.187 23.563,107.379 	"/>
	<polygon fill="#747680" points="110.383,91.228 40.052,89.892 40.816,30.162 111.146,31.5 	"/>
	<polygon fill="#595B64" points="105.488,86.921 45.065,85.771 45.722,34.444 106.146,35.594 	"/>
	<polygon fill="#7E828C" points="40.068,89.568 110.396,90.907 126.438,109.339 23.563,107.379 	"/>
	
		<line fill="none" stroke="#97969E" stroke-width="0.2995" stroke-miterlimit="10" x1="107.869" y1="93.775" x2="43.996" y2="92.557"/>
	<line fill="none" stroke="#97969E" stroke-width="0.2995" stroke-miterlimit="10" x1="109.565" y1="96.12" x2="42.24" y2="94.84"/>
	
		<line fill="none" stroke="#97969E" stroke-width="0.2995" stroke-miterlimit="10" x1="111.259" y1="98.465" x2="40.481" y2="97.115"/>
	
		<line fill="none" stroke="#97969E" stroke-width="0.2995" stroke-miterlimit="10" x1="38.186" y1="99.917" x2="113.057" y2="101.342"/>
	<g>
		
			<line fill="none" stroke="#97969E" stroke-width="0.2995" stroke-miterlimit="10" x1="44.255" y1="92.348" x2="38.29" y2="99.708"/>
		
			<line fill="none" stroke="#97969E" stroke-width="0.2995" stroke-miterlimit="10" x1="48.242" y1="92.421" x2="43.007" y2="99.813"/>
		
			<line fill="none" stroke="#97969E" stroke-width="0.2995" stroke-miterlimit="10" x1="52.231" y1="92.485" x2="47.721" y2="99.919"/>
		
			<line fill="none" stroke="#97969E" stroke-width="0.2995" stroke-miterlimit="10" x1="56.212" y1="92.557" x2="52.434" y2="100.02"/>
		
			<line fill="none" stroke="#97969E" stroke-width="0.2995" stroke-miterlimit="10" x1="60.203" y1="92.624" x2="57.149" y2="100.122"/>
		
			<line fill="none" stroke="#97969E" stroke-width="0.2995" stroke-miterlimit="10" x1="64.191" y1="92.697" x2="61.865" y2="100.227"/>
		
			<line fill="none" stroke="#97969E" stroke-width="0.2995" stroke-miterlimit="10" x1="68.176" y1="92.767" x2="66.579" y2="100.326"/>
		
			<line fill="none" stroke="#97969E" stroke-width="0.2995" stroke-miterlimit="10" x1="72.163" y1="92.835" x2="71.681" y2="97.652"/>
		
			<line fill="none" stroke="#97969E" stroke-width="0.2995" stroke-miterlimit="10" x1="76.152" y1="92.904" x2="76.088" y2="97.739"/>
		
			<line fill="none" stroke="#97969E" stroke-width="0.2995" stroke-miterlimit="10" x1="80.136" y1="92.971" x2="80.489" y2="97.821"/>
		
			<line fill="none" stroke="#97969E" stroke-width="0.2995" stroke-miterlimit="10" x1="84.124" y1="93.042" x2="85.438" y2="100.738"/>
		<polygon fill="none" stroke="#97969E" stroke-width="0.2995" stroke-miterlimit="10" points="85.367,106.399 84.004,102.371 
			68.057,102.081 66.506,106.001 		"/>
		
			<line fill="none" stroke="#97969E" stroke-width="0.2995" stroke-miterlimit="10" x1="88.108" y1="93.111" x2="90.153" y2="100.846"/>
		
			<line fill="none" stroke="#97969E" stroke-width="0.2995" stroke-miterlimit="10" x1="92.097" y1="93.181" x2="94.865" y2="100.945"/>
		
			<line fill="none" stroke="#97969E" stroke-width="0.2995" stroke-miterlimit="10" x1="96.083" y1="93.249" x2="99.584" y2="101.048"/>
		
			<line fill="none" stroke="#97969E" stroke-width="0.2995" stroke-miterlimit="10" x1="100.067" y1="93.318" x2="104.294" y2="101.155"/>
		
			<line fill="none" stroke="#97969E" stroke-width="0.2995" stroke-miterlimit="10" x1="104.056" y1="93.388" x2="109.011" y2="101.255"/>
		
			<line fill="none" stroke="#97969E" stroke-width="0.2995" stroke-miterlimit="10" x1="107.543" y1="93.548" x2="113.228" y2="101.449"/>
	</g>
</g>
</svg>
