<?xml version="1.0" encoding="utf-8"?>
<!-- Generator: Adobe Illustrator 14.0.0, SVG Export Plug-In . SVG Version: 6.00 Build 43363)  -->
<!DOCTYPE svg PUBLIC "-//W3C//DTD SVG 1.1//EN" "http://www.w3.org/Graphics/SVG/1.1/DTD/svg11.dtd">
<svg version="1.1" id="Layer_1" xmlns="http://www.w3.org/2000/svg" xmlns:xlink="http://www.w3.org/1999/xlink" x="0px" y="0px"
	 width="150px" height="150px" viewBox="0 0 150 150" enable-background="new 0 0 150 150" xml:space="preserve">
<g id="udev4">
	<g>
		<g>
			<polygon fill="#5196D1" points="36.02,70.666 88.706,79.558 112.291,37.386 68.08,29.791 			"/>
			<polygon fill="#4682B6" points="33.083,102.866 85.66,112.184 88.706,79.558 36.02,70.666 			"/>
			<polygon fill="#3F73A0" points="112.291,37.386 88.706,79.558 85.66,112.184 109.552,66.603 			"/>
		</g>
		<polygon fill="#3F5A75" points="96.455,55.832 92.4,55.137 96.229,49.99 99.883,50.613 		"/>
	</g>
	<g>
		<path fill="#3F5A75" d="M92.153,33.404l-0.558,7.961c-0.035,0.09-0.059,0.193-0.068,0.262c-0.192,2.414,2.887,4.9,6.885,5.514
			c3.99,0.638,7.39-0.772,7.584-3.204l0.625-8.246L92.153,33.404z"/>
		<path fill="#63728B" d="M106.621,35.716c-0.194,2.416-3.594,3.847-7.563,3.232c-4.015-0.641-7.081-3.109-6.883-5.515
			c0.176-2.417,3.601-3.848,7.568-3.235C103.734,30.833,106.817,33.305,106.621,35.716z"/>
	</g>
	<g>
		<path fill="#3F5A75" d="M66.496,28.585l-0.557,7.984c-0.037,0.068-0.059,0.168-0.067,0.237c-0.191,2.417,2.889,4.9,6.882,5.515
			c3.992,0.636,7.391-0.774,7.588-3.206l0.627-8.243L66.496,28.585z"/>
		<path fill="#63728B" d="M80.969,30.891c-0.197,2.417-3.598,3.847-7.566,3.232c-4.016-0.64-7.076-3.108-6.884-5.516
			c0.18-2.417,3.603-3.846,7.572-3.231C78.079,26.009,81.161,28.483,80.969,30.891z"/>
	</g>
	<g>
		<path fill="#3F5A75" d="M76.794,39.76l-0.562,7.958c-0.019,0.091-0.054,0.193-0.066,0.262c-0.187,2.417,2.888,4.902,6.885,5.517
			c3.989,0.637,7.39-0.774,7.585-3.208l0.624-8.243L76.794,39.76z"/>
		<path fill="#63728B" d="M91.26,42.065c-0.192,2.417-3.593,3.847-7.585,3.232c-3.995-0.64-7.074-3.109-6.881-5.517
			c0.194-2.416,3.6-3.845,7.588-3.231C88.373,37.187,91.454,39.659,91.26,42.065z"/>
	</g>
	<g>
		<path fill="#D7D7DE" d="M73.724,70.439c-0.143,1.747-3.063,2.725-6.52,2.174c-3.459-0.549-6.146-2.415-6.009-4.155
			c0.138-1.752,3.061-2.726,6.519-2.177C71.172,66.828,73.859,68.692,73.724,70.439z"/>
	</g>
	<g>
		<path fill="#9DA0AA" d="M70.607,69.597l0.629-7.593l-6.216-0.897l-0.626,7.585l-0.005,0.133c-0.046,0.556,1.306,1.214,3.013,1.461
			c1.723,0.253,3.143-0.009,3.184-0.566L70.607,69.597z"/>
	</g>
	<path fill="#B6BAC6" d="M63.262,54.438l-0.421,5.577c-0.014,0.071-0.054,0.12-0.054,0.206c-0.148,1.679,2.174,3.381,5.191,3.858
		c3.008,0.445,5.571-0.559,5.72-2.269l0.466-5.735L63.262,54.438z"/>
	<path fill="#D7D7DE" d="M74.171,56.051c-0.147,1.683-2.708,2.686-5.713,2.239c-3.018-0.445-5.34-2.173-5.196-3.857
		c0.154-1.685,2.711-2.692,5.724-2.24C71.999,52.638,74.315,54.366,74.171,56.051z"/>
</g>
</svg>
