<?xml version="1.0" encoding="utf-8"?>
<!-- Generator: Adobe Illustrator 14.0.0, SVG Export Plug-In . SVG Version: 6.00 Build 43363)  -->
<!DOCTYPE svg PUBLIC "-//W3C//DTD SVG 1.1//EN" "http://www.w3.org/Graphics/SVG/1.1/DTD/svg11.dtd">
<svg version="1.1" id="Layer_1" xmlns="http://www.w3.org/2000/svg" xmlns:xlink="http://www.w3.org/1999/xlink" x="0px" y="0px"
	 width="150px" height="150px" viewBox="0 0 150 150" enable-background="new 0 0 150 150" xml:space="preserve">
<g id="udev1" display="none">
	<g display="inline">
		<g>
			<polygon fill="#302F2D" points="113.027,82.473 113.464,101.22 131.104,89.683 130.764,75.089 			"/>
			<polygon fill="#5B5757" points="113.027,82.473 25.166,80.873 48.729,73.173 130.764,75.089 			"/>
			<polygon fill="#3B3B39" points="113.464,101.22 25.962,98.503 25.543,80.664 113.027,82.473 			"/>
			<polygon fill="#4FB2E3" points="70.879,94.854 56.564,94.046 56.199,85.399 70.501,85.778 			"/>
			<polygon fill="#6198D0" points="31.456,92.274 27.768,91.845 27.604,85.02 31.131,85.358 			"/>
			<polygon fill="#5F6163" points="77.218,86.714 72.447,86.448 72.324,83.563 77.094,83.689 			"/>
			<polygon fill="#5F6163" points="77.331,91.626 72.563,91.356 72.437,88.474 77.207,88.599 			"/>
			<polygon fill="#5F6163" points="77.443,96.286 72.672,96.017 72.55,93.138 77.318,93.261 			"/>
			<polygon fill="#5F6163" points="109.168,97.802 84.687,96.364 84.564,93.483 109.043,94.776 			"/>
			<polygon fill="#5F6163" points="55.326,86.405 50.552,86.132 50.434,83.25 55.201,83.375 			"/>
			<polygon fill="#5F6163" points="55.44,91.31 50.673,91.04 50.548,88.157 55.315,88.286 			"/>
			<polygon fill="#5F6163" points="55.552,95.974 50.779,95.704 50.655,92.823 55.422,92.952 			"/>
			<polygon fill="#5F6163" points="49.606,86.21 44.833,85.942 44.714,83.059 49.481,83.189 			"/>
			<polygon fill="#5F6163" points="49.72,91.122 44.949,90.853 44.824,87.968 49.594,88.097 			"/>
			<polygon fill="#5F6163" points="49.83,95.786 45.058,95.519 44.935,92.634 49.703,92.763 			"/>
			<polygon fill="none" stroke="#5F6163" stroke-width="0.1994" stroke-miterlimit="10" points="32.702,96.692 27.931,96.425 
				27.808,93.54 32.577,93.671 			"/>
			<path fill="#535150" d="M26.09,98.571l-5.184-0.334l-0.499-17.722l5.192,0.314L26.09,98.571z M24.635,83.809
				c-0.026-0.758-0.456-1.391-0.981-1.441l-1.307-0.086c-0.518-0.031-0.921,0.572-0.91,1.322l0,0c0.021,0.76,0.46,1.406,0.979,1.438
				l1.314,0.082C24.249,85.158,24.655,84.57,24.635,83.809L24.635,83.809z M24.977,95.589c-0.018-0.758-0.459-1.391-0.979-1.439
				l-1.317-0.082c-0.519-0.033-0.922,0.568-0.905,1.32l0,0c0.017,0.76,0.446,1.408,0.98,1.438l1.301,0.082
				C24.591,96.938,24.996,96.347,24.977,95.589L24.977,95.589z"/>
			<path fill="#535150" d="M118.668,101.417l-5.577-0.16l-0.52-18.868l5.584,0.137L118.668,101.417z M117.112,85.87
				c-0.021-0.851-0.49-1.554-1.052-1.565l-1.394-0.039c-0.564-0.027-0.991,0.652-0.98,1.483l0,0c0.028,0.85,0.5,1.549,1.048,1.563
				l1.404,0.039C116.698,87.382,117.135,86.71,117.112,85.87L117.112,85.87z M117.472,98.159c-0.023-0.844-0.492-1.535-1.05-1.557
				l-1.404-0.037c-0.56-0.021-0.994,0.662-0.975,1.488l0,0c0.026,0.84,0.494,1.541,1.056,1.555l1.395,0.045
				C117.057,99.673,117.491,99.003,117.472,98.159L117.472,98.159z"/>
			
				<line fill="none" stroke="#3B3B39" stroke-width="0.7975" stroke-miterlimit="10" x1="88.076" y1="90.011" x2="88.261" y2="97.864"/>
			
				<line fill="none" stroke="#3B3B39" stroke-width="0.7975" stroke-miterlimit="10" x1="91.829" y1="89.81" x2="92.008" y2="97.665"/>
			
				<line fill="none" stroke="#3B3B39" stroke-width="0.7975" stroke-miterlimit="10" x1="95.576" y1="89.612" x2="95.761" y2="97.466"/>
			
				<line fill="none" stroke="#3B3B39" stroke-width="0.7975" stroke-miterlimit="10" x1="99.327" y1="89.415" x2="99.556" y2="99.229"/>
			
				<line fill="none" stroke="#3B3B39" stroke-width="0.7975" stroke-miterlimit="10" x1="103.08" y1="89.216" x2="103.311" y2="99.034"/>
			
				<line fill="none" stroke="#3B3B39" stroke-width="0.7975" stroke-miterlimit="10" x1="106.831" y1="89.019" x2="107.063" y2="98.835"/>
			<path fill="none" stroke="#676462" stroke-width="0.3987" stroke-miterlimit="10" d="M83.313,90.13
				c0.051,2.234-0.931,4.102-2.193,4.166c-1.26,0.066-2.323-1.695-2.377-3.93c-0.049-2.236,0.933-4.102,2.193-4.166
				C82.197,86.136,83.261,87.894,83.313,90.13z"/>
		</g>
	</g>
	<g display="inline">
		<g>
			<path fill="#FBD8BB" d="M74.118,80.307C74.155,81.143,74.832,79.787,74.118,80.307L74.118,80.307z"/>
		</g>
		<g>
			<polygon fill="#302F2D" points="113.042,65.102 113.483,83.848 131.124,72.311 130.781,57.718 			"/>
			<polygon fill="#5B5757" points="113.042,65.102 25.187,63.501 48.745,55.806 130.781,57.718 			"/>
			<polygon fill="#D8D5D5" points="113.483,83.848 25.981,81.133 25.564,63.296 113.042,65.102 			"/>
			<polygon fill="#464546" points="111.047,83.281 28.397,80.713 28.001,63.861 110.633,65.57 			"/>
			<polygon fill="#5F6163" points="83.683,81.992 47.23,81.43 46.729,64.163 83.472,65.208 			"/>
			<polygon fill="#5F6163" points="37.558,74.455 28.851,74.057 28.728,71.174 37.433,71.427 			"/>
			<path fill="#D8D5D5" d="M26.112,81.199l-5.192-0.316l-0.49-17.735l5.184,0.333L26.112,81.199z M24.655,66.437
				c-0.018-0.757-0.457-1.405-0.978-1.437l-1.325-0.085c-0.512-0.034-0.921,0.554-0.913,1.319l0,0
				c0.021,0.758,0.453,1.391,0.982,1.439l1.305,0.086C24.271,67.792,24.679,67.202,24.655,66.437L24.655,66.437z M24.996,78.221
				c-0.02-0.765-0.458-1.408-0.98-1.439l-1.307-0.086c-0.53-0.045-0.924,0.557-0.922,1.321l0,0c0.027,0.759,0.465,1.394,0.984,1.437
				l1.303,0.084C24.611,79.568,25.017,78.979,24.996,78.221L24.996,78.221z"/>
			<path fill="#D8D5D5" d="M118.687,84.045l-5.579-0.156l-0.516-18.871l5.573,0.157L118.687,84.045z M117.13,68.5
				c-0.028-0.844-0.49-1.538-1.05-1.554l-1.402-0.046c-0.56-0.015-0.994,0.67-0.973,1.498l0,0c0.021,0.843,0.49,1.541,1.048,1.556
				l1.397,0.045C116.718,70.012,117.153,69.341,117.13,68.5L117.13,68.5z M117.488,80.789c-0.02-0.85-0.489-1.551-1.047-1.564
				l-1.405-0.039c-0.562-0.016-0.995,0.652-0.973,1.479l0,0c0.023,0.85,0.492,1.553,1.048,1.563l1.395,0.041
				C117.074,82.303,117.514,81.627,117.488,80.789L117.488,80.789z"/>
		</g>
		<line fill="none" stroke="#464546" stroke-width="0.25" stroke-miterlimit="10" x1="46.977" y1="68.37" x2="83.362" y2="69.197"/>
		
			<line fill="none" stroke="#464546" stroke-width="0.25" stroke-miterlimit="10" x1="47.059" y1="78.496" x2="83.443" y2="79.328"/>
		<path fill="#0491C9" d="M81.988,73.741c0.043,0.74-0.34,1.393-0.854,1.462c-0.514,0.069-0.967-0.476-1.008-1.212
			c-0.045-0.74,0.336-1.393,0.852-1.462C81.493,72.459,81.943,73.004,81.988,73.741z"/>
		<path fill="#EF4131" d="M49.828,72.807c0.013,0.218-0.104,0.411-0.259,0.43c-0.154,0.021-0.29-0.14-0.303-0.358
			c-0.013-0.218,0.104-0.413,0.259-0.432C49.68,72.426,49.816,72.587,49.828,72.807z"/>
		<path fill="#35B34A" d="M53.509,73.013c0.012,0.217-0.102,0.41-0.256,0.431c-0.153,0.021-0.288-0.14-0.301-0.358
			c-0.012-0.218,0.102-0.412,0.256-0.432C53.361,72.633,53.495,72.794,53.509,73.013z"/>
		<path fill="#35B34A" d="M56.935,73.199c0.014,0.22-0.102,0.412-0.255,0.432c-0.154,0.019-0.288-0.143-0.3-0.36
			c-0.013-0.218,0.102-0.411,0.256-0.432C56.789,72.82,56.924,72.98,56.935,73.199z"/>
	</g>
</g>
<g id="udev2">
	<g>
		<path fill="#4D4D4D" d="M29.28,79.518l27.103-26.513l1.752-4.799L73.66,34.755l-2.065-0.925
			C58.406,44.147,57.203,48.448,57.203,48.448c-5.549,3.619-28.672,29.351-29.893,30.62c-1.238,1.273-1.736,4.4-1.736,4.4
			s0.2,1.838,0.166,2.891c-0.025,0.656,0.483,0.918,0.863,1.021C26.002,81.424,29.28,79.518,29.28,79.518z"/>
		<path fill="#5C5F62" d="M82.854,106.607l25.497-29.721l2.728-5.813l12.586-14.108L73.678,34.567l-14.9,13.473l-2.391,4.774
			L29.283,79.328c0,0-3.276,1.908-2.675,7.861c0.238,0.064,0.417,0.068,0.417,0.068l53.051,26.861l0.294,0.1
			C79.579,107.502,82.854,106.607,82.854,106.607z"/>
		<path fill="#4D4D4D" d="M123.654,56.966l-12.586,14.108l-2.726,5.813l-25.49,29.721c0,0-3.274,0.895-2.479,7.621l1.799,0.631
			l1.628-0.492c2.097-2.463,3.827-4.365,6.498-6.764c14.891-13.414,33.298-39.777,33.298-39.777l0.028-0.519l0.688-1.028
			l0.828-8.635L123.654,56.966z"/>
	</g>
	<polygon fill="#C0BDBE" points="58.78,48.054 110.642,70.98 108.076,76.658 56.511,53.193 	"/>
	<g>
		<path fill="#AFB4B7" d="M40.085,72.296c-0.102-0.366,0.249-3.958,0.249-3.958s0.742-2.432,3.429-0.646l0.412,3.874
			c0,0,0.269,1.693-1.876,1.994C42.291,73.569,40.427,73.505,40.085,72.296z"/>
		
			<ellipse transform="matrix(0.9994 0.0333 -0.0333 0.9994 2.2948 -1.3647)" fill="#3C3C3B" cx="42.101" cy="68.181" rx="1.561" ry="1.114"/>
	</g>
	<g>
		<path fill="#AFB4B7" d="M36.552,77.461c-0.121-0.422,0.284-4.581,0.284-4.581s0.854-2.798,3.955-0.745l0.473,4.48
			c0,0,0.302,1.959-2.177,2.314C39.099,78.93,36.947,78.854,36.552,77.461z"/>
		
			<ellipse transform="matrix(0.9994 0.0341 -0.0341 0.9994 2.5042 -1.2837)" fill="#EBF7FC" cx="38.887" cy="72.777" rx="1.804" ry="1.292"/>
	</g>
	<g>
		<path fill="#AFB4B7" d="M55.261,57.75c-0.081-0.329,0.232-3.568,0.232-3.568s0.674-2.183,3.073-0.582l0.37,3.49
			c0,0,0.249,1.528-1.679,1.804C57.244,58.896,55.564,58.837,55.261,57.75z"/>
		
			<ellipse transform="matrix(0.9994 0.0352 -0.0352 0.9994 1.9402 -1.9753)" fill="#104066" cx="57.075" cy="54.12" rx="1.408" ry="1.003"/>
	</g>
	<g>
		<path fill="#AFB4B7" d="M51.747,60.738c-0.094-0.329,0.217-3.579,0.217-3.579s0.668-2.183,3.08-0.574l0.359,3.481
			c0,0,0.248,1.528-1.681,1.803C53.728,61.884,52.057,61.827,51.747,60.738z"/>
		
			<ellipse transform="matrix(0.9994 0.0339 -0.0339 0.9994 1.9629 -1.7803)" fill="#104066" cx="53.547" cy="57.066" rx="1.406" ry="1.005"/>
	</g>
	<g>
		<path fill="#AFB4B7" d="M47.828,64.239c-0.099-0.366,0.246-3.963,0.246-3.963s0.743-2.42,3.42-0.645l0.416,3.874
			c0,0,0.269,1.694-1.876,2.003C50.033,65.509,48.173,65.447,47.828,64.239z"/>
		
			<ellipse transform="matrix(0.9994 0.0334 -0.0334 0.9994 2.0354 -1.6306)" fill="#104066" cx="49.841" cy="60.131" rx="1.558" ry="1.113"/>
	</g>
	<g>
		<path fill="#AFB4B7" d="M44.371,68.329c-0.104-0.358,0.247-3.962,0.247-3.962s0.742-2.42,3.419-0.646l0.415,3.874
			c0,0,0.27,1.694-1.877,2.003C46.574,69.599,44.712,69.536,44.371,68.329z"/>
		
			<ellipse transform="matrix(0.9994 0.0349 -0.0349 0.9994 2.2713 -1.5829)" fill="#AC2143" cx="46.437" cy="64.209" rx="1.559" ry="1.113"/>
	</g>
	<g>
		<path fill="#AFB4B7" d="M48.266,75.683c-0.101-0.366,0.249-3.96,0.249-3.96s0.743-2.432,3.42-0.645l0.414,3.873
			c0,0,0.261,1.696-1.888,1.995C50.469,76.955,48.607,76.893,48.266,75.683z"/>
		
			<ellipse transform="matrix(0.9994 0.0353 -0.0353 0.9994 2.5604 -1.732)" fill="#3C3C3B" cx="50.289" cy="71.585" rx="1.562" ry="1.114"/>
	</g>
	<g>
		<path fill="#AFB4B7" d="M63.44,61.135c-0.098-0.329,0.22-3.567,0.22-3.567s0.666-2.181,3.08-0.582l0.372,3.491
			c0,0,0.245,1.528-1.691,1.804C65.421,62.281,63.745,62.223,63.44,61.135z"/>
		
			<ellipse transform="matrix(0.9994 0.0347 -0.0347 0.9994 2.0331 -2.2295)" fill="#104066" cx="65.244" cy="57.457" rx="1.407" ry="1.003"/>
	</g>
	<g>
		<path fill="#2D2C2C" d="M64.167,47.991c-0.081-0.33,0.18-2.65,0.18-2.65s0.677-2.182,3.081-0.582l0.416,2.577
			c0,0,0.245,1.527-1.689,1.804C66.151,49.135,64.476,49.079,64.167,47.991z"/>
		
			<ellipse transform="matrix(0.9994 0.034 -0.034 0.9994 1.5759 -2.2166)" fill="#605B5B" cx="65.926" cy="45.201" rx="1.407" ry="1.004"/>
	</g>
	<g>
		<path fill="#2D2C2C" d="M72.426,51.746c-0.093-0.329,0.179-2.657,0.179-2.657s0.679-2.17,3.083-0.574l0.414,2.578
			c0,0,0.246,1.527-1.692,1.803C74.409,52.89,72.733,52.834,72.426,51.746z"/>
		
			<ellipse transform="matrix(0.9994 0.0342 -0.0342 0.9994 1.7199 -2.5074)" fill="#605B5B" cx="74.167" cy="49.032" rx="1.407" ry="1.007"/>
	</g>
	<g>
		<path fill="#AFB4B7" d="M59.922,64.126c-0.089-0.339,0.224-3.579,0.224-3.579s0.668-2.181,3.08-0.574l0.377,3.481
			c0,0,0.24,1.525-1.695,1.804C61.908,65.27,60.229,65.214,59.922,64.126z"/>
		
			<ellipse transform="matrix(0.9994 0.0354 -0.0354 0.9994 2.1766 -2.1463)" fill="#104066" cx="61.75" cy="60.445" rx="1.408" ry="1.005"/>
	</g>
	<g>
		<path fill="#AFB4B7" d="M56.01,67.623c-0.105-0.366,0.248-3.963,0.248-3.963s0.744-2.422,3.418-0.646l0.413,3.873
			c0,0,0.271,1.697-1.874,2.003C58.213,68.895,56.353,68.832,56.01,67.623z"/>
		
			<ellipse transform="matrix(0.9994 0.0333 -0.0333 0.9994 2.1515 -1.9001)" fill="#104066" cx="58.042" cy="63.553" rx="1.559" ry="1.112"/>
	</g>
	<g>
		<path fill="#AFB4B7" d="M52.552,71.715c-0.103-0.356,0.249-3.96,0.249-3.96s0.74-2.42,3.418-0.645l0.412,3.874
			c0,0,0.268,1.694-1.877,2.001C54.755,72.985,52.893,72.921,52.552,71.715z"/>
		
			<ellipse transform="matrix(0.9994 0.0332 -0.0332 0.9994 2.2733 -1.7727)" fill="#AC2143" cx="54.543" cy="67.599" rx="1.56" ry="1.113"/>
	</g>
	<g>
		<path fill="#AFB4B7" d="M56.973,79.727c-0.102-0.365,0.247-3.959,0.247-3.959s0.744-2.434,3.417-0.646l0.413,3.873
			c0,0,0.271,1.697-1.876,1.994C59.178,80.998,57.319,80.938,56.973,79.727z"/>
		
			<ellipse transform="matrix(0.9995 0.0329 -0.0329 0.9995 2.5188 -1.8999)" fill="#3C3C3B" cx="59.024" cy="75.632" rx="1.559" ry="1.115"/>
	</g>
	<g>
		<path fill="#AFB4B7" d="M72.15,65.181c-0.096-0.33,0.219-3.567,0.219-3.567s0.667-2.182,3.081-0.583l0.373,3.49
			c0,0,0.246,1.529-1.692,1.804C74.13,66.326,72.454,66.269,72.15,65.181z"/>
		
			<ellipse transform="matrix(0.9994 0.034 -0.034 0.9994 2.1359 -2.4834)" fill="#104066" cx="73.983" cy="61.47" rx="1.405" ry="1.003"/>
	</g>
	<g>
		<path fill="#AFB4B7" d="M68.636,68.17c-0.082-0.328,0.222-3.579,0.222-3.579s0.666-2.181,3.079-0.574l0.375,3.481
			c0,0,0.244,1.526-1.69,1.803C70.621,69.315,68.943,69.258,68.636,68.17z"/>
		
			<ellipse transform="matrix(0.9994 0.0345 -0.0345 0.9994 2.2707 -2.3944)" fill="#104066" cx="70.437" cy="64.526" rx="1.407" ry="1.004"/>
	</g>
	<g>
		<path fill="#AFB4B7" d="M64.72,71.668c-0.105-0.366,0.249-3.963,0.249-3.963s0.739-2.422,3.418-0.647l0.413,3.875
			c0,0,0.262,1.694-1.885,2.001C66.922,72.939,65.062,72.875,64.72,71.668z"/>
		
			<ellipse transform="matrix(0.9994 0.0347 -0.0347 0.9994 2.3839 -2.2775)" fill="#104066" cx="66.765" cy="67.497" rx="1.554" ry="1.118"/>
	</g>
	<g>
		<path fill="#AFB4B7" d="M61.261,75.762c-0.106-0.359,0.249-3.963,0.249-3.963s0.743-2.42,3.419-0.645l0.412,3.873
			c0,0,0.269,1.696-1.877,2.002C63.463,77.029,61.602,76.969,61.261,75.762z"/>
		
			<ellipse transform="matrix(0.9994 0.0344 -0.0344 0.9994 2.5005 -2.1327)" fill="#AC2143" cx="63.301" cy="71.684" rx="1.563" ry="1.117"/>
	</g>
	<g>
		<path fill="#AFB4B7" d="M65.487,84.148c-0.097-0.389,0.252-4.201,0.252-4.201s0.723-2.568,3.318-0.693l0.39,4.119
			c0,0,0.256,1.787-1.826,2.129C67.621,85.492,65.816,85.43,65.487,84.148z"/>
		<path fill="#3C3C3B" d="M69.011,79.879c-0.021,0.65-0.716,1.158-1.55,1.129c-0.835-0.025-1.495-0.578-1.472-1.23
			c0.021-0.654,0.716-1.158,1.552-1.133C68.375,78.674,69.033,79.225,69.011,79.879z"/>
	</g>
	<g>
		<path fill="#AFB4B7" d="M80.252,68.673c-0.083-0.356,0.225-3.794,0.225-3.794s0.655-2.319,3-0.627l0.352,3.701
			c0,0,0.232,1.611-1.646,1.919C82.17,69.881,80.546,69.826,80.252,68.673z"/>
		
			<ellipse transform="matrix(0.9994 0.0335 -0.0335 0.9994 2.2193 -2.7125)" fill="#104066" cx="82.015" cy="64.838" rx="1.362" ry="1.063"/>
	</g>
	<g>
		<path fill="#AFB4B7" d="M76.831,71.855c-0.083-0.351,0.226-3.785,0.226-3.785s0.656-2.324,3.002-0.629l0.358,3.7
			c0,0,0.229,1.619-1.642,1.918C78.755,73.063,77.13,73.008,76.831,71.855z"/>
		
			<ellipse transform="matrix(0.9994 0.0348 -0.0348 0.9994 2.4099 -2.6902)" fill="#104066" cx="78.578" cy="67.967" rx="1.363" ry="1.064"/>
	</g>
	<g>
		<path fill="#AFB4B7" d="M73.023,75.575c-0.099-0.387,0.249-4.202,0.249-4.202s0.739-2.569,3.331-0.683l0.389,4.105
			c0,0,0.249,1.798-1.825,2.132C75.155,76.92,73.353,76.857,73.023,75.575z"/>
		
			<ellipse transform="matrix(0.9994 0.0332 -0.0332 0.9994 2.4092 -2.4524)" fill="#104066" cx="74.963" cy="71.234" rx="1.513" ry="1.184"/>
	</g>
	<g>
		<path fill="#AFB4B7" d="M69.655,79.928c-0.098-0.387,0.248-4.202,0.248-4.202s0.744-2.571,3.333-0.696l0.391,4.109
			c0,0,0.249,1.797-1.824,2.129C71.791,81.268,69.983,81.203,69.655,79.928z"/>
		<path fill="#AC2143" d="M73.134,75.624c-0.023,0.649-0.72,1.157-1.555,1.13c-0.836-0.027-1.498-0.582-1.474-1.232
			c0.023-0.653,0.718-1.158,1.554-1.13C72.496,74.419,73.155,74.97,73.134,75.624z"/>
	</g>
	<g>
		<path fill="#AFB4B7" d="M44.907,81.326c-0.136-0.41,0.289-4.568,0.289-4.568s0.855-2.81,3.94-0.748l0.473,4.479
			c0,0,0.305,1.963-2.176,2.318C47.456,82.797,45.302,82.725,44.907,81.326z"/>
		
			<ellipse transform="matrix(0.9994 0.0336 -0.0336 0.9994 2.6001 -1.5455)" fill="#EBF7FC" cx="47.311" cy="76.635" rx="1.803" ry="1.288"/>
	</g>
	<g>
		<path fill="#AFB4B7" d="M53.384,85.514c-0.124-0.426,0.292-4.582,0.292-4.582s0.854-2.799,3.939-0.742l0.482,4.475
			c0,0,0.309,1.959-2.17,2.324C55.927,86.98,53.776,86.906,53.384,85.514z"/>
		<path fill="#EBF7FC" d="M57.52,80.869c-0.025,0.713-0.853,1.262-1.851,1.225c-0.997-0.031-1.786-0.637-1.761-1.35
			c0.026-0.711,0.855-1.26,1.852-1.227C56.757,79.555,57.546,80.158,57.52,80.869z"/>
	</g>
	<g>
		<path fill="#AFB4B7" d="M62.16,89.83c-0.116-0.424,0.288-4.576,0.288-4.576s0.856-2.801,3.952-0.746l0.467,4.479
			c0,0,0.316,1.957-2.168,2.324C64.709,91.299,62.56,91.227,62.16,89.83z"/>
		
			<ellipse transform="matrix(0.9994 0.0341 -0.0341 0.9994 2.9403 -2.1524)" fill="#EBF7FC" cx="64.515" cy="85.046" rx="1.803" ry="1.291"/>
	</g>
	<g>
		<path fill="#AFB4B7" d="M70.82,94.145c-0.119-0.42,0.284-4.576,0.284-4.576s0.857-2.801,3.956-0.736l0.478,4.471
			c0,0,0.303,1.957-2.177,2.32C73.369,95.613,71.218,95.541,70.82,94.145z"/>
		
			<ellipse transform="matrix(0.9994 0.034 -0.034 0.9994 3.0842 -2.4375)" fill="#EBF7FC" cx="73.169" cy="89.413" rx="1.808" ry="1.287"/>
	</g>
	<g>
		<path fill="#AFB4B7" d="M79.547,98.277c-0.119-0.416,0.304-4.57,0.304-4.57s0.854-2.809,3.938-0.744l0.477,4.479
			c0,0,0.309,1.957-2.173,2.316C82.095,99.742,79.942,99.67,79.547,98.277z"/>
		
			<ellipse transform="matrix(0.9994 0.0336 -0.0336 0.9994 3.1877 -2.6961)" fill="#EBF7FC" cx="81.87" cy="93.564" rx="1.803" ry="1.288"/>
	</g>
	
		<ellipse transform="matrix(0.9994 0.0338 -0.0338 0.9994 1.3714 -2.4801)" fill="#3C3C3B" cx="74.133" cy="39.373" rx="4.209" ry="2.826"/>
	
		<ellipse transform="matrix(0.9994 0.0336 -0.0336 0.9994 1.4829 -2.7325)" fill="#3C3C3B" cx="82.153" cy="42.813" rx="4.336" ry="2.887"/>
	<path fill="none" stroke="#272929" stroke-width="0.423" stroke-miterlimit="10" d="M85.565,42.693
		c-0.039,1.154-1.588,2.038-3.458,1.975c-1.868-0.064-3.35-1.051-3.313-2.205c0.043-1.153,1.589-2.037,3.458-1.974
		C84.123,40.553,85.606,41.541,85.565,42.693z"/>
	
		<ellipse transform="matrix(0.9995 0.0327 -0.0327 0.9995 1.4559 -2.7085)" fill="#282B2B" cx="83.432" cy="43.102" rx="0.567" ry="0.343"/>
	
		<ellipse transform="matrix(0.9994 0.0339 -0.0339 0.9994 1.4722 -2.7146)" fill="#282B2B" cx="80.891" cy="42.114" rx="0.57" ry="0.345"/>
	
		<ellipse transform="matrix(0.9994 0.0344 -0.0344 0.9994 1.5384 -2.769)" fill="#282B2B" cx="81.302" cy="43.356" rx="0.568" ry="0.347"/>
	<path fill="#3C3C3B" d="M78.586,39.603c-0.055,1.595-2.038,2.814-4.433,2.741c-2.396-0.082-4.278-1.439-4.224-3.033
		c0.054-1.598,2.037-2.814,4.433-2.744C76.746,36.649,78.641,38.007,78.586,39.603z"/>
	
		<ellipse transform="matrix(0.9994 0.0339 -0.0339 0.9994 1.3723 -2.4933)" fill="none" stroke="#272929" stroke-width="0.423" stroke-miterlimit="10" cx="74.249" cy="39.241" rx="3.386" ry="2.093"/>
	
		<ellipse transform="matrix(0.9993 0.0367 -0.0367 0.9993 1.51 -2.7444)" fill="#282B2B" cx="75.558" cy="39.783" rx="0.566" ry="0.346"/>
	
		<ellipse transform="matrix(0.9995 0.0326 -0.0326 0.9995 1.3028 -2.358)" fill="#282B2B" cx="72.867" cy="38.722" rx="0.568" ry="0.345"/>
	
		<ellipse transform="matrix(0.9994 0.0339 -0.0339 0.9994 1.395 -2.4617)" fill="#282B2B" cx="73.385" cy="39.959" rx="0.57" ry="0.345"/>
	<g>
		<g>
			
				<ellipse transform="matrix(0.9994 0.034 -0.034 0.9994 1.6354 -2.982)" fill="#BFBDB8" cx="88.575" cy="46.636" rx="2.257" ry="1.607"/>
			<path fill="#EAEAEC" d="M87.161,45.229l-0.067,1.218c0,0,0.028,0.958,1.496,0.971c0.411,0.004,1.123-0.247,1.494-0.71
				l0.044-1.304L87.161,45.229z"/>
		</g>
	</g>
	<g>
		<g>
			
				<ellipse transform="matrix(0.9994 0.0338 -0.0338 0.9994 1.7071 -3.1386)" fill="#BFBDB8" cx="93.811" cy="48.991" rx="2.257" ry="1.608"/>
			<path fill="#EAEAEC" d="M92.289,47.521l-0.064,1.216c0,0,0.027,0.956,1.49,0.973c0.429,0.002,1.127-0.247,1.495-0.711
				l0.046-1.303L92.289,47.521z"/>
		</g>
	</g>
	<g>
		<g>
			
				<ellipse transform="matrix(0.9994 0.034 -0.034 0.9994 1.8113 -3.341)" fill="#BFBDB8" cx="99.122" cy="51.578" rx="2.254" ry="1.607"/>
			<path fill="#EAEAEC" d="M97.621,50.174l-0.08,1.23c0,0,0.04,0.955,1.488,0.96c0.429,0.004,1.129-0.246,1.515-0.712l0.026-1.291
				L97.621,50.174z"/>
		</g>
	</g>
	<g>
		<g>
			
				<ellipse transform="matrix(0.9994 0.0344 -0.0344 0.9994 1.9466 -3.6401)" fill="#BFBDB8" cx="106.619" cy="54.674" rx="2.587" ry="1.841"/>
			<path fill="#EAEAEC" d="M104.892,53.072l-0.083,1.396c0,0,0.05,1.098,1.706,1.112c0.495,0.004,1.295-0.282,1.716-0.814
				l0.05-1.494L104.892,53.072z"/>
		</g>
	</g>
	<g>
		<g>
			
				<ellipse transform="matrix(0.9994 0.0337 -0.0337 0.9994 2.17 -3.7111)" fill="#BFBDB8" cx="111.198" cy="62.532" rx="2.58" ry="1.842"/>
			<path fill="#EAEAEC" d="M109.541,60.906l-0.074,1.392c0,0,0.029,1.099,1.707,1.122c0.496,0.004,1.292-0.292,1.714-0.814
				l0.052-1.504L109.541,60.906z"/>
		</g>
	</g>
	<g>
		<g>
			
				<ellipse transform="matrix(0.9994 0.0337 -0.0337 0.9994 2.3081 -3.5941)" fill="#BFBDB8" cx="107.775" cy="66.674" rx="2.579" ry="1.843"/>
			<path fill="#EAEAEC" d="M106.036,65.091l-0.074,1.395c0,0,0.051,1.1,1.708,1.113c0.493,0.005,1.288-0.28,1.712-0.815l0.052-1.492
				L106.036,65.091z"/>
		</g>
	</g>
	<g>
		<g>
			
				<ellipse transform="matrix(0.9994 0.0347 -0.0347 0.9994 2.0963 -3.5282)" fill="#BFBDB8" cx="102.573" cy="58.558" rx="2.256" ry="1.607"/>
			<path fill="#EAEAEC" d="M101.102,57.144l-0.063,1.217c0,0,0.027,0.958,1.49,0.972c0.431,0.004,1.128-0.247,1.499-0.71
				l0.045-1.303L101.102,57.144z"/>
		</g>
	</g>
	<g>
		<g>
			
				<ellipse transform="matrix(0.9994 0.0333 -0.0333 0.9994 2.135 -3.2678)" fill="#BFBDB8" cx="99.13" cy="62.434" rx="2.257" ry="1.609"/>
			
				<ellipse transform="matrix(0.9994 0.0336 -0.0336 0.9994 2.5533 -3.0951)" fill="#605B5B" cx="93.457" cy="74.495" rx="1.869" ry="1.337"/>
			<path fill="#EAEAEC" d="M97.607,61.04l-0.064,1.217c0,0,0.046,0.958,1.492,0.973c0.43,0.002,1.129-0.246,1.495-0.711l0.044-1.302
				L97.607,61.04z"/>
		</g>
	</g>
	<g>
		<g>
			
				<ellipse transform="matrix(0.9994 0.0344 -0.0344 0.9994 1.9526 -3.2037)" fill="#BFBDB8" cx="94.074" cy="55.138" rx="2.257" ry="1.607"/>
			<path fill="#EAEAEC" d="M92.653,53.737l-0.063,1.227c0,0,0.044,0.956,1.487,0.973c0.432,0.002,1.129-0.247,1.498-0.711
				l0.045-1.304L92.653,53.737z"/>
		</g>
	</g>
	<g>
		<g>
			
				<ellipse transform="matrix(0.9994 0.0334 -0.0334 0.9994 2.0097 -2.994)" fill="#BFBDB8" cx="90.598" cy="58.643" rx="2.258" ry="1.607"/>
			<path fill="#EAEAEC" d="M89.101,57.203l-0.064,1.217c0,0,0.038,0.959,1.489,0.972c0.432,0.004,1.127-0.248,1.498-0.711
				l0.044-1.304L89.101,57.203z"/>
		</g>
	</g>
	<g>
		<g>
			
				<ellipse transform="matrix(0.9995 0.0331 -0.0331 0.9995 1.8675 -2.6944)" fill="#BFBDB8" cx="82.333" cy="55.071" rx="2.258" ry="1.607"/>
			<path fill="#EAEAEC" d="M80.802,53.622l-0.065,1.23c0,0,0.042,0.956,1.49,0.963c0.429,0.012,1.129-0.246,1.496-0.715l0.043-1.291
				L80.802,53.622z"/>
		</g>
	</g>
	<g>
		<g>
			
				<ellipse transform="matrix(0.9994 0.0349 -0.0349 0.9994 1.8374 -2.9545)" fill="#BFBDB8" cx="85.501" cy="51.125" rx="2.258" ry="1.608"/>
			<path fill="#EAEAEC" d="M84.006,49.749l-0.063,1.227c0,0,0.04,0.956,1.49,0.972c0.43,0.004,1.13-0.247,1.495-0.71l0.044-1.304
				L84.006,49.749z"/>
		</g>
	</g>
	<g>
		<path fill="#FFFFFF" d="M79.173,46.279c-0.029,0.567-0.706,1.005-1.531,0.979c-0.832-0.028-1.483-0.511-1.464-1.081
			c0.028-0.569,0.703-1.008,1.535-0.979C78.537,45.226,79.194,45.711,79.173,46.279z"/>
		<g>
			
				<ellipse transform="matrix(0.9994 0.0341 -0.0341 0.9994 1.6631 -2.6194)" fill="#BFBDB8" cx="77.722" cy="47.51" rx="2.258" ry="1.607"/>
			<path fill="#EAEAEC" d="M76.214,46.113l-0.064,1.217c0,0,0.046,0.959,1.489,0.972c0.435,0.004,1.127-0.244,1.497-0.711
				l0.045-1.304L76.214,46.113z"/>
			
				<ellipse transform="matrix(0.9994 0.0348 -0.0348 0.9994 1.6569 -2.6763)" fill="#595958" cx="77.667" cy="46.232" rx="1.199" ry="0.823"/>
		</g>
	</g>
	<g>
		
			<ellipse transform="matrix(0.9994 0.0336 -0.0336 0.9994 1.4753 -2.3178)" fill="#FFFFFF" cx="69.685" cy="42.724" rx="1.496" ry="1.03"/>
		<g>
			
				<ellipse transform="matrix(0.9994 0.0342 -0.0342 0.9994 1.5452 -2.3573)" fill="#BFBDB8" cx="69.677" cy="43.989" rx="2.256" ry="1.607"/>
			<path fill="#EAEAEC" d="M68.202,42.578l-0.062,1.23c0,0,0.042,0.956,1.487,0.958c0.431,0.005,1.129-0.245,1.502-0.71l0.039-1.291
				L68.202,42.578z"/>
			
				<ellipse transform="matrix(0.9994 0.0345 -0.0345 0.9994 1.5132 -2.3763)" fill="#595958" cx="69.634" cy="42.673" rx="1.196" ry="0.82"/>
		</g>
	</g>
	<path fill="none" stroke="#9A999A" stroke-width="0.4373" stroke-miterlimit="10" d="M112.777,57.251l2.975-0.77
		c0,0,1.128-0.521,1.247,0.598c0.129,1.11,0.573,2.153,0.573,2.153s-0.194,0.863-0.976,0.518l-3.452-1.542
		C113.145,58.21,111.809,57.612,112.777,57.251z"/>
	<path fill="#9A999A" d="M89.703,42.232c-0.249-0.007-0.822,0.683-0.822,0.683l21.817,9.83l0.752-1.002L89.703,42.232z"/>
	<polygon fill="#4F5553" points="95.408,85.32 94.513,86.41 94.492,85.477 95.468,84.434 	"/>
	<polygon fill="#474D4C" points="91.704,85.014 94.513,86.41 94.535,85.49 91.695,83.992 	"/>
	<polygon fill="#5F6664" points="92.596,83.029 91.65,84.035 94.517,85.52 95.46,84.408 	"/>
	<polygon fill="#4F5553" points="83.073,85.186 82.177,86.279 82.155,85.346 83.134,84.305 	"/>
	<polygon fill="#474D4C" points="79.37,84.885 82.177,86.279 82.198,85.354 79.358,83.867 	"/>
	<polygon fill="#5F6664" points="80.26,82.893 79.315,83.904 82.181,85.395 83.123,84.275 	"/>
	<polygon fill="#4F5553" points="79.325,89.078 78.428,90.17 78.405,89.234 79.384,88.193 	"/>
	<polygon fill="#474D4C" points="75.621,88.773 78.428,90.17 78.452,89.246 75.61,87.756 	"/>
	<polygon fill="#5F6664" points="76.511,86.787 75.564,87.799 78.433,89.283 79.372,88.166 	"/>
	<polygon fill="#5F6664" points="65.795,95.607 64.438,97.209 81.261,105.525 82.662,104.09 	"/>
	<polygon fill="none" stroke="#5F6664" stroke-width="0.1093" stroke-miterlimit="10" points="31.62,78.814 30.26,80.412 
		37.948,83.973 39.346,82.537 	"/>
	<polygon fill="none" stroke="#5F6664" stroke-width="0.1093" stroke-miterlimit="10" points="39.909,83.061 38.549,84.664 
		46.234,88.223 47.635,86.787 	"/>
	<polygon fill="none" stroke="#5F6664" stroke-width="0.1093" stroke-miterlimit="10" points="48.542,87.182 47.182,88.781 
		54.869,92.342 56.263,90.904 	"/>
	<polygon fill="none" stroke="#5F6664" stroke-width="0.1093" stroke-miterlimit="10" points="57.213,91.49 55.852,93.096 
		63.539,96.652 64.941,95.219 	"/>
	
		<ellipse transform="matrix(0.9994 0.0334 -0.0334 0.9994 1.8538 -3.117)" fill="#FFFFFF" cx="94.098" cy="53.855" rx="1.496" ry="1.029"/>
	
		<ellipse transform="matrix(0.9995 0.0312 -0.0312 0.9995 1.7234 -2.9073)" fill="#595958" cx="94.107" cy="53.821" rx="1.198" ry="0.822"/>
	
		<ellipse transform="matrix(0.9994 0.0334 -0.0334 0.9994 1.9633 -2.9911)" fill="#FFFFFF" cx="90.566" cy="57.305" rx="1.499" ry="1.029"/>
	
		<ellipse transform="matrix(0.9995 0.0325 -0.0325 0.9995 1.9143 -2.9147)" fill="#595958" cx="90.536" cy="57.375" rx="1.201" ry="0.819"/>
	
		<ellipse transform="matrix(0.9994 0.0342 -0.0342 0.9994 1.6047 -3.0064)" fill="#FFFFFF" cx="88.614" cy="45.367" rx="1.498" ry="1.032"/>
	
		<ellipse transform="matrix(0.9994 0.0355 -0.0355 0.9994 1.6648 -3.1213)" fill="#595958" cx="88.758" cy="45.337" rx="1.197" ry="0.825"/>
	
		<ellipse transform="matrix(0.9994 0.0342 -0.0342 0.9994 1.6834 -3.1764)" fill="#FFFFFF" cx="93.71" cy="47.629" rx="1.499" ry="1.029"/>
	
		<ellipse transform="matrix(0.9994 0.0333 -0.0333 0.9994 1.6373 -3.0939)" fill="#595958" cx="93.739" cy="47.626" rx="1.195" ry="0.822"/>
	
		<ellipse transform="matrix(0.9995 0.032 -0.032 0.9995 1.6612 -3.1448)" fill="#FFFFFF" cx="99.019" cy="50.295" rx="1.494" ry="1.032"/>
	
		<ellipse transform="matrix(0.9994 0.0336 -0.0336 0.9994 1.7459 -3.3016)" fill="#595958" cx="99.067" cy="50.276" rx="1.198" ry="0.822"/>
	
		<ellipse transform="matrix(0.9995 0.0327 -0.0327 0.9995 1.7983 -3.4574)" fill="#FFFFFF" cx="106.536" cy="53.216" rx="1.724" ry="1.18"/>
	
		<ellipse transform="matrix(0.9995 0.0318 -0.0318 0.9995 1.7432 -3.3577)" fill="#595958" cx="106.543" cy="53.181" rx="1.376" ry="0.945"/>
	
		<ellipse transform="matrix(0.9994 0.0346 -0.0346 0.9994 2.1802 -3.8112)" fill="#FFFFFF" cx="111.212" cy="61.087" rx="1.722" ry="1.181"/>
	
		<ellipse transform="matrix(0.9994 0.0337 -0.0337 0.9994 2.1234 -3.7131)" fill="#595958" cx="111.195" cy="61.126" rx="1.376" ry="0.942"/>
	
		<ellipse transform="matrix(0.9994 0.0341 -0.0341 0.9994 2.2901 -3.6384)" fill="#FFFFFF" cx="107.7" cy="65.25" rx="1.724" ry="1.179"/>
	
		<ellipse transform="matrix(0.9994 0.0346 -0.0346 0.9994 2.3231 -3.6916)" fill="#595958" cx="107.701" cy="65.198" rx="1.374" ry="0.942"/>
	
		<ellipse transform="matrix(0.9994 0.0345 -0.0345 0.9994 2.0358 -3.5057)" fill="#FFFFFF" cx="102.582" cy="57.227" rx="1.5" ry="1.031"/>
	
		<ellipse transform="matrix(0.9995 0.033 -0.033 0.9995 1.9432 -3.3544)" fill="#595958" cx="102.583" cy="57.187" rx="1.198" ry="0.823"/>
	
		<ellipse transform="matrix(0.9994 0.0345 -0.0345 0.9994 2.173 -3.3862)" fill="#FFFFFF" cx="99.093" cy="61.198" rx="1.498" ry="1.031"/>
	
		<ellipse transform="matrix(0.9994 0.0348 -0.0348 0.9994 2.1915 -3.4118)" fill="#595958" cx="99.05" cy="61.213" rx="1.199" ry="0.822"/>
	<path fill="#EAEAEC" d="M92.132,73.101l-0.063,1.217c0,0,0.036,0.957,1.488,0.971c0.431,0.005,1.127-0.247,1.497-0.709l0.044-1.304
		L92.132,73.101z"/>
	<path fill="#EF3824" d="M95.088,73.293c-0.02,0.568-0.704,1.006-1.533,0.978c-0.827-0.025-1.482-0.51-1.463-1.078
		c0.019-0.571,0.705-1.01,1.532-0.981C94.453,72.24,95.107,72.722,95.088,73.293z"/>
	<path fill="#595958" d="M94.364,73.234c-0.009,0.294-0.368,0.523-0.8,0.51c-0.432-0.016-0.774-0.264-0.764-0.558
		c0.008-0.295,0.366-0.523,0.799-0.51C94.031,72.691,94.374,72.939,94.364,73.234z"/>
	
		<ellipse transform="matrix(0.9994 0.0334 -0.0334 0.9994 2.6231 -3.2366)" fill="#605B5B" cx="98.084" cy="76.811" rx="1.869" ry="1.335"/>
	<path fill="#EAEAEC" d="M96.782,75.314l-0.066,1.229c0,0,0.044,0.957,1.491,0.959c0.432,0.006,1.128-0.246,1.497-0.709l0.045-1.302
		L96.782,75.314z"/>
	
		<ellipse transform="matrix(0.9994 0.0344 -0.0344 0.9994 2.6525 -3.3317)" fill="#EF3824" cx="98.242" cy="75.493" rx="1.499" ry="1.033"/>
	
		<ellipse transform="matrix(0.9994 0.0354 -0.0354 0.9994 2.7355 -3.436)" fill="#595958" cx="98.269" cy="75.429" rx="0.785" ry="0.536"/>
	
		<ellipse transform="matrix(0.9994 0.0355 -0.0355 0.9994 2.8089 -3.1695)" fill="#605B5B" cx="90.645" cy="77.502" rx="1.87" ry="1.335"/>
	<path fill="#EAEAEC" d="M89.333,76.064l-0.065,1.217c0,0,0.045,0.959,1.49,0.975c0.432,0.002,1.126-0.246,1.496-0.715l0.045-1.301
		L89.333,76.064z"/>
	
		<ellipse transform="matrix(0.9994 0.0345 -0.0345 0.9994 2.6841 -3.0878)" fill="#EBF7FC" cx="90.799" cy="76.216" rx="1.5" ry="1.031"/>
	
		<ellipse transform="matrix(0.9995 0.0325 -0.0325 0.9995 2.5233 -2.9161)" fill="#595958" cx="90.843" cy="76.057" rx="0.78" ry="0.534"/>
	
		<ellipse transform="matrix(0.9994 0.034 -0.034 0.9994 2.7606 -3.1901)" fill="#605B5B" cx="95.296" cy="79.675" rx="1.869" ry="1.332"/>
	<path fill="#EAEAEC" d="M93.98,78.281l-0.064,1.215c0,0,0.042,0.957,1.489,0.973c0.432,0.004,1.13-0.248,1.498-0.711l0.044-1.303
		L93.98,78.281z"/>
	
		<ellipse transform="matrix(0.9995 0.0307 -0.0307 0.9995 2.4527 -2.8929)" fill="#EBF7FC" cx="95.392" cy="78.39" rx="1.494" ry="1.033"/>
	<path fill="#595958" d="M96.237,78.428c-0.011,0.293-0.369,0.521-0.799,0.51c-0.431-0.016-0.771-0.268-0.761-0.563
		c0.01-0.295,0.366-0.523,0.798-0.51C95.905,77.881,96.246,78.133,96.237,78.428z"/>
	
		<ellipse transform="matrix(0.9994 0.0347 -0.0347 0.9994 1.914 -2.8221)" fill="#FFFFFF" cx="82.253" cy="53.725" rx="1.498" ry="1.031"/>
	
		<ellipse transform="matrix(0.9995 0.0312 -0.0312 0.9995 1.7177 -2.54)" fill="#595958" cx="82.259" cy="53.779" rx="1.197" ry="0.823"/>
	
		<ellipse transform="matrix(0.9994 0.0333 -0.0333 0.9994 1.7076 -2.8169)" fill="#FFFFFF" cx="85.467" cy="49.884" rx="1.496" ry="1.03"/>
	<path fill="#595958" d="M86.663,49.904c-0.028,0.466-0.58,0.805-1.24,0.793c-0.663-0.028-1.185-0.41-1.173-0.863
		c0.017-0.454,0.566-0.804,1.229-0.782C86.151,49.064,86.68,49.449,86.663,49.904z"/>
	<g>
		<path fill="#AB5F68" d="M93.119,88.662c-0.009,0.266-0.243,0.469-0.523,0.461c-0.279-0.01-0.5-0.229-0.491-0.49
			c0.009-0.264,0.243-0.469,0.523-0.461S93.128,88.4,93.119,88.662z"/>
		
			<ellipse transform="matrix(0.9996 0.0288 -0.0288 0.9996 2.6501 -2.5884)" fill="#AB5F68" cx="91.074" cy="90.597" rx="0.508" ry="0.478"/>
		
			<ellipse transform="matrix(0.9995 0.0308 -0.0308 0.9995 2.7787 -2.6581)" fill="#AB5F68" cx="87.716" cy="88.914" rx="0.508" ry="0.477"/>
	</g>
	<g>
		
			<ellipse transform="matrix(0.9994 0.0345 -0.0345 0.9994 3.2152 -3.0518)" fill="#FEE093" cx="90.135" cy="91.742" rx="0.51" ry="0.477"/>
		
			<ellipse transform="matrix(0.9994 0.0347 -0.0347 0.9994 3.1759 -2.9532)" fill="#FEE093" cx="86.765" cy="90.123" rx="0.507" ry="0.477"/>
	</g>
	<g>
		<path fill="#D6EBD0" d="M89.409,92.871c-0.01,0.264-0.241,0.473-0.521,0.463c-0.279-0.008-0.498-0.232-0.49-0.492
			c0.01-0.264,0.243-0.473,0.521-0.461C89.198,92.387,89.417,92.607,89.409,92.871z"/>
		
			<ellipse transform="matrix(0.9995 0.033 -0.033 0.9995 3.0556 -2.7676)" fill="#D6EBD0" cx="85.473" cy="91.298" rx="0.504" ry="0.476"/>
		<path fill="#D6EBD0" d="M88.375,94.24c-0.016,0.254-0.249,0.463-0.524,0.463c-0.278-0.01-0.499-0.232-0.488-0.496
			c0.011-0.262,0.25-0.467,0.524-0.459C88.163,93.752,88.384,93.979,88.375,94.24z"/>
		
			<ellipse transform="matrix(0.9994 0.0347 -0.0347 0.9994 3.2653 -2.8713)" fill="#D6EBD0" cx="84.368" cy="92.652" rx="0.507" ry="0.479"/>
	</g>
	
		<line fill="none" stroke="#5F6664" stroke-width="0.2186" stroke-linecap="round" stroke-linejoin="round" stroke-miterlimit="10" x1="106.269" y1="77.822" x2="81.646" y2="105.68"/>
	
		<line fill="none" stroke="#5F6664" stroke-width="0.2186" stroke-linecap="round" stroke-linejoin="round" stroke-miterlimit="10" x1="88.952" y1="69.727" x2="63.812" y2="97.094"/>
	<g>
		<path fill="#AFB4B7" d="M82.511,81.189c-0.118-0.422,0.287-4.576,0.287-4.576s0.854-2.801,3.95-0.75l0.481,4.48
			c0,0,0.311,1.961-2.175,2.324C85.059,82.658,82.908,82.584,82.511,81.189z"/>
		
			<ellipse transform="matrix(0.9994 0.0341 -0.0341 0.9994 2.6532 -2.8444)" fill="#EBF7FC" cx="84.831" cy="76.47" rx="1.807" ry="1.289"/>
	</g>
</g>
</svg>
