<?xml version="1.0" encoding="utf-8"?>
<!-- Generator: Adobe Illustrator 14.0.0, SVG Export Plug-In . SVG Version: 6.00 Build 43363)  -->
<!DOCTYPE svg PUBLIC "-//W3C//DTD SVG 1.1//EN" "http://www.w3.org/Graphics/SVG/1.1/DTD/svg11.dtd">
<svg version="1.1" id="Layer_1" xmlns="http://www.w3.org/2000/svg" xmlns:xlink="http://www.w3.org/1999/xlink" x="0px" y="0px"
	 width="150px" height="150px" viewBox="0 0 150 150" enable-background="new 0 0 150 150" xml:space="preserve">
<g id="udev5">
	<polygon fill="#747680" points="71.173,31.201 60.807,68.405 30.856,83.313 79.314,114.173 108.852,90.765 121.714,44.752 	"/>
	<polygon fill="#595B64" points="73.637,37.332 65.798,68.065 104.102,85.131 113.529,48.934 	"/>
	<path fill="#6A6A72" d="M110.475,49.226l-35.731-10.39l-6.032,23.649C83.36,64.028,100.706,61.006,110.475,49.226z"/>
	<g>
		<path fill="#97969E" d="M86.829,101.31l-0.108-0.055l-40.156-21.09l16.759-8.372l0.08,0.037l39.14,18.578L86.829,101.31z
			 M47.485,80.179l39.309,20.656l14.928-10.35L63.336,72.26L47.485,80.179z"/>
	</g>
	<g>
		
			<line fill="none" stroke="#97969E" stroke-width="0.3524" stroke-miterlimit="10" x1="50.619" y1="81.852" x2="66.926" y2="73.707"/>
		
			<line fill="none" stroke="#97969E" stroke-width="0.3524" stroke-miterlimit="10" x1="54.209" y1="83.746" x2="70.33" y2="75.344"/>
		
			<line fill="none" stroke="#97969E" stroke-width="0.3524" stroke-miterlimit="10" x1="57.801" y1="85.638" x2="73.731" y2="76.984"/>
		
			<line fill="none" stroke="#97969E" stroke-width="0.3524" stroke-miterlimit="10" x1="63.772" y1="86.077" x2="77.138" y2="78.623"/>
		
			<line fill="none" stroke="#97969E" stroke-width="0.3524" stroke-miterlimit="10" x1="67.113" y1="87.974" x2="80.542" y2="80.266"/>
		
			<line fill="none" stroke="#97969E" stroke-width="0.3524" stroke-miterlimit="10" x1="70.907" y1="89.786" x2="83.943" y2="81.903"/>
		
			<line fill="none" stroke="#97969E" stroke-width="0.3524" stroke-miterlimit="10" x1="72.165" y1="93.211" x2="87.349" y2="83.544"/>
		
			<line fill="none" stroke="#97969E" stroke-width="0.3524" stroke-miterlimit="10" x1="75.754" y1="95.104" x2="90.751" y2="85.187"/>
		
			<line fill="none" stroke="#97969E" stroke-width="0.3524" stroke-miterlimit="10" x1="79.344" y1="96.995" x2="94.155" y2="86.822"/>
		
			<line fill="none" stroke="#97969E" stroke-width="0.3524" stroke-miterlimit="10" x1="82.937" y1="98.887" x2="97.563" y2="88.462"/>
	</g>
	<g>
		
			<line fill="none" stroke="#97969E" stroke-width="0.3524" stroke-miterlimit="10" x1="61.336" y1="73.098" x2="99.976" y2="91.519"/>
		
			<line fill="none" stroke="#97969E" stroke-width="0.3524" stroke-miterlimit="10" x1="59.45" y1="74.061" x2="98.169" y2="92.839"/>
		
			<line fill="none" stroke="#97969E" stroke-width="0.3524" stroke-miterlimit="10" x1="57.568" y1="75.021" x2="96.358" y2="94.153"/>
		
			<line fill="none" stroke="#97969E" stroke-width="0.3524" stroke-miterlimit="10" x1="55.683" y1="75.982" x2="94.549" y2="95.476"/>
		
			<line fill="none" stroke="#97969E" stroke-width="0.3524" stroke-miterlimit="10" x1="53.798" y1="76.946" x2="92.737" y2="96.793"/>
		
			<line fill="none" stroke="#97969E" stroke-width="0.3524" stroke-miterlimit="10" x1="51.912" y1="77.904" x2="90.932" y2="98.11"/>
		
			<line fill="none" stroke="#97969E" stroke-width="0.3524" stroke-miterlimit="10" x1="50.029" y1="78.867" x2="89.124" y2="99.432"/>
	</g>
	<polygon fill="none" stroke="#97969E" stroke-width="0.3524" stroke-miterlimit="10" points="57.931,87.481 49.733,91.765 
		61.497,98.851 69.617,93.661 	"/>
</g>
</svg>
