<?xml version="1.0" encoding="utf-8"?>
<!-- Generator: Adobe Illustrator 14.0.0, SVG Export Plug-In . SVG Version: 6.00 Build 43363)  -->
<!DOCTYPE svg PUBLIC "-//W3C//DTD SVG 1.1//EN" "http://www.w3.org/Graphics/SVG/1.1/DTD/svg11.dtd">
<svg version="1.1" id="Layer_1" xmlns="http://www.w3.org/2000/svg" xmlns:xlink="http://www.w3.org/1999/xlink" x="0px" y="0px"
	 width="150px" height="150px" viewBox="0 0 150 150" enable-background="new 0 0 150 150" xml:space="preserve">
<g id="udev1">
	<g>
		<g>
			<polygon fill="#302F2D" points="113.027,82.473 113.464,101.22 131.104,89.683 130.764,75.089 			"/>
			<polygon fill="#5B5757" points="113.027,82.473 25.166,80.873 48.729,73.173 130.764,75.089 			"/>
			<polygon fill="#3B3B39" points="113.464,101.22 25.962,98.503 25.543,80.664 113.027,82.473 			"/>
			<polygon fill="#4FB2E3" points="70.879,94.854 56.564,94.046 56.199,85.399 70.501,85.778 			"/>
			<polygon fill="#6198D0" points="31.456,92.274 27.768,91.845 27.604,85.02 31.131,85.358 			"/>
			<polygon fill="#5F6163" points="77.218,86.714 72.447,86.448 72.324,83.563 77.094,83.689 			"/>
			<polygon fill="#5F6163" points="77.331,91.626 72.563,91.356 72.437,88.474 77.207,88.599 			"/>
			<polygon fill="#5F6163" points="77.443,96.286 72.672,96.017 72.55,93.138 77.318,93.261 			"/>
			<polygon fill="#5F6163" points="109.168,97.802 84.687,96.364 84.564,93.483 109.043,94.776 			"/>
			<polygon fill="#5F6163" points="55.326,86.405 50.552,86.132 50.434,83.25 55.201,83.375 			"/>
			<polygon fill="#5F6163" points="55.44,91.31 50.673,91.04 50.548,88.157 55.315,88.286 			"/>
			<polygon fill="#5F6163" points="55.552,95.974 50.779,95.704 50.655,92.823 55.422,92.952 			"/>
			<polygon fill="#5F6163" points="49.606,86.21 44.833,85.942 44.714,83.059 49.481,83.189 			"/>
			<polygon fill="#5F6163" points="49.72,91.122 44.949,90.853 44.824,87.968 49.594,88.097 			"/>
			<polygon fill="#5F6163" points="49.83,95.786 45.058,95.519 44.935,92.634 49.703,92.763 			"/>
			<polygon fill="none" stroke="#5F6163" stroke-width="0.1994" stroke-miterlimit="10" points="32.702,96.692 27.931,96.425 
				27.808,93.54 32.577,93.671 			"/>
			<path fill="#535150" d="M26.09,98.571l-5.184-0.334l-0.499-17.722l5.192,0.314L26.09,98.571z M24.635,83.809
				c-0.026-0.758-0.456-1.391-0.981-1.441l-1.307-0.086c-0.518-0.031-0.921,0.572-0.91,1.322l0,0c0.021,0.76,0.46,1.406,0.979,1.438
				l1.314,0.082C24.249,85.158,24.655,84.57,24.635,83.809L24.635,83.809z M24.977,95.589c-0.018-0.758-0.459-1.391-0.979-1.439
				l-1.317-0.082c-0.519-0.033-0.922,0.568-0.905,1.32l0,0c0.017,0.76,0.446,1.408,0.98,1.438l1.301,0.082
				C24.591,96.938,24.996,96.347,24.977,95.589L24.977,95.589z"/>
			<path fill="#535150" d="M118.668,101.417l-5.577-0.16l-0.52-18.868l5.584,0.137L118.668,101.417z M117.112,85.87
				c-0.021-0.851-0.49-1.554-1.052-1.565l-1.394-0.039c-0.564-0.027-0.991,0.652-0.98,1.483l0,0c0.028,0.85,0.5,1.549,1.048,1.563
				l1.404,0.039C116.698,87.382,117.135,86.71,117.112,85.87L117.112,85.87z M117.472,98.159c-0.023-0.844-0.492-1.535-1.05-1.557
				l-1.404-0.037c-0.56-0.021-0.994,0.662-0.975,1.488l0,0c0.026,0.84,0.494,1.541,1.056,1.555l1.395,0.045
				C117.057,99.673,117.491,99.003,117.472,98.159L117.472,98.159z"/>
			
				<line fill="none" stroke="#3B3B39" stroke-width="0.7975" stroke-miterlimit="10" x1="88.076" y1="90.011" x2="88.261" y2="97.864"/>
			
				<line fill="none" stroke="#3B3B39" stroke-width="0.7975" stroke-miterlimit="10" x1="91.829" y1="89.81" x2="92.008" y2="97.665"/>
			
				<line fill="none" stroke="#3B3B39" stroke-width="0.7975" stroke-miterlimit="10" x1="95.576" y1="89.612" x2="95.761" y2="97.466"/>
			
				<line fill="none" stroke="#3B3B39" stroke-width="0.7975" stroke-miterlimit="10" x1="99.327" y1="89.415" x2="99.556" y2="99.229"/>
			
				<line fill="none" stroke="#3B3B39" stroke-width="0.7975" stroke-miterlimit="10" x1="103.08" y1="89.216" x2="103.311" y2="99.034"/>
			
				<line fill="none" stroke="#3B3B39" stroke-width="0.7975" stroke-miterlimit="10" x1="106.831" y1="89.019" x2="107.063" y2="98.835"/>
			<path fill="none" stroke="#676462" stroke-width="0.3987" stroke-miterlimit="10" d="M83.313,90.13
				c0.051,2.234-0.931,4.102-2.193,4.166c-1.26,0.066-2.323-1.695-2.377-3.93c-0.049-2.236,0.933-4.102,2.193-4.166
				C82.197,86.136,83.261,87.894,83.313,90.13z"/>
		</g>
	</g>
	<g>
		<g>
			<path fill="#FBD8BB" d="M74.118,80.307C74.155,81.143,74.832,79.787,74.118,80.307L74.118,80.307z"/>
		</g>
		<g>
			<polygon fill="#302F2D" points="113.042,65.102 113.483,83.848 131.124,72.311 130.781,57.718 			"/>
			<polygon fill="#5B5757" points="113.042,65.102 25.187,63.501 48.745,55.806 130.781,57.718 			"/>
			<polygon fill="#D8D5D5" points="113.483,83.848 25.981,81.133 25.564,63.296 113.042,65.102 			"/>
			<polygon fill="#464546" points="111.047,83.281 28.397,80.713 28.001,63.861 110.633,65.57 			"/>
			<polygon fill="#5F6163" points="83.683,81.992 47.23,81.43 46.729,64.163 83.472,65.208 			"/>
			<polygon fill="#5F6163" points="37.558,74.455 28.851,74.057 28.728,71.174 37.433,71.427 			"/>
			<path fill="#D8D5D5" d="M26.112,81.199l-5.192-0.316l-0.49-17.735l5.184,0.333L26.112,81.199z M24.655,66.437
				c-0.018-0.757-0.457-1.405-0.978-1.437l-1.325-0.085c-0.512-0.034-0.921,0.554-0.913,1.319l0,0
				c0.021,0.758,0.453,1.391,0.982,1.439l1.305,0.086C24.271,67.792,24.679,67.202,24.655,66.437L24.655,66.437z M24.996,78.221
				c-0.02-0.765-0.458-1.408-0.98-1.439l-1.307-0.086c-0.53-0.045-0.924,0.557-0.922,1.321l0,0c0.027,0.759,0.465,1.394,0.984,1.437
				l1.303,0.084C24.611,79.568,25.017,78.979,24.996,78.221L24.996,78.221z"/>
			<path fill="#D8D5D5" d="M118.687,84.045l-5.579-0.156l-0.516-18.871l5.573,0.157L118.687,84.045z M117.13,68.5
				c-0.028-0.844-0.49-1.538-1.05-1.554l-1.402-0.046c-0.56-0.015-0.994,0.67-0.973,1.498l0,0c0.021,0.843,0.49,1.541,1.048,1.556
				l1.397,0.045C116.718,70.012,117.153,69.341,117.13,68.5L117.13,68.5z M117.488,80.789c-0.02-0.85-0.489-1.551-1.047-1.564
				l-1.405-0.039c-0.562-0.016-0.995,0.652-0.973,1.479l0,0c0.023,0.85,0.492,1.553,1.048,1.563l1.395,0.041
				C117.074,82.303,117.514,81.627,117.488,80.789L117.488,80.789z"/>
		</g>
		<line fill="none" stroke="#464546" stroke-width="0.25" stroke-miterlimit="10" x1="46.977" y1="68.37" x2="83.362" y2="69.197"/>
		
			<line fill="none" stroke="#464546" stroke-width="0.25" stroke-miterlimit="10" x1="47.059" y1="78.496" x2="83.443" y2="79.328"/>
		<path fill="#0491C9" d="M81.988,73.741c0.043,0.74-0.34,1.393-0.854,1.462c-0.514,0.069-0.967-0.476-1.008-1.212
			c-0.045-0.74,0.336-1.393,0.852-1.462C81.493,72.459,81.943,73.004,81.988,73.741z"/>
		<path fill="#EF4131" d="M49.828,72.807c0.013,0.218-0.104,0.411-0.259,0.43c-0.154,0.021-0.29-0.14-0.303-0.358
			c-0.013-0.218,0.104-0.413,0.259-0.432C49.68,72.426,49.816,72.587,49.828,72.807z"/>
		<path fill="#35B34A" d="M53.509,73.013c0.012,0.217-0.102,0.41-0.256,0.431c-0.153,0.021-0.288-0.14-0.301-0.358
			c-0.012-0.218,0.102-0.412,0.256-0.432C53.361,72.633,53.495,72.794,53.509,73.013z"/>
		<path fill="#35B34A" d="M56.935,73.199c0.014,0.22-0.102,0.412-0.255,0.432c-0.154,0.019-0.288-0.143-0.3-0.36
			c-0.013-0.218,0.102-0.411,0.256-0.432C56.789,72.82,56.924,72.98,56.935,73.199z"/>
	</g>
</g>
</svg>
