<?xml version="1.0" encoding="utf-8"?>
<!-- Generator: Adobe Illustrator 14.0.0, SVG Export Plug-In . SVG Version: 6.00 Build 43363)  -->
<!DOCTYPE svg PUBLIC "-//W3C//DTD SVG 1.1//EN" "http://www.w3.org/Graphics/SVG/1.1/DTD/svg11.dtd">
<svg version="1.1" id="Layer_1" xmlns="http://www.w3.org/2000/svg" xmlns:xlink="http://www.w3.org/1999/xlink" x="0px" y="0px"
	 width="150px" height="150px" viewBox="0 0 150 150" enable-background="new 0 0 150 150" xml:space="preserve">
<g id="uins2">
	<g>
		<g>
			
				<line fill="none" stroke="#ABA8AA" stroke-width="0.8168" stroke-linecap="round" stroke-linejoin="round" stroke-miterlimit="10" x1="117.318" y1="131.846" x2="117.318" y2="31.583"/>
			
				<line fill="none" stroke="#ABA8AA" stroke-width="2.4504" stroke-linecap="round" stroke-linejoin="round" stroke-miterlimit="10" x1="117.318" y1="131.846" x2="117.318" y2="39.207"/>
			<path fill="#EAD489" d="M124.465,41.088c-4.875,0.182-3.303-1.252-7.303-0.367c-4.008,0.81-2.219,1.532-6.924,3.375
				c-4.715,1.845-5.875,3.019-5.875,3.019s6.555-1.386,13.146-2.777c0.011-0.003,0.023-0.004,0.034-0.01
				c6.592-1.395,13.143-2.777,13.143-2.777S129.346,40.902,124.465,41.088z"/>
			<path fill="#D6B77C" d="M114.088,41.921c-0.678,0.527-1.343,1.191-3.85,2.175c-4.715,1.845-5.875,3.019-5.875,3.019
				s4.591-0.971,9.951-2.106c-0.238-0.142-0.474-0.305-0.705-0.496C112.971,44.049,113.343,43.001,114.088,41.921z"/>
			<path fill="#EAD489" d="M125.615,41.059c-0.361,0.005-0.74,0.012-1.15,0.029c-4.875,0.182-3.303-1.252-7.303-0.367
				c-1.872,0.376-2.479,0.737-3.074,1.2c-0.745,1.079-1.117,2.129-0.479,2.591c0.229,0.191,0.467,0.355,0.703,0.496
				c1.047-0.221,2.121-0.45,3.196-0.674c0.011-0.002,0.023-0.004,0.034-0.007c3.455-0.736,6.898-1.458,9.393-1.991
				C126.643,41.792,126.168,41.388,125.615,41.059z"/>
			<path fill="#D6B77C" d="M125.615,41.059c0.553,0.329,1.025,0.731,1.322,1.282c2.268-0.481,3.752-0.795,3.752-0.795
				S129.555,41.009,125.615,41.059z"/>
			<g>
				<path fill="#F2E9D3" d="M121.217,41.775c-2.688-0.282-1.882-1.552-4.055-1.052c1.624-0.382,1.049,0.838,3.078,1.257
					c2.033,0.42,2.634,1.22,2.634,1.22c1.095-0.233,1.808-0.383,1.808-0.383S123.909,42.054,121.217,41.775z"/>
			</g>
			<path fill="#EAD489" d="M110.105,48.25c4.842,0.839,3.143,1.927,7.189,1.888c4.047,0.041,2.348-1.049,7.188-1.888
				c4.849-0.84,6.115-1.757,6.115-1.757s-6.623,0-13.285,0c-0.014,0-0.024,0-0.037,0c-6.662,0-13.283,0-13.283,0
				S105.26,47.41,110.105,48.25z"/>
			<path fill="#D6B77C" d="M124.281,48.287c0.066-0.013,0.132-0.024,0.205-0.037c4.846-0.84,6.119-1.757,6.119-1.757
				s-6.619,0-13.287,0c-0.01,0-0.027,0-0.032,0c-6.663,0-13.288,0-13.288,0s1.268,0.917,6.117,1.757
				c0.229,0.041,0.443,0.078,0.643,0.122C115.186,47.123,119.816,47.153,124.281,48.287z"/>
			<path fill="#CCCACA" d="M118.609,38.777c-0.102-0.416-0.316-0.732-0.623-0.667c-0.002,0-1.953,0.413-1.953,0.413
				c-0.368,0.078-0.453,0.568-0.346,0.955c-0.017,0.147,0.004,0.3,0.043,0.44c-0.037,0.438,0.186,0.957,0.584,0.872l1.869-0.395
				C118.648,40.295,118.764,39.417,118.609,38.777z"/>
			<path fill="#CCCACA" d="M118.82,51.076c-0.053-0.437-0.231-0.796-0.534-0.796h-1.978c-0.369,0-0.504,0.461-0.437,0.866
				c-0.031,0.141-0.026,0.298,0,0.453c-0.08,0.422,0.089,0.982,0.489,0.982h1.891C118.707,52.581,118.904,51.739,118.82,51.076z"/>
			<path fill="#CCCACA" d="M118.822,69.772c-0.053-0.435-0.227-0.796-0.536-0.796h-1.978c-0.369,0-0.504,0.467-0.437,0.873
				c-0.031,0.141-0.026,0.297,0,0.449c-0.08,0.424,0.089,0.981,0.489,0.981h1.891C118.707,71.279,118.908,70.438,118.822,69.772z"/>
			<path fill="#CCCACA" d="M118.822,72.266c-0.053-0.437-0.227-0.8-0.536-0.8h-1.978c-0.369,0-0.504,0.468-0.437,0.873
				c-0.031,0.142-0.026,0.299,0,0.45c-0.08,0.423,0.089,0.983,0.489,0.983h1.891C118.707,73.77,118.908,72.932,118.822,72.266z"/>
		</g>
		<polygon fill="#565659" points="116.068,131.586 116.395,125.511 118.209,124.297 118.451,133.041 		"/>
		<polyline fill="#727174" points="119.846,122.966 94.248,130.693 94.871,133.25 120.029,125.182 120.083,122.801 		"/>
		<polyline fill="#727174" points="120.741,131.113 94.602,130.65 94.82,133.117 120.584,133.335 120.998,131.03 		"/>
		<polygon fill="#727174" points="113.124,132.273 114.141,127.843 119.826,126.956 120.584,133.335 		"/>
		<g>
			
				<polyline fill="none" stroke="#91918F" stroke-width="4.073" stroke-linecap="round" stroke-linejoin="round" stroke-miterlimit="10" points="
				81.477,100.28 81.477,125.283 86.877,131.176 			"/>
			<rect x="69.229" y="93.381" fill="#6A6C6E" width="21.733" height="8.047"/>
			
				<line fill="none" stroke="#91918F" stroke-width="4.073" stroke-linecap="round" stroke-linejoin="round" stroke-miterlimit="10" x1="81.477" y1="125.283" x2="72.784" y2="134.48"/>
			
				<line fill="none" stroke="#91918F" stroke-width="4.073" stroke-linecap="round" stroke-linejoin="round" stroke-miterlimit="10" x1="81.477" y1="125.283" x2="81.675" y2="135.057"/>
			<path fill="#D3D6DA" d="M64.503,84.552c-0.514,3.077-0.625,5.406-0.551,7.099c0.011,0,0.02,0,0.032,0
				c4.068-4.293,8.753-4.092,13.506-1.33c1.017-0.156,1.436-2.18,1.424-3.94C77.284,79.344,68.872,79.999,64.503,84.552z"/>
			<g>
				<path fill="#D44E2B" d="M73.028,52.86c-1.532,4.255-6.592,4.822-11.302,1.27c-4.709-3.552-7.287-9.879-5.755-14.137
					c1.533-4.252,6.595-4.821,11.304-1.27C71.983,42.282,74.561,48.608,73.028,52.86z"/>
				<path fill="#85878A" d="M73.213,53.014c-0.124,0.312-0.277,0.674-0.455,0.967c-0.171,0.308-0.372,0.576-0.577,0.831
					c-0.422,0.489-0.898,0.87-1.396,1.15c-0.996,0.559-2.067,0.736-3.114,0.7c-2.106-0.018-4.17-0.896-6.046-2.257
					c-1.875-1.344-3.615-3.215-4.918-5.69c-0.645-1.236-1.198-2.617-1.486-4.183c-0.293-1.551-0.282-3.347,0.249-4.91
					c0.09-0.231,0.114-0.33,0.209-0.542c0.085-0.196,0.173-0.389,0.265-0.55c0.179-0.346,0.39-0.652,0.609-0.94
					c0.447-0.563,0.953-1.002,1.482-1.333c1.061-0.655,2.193-0.918,3.301-0.917c2.224,0.029,4.365,0.952,6.307,2.365
					c0.961,0.738,1.873,1.624,2.687,2.677c0.81,1.061,1.526,2.272,2.116,3.602c0.582,1.333,1.028,2.813,1.221,4.379
					c0.213,1.553,0.106,3.256-0.449,4.635L73.213,53.014z M72.84,52.72c0.46-1.259,0.516-2.769,0.285-4.169
					c-0.228-1.411-0.704-2.733-1.297-3.92c-1.197-2.383-2.847-4.258-4.654-5.627c-1.811-1.354-3.818-2.241-5.853-2.293
					c-1.012-0.019-2.036,0.17-2.964,0.71c-0.927,0.528-1.747,1.458-2.2,2.724c-0.46,1.259-0.516,2.768-0.284,4.169
					c0.228,1.411,0.705,2.733,1.297,3.922c1.196,2.382,2.845,4.255,4.654,5.626c1.81,1.352,3.819,2.241,5.852,2.292
					c1.011,0.02,2.035-0.171,2.964-0.706c0.928-0.534,1.742-1.45,2.203-2.74L72.84,52.72z"/>
			</g>
			<polygon fill="#D44E2B" points="66.531,41.071 56.195,39.562 49.303,56.288 67.64,70.116 72.878,53.163 			"/>
			<path fill="#DE4F28" d="M63.921,37.925c-1.559-0.599-3.066-0.751-4.375-0.465c-2.802,6.942-5.326,13.432-7.8,20.736l4.171,3.125
				C59.046,53.326,61.061,46.841,63.921,37.925z"/>
			<path opacity="0.44" fill="#E1683A" enable-background="new    " d="M62.495,38.194c-0.591-0.152-1.546-0.214-2.103-0.23
				c-1.852,4.83-3.354,9.144-4.974,13.469c1.03-0.298,2.123-0.043,2.904,0.744C59.621,47.61,61.153,42.942,62.495,38.194z"/>
			<path fill="#CA4B28" d="M70.294,42.48c-0.048,1.807-0.235,3.638-0.547,5.444v-0.001c-0.02,0.125-0.048,0.25-0.072,0.376
				c-0.071,0.392-0.148,0.786-0.228,1.175c-0.05,0.233-0.1,0.455-0.152,0.674c-0.074,0.314-0.148,0.625-0.229,0.935
				c-0.055,0.221-0.109,0.439-0.169,0.654c-0.124,0.461-0.26,0.921-0.401,1.371c-0.072,0.233-0.15,0.454-0.227,0.689
				c-0.09,0.267-0.184,0.546-0.279,0.813c-0.084,0.235-0.17,0.473-0.258,0.706c-0.117,0.302-0.238,0.61-0.361,0.911
				c-1.509,3.696-3.528,6.958-5.893,9.322l6.066,4.61l5.039-16.453c0.076-0.169,0.151-0.341,0.216-0.518
				C73.905,50.094,72.805,45.886,70.294,42.48z"/>
			<path fill="#BC4624" d="M64.465,67.82l3.081,2.343l5.038-16.454c0.078-0.169,0.151-0.341,0.216-0.521
				c0.697-1.957,0.513-4.353-0.346-6.712C71.638,54.732,68.715,62.343,64.465,67.82z"/>
			<g>
				<path fill="#969491" d="M67.65,70.121c-1.531,4.255-6.878,4.61-11.935,0.794c-5.061-3.811-7.921-10.356-6.389-14.61
					c1.531-4.248,6.877-4.605,11.937-0.791C66.321,59.328,69.183,65.869,67.65,70.121z"/>
				<path fill="#969491" d="M67.741,70.192c-0.552,1.417-1.519,2.399-2.555,2.913c-1.043,0.528-2.158,0.681-3.257,0.621
					c-2.201-0.142-4.36-1.082-6.311-2.54c-1.948-1.474-3.72-3.496-5.054-6.034c-0.66-1.271-1.212-2.682-1.502-4.219
					c-0.297-1.531-0.266-3.209,0.197-4.676c0.451-1.461,1.341-2.75,2.427-3.372c1.086-0.61,2.248-0.787,3.382-0.757
					c2.28,0.088,4.486,1.098,6.478,2.598c1.981,1.521,3.805,3.58,5.135,6.247c0.66,1.333,1.211,2.802,1.494,4.416
					C68.47,66.999,68.302,68.79,67.741,70.192z M67.56,70.05c0.467-1.415,0.284-3.006-0.039-4.389
					c-0.331-1.414-0.906-2.704-1.581-3.852c-1.373-2.283-3.096-4.117-4.962-5.509c-1.867-1.39-3.894-2.36-5.967-2.641
					c-1.032-0.132-2.082-0.066-3.063,0.333c-0.489,0.194-0.98,0.422-1.429,0.798c-0.452,0.366-0.853,0.897-1.125,1.563
					c-0.268,0.669-0.419,1.438-0.433,2.219c-0.014,0.775,0.076,1.553,0.235,2.301c0.32,1.488,0.896,2.839,1.571,4.046
					c1.371,2.412,3.147,4.28,5.046,5.721c1.903,1.426,3.98,2.467,6.131,2.701c1.07,0.104,2.165,0.014,3.19-0.471
					C66.147,72.409,67.107,71.466,67.56,70.05z"/>
			</g>
			<path fill="#E1DCD4" d="M67.373,69.616c-1.301,3.613-6.252,3.601-11.058-0.018c-4.808-3.62-7.648-9.484-6.35-13.102
				c1.302-3.613,6.252-3.6,11.061,0.021C65.831,60.14,68.672,66.006,67.373,69.616z"/>
			<path fill="#D3CFC8" d="M49.966,56.494c-0.767,2.131-0.083,5.044,1.585,7.822c-0.054-4.261,1.484-8.434,4.739-8.477
				c3.554,0.454,6.705,2.706,9.451,5.877c-1.157-1.899-2.771-3.735-4.714-5.202C56.218,52.893,51.267,52.883,49.966,56.494z"/>
			<path fill="#A7A7A9" d="M57.454,36.864c-0.826,0.318-1.375,1.521-1.57,2.668c-0.051,0.295-0.045,0.773,0.099,1.022
				c0.254,0.449,0.682,0.189,0.951-0.083c0.245-0.247,0.429-0.526,0.627-0.843c0.374-0.596,0.626-1.31,0.584-2.178
				C58.12,36.936,57.749,36.75,57.454,36.864z"/>
			<path fill="#A7A7A9" d="M51.93,50.526c-0.827,0.318-1.374,1.52-1.57,2.667c-0.05,0.298-0.044,0.773,0.099,1.025
				c0.255,0.447,0.683,0.184,0.95-0.084c0.245-0.246,0.43-0.522,0.628-0.841c0.374-0.597,0.625-1.309,0.583-2.179
				C52.597,50.595,52.226,50.412,51.93,50.526z"/>
			<path fill="#A7A7A9" d="M67.055,37.623c-0.826,0.315-1.373,1.521-1.568,2.666c-0.05,0.296-0.045,0.773,0.099,1.026
				c0.253,0.446,0.683,0.183,0.95-0.085c0.245-0.248,0.43-0.527,0.628-0.843c0.372-0.596,0.625-1.309,0.583-2.179
				C67.722,37.692,67.35,37.509,67.055,37.623z"/>
			<path fill="#A7A7A9" d="M62.996,51.906c-0.802,0.434-1.266,1.705-1.381,2.875c-0.032,0.298,0.006,0.771,0.167,1.003
				c0.285,0.41,0.689,0.084,0.94-0.216c0.227-0.281,0.391-0.584,0.568-0.927c0.33-0.642,0.533-1.392,0.435-2.248
				C63.665,51.884,63.283,51.75,62.996,51.906z"/>
			<path fill="#A7A7A9" d="M68.797,62.836c-0.788,0.481-1.212,1.782-1.296,2.958c-0.021,0.304,0.032,0.775,0.197,0.995
				c0.296,0.392,0.693,0.047,0.933-0.276c0.219-0.294,0.375-0.609,0.54-0.958c0.314-0.671,0.492-1.426,0.368-2.272
				C69.465,62.771,69.078,62.664,68.797,62.836z"/>
			<path fill="#A7A7A9" d="M73.191,50.918c-0.776,0.517-1.174,1.841-1.229,3.021c-0.012,0.304,0.05,0.772,0.221,0.988
				c0.304,0.372,0.694,0.016,0.926-0.328c0.211-0.3,0.361-0.625,0.517-0.987c0.295-0.674,0.458-1.449,0.315-2.291
				C73.854,50.822,73.466,50.732,73.191,50.918z"/>
			<g>
				<path fill="#D44E2B" d="M93.572,44.818c1.033,3.528-1.297,8.324-5.202,10.711c-3.904,2.392-7.905,1.473-8.938-2.052
					c-1.029-3.528,1.299-8.324,5.203-10.715C88.54,40.372,92.543,41.291,93.572,44.818z"/>
				<path fill="#85878A" d="M93.73,44.731c0.338,1.161,0.297,2.503,0.024,3.661c-0.271,1.174-0.735,2.211-1.286,3.124
					c-1.078,1.865-2.503,3.259-4.031,4.24c-1.525,0.993-3.205,1.611-4.924,1.521c-0.854-0.048-1.728-0.268-2.541-0.818
					c-0.813-0.548-1.556-1.44-1.961-2.758c-0.039-0.147-0.078-0.263-0.119-0.436c-0.039-0.173-0.076-0.36-0.099-0.519
					c-0.058-0.334-0.079-0.675-0.091-1.019c-0.012-0.683,0.059-1.361,0.186-1.997c0.26-1.27,0.723-2.42,1.287-3.4
					c1.143-1.964,2.623-3.404,4.211-4.417c0.801-0.455,1.652-0.821,2.506-1.029c0.859-0.191,1.741-0.209,2.607-0.06
					c0.863,0.161,1.721,0.515,2.484,1.141c0.77,0.598,1.437,1.559,1.744,2.758L93.73,44.731z M93.418,44.914
					c-0.305-1.05-0.916-1.865-1.63-2.368c-0.716-0.516-1.521-0.761-2.329-0.838c-1.619-0.147-3.259,0.375-4.758,1.284
					c-1.495,0.925-2.893,2.267-3.949,4.052c-0.523,0.892-0.964,1.897-1.202,2.998c-0.247,1.097-0.271,2.286,0.044,3.352
					c0.297,1.029,0.914,1.863,1.629,2.366c0.715,0.516,1.521,0.76,2.328,0.834c1.618,0.141,3.26-0.376,4.758-1.285
					c1.496-0.926,2.892-2.262,3.953-4.047c0.522-0.894,0.965-1.897,1.201-2.999c0.244-1.099,0.271-2.288-0.047-3.351L93.418,44.914z
					"/>
			</g>
			<polygon fill="#D44E2B" points="85.257,44.612 79.359,53.053 82.977,67.693 98.178,58.384 93.626,45.102 			"/>
			<path fill="#DE4F28" d="M83.604,44.606c-1.049,1.085-1.879,2.351-2.424,3.658c1.532,6.026,3.01,11.571,4.861,17.489l3.451-2.13
				C87.678,56.776,85.943,51.687,83.604,44.606z"/>
			<path opacity="0.44" fill="#E1683A" enable-background="new    " d="M82.992,46.013c-0.365,0.451-0.881,1.271-1.167,1.756
				c1.112,4.105,2.187,7.633,3.204,11.276c0.396-1.072,1.062-1.911,1.793-2.211C85.538,53.359,84.33,49.621,82.992,46.013z"/>
			<path fill="#CA4B28" d="M87.768,41.975c0.746,0.962,1.428,2.059,2.039,3.254v0.001c0.043,0.082,0.082,0.173,0.125,0.253
				c0.129,0.266,0.256,0.531,0.381,0.805c0.072,0.157,0.141,0.317,0.211,0.474c0.098,0.224,0.185,0.455,0.283,0.679
				c0.063,0.164,0.131,0.321,0.187,0.486c0.138,0.345,0.257,0.7,0.379,1.051c0.063,0.182,0.119,0.367,0.183,0.552
				c0.068,0.218,0.141,0.438,0.205,0.662c0.055,0.195,0.115,0.391,0.167,0.584c0.076,0.263,0.14,0.52,0.205,0.789
				c0.81,3.218,1.171,6.679,0.974,9.983l5.043-3.06l-4.439-12.844c-0.033-0.154-0.072-0.307-0.117-0.455
				C92.844,42.631,90.491,41.471,87.768,41.975z"/>
			<path fill="#BC4624" d="M95.588,60.046l2.563-1.554l-4.441-12.843c-0.031-0.154-0.07-0.309-0.113-0.454
				c-0.476-1.614-1.59-2.671-3.031-3.106C93.663,47.005,95.418,53.477,95.588,60.046z"/>
			<g>
				<path fill="#969491" d="M98.186,58.378c1.033,3.526-1.533,8.467-5.727,11.033c-4.195,2.571-8.432,1.794-9.464-1.734
					c-1.031-3.528,1.532-8.469,5.729-11.04C92.918,54.077,97.154,54.852,98.186,58.378z"/>
				<path fill="#969491" d="M98.264,58.333c0.322,1.208,0.248,2.57-0.055,3.756c-0.309,1.197-0.813,2.27-1.396,3.213
					c-1.181,1.896-2.67,3.339-4.289,4.332c-1.615,0.988-3.371,1.537-5.135,1.43c-0.873-0.055-1.756-0.286-2.56-0.802
					c-0.804-0.516-1.496-1.395-1.89-2.555c-0.395-1.144-0.487-2.588-0.203-3.872c0.293-1.27,0.808-2.398,1.397-3.401
					c1.196-1.987,2.748-3.435,4.397-4.447c1.656-0.987,3.457-1.572,5.268-1.397c0.898,0.084,1.811,0.35,2.639,0.918
					C97.273,56.062,97.947,57.125,98.264,58.333z M98.109,58.424c-0.367-1.133-1.135-1.78-1.887-2.195
					c-0.77-0.422-1.611-0.567-2.443-0.549c-1.668,0.062-3.325,0.672-4.863,1.617c-1.539,0.956-2.979,2.273-4.15,3.975
					c-0.582,0.852-1.091,1.82-1.418,2.897c-0.336,1.045-0.597,2.287-0.293,3.477c0.293,1.186,1.036,2.016,1.825,2.471
					c0.796,0.468,1.662,0.643,2.522,0.655c1.723,0.007,3.416-0.625,5-1.583c1.572-0.967,3.068-2.29,4.259-4.09
					c0.591-0.9,1.106-1.925,1.421-3.082C98.396,60.88,98.482,59.547,98.109,58.424z"/>
			</g>
			<path fill="#E1DCD4" d="M97.826,58.352c0.877,2.994-1.643,7.398-5.629,9.839c-3.983,2.44-7.926,1.991-8.801-1.002
				c-0.877-2.994,1.646-7.399,5.629-9.839C93.012,54.908,96.951,55.358,97.826,58.352z"/>
			<path fill="#D3CFC8" d="M83.4,67.205c0.516,1.766,2.104,2.642,4.134,2.563c-1.843-2.117-2.836-5.607-1.202-8.526
				c2.004-2.934,4.563-4.598,7.303-5.436c-1.396,0.06-3.002,0.568-4.604,1.551C85.045,59.805,82.525,64.211,83.4,67.205z"/>
			<path fill="#A7A7A9" d="M78.854,50.56c-0.285,0.899-0.056,1.997,0.336,2.753c0.102,0.198,0.309,0.429,0.487,0.429
				c0.318,0.005,0.425-0.516,0.443-0.889c0.021-0.345-0.007-0.649-0.036-0.988c-0.064-0.639-0.24-1.222-0.631-1.626
				C79.221,50.003,78.954,50.241,78.854,50.56z"/>
			<path fill="#A7A7A9" d="M81.859,62.423c-0.287,0.893-0.051,1.996,0.336,2.754c0.102,0.195,0.308,0.426,0.488,0.426
				c0.318,0,0.424-0.514,0.445-0.891c0.02-0.341-0.006-0.648-0.039-0.986c-0.064-0.638-0.24-1.225-0.632-1.629
				C82.229,61.865,81.959,62.103,81.859,62.423z"/>
			<path fill="#A7A7A9" d="M84.055,42.391c-0.285,0.899-0.053,1.997,0.338,2.755c0.096,0.195,0.305,0.431,0.484,0.432
				c0.32,0,0.428-0.514,0.447-0.889c0.015-0.344-0.01-0.652-0.038-0.989c-0.063-0.635-0.24-1.221-0.632-1.625
				C84.422,41.835,84.154,42.07,84.055,42.391z"/>
			<path fill="#A7A7A9" d="M88.068,53.267c-0.223,0.933,0.082,1.99,0.521,2.693c0.113,0.175,0.335,0.389,0.514,0.36
				c0.318-0.047,0.39-0.573,0.387-0.953c-0.006-0.342-0.055-0.643-0.105-0.977c-0.107-0.623-0.322-1.177-0.736-1.53
				C88.4,52.659,88.148,52.935,88.068,53.267z"/>
			<path fill="#A7A7A9" d="M92.83,43.686c-0.172,0.956,0.189,1.979,0.658,2.627c0.123,0.168,0.355,0.351,0.531,0.302
				c0.313-0.079,0.356-0.612,0.334-0.987c-0.021-0.344-0.078-0.642-0.156-0.964c-0.139-0.611-0.383-1.144-0.811-1.444
				C93.126,43.042,92.893,43.343,92.83,43.686z"/>
			<path fill="#A7A7A9" d="M96.202,54.175c-0.173,0.954,0.188,1.979,0.661,2.625c0.123,0.167,0.353,0.351,0.529,0.3
				c0.315-0.078,0.358-0.611,0.338-0.988c-0.022-0.343-0.082-0.642-0.16-0.964c-0.141-0.608-0.381-1.144-0.813-1.443
				C96.498,53.534,96.266,53.833,96.202,54.175z"/>
			
				<line fill="none" stroke="#D3CFC8" stroke-width="1.6336" stroke-linecap="round" stroke-linejoin="round" stroke-miterlimit="10" x1="70.519" y1="57.257" x2="80.805" y2="57.257"/>
			
				<line fill="none" stroke="#D3CFC8" stroke-width="1.6336" stroke-linecap="round" stroke-linejoin="round" stroke-miterlimit="10" x1="75.411" y1="57.257" x2="75.411" y2="75.31"/>
			<path fill="#D3CFC8" d="M73.437,71.631c-0.742,0.407-1.233,1.495-0.858,2.562c0.032,0.239,0.126,0.464,0.297,0.567
				c0.656,0.945,1.816,1.133,2.67,0.883c0.388-0.112,0.722-0.333,1.003-0.625c0.416,0.025,0.836,0.047,1.248,0.048
				c0.264,0.002,0.51-0.392,0.479-0.769C77.984,70.831,75.278,69.97,73.437,71.631z"/>
			<path fill="#D3CFC8" d="M76.447,54.83c-0.475-0.283-1.007-0.247-1.473,0.022c-0.466,0.133-0.87,0.542-1.103,1.103
				c-0.238,0.334-0.393,0.766-0.402,1.253c-0.069,1.031,0.422,2.104,1.143,2.496c0.012,0.009,0.027,0.009,0.042,0.016
				c0.034,0.028,0.07,0.052,0.106,0.079c0.206,0.214,0.427,0.392,0.661,0.514c0.072,0.042,0.146,0.075,0.226,0.103
				c0.311,0.129,0.519-0.16,0.568-0.515c0.618-0.312,1.082-1.029,1.125-1.996C77.639,56.717,77.268,55.314,76.447,54.83z"/>
			<g>
				<path fill="#A8A8A8" d="M74.906,137.889c-11.95,0-21.671-14.063-21.671-31.352c0-17.289,9.721-31.355,21.671-31.355
					s21.67,14.064,21.67,31.355C96.576,123.825,86.854,137.889,74.906,137.889z"/>
				<path fill="#A7A8A9" d="M74.906,75.797c11.733,0,21.245,13.764,21.245,30.738s-9.512,30.736-21.245,30.736
					c-11.734,0-21.246-13.763-21.246-30.737C53.661,89.561,63.171,75.797,74.906,75.797 M74.906,74.569
					c-12.188,0-22.099,14.342-22.099,31.968c0,17.624,9.912,31.964,22.099,31.964C87.089,138.501,97,124.16,97,106.536
					C97,88.91,87.089,74.569,74.906,74.569L74.906,74.569z"/>
			</g>
			<g>
				<path fill="#E1DCD4" d="M73.978,136.411c-11.806,0-21.41-13.729-21.41-30.608c0-16.881,9.604-30.611,21.41-30.611
					c11.805,0,21.409,13.731,21.409,30.611C95.387,122.682,85.783,136.411,73.978,136.411z"/>
				<path fill="#A7A8A9" d="M73.978,75.797c11.592,0,20.991,13.434,20.991,30.006c0,16.571-9.393,30.006-20.991,30.006
					c-11.595,0-20.993-13.434-20.993-30.006C52.985,89.232,62.383,75.797,73.978,75.797 M73.978,74.59
					c-12.037,0-21.828,14.001-21.828,31.212c0,17.21,9.791,31.207,21.828,31.207c12.034,0,21.827-13.997,21.827-31.207
					S86.012,74.59,73.978,74.59L73.978,74.59z"/>
			</g>
			<g>
				<g>
					<path fill="#D5D1CA" d="M74.146,78.727c10.643,0,19.429,11.322,20.801,25.996c-0.487-15.955-9.688-28.682-20.97-28.682
						c-11.595,0-20.993,13.436-20.993,30.007c0,1.362,0.069,2.694,0.192,4.009c-0.014-0.441-0.024-0.882-0.024-1.326
						C53.154,92.16,62.552,78.727,74.146,78.727z"/>
				</g>
			</g>
			
				<ellipse fill="#A7A8A9" stroke="#EDEAE6" stroke-width="1.6044" stroke-miterlimit="10" cx="83.674" cy="120.194" rx="4.637" ry="6.708"/>
		</g>
		<g>
			
				<polyline fill="none" stroke="#85878A" stroke-width="0.8168" stroke-linecap="round" stroke-linejoin="round" stroke-miterlimit="10" points="
				37.9,97.936 36.639,103.829 31.228,115.57 30.644,124.802 			"/>
			<path fill="#85878A" d="M30.896,122.268c0.452,0.114,0.703,1.022,0.641,2.019l-0.037,0.586c-0.063,0.993-0.537,1.718-0.955,1.614
				c-0.454-0.111-0.705-1.021-0.642-2.022l0.037-0.588C30.003,122.887,30.478,122.163,30.896,122.268z"/>
			<g>
				<path fill="#85878A" d="M53.784,81.34c-0.355,1.661-5.183,0.186-10.734-1.925c-5.551-2.115-9.763-5.167-9.41-6.83
					c0.354-1.661,5.138-1.294,10.691,0.818C49.882,75.516,54.137,79.68,53.784,81.34z"/>
				<path fill="#85878A" d="M53.832,81.368c-0.108,0.342-0.345,0.508-0.563,0.627c-0.227,0.116-0.464,0.153-0.697,0.182
					c-0.468,0.048-0.937,0.021-1.401-0.024c-0.929-0.098-1.849-0.291-2.766-0.51c-1.831-0.451-3.64-1.031-5.446-1.625
					c-1.808-0.642-3.607-1.377-5.354-2.382c-0.873-0.509-1.732-1.073-2.554-1.803c-0.411-0.364-0.818-0.75-1.199-1.265
					c-0.193-0.254-0.298-0.675-0.344-1.107c-0.021-0.214-0.033-0.432-0.017-0.642c0.003-0.11,0.02-0.204,0.047-0.313
					c0.007-0.076,0.055-0.202,0.077-0.292c0.116-0.381,0.304-0.86,0.563-0.988c0.254-0.142,0.503-0.219,0.749-0.286
					c0.492-0.126,0.975-0.174,1.454-0.204c0.958-0.046,1.905,0.017,2.846,0.133c1.875,0.298,3.717,0.83,5.54,1.485
					c1.837,0.721,3.636,1.614,5.335,2.891c0.847,0.639,1.674,1.354,2.438,2.241c0.384,0.438,0.759,0.908,1.109,1.47
					c0.188,0.26,0.306,0.659,0.314,1.13c0.005,0.471-0.032,0.936-0.13,1.271L53.832,81.368z M53.317,81.128l-0.004,0.003
					c-0.043,0.029-0.189-0.056-0.368-0.123c-0.182-0.066-0.327-0.195-0.455-0.392c-0.266-0.378-0.599-0.75-0.946-1.099
					c-0.707-0.684-1.466-1.336-2.246-1.939c-1.568-1.195-3.241-2.191-4.953-2.944c-1.748-0.716-3.529-1.278-5.314-1.667
					c-0.893-0.198-1.788-0.346-2.667-0.391c-0.438-0.018-0.875-0.016-1.283,0.05c-0.203,0.036-0.399,0.079-0.562,0.149
					c-0.159,0.06-0.328,0.047-0.38,0.039c-0.003-0.006-0.015,0.011-0.01-0.015c0.001-0.009,0.003-0.031-0.001-0.031l-0.022,0.055
					c0.01-0.058-0.003-0.026-0.004-0.032c-0.009,0.016-0.003,0.079,0.034,0.169c0.068,0.175,0.208,0.381,0.359,0.568
					c0.304,0.391,0.673,0.744,1.053,1.072c0.767,0.648,1.592,1.207,2.431,1.71c1.681,1.01,3.428,1.828,5.194,2.521
					c1.786,0.659,3.575,1.295,5.373,1.813c0.897,0.258,1.798,0.485,2.692,0.623c0.445,0.066,0.892,0.107,1.312,0.084
					c0.208-0.014,0.411-0.057,0.577-0.099c0.08-0.024,0.156-0.047,0.191-0.082c0.017-0.015,0.028-0.026,0.023-0.037
					C53.348,81.091,53.31,81.193,53.317,81.128z"/>
			</g>
			<path fill="#D44E2B" d="M44.332,73.403c-5.493-2.091-10.229-2.467-10.671-0.865l-0.009-0.002l-6.523,30.598l20.921,8.61
				l5.744-30.453l-0.008-0.006C54.042,79.591,49.825,75.49,44.332,73.403z"/>
			<path opacity="0.66" fill="#DE4F28" enable-background="new    " d="M41.857,74.034c-2.145-0.785-3.967-1.559-5.64-1.223
				c-2.562,8.75-3.83,17.382-5.564,24.638l4.888,2.195C37.397,90.13,39.535,85.277,41.857,74.034z"/>
			<path opacity="0.44" fill="#E1683A" enable-background="new    " d="M40.025,74.35c-0.8-0.202-2.066-0.297-2.798-0.327
				c-1.656,6.088-4.282,17.624-5.712,23.079c1.305-0.361,2.031-0.172,3.185,0.836C35.668,92.174,39.027,80.34,40.025,74.35z"/>
			<path fill="#BC4624" d="M53.793,81.289l-0.009-0.002c0.181-1.195-1.863-3.579-5.005-5.615c1.019,9.605,0.397,20.691-5.482,25.926
				c-2.22,2.355-4.701,4.08-7.313,5.182l12.065,4.97L53.793,81.289z"/>
			<path fill="#AF4223" d="M53.793,81.289l-0.009-0.002c0.094-0.611-0.406-1.547-1.335-2.582c-0.064,9.84-2.914,18.505-6.622,26.551
				c-0.8,1.649-1.733,3.111-2.751,4.438l4.973,2.052L53.793,81.289z"/>
			<path fill="#E1DCD4" d="M47.707,111.797c-0.151,0.768-4.954-0.535-10.728-2.911s-10.332-4.927-10.181-5.694
				c0.152-0.77,4.955,0.533,10.729,2.91C43.3,108.479,47.858,111.027,47.707,111.797z"/>
			<g>
				<path fill="#85878A" d="M26.917,102.604c0.14,0.047,0.399,0.084,0.616,0.113l0.688,0.094l1.386,0.199
					c0.923,0.159,1.846,0.35,2.765,0.568c1.839,0.453,3.66,1.061,5.456,1.79c1.788,0.768,3.554,1.625,5.284,2.618
					c0.864,0.502,1.721,1.02,2.571,1.574c0.834,0.551,1.706,1.17,2.486,1.74l-0.316,1.141c-0.891-0.565-1.698-1.063-2.562-1.561
					c-0.849-0.501-1.702-0.982-2.563-1.438c-1.72-0.912-3.455-1.768-5.216-2.479c-1.754-0.746-3.536-1.344-5.331-1.849
					c-0.898-0.256-1.8-0.479-2.707-0.676l-1.362-0.299l-0.688-0.142c-0.24-0.06-0.443-0.08-0.75-0.206L26.917,102.604z"/>
			</g>
			<path fill="#A7A7A9" d="M34.679,71.246l-0.823,4.074c-0.087,0.423,0.084,0.725,0.31,0.831c0.254,0.117,0.578-0.016,0.676-0.491
				l0.824-4.071C35.848,70.675,34.861,70.342,34.679,71.246z"/>
			<path fill="#A7A7A9" d="M28.811,98.793l-0.824,4.073c-0.086,0.425,0.085,0.729,0.311,0.832c0.253,0.112,0.577-0.017,0.674-0.489
				l0.825-4.075C29.981,98.223,28.994,97.891,28.811,98.793z"/>
			
				<line fill="none" stroke="#A7A7A9" stroke-width="0.4084" stroke-miterlimit="10" x1="34.241" y1="75.538" x2="29.237" y2="99.626"/>
			<path fill="#A7A7A9" d="M42.475,71.849l-0.825,4.074c-0.086,0.425,0.085,0.726,0.31,0.83c0.254,0.117,0.578-0.014,0.676-0.491
				l0.824-4.073C43.643,71.279,42.657,70.945,42.475,71.849z"/>
			<path fill="#A7A7A9" d="M36.358,101.146l-0.824,4.074c-0.086,0.424,0.084,0.727,0.31,0.828c0.254,0.118,0.577-0.014,0.675-0.488
				l0.825-4.068C37.527,100.575,36.54,100.242,36.358,101.146z"/>
			
				<line fill="none" stroke="#A7A7A9" stroke-width="0.4084" stroke-miterlimit="10" x1="42.079" y1="76.323" x2="37.032" y2="100.65"/>
			<path fill="#A7A7A9" d="M50.896,77.661l-0.824,4.073c-0.087,0.426,0.085,0.727,0.309,0.83c0.255,0.119,0.579-0.014,0.676-0.488
				l0.824-4.071C52.065,77.092,51.078,76.76,50.896,77.661z"/>
			<path fill="#A7A7A9" d="M44.736,105.85l-0.824,4.076c-0.086,0.426,0.085,0.725,0.31,0.829c0.253,0.119,0.578-0.015,0.675-0.487
				l0.825-4.076C45.905,105.28,44.918,104.945,44.736,105.85z"/>
			
				<line fill="none" stroke="#A7A7A9" stroke-width="0.4084" stroke-miterlimit="10" x1="50.499" y1="82.136" x2="45.412" y2="105.354"/>
			
				<polyline fill="none" stroke="#85878A" stroke-width="0.8168" stroke-linecap="round" stroke-linejoin="round" stroke-miterlimit="10" points="
				49.241,105.438 47.935,113.124 50.127,120.198 50.127,129.47 			"/>
			<path fill="#85878A" d="M50.035,126.914c-0.458,0.054-0.767,0.925-0.767,1.925v0.588c0,0.996,0.428,1.781,0.851,1.731
				c0.458-0.051,0.766-0.926,0.766-1.924v-0.592C50.887,127.646,50.458,126.863,50.035,126.914z"/>
			
				<polyline fill="none" stroke="#85878A" stroke-width="0.8168" stroke-linecap="round" stroke-linejoin="round" stroke-miterlimit="10" points="
				31.79,98.67 30.525,105.072 26.198,113.955 25.973,126.665 			"/>
			<path fill="#85878A" d="M26.066,124.107c0.457,0.053,0.765,0.926,0.765,1.923v0.592c0,0.998-0.427,1.78-0.851,1.735
				c-0.458-0.057-0.766-0.926-0.766-1.93v-0.59C25.214,124.842,25.642,124.057,26.066,124.107z"/>
		</g>
		<g>
			<path fill="#EAD489" d="M20.374,44.358c-2.462,1.659,1.69,7.433,9.273,12.896c7.584,5.471,15.733,8.557,18.196,6.904
				c2.464-1.658-1.692-7.437-9.274-12.9C30.984,45.792,22.836,42.701,20.374,44.358z"/>
			<path fill="#D1C07D" d="M19.766,45.136c-0.474,1.356,0.767,3.691,3.245,6.371c5.868-0.86,14.517,2.799,15.532,10.979
				c4.254,1.936,7.814,2.668,9.3,1.672c0.003-0.008,0.005-0.009,0.008-0.011C41.202,52.744,30.078,47.387,19.766,45.136z"/>
			<path fill="#AD9566" d="M30.069,49.92c-0.877,0.588,0.599,2.642,3.296,4.585c2.695,1.939,5.592,3.04,6.469,2.452
				c0.875-0.59-0.602-2.643-3.299-4.585C33.837,50.43,30.944,49.331,30.069,49.92z"/>
			
				<line fill="none" stroke="#ABA8AA" stroke-width="2.5028" stroke-linecap="round" stroke-linejoin="round" stroke-miterlimit="10" x1="34.745" y1="53.517" x2="19.761" y2="73.45"/>
			
				<path fill="none" stroke="#ABA8AA" stroke-width="1.6685" stroke-linecap="round" stroke-linejoin="round" stroke-miterlimit="10" d="
				M23.551,59.497v65.032c-0.689,0.248-15.155,9.717-15.155,9.717"/>
			
				<path fill="none" stroke="#ABA8AA" stroke-width="1.6685" stroke-linecap="round" stroke-linejoin="round" stroke-miterlimit="10" d="
				M23.895,59.497v65.032c0.688,0.248,15.155,9.717,15.155,9.717"/>
			<path fill="#ABA8AA" d="M23.601,65.357c-3.004,0-2.747,6.718,0.243,6.718C26.849,72.076,26.589,65.357,23.601,65.357z"/>
			<path fill="#ABA8AA" d="M23.601,121.668c-3.004,0-2.747,6.719,0.243,6.719C26.849,128.387,26.589,121.668,23.601,121.668z"/>
			
				<path fill="none" stroke="#ABA8AA" stroke-width="1.6685" stroke-linecap="round" stroke-linejoin="round" stroke-miterlimit="10" d="
				M23.551,124.527c-0.344,0.498-3.101,11.709-3.101,11.709"/>
			<path fill="#CCCACA" d="M25.952,92.271c-0.082-0.444-0.346-0.812-0.802-0.812h-2.945c-0.554,0-0.753,0.478-0.652,0.894
				c-0.045,0.145-0.04,0.306,0,0.455c-0.123,0.435,0.13,1.004,0.731,1.004h2.817C25.779,93.811,26.079,92.952,25.952,92.271z"/>
			<path fill="#CCCACA" d="M25.952,94.818c-0.082-0.442-0.346-0.813-0.802-0.813h-2.945c-0.554,0-0.753,0.479-0.652,0.895
				c-0.045,0.142-0.04,0.303,0,0.455c-0.123,0.437,0.13,1.002,0.731,1.002h2.817C25.779,96.355,26.079,95.498,25.952,94.818z"/>
		</g>
		<g>
			<path fill="#EAD489" d="M123.697,21.432c2.351,1.58-1.609,7.068-8.844,12.26s-15.008,8.129-17.358,6.55
				c-2.351-1.581,1.612-7.069,8.844-12.264C113.574,22.788,121.348,19.853,123.697,21.432z"/>
			<path fill="#D1C07D" d="M124.366,22.957c-10.007,2.252-19.712,6.831-26.981,17.197c0.037,0.027,0.07,0.06,0.11,0.086
				c1.149,0.771,3.599,0.461,6.646-0.661c3.824-7.982,9.75-10.607,16.024-10.302C122.723,26.771,124.251,24.49,124.366,22.957z"/>
			<path fill="#AD9566" d="M114.771,26.947c0.836,0.56-0.571,2.512-3.144,4.357c-2.571,1.846-5.336,2.887-6.174,2.329
				c-0.834-0.563,0.575-2.513,3.147-4.36C111.176,27.428,113.936,26.385,114.771,26.947z"/>
			
				<line fill="none" stroke="#ABA8AA" stroke-width="2.5028" stroke-linecap="round" stroke-linejoin="round" stroke-miterlimit="10" x1="110.297" y1="30.342" x2="125.279" y2="50.273"/>
			
				<path fill="none" stroke="#ABA8AA" stroke-width="1.6685" stroke-linecap="round" stroke-linejoin="round" stroke-miterlimit="10" d="
				M121.491,36.323v90.155c0.688,0.25,15.153,9.717,15.153,9.717"/>
			
				<path fill="none" stroke="#ABA8AA" stroke-width="1.6685" stroke-linecap="round" stroke-linejoin="round" stroke-miterlimit="10" d="
				M121.146,36.323v90.155c-0.689,0.25-15.156,9.717-15.156,9.717"/>
			<path fill="#ABA8AA" stroke="#ABA8AA" stroke-width="0.8168" stroke-miterlimit="10" d="M121.441,42.183
				c3.004,0,2.746,6.719-0.244,6.719C118.193,48.9,118.452,42.183,121.441,42.183z"/>
			<path fill="#ABA8AA" d="M121.441,123.619c3.004,0,2.746,6.719-0.244,6.719C118.193,130.338,118.452,123.619,121.441,123.619z"/>
			
				<path fill="none" stroke="#ABA8AA" stroke-width="1.6685" stroke-linecap="round" stroke-linejoin="round" stroke-miterlimit="10" d="
				M121.491,126.479c0.345,0.498,4.798,13.025,4.798,13.025"/>
			<path fill="#CCCACA" d="M119.09,94.225c0.081-0.444,0.346-0.812,0.803-0.812h2.944c0.552,0,0.753,0.479,0.651,0.894
				c0.046,0.144,0.041,0.303,0,0.455c0.123,0.438-0.131,1.004-0.732,1.004h-2.814C119.26,95.764,118.963,94.902,119.09,94.225z"/>
			<path fill="#CCCACA" d="M119.09,96.77c0.081-0.443,0.346-0.812,0.803-0.812h2.944c0.552,0,0.753,0.478,0.651,0.896
				c0.046,0.142,0.041,0.302,0,0.453c0.123,0.437-0.131,1.004-0.732,1.004h-2.814C119.26,98.309,118.963,97.449,119.09,96.77z"/>
		</g>
		<g>
			<g>
				<path fill="#85878A" d="M93.324,74.959c0.205,1.708,5.123,1.143,10.816,0.078c5.69-1.068,10.141-3.318,9.937-5.032
					c-0.206-1.708-5.028-2.671-10.675-1.171C97.572,70.386,93.122,73.249,93.324,74.959z"/>
				<path fill="#85878A" d="M93.375,74.943c0.008,0.33,0.238,0.525,0.443,0.614c0.216,0.098,0.437,0.168,0.66,0.204
					c0.453,0.08,0.912,0.091,1.371,0.078c0.916-0.03,1.832-0.151,2.746-0.299c1.83-0.294,3.652-0.683,5.475-1.109
					c1.81-0.392,3.605-0.945,5.357-1.639c0.873-0.355,1.74-0.737,2.566-1.205c0.41-0.235,0.809-0.509,1.152-0.82
					c0.166-0.159,0.392-0.181,0.588-0.298c0.203-0.101,0.32-0.423,0.15-0.616c-0.16-0.176-0.443-0.046-0.607-0.162
					c-0.178-0.109-0.377-0.204-0.578-0.268c-0.414-0.143-0.852-0.234-1.288-0.296c-0.882-0.109-1.787-0.108-2.681-0.031
					c-1.799,0.088-3.592,0.407-5.362,0.94c-1.783,0.487-3.537,1.185-5.249,1.972c-0.855,0.393-1.7,0.832-2.508,1.313
					c-0.4,0.245-0.791,0.518-1.135,0.831c-0.158,0.176-0.354,0.239-0.596,0.279c-0.232,0.023-0.506,0.175-0.504,0.509L93.375,74.943
					L93.375,74.943z M92.84,75.082c-0.07-0.341-0.053-0.694-0.02-0.981c0.029-0.301,0.084-0.559,0.146-0.801
					c0.121-0.486,0.322-0.817,0.549-1.05c0.443-0.472,0.883-0.828,1.327-1.156c0.882-0.664,1.787-1.138,2.698-1.552
					c1.82-0.823,3.67-1.386,5.525-1.819c1.861-0.47,3.756-0.747,5.656-0.734c0.95,0.018,1.905,0.107,2.869,0.326
					c0.484,0.113,0.965,0.261,1.457,0.486c0.477,0.257,1.053,0.428,1.419,1.566c0.025,0.075,0.039,0.139,0.062,0.234l0.029,0.153
					l0.006,0.067c0.021,0.205,0.019,0.359-0.002,0.519c-0.051,0.319-0.146,0.555-0.239,0.747c-0.196,0.375-0.405,0.616-0.618,0.841
					c-0.432,0.418-0.872,0.708-1.313,0.983c-0.888,0.527-1.787,0.922-2.697,1.265c-1.814,0.676-3.652,1.144-5.504,1.473
					c-1.834,0.36-3.672,0.689-5.531,0.91c-0.93,0.108-1.861,0.188-2.811,0.172c-0.476-0.016-0.955-0.045-1.451-0.152
					c-0.248-0.063-0.51-0.128-0.771-0.307c-0.137-0.088-0.27-0.217-0.413-0.391c-0.071-0.093-0.14-0.203-0.206-0.329
					c-0.054-0.099-0.14-0.405-0.146-0.423L92.84,75.082z"/>
			</g>
			<path fill="#B0B2B9" d="M114.07,69.955h-0.008c-0.297-1.67-5.026-2.172-10.66-1.117c-5.633,1.056-10.178,4.34-10.074,6.065
				l-0.008,0.004l1.039,10.766l21.504-4.663L114.07,69.955z"/>
			<path fill="#95979F" d="M96.352,71.535c-1.906,1.193-3.074,2.485-3.021,3.37l-0.01,0.003l1.039,10.765l10.693-2.319
				C99.832,83.365,95.452,81.167,96.352,71.535z"/>
			<path fill="#9C9EA6" d="M103.402,68.835c-5.61,1.277-10.178,4.34-10.074,6.065l-0.008,0.002l0.162,1.688
				c3.035-6.775,15.849-10.047,20.789-5.597c-0.043-0.41-0.098-0.83-0.17-1.242C113.216,69.034,111.297,67.041,103.402,68.835z"/>
			<path opacity="0.29" fill="#E8F4FB" enable-background="new    " d="M112.085,68.749c-0.541-0.422-0.896-0.6-2.951-0.783
				c0.294,4.768,0.786,7.687,1.181,12.46l3.348-0.056L112.085,68.749z"/>
			<path opacity="0.44" fill="#E8F4FB" enable-background="new    " d="M109.971,68.607c0.596,4.418,1.029,6.9,1.086,11.241
				l1.422-0.07c-0.508-3.871-0.627-6.965-1.182-10.958C110.98,68.649,110.461,68.607,109.971,68.607z"/>
			<path fill="#E1DCD4" d="M94.708,85.811c-0.082-0.789,4.666-2.478,10.604-3.769c5.939-1.292,10.819-1.7,10.901-0.911
				c0.082,0.791-4.666,2.479-10.604,3.77C99.672,86.191,94.79,86.6,94.708,85.811z"/>
			<g>
				<path fill="#85878A" d="M116.266,81.729c-0.313,0.069-0.518,0.057-0.761,0.069l-0.694,0.019l-1.379,0.045
					c-0.916,0.027-1.83,0.082-2.74,0.175c-1.83,0.17-3.65,0.425-5.449,0.84c-1.811,0.388-3.607,0.907-5.395,1.492
					c-0.894,0.295-1.787,0.61-2.67,0.958c-0.898,0.328-1.742,0.673-2.682,1.074l-0.206-1.19c0.819-0.423,1.746-0.872,2.618-1.271
					c0.891-0.394,1.787-0.746,2.688-1.082c1.807-0.67,3.629-1.196,5.471-1.613c1.851-0.395,3.707-0.66,5.57-0.77
					c0.932-0.047,1.862-0.065,2.791-0.047l1.397,0.057l0.687,0.037c0.217,0.013,0.479,0.019,0.617,0L116.266,81.729z"/>
			</g>
			<path fill="#BEBDC4" d="M104.05,67.638l0.306,2.997c0.049,0.439-0.146,0.704-0.379,0.765c-0.263,0.074-0.574-0.117-0.627-0.611
				l-0.307-2.994C102.941,66.857,103.947,66.708,104.05,67.638z"/>
			<path fill="#BEBDC4" d="M105.186,79.813l0.306,2.996c0.049,0.438-0.149,0.705-0.38,0.766c-0.262,0.07-0.572-0.119-0.627-0.609
				l-0.307-2.994C104.075,79.03,105.084,78.883,105.186,79.813z"/>
			<path fill="#BEBDC4" d="M95.786,84.039l0.307,2.994c0.05,0.438-0.147,0.705-0.378,0.768c-0.265,0.07-0.572-0.119-0.626-0.613
				l-0.308-2.992C94.68,83.256,95.688,83.107,95.786,84.039z"/>
			<path fill="#BEBDC4" d="M94.333,71.607l0.31,2.994c0.045,0.441-0.149,0.705-0.381,0.766c-0.265,0.077-0.572-0.114-0.625-0.61
				l-0.307-2.994C93.227,70.825,94.232,70.676,94.333,71.607z"/>
			<path fill="#BEBDC4" d="M113.332,68.125l0.343,2.988c0.054,0.436-0.139,0.708-0.368,0.773c-0.263,0.078-0.574-0.109-0.636-0.596
				l-0.345-2.992C112.214,67.372,113.218,67.198,113.332,68.125z"/>
			<path fill="#BEBDC4" d="M114.701,78.813l0.345,2.984c0.056,0.436-0.139,0.707-0.37,0.776c-0.26,0.079-0.572-0.106-0.635-0.599
				l-0.346-2.986C113.583,78.059,114.588,77.881,114.701,78.813z"/>
			<g>
				
					<polyline fill="none" stroke="#ABA8AA" stroke-width="1.6336" stroke-linecap="round" stroke-linejoin="round" stroke-miterlimit="10" points="
					115.87,81.004 106.346,91.839 93.953,86.025 				"/>
				
					<path fill="none" stroke="#ABA8AA" stroke-width="1.6336" stroke-linecap="round" stroke-linejoin="round" stroke-miterlimit="10" d="
					M107.707,81.593l-1.359,10.245v34.126c0,0-13.677,8.165-13.418,8.041"/>
				
					<line fill="none" stroke="#ABA8AA" stroke-width="1.6336" stroke-linecap="round" stroke-linejoin="round" stroke-miterlimit="10" x1="106.346" y1="125.968" x2="116.773" y2="135.119"/>
				<path fill="#ABA8AA" d="M105.902,88.307c-0.598,0.045-1.17,0.438-1.571,1.086c-0.423,0.674-0.583,1.484-0.583,2.371v0.243
					c0,1.798,1.204,3.207,2.396,3.119c0.598-0.047,1.168-0.438,1.567-1.084c0.425-0.674,0.583-1.485,0.583-2.376v-0.244
					C108.295,89.626,107.093,88.218,105.902,88.307z"/>
				<path fill="#CCCACA" d="M108.032,102.462c-0.054-0.437-0.232-0.795-0.538-0.795h-1.975c-0.373,0-0.506,0.464-0.438,0.871
					c-0.031,0.142-0.025,0.298,0.001,0.446c-0.082,0.423,0.087,0.981,0.489,0.981h1.888
					C107.918,103.967,108.116,103.126,108.032,102.462z"/>
				<path fill="#CCCACA" d="M108.032,104.955c-0.054-0.438-0.232-0.796-0.538-0.796h-1.975c-0.373,0-0.506,0.466-0.438,0.874
					c-0.031,0.142-0.025,0.298,0.001,0.443c-0.082,0.426,0.087,0.982,0.489,0.982h1.888
					C107.918,106.46,108.116,105.618,108.032,104.955z"/>
			</g>
			<path fill="#ABA8AA" d="M107.968,81.686c-0.284-0.871-0.261-1.871-0.261-2.814c0-0.946-1.007-0.861-1.007,0.079
				c0.001,1.239,0.047,2.392,0.415,3.526C107.393,83.329,108.238,82.529,107.968,81.686z"/>
			<path fill="#ABA8AA" d="M116.284,81.616c-0.173-0.748-0.306-1.464-0.313-2.257c-0.012-0.947-1.021-0.863-1.013,0.078
				c0.013,0.907,0.165,1.77,0.36,2.617C115.527,82.955,116.488,82.508,116.284,81.616z"/>
			<path fill="#ABA8AA" d="M94.997,82.585c-0.293-0.088-0.513,0.188-0.599,0.567c-0.09,0.393-0.178,0.781-0.26,1.175
				c-0.146,0.116-0.256,0.323-0.256,0.633c0,0.048,0,0.097-0.002,0.142c-0.005,0.037-0.041,0.229-0.041,0.26
				c-0.008,0.041-0.02,0.08-0.023,0.117c-0.029,0.241,0.021,0.457,0.119,0.613c0.185,0.53,0.813,0.467,0.942-0.177
				c0.192-0.093,0.354-0.326,0.354-0.701c0-0.612,0.031-1.176,0.162-1.764C95.473,83.068,95.247,82.658,94.997,82.585z"/>
		</g>
		
			<line fill="none" stroke="#ABA8AA" stroke-width="1.6685" stroke-linecap="round" stroke-linejoin="round" stroke-miterlimit="10" x1="58.247" y1="127.268" x2="53.373" y2="134.85"/>
		
			<line fill="none" stroke="#ABA8AA" stroke-width="1.6685" stroke-linecap="round" stroke-linejoin="round" stroke-miterlimit="10" x1="89.693" y1="127.268" x2="94.566" y2="134.85"/>
	</g>
</g>
</svg>
