<?xml version="1.0" encoding="utf-8"?>
<!-- Generator: Adobe Illustrator 16.0.0, SVG Export Plug-In . SVG Version: 6.00 Build 0)  -->
<!DOCTYPE svg PUBLIC "-//W3C//DTD SVG 1.1//EN" "http://www.w3.org/Graphics/SVG/1.1/DTD/svg11.dtd">
<svg version="1.1" id="Layer_1" xmlns="http://www.w3.org/2000/svg" xmlns:xlink="http://www.w3.org/1999/xlink" x="0px" y="0px"
	 width="150px" height="150px" viewBox="0 0 150 150" enable-background="new 0 0 150 150" xml:space="preserve">
<g id="eyes">
	<g id="Eyes2">
		<g>
			<path fill="#543318" d="M36.532,83.592c1.601-2.421,2.584-5.393,2.589-8.646c0.011-8.022-5.722-14.537-12.804-14.552
				c-7.076-0.006-12.833,6.488-12.847,14.515c-0.006,3.586,1.18,6.826,3.079,9.365C21.799,82.509,29.653,80.891,36.532,83.592z"/>
		</g>
		<g>
			<path fill="#543318" d="M113.202,83.592c-1.604-2.421-2.582-5.393-2.588-8.646c-0.013-8.022,5.719-14.537,12.806-14.552
				c7.074-0.006,12.832,6.488,12.842,14.515c0.006,3.586-1.174,6.826-3.074,9.365C127.936,82.509,120.082,80.891,113.202,83.592z"/>
		</g>
		<g>
			<path fill="#543318" d="M36.532,83.592c1.601-2.421,2.584-5.393,2.589-8.646c0.011-8.022-5.722-14.537-12.804-14.552
				c-7.076-0.006-12.833,6.488-12.847,14.515c-0.006,3.586,1.18,6.826,3.079,9.365C21.799,82.509,29.653,80.891,36.532,83.592z"/>
		</g>
	</g>
</g>
</svg>
