<?xml version="1.0" encoding="utf-8"?>
<!-- Generator: Adobe Illustrator 16.0.0, SVG Export Plug-In . SVG Version: 6.00 Build 0)  -->
<!DOCTYPE svg PUBLIC "-//W3C//DTD SVG 1.1//EN" "http://www.w3.org/Graphics/SVG/1.1/DTD/svg11.dtd">
<svg version="1.1" id="Layer_1" xmlns="http://www.w3.org/2000/svg" xmlns:xlink="http://www.w3.org/1999/xlink" x="0px" y="0px"
	 width="150px" height="150px" viewBox="0 0 150 150" enable-background="new 0 0 150 150" xml:space="preserve">
<g id="Head1">
	<path fill="#F9D7B9" d="M97.24,121.048l-14.869-7.605l0.513-8.682l-16.599,0.51l0.257,7.408l-13.353,7.59
		c0,0-5.433,26.67,19.672,26.67C97.262,146.938,97.615,139.81,97.24,121.048z"/>
	<path fill="#E1C3A9" d="M82.594,109.794l0.363-5.033l-16.601,0.404l0.161,4.649C72.005,111.222,77.342,111.003,82.594,109.794z"/>
	<g id="HEAD_1">
		<g>
			<path fill="#F9D7B9" d="M116.799,33.515c2.365,12.461,3.381,25.449,1.247,37.902c-2.062,12.027-6.892,23.326-17.715,29.92
				c-7.054,4.293-16.233,5.912-24.416,5.892c-60.676-0.17-43.334-74.162-43.334-74.162S36.792,3.659,75.915,3.068
				c16.664-0.251,35.53,6.254,39.604,24.302C115.979,29.399,116.406,31.451,116.799,33.515z"/>
			<path fill="#F9D7B9" d="M119.838,53.252c-0.271-0.248-0.572-0.562-0.887-0.908c0.04,7.797-0.844,15.725-2.256,23.52
				C134.788,64.919,119.838,53.252,119.838,53.252z"/>
			<path fill="#F9D7B9" d="M30.163,53.252c0.271-0.248,0.572-0.562,0.886-0.908c-0.04,7.797,0.843,15.725,2.254,23.52
				C15.213,64.919,30.163,53.252,30.163,53.252z"/>
		</g>
	</g>
</g>
</svg>
