<?xml version="1.0" encoding="utf-8"?>
<!-- Generator: Adobe Illustrator 16.0.0, SVG Export Plug-In . SVG Version: 6.00 Build 0)  -->
<!DOCTYPE svg PUBLIC "-//W3C//DTD SVG 1.1//EN" "http://www.w3.org/Graphics/SVG/1.1/DTD/svg11.dtd">
<svg version="1.1" id="Layer_1" xmlns="http://www.w3.org/2000/svg" xmlns:xlink="http://www.w3.org/1999/xlink" x="0px" y="0px"
	 width="150px" height="150px" viewBox="0 0 150 150" enable-background="new 0 0 150 150" xml:space="preserve">
<g id="Male_Uppers">
	<g id="mup1">
		<path id="fillClothesUpperColorBase_18_" fill="#C74541" d="M124.316,35.866c-1.635-12.446-6.264-17.125-6.264-17.125
			c-2.791-3.175-5.584-6.436-8.5-6.558c-9.773-0.424-3.558,35.88-1.818,42.405c0.303,1.13,0.861,3.177,1.281,5.92
			c5.207-0.369,13.344-2.946,18.012-5.115C126.197,46.163,124.789,39.447,124.316,35.866z"/>
		<path id="fillClothesUpperColorBase_17_" fill="#C74541" d="M70.868,36.299L62.82,12.38l-13.695,0.012L39.731,19.5
			c-0.235,0.185-8.492,6.866-16.76,10.917c0.769,5.975,6.731,14.157,10.792,18.153c7.964-3.056,14.382-5.617,17.646-7.625
			L70.868,36.299z"/>
		<path id="fillClothesUpperColorShade_11_" fill="#BD413D" d="M106.365,47.699c0.52,3.118,1.027,5.593,1.376,6.89
			c0.303,1.13,0.87,3.177,1.284,5.92c3.533-0.25,8.404-1.523,12.637-2.995C115.645,55.642,110.133,51.787,106.365,47.699z"/>
		<path id="fillClothesUpperColorShade_10_" fill="#BD413D" d="M67.111,25.134C57.259,34.907,43.42,42.063,29.524,43.67
			c1.451,1.921,2.94,3.628,4.24,4.904c7.964-3.056,14.382-5.617,17.646-7.624l19.456-4.65L67.111,25.134z"/>
		<path id="fillClothesUpperColorBase_16_" fill="#C74541" d="M115.645,136.945c1.198-89.985-5.324-118.8-4.979-124.661
			c0,0-4.425-1.649-12.302-6.386c-0.788,5.469-1.663,21.201-18.062,20.345c-13.639-0.712-12.423-9.921-15.47-20.121
			c-6.481,2.681-13.878,5.19-15.62,6.447c0,0,1.212,76.281-6.588,122.473c0,0,4.048,2.226,4.018,2.315
			C61.425,147.784,101.839,144.898,115.645,136.945z"/>
		<path id="fillClothesUpperColorShade_9_" fill="#BD413D" d="M113.909,126.434c-14.283,3.571-28.565,3.571-41.062-1.785
			c-19.705-6.15-24.115-24.209-24.958-43.604c-0.967,18.672-2.582,38.123-5.266,53.998c0,0,4.048,2.226,4.018,2.315
			c14.783,10.427,55.201,7.55,69.001-0.407c0.053-3.898,0.088-7.625,0.112-11.291C115.139,125.917,114.527,126.188,113.909,126.434z
			"/>
	</g>
	<g id="mup2" display="none">
		<path id="fillClothesUpperColorBase_15_" display="inline" fill="#6B8893" d="M124.316,35.951
			c-0.635-4.824-1.974-9.533-4.308-13.817c-1.854-3.399-5.778-9.598-10.147-9.781c-9.764-0.425-3.867,35.802-2.121,42.327
			c0.303,1.129,0.869,3.173,1.285,5.917c5.205-0.366,13.336-2.943,18.004-5.112C126.197,46.248,124.787,39.532,124.316,35.951z"/>
		<path id="fillClothesUpperColorSahde" display="inline" fill="#637F89" d="M106.363,47.783c0.52,3.118,1.029,5.593,1.377,6.89
			c0.303,1.13,0.869,3.177,1.285,5.92c3.533-0.25,8.402-1.523,12.635-2.995C115.643,55.726,110.131,51.872,106.363,47.783z"/>
		<path id="fillClothesUpperColorBase_14_" display="inline" fill="#6B8893" d="M70.867,36.383l-8.048-23.919l-13.489,0.1
			l-9.6,7.028c-0.235,0.185-8.492,6.866-16.76,10.918c0.769,5.975,6.731,14.157,10.792,18.152
			c7.964-3.056,14.382-5.617,17.646-7.624L70.867,36.383z"/>
		<path id="fillClothesUpperColorShade_8_" display="inline" fill="#637F89" d="M67.109,25.218
			c-9.853,9.773-23.691,16.929-37.587,18.536c1.451,1.921,2.94,3.628,4.24,4.904c7.964-3.056,14.382-5.617,17.646-7.624l19.456-4.65
			L67.109,25.218z"/>
		<path id="fillClothesUpperColorBase_13_" display="inline" fill="#6B8893" d="M115.643,137.03
			c1.199-89.988-5.072-118.52-4.723-124.374c0,0-4.684-1.938-12.559-6.674c-3.48,5.199-3.644,5.686-14.865,18.535
			c-8.945-8.293-12.234-9.988-18.704-18.704c-6.481,2.681-13.843,5.583-15.583,6.84c0,0,1.21,76.279-6.587,122.473
			c0,0,4.047,2.226,4.015,2.315C61.424,147.868,101.838,144.982,115.643,137.03z"/>
		<path id="fillClothesUpperColorShade_7_" display="inline" fill="#637F89" d="M76.416,131.874c3.57,0,5.355,0,7.141-1.785
			c-31.693-11.094-32.441-46.088-34.706-73.798c-0.666,24.895-2.313,55.656-6.229,78.835c0,0,4.048,2.226,4.018,2.315
			c14.783,10.427,55.201,7.55,69.003-0.407c0.018-1.302,0.026-2.529,0.041-3.798C102.588,135.641,89.385,135.766,76.416,131.874z"/>
	</g>
	<g id="mup3" display="none">
		<path id="fillClothesUpperColorBase_11_" display="inline" fill="#939688" d="M124.316,38.753
			c-0.635-4.824-1.974-9.533-4.308-13.817c-1.854-3.399-5.778-9.598-10.147-9.781c-9.764-0.425-3.867,35.802-2.121,42.327
			c0.303,1.129,0.869,3.173,1.285,5.917c5.205-0.366,13.336-2.943,18.004-5.112C126.197,49.05,124.787,42.334,124.316,38.753z"/>
		<path id="fillClothesUpperColorShade_6_" display="inline" fill="#84887B" d="M104.418,27.352
			c-0.363,11.032,2.252,26.138,3.322,30.127c0.303,1.13,0.869,3.177,1.285,5.921c2.059-0.147,7.809-2.023,10.391-2.699
			C118.834,47.508,115.652,34.398,104.418,27.352z"/>
		<path id="fillClothesUpperColorBase_10_" display="inline" fill="#939688" d="M70.867,39.186l-8.048-23.919l-13.489,0.1
			l-9.6,7.028c-0.235,0.185-8.492,6.866-16.76,10.918c0.769,5.975,6.731,14.157,10.792,18.152
			c7.964-3.056,14.382-5.617,17.646-7.624L70.867,39.186z"/>
		<path id="fillClothesUpperColorShade_4_" display="inline" fill="#84887B" d="M27.657,43.926c1.979,2.979,4.24,5.701,6.105,7.537
			c7.964-3.056,14.382-5.617,17.646-7.624l19.459-4.653l-5.03-14.949C55.175,35.655,43.02,45.647,27.657,43.926z"/>
		<path id="fillClothesUpperColorBase_9_" display="inline" fill="#939688" d="M115.643,139.833
			c1.199-89.986-5.072-118.519-4.723-124.372c0,0-4.684-1.937-12.559-6.674c-3.48,5.2-5.947,15.188-17.17,28.037
			c-8.946-8.296-9.932-19.49-16.399-28.206c-6.481,2.681-13.843,5.583-15.583,6.84c0,0,1.21,76.278-6.587,122.471
			c0,0,4.047,2.226,4.015,2.316C61.424,150.671,101.838,147.786,115.643,139.833z"/>
		<path id="fillClothesUpperColorShade_5_" display="inline" fill="#84887B" d="M95.314,141.484
			c1.785-1.784,3.569-3.569,5.354-5.354c-27.003,11.047-48.099-4.065-54.587-26.192c-0.891,9.91-2.02,19.465-3.46,27.992
			c0,0,4.047,2.225,4.015,2.315c14.787,10.426,55.201,7.545,69.006-0.408c0.01-0.821,0.018-1.604,0.026-2.42
			C109.035,139.938,102.176,141.484,95.314,141.484z"/>
		<path id="fillClothesUpperColorShade_3_" display="inline" fill="#84887B" d="M81.402,49.86l3.771-11.72l-3.848-1.033
			l-3.65-11.345l-0.243,0.063L71.034,7.04l0.162-3.852l-6.648,5.06c-0.043,8.575-1.151,27.634-1.151,27.634l13.086-4.164l3.01,7.036
			l4.285-0.083L81.402,49.86z M81.242,37.157l4.76-11.396l0.24,0.063l6.396-18.788l1.016-3.679l5.465,4.882
			c0.039,8.574,1.152,27.633,1.152,27.633l-13.08-4.163L81.242,37.157z"/>
		<path id="fillClothesUpperColorBase_12_" display="inline" fill="#939688" d="M70.892,5.439l6.784,20.322l-12.758,6.137
			c0,0,2.252-14.307-0.274-23.286l6.61-5.6L70.892,5.439z M93.189,5.34l-7.181,20.419l12.757,6.138c0,0-2.254-14.308,0.272-23.286
			L93.82,3.283L93.189,5.34z"/>
	</g>
	<g id="mup4" display="none">
		<path id="fillClothesUpperColorBase_8_" display="inline" fill="#E1DEE0" d="M131.271,38.757
			c-0.635-4.824-1.973-9.533-4.308-13.817c-1.854-3.399-5.778-9.598-10.147-9.781c-9.765-0.425-3.866,35.802-2.121,42.327
			c0.303,1.129,1.291,39.188,1.703,41.934c5.207-0.371,13.34-2.947,18.008-5.109C133.574,85.066,131.742,42.338,131.271,38.757z"/>
		<path id="fillClothesUpperColorBase_7_" display="inline" fill="#E1DEE0" d="M77.82,39.189L69.773,15.27l-13.489,0.1l-9.6,7.028
			c-0.235,0.185-19.767,10.937-28.031,14.988c0.769,5.982,0.849,12.523,4.909,16.515c7.965-3.057,31.536-8.043,34.8-10.048
			L77.82,39.189z"/>
		<path id="fillClothesUpperColorShade_2_" display="inline" fill="#D9D6D9" d="M133.166,73.882
			c-11.385,1.234-15.336-35.624-12.428-54.373c-0.514,0.303-1.057,0.607-1.661,0.91c0.604-0.303,1.147-0.606,1.661-0.91
			c0.044-0.292,0.076-0.586,0.123-0.875c-0.047,0.29-0.079,0.584-0.123,0.875c0.617-0.366,1.188-0.732,1.693-1.097
			c-1.67-1.789-3.594-3.164-5.615-3.253c-9.766-0.425-3.867,35.802-2.121,42.327c0.304,1.129,1.293,39.188,1.705,41.934
			c5.205-0.371,13.341-2.947,18.006-5.109C134.059,90.451,133.691,84.123,133.166,73.882z M71.792,21.267
			C57.95,34.757,39.02,44.999,19.739,45.631c0.606,3.168,1.625,6.09,3.825,8.257c7.964-3.056,31.536-8.042,34.8-10.047l19.456-4.65
			L71.792,21.267z"/>
		<path id="fillClothesUpperColorTint_1_" display="inline" fill="#EBE8E9" d="M115.532,78.662c0.37,9.73,0.745,19.422,0.97,20.758
			c5.822-0.371,14.914-2.947,20.135-5.109c-0.328-3.252-0.793-10.67-1.283-19.058C128.939,77.512,122.15,78.881,115.532,78.662z
			 M27.55,30.404c-3.877,2.04-11.552,3.681-14.187,4.959c0.888,6.871,3.585,16.927,8.276,21.523
			c3.161-1.214,8.472-3.891,14.214-5.392C30.824,46.873,27.533,35.054,27.55,30.404z"/>
		<path id="fillClothesUpperColorBase_6_" display="inline" fill="#E1DEE0" d="M122.598,139.836
			c1.198-89.985-5.072-118.519-4.724-124.372c0,0-4.685-1.937-12.56-6.674c-2.746,4.103-14.949,13.688-14.949,13.688
			s-1.232,0.815-2.805,5.526c-0.941-4.5-0.754-5.003-0.754-5.003s-10.377-8.07-15.061-14.38c-6.481,2.681-13.844,5.583-15.583,6.84
			c0,0,1.21,76.277-6.587,122.471c0,0,4.047,2.226,4.014,2.316C68.378,150.674,108.792,147.789,122.598,139.836z"/>
		<path display="inline" fill="#C7C6C8" d="M90.68,146.824h0.723L91.941,29.63l-3.848-1.032l-0.34-5.701l-0.417-1.569L78.001,7.042
			l0.16-3.856l-6.647,5.06c-0.043,8.575-1.152,27.634-1.152,27.634l15.725-12.241l0.186,6.62l4.834,0.279L90.68,146.824z
			 M88.01,28.659l1.936-7.229l0.209-0.633l9.438-13.754l1.017-3.682l5.465,4.882c0.039,8.574,1.152,27.633,1.152,27.633
			L90.465,23.21L88.01,28.659z"/>
		<path id="fillClothesUpperColorTint" display="inline" fill="#E8E5E7" d="M78.641,5.413l8.48,15.594l-15.252,10.89
			c0,0,2.252-14.307-0.274-23.286l6.61-5.6L78.641,5.413z M100.145,5.344L89.736,21.328l15.972,10.569
			c0,0-2.249-14.307,0.278-23.286l-5.219-5.328L100.145,5.344z"/>
	</g>
</g>
</svg>
