<?xml version="1.0" encoding="utf-8"?>
<!-- Generator: Adobe Illustrator 14.0.0, SVG Export Plug-In . SVG Version: 6.00 Build 43363)  -->
<!DOCTYPE svg PUBLIC "-//W3C//DTD SVG 1.1//EN" "http://www.w3.org/Graphics/SVG/1.1/DTD/svg11.dtd">
<svg version="1.1" id="Layer_1" xmlns="http://www.w3.org/2000/svg" xmlns:xlink="http://www.w3.org/1999/xlink" x="0px" y="0px"
	 width="150px" height="150px" viewBox="0 0 150 150" enable-background="new 0 0 150 150" xml:space="preserve">
<g id="Head" display="none">
	<path display="inline" fill="#F9D7B9" d="M98.607,121.527l-15.783-7.605l0.544-8.682l-17.619,0.51l0.272,7.408l-14.174,7.59
		c0,0-5.767,26.67,20.882,26.67C98.631,147.418,99.006,140.289,98.607,121.527z"/>
	<path display="inline" fill="#E1C3A9" d="M83.061,110.273l0.387-5.033l-17.622,0.404l0.171,4.649
		C71.821,111.701,77.484,111.482,83.061,110.273z"/>
	<g id="Head2" display="inline">
		<g>
			<path fill="#F9D7B9" d="M113.004,34.675c-0.357-2.063-0.747-4.114-1.163-6.144C108.137,10.483,90.982,3.979,75.833,4.229
				C40.261,4.82,33.778,33.845,33.778,33.845s-13.113,74.374,42.054,74.544c7.441,0.021,15.788-1.599,22.2-5.894
				c9.843-6.593,14.233-17.892,16.106-29.919C116.079,60.125,115.156,47.136,113.004,34.675z"/>
			<path fill="#F9D7B9" d="M115.768,54.414c-0.248-0.248-0.521-0.562-0.808-0.908c0.036,7.797-0.765,15.725-2.048,23.52
				C129.359,66.079,115.768,54.414,115.768,54.414z"/>
			<path fill="#F9D7B9" d="M34.232,54.414c0.248-0.248,0.521-0.562,0.806-0.908c-0.035,7.797,0.766,15.725,2.05,23.52
				C20.641,66.079,34.232,54.414,34.232,54.414z"/>
		</g>
	</g>
</g>
<g id="Head1" display="none">
	<path display="inline" fill="#F9D7B9" d="M97.24,121.527l-14.869-7.605l0.513-8.682l-16.599,0.51l0.257,7.408l-13.353,7.59
		c0,0-5.433,26.67,19.672,26.67C97.262,147.418,97.615,140.289,97.24,121.527z"/>
	<path display="inline" fill="#E1C3A9" d="M82.594,110.273l0.363-5.033l-16.601,0.404l0.161,4.649
		C72.005,111.701,77.342,111.482,82.594,110.273z"/>
	<g id="HEAD_1" display="inline">
		<g>
			<path fill="#F9D7B9" d="M116.799,33.994c2.365,12.461,3.381,25.449,1.247,37.902c-2.062,12.028-6.892,23.327-17.715,29.92
				c-7.054,4.293-16.233,5.912-24.416,5.892c-60.676-0.17-43.334-74.162-43.334-74.162S36.792,4.138,75.915,3.548
				c16.664-0.251,35.53,6.254,39.604,24.302C115.979,29.879,116.406,31.93,116.799,33.994z"/>
			<path fill="#F9D7B9" d="M119.838,53.732c-0.271-0.248-0.572-0.562-0.887-0.908c0.04,7.797-0.844,15.725-2.256,23.52
				C134.788,65.398,119.838,53.732,119.838,53.732z"/>
			<path fill="#F9D7B9" d="M30.163,53.732c0.271-0.248,0.572-0.562,0.886-0.908c-0.04,7.797,0.843,15.725,2.254,23.52
				C15.213,65.398,30.163,53.732,30.163,53.732z"/>
		</g>
	</g>
</g>
<g id="eyebrows" display="none">
	<g id="ueb1">
		<path id="fillEyebrowColorBase_2_" display="inline" fill="#816951" d="M12.601,73.511c-0.767,0-1.529-0.322-2.064-0.95
			c-0.973-1.138-0.836-2.847,0.304-3.82c15.37-13.132,36.059-2.273,36.935-1.807c1.317,0.706,1.812,2.348,1.106,3.666
			c-0.703,1.318-2.343,1.815-3.661,1.112c-0.185-0.098-18.325-9.562-30.863,1.148C13.847,73.298,13.221,73.511,12.601,73.511z"/>
		<path id="fillEyebrowColorBase_3_" display="inline" fill="#816951" d="M136.445,73.033c-0.641,0-1.284-0.224-1.803-0.688
			c-12.361-10.988-30.646-1.864-30.832-1.767c-1.334,0.68-2.965,0.152-3.646-1.184c-0.681-1.334-0.149-2.966,1.185-3.646
			c0.881-0.448,21.791-10.879,36.891,2.549c1.125,0.994,1.221,2.708,0.227,3.826C137.938,72.724,137.191,73.033,136.445,73.033z"/>
	</g>
	<g id="ueb2">
		<g id="fillEyebrowColorBase_1_" display="inline">
			<path fill="#816951" d="M12.758,78.499c-0.487,0-0.98-0.13-1.426-0.404c-1.271-0.79-1.666-2.459-0.875-3.73
				c10.651-17.172,33.662-13.135,34.64-12.955c1.472,0.272,2.44,1.684,2.17,3.151c-0.27,1.473-1.67,2.451-3.153,2.178
				c-0.201-0.034-20.37-3.517-29.051,10.485C14.55,78.045,13.665,78.499,12.758,78.499z"/>
		</g>
		<g id="fillEyebrowColorBase" display="inline">
			<path fill="#816951" d="M134.885,78.143c-0.934,0-1.835-0.48-2.345-1.341c-8.372-14.268-28.574-11.225-28.774-11.192
				c-1.48,0.214-2.865-0.772-3.103-2.25c-0.233-1.478,0.771-2.862,2.247-3.1c0.982-0.154,24.082-3.625,34.309,13.8
				c0.752,1.29,0.324,2.951-0.966,3.708C135.822,78.021,135.352,78.143,134.885,78.143z"/>
		</g>
	</g>
	<g id="ueb3">
		<path id="fillEyebrowColorBase_5_" display="inline" fill="#816951" d="M11.478,75.625c-0.326,0.365-0.558,0.82-0.651,1.334
			c-0.263,1.475,0.713,2.878,2.188,3.146c19.888,3.566,32.279-16.241,32.796-17.09c0.783-1.274,0.381-2.938-0.891-3.723
			c-1.274-0.788-2.937-0.394-3.728,0.889c-0.108,0.172-11.004,17.499-27.221,14.59C13.016,74.598,12.086,74.956,11.478,75.625z"/>
		<path id="fillEyebrowColorBase_4_" display="inline" fill="#816951" d="M135.795,76.355c-0.552-0.752-1.477-1.199-2.464-1.1
			c-16.462,1.658-25.927-16.443-26.019-16.629c-0.705-1.323-2.316-1.858-3.646-1.179c-1.336,0.679-1.859,2.312-1.18,3.646
			c0.453,0.88,11.281,21.584,31.384,19.555c1.485-0.152,2.577-1.48,2.426-2.967C136.247,77.182,136.068,76.732,135.795,76.355z"/>
	</g>
	<g id="ueb4">
		<path id="fillEyebrowColorBase_9_" display="inline" fill="#816951" d="M52.29,81.566c0.541-0.354,0.984-0.735,1.195-1.059
			c0.886-1.367,0.167-2.845-0.69-4.031c-2.502-3.458-7.013-5.512-11.044-6.482c-6.763-1.63-13.604-1.249-20.241,0.644
			c-1.588,0.451-3.156,0.891-4.667,1.55c-1.373,0.605-1.993,2.196-1.393,3.571c0.598,1.369,2.186,1.998,3.568,1.396
			c3.275-1.423,7.43-1.923,10.952-1.902c3.316,0.021,6.856,0.604,9.948,1.82c1.895,0.745,3.574,1.827,5.167,3.084
			c1.192,0.938,2.448,2.354,4.024,2.59C49.844,82.859,51.242,82.259,52.29,81.566z"/>
		<path id="fillEyebrowColorBase_8_" display="inline" fill="#816951" d="M133.964,75.943c-0.813,0.447-1.838,0.475-2.698-0.035
			c-5.721-3.372-12.418-3.12-18.453-0.744c-2.344,0.925-4.83,2.211-6.91,3.645c-1.594,1.096-3.887,4.17-6.153,3.728
			c-2.538-0.505-4.942-4.687-2.414-6.679c0.778-0.61,19.276-14.875,36.687-4.62c1.287,0.762,1.715,2.426,0.959,3.71
			C134.723,75.381,134.371,75.715,133.964,75.943z"/>
	</g>
	<g id="ueb5">
		<path id="fillEyebrowColorBase_6_" display="inline" fill="#816951" d="M136.445,80.342c-0.641,0-1.284-0.227-1.803-0.687
			c-12.361-10.989-30.646-1.868-30.832-1.771c-1.334,0.68-3.691-2.314-4.375-3.651c-0.682-1.333-0.136-5.314,1.201-5.993
			c0.883-0.451,23.512-10.79,38.608,2.636c1.118,0.994,1.438,3.121,0.237,5.275C139.102,76.855,137.191,80.342,136.445,80.342z"/>
		<path id="fillEyebrowColorBase_7_" display="inline" fill="#816951" d="M11.833,80.342c0.639,0,1.282-0.227,1.797-0.687
			c12.368-10.989,30.647-1.868,30.833-1.771c1.333,0.68,3.691-2.314,4.374-3.651c0.682-1.333,0.136-5.314-1.197-5.993
			c-0.886-0.451-23.516-10.79-38.613,2.636c-1.123,0.994-1.441,3.121-0.242,5.275C9.177,76.855,11.082,80.342,11.833,80.342z"/>
	</g>
	<g id="ueb6">
		<path id="fillEyebrowColorBase_11_" display="inline" fill="#816951" d="M136.374,80.516c-0.612-0.174-1.175-0.57-1.546-1.151
			c-8.896-13.944-28.973-10.156-29.174-10.113c-1.473,0.289-2.926-3.236-3.217-4.706c-0.289-1.47,1.321-5.149,2.789-5.44
			c0.974-0.193,25.564-3.967,36.43,13.073c0.809,1.264,0.533,3.393-1.211,5.141C139.877,77.891,137.09,80.718,136.374,80.516z"/>
		<path id="fillEyebrowColorBase_10_" display="inline" fill="#816951" d="M12.212,80.389c0.62-0.148,1.192-0.521,1.586-1.087
			c9.43-13.594,29.342-9.032,29.545-8.982c1.46,0.347,3.046-3.124,3.393-4.575c0.348-1.46-1.123-5.201-2.577-5.548
			c-0.965-0.232-25.395-4.949-36.908,11.657c-0.853,1.228-0.665,3.37,1.014,5.188C8.812,77.628,11.486,80.566,12.212,80.389z"/>
	</g>
	<g id="ueb7">
		<path id="fillEyebrowColorBase_13_" display="inline" fill="#816951" d="M139.861,72.587c-0.545-0.334-1.209-0.484-1.896-0.36
			c-16.285,2.863-27.066-14.495-27.172-14.672c-0.777-1.28-4.355,0.031-5.639,0.811c-1.281,0.783-2.903,4.457-2.127,5.736
			c0.514,0.844,14.354,21.522,34.258,18.012c1.475-0.259,2.863-1.9,2.972-4.367C140.295,76.943,140.493,72.979,139.861,72.587z"/>
		<path id="fillEyebrowColorBase_12_" display="inline" fill="#816951" d="M8.95,72.016c0.562-0.314,1.236-0.427,1.905-0.276
			c16.143,3.641,27.728-13.181,27.843-13.354c0.842-1.244,4.354,0.242,5.597,1.076c1.239,0.84,2.686,4.591,1.846,5.829
			c-0.551,0.824-15.362,20.816-35.07,16.363c-1.462-0.329-2.771-2.034-2.76-4.506C8.312,76.346,8.296,72.376,8.95,72.016z"/>
	</g>
	<g id="ueb8" display="inline">
		<path id="fillEyebrowColorBase_15_" fill="#816951" d="M134.453,77.854c-0.607,0.201-1.29,0.191-1.93-0.086
			c-15.184-6.544-29.676,7.856-29.819,8.01c-1.052,1.063-4.231-1.037-5.3-2.09c-1.064-1.058-1.799-5.008-0.745-6.074
			c0.698-0.705,18.934-17.63,37.487-9.621c1.371,0.589,2.348,2.51,1.885,4.933C135.874,73.715,135.158,77.618,134.453,77.854z"/>
		<path id="fillEyebrowColorBase_14_" fill="#816951" d="M49.7,86.088c-0.641-0.054-1.261-0.34-1.735-0.84
			c-11.328-12.054-30.348-4.615-30.542-4.535c-1.393,0.557-3.473-2.643-4.029-4.031c-0.556-1.386,0.345-5.31,1.736-5.866
			c0.917-0.374,24.386-8.63,38.216,6.104c1.025,1.089,1.156,3.23-0.237,5.275C52.658,82.865,50.444,86.16,49.7,86.088z"/>
	</g>
</g>
<g id="Mouths" display="none">
	<g id="Mouth_1">
		
			<path display="inline" fill="none" stroke="#816951" stroke-width="18.4529" stroke-linecap="round" stroke-linejoin="round" stroke-miterlimit="10" d="
			M13.334,69.625c0,0,49.156,26.02,123.332-0.631"/>
	</g>
	<g id="Mouth_2">
		
			<path display="inline" fill="none" stroke="#816951" stroke-width="18.4529" stroke-linecap="round" stroke-linejoin="round" stroke-miterlimit="10" d="
			M13.334,58.421c0,0,58.65,76.447,123.332-0.632"/>
	</g>
	<g id="Mouth_3">
		<path display="inline" fill="#F5F5F5" stroke="#E0E1E2" stroke-miterlimit="10" d="M136.666,35.352
			C68.109,67.851,13.334,36.237,13.334,36.237s10.994,78.516,60.736,78.412C123.797,114.544,136.666,35.352,136.666,35.352z"/>
	</g>
	<g id="umo5">
		<path display="inline" fill="#FFFFFF" stroke="#B0ACAB" stroke-miterlimit="10" d="M128.916,61.052
			c-4.758-2.01-10.915-1.15-15.58-0.06c-6.578,1.53-12.798,4.524-19.327,6.342c-4.151,1.165-8.561,1.732-12.889,1.683
			c-19.626-0.23-35.052-13.007-46.823-9.334c-8.853,2.775-19.446,10.691-19.854,20.813c-0.121,2.711,0.366,6.17,1.464,8.676
			c4.373,9.982,12.939,15.355,23.434,17.438c11.408,2.275,22.245-3.782,32.084-8.672c4.097-2.024,8.181-4.364,12.692-5.264
			c4.059-0.805,8.307-0.33,12.369,0.146c5.662,0.658,11.168,2.152,16.812,2.969c9.785,1.408,22.173-0.123,24.38-11.76
			c0.512-2.695,0.328-5.467-0.144-8.148c-0.79-4.504-1.654-8.868-4.917-12.286C131.543,62.45,130.289,61.622,128.916,61.052z"/>
		<path display="inline" fill="#816951" d="M14.771,77.461c-0.151,0.789-0.273,1.76-0.339,3.029
			c-0.081,1.498,0.065,3.199,0.374,4.84c6.778-0.127,21.29-1.047,28.957-1.533C32.506,80.902,17.066,77.984,14.771,77.461z"/>
		<path display="inline" fill="#816951" d="M137.271,85.707c1.142-2.779,0.639-7.648,0.258-9.838
			c-8.666,3.781-27.006,5.441-27.006,5.441S122.63,84.059,137.271,85.707z"/>
	</g>
	<g id="umo4">
		<g display="inline">
			<path fill="#816951" d="M126.584,88.443c-7.175-5.568-16.182-10.5-25.105-13.812c-9.021-3.367-18.498-5.264-27.861-5.129
				c-9.363,0.099-18.556,2.345-26.982,6.479c-8.425,4.134-16.055,10.129-22.79,17.134c-2.778,2.922-7.396,3.026-10.309,0.256
				c-2.905-2.783-3.004-7.399-0.249-10.322c7.645-8.013,16.588-15.16,26.86-20.239c10.245-5.086,21.768-7.928,33.227-8.07
				c11.495-0.199,22.783,2.075,33.261,5.939c10.557,3.993,20.104,9.029,29.411,16.19c3.274,2.516,3.888,7.213,1.371,10.479
				c-2.521,3.274-7.211,3.885-10.479,1.371l-0.014-0.021L126.584,88.443z"/>
		</g>
	</g>
</g>
<g id="Layer_12" display="none">
</g>
<g id="eyes" display="none">
	<g id="Eyes1" display="inline">
		<path fill="#543318" d="M136.665,76.516c-0.019,8.024-5.771,14.524-12.856,14.512c-7.068-0.01-12.81-6.521-12.799-14.547
			c0.018-8.028,5.774-14.523,12.85-14.513C130.939,61.979,136.673,68.49,136.665,76.516z"/>
		<path fill="#543318" d="M39.38,76.021c-0.017,8.024-5.771,14.522-12.857,14.512c-7.07-0.006-12.811-6.521-12.796-14.551
			c0.017-8.021,5.774-14.52,12.847-14.51C33.654,61.483,39.386,67.999,39.38,76.021z"/>
	</g>
	<g id="Eyes2" display="inline">
		<g>
			<path fill="#543318" d="M36.666,84.842c1.601-2.421,2.584-5.393,2.589-8.646c0.011-8.022-5.722-14.537-12.804-14.552
				c-7.076-0.006-12.833,6.489-12.847,14.515c-0.006,3.586,1.18,6.826,3.079,9.365C21.933,83.759,29.787,82.141,36.666,84.842z"/>
		</g>
		<g>
			<path fill="#543318" d="M113.337,84.842c-1.604-2.421-2.582-5.393-2.588-8.646c-0.013-8.022,5.719-14.537,12.806-14.552
				c7.074-0.006,12.832,6.489,12.842,14.515c0.006,3.586-1.174,6.826-3.074,9.365C128.07,83.759,120.217,82.141,113.337,84.842z"/>
		</g>
		<g>
			<path fill="#543318" d="M36.666,84.842c1.601-2.421,2.584-5.393,2.589-8.646c0.011-8.022-5.722-14.537-12.804-14.552
				c-7.076-0.006-12.833,6.489-12.847,14.515c-0.006,3.586,1.18,6.826,3.079,9.365C21.933,83.759,29.787,82.141,36.666,84.842z"/>
		</g>
	</g>
	<g id="Eyes3" display="inline">
		<path fill="#543318" d="M136.23,78.223c0.09-0.68,0.172-1.359,0.166-2.064c-0.01-8.025-5.771-14.521-12.844-14.515
			c-7.086,0.015-12.816,6.529-12.805,14.552c0,0.216,0.04,0.42,0.049,0.631C119.75,74.8,128.167,75.661,136.23,78.223z"/>
		<path fill="#543318" d="M14.006,78.223c-0.087-0.68-0.169-1.359-0.166-2.064c0.017-8.025,5.771-14.521,12.847-14.515
			c7.082,0.015,12.813,6.529,12.805,14.552c0,0.216-0.041,0.42-0.048,0.631C30.49,74.8,22.072,75.661,14.006,78.223z"/>
	</g>
</g>
<g id="Lower_garments" display="none">
	<g id="lower_garments" display="inline">
		<g id="flo1_1_">
			<path id="fillClothesLowerColorBase" fill="#535763" d="M96.4,135.697c1.154-18.73,6.063-70.52,6.063-70.52
				s5.477-46.204-4.631-62.752L54.725,2.29c0,0-7.178,4.71-8.119,61.437c0,0-2.545,50.908-4.045,72.283
				c5.309,2.479,12.25,2.307,16.693-0.729l12.233-90.658l7.005-0.224l2.132,91.438C85.678,138.438,91.672,137.951,96.4,135.697z"/>
			<path id="fillClothesLowerColorShade_1_" fill="#484B56" d="M100.881,9.858c-0.547-1.349-1.75-6.887-2.425-7.998L53.869,1.618
				c0,0-1.042,4.734-2.262,8.077C68.652,15.109,85.936,14.946,100.881,9.858z"/>
		</g>
		<g id="mlo4">
			<path id="fillClothesLowerColorBase_1_" fill="#54667B" d="M104.439,15.053c-0.303-7.404-0.705-12.145-0.705-13.633
				c-0.838,0.036-15.44,2.702-26.918,1.84c-0.032-0.003-0.072-0.006-0.108-0.009c-0.03,0-0.069-0.005-0.103-0.005
				C64.65,2.584,51.297,1.879,50.314,1.716c-0.6,1.055-0.605,2.865-2.219,10.573c-0.826,7.197-1.916,14.22-2.219,21.92
				c0.008,0.02,0.025,0.037,0.035,0.057c-2.318,34.572-6.561,107.076-6.562,107.076c3.709,4.934,16.639,3.916,16.639,3.916
				c4.913-21.697,12.99-82.385,17.602-103.535c1.084,0.122,2.145,0.186,3.239,0.109c0.334-0.022,0.665-0.047,0.993-0.077
				c6.869,33.539,2.809,103.349,2.809,103.353c4.424,4.332,16.953,2.158,16.953,2.158c4.318-24.953,7.221-99.919,6.887-113.113
				c0.025-0.047,0.062-0.091,0.076-0.138C104.742,26.706,104.742,21.471,104.439,15.053z"/>
			<path id="fillClothesLowerColorShade" fill="#4D5E71" d="M104.506,23.528c-0.01-3.138,0.09-5.153-0.066-8.475
				c-0.303-7.404-0.701-12.145-0.701-13.633c-0.836,0.036-15.438,2.702-26.918,1.84l0,0c-0.033-0.003-0.073-0.006-0.109-0.009
				c-0.027,0-0.068-0.005-0.104-0.005l0,0C64.65,2.584,51.297,1.879,50.314,1.716c-0.6,1.055-0.605,2.865-2.219,10.573
				c-0.383,3.317-0.816,6.606-1.205,9.935C64.342,30.971,82.406,31.158,104.506,23.528z M104.506,23.528
				c-0.01-3.138,0.09-5.153-0.066-8.475c-0.303-7.404-0.701-12.145-0.701-13.633c-0.836,0.036-15.438,2.702-26.918,1.84l0,0
				c-0.033-0.003-0.073-0.006-0.109-0.009c-0.027,0-0.068-0.005-0.104-0.005l0,0C64.65,2.584,51.297,1.879,50.314,1.716
				c-0.6,1.055-0.605,2.865-2.219,10.573c-0.383,3.317-0.816,6.606-1.205,9.935C64.342,30.971,82.406,31.158,104.506,23.528z
				 M90.325,93.727c-10.597-4.612-7.923-16.651-9.532-27.15c2.432,30.674-0.585,78.531-0.585,78.531
				c4.423,4.332,16.953,2.152,16.953,2.152c1.714-9.885,4.269-38.701,5.19-54.959C98.997,94.959,95.039,95.832,90.325,93.727z
				 M48.346,90.863c-1.887-0.924-3.696-2.121-5.42-3.539c-1.225,23.949-3.576,54.018-3.576,54.018
				c3.707,4.936,16.639,3.916,16.639,3.916c3.449-15.246,9.324-57.205,13.189-80.119C66.409,79.055,59.469,95.709,48.346,90.863z"/>
		</g>
		<g id="flo2">
			<path fill="#4A636E" d="M121.195,56.227c-0.277-1.505-0.631-3.089-1.021-4.707c-4.363-17.9-11.287-44.112-11.287-44.112
				c-0.008-0.019-18.664,4.107-33.601,4.107c-27.712,0.627-24.64-1.493-36.735-4.168C34.363,21.161,27.469,38.71,27.48,40.67
				c-1.256,2.864-2.174,6.934-2.832,11.75c-1.256,57.283-5.735,84.537-5.735,84.537c11.425,3.277,27.254,7.842,53.761,5.6
				c38.646-3.268,57.866-9.703,57.866-9.703l-2.985-7.096L121.195,56.227z"/>
			<path fill="#435B65" d="M72.496,128.422c4.111,0,7.193-3.084,11.303-3.084c-11.303-1.025-22.604-1.025-33.908-5.137
				c-18.094-6.223-24.664-21.471-26.237-38.717c-1.782,37.479-4.74,55.473-4.74,55.473c11.425,3.275,27.254,7.84,53.761,5.598
				c38.646-3.268,57.866-9.703,57.866-9.703l-1.928-4.574C110.346,133.564,90.566,133.941,72.496,128.422z"/>
		</g>
	</g>
</g>
<g id="female_uppers" display="none">
	<g id="fup3" display="inline">
		<path id="fillClothesUpperColorBase_4_" fill="#D6453F" d="M94.659,3.214c-2.11,1.485-7.505,10.472-19.807,9.95
			c-7.266-0.307-11.393-3.279-17.034-9.846c-6.232,3.684-11.187,7.371-13.112,9.253l9.536,13.185c0,0-5.777,9.629,4.235,20.414
			c0,0,3.086,9.631-2.31,25.808c0,0-7.318,16.564-9.247,27.347l-3.462,43.522c0,0,30.43,8.86,60.468,0
			c0,0,2.249-41.147-1.542-53.152c0-1.536-6.889-19.282-8.044-26.603c-1.16-7.316-1.714-15.404,1.364-19.256
			c3.079-3.859,4.976-7.226,3.05-18.393c0,0,6.584-10.461,7.786-11.817C106.538,13.623,102.048,6.908,94.659,3.214z"/>
	</g>
	<g id="fup2">
		<path id="fillClothesUpperColorBase_5_" display="inline" fill="#D6453F" d="M146.755,97.771
			c-1.772-20.488-3.685-42.508-4.315-49.5c-1.148-12.819-3.615-15.212-4.594-15.648c-0.027-0.019-0.049-0.031-0.082-0.051
			c-1.938-2.932-5.81-7.487-12.72-11.028l-0.504-0.255l-0.446,0.356c-8.91,9.101-15.057,13.014-25,12.536
			c-6.695-0.321-13.244-3.803-19.998-11.625l-0.488-0.571l-0.639,0.402c-1.941,1.212-4.014,2.371-6.016,3.492
			c-4.144,2.311-8.057,4.502-10.624,7.025C58.614,34.778,41.916,46.06,33.184,46.23c-0.089-0.016-8.972-1.706-17.661-7.622
			l-0.82-0.557l-0.456,0.877c-2.324,4.492-5.614,7.883-10.056,10.375l-1.078,0.604l0.924,0.817c2.522,2.232,5.229,4.514,8.044,6.786
			c5.211,4.207,11.75,6.333,19.442,6.333c0.002,0,0,0,0,0c17.83,0,36.466-11.201,41.101-14.176l0.366,0.494
			c-1.237,2.553-5.672,13.882,5.64,26.142c0.503,1.064,4.894,11.275-1.073,31.071c-0.027,0.07-2.786,6.255-5.498,13.525
			l-0.795,1.285l1.32,0.338c10.445,4.108,20.514,6.188,29.919,6.188h0.001c9.783,0,19.053-2.078,27.453-6.534l1.107-0.618
			l-0.705-0.843c-1.51-4.264-4.401-16.993-5.463-23.698c-1.276-8.065-2.524-19.324,1.279-24.078c0.637-0.803,1.24-1.592,1.792-2.425
			c0.767,4.24,1.735,12.484,2.888,28.242l0.086,1.216l1.127-0.474c2.486-1.038,5.398-1.604,8.223-1.604
			c1.924,0,3.725,0.256,5.35,0.77l1.25,0.398L146.755,97.771z"/>
		<path id="fillClothesUpperColorShade_1_" display="inline" fill="#C63F3A" d="M6.836,47.591c-0.839,0.608-1.716,1.182-2.651,1.708
			l-1.077,0.603l0.925,0.817c2.521,2.232,5.227,4.515,8.044,6.788c5.209,4.205,11.748,6.333,19.442,6.333l0,0
			c16.066,0,34.523-9.89,41.064-13.867c0.911-2.19,1.901-4.605,3.513-6.089C54.676,56.225,22.889,72.395,6.836,47.591z
			 M133.407,84.839c-1.242-9.034-1.55-17.561-1.925-28.074c-0.39,2.525-0.026,7.833-1.215,8.985
			c-0.095,0.188-0.201,0.36-0.289,0.545c0.088-0.182,0.194-0.348,0.285-0.542c-0.188,0.405-0.396,0.784-0.604,1.142
			c-0.707,1.352-0.707,1.352-0.004,0c-6.414,10.791-23.367,0.695-32.891,2.228c-4.658,0.749-8.305,4.022-13.293,2.993
			c-4.203-0.87-10.762-3.662-11.832-8.416c0.861,3.831,2.879,8.153,6.984,12.606c0.253,0.543,1.492,3.401,1.898,8.637
			c12.183-5.444,22.44-12.439,43.107-0.18c-0.096-4.808,0.484-9.244,2.526-11.799c0.639-0.802,1.239-1.597,1.793-2.433
			c0.556,3.129,1.233,8.448,2.012,17.351c0.271,3.165,0.562,6.764,0.856,10.896l0.096,1.21l1.125-0.47
			c1.088-0.451,2.263-0.797,3.473-1.065C134.314,95.771,133.809,87.739,133.407,84.839z M125.514,72.849
			c0.26-0.275,0.495-0.595,0.75-0.888C126.009,72.253,125.775,72.573,125.514,72.849z"/>
	</g>
	<g id="fup1">
		<path id="fillClothesUpperColorBase_3_" display="inline" fill="#D6453F" d="M48.584,19.012c-0.749,0-1.492-0.528-2.333-1.115
			c-0.924,0.526-1.852,1.049-2.764,1.561c-4.987,2.789-9.868,4.944-12.96,7.974c-1.398,0.968-6.188,3.696-11.686,6.875
			c1.364,8.431,8.051,14.728,13.427,20.544c5.676-2.815,9.988-5.454,12.027-6.754l0.38,0.5C52.79,40.002,57.56,27.988,48.584,19.012
			z"/>
		<path id="fillClothesUpperColorBase_2_" display="inline" fill="#D6453F" d="M109.459,67.643l1.979-0.168
			c5.881-1.96,13.58-2.11,19.722-7.19c-0.54-6.204-0.979-11.145-1.233-13.989c-1.382-15.428-4.279-18.456-5.451-18.982
			c-0.037-0.022-0.144,0.118-0.175,0.089c-0.513-0.762-2.749-0.996-3.495-1.914C109.271,34.632,107.693,53.522,109.459,67.643z"/>
		<path id="fillClothesUpperColorBase_1_" display="inline" fill="#D6453F" d="M118.962,49.894c0,0,3.74-17.618,5.853-19.713
			c0,0-1.282-5.146-12.604-12.944c-4.421-3.044-8.984-4.883-14.247-6.953c-4.007,11.307-9.214,24.949-18.313,34.55
			c0.25,0.491-12.278-23.174-16.316-34.54c-8.681,2.224-28.269,8.331-35.528,19.625L41.91,51.085c0,0-10.138,14.919,7.436,31.634
			c0,0,5.41,14.922-4.055,39.997c-1.804,4.771-3.272,10.789-5.424,15.444c26.495,10.213,54.516,10.32,79.775,0.48
			c-3.774-9.256-6.983-23.276-8.127-29.658c-2.031-11.338-3.387-24.479,2.028-30.439C118.962,72.577,122.346,67.203,118.962,49.894z
			"/>
		<path id="fillClothesUpperColorShade" display="inline" fill="#B03833" d="M79.66,59.497l4.464-13.864l-4.31-1.095l-4.563-13.549
			l-0.287,0.074L67.396,8.838l0.19-4.554l-7.863,5.985c-0.052,10.143-1.364,32.691-1.364,32.691l15.481-4.925l3.561,8.323
			l5.07-0.099L79.66,59.497z M79.686,44.801l5.418-13.812l0.283,0.074l7.566-22.225l1.199-4.352l6.468,5.775
			c0.047,10.143,1.364,32.69,1.364,32.69L86.51,38.026L79.686,44.801z"/>
		<path id="fillClothesUpperColorBase" display="inline" fill="#D6453F" d="M67.227,6.949l8.024,24.04l-15.09,7.26
			c0,0,2.665-16.925-0.325-27.546l7.819-6.625L67.227,6.949z M93.605,6.832l-8.496,24.156l15.092,7.259
			c0,0-2.666-16.924,0.326-27.546l-6.176-6.303L93.605,6.832z"/>
	</g>
</g>
<g id="Male_Uppers">
	<g id="mup1" display="none">
		<path id="fillClothesUpperColorBase_18_" display="inline" fill="#C74541" d="M124.316,35.866
			c-1.635-12.446-6.264-17.125-6.264-17.125c-2.791-3.175-5.584-6.436-8.5-6.558c-9.773-0.424-3.558,35.88-1.818,42.405
			c0.303,1.13,0.861,3.177,1.281,5.92c5.207-0.369,13.344-2.946,18.012-5.115C126.197,46.163,124.789,39.447,124.316,35.866z"/>
		<path id="fillClothesUpperColorBase_17_" display="inline" fill="#C74541" d="M70.868,36.299L62.82,12.38l-13.695,0.012
			L39.731,19.5c-0.235,0.185-8.492,6.866-16.76,10.917c0.769,5.975,6.732,14.157,10.792,18.153
			c7.964-3.056,14.382-5.617,17.646-7.625L70.868,36.299z"/>
		<path id="fillClothesUpperColorShade_11_" display="inline" fill="#BD413D" d="M106.365,47.699c0.52,3.118,1.027,5.593,1.376,6.89
			c0.303,1.13,0.87,3.177,1.284,5.92c3.533-0.25,8.404-1.523,12.637-2.995C115.645,55.642,110.133,51.787,106.365,47.699z"/>
		<path id="fillClothesUpperColorShade_10_" display="inline" fill="#BD413D" d="M67.111,25.134
			C57.259,34.907,43.42,42.063,29.524,43.67c1.451,1.921,2.941,3.628,4.24,4.904c7.964-3.056,14.382-5.617,17.646-7.624l19.456-4.65
			L67.111,25.134z"/>
		<path id="fillClothesUpperColorBase_16_" display="inline" fill="#C74541" d="M115.645,136.945
			c1.198-89.985-5.324-118.8-4.979-124.661c0,0-4.425-1.649-12.302-6.386c-0.788,5.469-1.663,21.201-18.062,20.345
			c-13.639-0.712-12.423-9.921-15.47-20.121c-6.482,2.681-13.878,5.19-15.62,6.447c0,0,1.212,76.281-6.588,122.473
			c0,0,4.048,2.226,4.017,2.315C61.425,147.784,101.839,144.898,115.645,136.945z"/>
		<path id="fillClothesUpperColorShade_9_" display="inline" fill="#BD413D" d="M113.909,126.434
			c-14.283,3.571-28.565,3.571-41.062-1.785c-19.705-6.15-24.115-24.209-24.958-43.604c-0.966,18.672-2.582,38.123-5.265,53.998
			c0,0,4.048,2.226,4.017,2.315c14.784,10.427,55.202,7.55,69.001-0.407c0.053-3.898,0.088-7.625,0.112-11.291
			C115.139,125.917,114.527,126.188,113.909,126.434z"/>
	</g>
	<g id="mup2">
		<path id="fillClothesUpperColorBase_15_" fill="#D6453F" d="M124.316,35.951c-0.635-4.824-1.974-9.533-4.308-13.817
			c-1.854-3.399-5.778-9.598-10.147-9.781c-9.764-0.425-3.867,35.802-2.121,42.327c0.303,1.129,0.869,3.173,1.285,5.917
			c5.205-0.366,13.336-2.943,18.004-5.112C126.197,46.248,124.787,39.532,124.316,35.951z"/>
		<path id="fillClothesUpperColorSahde" fill="#C63F3A" d="M106.363,47.783c0.52,3.118,1.029,5.593,1.377,6.89
			c0.303,1.13,0.869,3.177,1.285,5.92c3.533-0.25,8.402-1.523,12.635-2.995C115.643,55.726,110.131,51.872,106.363,47.783z"/>
		<path id="fillClothesUpperColorBase_14_" fill="#D6453F" d="M70.867,36.383l-8.048-23.919l-13.489,0.1l-9.6,7.028
			c-0.235,0.185-8.492,6.866-16.76,10.918c0.769,5.975,6.732,14.157,10.792,18.152c7.964-3.056,14.382-5.617,17.646-7.624
			L70.867,36.383z"/>
		<path id="fillClothesUpperColorShade_8_" fill="#C63F3A" d="M67.109,25.218c-9.852,9.773-23.691,16.929-37.587,18.536
			c1.451,1.921,2.941,3.628,4.24,4.904c7.964-3.056,14.382-5.617,17.646-7.624l19.456-4.65L67.109,25.218z"/>
		<path id="fillClothesUpperColorBase_13_" fill="#D6453F" d="M115.643,137.03c1.199-89.988-5.072-118.52-4.723-124.374
			c0,0-4.684-1.938-12.559-6.674c-3.48,5.199-3.644,5.686-14.865,18.535c-8.945-8.293-12.235-9.988-18.704-18.704
			c-6.482,2.681-13.843,5.583-15.583,6.84c0,0,1.21,76.279-6.587,122.473c0,0,4.047,2.226,4.014,2.315
			C61.424,147.868,101.838,144.982,115.643,137.03z"/>
		<path id="fillClothesUpperColorShade_7_" fill="#C63F3A" d="M76.416,131.874c3.57,0,5.355,0,7.141-1.785
			C51.863,118.995,51.115,84.001,48.85,56.291c-0.666,24.895-2.312,55.656-6.228,78.835c0,0,4.048,2.226,4.017,2.315
			c14.784,10.427,55.202,7.55,69.003-0.407c0.018-1.302,0.026-2.529,0.041-3.798C102.588,135.641,89.385,135.766,76.416,131.874z"/>
	</g>
	<g id="mup3" display="none">
		<path id="fillClothesUpperColorBase_11_" display="inline" fill="#D6453F" d="M124.316,38.753
			c-0.635-4.824-1.974-9.533-4.308-13.817c-1.854-3.399-5.778-9.598-10.147-9.781c-9.764-0.425-3.867,35.802-2.121,42.327
			c0.303,1.129,0.869,3.173,1.285,5.917c5.205-0.366,13.336-2.943,18.004-5.112C126.197,49.05,124.787,42.334,124.316,38.753z"/>
		<path id="fillClothesUpperColorShade_6_" display="inline" fill="#C13D38" d="M104.418,27.352
			c-0.363,11.032,2.252,26.138,3.322,30.127c0.303,1.13,0.869,3.177,1.285,5.921c2.059-0.147,7.809-2.023,10.391-2.699
			C118.834,47.508,115.652,34.398,104.418,27.352z"/>
		<path id="fillClothesUpperColorBase_10_" display="inline" fill="#D6453F" d="M70.867,39.186l-8.048-23.919l-13.489,0.1
			l-9.6,7.028c-0.235,0.185-8.492,6.866-16.76,10.918c0.769,5.975,6.732,14.157,10.792,18.152
			c7.964-3.056,14.382-5.617,17.646-7.624L70.867,39.186z"/>
		<path id="fillClothesUpperColorShade_4_" display="inline" fill="#C13D38" d="M27.657,43.926c1.979,2.979,4.24,5.701,6.105,7.537
			c7.964-3.056,14.382-5.617,17.646-7.624l19.459-4.653l-5.03-14.949C55.175,35.655,43.019,45.647,27.657,43.926z"/>
		<path id="fillClothesUpperColorBase_9_" display="inline" fill="#D6453F" d="M115.643,139.833
			c1.199-89.986-5.072-118.519-4.723-124.372c0,0-4.684-1.937-12.559-6.674c-3.48,5.2-5.947,15.188-17.17,28.037
			c-8.946-8.296-9.932-19.49-16.399-28.206c-6.482,2.681-13.843,5.583-15.583,6.84c0,0,1.21,76.278-6.587,122.471
			c0,0,4.047,2.226,4.014,2.316C61.424,150.671,101.838,147.786,115.643,139.833z"/>
		<path id="fillClothesUpperColorShade_5_" display="inline" fill="#C13D38" d="M95.314,141.484
			c1.785-1.784,3.569-3.569,5.354-5.354c-27.003,11.047-48.099-4.065-54.587-26.192c-0.891,9.91-2.02,19.465-3.46,27.992
			c0,0,4.047,2.225,4.014,2.315c14.788,10.426,55.202,7.545,69.006-0.408c0.01-0.821,0.018-1.604,0.026-2.42
			C109.035,139.938,102.176,141.484,95.314,141.484z"/>
		<path id="fillClothesUpperColorShade_3_" display="inline" fill="#C13D38" d="M81.402,49.86l3.771-11.72l-3.848-1.033
			l-3.65-11.345l-0.243,0.063L71.034,7.04l0.162-3.852l-6.648,5.06c-0.043,8.575-1.152,27.634-1.152,27.634l13.086-4.164l3.01,7.036
			l4.285-0.083L81.402,49.86z M81.242,37.157l4.76-11.396l0.24,0.063l6.396-18.788l1.016-3.679l5.465,4.882
			c0.039,8.574,1.152,27.633,1.152,27.633l-13.08-4.163L81.242,37.157z"/>
		<path id="fillClothesUpperColorBase_12_" display="inline" fill="#D6453F" d="M70.891,5.439l6.785,20.322l-12.758,6.137
			c0,0,2.252-14.307-0.275-23.286l6.611-5.6L70.891,5.439z M93.189,5.34l-7.181,20.419l12.757,6.138c0,0-2.254-14.308,0.272-23.286
			L93.82,3.283L93.189,5.34z"/>
	</g>
	<g id="mup4" display="none">
		<path id="fillClothesUpperColorBase_8_" display="inline" fill="#D6453F" d="M131.271,38.757
			c-0.635-4.824-1.973-9.533-4.308-13.817c-1.854-3.399-5.778-9.598-10.147-9.781c-9.765-0.425-3.866,35.802-2.121,42.327
			c0.303,1.129,1.291,39.188,1.703,41.934c5.207-0.371,13.34-2.947,18.008-5.109C133.574,85.066,131.742,42.338,131.271,38.757z"/>
		<path id="fillClothesUpperColorBase_7_" display="inline" fill="#D6453F" d="M77.82,39.189L69.773,15.27l-13.489,0.1l-9.6,7.028
			c-0.235,0.185-19.766,10.937-28.031,14.988c0.769,5.982,0.849,12.523,4.909,16.515c7.965-3.057,31.536-8.043,34.8-10.048
			L77.82,39.189z"/>
		<path id="fillClothesUpperColorShade_2_" display="inline" fill="#C13D38" d="M133.166,73.882
			c-11.385,1.234-15.336-35.624-12.428-54.373c-0.514,0.303-1.057,0.607-1.661,0.91c0.604-0.303,1.147-0.606,1.661-0.91
			c0.044-0.292,0.076-0.586,0.123-0.875c-0.047,0.29-0.079,0.584-0.123,0.875c0.617-0.366,1.188-0.732,1.693-1.097
			c-1.67-1.789-3.594-3.164-5.615-3.253c-9.766-0.425-3.867,35.802-2.121,42.327c0.304,1.129,1.293,39.188,1.705,41.934
			c5.205-0.371,13.341-2.947,18.006-5.109C134.059,90.451,133.691,84.123,133.166,73.882z M71.792,21.267
			C57.95,34.757,39.019,44.999,19.739,45.631c0.606,3.168,1.625,6.09,3.825,8.257c7.964-3.056,31.536-8.042,34.8-10.047l19.457-4.65
			L71.792,21.267z"/>
		<path id="fillClothesUpperColorTint_1_" display="inline" fill="#D6453F" d="M115.532,78.662c0.37,9.73,0.745,19.422,0.97,20.758
			c5.822-0.371,14.914-2.947,20.135-5.109c-0.328-3.252-0.793-10.67-1.283-19.058C128.939,77.512,122.15,78.881,115.532,78.662z
			 M27.55,30.404c-3.877,2.04-11.552,3.681-14.187,4.959c0.888,6.871,3.585,16.927,8.276,21.523
			c3.162-1.214,8.472-3.891,14.214-5.392C30.824,46.873,27.533,35.054,27.55,30.404z"/>
		<path id="fillClothesUpperColorBase_6_" display="inline" fill="#D6453F" d="M122.598,139.836
			c1.198-89.985-5.072-118.519-4.724-124.372c0,0-4.685-1.937-12.56-6.674c-2.746,4.103-14.949,13.688-14.949,13.688
			s-1.232,0.815-2.805,5.526c-0.941-4.5-0.754-5.003-0.754-5.003s-10.377-8.07-15.061-14.38c-6.482,2.681-13.844,5.583-15.583,6.84
			c0,0,1.21,76.277-6.587,122.471c0,0,4.047,2.226,4.014,2.316C68.378,150.674,108.792,147.789,122.598,139.836z"/>
		<path display="inline" fill="#C13D38" d="M90.68,146.824h0.723L91.941,29.63l-3.848-1.032l-0.34-5.701l-0.417-1.569L78.001,7.042
			l0.16-3.856l-6.648,5.06c-0.043,8.575-1.152,27.634-1.152,27.634l15.725-12.241l0.186,6.62l4.834,0.279L90.68,146.824z
			 M88.01,28.659l1.936-7.229l0.209-0.633l9.438-13.754l1.017-3.682l5.465,4.882c0.039,8.574,1.152,27.633,1.152,27.633
			L90.465,23.21L88.01,28.659z"/>
		<path id="fillClothesUpperColorTint" display="inline" fill="#D6453F" d="M78.641,5.413l8.48,15.594l-15.252,10.89
			c0,0,2.252-14.307-0.275-23.286l6.611-5.6L78.641,5.413z M100.145,5.344L89.736,21.328l15.972,10.569
			c0,0-2.249-14.307,0.278-23.286l-5.219-5.328L100.145,5.344z"/>
	</g>
</g>
<g id="Shoes" display="none">
	<g id="fsh1" display="inline">
		<path fill="#915944" d="M37.37,94.391c5.184-4.423,17.808-18.535,17.808-18.535c0.865-0.763,1.721-1.496,2.575-2.224
			c19.829,3.836,43.435-14.431,56.204-30.312c0.463-0.07,0.708-0.095,0.708-0.095c6.007,8.954-0.532,53.552-0.532,53.552
			l-8.923,0.057l-3.04-16.697c-15.5,21.7-47.001,26.664-60.181,26.639C28.82,106.744,32.203,98.805,37.37,94.391z"/>
	</g>
	<g id="fsh2" display="inline">
		<g>
			<path fill="#535763" d="M29.622,73.078c4.688-3.625,10.724-4.043,16.202-5.745c3.941-1.237,7.871-2.483,11.803-3.766
				l11.059-1.205c16.5,7.771,35.218,9.757,52.311,0.91l3.137,0.169c2.386,10.512,1.052,21.015,1.052,21.015
				c-15.793-1.354-36.558,1.167-61.229,3.688c-24.685,2.521-36.215-1.933-36.215-1.933C20.283,83.313,25.398,76.35,29.622,73.078z"
				/>
			<path id="fillShoesColorTint" fill="#7C7B83" d="M27.063,75.475c0.813-0.923,1.716-1.744,2.575-2.412
				c4.681-3.627,10.716-4.043,16.191-5.747c3.625-1.117,7.235-2.27,10.844-3.442c3.482,5.226,1.068,9.148-3.664,11.616
				C45.396,79.46,31.777,79.665,27.063,75.475z"/>
			<path fill="#AAA6BA" d="M126.057,80.939c-0.449,2.16-0.299,3.625-0.299,3.625c-15.791-1.354-37.113,1.041-61.776,3.562
				c-24.69,2.522-36.218-1.931-36.218-1.931c-2.07-0.795-3.152-1.918-3.575-3.176C69.139,89.533,90.082,79.002,126.057,80.939z"/>
		</g>
	</g>
	<g id="fsh3" display="inline">
		<g>
			<path id="fillShoeColorBase_4_" fill="#78655F" d="M12.693,122.777l119.545-12.537l-3.727-30.502l0.59-34.212
				c2.553-2.131,5.897-3.75,8.34-5.596c2.969-2.228,7.516-5.542,6.752-9.824c-0.625-3.373-5.068-7.292-8.613-5.864
				c-3.254,1.316-5.832,4.141-7.813,7.229c-8.789-0.749-51.99-4.438-51.99-4.427c-0.612,11.831,2.943,25.236-2.125,36.405
				c-0.364,0.802-0.754,1.561-1.185,2.292c-7.241,12.315-16.07,21.252-27.764,27.903c-7.922,4.5-23.052,1.828-33.904,12.907
				C10.799,106.553-0.973,121.614,12.693,122.777z M129.172,40.823l0.074-4.075c1.688-3.213,4.018-6.581,6.977-8.473
				c1.422-0.902,5.592-2.075,4.92,1.2c-0.297,1.453-1.063,2.664-2.084,3.718c-2.619,2.773-5.804,4.885-8.934,7.014
				C129.826,40.409,129.495,40.612,129.172,40.823z"/>
			<path id="fillShoeColorTint_4_" fill="#EEDCB4" d="M37.689,120.15l-31.761-2.606l-0.207,10.103l27.715,2.783
				c34.897-2.262,45.69-9.379,60.783-12.41c0.104,2.008,0.137,3.025,0.188,4.034c0.041,0.999,0.1,2.009,0.183,4.033
				c-0.091-2.024-0.142-3.034-0.183-4.033c0.074,1.591,0.133,3.222-0.055,4.845l41.912-2.039l-1.371-15.42L37.689,120.15z"/>
			<path id="fillShoeColorShade_2_" fill="#715B4A" d="M61.263,75.402c0.713,2.224,2.848,4.116,4.646,5.478
				c0.522,0.369,1.161,0.845,1.832,1.283c0.428,0.458,0.987,0.86,1.584,0.922c0.074,0.009,0.091-0.03,0.149-0.037
				c0.774,0.306,1.562,0.495,2.305,0.306c1.057-0.285-0.153-1.925-0.494-2.262c-2.267-2.27-4.56-4.515-7.088-6.469
				c-0.281-0.236-1.065-0.678-1.521-0.521c-0.385,0-0.754,0.079-1.103,0.236C61.101,74.505,61.139,74.985,61.263,75.402z
				 M57.022,79.318c0.182,0.057,0.331,0.14,0.497,0.223c0.004-0.159,0.024-0.309,0.149-0.425c0.572-0.563,1.712,0.373,2.102,0.759
				c2.181,2.218,5.123,4.839,5.256,8.188c0.033,0.433-0.232,0.742-0.696,0.686c-3.884-0.484-7.06-5.059-8.29-8.471
				C55.75,79.469,56.271,79.096,57.022,79.318z M66.594,69.056c0.078-0.021,0.19,0,0.277,0c0.249-0.358,0.896-0.228,1.298,0.006
				c1.649,0.216,3.034,1.059,4.273,2.334c0.224,0.222,0.431,0.537,0.633,0.804c0.481,0.342,0.979,0.663,1.443,1.023
				c0.456,0.354,1.231,0.937,1.977,1.656c0.054,0.006,0.095,0,0.157,0.022c0.65,0.241,1.145,0.75,1.551,1.333
				c0.049,0.062,0.129,0.148,0.311,0.369c0.262,0.344,0.398,0.705,0.564,1.09c0.203,0.527,0.023,1.121-0.623,1.049
				c-0.012,0-0.057-0.022-0.096-0.022c-0.041,0.095-0.017,0.163-0.074,0.253c-2.387,4.198-11.104-6.788-12.011-8.89
				C66.142,69.792,66.112,69.114,66.594,69.056z M70.668,63.852c0.07,0.234,0.187,0.498,0.439,0.833
				c2.354,3.213,8.136,5.337,12.016,5.312c1.41-0.014,0.281-1.789-0.189-2.261c-3.316-3.293-7.689-5.073-12.286-5.666
				C69.689,61.949,69.992,62.929,70.668,63.852z M75.484,58.075c0.112-0.017,0.257,0.046,0.366,0.04
				c0.189,0.135,0.353,0.29,0.555,0.41c0.88,0.568,1.767,1.072,2.712,1.52c1.819,0.868,3.723,1.341,5.739,1.316
				c1.805-0.017-0.336-2.568-0.989-2.891c-2.951-1.443-5.729-3.271-8.979-3.515c-0.41-0.268-0.879-0.489-1.488-0.589
				c-0.666-0.12-0.725,0.446-0.604,0.943C72.679,56.135,74.394,58.21,75.484,58.075z M73.448,48.966
				c0.456,0.827,1.24,1.505,2.185,1.716c0.34,0.096,0.688,0.16,1.041,0.245c0.7,0.554,1.541,0.987,2.057,1.167
				c1.604,0.56,3.447,1.14,5.177,1.15c1.837,0.008-0.406-2.583-0.99-2.914c-2.812-1.561-5.924-2.083-9.036-2.792
				C72.935,47.314,73.204,48.556,73.448,48.966z M76.01,45.53c2.818,0.782,5.732,1.026,8.598,1.656
				c0.929,0.145,0.681-0.979,0.432-1.453c-0.452-0.825-1.26-1.511-2.186-1.716c-0.812-0.158-1.615-0.332-2.396-0.583
				c-0.397-0.112-0.608-0.07-0.759,0.023c-1.596-0.228-3.172-0.481-4.726-0.922C72.807,41.921,74.816,45.19,76.01,45.53z
				 M75.476,38.143c0.12,0.031,0.24,0.038,0.356,0.071l0.004,0.014c0.93,0.135,1.85,0.381,2.773,0.554c0,0.008,0,0.014,0.008,0.014
				c1.23,0.394,2.412,0.694,3.693,0.709c1.528,0.025,0.231-1.722-0.888-2.646c-0.556-0.659-1.256-1.233-1.675-1.258
				c-1.704-0.125-3.391-0.282-5.078-0.558c-0.17-0.017-0.27,0.04-0.369,0.087c-0.066-0.017-0.141-0.042-0.215-0.042
				C72.359,34.829,74.567,37.915,75.476,38.143z"/>
			<polygon fill="#808890" points="70.904,35.144 132.049,35.144 133.445,19.571 70.664,20.104 			"/>
		</g>
	</g>
	<g id="msh1" display="inline">
		<path id="fillShoeColorBase_1_" fill="#4F4E55" d="M106.105,65.128c9.078,2.475,25.49-1.221,25.49-1.221v25.916L24.682,91.945
			c-11.764-1.488-2.77-13.004-2.77-13.004s58.941-25.979,58.941-26.98C80.854,51.961,97.027,62.643,106.105,65.128z"/>
		<polyline id="fillShoeColorTint" fill="#8C898D" points="13.576,89.523 15.67,98.039 135.025,97.699 136.424,87.816 
			14.974,89.859 		"/>
	</g>
	<g id="msh2" display="inline">
		<g>
			<path id="fillShoesColorBase_4_" fill="#274655" d="M90.037,52.921c0,0,21.676,13.318,31.543,16.365
				c9.865,3.046,20.84-4.208,20.84-4.208v34.186L13.825,99.913c-15.913-1.962,2.765-13.14,2.765-13.14s57.137-36.108,57.137-37.43
				L90.037,52.921z"/>
			<path fill="#E4E4E4" d="M37.771,71.439c0,0-31.73,12.807-31.73,19.584c12.394,0,34.011,0.303,50.011,0.303
				C55.737,80.123,37.771,71.439,37.771,71.439z"/>
			<path fill="#B9BBBD" d="M54.066,70.067c2.139,0,3.905,1.488,3.905,3.316c0,1.824-1.767,3.29-3.905,3.29
				c-2.147,0-3.888-1.466-3.888-3.29C50.179,71.555,51.924,70.067,54.066,70.067z M58.995,68.084c0,1.815,1.716,3.295,3.872,3.295
				c2.146,0,3.892-1.48,3.892-3.295c0-1.818-1.729-3.308-3.892-3.308C60.74,64.776,58.995,66.266,58.995,68.084z M67.957,61.702
				c0,1.82,1.737,3.3,3.896,3.3c2.145,0,3.889-1.48,3.889-3.3c0-1.828-1.745-3.301-3.889-3.301
				C69.698,58.401,67.957,59.875,67.957,61.702z"/>
			<path fill="#DADCDD" d="M53.034,73.736c-3.672-3.739-7.867-5.331-7.913-5.354c-0.721-0.27-1.103-1.084-0.829-1.803
				c0.273-0.731,1.082-1.101,1.808-0.831c0.194,0.07,4.809,1.812,8.945,6.017c0.539,0.553,0.535,1.442-0.021,1.992
				c-0.273,0.27-0.63,0.402-0.982,0.402C53.673,74.159,53.312,74.018,53.034,73.736z M62.867,68.857c0.356,0,0.713-0.135,0.99-0.408
				c0.547-0.549,0.556-1.437,0.013-1.992c-4.146-4.183-8.759-5.913-8.954-5.986c-0.708-0.263-1.529,0.102-1.803,0.831
				c-0.27,0.726,0.104,1.534,0.825,1.813c0.045,0.013,4.244,1.598,7.93,5.322C62.142,68.718,62.506,68.857,62.867,68.857z
				 M71.841,62.494c0.353,0,0.709-0.135,0.991-0.408c0.546-0.543,0.552-1.437,0.008-1.99c-4.149-4.206-8.771-5.944-8.962-6.017
				c-0.729-0.269-1.537,0.102-1.807,0.832c-0.274,0.721,0.104,1.534,0.824,1.807c0.046,0.019,4.245,1.61,7.946,5.357
				C71.115,62.355,71.477,62.494,71.841,62.494z"/>
			<rect x="4.403" y="89.475" fill="#D7D8D9" width="141.195" height="11.181"/>
		</g>
	</g>
	<g id="fsh5_x5F_bl" display="inline">
		<path id="fillShoesColorBase_6_" fill="#DDE7F0" d="M84.299,42.971L57.25,62.79c-5.298,1.703-13.347,6-18.673,7.674
			c-7.394,2.298-15.552,2.861-21.873,7.756c-5.706,4.406-12.623,13.832-2.529,17.728c0,0,16.983,8.345,50.317,4.935
			c33.336-3.407,59.97-9.12,81.3-7.313c0,0,0.776-21.554-2.427-35.783c0,0-9.918,9.141-26.286,3.422
			C100.695,55.542,84.299,42.971,84.299,42.971z"/>
		<g>
			<path fill="#B9C2CA" d="M73.359,50.506c2.805,1.487,5.511,3.38,7.071,6.211c1.635,2.98,6.334,0.625,4.7-2.329
				c-2.014-3.652-5.272-6.381-8.937-8.268C73.222,44.546,70.36,48.957,73.359,50.506z"/>
			<path fill="#B9C2CA" d="M66.883,53.958c3.015,1.754,5.447,4.021,6.685,7.334c1.203,3.17,5.884,0.78,4.702-2.35
				c-1.539-4.098-4.822-7.242-8.557-9.417C66.798,47.828,63.946,52.25,66.883,53.958z"/>
			<path fill="#B9C2CA" d="M66.703,65.489c1.599,3.004,6.303,0.635,4.709-2.345c-1.804-3.39-4.334-6.006-7.412-8.278
				c-2.721-2.011-5.547,2.421-2.837,4.4C63.474,60.99,65.36,62.949,66.703,65.489z"/>
			<path fill="#B9C2CA" d="M58.338,71.592c1.162,3.196,5.839,0.796,4.696-2.349c-1.373-3.745-3.86-6.668-7.032-9.039
				c-2.711-2.036-5.532,2.411-2.827,4.422C55.611,66.453,57.292,68.73,58.338,71.592z"/>
			<path fill="#B9C2CA" d="M146.197,88.878C97.604,86.241,69.314,100.48,8.582,91.661c0.574,1.705-0.592,4.715,2.185,5.803
				c0,0,19.625,6.831,52.96,3.427c40.937-4.211,68.563-8.27,82.066-7.119C145.793,93.771,145.589,91.802,146.197,88.878z"/>
		</g>
	</g>
	<g id="msh4" display="inline">
		<g>
			<path fill="#C4C2C5" d="M7.276,84.611c4.971,3.354,9.714,7.223,15.194,9.523c2.727,1.147,5.511,2.229,8.415,3.102
				c2.904,0.826,5.688,1.535,9.187,1.642l34.99,0.356l34.999,0.101c5.848-0.063,11.637,0.085,17.662-0.424
				c2.99-0.261,5.979-0.646,8.95-1.306c3.052-0.723,5.789-1.342,9.045-3.22l-2.597-3.854c-1.832,1.03-4.807,1.918-7.438,2.444
				c-2.725,0.576-5.523,0.924-8.34,1.137c-5.6,0.418-11.49,0.252-17.305,0.347H75.087l-34.953-0.246
				c-4.871-0.149-10.847-2.003-16.088-3.952c-5.312-2.141-10.603-4.529-15.757-7.064L7.276,84.611z"/>
			<path id="fillShoesColorBase_10_" fill="#53535D" d="M13.74,75.119c18.127-1.02,29.28,0.98,68.519-27.921
				c0.019-0.017,0.042-0.075,0.046-0.075c0.23-0.131,0.42-0.28,0.643-0.424c0.078-0.07,0.14-0.107,0.227-0.168c0,0,0.018,0,0.029,0
				c7.089-4.512,10.658-11.742,13.861-10.268c4.326,2.013-1.293,11.024-0.238,18.098c6.064,7.394,12.654,10.325,17.675,10.494
				c10.625-0.284,15.203-5.528,20.429-7.933c1.688-2.939,8.579-9.341,10.654-8.67c3.066,0.996-0.59,4.158-1.359,12.071
				c1.055,9.207-1.675,29.103-1.675,29.103L39.76,95.309l-23.271-9.435c-4.063-1.683-6.227-3.253-6.801-5.328
				C8.857,77.572,10.475,75.309,13.74,75.119z"/>
			<path id="fillShoesColorShade_2_" fill="#4A4B54" d="M144.191,73.191c-0.537,8.218-1.64,16.252-1.64,16.252L39.764,95.326
				l-23.955-8.383c-4.063-1.68-6.227-3.254-6.799-5.327c-0.835-2.99,1.465-6.308,4.73-6.497c2.242-0.12,4.385-0.182,6.462-0.264
				c0.481,7.098,15.589,11.874,60.653,7.961C114.293,79.911,133.825,85.404,144.191,73.191z"/>
			<path fill="#B7B7BA" d="M86.372,53.047c1.544,0,2.787,1.252,2.787,2.788c0,1.539-1.243,2.791-2.787,2.791
				c-1.54,0-2.791-1.252-2.791-2.791C83.581,54.299,84.832,53.047,86.372,53.047z M76.079,61.014c0,1.531,1.257,2.783,2.792,2.783
				c1.539,0,2.791-1.252,2.791-2.783c0-1.548-1.252-2.792-2.791-2.792C77.336,58.223,76.079,59.466,76.079,61.014z M69.496,64.164
				c0,1.54,1.248,2.795,2.792,2.795c1.535,0,2.788-1.256,2.788-2.795c0-1.543-1.252-2.787-2.788-2.787
				C70.744,61.377,69.496,62.62,69.496,64.164z M62,69.331c0,1.54,1.243,2.792,2.792,2.792c1.531,0,2.791-1.252,2.791-2.792
				c0-1.536-1.26-2.783-2.791-2.783C63.243,66.548,62,67.795,62,69.331z"/>
			<path fill="#E3E1E1" d="M7.968,83.811c0,0,17.909,12.824,31.882,12.734c5.714-0.031,51.743,0.591,80.726,0.287
				c17.678-0.186,23.838-4.355,23.838-4.355l-0.768-6.98l-23.26,1.547l-37.89,0.466c-10.391,0.711-22.615,1.823-32.973,2.877
				c-9.428,0.958-16.023,2.322-25.149-1.141c-3.246-1.229-12.843-4.481-15.371-7.509L7.968,83.811z"/>
			<path fill="#ECECED" d="M61.925,60.874c1.004,0.049,1.803,0.148,2.717,0.313c0.881,0.165,1.73,0.412,2.512,0.733
				c1.569,0.643,2.796,1.655,3.294,2.902c0.371,0.951,1.445,1.408,2.38,1.03c0.938-0.375,1.403-1.446,1.021-2.375
				c-0.013-0.062-0.05-0.116-0.074-0.173l-0.042-0.083c-1.193-2.313-3.441-3.647-5.512-4.298c-1.05-0.33-2.109-0.536-3.154-0.643
				c-1.009-0.107-2.161-0.144-3.092-0.099h-0.053c-0.741,0.033-1.322,0.663-1.289,1.404C60.665,60.294,61.238,60.85,61.925,60.874z
				 M61.172,58.066c-0.325,0.848-0.671,2.014-0.803,3.059c-0.157,1.083-0.141,2.235,0.074,3.359c0.44,2.265,1.602,4.163,2.792,5.817
				c0.589,0.807,1.737,1.001,2.552,0.42c0.819-0.605,1.009-1.745,0.411-2.556c-0.024-0.054-0.062-0.087-0.095-0.12
				c-1.156-1.359-2.145-2.759-2.556-4.261c-0.222-0.762-0.296-1.536-0.251-2.351c0.053-0.864,0.177-1.581,0.457-2.549
				c0.206-0.72-0.206-1.478-0.926-1.667c-0.68-0.198-1.379,0.164-1.63,0.794L61.172,58.066z"/>
			<path fill="#ECECED" d="M74.63,49.075c0.115-0.008,0.198,0.091,0.3,0.099c0.194-0.49,0.582-0.889,1.132-0.906h0.086
				c0.457-0.008,1.133,0.025,1.771,0.148c0.598,0.099,1.169,0.26,1.717,0.449c1.111,0.391,2.133,0.909,3.104,1.494
				c1.919,1.186,3.614,2.635,5.131,4.299c0.032,0.033,0.062,0.083,0.089,0.115c0.627,0.79,0.479,1.943-0.32,2.561
				c-0.791,0.613-1.951,0.469-2.567-0.313c-1.165-1.507-2.562-2.895-4.093-3.998c-0.771-0.556-1.573-1.042-2.396-1.404
				c-0.411-0.19-0.831-0.33-1.25-0.445c-0.338-0.09-0.688-0.148-1.178-0.189c0.341,3.615,1.238,7.123,3.812,8.489
				c0.056,0.033,0.115,0.07,0.165,0.099c0.84,0.568,1.066,1.697,0.502,2.544c-0.568,0.832-1.703,1.062-2.549,0.502l-0.109-0.079
				c-2.052-1.379-3.376-3.664-3.919-5.796c-0.581-2.162-0.659-4.287-0.675-6.283v-0.042C73.371,49.726,73.914,49.124,74.63,49.075z"
				/>
		</g>
	</g>
</g>
<g id="Guitar_x2F_Bass" display="none">
	<g id="ueg1">
		<g display="inline">
			<path fill="#908678" d="M21.97,110.34c0,0,1.775-0.205,2.454,0.667l-2.07,6.562c0,0-1.895,0.666-2.419-0.912L21.97,110.34z"/>
			<path fill="#908678" d="M21.97,110.34c0,0,1.775-0.205,2.454,0.667l-2.07,6.562c0,0-1.895,0.666-2.419-0.912L21.97,110.34z"/>
			<path id="fillGuitarColorBase" fill="#A39161" d="M6.146,103.988c0,0,6.854,20.619,21.563,16.73c0,0,6.428-1.529,13.016-10.383
				c0,0,3.387-6.984,11.554-6.229c0,0,16.465-0.639,14.13-8.233c0,0,0.013-1.825-3.43-1.097c-3.439,0.727-8.616,0.699-9.109-7.449
				l4.515-11.266c0,0-4.145,1.323-5.092-3.829c-0.945-5.156,4.094-7.586,6.367-9.039c2.273-1.451,1.864-2.665,0.295-3.345
				c-1.568-0.684-7.331-4.767-21.286,9.389c0,0-2.399,4.861-15.771,4.929c0,0-7.932-0.862-13.622,2.282
				C3.583,79.604,0.016,88.343,6.146,103.988z"/>
			<path fill="#F1F3F5" d="M26.247,101.666c0,0,2.707,4.398,1.809,8.354c-0.898,3.961-1.96,6.615-0.102,7.903
				c1.86,1.279,6.396-3.521,6.396-3.521s5.139-5.555,6.421-7.318c1.28-1.764,5.539-4.883,10.886-4.566
				c5.346,0.314,11.576-1.377,12.553-4.847c0,0,0-0.524-2.269,0.315c-2.266,0.841-10.862,1.291-10.831-9.269
				c-0.036-0.075-0.094-0.101-0.094-0.101l-0.458-9.44c0,0,0.009-3.313-0.947-3.545c0,0-0.23-1.028-3.501,1.872
				c0,0-5,3.361-7.406,3.797c-2.405,0.43-9.726,0.865-9.726,0.865s-7.316,0.861-8.461,5.736c0,0-0.325,1.473,0.588,3.377"/>
			<path fill="#B59F7E" d="M47.121,81.093c0.068,0.646,0.242,1.357,0.452,2.021c0.21,0.671,0.474,1.328,0.775,1.971
				c0.604,1.28,1.364,2.492,2.242,3.609l-0.608-0.146l38.401-17.989l19.199-8.997l9.6-4.503c0.816-0.357,1.555-0.776,2.455-1.112
				c0.877-0.313,1.809-0.509,2.771-0.496c0.959,0.015,1.964,0.285,2.775,0.875c0.355,0.256,0.709,0.503,1.069,0.735
				c0.181,0.111,0.356,0.227,0.531,0.313c0.084,0.043,0.171,0.083,0.224,0.101c0.016,0.012,0.059-0.007-0.07,0.008
				c-0.058-0.015-0.311,0.126-0.34,0.318c-0.029,0.161-0.011,0.18,0.021,0.251l-0.144-0.423l0.332-0.208l0.006-0.004
				c3.449-2.185,6.92-4.362,10.315-6.606c0.206-0.141,0.427-0.287,0.603-0.421l0.105-0.077c0.021-0.014,0.036-0.033,0.154-0.086
				c0.199-0.083,0.313-0.068,0.439-0.064c0.236,0.026,0.389,0.1,0.527,0.163c0.523,0.268,0.91,0.534,1.348,0.734
				c0.848,0.417,1.756,0.547,2.651,0.329c0.869-0.233,1.837-0.667,2.562-1.213c0.732-0.563,1.235-1.335,1.361-2.227l0.521,0.077
				c0.049,1.052-0.523,2.128-1.354,2.839c-0.861,0.69-1.781,1.176-2.872,1.467c-1.09,0.284-2.312,0.111-3.296-0.374
				c-0.488-0.227-0.962-0.537-1.347-0.725c-0.091-0.043-0.185-0.07-0.193-0.068c0.007-0.002-0.021,0.012,0.063-0.019
				c0.055-0.035,0.021-0.021-0.012,0.006l-0.017,0.013c0.082-0.062,0.009-0.004,0.021-0.012l-0.049,0.04
				c-0.23,0.177-0.438,0.314-0.65,0.462c-1.703,1.154-3.42,2.263-5.139,3.377c-1.713,1.119-3.475,2.158-5.213,3.235l-0.011,0.004
				l0.188-0.631c0.047,0.125,0.078,0.197,0.037,0.414c-0.043,0.248-0.354,0.424-0.459,0.417c-0.238,0.027-0.309-0.021-0.398-0.037
				c-0.157-0.052-0.271-0.105-0.383-0.163c-0.229-0.114-0.42-0.233-0.614-0.357c-0.386-0.244-0.757-0.507-1.114-0.766
				c-0.627-0.451-1.404-0.672-2.201-0.688c-0.808-0.012-1.629,0.16-2.414,0.44c-0.759,0.276-1.572,0.722-2.369,1.073l-9.598,4.499
				l-19.199,8.997l-38.4,17.99l-0.362,0.171l-0.248-0.313c-0.918-1.174-1.723-2.449-2.362-3.799
				c-0.316-0.684-0.598-1.379-0.824-2.097c-0.225-0.729-0.407-1.442-0.494-2.243L47.121,81.093z"/>
			<path fill="#DABF96" d="M46.62,81.132c0,0,0.263,3.651,3.575,7.87l68.728-32.197c0,0,3.483-1.863,5.978-0.062
				c2.496,1.801,2.178,1.105,2.178,1.105s10.313-6.499,11.018-7.099c0.701-0.6,2.367,2.137,5.596,0.946
				c1.797-0.659,3.399-1.697,3.692-3.671c0.735-4.928-4.132-4.559-7.499-4.09c-7.091,0.985-21.957,2.993-21.957,2.993l-0.675,2.82
				c0,0-0.532,0.661-2.735,1.662C111.861,52.61,111.902,52.585,46.62,81.132z"/>
			<path fill="#AAABAD" d="M121.695,47.008c0.681,0,1.23,0.551,1.23,1.231c0,0.68-0.551,1.23-1.23,1.23s-1.23-0.55-1.23-1.23
				C120.465,47.559,121.016,47.008,121.695,47.008z M125.868,46.434c0.679,0,1.229,0.552,1.229,1.231
				c0,0.681-0.552,1.231-1.229,1.231c-0.681,0-1.231-0.55-1.231-1.231C124.637,46.986,125.188,46.434,125.868,46.434z
				 M129.82,45.927c0.681,0,1.23,0.553,1.23,1.232c0,0.68-0.551,1.232-1.23,1.232s-1.23-0.552-1.23-1.232
				C128.59,46.479,129.141,45.927,129.82,45.927z M133.995,45.351c0.683,0,1.233,0.551,1.233,1.232s-0.551,1.233-1.233,1.233
				c-0.681,0-1.231-0.55-1.231-1.233C132.764,45.902,133.314,45.351,133.995,45.351z M138.029,44.745
				c0.682,0,1.236,0.553,1.236,1.233c0,0.681-0.556,1.233-1.236,1.233c-0.68,0-1.23-0.552-1.23-1.233
				C136.799,45.298,137.35,44.745,138.029,44.745z M142.087,44.195c0.681,0,1.231,0.55,1.231,1.231c0,0.68-0.551,1.23-1.231,1.23
				c-0.68,0-1.229-0.55-1.229-1.23C140.855,44.745,141.406,44.195,142.087,44.195z"/>
			<path fill="#AAABAD" d="M121.357,43.438c0.789-0.114,1.502,0.309,1.595,0.946c0.094,0.637-0.47,1.247-1.259,1.361
				c-0.789,0.115-1.502-0.309-1.594-0.946C120.007,44.161,120.57,43.552,121.357,43.438z M121.46,45.258l0.332-0.047l0.179,1.213
				l-0.336,0.049L121.46,45.258z M125.408,42.843c0.789-0.113,1.503,0.31,1.595,0.947c0.093,0.638-0.476,1.247-1.262,1.361
				c-0.789,0.115-1.503-0.311-1.595-0.948C124.057,43.565,124.62,42.957,125.408,42.843z M125.518,44.71l0.338-0.049l0.18,1.215
				l-0.34,0.049L125.518,44.71z M131.063,43.204c0.095,0.638-0.473,1.247-1.26,1.365c-0.787,0.111-1.504-0.312-1.598-0.948
				c-0.092-0.637,0.473-1.247,1.262-1.364C130.256,42.144,130.971,42.566,131.063,43.204z M129.536,44.103l0.338-0.049l0.177,1.215
				l-0.338,0.049L129.536,44.103z M133.516,41.67c0.789-0.114,1.502,0.311,1.596,0.948c0.095,0.638-0.471,1.249-1.26,1.363
				c-0.789,0.115-1.504-0.31-1.599-0.948C132.161,42.396,132.727,41.785,133.516,41.67z M133.62,43.516l0.331-0.047l0.174,1.216
				l-0.332,0.047L133.62,43.516z M137.563,41.083c0.789-0.113,1.504,0.31,1.598,0.947c0.093,0.639-0.475,1.249-1.264,1.365
				c-0.789,0.114-1.506-0.311-1.599-0.948C136.206,41.808,136.771,41.198,137.563,41.083z M137.633,42.929l0.34-0.049l0.176,1.215
				l-0.338,0.049L137.633,42.929z M141.402,40.606c0.789-0.115,1.502,0.309,1.596,0.948c0.094,0.637-0.471,1.247-1.258,1.362
				c-0.788,0.115-1.502-0.31-1.596-0.947C140.053,41.33,140.616,40.72,141.402,40.606z M141.466,42.454l0.334-0.05l0.179,1.215
				l-0.334,0.05L141.466,42.454z"/>
			
				<line id="nut" fill="none" stroke="#FFFFFF" stroke-width="0.821" stroke-miterlimit="10" x1="116.121" y1="50.666" x2="118.912" y2="56.809"/>
			<path fill="none" stroke="#8D8F92" stroke-width="0.4106" stroke-miterlimit="10" d="M110.266,53.326l2.789,6.144
				 M104.814,55.709l2.896,6.488 M99.781,57.917l2.99,6.582 M95.223,59.833l2.903,6.779 M90.85,61.871l3.018,6.699 M86.689,63.683
				l3.088,6.979 M82.779,65.352l3.15,6.874 M79.115,66.857l3.384,7.12 M75.846,68.424l3.248,7.148 M72.685,69.767l3.211,7.305
				 M69.539,70.969l3.433,7.434 M55.203,77.46l3.473,7.647 M57.147,76.577l3.474,7.646 M59.309,75.593l3.476,7.647 M61.583,74.562
				l3.474,7.646 M64.075,73.429l3.477,7.647 M66.763,72.207l3.475,7.65 M49.675,79.838l3.494,7.693 M51.4,79.055l3.496,7.69
				 M53.128,78.27l3.543,7.801 M48.067,80.516l3.521,7.813"/>
			<path id="fretmarkers" fill="#777170" d="M103.797,59.726c0.243,0,0.441,0.199,0.441,0.44c0,0.244-0.198,0.44-0.441,0.44
				c-0.244,0-0.439-0.195-0.439-0.44C103.355,59.924,103.553,59.726,103.797,59.726z M94.518,63.875c0.244,0,0.442,0.199,0.442,0.44
				c0,0.244-0.198,0.44-0.442,0.44s-0.441-0.196-0.441-0.44C94.075,64.073,94.273,63.875,94.518,63.875z M86.336,67.565
				c0.243,0,0.441,0.199,0.441,0.442c0,0.244-0.198,0.442-0.441,0.442c-0.244,0-0.441-0.198-0.441-0.442
				C85.895,67.764,86.092,67.565,86.336,67.565z M79.158,70.747c0.244,0,0.441,0.199,0.441,0.442s-0.197,0.442-0.441,0.442
				c-0.243,0-0.442-0.199-0.442-0.442S78.915,70.747,79.158,70.747z M70.682,76.577c0.244,0,0.44,0.196,0.44,0.44
				c0,0.243-0.197,0.441-0.44,0.441c-0.245,0-0.44-0.198-0.44-0.441C70.241,76.773,70.438,76.577,70.682,76.577z M69.142,73.478
				c0.244,0,0.442,0.199,0.442,0.443s-0.199,0.442-0.442,0.442c-0.244,0-0.442-0.199-0.442-0.442
				C68.7,73.677,68.898,73.478,69.142,73.478z M62.197,78.506c0.244,0,0.44,0.198,0.44,0.441c0,0.242-0.197,0.441-0.44,0.441
				c-0.245,0-0.441-0.199-0.441-0.441C61.756,78.704,61.953,78.506,62.197,78.506z M57.882,80.439c0.243,0,0.441,0.197,0.441,0.441
				c0,0.243-0.199,0.442-0.441,0.442c-0.245,0-0.442-0.199-0.442-0.442C57.439,80.639,57.637,80.439,57.882,80.439z M53.84,82.273
				c0.246,0,0.443,0.199,0.443,0.443s-0.197,0.442-0.443,0.442c-0.244,0-0.442-0.198-0.442-0.442S53.596,82.273,53.84,82.273z
				 M50.495,83.796c0.244,0,0.44,0.197,0.44,0.44c0,0.242-0.196,0.441-0.44,0.441c-0.244,0-0.441-0.199-0.441-0.441
				C50.054,83.993,50.251,83.796,50.495,83.796z"/>
			<g>
				
					<ellipse transform="matrix(0.9105 -0.4136 0.4136 0.9105 -42.1151 22.6924)" fill="#CAC8BE" cx="31.358" cy="108.624" rx="2.024" ry="2.11"/>
				
					<ellipse transform="matrix(0.9103 -0.4139 0.4139 0.9103 -44.8968 22.6076)" fill="#CAC8BE" cx="29.718" cy="114.902" rx="2.023" ry="2.11"/>
				
					<ellipse transform="matrix(0.9106 -0.4133 0.4133 0.9106 -41.9979 22.6911)" fill="#FFFFFF" cx="31.445" cy="108.411" rx="2.025" ry="2.109"/>
				
					<ellipse transform="matrix(0.9104 -0.4137 0.4137 0.9104 -39.477 22.5351)" fill="#CAC8BE" cx="32.294" cy="102.419" rx="2.023" ry="2.11"/>
				
					<ellipse transform="matrix(0.9106 -0.4133 0.4133 0.9106 -39.3371 22.5191)" fill="#FFFFFF" cx="32.386" cy="102.191" rx="2.024" ry="2.11"/>
				
					<ellipse transform="matrix(0.9102 -0.4142 0.4142 0.9102 -44.8224 22.6515)" fill="#FFFFFF" cx="29.817" cy="114.675" rx="2.025" ry="2.11"/>
			</g>
			<path fill="none" stroke="#FFFFFF" stroke-width="0.2053" stroke-miterlimit="10" d="M37.761,100.879"/>
			<path fill="#CAC8BE" d="M17.205,93.428l4.822,9.776l0.234-0.104l0.745,1.224l3.15-1.285l-0.5-1.099c0,0,1.94-0.832,1.958-1.319
				c0.019-0.481-4.559-9.517-4.559-9.517s-0.333-0.418-0.92-0.146C21.548,91.229,17.205,93.428,17.205,93.428z M47.992,90.086
				c0.314,0.693,0.01,1.51-0.685,1.824l0,0c-0.693,0.314-1.51,0.009-1.825-0.686l-3.475-7.651c-0.313-0.692-0.008-1.511,0.688-1.824
				l0,0c0.693-0.313,1.507-0.008,1.823,0.688L47.992,90.086z M39.731,93.422c0.352,0.775,0.01,1.689-0.766,2.04l0,0
				c-0.776,0.353-1.69,0.011-2.042-0.771l-3.266-7.193c-0.352-0.775-0.01-1.688,0.767-2.038l0,0c0.776-0.356,1.689-0.01,2.039,0.771
				L39.731,93.422z M31.854,97.457c0.24,0.816-0.23,1.675-1.046,1.912l0,0c-0.817,0.238-1.673-0.23-1.912-1.046l-2.216-7.58
				c-0.24-0.816,0.229-1.673,1.045-1.912l0,0c0.818-0.231,1.673,0.231,1.913,1.049L31.854,97.457z M23.837,106.354
				c0,0-3.213-0.715-3.547,5.209c0,0-0.743,5.754,0.928,6.104C23.78,118.204,27.735,107.751,23.837,106.354z"/>
			<g id="trembar">
				
					<polyline fill="none" stroke="#E3E5E6" stroke-width="0.821" stroke-linecap="round" stroke-linejoin="round" stroke-miterlimit="10" points="
					22.68,103.409 35.246,106.803 37.707,106.813 				"/>
				<path fill="#FFFFFF" d="M42.636,106.809c-0.887,0.305-1.79,0.441-2.698,0.539c-0.454,0.043-0.909,0.069-1.367,0.063
					c-0.458-0.01-0.918-0.021-1.382-0.11c-0.231-0.043-0.385-0.268-0.342-0.493c0.03-0.146,0.136-0.272,0.268-0.313
					c0.442-0.171,0.894-0.271,1.341-0.357c0.45-0.09,0.902-0.145,1.357-0.184c0.91-0.063,1.824-0.095,2.75,0.047
					c0.231,0.036,0.39,0.25,0.357,0.483C42.896,106.631,42.781,106.757,42.636,106.809z"/>
			</g>
		</g>
	</g>
	<g id="ubg1" display="inline">
		<g>
			<g>
				<g>
					
						<line id="nut_2_" fill="none" stroke="#FFFFFF" stroke-width="0.7585" stroke-miterlimit="10" x1="117.238" y1="50.203" x2="119.33" y2="54.327"/>
					<path id="fillBassGuitarColorBase" fill="#35464F" d="M3.972,86.479c0,0,4.744-15.404,24.04-11.75c0,0,7.73,1.957,13.782-5.271
						c6.054-7.224,19.451-10.24,20.172-4.656c0,0,0.756,1.619-3.827,4.303c-4.584,2.672-7.985,5.971-3.012,7.773l3.085,6.994
						c0,0-8.749,3.37-6.364,7.905c0,0,1.863,3.799,7.867,1.087c0.292,0.044,6.652,0.213,0.137,7.024c0,0-6.906,5.201-16.696,5.371
						c-0.035-0.006-6.137-0.176-10.702,8.403c0,0-8.816,12.459-16.607,8.646C8.054,118.502-0.112,93.502,3.972,86.479z"/>
					<path fill="#EDE7E3" d="M60.499,95.402c-8.34,2.902-10.501-3.268-10.8-4.293c-0.299-1.031,1.563-12.034,1.563-12.034
						c0.836-2.634-0.021-3.312-0.021-3.312c-1.611-0.956-4.358,2.393-4.358,2.393c-4.135,3.638-12.422,3.375-14.502,3.537
						c-2.079,0.16-8.159,1.742-6.155,7.002c2.007,5.248,2.831,12.408,2.831,12.408c0.013,0.098,0.02,0.188,0.025,0.285
						c1.81,0.223,4.071-0.654,5.151,0.619c1.043,1.167,2.068,2.383,3.03,3.664c0.511-0.355,1.033-0.678,1.552-0.954
						c2.512-1.352,7.052-1.048,13.271-2.336c6.219-1.288,8.798-5.182,9.231-6.371C61.751,94.818,60.499,95.402,60.499,95.402z"/>
					<g>
						<path fill="#B6B7BA" d="M122.859,39.478c-0.285-0.577-0.918-0.928-1.58-0.816c-0.705,0.117-1.211,0.71-1.242,1.395
							c-0.612,0.218-1.045,0.68-0.924,1.27c0.121,0.568,0.617,0.996,1.246,1.227l-0.066,0.006c0,0,1.711,0.952,1.751,1.847
							l-0.097-0.767l0.373-0.08l0.066,0.39c0.059-0.522,0.711-1.5,0.95-1.84c0.571-0.425,0.909-1.018,0.772-1.65
							C123.986,39.872,123.458,39.507,122.859,39.478z"/>
						<path fill="#B6B7BA" d="M122.432,44.213l-0.045-0.265C122.373,44.06,122.379,44.157,122.432,44.213z"/>
						<path fill="#B6B7BA" d="M128.895,38.098c-0.285-0.577-0.916-0.929-1.58-0.818c-0.703,0.12-1.207,0.714-1.242,1.396
							c-0.609,0.219-1.047,0.681-0.92,1.273c0.117,0.566,0.613,0.994,1.244,1.225l-0.068,0.005c0,0,1.712,0.955,1.754,1.848
							l-0.061-0.279l0.375-0.08l0.029-0.098c0.057-0.524,0.717-1.506,0.952-1.845c0.569-0.426,0.904-1.014,0.767-1.647
							C130.021,38.491,129.493,38.127,128.895,38.098z"/>
						<path fill="#B6B7BA" d="M128.471,42.833l-0.047-0.265C128.411,42.679,128.417,42.775,128.471,42.833z"/>
						<path fill="#B6B7BA" d="M135.242,36.727c-0.284-0.574-0.915-0.926-1.576-0.818c-0.706,0.119-1.209,0.713-1.243,1.396
							c-0.616,0.217-1.051,0.681-0.927,1.273c0.119,0.568,0.617,0.995,1.25,1.227l-0.073,0.006c0,0,1.711,0.955,1.752,1.847
							l-0.099-0.39l0.378-0.082l0.067,0.016c0.059-0.523,0.711-1.502,0.947-1.843c0.571-0.426,0.907-1.017,0.772-1.65
							C136.368,37.123,135.84,36.76,135.242,36.727z"/>
						<path fill="#B6B7BA" d="M134.816,41.465l-0.045-0.265C134.759,41.311,134.764,41.408,134.816,41.465z"/>
						<path fill="#B6B7BA" d="M142.387,36.301c-0.125-0.586-0.654-0.95-1.254-0.981c-0.283-0.575-0.91-0.928-1.58-0.818
							c-0.703,0.117-1.205,0.713-1.24,1.397c-0.61,0.217-1.043,0.68-0.922,1.271c0.121,0.568,0.619,0.996,1.25,1.226l-0.072,0.005
							c0,0,1.713,0.954,1.752,1.849l-0.096-0.205l0.373-0.08l0.066-0.174c0.059-0.52,0.708-1.495,0.947-1.838
							C142.184,37.528,142.52,36.934,142.387,36.301z"/>
						<path fill="#B6B7BA" d="M140.708,40.057l-0.046-0.265C140.648,39.903,140.654,40,140.708,40.057z"/>
					</g>
					<path fill="#E6CCA9" d="M45.441,81.76c0.097-0.554,71.877-31.597,71.877-31.597s1.172-0.7,1.146-2.037
						c-0.018-1.336-1.297-3.741,1.938-4.199c3.23-0.46,22.117-4.628,22.117-4.628s4.242,0.417,4.076,4.241
						c-0.17,3.825-2.871,5.087-6.91,3.823c0,0-0.994-1.485-3.605,0.937c-2.623,2.42-6.9,5.767-8.682,6.448
						c0,0-2.287-2.977-7.703-0.448L49.122,89.336c0,0-0.996,0.021-2.033-1.15C46.029,86.984,44.935,84.57,45.441,81.76z"/>
					<path id="fretwirres" fill="none" stroke="#9D9FA1" stroke-width="0.3339" stroke-miterlimit="10" d="M111.166,52.907
						l2.318,4.666 M105.637,55.488l2.319,4.665 M100.27,57.635l2.318,4.664 M95.494,59.646l2.559,5.366 M90.945,61.712l2.555,5.569
						 M86.55,63.549l2.749,6.028 M82.325,65.449l2.751,6.029 M78.516,67.113l2.748,6.026 M74.849,68.773l2.749,6.027 M71.239,70.15
						l3.035,6.63 M68.023,71.601l3.062,6.766 M64.875,73.093l3.063,6.765 M61.983,74.37l3.063,6.767 M59.224,75.825l3.062,6.764
						 M52.079,79.09l3.191,6.993 M49.872,80.096l3.343,7.372 M54.334,77.99l3.204,7.076 M56.489,76.671l3.383,7.401 M47.593,80.992
						l3.342,7.372 M45.766,81.844l3.344,7.372"/>
				</g>
				<path fill="#B6B7BA" d="M122.938,47.076c0.107,0.643-0.328,1.25-0.972,1.354c-0.638,0.109-1.245-0.326-1.354-0.968
					c-0.105-0.642,0.332-1.249,0.969-1.354C122.223,46,122.83,46.433,122.938,47.076z M127.966,44.661
					c0.65,0,1.179,0.528,1.179,1.178c0,0.652-0.525,1.178-1.179,1.178c-0.649,0-1.178-0.526-1.178-1.178
					C126.788,45.189,127.314,44.661,127.966,44.661z M134.006,43.392c0.65,0,1.18,0.528,1.18,1.178s-0.526,1.178-1.18,1.178
					c-0.65,0-1.178-0.528-1.178-1.178C132.828,43.919,133.355,43.392,134.006,43.392z M141.592,42.97
					c0.104,0.643-0.328,1.251-0.97,1.355c-0.644,0.109-1.248-0.325-1.354-0.966c-0.107-0.643,0.325-1.25,0.965-1.359
					C140.877,41.897,141.482,42.327,141.592,42.97z"/>
				<path fill="#D2D6DF" d="M29.084,101.391c0.183,3.098-3.231,8.666-5.028,12.457c-1.85,3.918-0.181,5.381-0.181,5.381
					c3.229,1.728,7.277-5.369,8.589-8.137c1.039-2.191,2.846-4.064,4.803-5.419c-0.962-1.282-1.987-2.497-3.03-3.664
					C33.154,100.734,30.893,101.611,29.084,101.391z"/>
				<path fill="#222428" d="M18.445,91.961l2.73-1.27l5.494,11.795l-2.73,1.271L18.445,91.961z M29.941,87.038l1.914-0.894
					l5.017,10.761l-1.915,0.893L29.941,87.038z"/>
				
					<rect x="8.286" y="96.501" transform="matrix(0.9062 -0.4229 0.4229 0.9062 -41.9001 14.7952)" fill="none" stroke="#ECEFF5" stroke-width="0.1626" stroke-miterlimit="10" width="8.216" height="10.654"/>
				
					<rect x="8.584" y="97.929" transform="matrix(0.9066 -0.422 0.422 0.9066 -42.7021 13.6019)" fill="#F8F9FB" width="1.578" height="10.653"/>
				<path id="fret_markers" fill="#80807D" d="M113.257,52.588l2.417-1.124l1.549,3.329l-2.416,1.125L113.257,52.588z
					 M102.354,57.627l1.896-0.882l1.673,3.591l-1.893,0.882L102.354,57.627z M92.659,62.252l1.896-0.884l1.674,3.591l-1.895,0.884
					L92.659,62.252z M84.137,65.99l1.436-0.67l1.859,3.982l-1.434,0.67L84.137,65.99z M76.411,69.513l1.438-0.672l1.859,3.982
					l-1.438,0.672L76.411,69.513z M66.438,73.997l1.176-0.548l2.039,4.374l-1.176,0.548L66.438,73.997z M58.212,77.84l0.849-0.396
					l2.042,4.373l-0.847,0.396L58.212,77.84z M53.238,79.895l0.848-0.396l2.045,4.371l-0.847,0.396L53.238,79.895z M48.915,82.061
					l0.847-0.396l2.044,4.371L50.96,86.43L48.915,82.061z"/>
				
					<line id="nut_1_" fill="none" stroke="#FFFFFF" stroke-width="0.7585" stroke-miterlimit="10" x1="117.255" y1="50.082" x2="119.195" y2="54.354"/>
				<path id="strings" fill="none" stroke="#ECEFF5" stroke-width="0.1626" stroke-miterlimit="10" d="M8.567,99.661l109.304-49.006
					l4.745-2.516 M9.768,101.811l108.807-50.079l9.036-4.72 M10.728,104.074l107.977-51.198l15.536-7.351 M11.802,106.383
					l107.32-52.397l20.703-10.264"/>
				<path fill="#35464F" d="M31.145,105.148c0.892-0.181,1.766,0.431,1.952,1.357c0.187,0.93-0.387,1.828-1.278,2.006
					c-0.893,0.178-1.766-0.431-1.953-1.359C29.68,106.227,30.253,105.327,31.145,105.148z M29.89,110.662
					c0.185,0.928-0.387,1.827-1.282,2.008c-0.888,0.176-1.761-0.434-1.949-1.361c-0.183-0.924,0.387-1.83,1.28-2.004
					C28.831,109.124,29.706,109.736,29.89,110.662z M25.086,115.22c0.892-0.179,1.765,0.431,1.952,1.36
					c0.185,0.93-0.386,1.828-1.278,2.008c-0.891,0.178-1.765-0.432-1.952-1.361C23.624,116.297,24.194,115.396,25.086,115.22z"/>
			</g>
		</g>
	</g>
</g>
</svg>
