<svg version="1.1" id="playing_drums" xmlns="http://www.w3.org/2000/svg" xmlns:xlink="http://www.w3.org/1999/xlink" x="0px" y="0px" width="240px" height="319.333px" viewBox="0 0 240 319.333" enable-background="new 0 0 240 319.333" xml:space="preserve" class="parent">
    <g id="cchair11" xmlns="http://www.w3.org/2000/svg">
        <path fill="#91918F" d="M143.697,276.674l-16.563-12.213v-32.906c0-1.377-1.114-2.493-2.491-2.493s-2.494,1.116-2.494,2.493v32.9
            l-16.166,11.813c-1.111,0.813-1.354,2.373-0.541,3.479c0.488,0.668,1.247,1.021,2.015,1.021c0.511,0,1.026-0.156,1.47-0.479
            l13.361-9.771l0.251,8.613c0.039,1.354,1.146,2.422,2.49,2.422c0.023,0,0.05,0,0.072-0.002c1.377-0.039,2.461-1.188,2.42-2.563
            l-0.238-8.231l13.453,9.927c0.445,0.323,0.965,0.479,1.479,0.479c0.766,0,1.521-0.354,2.01-1.015
            C145.042,279.053,144.807,277.493,143.697,276.674z" data-fill="#91918F"></path>
        <g id="Layer_7">
            <rect x="100.426" y="222.131" fill="#6A6C6E" width="42.965" height="10.996" data-fill="#6A6C6E"></rect>
        </g>
    </g>
    <g id="fhb1" xmlns="http://www.w3.org/2000/svg" class="avatar-hair-back">
        <path id="fillHairColorBase_20_" fill="#3D383A" d="M81.834,103.241c4.041-16.876,7.147-34.852,17.8-49.084
            c8.483-11.338,24.232-11.929,36.683-9.992c33.787,5.259,38.236,35.983,30.521,75.362c-2.003,10.205-7.497,34.739-15.623,47.046
            c-24.354-12.111-39.445-18.825-59.6-11.042c-1.279-5.838-2.366-15.938-1.019-22.115c-1.347,6.175-1.805,16.662-0.525,22.508
            c-2.33,0.9-4.666,1.976-7.011,3.263C76.783,144.84,78.389,117.635,81.834,103.241z" data-fill="hair-color_base"></path>
    </g>
    <g id="fbo1" xmlns="http://www.w3.org/2000/svg">
        <path id="fillSkinColorBase_55_" fill="#F9D7B9" d="M108.097,146.312c-0.211,4.871-4.813,6.431-4.813,6.431
            s-22.447-8.339-30.404-12.914c-3.507-3.486-24.162-24.344-28.496-33.076c-0.339-1.53-0.663-2.822-0.469-3.914
            c0.591-3.304,5.028-2.448,6.463-0.7c4.935,6.012,27.247,28.277,27.247,28.277l29.124,9.11
            C106.749,139.527,108.293,141.81,108.097,146.312z M135.725,141.777l29.123-9.11c0,0,22.313-22.266,27.246-28.277
            c1.436-1.748,5.873-2.604,6.463,0.7c0.195,1.092,1.277,0.114,0.938,1.644c-4.334,8.732-26.396,31.86-29.901,35.346
            c-7.957,4.574-31.421,13.115-31.421,13.115s-3.586-1.762-3.797-6.633C134.18,144.06,135.725,141.777,135.725,141.777z" data-fill="skin-color_base"></path>
        <path id="fillSkinColorBase_48_" fill="#F9D7B9" d="M133.032,201.278c-1.046-3.971-2.304-11.691-2.494-14.255
            c-0.392-5.308,2.028-16.444,4.462-19.022c2.432-2.576,4.708-7.395,3-13.167c0,0-1.753-9.004-0.816-9.904
            c-2.891-2.087,2.854-0.105-3.5-4.059c-3.506,4.594-7.438,12.769-11.973,12.723c-4.664-0.047-11.321-8.292-15.685-14.291
            c-5.371,2.769-3.651,3.194-5.193,3.864L103,157.833c0,0,1.8,6.091,3.179,14.944c0,0,2.631,6.161-2.072,18.071
            c0,0-1.86,3.654-3.765,7.695C110.73,203.657,122.374,205.844,133.032,201.278z" data-fill="skin-color_base"></path>
        <path id="fillSkinColorBase_5_" fill="#F9D7B9" d="M116.252,130.431l-0.731,7.195l-9.825,1.457
            c-1.61,13.67-2.83,21.875,14.986,23.612c19.605,1.912,19.492-21.99,16.396-21.784l-9.938-2.714l0.647-5.753
            c-1.938-0.034-3.979,0.466-5.794,0.156C120.089,132.275,118.23,131.096,116.252,130.431z" data-fill="skin-color_base"></path>
        <path id="fillSkinColorShade_16_" fill="#E3C5AB" d="M53.168,105.299c-1.168-1.274-2.137-2.365-2.79-3.16
            c-1.435-1.748-5.872-2.604-6.463,0.7c-0.194,1.092,0.129,2.384,0.469,3.914c0.331,0.666,0.777,1.418,1.284,2.214
            C48.375,109.11,51.037,107.585,53.168,105.299z M198.557,105.089c-0.59-3.304-5.027-2.448-6.463-0.7
            c-0.244,0.299-0.544,0.647-0.869,1.021c1.274,2.428,3.908,3.743,6.678,4.028c0.658-1.002,1.199-1.915,1.602-2.706
            C199.834,105.203,198.752,106.181,198.557,105.089z M116.12,131.107l-0.129,1.402c3.407,1.652,7.577,2.877,11.514,2.065
            l0.149-1.455c-1.934-0.034-3.848-0.211-5.662-0.521C120.089,132.275,118.098,131.773,116.12,131.107z" data-fill="skin-color_shade"></path>
        <path id="fillSkinColorBase_54_" fill="#FAD9BC" d="M111.043,276.45c0.028-9.791,1.082-11.373,1.393-21.527
            c0.23-7.586,0.351-9.539,0.615-13.602c0.172-2.674,0.072-4.25,0.072-4.25c-7.299-0.635-15.336,0.465-15.336,0.465
            s-0.013,0.658,0.104,2.195c0.287,3.627,0.125,5.15,0.87,13.926c0.595,7.024,1.656,10.23,2.51,23.096
            C104.537,277.29,107.879,277.143,111.043,276.45z M97.883,243.083l14.911,1.299c0-3.711-0.142-3.541,1.312-15.521l0.989-4.44
            c5.854-1.039,15.206-2.146,20.904-4.31c-1.554-21.868-4.069-20.153-4.069-20.153l-30.861-2.705
            C93.727,209.256,97.892,243.083,97.883,243.083z M160.919,211.566c-10.752-4.231-18.419-5.065-18.419-5.065
            c-7.695-2.104-15.207-2.885-20.35-3.994c1.639,5.793-1.053,13.104-1.693,19.016L137.906,224l29.58,1.58
            C167.486,225.581,168.527,214.561,160.919,211.566z M166.75,268.042c-0.87-0.787,0.52-15.039,0.408-26.338
            c0.299-9.369,0.334-18.396,0.363-19.218c-0.615-1.274-2.729-3.226-4.356-3.385c-0.463-0.045-9.153,0.462-9.155,0.496
            c-0.049,1.565,1.557,21.526,2.283,34.979c0.328,6.092,1.23,13.924,0.832,15.465C157.125,270.042,163.75,272.417,166.75,268.042z" data-fill="skin-color_base"></path>
        <path id="drumstick" fill="#C4CAD2" d="M193.682,46.691l9.448,74.609c0.121,0.953-0.554,1.823-1.507,1.944
            s-1.823-0.554-1.943-1.507c-0.002-0.01-0.004-0.029-0.005-0.04l-7.741-74.805c-0.051-0.483,0.301-0.916,0.783-0.965
            C193.193,45.878,193.62,46.219,193.682,46.691z M60.248,49.348l-19.686,71.087c-0.251,0.908-1.192,1.441-2.1,1.189
            c-0.908-0.252-1.441-1.192-1.189-2.1c0.002-0.01,0.008-0.028,0.011-0.038l21.307-70.618c0.138-0.456,0.619-0.714,1.075-0.577
            C60.115,48.427,60.373,48.898,60.248,49.348z"></path>
        <path id="fillSkinColorBase_51_" fill="#F9D7B9" d="M208.898,95.435c0.084,7.027-4.279,12.777-9.752,12.844
            c-5.479,0.068-9.979-5.576-10.063-12.602c-0.086-7.025,3.938-12.639,9.75-12.844C207.379,82.53,208.814,88.409,208.898,95.435z
            M35.921,93.511c-1.228,6.783,2.057,13.066,7.34,14.033c5.281,0.967,10.559-3.75,11.786-10.532
            c1.229-6.783-1.748-12.876-7.339-14.032C39.494,81.278,37.148,86.729,35.921,93.511z" data-fill="skin-color_base"></path>
        <path id="fillSkinColorShade_14_" fill="#E3C5AB" d="M194.02,86.743c-0.754-0.359-0.281-1.102-0.668-1.748
            c-2.688,2.291-4.313,6.195-4.264,10.682c0.027,2.373,0.162,3.232,1.066,5.123C195.588,97.891,195.885,94.189,194.02,86.743z
            M51.733,87.556c0.788-0.223,0.453-1.019,0.932-1.581c2.231,2.661,3.167,6.706,2.383,11.037c-0.415,2.292-0.686,3.101-1.869,4.78
            C48.397,98.081,48.714,94.452,51.733,87.556z" data-fill="skin-color_shade"></path>
        <path id="fillSkinColorShade_15_" fill="#CDA482" d="M189.813,94.464c-0.183,0-0.354-0.075-0.479-0.221
            c-0.229-0.268-0.204-0.674,0.063-0.907c0.082-0.071,8.297-7.061,18.444-3.419c0.335,0.12,0.515,0.488,0.394,0.823
            c-0.121,0.333-0.488,0.504-0.818,0.388c-9.458-3.396-17.1,3.112-17.176,3.179C190.111,94.412,189.962,94.464,189.813,94.464z
            M191.834,102.722c0.02-0.027,0.036-0.056,0.05-0.085c0.14-0.257,4.371-7.76,15.813-3.655c0.328,0.116,0.701-0.055,0.822-0.388
            c0.119-0.334-0.063-0.703-0.396-0.823c-12.664-4.542-17.352,4.194-17.396,4.282c-0.146,0.287-0.063,0.646,0.201,0.829
            c0.109,0.078,0.237,0.115,0.365,0.115C191.509,102.997,191.709,102.901,191.834,102.722z M55.049,95.584
            c0.269-0.221,0.308-0.618,0.086-0.887c-0.067-0.082-6.867-8.196-17.291-6.35c-0.343,0.061-0.572,0.388-0.511,0.731
            c0.061,0.343,0.391,0.572,0.731,0.511c9.67-1.714,16.032,5.833,16.095,5.909c0.125,0.151,0.306,0.23,0.488,0.23
            C54.79,95.728,54.931,95.681,55.049,95.584z M52.145,103.639c0.295-0.185,0.385-0.574,0.2-0.869
            c-0.055-0.087-5.587-8.73-16.064-6.873c-0.343,0.061-0.572,0.388-0.511,0.731c0.061,0.343,0.389,0.57,0.731,0.511
            c9.619-1.708,14.568,5.972,14.774,6.3c0.12,0.191,0.325,0.295,0.535,0.295C51.925,103.735,52.041,103.705,52.145,103.639z" data-fill="skin-color_shade"></path>
        <path id="fillSkinColorBase_47_" fill="#F9D7B9" d="M193.766,92.706c-0.174,4.035-2.016,6.99-5.662,6.711
            c-2.422-0.185-1.828-2.586-1.646-6.618c0.179-4.032,1.771-7.364,4.188-7.257C193.068,85.647,193.945,88.674,193.766,92.706z
            M51.003,93.366c-0.486,3.932,0.813,7.094,4.386,7.425c2.372,0.221,2.188-2.199,2.677-6.129c0.485-3.931-0.51-7.415-2.873-7.712
            C52.829,86.653,51.491,89.437,51.003,93.366z" data-fill="skin-color_base"></path>
        <path fill="#C4CAD2" d="M61.455,48.511c0,1.082-0.874,1.96-1.949,1.96c-1.075,0-1.948-0.878-1.948-1.96
            c0-1.08,0.873-1.958,1.948-1.958C60.581,46.553,61.455,47.431,61.455,48.511z M190.551,45.557
            c-0.057,1.081,0.766,2.005,1.838,2.063c1.076,0.061,1.994-0.767,2.055-1.848c0.063-1.08-0.766-2.004-1.84-2.064
            C191.531,43.649,190.611,44.476,190.551,45.557z" data-fill="#C4CAD2"></path>
    </g>
    <g id="flo1_1_" xmlns="http://www.w3.org/2000/svg" class="avatar-clothes-lower">
        <path id="fillClothesLowerColorBase" fill="#535763" d="M167.434,252.747c0.146-3.613,0.26-7.494,0.229-11.026
            c0.19-6.146,0.272-12.101,0.317-16.062l0.004-0.027c0.009-0.041,0.096-1.004,0.021-2.401c0.009-0.354,0.021-0.836,0.021-0.836
            s-0.064-0.146-0.082-0.166c-0.297-3.313-1.588-9.054-6.842-11.112c-10.646-4.189-18.416-5.086-18.474-5.086h-0.001
            c-2.396-0.648-4.938-1.229-7.969-1.805c-1.158-4.227-2.271-4.741-2.688-4.771l-31.167-2.729l-0.162,0.27
            c-6.881,11.268-3.784,41.477-3.281,45.938l0.077,0.781c0.088,2.102,0.367,4.604,0.825,10.002c0.14,1.646,0.31,3.104,0.493,4.513
            c3.156,1.786,8.2,2.979,14.123-1.663c0.021-0.514,0.042-1.046,0.059-1.607c0.226-7.467,0.344-9.441,0.614-13.584
            c0.138-2.146,0.103-3.588,0.08-4.033c0.19-1.836,0.481-4.352,0.965-8.354l0.916-4.115c2.203-0.354,4.952-0.479,7.855-0.604
            c2.818-0.125,5.738-0.252,8.396-0.604l6.112,0.867l15.97,0.854c0.109,1.619,0.244,3.511,0.396,5.563
            c0.487,6.976,1.104,15.558,1.497,22.683C158.58,254.981,162.669,255.702,167.434,252.747z" data-fill="clothes-lower-color_base"></path>
        <path id="fillClothesLowerColorShade_1_" fill="#62636E" d="M101.625,205.788c0,0,6-1.151,10.75,4.504
            c-2.125-1.438-2.75-1.061-2.75-1.061s-2,2.951-0.5,6.887c1.5,3.937,0.25,7.379,0.25,7.379s-4.132-2.394-8.875,0.615
            C96.375,226.729,97.25,207.508,101.625,205.788z" data-fill="clothes-lower-color_shade"></path>
    </g>
    <g id="fup1_3_" xmlns="http://www.w3.org/2000/svg" class="avatar-clothes-upper">
        <path id="fillClothesUpperColorBase_10_" display="inline" fill="#D6453F" d="M148.336,136.811l-10.609,3.779l-0.129-0.08
            c-0.143-0.066-0.287-0.102-0.436-0.106l-9.584-2.269l-0.238,0.979l-6.16,16.402l-0.207-0.038l-5.792-18.546l-9.436,1.633
            l-12.292-4.406c-2.09,0.893-5.038,12.403-3.651,15.763l12.03,3.247l0.714,4.8c0.018,0.063,1.807,6.167,3.164,14.879l0.034,0.117
            c0.025,0.061,2.479,6.156-2.058,17.65c-0.019,0.027-1.885,3.707-3.771,7.709l-0.21,0.438l0.441,0.217
            c5.486,2.699,12.751,5.271,20.522,5.271c4.116,0,8.375-0.724,12.586-2.522l0.396-0.17l-0.108-0.417
            c-1.058-4.02-2.293-11.669-2.479-14.164c-0.396-5.48,2.104-16.286,4.326-18.646c2.471-2.615,4.633-7.373,3.314-12.813l12.813-4.123
            C153.368,146.69,152.338,140.007,148.336,136.811z" data-fill="clothes-upper-color_base"></path>
        <path id="fillClothesUpperColorShade_7_" display="inline" fill="#B03833" d="M118.059,152.503l-7.402,1.925
            c0,0,1.182-10.624,1.458-15.417l3.185-2.561l0.458,2.089l2.681,9.143l0.578,1.531l1.859,6.031l-0.004,0.115l-0.031,0.081
            l0.027,0.005l0.004-0.086l2.235-5.891l0.133,0.042l4.111-10.308l0.021-2.164l3.547,3.034c-0.229,4.797-0.171,15.488-0.171,15.488
            l-7.157-2.73l-2.146,2.739l2.457,0.563l-1.754,6.654l0.906-6.292l-2.086,0.214l-0.078-0.026l-0.138-0.239l-1.732-2.575
            L118.059,152.503z M138.25,152.729l0.553,2.764l8.4-2.703L138.25,152.729z M126.454,165.56c-1.714-1.052-3.272-1.789-5.229-0.821
            c-1.766,0.87-2.267,1.709-4.891,2.262c-10.106,0.799-13.48-3.979-11.719-1.563c0.135,0.188,1.184,2.113,1.584,2.688
            c4.427,6.314,12.748,0.6,16.427,0.627c5.052-0.183,6.792,4.209,10.819,3.563c0.619-1.796,1.291-3.228,1.943-3.914
            c0.549-0.583,1.071-1.271,1.562-2.043c-0.986,0.649-2.611,1.164-3.688,1.313C130.83,168.02,128.332,166.709,126.454,165.56z
            M93.272,150.859l8.47,2.286c-0.265-1.712-0.804-2.791-0.804-2.791L93.272,150.859z" data-fill="clothes-upper-color_shade"></path>
        <path id="fillClothesUpperColorBase_20_" display="inline" fill="#D6453F" d="M127.352,136.947l3.521,3.332
            c-1.682,4.947-0.848,13.012-0.848,13.012l-6.836-3.835l4.067-11.288L127.352,136.947z M115.518,135.932l-3.364,3.043
            c1.145,5.347-0.529,13.273-0.529,13.273l7.392-3.036l-3.513-11.64L115.518,135.932z" data-fill="clothes-upper-color_base"></path>
    </g>
    <g id="fsh1_x5F_bl_1_" xmlns="http://www.w3.org/2000/svg" class="avatar-shoes">
        <path id="fillShoesColorBase_18_" fill="#535763" d="M166.854,268.014l5.83-0.838c1.063,0.07,2.121,0.129,3.188,0.191
            c1.476,0.065,3.004-0.207,4.396,0.396c1.26,0.54,2.979,1.952,1.303,3.147c0,0-2.59,1.85-8.896,2.797
            c-6.306,0.949-11.642,1.646-15.485,2.992c0,0-1-2.531-1.078-5.307L166.854,268.014z" data-fill="shoes-color_base"></path>
        <path id="fillShoesColorTint_3_" fill="#7C7B83" d="M174.652,269.608c-1.715-0.557-2.057-1.43-1.713-2.418
            c0.976,0.063,1.938,0.119,2.924,0.17c1.474,0.076,3.005-0.207,4.402,0.4c0.256,0.111,0.521,0.26,0.779,0.426
            C179.387,270.672,176.945,269.827,174.652,269.608z" data-fill="shoes-color_tint"></path>
        <path fill="#AAA6BA" d="M182.259,269.887c-0.026,0.34-0.226,0.688-0.688,1.018c0,0-2.588,1.848-8.896,2.797
            c-6.305,0.949-11.771,1.707-15.622,3.063c0,0-0.055-0.372-0.307-0.894C165.586,273.094,171.473,274.381,182.259,269.887z" data-fill="#AAA6BA"></path>
        <path id="fillSkinColorBase_46_" fill="#FAD9BC" d="M166.365,256.565c0.057,4.32-0.336,8.158-0.114,8.242
            c2.437,2.173,4.492,1.923,6.937,2.331c-1.896,3.575-6.313,3.907-9.826,4.042c-0.555,0.021-6.385,0.66-6.383,0.339
            c0.276-1.772-0.049-6.882-0.391-14.045L166.365,256.565z" data-fill="skin-color_base"></path>
    </g>
    <g id="fhd1" xmlns="http://www.w3.org/2000/svg" class="avatar-head">
        <g id="fillSkinColorBase_57_" data-fill="skin-color_base">
            <path id="fillSkinColorBase_41_" fill="#F9D7B9" d="M160.566,83.919c0.207,9.363-0.629,18.943-3.678,27.748
                c-2.943,8.507-7.812,16.136-16.438,19.619c-5.624,2.27-12.46,2.339-18.382,1.322C78.193,125.113,99.68,73.36,99.68,73.36
                s6.597-20.893,34.977-16.578c12.09,1.842,24.946,8.877,25.723,22.502C160.469,80.824,160.531,82.369,160.566,83.919z" data-fill="skin-color_base"></path>
            <path id="fillSkinColorBase_40_" fill="#F9D7B9" d="M160.463,98.619c-0.167-0.212-0.347-0.478-0.533-0.768
                c-0.912,5.68-2.507,11.343-4.47,16.847C169.871,108.927,160.463,98.619,160.463,98.619z" data-fill="skin-color_base"></path>
            <path id="fillSkinColorBase_39_" fill="#F9D7B9" d="M95.577,87.724c0.226-0.147,0.482-0.338,0.749-0.553
                c-0.97,5.671-1.289,11.548-1.209,17.394C83.35,94.398,95.577,87.724,95.577,87.724z" data-fill="skin-color_base"></path>
        </g>
    </g>
    <g id="fey1" xmlns="http://www.w3.org/2000/svg" class="avatar-eyes">
        <path fill="#543318" d="M149.166,99.076c-0.457,2.713-2.77,4.586-5.166,4.186c-2.391-0.401-3.965-2.929-3.506-5.642
            c0.457-2.713,2.771-4.585,5.164-4.183C148.053,93.837,149.623,96.363,149.166,99.076z" data-fill="#543318"></path>
        <path fill="#543318" d="M116.296,93.418c-0.456,2.713-2.771,4.585-5.165,4.186c-2.391-0.401-3.965-2.929-3.506-5.643
            c0.457-2.713,2.771-4.584,5.162-4.182C115.183,88.179,116.753,90.706,116.296,93.418z" data-fill="#543318"></path>
    </g>
    <g id="fmo1" xmlns="http://www.w3.org/2000/svg" class="avatar-mouth">
        <path display="inline" fill="none" stroke="#816951" stroke-width="2.0555" stroke-linecap="round" stroke-linejoin="round" stroke-miterlimit="10" d="
            M117.412,116.846c0,0,4.924,3.759,13.561,2.192" data-stroke="#816951"></path>
    </g>
    <g id="feb1" xmlns="http://www.w3.org/2000/svg" class="avatar-eyebrows">
        <path id="fillEyebrowColorBase_45_" display="inline" fill="#816951" d="M106.749,81.229c-0.286-0.048-0.551-0.216-0.712-0.483
            c-0.293-0.487-0.137-1.118,0.351-1.411c6.571-3.954,13.634,1.401,13.933,1.631c0.449,0.346,0.531,0.99,0.186,1.439
            c-0.345,0.449-0.99,0.533-1.439,0.188c-0.062-0.048-6.26-4.721-11.619-1.496C107.229,81.227,106.981,81.268,106.749,81.229z" data-fill="eyebrow-color_base"></path>
        <path id="fillEyebrowColorBase_44_" display="inline" fill="#816951" d="M153.115,88.784c-0.24-0.04-0.469-0.165-0.631-0.369
            c-3.939-4.883-11.354-2.612-11.426-2.587c-0.541,0.171-1.119-0.128-1.289-0.67c-0.172-0.541,0.129-1.119,0.67-1.29
            c0.354-0.113,8.834-2.71,13.644,3.257c0.358,0.441,0.288,1.089-0.153,1.445C153.693,88.761,153.395,88.831,153.115,88.784z" data-fill="eyebrow-color_base"></path>
    </g>
    <g id="fhf1" xmlns="http://www.w3.org/2000/svg" class="avatar-hair-front">
        <path id="fillHairColorBase_17_" fill="#3D383A" d="M155.406,61.154l-0.653,0.698c-15.331-13.491-31.444-13.05-42.223-7.505
            c-20.334,10.463-18.286,31.07-18.286,31.07c14.405,0.625,27.336-2.878,37.625-7.267c-1.987,4.586-5.074,8.645-5.074,8.645
            c8.635-3.606,15.627-11.385,19.223-16.005c2.002-1.242,3.742-2.414,5.197-3.445c-0.104,4.183,0.135,14.559,4.623,19.567
            c0,0-0.326-6.138,1.264-9.59c0,0-2.5,14.529,2.828,20.28C159.932,97.601,172.063,74.748,155.406,61.154z" data-fill="hair-color_base"></path>
    </g>
    <g id="fdrm1" xmlns="http://www.w3.org/2000/svg" class="avatar-instrument">
        <polygon fill="#565659" points="193.973,279.159 194.596,271.084 198.086,269.469 198.553,281.092     " data-fill="#565659"></polygon>
        <polyline fill="#727174" points="201.234,267.702 152.008,277.971 153.206,281.372 201.588,270.647 201.689,267.483    " data-fill="#727174"></polyline>
        <polyline fill="#727174" points="202.956,278.532 152.689,277.917 153.111,281.196 202.654,281.485 203.45,278.42  " data-fill="#727174"></polyline>
        <g>
            <path fill="none" stroke="#717476" stroke-width="9.4413" stroke-miterlimit="10" d="M72.789,187.829" data-stroke="#717476"></path>
            <path fill="none" stroke="#717476" stroke-width="9.4413" stroke-miterlimit="10" d="M59.478,187.829" data-stroke="#717476"></path>
            <path fill="#8E8D8A" d="M152.884,180.268c0.306,3.736-8.295,6.135-18.94,7.023c-10.646,0.891-19.111-0.158-19.419-3.896
                c-0.31-3.736,7.656-7.293,18.292-8.186C143.46,174.325,152.576,176.532,152.884,180.268z" data-fill="#8E8D8A"></path>
            <path fill="#636462" d="M152.803,180.598c0.23,2.809-8.214,5.805-18.859,6.693c-10.646,0.891-19.458-0.662-19.69-3.479
                c-0.23-2.813,8.214-5.81,18.854-6.688C143.75,176.237,152.572,177.792,152.803,180.598z" data-fill="#636462"></path>
            <path fill="none" stroke="#515251" stroke-width="1.3467" stroke-miterlimit="10" d="M148.764,181.872
                c0.139,1.695-6.535,3.635-14.908,4.336c-8.377,0.701-15.271-0.104-15.417-1.805c-0.139-1.693,6.667-3.246,15.042-3.947
                C141.85,179.756,148.625,180.176,148.764,181.872z" data-stroke="#515251"></path>
            <path fill="#8E8D8A" d="M108.109,184.104c-0.32,3.736-9.199,4.648-19.842,3.73c-10.645-0.92-18.824-3.387-18.504-7.123
                c0.32-3.736,8.764-5.896,19.41-4.979C99.814,176.657,108.435,180.372,108.109,184.104z" data-fill="#8E8D8A"></path>
            <path fill="#636462" d="M106.011,185.106c-0.207,2.387-7.716,3.688-16.771,2.906c-9.057-0.783-16.234-3.355-16.032-5.748
                c0.205-2.387,7.717-3.688,16.773-2.904C99.036,180.143,106.217,182.717,106.011,185.106z" data-fill="#636462"></path>
            <path fill="none" stroke="#515251" stroke-width="1.3467" stroke-miterlimit="10" d="M103.783,184.991
                c-0.146,1.695-7.051,2.479-15.423,1.76c-8.374-0.727-15.043-2.688-14.898-4.385c0.146-1.693,7.115-2.078,15.488-1.352
                C97.32,181.741,103.931,183.295,103.783,184.991z" data-stroke="#515251"></path>
            <path fill="#CFCFD0" stroke="#F4F3F3" stroke-width="0.4884" stroke-miterlimit="10" d="M68.418,181.069l0.1-2.125L70,179.028
                c0,0,3.284-3.703,19.359-2.301c13.432,1.17,15.459,3.029,18.476,5.52l1.129,0.107l-0.236,2.445l-1.403-0.58
                c0,0-3.709-4.152-17.951-4.963c-14.245-0.809-16.737,0.393-18.798,1.586l-0.427,0.439L68.418,181.069z" data-fill="#CFCFD0" data-stroke="#F4F3F3"></path>
            <path fill="#8E8D8A" d="M96.024,210.561c-0.272,3.561-7.856,4.43-16.943,3.555c-9.093-0.877-16.075-3.227-15.803-6.787
                c0.272-3.562,7.483-5.621,16.574-4.746C88.942,203.463,96.303,207.004,96.024,210.561z" data-fill="#8E8D8A"></path>
            <path fill="#636462" d="M95.914,210.862c-0.21,2.674-7.746,4.129-16.833,3.254c-9.093-0.877-16.292-3.758-16.091-6.438
                c0.206-2.672,7.744-4.131,16.832-3.252C88.913,205.305,96.118,208.188,95.914,210.862z" data-fill="#636462"></path>
            <path fill="none" stroke="#515251" stroke-width="1.215" stroke-miterlimit="10" d="M92.331,211.407
                c-0.126,1.613-6.021,2.363-13.172,1.678c-7.15-0.688-12.846-2.562-12.722-4.18c0.124-1.613,6.075-1.98,13.226-1.289
                C86.81,208.309,92.455,209.79,92.331,211.407z" data-stroke="#515251"></path>
            <path fill="#CFCFD0" stroke="#F4F3F3" stroke-width="0.4406" stroke-miterlimit="10" d="M62.129,207.668l0.085-2.025l1.267,0.08
                c0,0,2.804-3.529,16.532-2.193c11.469,1.115,13.2,2.889,15.777,5.26l0.963,0.104l-0.2,2.332l-1.199-0.558
                c0,0-3.168-3.955-15.33-4.729c-12.165-0.771-14.293,0.371-16.051,1.513l-0.365,0.42L62.129,207.668z" data-fill="#CFCFD0" data-stroke="#F4F3F3"></path>
            <line fill="none" stroke="#717476" stroke-width="4.3887" stroke-linecap="round" stroke-linejoin="round" stroke-miterlimit="10" x1="59.769" y1="187.829" x2="164.723" y2="187.829" data-stroke="#717476"></line>
            <g>
                <path fill="#605C5C" d="M183.755,143.465c2,4.574-5.021,12.109-15.681,16.829c-10.664,4.729-20.934,4.84-22.938,0.271
                    c-2-4.574,5.021-12.109,15.684-16.832C171.482,139.011,181.752,138.89,183.755,143.465z" data-fill="#605C5C"></path>
                <path fill="#9D9898" d="M183.951,143.379l0.003,0.006c0.428,0.992,0.419,2.133,0.151,3.146c-0.271,1.025-0.744,1.967-1.313,2.839
                    c-1.142,1.744-2.606,3.218-4.17,4.565c-3.146,2.685-6.752,4.742-10.481,6.455c-3.752,1.683-7.723,2.963-11.814,3.514
                    c-2.049,0.263-4.141,0.351-6.205,0.017c-1.029-0.174-2.059-0.457-3-0.961c-0.938-0.5-1.789-1.262-2.244-2.295
                    c-0.445-0.999-0.455-2.166-0.195-3.198c0.254-1.045,0.729-2.006,1.281-2.896c1.129-1.776,2.588-3.292,4.146-4.66
                    c3.146-2.709,6.729-4.886,10.521-6.539c3.795-1.644,7.789-2.892,11.917-3.383c2.063-0.229,4.162-0.282,6.229,0.085
                    c1.027,0.191,2.058,0.492,2.982,1.01C182.691,141.592,183.525,142.373,183.951,143.379z M183.559,143.549
                    c-0.396-0.891-1.156-1.58-2.021-2.038c-0.884-0.464-1.854-0.734-2.853-0.896c-1.992-0.315-4.041-0.226-6.055,0.038
                    c-4.027,0.546-7.957,1.793-11.673,3.454c-3.7,1.691-7.285,3.711-10.385,6.346c-1.54,1.317-2.979,2.779-4.075,4.462
                    c-0.54,0.842-0.995,1.744-1.236,2.696c-0.242,0.95-0.248,1.948,0.139,2.845c0.369,0.864,1.111,1.572,1.979,2.043
                    c0.857,0.479,1.842,0.771,2.83,0.944c1.984,0.351,4.051,0.295,6.066,0.063c4.063-0.486,8.021-1.705,11.771-3.328
                    c3.761-1.628,7.313-3.767,10.427-6.426c1.543-1.338,2.963-2.841,4.051-4.558c0.535-0.86,0.98-1.781,1.224-2.753
                    C183.973,145.473,183.963,144.45,183.559,143.549z" data-fill="#9D9898"></path>
            </g>
            <path fill="#4D4B4B" d="M178.503,145.79c1.456,3.33-3.655,8.814-11.417,12.25c-7.762,3.438-15.236,3.523-16.697,0.195
                c-1.455-3.332,3.655-8.816,11.418-12.252C169.566,142.547,177.043,142.459,178.503,145.79z" data-fill="#4D4B4B"></path>
            <path d="M171.221,148.54c0.711,1.627-1.785,4.303-5.574,5.984c-3.791,1.678-7.438,1.719-8.146,0.094
                c-0.711-1.629,1.776-4.307,5.567-5.984C166.857,146.956,170.508,146.913,171.221,148.54z"></path>
            <path fill="none" stroke="#000000" stroke-width="1.0886" stroke-miterlimit="10" d="M59.381,183.348" data-stroke="#000000"></path>
            <line fill="none" stroke="#717476" stroke-width="4.3887" stroke-linecap="round" stroke-linejoin="round" stroke-miterlimit="10" x1="59.381" y1="183.348" x2="58.016" y2="276.723" data-stroke="#717476"></line>
            <polygon fill="#B0ADAD" points="179.366,212.01 166.932,215.069 166.379,210.624 178.009,204.178 182.682,207.01       " data-fill="#B0ADAD"></polygon>
            <polygon fill="#C4C2C1" points="179.366,212.01 191.523,209.51 189.865,202.842 178.009,204.178       " data-fill="#C4C2C1"></polygon>
            <line fill="none" stroke="#717476" stroke-width="4.6365" stroke-linecap="round" stroke-linejoin="round" stroke-miterlimit="10" x1="164.506" y1="183.348" x2="162.74" y2="276.502" data-stroke="#717476"></line>
            <ellipse fill="#8E8D8A" cx="108.317" cy="230.613" rx="16.449" ry="16.541" data-fill="#8E8D8A"></ellipse>
            <rect x="97.214" y="236.35" fill="#717476" width="22.207" height="43.876" data-fill="#717476"></rect>
            <line fill="none" stroke="#91918F" stroke-width="1.6624" stroke-linecap="round" stroke-linejoin="round" stroke-miterlimit="10" x1="164.971" y1="153.174" x2="146.757" y2="200.895" data-stroke="#91918F"></line>
            <line fill="none" stroke="#91918F" stroke-width="1.6624" stroke-linecap="round" stroke-linejoin="round" stroke-miterlimit="10" x1="172.286" y1="169.596" x2="172.286" y2="229.258" data-stroke="#91918F"></line>
            <path fill="#636462" d="M193.398,175.928c-0.002,0.918-9.326,1.648-20.826,1.639c-11.498-0.008-20.822-0.762-20.824-1.68
                c0-0.918,9.329-1.65,20.829-1.639C184.076,174.258,193.402,175.012,193.398,175.928z" data-fill="#636462"></path>
            <path fill="#2C3531" d="M160.93,152.047c0.055,0.1,0.104,0.203,0.174,0.297l3.646,7.613c0.209,0.288,2.895-0.283,3.247-0.4
                c0.44-0.146,0.681-0.623,0.536-1.064l-2.452-8.639C164.205,150.094,162.462,150.729,160.93,152.047z" data-fill="#2C3531"></path>
            <g>
                <polygon fill="#91918F" points="46.88,152.073 49.891,153.338 54.196,149.278 47.648,146.372          " data-fill="#91918F"></polygon>
                <g>
                    <path fill="#605C5C" d="M27.122,147.047c-3.413,1.318,2.546,6.332,13.309,11.203c10.767,4.874,22.267,7.76,25.682,6.443
                        c3.416-1.315-2.547-6.332-13.311-11.205C42.036,148.62,30.537,145.733,27.122,147.047z" data-fill="#605C5C"></path>
                    <path fill="#9D9898" d="M27.18,147.192c-0.432,0.16-0.814,0.441-0.865,0.863c-0.053,0.419,0.164,0.864,0.413,1.25
                        c0.525,0.779,1.238,1.437,1.967,2.052c1.479,1.22,3.098,2.273,4.758,3.243c3.333,1.923,6.817,3.592,10.389,5.029
                        c3.572,1.438,7.22,2.694,10.936,3.687c1.859,0.491,3.736,0.921,5.632,1.21c0.948,0.143,1.901,0.251,2.854,0.283
                        c0.941,0.025,1.928,0.003,2.77-0.305c0.428-0.164,0.782-0.439,0.822-0.826c0.045-0.389-0.166-0.821-0.417-1.196
                        c-0.525-0.759-1.24-1.405-1.972-2.009c-1.482-1.2-3.112-2.224-4.771-3.182c-3.329-1.913-6.84-3.5-10.381-4.985
                        c-3.551-1.469-7.184-2.75-10.883-3.785c-1.85-0.515-3.719-0.967-5.61-1.281c-0.945-0.155-1.896-0.276-2.849-0.321
                        C29.026,146.883,28.051,146.887,27.18,147.192z M27.064,146.903c0.955-0.348,1.952-0.358,2.921-0.338
                        c0.974,0.031,1.939,0.14,2.897,0.281c1.917,0.289,3.806,0.716,5.676,1.206c3.737,0.995,7.394,2.267,10.978,3.713
                        c3.585,1.446,7.072,3.134,10.42,5.077c1.667,0.983,3.302,2.032,4.807,3.272c0.745,0.626,1.474,1.291,2.041,2.126
                        c0.265,0.418,0.535,0.895,0.473,1.483c-0.074,0.614-0.635,0.981-1.084,1.146c-0.984,0.353-1.97,0.338-2.943,0.313
                        c-0.974-0.043-1.938-0.164-2.893-0.313c-1.912-0.313-3.793-0.771-5.654-1.274c-3.721-1.036-7.361-2.335-10.924-3.812
                        c-3.554-1.497-7.069-3.101-10.414-5.032c-1.666-0.971-3.312-1.991-4.821-3.211c-0.747-0.615-1.478-1.268-2.045-2.083
                        c-0.265-0.408-0.53-0.882-0.475-1.44C26.087,147.435,26.618,147.069,27.064,146.903z" data-fill="#9D9898"></path>
                </g>
                <path fill="#4D4B4B" d="M32.425,149.448c-2.484,0.959,1.855,4.609,9.69,8.156c7.839,3.547,16.206,5.646,18.695,4.691
                    c2.487-0.961-1.854-4.611-9.689-8.167C43.283,150.592,34.913,148.493,32.425,149.448z" data-fill="#4D4B4B"></path>
                <path d="M39.899,152.583c-1.215,0.467,0.903,2.252,4.73,3.984c3.827,1.73,7.914,2.756,9.131,2.289
                    c1.214-0.469-0.906-2.252-4.733-3.982C45.199,153.141,41.113,152.116,39.899,152.583z"></path>
                <line fill="none" stroke="#91918F" stroke-width="1.6624" stroke-linecap="round" stroke-linejoin="round" stroke-miterlimit="10" x1="46.186" y1="157.073" x2="68.073" y2="203.208" data-stroke="#91918F"></line>
                <path fill="#2C3531" d="M50.127,155.629c-0.049,0.105-0.089,0.211-0.149,0.311l-3.042,7.875c-0.187,0.303-2.908-0.053-3.27-0.141
                    c-0.45-0.111-0.727-0.568-0.617-1.021l1.77-8.805C46.707,153.94,48.495,154.436,50.127,155.629z" data-fill="#2C3531"></path>
            </g>
            <g>
                <path fill="#717476" d="M165.213,214.109l20.686-2.536c1.277-0.156,2.44,0.754,2.604,2.031c0.14,1.107-0.526,2.129-1.542,2.484
                    l-19.658,6.908c-2.396,0.842-5.015-0.416-5.855-2.813c-0.84-2.396,0.422-5.017,2.814-5.854
                    C164.561,214.225,164.898,214.149,165.213,214.109z" data-fill="#717476"></path>
            </g>
            <g>
                <path fill="#717476" d="M57.381,223.752l13.628-1.924c0.658-0.102,1.267,0.356,1.359,1.021c0.083,0.59-0.276,1.144-0.825,1.312
                    l-13.11,4.188c-1.247,0.396-2.579-0.289-2.977-1.535c-0.398-1.247,0.29-2.58,1.536-2.979
                    C57.117,223.801,57.256,223.771,57.381,223.752z" data-fill="#717476"></path>
            </g>
            <path fill="#4F5254" d="M138.111,190.692c0,2.305-2.002,2.926-4.293,2.926l0,0c-2.291,0-4.006-0.621-4.006-2.926v-4.951
                c0-2.303,1.854-4.17,4.146-4.17l0,0c2.292,0,4.146,1.867,4.146,4.17v4.951H138.111z" data-fill="#4F5254"></path>
            <path fill="#4F5254" d="M92.745,190.692c0,2.305-2.001,2.926-4.292,2.926l0,0c-2.292,0-4.005-0.621-4.005-2.926v-4.951
                c0-2.303,1.856-4.17,4.147-4.17l0,0c2.293,0,4.149,1.867,4.149,4.17L92.745,190.692L92.745,190.692z" data-fill="#4F5254"></path>
            <path fill="#4F5254" d="M175.71,220.295c0,1.961-1.579,3.549-3.526,3.549l0,0c-1.951,0-3.533-1.588-3.533-3.549v-4.215
                c0-1.959,1.582-3.547,3.533-3.547l0,0c1.947,0,3.526,1.588,3.526,3.547V220.295z" data-fill="#4F5254"></path>
            <polygon fill="#91918F" points="169.87,172.924 174.502,172.924 176.266,165.827 168.768,166.27       " data-fill="#91918F"></polygon>
            <path fill="#CFCFD0" stroke="#F4F3F3" stroke-width="0.4884" stroke-miterlimit="10" d="M113.246,183.977l-0.258-2.113
                l1.479-0.168c0,0,2.615-4.203,18.697-5.537c13.438-1.113,15.746,0.379,19.137,2.324l1.133-0.086l0.172,2.451l-1.478-0.338
                c0,0-4.353-3.467-18.528-1.859c-14.175,1.607-16.438,3.213-18.264,4.734l-0.349,0.508L113.246,183.977z" data-fill="#CFCFD0" data-stroke="#F4F3F3"></path>
            <polygon fill="#636462" points="168.741,176.325 169.568,181.879 173.714,182.161 176.201,176.602         " data-fill="#636462"></polygon>
            <path fill="none" stroke="#A7A6A5" stroke-width="1.5735" stroke-linecap="round" stroke-linejoin="round" stroke-miterlimit="10" d="
                M76.861,214.356c-0.99,0-10.398-2.502-10.398-2.502s-2.12,0.588-3.109,4.756c-0.989,4.166-1.732,8.334-1.732,8.334" data-stroke="#A7A6A5"></path>
            <path fill="#555755" d="M66.19,209.965v7.777l6.63,0.834l3.315-8.334C76.136,210.243,70.886,207.465,66.19,209.965z" data-fill="#555755"></path>
            <ellipse fill="#6A6C6E" cx="108.318" cy="230.613" rx="12.665" ry="12.736" data-fill="#6A6C6E"></ellipse>
            <rect x="56.005" y="184.102" fill="#909092" width="6.354" height="9.168" data-fill="#909092"></rect>
            <rect x="56.834" y="185.215" fill="#909092" width="9.118" height="6.389" data-fill="#909092"></rect>
            <rect x="156.305" y="185.215" fill="#909092" width="9.119" height="6.389" data-fill="#909092"></rect>
            <rect x="147.837" y="185.215" fill="#909092" width="9.118" height="6.389" data-fill="#909092"></rect>
            <rect x="161.141" y="183.686" fill="#909092" width="6.355" height="9.168" data-fill="#909092"></rect>
            <path fill="#717476" d="M135.085,282.274H81.55c-1.027,0-1.964-0.465-2.412-1.195c-0.449-0.734-0.331-1.604,0.304-2.246
                l25.973-26.211c0.5-0.504,1.259-0.803,2.068-0.812c0.785,0.021,1.58,0.272,2.099,0.765l27.563,26.211
                c0.668,0.635,0.813,1.521,0.369,2.266C137.072,281.797,136.126,282.274,135.085,282.274z M87.069,278.02h42.285l-21.771-20.703
                L87.069,278.02z" data-fill="#717476"></path>
            <polygon fill="#6A6C6E" points="170.12,281.34 154.924,281.061 157.688,268.004 169.016,269.672       " data-fill="#6A6C6E"></polygon>
            <polygon fill="#6A6C6E" points="50.202,281.34 65.398,281.061 62.636,268.004 51.307,269.672      " data-fill="#6A6C6E"></polygon>
            <ellipse fill="#9A9C9E" cx="181.436" cy="207.426" rx="1.244" ry="1.527" data-fill="#9A9C9E"></ellipse>
            <ellipse fill="#9A9C9E" cx="185.581" cy="206.731" rx="1.243" ry="1.527" data-fill="#9A9C9E"></ellipse>
        </g>
        <polygon fill="#727174" points="188.309,280.073 190.262,274.182 201.197,273.004 202.654,281.485     " data-fill="#727174"></polygon>
    </g>
</svg>