<svg version="1.1" id="Layer_1" xmlns="http://www.w3.org/2000/svg" xmlns:xlink="http://www.w3.org/1999/xlink" x="0px" y="0px" width="256.486px" height="271.486px" viewBox="0 0 256.486 271.486" enable-background="new 0 0 256.486 271.486" xml:space="preserve" class="parent">
    <g id="fuchair11" xmlns="http://www.w3.org/2000/svg">
        <line fill="none" stroke="#4A4D4F" stroke-width="4" stroke-linecap="round" stroke-linejoin="round" stroke-miterlimit="10" x1="102.098" y1="206.836" x2="96.106" y2="248.241" data-stroke="#4A4D4F"></line>
        <line fill="none" stroke="#4A4D4F" stroke-width="4" stroke-linecap="round" stroke-linejoin="round" stroke-miterlimit="10" x1="150.041" y1="206.836" x2="156.033" y2="248.241" data-stroke="#4A4D4F"></line>
        <g>
            <path fill="none" stroke="#4A4D4F" stroke-width="3.7324" stroke-miterlimit="10" d="M96.284,204.01
                c0,0-28.53-72.062-4.677-73.145c23.716-1.075,38.229,0.098,38.229,0.098s8.085,0.313,7.276,19.73
                c-0.866,20.832,2.955,52.224,2.955,52.224L96.284,204.01z" data-stroke="#4A4D4F"></path>
            <path fill="#6A6C6E" d="M141.561,152.391c0-0.027,0.257-1.902,0.257-1.938c0.741-22.313-8.551-22.67-8.551-22.67
                s-16.688-1.341-43.942-0.117c-8.067,0.363-11.882,15.119-11.247,23.313C78.818,157.564,140.967,156.111,141.561,152.391z" data-fill="#6A6C6E"></path>
            <g>
                <g>
                    <rect x="94.798" y="200.281" fill="#4A4D4F" width="60.836" height="10.996" data-fill="#4A4D4F"></rect>
                </g>
                <g>
                    <rect x="94.798" y="200.281" fill="#6A6C6E" width="60.836" height="10.996" data-fill="#6A6C6E"></rect>
                </g>
            </g>
        </g>
    </g>
    <g id="fhb1" xmlns="http://www.w3.org/2000/svg" class="avatar-hair-back">
        <path id="fillHairColorBase_9_" display="inline" fill="#3D383A" d="M70.938,102.007c-1.491-17.29-4.216-35.321,1.396-52.188
            c4.478-13.438,19.23-18.966,31.655-21.063c33.719-5.671,47.637,22.08,52.733,61.89c1.314,10.313,3.848,35.331,0.021,49.566
            c-26.928-3.809-43.371-5.417-60.039,8.328c-3.057-5.135-7.271-14.376-7.94-20.663c0.67,6.284,3.546,16.379,6.604,21.524
            c-1.928,1.59-3.803,3.348-5.622,5.309C79.273,143.075,72.21,116.752,70.938,102.007z" data-fill="hair-color_base"></path>
    </g>
    <g id="fust11" xmlns="http://www.w3.org/2000/svg">
        <g>
            <path id="fillSkinColorBase_24_" fill="#F9D7B9" d="M191.032,99.133c0,0-20.907,21.242-58.657,22.492l5.75,11.25
                c0,0,41.896-6.601,59.492-30.723C197.617,102.152,194.303,100.017,191.032,99.133z" data-fill="skin-color_base"></path>
            <g>
                <g>
                    <path id="fillSkinColorBase_27_" fill="#F9D7B9" d="M188.409,101.12c0.045-0.411,0.165-1.294,0.173-1.334
                        c0.002-0.021,0.01-0.045,0.009-0.07c0.184-0.977,0.997-4.438,1.069-4.61c0.492-1.188,1.988-4.75,1.455-3.575
                        c-0.312,0.676-0.084-0.327,1.313-2.013c0.464-0.559,1.003-1.352,1.729-1.604c0.509-0.183,1.074-0.165,1.563,0.042
                        c0.92,0.387,1.548,1.623,0.948,2.525c-0.508,0.761-0.86,1.646-1.465,2.349c-0.229,0.262,0.027,0.946,0.104,1.213
                        c0.104,0.435,0.229,0.825,0.603,1.122c0.317,0.253,0.729,0.396,1.11,0.534c1.585,0.588,3.338,0.367,5.004,0.184
                        c1.34-0.146,2.671-0.398,3.939-0.844c0.688-0.233,1.352-0.532,1.962-0.896c2.58-1.533,5.228,2.021,2.621,3.573
                        c-2.562,1.525-5.721,2.188-8.729,2.418c0.557,2.707,0.502,3.101,0.074,5.354c-0.246,1.293-0.278,1.139-1.325,2.799
                        c-4.075-0.563-10.448-1.521-11.229-2.589c-0.845-1.148-1.021-2.371-0.989-3.771C188.362,101.653,188.379,101.389,188.409,101.12
                        z" data-fill="skin-color_base"></path>
                    <path id="fillSkinColorBase_26_" fill="#F9D7B9" d="M201.815,100.542c2.813-0.062,5.67-0.057,8.396-0.896
                        c2.91-0.906,4.084,3.313,1.199,4.215c-3.104,0.969-6.396,1.006-9.604,1.082C198.765,105.007,198.785,100.614,201.815,100.542z" data-fill="skin-color_base"></path>
                    <path id="fillSkinColorBase_25_" fill="#F9D7B9" d="M198.387,105.021c0.776-0.729,1.854-0.582,2.648,0.013
                        c1.396,1.034,3.956,1.358,5.646,1.036c2.354-0.448,3.369,2.917,0.996,3.367c-3.146,0.602-6.771-0.074-9.309-1.95
                        C197.58,106.891,197.727,105.632,198.387,105.021z" data-fill="skin-color_base"></path>
                </g>
            </g>
        </g>
        <g>
            <path id="fillSkinColorBase_28_" fill="#E5C7AC" d="M190.636,108.55c0.855-0.67,1.718-1.347,2.549-2.05
                C192.176,106.77,191.307,107.384,190.636,108.55z" data-fill="skin-color_base"></path>
            <path id="fillSkinColorShade_10_" fill="#E5C7AC" d="M190.636,108.55c-0.232,0.413-0.45,0.896-0.643,1.45
                C190.186,109.442,190.399,108.962,190.636,108.55c-15.146,11.771-34.927,18.406-54.104,21.227l1.587,3.104
                c0,0,36.977-5.827,56.041-26.531c-0.34,0.021-0.668,0.072-0.979,0.156C192.354,107.203,191.498,107.88,190.636,108.55z" data-fill="skin-color_shade"></path>
            <g>
                <g>
                    <path id="fillSkinColorShade_13_" fill="#E5C7AC" d="M192.292,106.852c0.121,0.021,0.24,0.059,0.366,0.087
                        c0.172-0.146,0.339-0.291,0.51-0.438C192.864,106.587,192.57,106.699,192.292,106.852z" data-fill="skin-color_shade"></path>
                    <path id="fillSkinColorShade_11_" fill="#E5C7AC" d="M193.168,106.504c-0.171,0.146-0.338,0.292-0.51,0.438
                        c2.376,0.542,5.537,1.005,7.919,1.334c0.146-0.24,0.271-0.438,0.389-0.608C198.069,106.918,195.301,105.925,193.168,106.504z" data-fill="skin-color_shade"></path>
                    <path id="fillSkinColorShade_12_" fill="#E5C7AC" d="M197.928,106.852c0.085,0.244,0.229,0.468,0.447,0.636
                        c2.526,1.876,6.161,2.552,9.309,1.95c1.104-0.21,1.476-1.06,1.312-1.854C205.522,109.305,201.467,107.749,197.928,106.852z" data-fill="skin-color_shade"></path>
                </g>
            </g>
        </g>
        <path id="fillSkinColorBase_23_" fill="#F9D7B9" d="M131.311,121.437l-6.563-0.543l-0.424-6.729l-11.938,2.038l1.059,6.937
            l-8.873,5.857c0,0,1.654,19.736,19.334,15.318c9.938-2.481,13.714-5.231,14.341-9.649
            C137.196,129.857,134.438,125.249,131.311,121.437z" data-fill="skin-color_base"></path>
        <path id="fillSkinColorShade_9_" fill="#E1C3A9" d="M124.727,120.197l-0.336-5.327l-11.938,2.038l0.616,4.042
            C117.674,123.222,121.33,123.155,124.727,120.197z" data-fill="skin-color_shade"></path>
    </g>
    <g id="fsh1_x5F_bl" xmlns="http://www.w3.org/2000/svg" class="avatar-shoes">
        <path id="fillShoesColorBase_3_" display="inline" fill="#535763" d="M171.156,244.576l5.002,0.416
            c0.866,0.26,1.73,0.512,2.604,0.76c1.209,0.351,2.525,0.401,3.571,1.17c0.942,0.69,2.104,2.189,0.482,2.863
            c0,0-2.501,1.042-7.918,0.625c-5.418-0.416-10.896-1.634-14.348-1.25c0,0-0.825-2.409-0.363-4.729L171.156,244.576z" data-fill="shoes-color_base"></path>
        <path id="fillShoesColorTint" display="inline" fill="#7C7B83" d="M177.328,247.385c-1.313-0.783-1.438-1.573-0.959-2.325
            c0.797,0.231,1.595,0.475,2.396,0.69c1.209,0.351,2.525,0.401,3.571,1.17c0.191,0.146,0.396,0.315,0.574,0.517
            C181.054,249.175,179.191,248.008,177.328,247.385z" data-fill="shoes-color_tint"></path>
        <path id="fillShoesColorTint_1_" display="inline" fill="#84809E" d="M183.59,249.069c-0.087,0.271-0.312,0.521-0.766,0.716
            c0,0-2.501,1.042-7.918,0.625c-5.418-0.416-10.896-1.634-14.343-1.25c0,0-0.104-0.291-0.21-0.762
            C168.223,247.771,175.649,252.292,183.59,249.069z" data-fill="shoes-color_tint"></path>
        <path id="fillSkinColorBase_16_" display="inline" fill="#F9D7B9" d="M168.177,237.846c0.761,1.146,1.771,3.977,2.854,4.693
            c1.771,1.188,3.771,2.089,5.723,2.896c-2.259,2.604-6.438,1.652-9.379,1.104c-0.465-0.088-7.188-1.643-7.132-1.9
            c0-0.007,1.215-7.269,1.229-7.322c0.007-0.029,3.095-3.604,3.479-3.618C166.35,233.64,167.512,236.841,168.177,237.846z" data-fill="skin-color_base"></path>
        <path id="fillShoesColorBase_2_" display="inline" fill="#535763" d="M135.528,243.667l3.162,5.87
            c0.334,0.854,0.938,1.881,1.285,2.729c0.521,1.249,1.471,2.456,1.312,3.94c-0.146,1.402-1.287,2.319-2.696,2.12
            c-3.388-0.474-6.034-3.641-7.826-6.304c-1.325-1.979-2.533-4.041-3.479-6.229c-0.521-1.208-2.329-4.806-1.351-6.063
            c0,0,0.944-1.065,3.264-2.428L135.528,243.667z" data-fill="shoes-color_base"></path>
        <path id="fillShoesColorTint_3_" display="inline" fill="#7C7B83" d="M138.69,249.537l-0.408-0.758
            c-1.498-0.104-3.072,0.012-4.281,1.221c-0.496,0.496-0.271,1.786-0.104,2.373c0.543,1.97,2.144,3.023,4.124,3.148
            c0.683,0.037,1.363,0.021,2.021-0.188c0.528-0.171,1.162-0.146,0.996-0.842c-0.188-0.771-0.749-1.497-1.056-2.234
            C139.631,251.418,139.024,250.389,138.69,249.537z" data-fill="shoes-color_tint"></path>
        <path id="fillShoesColorTint_2_" display="inline" fill="#84809E" d="M126.078,239.584c-0.093,0.092-0.146,0.15-0.146,0.15
            c-0.979,1.266,0.817,4.854,1.351,6.063c0.941,2.188,2.15,4.253,3.479,6.229c1.792,2.663,4.438,5.83,7.824,6.304
            c1.099,0.154,2.021-0.367,2.448-1.261C136.388,261.322,127.24,247.836,126.078,239.584z" data-fill="shoes-color_tint"></path>
        <path id="fillSkinColorBase_15_" display="inline" fill="#F9D7B9" d="M135.586,240.631c0.84,2.646,1.732,4.98,2.523,7.624
            c0.365,1.236,1.188,3.523-0.364,4.063c-3.884,1.339-5.584-1.385-6.946-3.821c-1.435-2.572-4.312-7.238-2.735-10.354
            c0.001-0.003,3.271-2.962,3.317-3c2.109-0.502,3.771,0.646,4.563,2.563C136.052,237.983,135.497,240.349,135.586,240.631z" data-fill="skin-color_base"></path>
    </g>
    <g id="flg1" xmlns="http://www.w3.org/2000/svg">
        <path id="fillSkinColorBase_12_" display="inline" fill="#F9D7B9" d="M138.386,185.279c-1.854-4.412-1.803-4.979-2.151-5.598
            c-0.523,0.058-7.147,0.021-13.94-0.043l0,0c-0.021,0-0.042,0-0.062,0c-0.021,0-0.043,0-0.063,0l0,0
            c-6.793,0.062-13.417,0.101-13.938,0.043c-0.356,0.607-0.297,1.186-2.152,5.598c-1.604,3.801-3,9.729-1.556,13.888
            c1.182,3.384,7.537,4.521,10.143,4.63c3.267,0.143,5.265,0.338,7.563,0.156c2.305,0.182,4.286-0.068,7.548-0.203
            c2.604-0.104,8.993-1.199,10.173-4.583C141.387,195.008,139.987,189.08,138.386,185.279z" data-fill="skin-color_base"></path>
        <path id="fillSkinColorBase_11_" display="inline" fill="#F9D7B9" d="M133.756,179.666c0,0,27.531,6.396,30.229,8.646
            c2.693,2.254,4.438,50.109,4.438,50.109s-4.504,1.804-6.908-0.988l-8.619-35.785l-24.152-2.836
            C128.736,198.811,124.756,185.916,133.756,179.666z" data-fill="skin-color_base"></path>
        <path id="fillSkinColorShade_5_" display="inline" fill="#EDCDB2" d="M161.486,187.133c-7.448-2.758-27.729-7.467-27.729-7.467
            c-9,6.25-5.021,19.146-5.021,19.146l24.152,2.836l0.104,0.438c0-0.021,0.002-0.059,0.002-0.086
            C151.435,195.739,155.382,188.867,161.486,187.133z" data-fill="skin-color_shade"></path>
        <path id="fillSkinColorBase_10_" display="inline" fill="#F9D7B9" d="M114.761,186.723c0,0,36.058,0.213,39.23,3.604
            c3.187,3.399-18.367,49.146-18.367,49.146s-2.875,2.599-5.475-3.104l5.575-32.457l-24.313-0.55
            C111.422,203.375,105.761,192.973,114.761,186.723z" data-fill="skin-color_base"></path>
        <path id="fillSkinColorShade_4_" display="inline" fill="#E7C8AD" d="M114.761,186.723c-9,6.25-3.346,16.646-3.346,16.646
            l24.313,0.55l-0.558,3.203c5.604-7.271,11.418-13.724,19.104-16.043c-0.046-0.338-0.142-0.591-0.29-0.75
            C150.813,186.936,114.761,186.723,114.761,186.723z" data-fill="skin-color_shade"></path>
    </g>
    <g id="flo1" xmlns="http://www.w3.org/2000/svg" class="avatar-clothes-lower">
        <path id="fillClothesLowerColorBase_3_" display="inline" fill="#45474E" d="M138.386,185.279
            c-1.854-4.412-1.803-4.979-2.151-5.598c-0.523,0.058-7.147,0.021-13.94-0.043l0,0c-0.021,0-0.042,0-0.062,0
            c-0.021,0-0.043,0-0.063,0l0,0c-6.793,0.062-13.417,0.101-13.938,0.043c-0.356,0.607-0.297,1.186-2.152,5.598
            c-1.604,3.801-3,9.729-1.556,13.888c1.182,3.384,7.467,4.696,10.063,4.813c3.268,0.137,5.35,0.354,7.646,0.17
            c2.305,0.186,4.387-0.033,7.646-0.17c2.604-0.105,8.894-1.43,10.063-4.813C141.387,195.008,139.987,189.08,138.386,185.279z" data-fill="clothes-lower-color_base"></path>
        <path id="fillClothesLowerColorBase_2_" display="inline" fill="#45474E" d="M133.756,179.666c0,0,27.531,6.396,30.229,8.646
            c2.693,2.254,4.594,49.674,4.594,49.674s-5.502,1.979-7.911-0.813l-7.771-35.522l-24.152-2.836
            C128.736,198.811,124.756,185.916,133.756,179.666z" data-fill="clothes-lower-color_base"></path>
        <path id="fillClothesLowerColorBase_1_" display="inline" fill="#45474E" d="M114.761,186.723c0,0,36.058,0.213,39.23,3.604
            c3.187,3.399-18,49.657-18,49.657s-2.721,0.449-7.086-3.217l6.813-32.854l-24.313-0.258
            C111.424,203.667,105.761,192.973,114.761,186.723z" data-fill="clothes-lower-color_base"></path>
    </g>
    <g id="fup1" xmlns="http://www.w3.org/2000/svg" class="avatar-clothes-upper">
        <path id="fillClothesUpperColorBase_13_" display="inline" fill="#D6453F" d="M148.414,119.334
            c-2.161,0.737-7.801,0.685-15.146,1.462c0,0-1.229,3.732,0.292,7.224c1.729,3.978,4.806,8.291,4.806,8.291
            s5.249-0.873,14.079-3.722C151.945,127.998,150.076,121.704,148.414,119.334z" data-fill="clothes-upper-color_base"></path>
        <path id="fillClothesUpperColorShade_17_" display="inline" fill="#C33E39" d="M135.654,132.065
            c1.394,2.389,2.708,4.233,2.708,4.233s5.249-0.868,14.079-3.717c-0.072-0.67-0.178-1.38-0.305-2.104
            C146.832,132.437,141.129,132.828,135.654,132.065z" data-fill="clothes-upper-color_shade"></path>
        <path id="fillClothesUpperColorBase_14_" display="inline" fill="#D6453F" d="M144.615,138.34
            c-0.997-2.652-8.316-13.708-10.733-17.478c-2.646-0.256-3.301-0.063-7.227,0.056c2.372,3.162,4.93,13.373,0.769,16.568
            c-7.763-2.46-12.944-7.485-16.301-13.069c-4.479,2.898-12.095,6.229-13.405,7.815c2.493,3.599,4.813,8.45,6.948,12.434
            c5.29,9.836,4.333,20.668,1.5,33.5c0,0-1.271,2.32-1.354,2.46c-0.417,0.717,6.271,3.646,6.927,3.823
            c2.809,0.781,5.801,0.799,8.685,0.537c5.61-0.512,12.074-2.041,17.104-4.637c-0.813-3.127-1.966-5.691-1.964-9.141
            c0.002-3.498,0.607-10.479,3.851-12.875C144.528,154.548,148.606,147.115,144.615,138.34z" data-fill="clothes-upper-color_base"></path>
        <path id="fillClothesUpperColorShade_16_" display="inline" fill="#C33E39" d="M136.458,163.699
            c0.575-2.229,1.543-4.354,3.021-5.444c3.854-2.854,7.051-7.65,6.729-13.647c-0.104,0.941-0.126,1.329-0.354,2.271
            c-2,12.334-8.519,8.121-13.185,8.121c-7.609,0-4.837,9.729-24.171,2.063c-0.021-0.021-0.216-0.063-0.229-0.076
            c0.217,2.104,0.31,4.256,0.146,6.418C116.119,168.193,127.245,166.339,136.458,163.699z" data-fill="clothes-upper-color_shade"></path>
        <path id="fillClothesUpperColorShade_15_" display="inline" fill="#B03833" d="M128.252,143.492l1.187-5.834l-4.21-1.123
            l-4.245-4.259l-0.127,0.08l-6.104-8.45l-1.688-3.087l-4.21,4.771c1.787,4.271,5.933,14.604,5.933,14.604l6.761-4.717l3.245,2.885
            l3.336,0.047L128.252,143.492z" data-fill="clothes-upper-color_shade"></path>
        <path id="fillClothesUpperColorTint_4_" display="inline" fill="#D6453F" d="M120.825,133.355l-6.001,4.549
            c0,0-2.231-6.701-5.319-12.127l3.368-4.116L120.825,133.355z" data-fill="clothes-upper-color_tint"></path>
        <polygon id="fillClothesUpperColorShade_14_" display="inline" fill="#B03833" points="127.274,137.449 128.31,134.384 
            124.742,119.374 127.908,120.984 138.969,135.784 129.993,133.074 128.178,138.812     " data-fill="clothes-upper-color_shade"></polygon>
        <polygon id="fillClothesUpperColorTint_3_" display="inline" fill="#D6453F" points="125.158,119.921 128.778,131.952 
            136.916,134.478 127.799,121.206     " data-fill="clothes-upper-color_tint"></polygon>
        <path id="fillSkinColorBase_9_" display="inline" fill="#F9D7B9" d="M145.402,188.779c-2.137-2.506-5.681-4.055-9.021-4.188
            c-0.188-0.008-0.354,0.02-0.52,0.044c-2.521-1.463-5.671-2.508-7.443-3.021c-0.227-0.191-0.466-0.381-0.729-0.565
            c-9.667-6.667-14.518-6.684-20.784-12.264c-1.336-5.334,0.244-22.594,0.466-27.529c0.387-8.75-10.863-14.75-11.113-2.25
            c-0.104,5.387-0.501,29.379,2.76,34.271c6.521,9.791,13.396,9.021,24.192,14.5c0.129,0.062,0.255,0.121,0.381,0.179l-0.146,0.29
            c1.896,1.594,4.683,3.537,8.118,4.729c1.229,0.978,2.391,2.392,2.736,3.699c0.272,1.007,1.063,1.819,2.177,1.731
            c0.938-0.074,1.873-1.016,1.604-2.021c-0.313-1.153-0.854-2.274-1.56-3.313c0.748,0.68,1.378,1.461,1.688,2.245
            c0.384,0.969,1.264,1.686,2.361,1.467c0.923-0.187,1.74-1.229,1.354-2.201c-0.771-1.927-2.198-3.666-3.935-4.982
            c0.219-0.314,0.418-0.646,0.598-0.972c1.368,0.402,2.749,1.115,3.527,2.034c0.673,0.797,1.728,1.199,2.702,0.646
            C145.63,190.828,146.076,189.58,145.402,188.779z" data-fill="skin-color_base"></path>
        <path id="fillSkinColorShade_3_" display="inline" fill="#E5C7AC" d="M106.555,154.716c0.257-5.548,0.693-11.021,0.811-13.466
            c0.387-8.75-10.863-14.75-11.113-2.25c-0.048,2.405-0.146,8.526,0.037,14.998C99.615,154.605,103.135,155.193,106.555,154.716z" data-fill="skin-color_shade"></path>
        <path id="fillClothesUpperColorBase_12_" display="inline" fill="#D6453F" d="M110,152.5c-0.251-5.521-1.616-12.633-1.583-15.084
            c0.101-7.104-11.667-8.841-12.917-1.666c-0.396,2.311-0.419,11.243-2,16.25C96.635,153.6,106.987,153.4,110,152.5z" data-fill="clothes-upper-color_base"></path>
    </g>
    <g id="fhd1" xmlns="http://www.w3.org/2000/svg" class="avatar-head">
        <g>
            <path id="fillSkinColorBase" fill="#F9D7B9" d="M139.497,58.669c3.135,8.771,5.354,18.065,5.215,27.333
                c-0.125,8.952-2.342,17.687-9.436,23.689c-4.623,3.915-11.088,6.139-17.023,7.046c-43.993,6.778-39.837-48.816-39.837-48.816
                s-0.294-21.789,27.99-26.673c12.048-2.077,26.459,0.499,31.465,13.107C138.434,55.781,138.977,57.218,139.497,58.669z" data-fill="skin-color_base"></path>
            <path id="fillSkinColorBase_1_" fill="#F9D7B9" d="M144.01,72.567c-0.227-0.148-0.479-0.341-0.74-0.562
                c0.916,5.646,1.178,11.491,1.041,17.307C156.171,79.321,144.01,72.567,144.01,72.567z" data-fill="skin-color_base"></path>
            <path id="fillSkinColorBase_2_" fill="#F9D7B9" d="M79.023,82.766c0.168-0.21,0.352-0.478,0.539-0.764
                c0.854,5.655,2.396,11.305,4.308,16.788C69.514,92.92,79.023,82.766,79.023,82.766z" data-fill="skin-color_base"></path>
        </g>
    </g>
    <g id="fey1" xmlns="http://www.w3.org/2000/svg" class="avatar-eyes">
        <path fill="#543318" d="M133.514,76.807c0.422,2.718-1.186,5.225-3.58,5.602c-2.396,0.373-4.688-1.528-5.108-4.247
            s1.183-5.225,3.58-5.598C130.805,72.187,133.093,74.089,133.514,76.807z" data-fill="#543318"></path>
        <path fill="#543318" d="M100.54,81.81c0.422,2.718-1.183,5.225-3.581,5.602c-2.396,0.373-4.687-1.527-5.104-4.248
            c-0.422-2.718,1.184-5.224,3.578-5.597C97.83,77.191,100.117,79.092,100.54,81.81z" data-fill="#543318"></path>
    </g>
    <g id="fmo1" xmlns="http://www.w3.org/2000/svg" class="avatar-mouth">
        <path fill="none" stroke="#816951" stroke-width="2.0555" stroke-linecap="round" stroke-linejoin="round" stroke-miterlimit="10" d="
            M108.991,103.69c0,0,5.857,2.012,13.56-2.199" data-stroke="#816951"></path>
    </g>
    <g id="feb1" xmlns="http://www.w3.org/2000/svg" class="avatar-eyebrows">
        <path id="fillEyebrowColorBase_2_" fill="#816951" d="M87.634,73.256c-0.281,0.045-0.592-0.024-0.824-0.229
            c-0.437-0.37-0.48-1.021-0.109-1.45c4.986-5.825,13.378-2.972,13.733-2.849c0.529,0.187,0.813,0.771,0.63,1.308
            c-0.188,0.535-0.771,0.818-1.312,0.632c-0.076-0.021-7.43-2.504-11.499,2.246C88.088,73.103,87.866,73.219,87.634,73.256z" data-fill="eyebrow-color_base"></path>
        <path id="fillEyebrowColorBase_3_" fill="#816951" d="M134.014,65.794c-0.24,0.038-0.494-0.009-0.721-0.146
            c-5.274-3.396-11.593,1.103-11.651,1.146c-0.46,0.333-1.104,0.232-1.438-0.229c-0.333-0.459-0.229-1.104,0.229-1.438
            c0.306-0.221,7.522-5.354,13.974-1.215c0.479,0.306,0.617,0.943,0.313,1.42C134.555,65.591,134.294,65.75,134.014,65.794z" data-fill="eyebrow-color_base"></path>
    </g>
    <g id="fhf1" xmlns="http://www.w3.org/2000/svg" class="avatar-hair-front">
        <path id="fillHairColorBase_6_" display="inline" fill="#3D383A" d="M127.469,38.853l-0.398,0.868
            c-18.806-7.97-33.956-2.466-42.434,6.197c-15.994,16.35-7.554,35.252-7.554,35.252c13.866-3.946,25.031-11.354,33.409-18.768
            c-0.438,4.978-2.086,9.804-2.086,9.804c7.056-6.146,11.234-15.729,13.189-21.252c1.507-1.811,2.787-3.471,3.844-4.91
            c1.224,4.001,4.721,13.772,10.561,17.108c0,0-2.246-5.721-1.82-9.499c0,0,2.213,14.576,9.084,18.352
            C143.264,72.01,147.563,46.496,127.469,38.853z" data-fill="hair-color_base"></path>
    </g>
</svg>