<svg version="1.1" id="playing_drums" xmlns="http://www.w3.org/2000/svg" xmlns:xlink="http://www.w3.org/1999/xlink" x="0px" y="0px" width="240px" height="319.333px" viewBox="0 0 240 319.333" enable-background="new 0 0 240 319.333" xml:space="preserve" class="parent">
    <g id="cchair11" xmlns="http://www.w3.org/2000/svg">
        <path fill="#91918F" d="M143.697,276.674l-16.563-12.213v-32.906c0-1.377-1.114-2.493-2.491-2.493s-2.494,1.116-2.494,2.493v32.9
            l-16.166,11.813c-1.111,0.813-1.354,2.373-0.541,3.479c0.488,0.668,1.247,1.021,2.015,1.021c0.511,0,1.026-0.156,1.47-0.479
            l13.361-9.771l0.251,8.613c0.039,1.354,1.146,2.422,2.49,2.422c0.023,0,0.05,0,0.072-0.002c1.377-0.039,2.461-1.188,2.42-2.563
            l-0.238-8.231l13.453,9.927c0.445,0.323,0.965,0.479,1.479,0.479c0.766,0,1.521-0.354,2.01-1.015
            C145.042,279.053,144.807,277.493,143.697,276.674z" data-fill="#91918F"></path>
        <g id="Layer_7">
            <rect x="100.426" y="222.131" fill="#6A6C6E" width="42.965" height="10.996" data-fill="#6A6C6E"></rect>
        </g>
    </g>
    <g id="mbo1_1_" xmlns="http://www.w3.org/2000/svg">
        <path id="fillSkinColorBase_7_" display="inline" fill="#F9D7B9" d="M180.906,145.096c0,0,16.434-30.726,19.432-38.962
            c-2.117-5.21-7.85-4.26-7.85-4.26c-8.635,13.438-16.559,31.182-16.559,31.182l-31.85,7.223l-3.046-1.895l-8.604-3.454l-3.063-1.46
            l-0.012-1.175l-0.063-8.906c-4.867,1.104-9.736,1.502-14.604-0.137l-0.406,10.593l-0.802,0.168c0.007-0.023,0.01-0.047,0.017-0.07
            l-14.363,2.566c0,0-0.028,0.143-0.078,0.413l-30.7-9.718c0,0-10.386-13.389-17.982-27.445l-3.169-4.145
            c0,0-4.317,0.614-6.398,1.617c0.87,8.447,11.812,29.034,20.355,37.289c5.997,5.793,26.664,12.29,36.15,15.052
            c-0.582,5.711-1.058,12.875-0.973,20.642c0.315,28.965-2.481,34.313-2.513,35.55c-5.026,14.563,0.695,19.306,0.723,19.344
            l0.155,0.192l6.886,45.447c0,0,2.896,0.991,6.109,0.971c3.938-0.021,6.309-1.182,6.309-1.182l0.765-46.768l12.354-1.659
            l28.608,3.808l0.779,38.819c0.135,0.035,7.377,0.677,10.771-1.749c0.721-16.035,3.358-46.74,2.704-50.709
            c-4.704-0.59-29.922-4.898-32.979-5.423l-0.521-0.089c-0.146-0.506-0.271-1.051-0.385-1.635l-0.043-0.467c-0.018,0-0.022,0-0.039,0
            c-1.729-10.644,2.354-32.83,6.117-48.521L180.906,145.096z" data-fill="skin-color_base"></path>
        <path id="fillSkinColorShade_12_" display="inline" fill="#E3C5AB" d="M53.123,104.594c-0.935-1.592-1.859-3.203-2.74-4.833
            c0,0-3.723-2.826-7.168-2.97c-0.834-0.035-1.654,0.083-2.399,0.442c0.198,1.919,0.92,4.47,2.012,7.356
            c0.518,1.37,1.119,2.814,1.789,4.305C47.962,109.609,51.768,108.453,53.123,104.594z M192.712,101.847
            c-0.208,0.218-0.415,0.44-0.622,0.655c-0.488,0.772-0.972,1.567-1.455,2.359c1.473,3.107,4.124,5.156,7.957,5.418
            c0.758-1.669,1.364-3.096,1.746-4.145C198.465,101.527,193.773,101.736,192.712,101.847z M129.367,133.271l-0.063-9.882
            c-4.869,1.104-9.741,1.502-14.604-0.137l-0.391,8.725C114.592,132.727,125.949,136.43,129.367,133.271z" data-fill="skin-color_shade"></path>
        <path id="drumstick_1_" display="inline" fill="#C4CAD2" d="M194.868,47.489l9.448,74.608c0.121,0.953-0.555,1.824-1.508,1.945
            s-1.822-0.555-1.942-1.508c-0.003-0.01-0.005-0.029-0.005-0.039L193.12,47.69c-0.052-0.483,0.301-0.916,0.782-0.966
            C194.38,46.675,194.807,47.017,194.868,47.489z M61.435,50.146l-19.686,71.087c-0.251,0.907-1.192,1.44-2.1,1.188
            c-0.908-0.252-1.441-1.191-1.189-2.1c0.002-0.01,0.008-0.027,0.011-0.038l21.307-70.618c0.138-0.455,0.619-0.714,1.075-0.576
            C61.302,49.224,61.56,49.696,61.435,50.146z"></path>
        <path id="fillSkinColorBase_2_" display="inline" fill="#F9D7B9" d="M210.085,96.233c0.084,7.026-4.278,12.776-9.752,12.844
            c-5.476,0.068-9.979-5.575-10.063-12.603c-0.086-7.024,3.938-12.639,9.75-12.844C208.564,83.328,210.001,89.207,210.085,96.233z
            M37.107,94.308c-1.228,6.783,2.057,13.066,7.34,14.033c5.281,0.967,10.559-3.75,11.786-10.531
            c1.229-6.783-1.748-12.877-7.339-14.032C40.681,82.076,38.334,87.527,37.107,94.308z" data-fill="skin-color_base"></path>
        <path id="fillSkinColorShade_2_" display="inline" fill="#E3C5AB" d="M195.206,87.541c-0.754-0.359-0.281-1.102-0.668-1.748
            c-2.688,2.291-4.315,6.195-4.265,10.682c0.022,2.373,0.162,3.232,1.063,5.123C196.773,98.689,197.07,94.987,195.206,87.541z
            M52.919,88.354c0.788-0.224,0.453-1.019,0.932-1.581c2.231,2.66,3.167,6.706,2.383,11.037c-0.415,2.292-0.686,3.101-1.869,4.779
            C49.583,98.878,49.9,95.25,52.919,88.354z" data-fill="skin-color_shade"></path>
        <path id="fillSkinColorShade_1_" display="inline" fill="#CDA482" d="M190.999,95.261c-0.183,0-0.358-0.074-0.485-0.221
            c-0.229-0.268-0.203-0.674,0.063-0.906c0.082-0.071,8.297-7.062,18.446-3.42c0.336,0.121,0.513,0.488,0.392,0.824
            c-0.121,0.332-0.49,0.504-0.821,0.387c-9.457-3.396-17.097,3.113-17.173,3.18C191.298,95.21,191.148,95.261,190.999,95.261z
            M193.021,103.52c0.02-0.027,0.035-0.056,0.049-0.085c0.141-0.258,4.371-7.76,15.813-3.655c0.328,0.116,0.701-0.056,0.822-0.388
            c0.119-0.334-0.059-0.703-0.393-0.823c-12.664-4.542-17.352,4.194-17.396,4.282c-0.146,0.287-0.063,0.646,0.201,0.828
            c0.109,0.078,0.236,0.115,0.365,0.115C192.695,103.794,192.896,103.699,193.021,103.52z M56.235,96.382
            c0.269-0.222,0.308-0.619,0.086-0.887c-0.067-0.082-6.867-8.197-17.291-6.351c-0.343,0.062-0.572,0.388-0.511,0.731
            c0.061,0.342,0.391,0.571,0.731,0.51c9.67-1.713,16.032,5.834,16.095,5.91c0.125,0.15,0.306,0.229,0.488,0.229
            C55.977,96.526,56.118,96.479,56.235,96.382z M53.332,104.437c0.295-0.186,0.385-0.574,0.2-0.869
            c-0.055-0.087-5.587-8.73-16.064-6.873c-0.343,0.061-0.572,0.389-0.511,0.73c0.061,0.344,0.389,0.57,0.731,0.512
            c9.619-1.708,14.568,5.972,14.774,6.3c0.12,0.19,0.325,0.295,0.535,0.295C53.111,104.533,53.228,104.503,53.332,104.437z" data-fill="skin-color_shade"></path>
        <path id="fillSkinColorBase_1_" display="inline" fill="#F9D7B9" d="M194.952,93.503c-0.175,4.035-2.017,6.99-5.662,6.711
            c-2.422-0.185-1.828-2.586-1.647-6.617c0.178-4.032,1.771-7.364,4.188-7.258C194.255,86.445,195.132,89.472,194.952,93.503z
            M52.189,94.164c-0.486,3.932,0.813,7.094,4.386,7.426c2.372,0.221,2.188-2.199,2.677-6.129c0.485-3.932-0.51-7.416-2.873-7.713
            C54.016,87.451,52.678,90.235,52.189,94.164z" data-fill="skin-color_base"></path>
        <path display="inline" fill="#C4CAD2" d="M62.642,49.308c0,1.082-0.874,1.961-1.949,1.961c-1.075,0-1.948-0.879-1.948-1.961
            c0-1.079,0.873-1.957,1.948-1.957C61.768,47.351,62.642,48.229,62.642,49.308z M191.736,46.355
            c-0.057,1.081,0.767,2.005,1.839,2.063c1.075,0.062,1.993-0.767,2.055-1.848c0.063-1.08-0.767-2.004-1.84-2.064
            C192.718,44.447,191.798,45.274,191.736,46.355z" data-fill="#C4CAD2"></path>
    </g>
    <g id="mlo1" xmlns="http://www.w3.org/2000/svg" class="avatar-clothes-lower">
        <path id="fillClothesLowerColorBase_1_" display="inline" fill="#3D383A" d="M168.254,259.523c0,0-3.355,1.083-6.223,1.183
            c-4.023,0.146-6.137-0.926-6.137-0.926l-0.649-33.527l-28.091-3.396l-11.482,1.783l-0.757,47.424c0,0-3.369,0.763-7.255,0.92
            c-3.661,0.147-7.066-1.26-7.066-1.26l-6.977-46.011c0,0-6.347-5.002-0.612-21.039c5.908-0.637,43.838-1.021,43.838-1.021
            l0.204,2.216c0,0,31.986,5.479,33.498,5.479C171.982,211.342,168.43,255.368,168.254,259.523z" data-fill="clothes-lower-color_base"></path>
        <path id="fillClothesLowerColorShade" display="inline" fill="#575051" d="M116.761,218.946c2.007-0.213,2.836-2.98,2.813-5.385
            c-3.207-9.563-19.681-8.723-28.354-2.587c-0.799,3.962-0.723,6.976-0.291,9.21C98.768,214.944,107.698,215.311,116.761,218.946z" data-fill="clothes-lower-color_shade"></path>
    </g>
    <g id="mup1_3_" xmlns="http://www.w3.org/2000/svg" class="avatar-clothes-upper">
        <path id="fillClothesUpperColorBase_27_" display="inline" fill="#C74541" d="M156.656,135.769l-16.57,3.504l-2.095,20.062
            c0,0,10.753-2.781,19.792-3.455C156.93,151.102,157.495,140.793,156.656,135.769z M86.938,131.113l14.343,4.851l-0.727,18.423
            c0,0-9.122-0.631-17.157-1.643C83.008,148.413,84.107,135.384,86.938,131.113z" data-fill="clothes-upper-color_base"></path>
        <path id="fillClothesUpperColorShade_14_" display="inline" fill="#B03833" d="M138.423,155.2c4.71,0.123,9.048,0.67,13.64,1.327
            c-7.309,1.06-14.063,2.809-14.063,2.809L138.423,155.2z M100.68,151.197c-4.106,0.094-8.109,0.497-11.685,2.181
            c6.152,0.634,11.559,1.009,11.559,1.009L100.68,151.197z" data-fill="clothes-upper-color_shade"></path>
        <path id="fillClothesUpperColorBase_34_" display="inline" fill="#C74541" d="M95.5,170.917
            c-0.204-18.559,3.494-34.407,3.494-34.407l14.363-2.566c-0.48,5.725,2.644,15.252,4.685,15.035
            c0.106,0.041,9.274-4.881,13.917-14.416l8.938,3.821l5.854,3.283c-3.767,11.258-12.687,49.873-8.396,62.289
            c0.512,1.479-17.053,3.553-25.672,2.396c-1.605-0.221-0.431,0.416-18.104-1.457C91.147,203.917,95.924,209.807,95.5,170.917z" data-fill="clothes-upper-color_base"></path>
    </g>
    <g id="msh1_x5F_bl_1_" xmlns="http://www.w3.org/2000/svg" class="avatar-shoes">
        <path id="fillShoesColorBase_2_" display="inline" fill="#4F4E55" d="M168.218,262.989c0.052,0.243,15.679,3.492,15.679,3.492
            s2.773,2.323,0,3.293l-26.021,5.021l-1.347-6.282c0,0,4.179,0.047,6.248-1.019C164.852,266.417,168.218,262.989,168.218,262.989z" data-fill="shoes-color_base"></path>
        <polyline id="fillShoesColorTint_2_" display="inline" fill="#8C898D" points="186.148,268.766 156.604,274.553 157.454,276.875 
            186.402,270.782 186.471,268.611     " data-fill="shoes-color_tint"></polyline>
        <path id="fillSkinColorBase" display="inline" fill="#F9D7B9" d="M167.9,263.305c-0.362-0.186-0.604-0.318-0.604-0.318l0.063-1.852
            c0,0-7.907,1.8-10.842,2.348c-0.104,1.449,0.225,4.286,0.33,5.027c1.004-0.012,4.188-0.125,5.928-1.016
            C164.467,266.616,167.016,264.176,167.9,263.305z" data-fill="skin-color_base"></path>
    </g>
    <g id="mhd1" xmlns="http://www.w3.org/2000/svg" class="avatar-head">
        <g id="fillSkinColorBase_57_" data-fill="skin-color_base">
            <path id="fillSkinColorBase_41_" fill="#F9D7B9" d="M160.566,83.919c0.207,9.363-0.629,18.943-3.678,27.748
                c-2.943,8.507-7.812,16.136-16.438,19.619c-5.624,2.27-12.46,2.339-18.382,1.322C78.193,125.113,99.68,73.36,99.68,73.36
                s6.597-20.893,34.977-16.578c12.09,1.842,24.946,8.877,25.723,22.502C160.469,80.824,160.531,82.369,160.566,83.919z" data-fill="skin-color_base"></path>
            <path id="fillSkinColorBase_40_" fill="#F9D7B9" d="M160.463,98.619c-0.167-0.212-0.347-0.478-0.533-0.768
                c-0.912,5.68-2.507,11.343-4.47,16.847C169.871,108.927,160.463,98.619,160.463,98.619z" data-fill="skin-color_base"></path>
            <path id="fillSkinColorBase_39_" fill="#F9D7B9" d="M95.577,87.724c0.226-0.147,0.482-0.338,0.749-0.553
                c-0.97,5.671-1.289,11.548-1.209,17.394C83.35,94.398,95.577,87.724,95.577,87.724z" data-fill="skin-color_base"></path>
        </g>
    </g>
    <g id="mey1" xmlns="http://www.w3.org/2000/svg" class="avatar-eyes">
        <path fill="#543318" d="M149.166,99.076c-0.457,2.713-2.77,4.586-5.166,4.186c-2.391-0.401-3.965-2.929-3.506-5.642
            c0.457-2.713,2.771-4.585,5.164-4.183C148.053,93.837,149.623,96.363,149.166,99.076z" data-fill="#543318"></path>
        <path fill="#543318" d="M116.296,93.418c-0.456,2.713-2.771,4.585-5.165,4.186c-2.391-0.401-3.965-2.929-3.506-5.643
            c0.457-2.713,2.771-4.584,5.162-4.182C115.183,88.179,116.753,90.706,116.296,93.418z" data-fill="#543318"></path>
    </g>
    <g id="mmo1" xmlns="http://www.w3.org/2000/svg" class="avatar-mouth">
        <path display="inline" fill="none" stroke="#816951" stroke-width="2.0555" stroke-linecap="round" stroke-linejoin="round" stroke-miterlimit="10" d="
            M117.412,116.846c0,0,4.924,3.759,13.561,2.192" data-stroke="#816951"></path>
    </g>
    <g id="meb1" xmlns="http://www.w3.org/2000/svg" class="avatar-eyebrows">
        <path id="fillEyebrowColorBase_45_" display="inline" fill="#816951" d="M106.749,81.229c-0.286-0.048-0.551-0.216-0.712-0.483
            c-0.293-0.487-0.137-1.118,0.351-1.411c6.571-3.954,13.634,1.401,13.933,1.631c0.449,0.346,0.531,0.99,0.186,1.439
            c-0.345,0.449-0.99,0.533-1.439,0.188c-0.062-0.048-6.26-4.721-11.619-1.496C107.229,81.227,106.981,81.268,106.749,81.229z" data-fill="eyebrow-color_base"></path>
        <path id="fillEyebrowColorBase_44_" display="inline" fill="#816951" d="M153.115,88.784c-0.24-0.04-0.469-0.165-0.631-0.369
            c-3.939-4.883-11.354-2.612-11.426-2.587c-0.541,0.171-1.119-0.128-1.289-0.67c-0.172-0.541,0.129-1.119,0.67-1.29
            c0.354-0.113,8.834-2.71,13.644,3.257c0.358,0.441,0.288,1.089-0.153,1.445C153.693,88.761,153.395,88.831,153.115,88.784z" data-fill="eyebrow-color_base"></path>
    </g>
    <g id="mhf1" xmlns="http://www.w3.org/2000/svg" class="avatar-hair-front">
        <path id="fillHairColorBase_16_" display="inline" fill="#3D383A" d="M110.847,50.662c0.918-0.798,2.179-1.311,2.976-1.751
            c14.23-7.911,31.672-4.176,42.761,7.355c1.064,0.736,2.111,1.49,3.143,2.24c0.246,0.183,0.438,0.378,0.633,0.568
            c0.828,0.531,1.668,1.058,2.539,1.58c3.817,2.311,2.5,7.261-0.508,8.93c1.717,7.809,0.979,18.411-4.119,32.823l-0.138,0.438
            c0,0-1.034,2.051-0.807-0.943c0.206-2.72,1.896-19.339,0.146-25.877c-0.602,0.581-1.391,1.04-2.457,1.259
            c-16.096,3.339-35.083-0.211-48.352-10.371c-2.092,1.323-4.197,2.827-5.637,7.006c-1.774,8.188-3.086,19.794-4.373,19.628
            c-0.464-0.057-0.741-6.602-0.071-14.935C97.359,68.699,100.438,56.478,110.847,50.662z" data-fill="hair-color_base"></path>
    </g>
    <g id="mdrm1" xmlns="http://www.w3.org/2000/svg" class="avatar-instrument">
        <polygon fill="#565659" points="193.973,279.159 194.596,271.084 198.086,269.469 198.553,281.092     " data-fill="#565659"></polygon>
        <polyline fill="#727174" points="201.234,267.702 152.008,277.971 153.206,281.372 201.588,270.647 201.689,267.483    " data-fill="#727174"></polyline>
        <polyline fill="#727174" points="202.956,278.532 152.689,277.917 153.111,281.196 202.654,281.485 203.45,278.42  " data-fill="#727174"></polyline>
        <g>
            <path fill="none" stroke="#717476" stroke-width="9.4413" stroke-miterlimit="10" d="M72.789,187.829" data-stroke="#717476"></path>
            <path fill="none" stroke="#717476" stroke-width="9.4413" stroke-miterlimit="10" d="M59.478,187.829" data-stroke="#717476"></path>
            <path fill="#8E8D8A" d="M152.884,180.268c0.306,3.736-8.295,6.135-18.94,7.023c-10.646,0.891-19.111-0.158-19.419-3.896
                c-0.31-3.736,7.656-7.293,18.292-8.186C143.46,174.325,152.576,176.532,152.884,180.268z" data-fill="#8E8D8A"></path>
            <path fill="#636462" d="M152.803,180.598c0.23,2.809-8.214,5.805-18.859,6.693c-10.646,0.891-19.458-0.662-19.69-3.479
                c-0.23-2.813,8.214-5.81,18.854-6.688C143.75,176.237,152.572,177.792,152.803,180.598z" data-fill="#636462"></path>
            <path fill="none" stroke="#515251" stroke-width="1.3467" stroke-miterlimit="10" d="M148.764,181.872
                c0.139,1.695-6.535,3.635-14.908,4.336c-8.377,0.701-15.271-0.104-15.417-1.805c-0.139-1.693,6.667-3.246,15.042-3.947
                C141.85,179.756,148.625,180.176,148.764,181.872z" data-stroke="#515251"></path>
            <path fill="#8E8D8A" d="M108.109,184.104c-0.32,3.736-9.199,4.648-19.842,3.73c-10.645-0.92-18.824-3.387-18.504-7.123
                c0.32-3.736,8.764-5.896,19.41-4.979C99.814,176.657,108.435,180.372,108.109,184.104z" data-fill="#8E8D8A"></path>
            <path fill="#636462" d="M106.011,185.106c-0.207,2.387-7.716,3.688-16.771,2.906c-9.057-0.783-16.234-3.355-16.032-5.748
                c0.205-2.387,7.717-3.688,16.773-2.904C99.036,180.143,106.217,182.717,106.011,185.106z" data-fill="#636462"></path>
            <path fill="none" stroke="#515251" stroke-width="1.3467" stroke-miterlimit="10" d="M103.783,184.991
                c-0.146,1.695-7.051,2.479-15.423,1.76c-8.374-0.727-15.043-2.688-14.898-4.385c0.146-1.693,7.115-2.078,15.488-1.352
                C97.32,181.741,103.931,183.295,103.783,184.991z" data-stroke="#515251"></path>
            <path fill="#CFCFD0" stroke="#F4F3F3" stroke-width="0.4884" stroke-miterlimit="10" d="M68.418,181.069l0.1-2.125L70,179.028
                c0,0,3.284-3.703,19.359-2.301c13.432,1.17,15.459,3.029,18.476,5.52l1.129,0.107l-0.236,2.445l-1.403-0.58
                c0,0-3.709-4.152-17.951-4.963c-14.245-0.809-16.737,0.393-18.798,1.586l-0.427,0.439L68.418,181.069z" data-fill="#CFCFD0" data-stroke="#F4F3F3"></path>
            <path fill="#8E8D8A" d="M96.024,210.561c-0.272,3.561-7.856,4.43-16.943,3.555c-9.093-0.877-16.075-3.227-15.803-6.787
                c0.272-3.562,7.483-5.621,16.574-4.746C88.942,203.463,96.303,207.004,96.024,210.561z" data-fill="#8E8D8A"></path>
            <path fill="#636462" d="M95.914,210.862c-0.21,2.674-7.746,4.129-16.833,3.254c-9.093-0.877-16.292-3.758-16.091-6.438
                c0.206-2.672,7.744-4.131,16.832-3.252C88.913,205.305,96.118,208.188,95.914,210.862z" data-fill="#636462"></path>
            <path fill="none" stroke="#515251" stroke-width="1.215" stroke-miterlimit="10" d="M92.331,211.407
                c-0.126,1.613-6.021,2.363-13.172,1.678c-7.15-0.688-12.846-2.562-12.722-4.18c0.124-1.613,6.075-1.98,13.226-1.289
                C86.81,208.309,92.455,209.79,92.331,211.407z" data-stroke="#515251"></path>
            <path fill="#CFCFD0" stroke="#F4F3F3" stroke-width="0.4406" stroke-miterlimit="10" d="M62.129,207.668l0.085-2.025l1.267,0.08
                c0,0,2.804-3.529,16.532-2.193c11.469,1.115,13.2,2.889,15.777,5.26l0.963,0.104l-0.2,2.332l-1.199-0.558
                c0,0-3.168-3.955-15.33-4.729c-12.165-0.771-14.293,0.371-16.051,1.513l-0.365,0.42L62.129,207.668z" data-fill="#CFCFD0" data-stroke="#F4F3F3"></path>
            <line fill="none" stroke="#717476" stroke-width="4.3887" stroke-linecap="round" stroke-linejoin="round" stroke-miterlimit="10" x1="59.769" y1="187.829" x2="164.723" y2="187.829" data-stroke="#717476"></line>
            <g>
                <path fill="#605C5C" d="M183.755,143.465c2,4.574-5.021,12.109-15.681,16.829c-10.664,4.729-20.934,4.84-22.938,0.271
                    c-2-4.574,5.021-12.109,15.684-16.832C171.482,139.011,181.752,138.89,183.755,143.465z" data-fill="#605C5C"></path>
                <path fill="#9D9898" d="M183.951,143.379l0.003,0.006c0.428,0.992,0.419,2.133,0.151,3.146c-0.271,1.025-0.744,1.967-1.313,2.839
                    c-1.142,1.744-2.606,3.218-4.17,4.565c-3.146,2.685-6.752,4.742-10.481,6.455c-3.752,1.683-7.723,2.963-11.814,3.514
                    c-2.049,0.263-4.141,0.351-6.205,0.017c-1.029-0.174-2.059-0.457-3-0.961c-0.938-0.5-1.789-1.262-2.244-2.295
                    c-0.445-0.999-0.455-2.166-0.195-3.198c0.254-1.045,0.729-2.006,1.281-2.896c1.129-1.776,2.588-3.292,4.146-4.66
                    c3.146-2.709,6.729-4.886,10.521-6.539c3.795-1.644,7.789-2.892,11.917-3.383c2.063-0.229,4.162-0.282,6.229,0.085
                    c1.027,0.191,2.058,0.492,2.982,1.01C182.691,141.592,183.525,142.373,183.951,143.379z M183.559,143.549
                    c-0.396-0.891-1.156-1.58-2.021-2.038c-0.884-0.464-1.854-0.734-2.853-0.896c-1.992-0.315-4.041-0.226-6.055,0.038
                    c-4.027,0.546-7.957,1.793-11.673,3.454c-3.7,1.691-7.285,3.711-10.385,6.346c-1.54,1.317-2.979,2.779-4.075,4.462
                    c-0.54,0.842-0.995,1.744-1.236,2.696c-0.242,0.95-0.248,1.948,0.139,2.845c0.369,0.864,1.111,1.572,1.979,2.043
                    c0.857,0.479,1.842,0.771,2.83,0.944c1.984,0.351,4.051,0.295,6.066,0.063c4.063-0.486,8.021-1.705,11.771-3.328
                    c3.761-1.628,7.313-3.767,10.427-6.426c1.543-1.338,2.963-2.841,4.051-4.558c0.535-0.86,0.98-1.781,1.224-2.753
                    C183.973,145.473,183.963,144.45,183.559,143.549z" data-fill="#9D9898"></path>
            </g>
            <path fill="#4D4B4B" d="M178.503,145.79c1.456,3.33-3.655,8.814-11.417,12.25c-7.762,3.438-15.236,3.523-16.697,0.195
                c-1.455-3.332,3.655-8.816,11.418-12.252C169.566,142.547,177.043,142.459,178.503,145.79z" data-fill="#4D4B4B"></path>
            <path d="M171.221,148.54c0.711,1.627-1.785,4.303-5.574,5.984c-3.791,1.678-7.438,1.719-8.146,0.094
                c-0.711-1.629,1.776-4.307,5.567-5.984C166.857,146.956,170.508,146.913,171.221,148.54z"></path>
            <path fill="none" stroke="#000000" stroke-width="1.0886" stroke-miterlimit="10" d="M59.381,183.348" data-stroke="#000000"></path>
            <line fill="none" stroke="#717476" stroke-width="4.3887" stroke-linecap="round" stroke-linejoin="round" stroke-miterlimit="10" x1="59.381" y1="183.348" x2="58.016" y2="276.723" data-stroke="#717476"></line>
            <polygon fill="#B0ADAD" points="179.366,212.01 166.932,215.069 166.379,210.624 178.009,204.178 182.682,207.01       " data-fill="#B0ADAD"></polygon>
            <polygon fill="#C4C2C1" points="179.366,212.01 191.523,209.51 189.865,202.842 178.009,204.178       " data-fill="#C4C2C1"></polygon>
            <line fill="none" stroke="#717476" stroke-width="4.6365" stroke-linecap="round" stroke-linejoin="round" stroke-miterlimit="10" x1="164.506" y1="183.348" x2="162.74" y2="276.502" data-stroke="#717476"></line>
            <ellipse fill="#8E8D8A" cx="108.317" cy="230.613" rx="16.449" ry="16.541" data-fill="#8E8D8A"></ellipse>
            <rect x="97.214" y="236.35" fill="#717476" width="22.207" height="43.876" data-fill="#717476"></rect>
            <line fill="none" stroke="#91918F" stroke-width="1.6624" stroke-linecap="round" stroke-linejoin="round" stroke-miterlimit="10" x1="164.971" y1="153.174" x2="146.757" y2="200.895" data-stroke="#91918F"></line>
            <line fill="none" stroke="#91918F" stroke-width="1.6624" stroke-linecap="round" stroke-linejoin="round" stroke-miterlimit="10" x1="172.286" y1="169.596" x2="172.286" y2="229.258" data-stroke="#91918F"></line>
            <path fill="#636462" d="M193.398,175.928c-0.002,0.918-9.326,1.648-20.826,1.639c-11.498-0.008-20.822-0.762-20.824-1.68
                c0-0.918,9.329-1.65,20.829-1.639C184.076,174.258,193.402,175.012,193.398,175.928z" data-fill="#636462"></path>
            <path fill="#2C3531" d="M160.93,152.047c0.055,0.1,0.104,0.203,0.174,0.297l3.646,7.613c0.209,0.288,2.895-0.283,3.247-0.4
                c0.44-0.146,0.681-0.623,0.536-1.064l-2.452-8.639C164.205,150.094,162.462,150.729,160.93,152.047z" data-fill="#2C3531"></path>
            <g>
                <polygon fill="#91918F" points="46.88,152.073 49.891,153.338 54.196,149.278 47.648,146.372          " data-fill="#91918F"></polygon>
                <g>
                    <path fill="#605C5C" d="M27.122,147.047c-3.413,1.318,2.546,6.332,13.309,11.203c10.767,4.874,22.267,7.76,25.682,6.443
                        c3.416-1.315-2.547-6.332-13.311-11.205C42.036,148.62,30.537,145.733,27.122,147.047z" data-fill="#605C5C"></path>
                    <path fill="#9D9898" d="M27.18,147.192c-0.432,0.16-0.814,0.441-0.865,0.863c-0.053,0.419,0.164,0.864,0.413,1.25
                        c0.525,0.779,1.238,1.437,1.967,2.052c1.479,1.22,3.098,2.273,4.758,3.243c3.333,1.923,6.817,3.592,10.389,5.029
                        c3.572,1.438,7.22,2.694,10.936,3.687c1.859,0.491,3.736,0.921,5.632,1.21c0.948,0.143,1.901,0.251,2.854,0.283
                        c0.941,0.025,1.928,0.003,2.77-0.305c0.428-0.164,0.782-0.439,0.822-0.826c0.045-0.389-0.166-0.821-0.417-1.196
                        c-0.525-0.759-1.24-1.405-1.972-2.009c-1.482-1.2-3.112-2.224-4.771-3.182c-3.329-1.913-6.84-3.5-10.381-4.985
                        c-3.551-1.469-7.184-2.75-10.883-3.785c-1.85-0.515-3.719-0.967-5.61-1.281c-0.945-0.155-1.896-0.276-2.849-0.321
                        C29.026,146.883,28.051,146.887,27.18,147.192z M27.064,146.903c0.955-0.348,1.952-0.358,2.921-0.338
                        c0.974,0.031,1.939,0.14,2.897,0.281c1.917,0.289,3.806,0.716,5.676,1.206c3.737,0.995,7.394,2.267,10.978,3.713
                        c3.585,1.446,7.072,3.134,10.42,5.077c1.667,0.983,3.302,2.032,4.807,3.272c0.745,0.626,1.474,1.291,2.041,2.126
                        c0.265,0.418,0.535,0.895,0.473,1.483c-0.074,0.614-0.635,0.981-1.084,1.146c-0.984,0.353-1.97,0.338-2.943,0.313
                        c-0.974-0.043-1.938-0.164-2.893-0.313c-1.912-0.313-3.793-0.771-5.654-1.274c-3.721-1.036-7.361-2.335-10.924-3.812
                        c-3.554-1.497-7.069-3.101-10.414-5.032c-1.666-0.971-3.312-1.991-4.821-3.211c-0.747-0.615-1.478-1.268-2.045-2.083
                        c-0.265-0.408-0.53-0.882-0.475-1.44C26.087,147.435,26.618,147.069,27.064,146.903z" data-fill="#9D9898"></path>
                </g>
                <path fill="#4D4B4B" d="M32.425,149.448c-2.484,0.959,1.855,4.609,9.69,8.156c7.839,3.547,16.206,5.646,18.695,4.691
                    c2.487-0.961-1.854-4.611-9.689-8.167C43.283,150.592,34.913,148.493,32.425,149.448z" data-fill="#4D4B4B"></path>
                <path d="M39.899,152.583c-1.215,0.467,0.903,2.252,4.73,3.984c3.827,1.73,7.914,2.756,9.131,2.289
                    c1.214-0.469-0.906-2.252-4.733-3.982C45.199,153.141,41.113,152.116,39.899,152.583z"></path>
                <line fill="none" stroke="#91918F" stroke-width="1.6624" stroke-linecap="round" stroke-linejoin="round" stroke-miterlimit="10" x1="46.186" y1="157.073" x2="68.073" y2="203.208" data-stroke="#91918F"></line>
                <path fill="#2C3531" d="M50.127,155.629c-0.049,0.105-0.089,0.211-0.149,0.311l-3.042,7.875c-0.187,0.303-2.908-0.053-3.27-0.141
                    c-0.45-0.111-0.727-0.568-0.617-1.021l1.77-8.805C46.707,153.94,48.495,154.436,50.127,155.629z" data-fill="#2C3531"></path>
            </g>
            <g>
                <path fill="#717476" d="M165.213,214.109l20.686-2.536c1.277-0.156,2.44,0.754,2.604,2.031c0.14,1.107-0.526,2.129-1.542,2.484
                    l-19.658,6.908c-2.396,0.842-5.015-0.416-5.855-2.813c-0.84-2.396,0.422-5.017,2.814-5.854
                    C164.561,214.225,164.898,214.149,165.213,214.109z" data-fill="#717476"></path>
            </g>
            <g>
                <path fill="#717476" d="M57.381,223.752l13.628-1.924c0.658-0.102,1.267,0.356,1.359,1.021c0.083,0.59-0.276,1.144-0.825,1.312
                    l-13.11,4.188c-1.247,0.396-2.579-0.289-2.977-1.535c-0.398-1.247,0.29-2.58,1.536-2.979
                    C57.117,223.801,57.256,223.771,57.381,223.752z" data-fill="#717476"></path>
            </g>
            <path fill="#4F5254" d="M138.111,190.692c0,2.305-2.002,2.926-4.293,2.926l0,0c-2.291,0-4.006-0.621-4.006-2.926v-4.951
                c0-2.303,1.854-4.17,4.146-4.17l0,0c2.292,0,4.146,1.867,4.146,4.17v4.951H138.111z" data-fill="#4F5254"></path>
            <path fill="#4F5254" d="M92.745,190.692c0,2.305-2.001,2.926-4.292,2.926l0,0c-2.292,0-4.005-0.621-4.005-2.926v-4.951
                c0-2.303,1.856-4.17,4.147-4.17l0,0c2.293,0,4.149,1.867,4.149,4.17L92.745,190.692L92.745,190.692z" data-fill="#4F5254"></path>
            <path fill="#4F5254" d="M175.71,220.295c0,1.961-1.579,3.549-3.526,3.549l0,0c-1.951,0-3.533-1.588-3.533-3.549v-4.215
                c0-1.959,1.582-3.547,3.533-3.547l0,0c1.947,0,3.526,1.588,3.526,3.547V220.295z" data-fill="#4F5254"></path>
            <polygon fill="#91918F" points="169.87,172.924 174.502,172.924 176.266,165.827 168.768,166.27       " data-fill="#91918F"></polygon>
            <path fill="#CFCFD0" stroke="#F4F3F3" stroke-width="0.4884" stroke-miterlimit="10" d="M113.246,183.977l-0.258-2.113
                l1.479-0.168c0,0,2.615-4.203,18.697-5.537c13.438-1.113,15.746,0.379,19.137,2.324l1.133-0.086l0.172,2.451l-1.478-0.338
                c0,0-4.353-3.467-18.528-1.859c-14.175,1.607-16.438,3.213-18.264,4.734l-0.349,0.508L113.246,183.977z" data-fill="#CFCFD0" data-stroke="#F4F3F3"></path>
            <polygon fill="#636462" points="168.741,176.325 169.568,181.879 173.714,182.161 176.201,176.602         " data-fill="#636462"></polygon>
            <path fill="none" stroke="#A7A6A5" stroke-width="1.5735" stroke-linecap="round" stroke-linejoin="round" stroke-miterlimit="10" d="
                M76.861,214.356c-0.99,0-10.398-2.502-10.398-2.502s-2.12,0.588-3.109,4.756c-0.989,4.166-1.732,8.334-1.732,8.334" data-stroke="#A7A6A5"></path>
            <path fill="#555755" d="M66.19,209.965v7.777l6.63,0.834l3.315-8.334C76.136,210.243,70.886,207.465,66.19,209.965z" data-fill="#555755"></path>
            <ellipse fill="#6A6C6E" cx="108.318" cy="230.613" rx="12.665" ry="12.736" data-fill="#6A6C6E"></ellipse>
            <rect x="56.005" y="184.102" fill="#909092" width="6.354" height="9.168" data-fill="#909092"></rect>
            <rect x="56.834" y="185.215" fill="#909092" width="9.118" height="6.389" data-fill="#909092"></rect>
            <rect x="156.305" y="185.215" fill="#909092" width="9.119" height="6.389" data-fill="#909092"></rect>
            <rect x="147.837" y="185.215" fill="#909092" width="9.118" height="6.389" data-fill="#909092"></rect>
            <rect x="161.141" y="183.686" fill="#909092" width="6.355" height="9.168" data-fill="#909092"></rect>
            <path fill="#717476" d="M135.085,282.274H81.55c-1.027,0-1.964-0.465-2.412-1.195c-0.449-0.734-0.331-1.604,0.304-2.246
                l25.973-26.211c0.5-0.504,1.259-0.803,2.068-0.812c0.785,0.021,1.58,0.272,2.099,0.765l27.563,26.211
                c0.668,0.635,0.813,1.521,0.369,2.266C137.072,281.797,136.126,282.274,135.085,282.274z M87.069,278.02h42.285l-21.771-20.703
                L87.069,278.02z" data-fill="#717476"></path>
            <polygon fill="#6A6C6E" points="170.12,281.34 154.924,281.061 157.688,268.004 169.016,269.672       " data-fill="#6A6C6E"></polygon>
            <polygon fill="#6A6C6E" points="50.202,281.34 65.398,281.061 62.636,268.004 51.307,269.672      " data-fill="#6A6C6E"></polygon>
            <ellipse fill="#9A9C9E" cx="181.436" cy="207.426" rx="1.244" ry="1.527" data-fill="#9A9C9E"></ellipse>
            <ellipse fill="#9A9C9E" cx="185.581" cy="206.731" rx="1.243" ry="1.527" data-fill="#9A9C9E"></ellipse>
        </g>
        <polygon fill="#727174" points="188.309,280.073 190.262,274.182 201.197,273.004 202.654,281.485     " data-fill="#727174"></polygon>
    </g>
</svg>