
                            <svg version="1.1" id="Standing" xmlns="http://www.w3.org/2000/svg" xmlns:xlink="http://www.w3.org/1999/xlink" x="0px" y="0px" width="175px" height="296.512px" viewBox="0 0 175 296.512" enable-background="new 0 0 175 296.512" xml:space="preserve" class="parent"><g id="fhb1" xmlns="http://www.w3.org/2000/svg" class="avatar-hair-back">
    <path id="fillHairColorBase_7_" display="inline" fill="#3D383A" d="M11.207,82.556c1.206-17.312,1.312-35.554,9.475-51.346
        c6.501-12.58,21.939-15.755,34.537-15.896c34.19-0.375,43.638,29.198,42.501,69.313c-0.296,10.396-1.677,35.5-7.664,48.977
        c-26.013-7.938-42.007-12.075-60.604-1.08c-2.223-5.548-4.959-15.332-4.646-21.646c-0.312,6.312,0.963,16.729,3.186,22.288
        c-2.15,1.271-4.276,2.717-6.377,4.373C13.074,124.418,10.177,97.32,11.207,82.556z" data-fill="hair-color_base"></path>
</g><g id="fbo1" xmlns="http://www.w3.org/2000/svg">
    <path id="fillSkinColorBase_19_" display="inline" fill="#F9D7B9" d="M41.057,263.027l6.461-50.356
        c-1.346-4.313-14.917-0.854-14.917-0.854s-2.247,33.656-2.111,51.117C34.344,264.327,37.3,263.956,41.057,263.027z" data-fill="skin-color_base"></path>
    <path id="fillSkinColorBase_18_" display="inline" fill="#F9D7B9" d="M67.825,262.527c1.558-18.23,5.237-51.834,5.237-51.834
        s-13.879-4.918-16.11-0.563c0,0,0.427,33.754,0.308,52.854C60.758,263.634,64.352,263.295,67.825,262.527z" data-fill="skin-color_base"></path>
    <path id="fillSkinColorBase_16_" display="inline" fill="#F9D7B9" d="M71.23,115.548c0,0-1.967-2.112-3.584-2.854
        c-1.617-0.73-7.317-3.729-7.317-3.729l0.375-6.368l-12.177,0.375l0.188,5.432l-9.795,5.568c-0.001,0-3.985,19.563,14.432,19.563
        C71.251,133.524,71.506,129.312,71.23,115.548z" data-fill="skin-color_base"></path>
    <path id="fillSkinColorShade_1_" display="inline" fill="#E1C3A9" d="M60.398,106.652l0.306-4.062l-12.177,0.293l0.229,3.958
        C52.665,107.335,56.493,107.247,60.398,106.652z" data-fill="skin-color_shade"></path>
    <path id="fillSkinColorBase_30_" display="inline" fill="#F9D7B9" d="M69.936,127.211c0,0,21.994,14.998,34.52,4.894
        c7.229-5.834,13.101-11.644,15.235-16.021c-1.778-3.296-1.521-9.156-5.133-11.232l-2.793,6.188
        c-6.019,11.592-18.938,15.521-18.938,15.521c-5.623-0.099-20.737-11.079-24.29-13.385l-1.883,2.692
        C61.953,121.184,69.936,127.211,69.936,127.211z" data-fill="skin-color_base"></path>
    <path id="fillSkinColorBase_15_" display="inline" fill="#F9D7B9" d="M69.887,168.809c-1.373-3.871-2.716-11.174-3.115-13.713
        c-0.832-5.256-1.385-11.339,0.83-14.104c2.211-2.771,3.594-5.271,2.211-13.278c0,0,4.397-6.586,5.271-7.563
        c0,0-1.875-4.584-7.945-7.688c-3.764,8.298-16.771,11.521-26.33,0.456c-3.309,1.896-5.268,2.021-7.392,4.383l4.876,10.965
        c0,0-4.149,6.915,3.042,14.66c0,0,3.133,5.921-0.563,18.183c0,0-1.558,3.8-3.104,7.979
        C48.41,173.316,59.643,174.244,69.887,168.809z" data-fill="skin-color_base"></path>
    <path id="fillSkinColorBase_14_" display="inline" fill="#F9D7B9" d="M38.499,167.191c0,0-5.214,3.422-5.899,44.629l14.917,0.854
        l2.766-15.396h5.562c0,0,1.174,9.664,1.174,15.67l15.812-0.127c0,0,3.979-33.438-3.364-45.449L38.499,167.191z" data-fill="skin-color_base"></path>
    <path id="fillSkinColorShade_18_" display="inline" fill="#E1C3A9" d="M82.41,133.427c7.074,2.5,15.732,3.743,22.01-1.322
        c3.766-3.038,7.154-6.063,9.846-8.894c-2.027,1.55-8.309,6.812-11.828,8.42c-7.25,3-17.042-0.581-17.042-0.581l-0.836-0.355
        c0,0-10.158-3.642-12.981-6.396c0.065,0.89,0.354,4.117,0.354,4.117S76.715,131.411,82.41,133.427z" data-fill="skin-color_shade"></path>
</g><g id="fhd1" xmlns="http://www.w3.org/2000/svg" class="avatar-head">
    <g display="inline">
        <path id="fillSkinColorBase" fill="#F9D7B9" d="M85.729,50.321c1.736,9.146,2.48,18.685,0.916,27.813
            c-1.514,8.824-5.057,17.104-12.994,21.944c-5.176,3.146-11.896,4.342-17.912,4.312c-44.507-0.122-31.784-54.396-31.784-54.396
            s3.088-21.571,31.784-22.02c12.229-0.184,26.062,4.604,29.057,17.827C85.126,47.303,85.441,48.807,85.729,50.321z" data-fill="skin-color_base"></path>
        <path id="fillSkinColorBase_1_" fill="#F9D7B9" d="M87.958,64.801c-0.198-0.181-0.42-0.411-0.649-0.665
            c0.028,5.719-0.617,11.534-1.646,17.253C98.926,73.358,87.958,64.801,87.958,64.801z" data-fill="skin-color_base"></path>
        <path id="fillSkinColorBase_2_" fill="#F9D7B9" d="M22.176,64.801c0.199-0.181,0.42-0.411,0.65-0.665
            c-0.029,5.719,0.618,11.534,1.654,17.253C11.208,73.358,22.176,64.801,22.176,64.801z" data-fill="skin-color_base"></path>
    </g>
</g><g id="fsh1_x5F_bl" xmlns="http://www.w3.org/2000/svg" class="avatar-shoes">
    <g id="fsh1_x5F_bl_1_" display="inline">
        <g>
            <path id="fillShoesColorBase" fill="#535763" d="M67.689,281.35l5.854,0.637c1.012,0.33,2.021,0.65,3.035,0.979
                c1.404,0.438,2.961,0.545,4.164,1.479c1.086,0.851,2.396,2.646,0.479,3.375c0,0-2.969,1.146-9.312,0.5
                c-6.347-0.646-11.688-1.297-15.746-0.938c0,0-0.34-2.699,0.271-5.402L67.689,281.35z" data-fill="shoes-color_base"></path>
            <path id="fillShoesLowerColorTint" fill="#7C7B83" d="M74.85,284.829c-1.521-0.965-1.635-1.896-1.059-2.771
                c0.93,0.313,1.854,0.604,2.791,0.896c1.408,0.438,2.961,0.545,4.164,1.479c0.223,0.172,0.449,0.383,0.658,0.606
                C79.17,287.036,77.018,285.611,74.85,284.829z" data-fill="shoes-lower-color_tint"></path>
            <path fill="#AAA6BA" d="M82.148,286.99c-0.109,0.312-0.396,0.604-0.918,0.812c0,0-2.967,1.146-9.313,0.5
                c-6.345-0.646-11.826-1.268-15.894-0.915c0,0,0.039-0.375-0.076-0.937C65.201,285.956,70.584,288.665,82.148,286.99z" data-fill="#AAA6BA"></path>
        </g>
        <g>
            <path id="fillShoesColorBase_15_" fill="#535763" d="M28.045,280.648l-5.855,0.646c-1.012,0.33-2.023,0.646-3.039,0.969
                c-1.408,0.438-2.959,0.55-4.164,1.479c-1.086,0.846-2.401,2.641-0.479,3.375c0,0,2.965,1.146,9.312,0.5
                c6.345-0.646,11.683-1.306,15.747-0.941c0,0,0.354-2.701-0.271-5.403L28.045,280.648z" data-fill="shoes-color_base"></path>
            <path id="fillShoesLowerColorTint_1_" fill="#7C7B83" d="M20.883,284.129c1.523-0.967,1.639-1.896,1.059-2.771
                c-0.928,0.313-1.856,0.604-2.791,0.896c-1.408,0.438-2.959,0.545-4.164,1.479c-0.223,0.188-0.448,0.396-0.658,0.615
                C16.565,286.336,18.717,284.914,20.883,284.129z" data-fill="shoes-lower-color_tint"></path>
            <path fill="#AAA6BA" d="M13.586,286.289c0.107,0.313,0.385,0.604,0.918,0.812c0,0,2.965,1.146,9.312,0.5
                c6.345-0.646,11.831-1.268,15.894-0.916c0,0-0.039-0.375,0.074-0.936C30.532,285.254,25.149,287.965,13.586,286.289z" data-fill="#AAA6BA"></path>
        </g>
    </g>
    <path id="fillSkinColorBase_22_" display="inline" fill="#F9D7B9" d="M70.355,235.934c-0.146,1.396-2.146,20.152-2.902,32.063
        c-0.348,5.438-0.643,9.386-0.245,9.665c2.046,1.438,4.604,3.434,6.866,4.437c-2.729,2.989-7.092,2.217-10.521,1.479
        c-0.543-0.116-6.695-1.116-6.615-1.438c0.604-1.521,0.293-7.254,0.271-14.229c0.062-6.822,0.007-15.104-0.027-21.541
        c-0.029-5.941-0.146-10.488,0.012-11.055c0.015-0.03,5.513-1.957,5.979-1.971C64.789,233.329,69.605,234.736,70.355,235.934z
         M31.312,235.725c-0.064,0.818-1.056,33.613-1.188,35.188c-0.278,3.312-0.555,5.604-0.975,5.896
        c-2.043,1.438-4.875,3.559-7.137,4.561c2.729,2.98,7.09,2.213,10.52,1.475c0.541-0.117,6.696-1.117,6.614-1.428
        c-0.271-1.854,0.188-8.023,1.479-15.484c1.835-13.425,3.938-30.214,4.055-31.646c0.002-0.033-6.479-1.321-6.943-1.323
        C36.102,232.936,32.062,234.527,31.312,235.725z" data-fill="skin-color_base"></path>
</g><g id="flo1_1_" xmlns="http://www.w3.org/2000/svg" class="avatar-clothes-lower">
    <path id="fillClothesLowerColorBase" display="inline" fill="#535763" d="M68.339,263.906c0.837-13.607,4.402-51.229,4.402-51.229
        s3.979-33.562-3.363-45.582L38.064,167c0,0-5.214,3.422-5.898,44.627c0,0-1.848,36.979-2.938,52.506
        c3.856,1.803,8.9,1.676,12.127-0.527l8.886-65.854l5.088-0.162l1.549,66.42C60.548,265.898,64.902,265.543,68.339,263.906z" data-fill="clothes-lower-color_base"></path>
    <path id="fillClothesLowerColorShade_1_" display="inline" fill="#484B56" d="M71.591,172.497c-0.396-0.979-1.271-5.003-1.76-5.813
        l-32.39-0.188c0,0-0.756,3.438-1.646,5.867C48.182,176.313,60.736,176.193,71.591,172.497z" data-fill="clothes-lower-color_shade"></path>
</g><g id="fup1" xmlns="http://www.w3.org/2000/svg" class="avatar-clothes-upper">
    <path id="fillSkinColorShade_3_" display="inline" fill="#E1C3A9" d="M83,122.553c-0.383-0.218-0.414-0.249-0.801-0.476
        c-0.749,3.581-3.061,7.058-5.736,8.819c0.501,0.245,0.245,0.107,0.787,0.354C81.236,129.606,82.49,126.459,83,122.553z" data-fill="skin-color_shade"></path>
    <path id="fillClothesUpperColorBase_19_" display="inline" fill="#D6453F" d="M70.089,128.271l0.188-0.229
        c0.967,0.604,3.008,1.854,5.695,3.188c3.021-1.727,5.711-5.729,6.354-9.728c-2.604-1.505-6.396-5.463-8.771-6.783
        c-3.611-2.503-8.387-3.403-8.822-3.652c-0.396,0.278,3.854,3.194,3.502,3.194C63.986,118.514,66.244,124.202,70.089,128.271z" data-fill="clothes-upper-color_base"></path>
    <path id="fillClothesUpperColorBase_1_" display="inline" fill="#D6453F" d="M72.835,128.886c0,0,1.771-8.342,2.771-9.334
        c0,0-0.604-2.437-5.967-6.129c-2.093-1.441-4.252-2.313-6.744-3.292c-1.896,5.354-4.354,11.812-8.672,16.359
        c0.116,0.229-5.812-10.979-7.727-16.354c-3.949,1.011-11.383,3.503-15.007,8.438c-0.148,0.193-0.291,0.604,0.056,1.53l4.807,9.347
        c0,0-4.803,7.062,3.521,14.979c0,0,2.562,7.065-1.92,18.938c-0.854,2.26-1.553,5.104-2.568,7.312
        c12.549,4.836,25.813,4.887,37.773,0.229c-1.787-4.396-3.311-11.021-3.852-14.043c-0.967-5.369-1.604-11.603,0.961-14.413
        C72.835,139.626,74.436,137.081,72.835,128.886z" data-fill="clothes-upper-color_base"></path>
    <path id="fillClothesUpperColorShade" display="inline" fill="#B03833" d="M72.455,139.961c0.021-0.044,0.046-0.087,0.07-0.13
        c0.035-0.071,0.078-0.146,0.111-0.208C72.581,139.744,72.512,139.847,72.455,139.961z M40.234,145.889
        c0.016,0.083,0.029,0.169,0.045,0.258C40.266,146.059,40.25,145.97,40.234,145.889z M39.924,144.585
        c0.012,0.037,0.021,0.062,0.035,0.119C39.945,144.657,39.936,144.62,39.924,144.585z M69.037,144.713
        c0.023-0.076,0.046-0.155,0.072-0.229C69.083,144.558,69.062,144.636,69.037,144.713z M40.009,144.887
        c0.015,0.052,0.027,0.101,0.044,0.163C40.037,144.991,40.021,144.938,40.009,144.887z M69.326,143.953
        c0.033-0.076,0.062-0.154,0.098-0.229C69.389,143.798,69.359,143.878,69.326,143.953z M40.162,145.531
        c-0.016-0.075-0.031-0.146-0.046-0.222C40.131,145.387,40.146,145.458,40.162,145.531z M40.354,146.588
        c0.021,0.095,0.025,0.199,0.039,0.3C40.379,146.788,40.366,146.683,40.354,146.588z M68.65,146.396
        c0.01-0.06,0.018-0.12,0.021-0.179C68.668,146.276,68.66,146.336,68.65,146.396z M68.482,148.278c0-0.021,0.002-0.047,0.002-0.062
        C68.484,148.231,68.482,148.254,68.482,148.278z M68.861,145.316c-0.021,0.069-0.031,0.146-0.047,0.212
        C68.83,145.457,68.846,145.385,68.861,145.316z M40.488,147.74c-0.01-0.107-0.018-0.229-0.029-0.322
        C40.471,147.518,40.479,147.633,40.488,147.74z M40.543,148.37c0.014,0.179,0.02,0.376,0.027,0.562
        C40.584,148.73,40.583,148.536,40.543,148.37z M68.553,147.183c-0.004,0.043-0.008,0.087-0.012,0.13
        C68.545,147.27,68.549,147.227,68.553,147.183z M38.156,142.585c0.197,0.241,0.408,0.479,0.631,0.727
        C38.564,143.069,38.354,142.826,38.156,142.585z M68.469,149.287c0-0.004,0-0.021,0-0.021
        C68.469,149.27,68.469,149.272,68.469,149.287C68.469,149.284,68.469,149.285,68.469,149.287z M71.002,141.609
        c-0.234,0.282-0.477,0.563-0.732,0.854C70.525,142.17,70.768,141.891,71.002,141.609z M39.873,144.428c0,0,0.008,0.023,0.021,0.067
        C39.884,144.459,39.873,144.428,39.873,144.428z M69.811,143.047c-0.041,0.06-0.072,0.127-0.104,0.188
        C69.736,143.174,69.77,143.107,69.811,143.047z M38.988,143.533c0.277,0.297,0.568,0.595,0.885,0.895
        C39.559,144.128,39.268,143.83,38.988,143.533z M71.002,141.609c0.004-0.005,0.008-0.01,0.012-0.015
        c0.002,0,0.002-0.001,0.002-0.001C71.012,141.598,71.006,141.604,71.002,141.609z M69.326,143.953
        c-0.077,0.172-0.151,0.347-0.217,0.521C69.175,144.3,69.25,144.125,69.326,143.953z M68.65,146.396
        c-0.039,0.257-0.071,0.521-0.104,0.788C68.579,146.915,68.611,146.653,68.65,146.396z M68.814,145.528
        c-0.053,0.229-0.104,0.454-0.145,0.689C68.717,145.981,68.764,145.752,68.814,145.528z M69.811,143.047
        c0.146-0.211,0.293-0.411,0.459-0.595C70.104,142.635,69.95,142.835,69.811,143.047z M69.699,143.236
        c-0.098,0.158-0.191,0.318-0.275,0.489C69.508,143.554,69.604,143.394,69.699,143.236z M68.861,145.316
        c0.052-0.207,0.111-0.396,0.176-0.603C68.975,144.909,68.913,145.108,68.861,145.316z M38.156,142.585
        c-0.045-0.053-0.09-0.106-0.131-0.16C38.066,142.479,38.111,142.532,38.156,142.585z M39.924,144.585
        c-0.012-0.035-0.021-0.068-0.027-0.09C39.902,144.515,39.914,144.555,39.924,144.585z M38.988,143.533
        c-0.068-0.074-0.135-0.147-0.201-0.229C38.854,143.386,38.92,143.459,38.988,143.533z M40.116,145.321
        c-0.022-0.098-0.044-0.188-0.064-0.271C40.072,145.131,40.094,145.225,40.116,145.321z M40.009,144.887
        c-0.018-0.067-0.034-0.131-0.05-0.184C39.975,144.755,39.992,144.823,40.009,144.887z M68.482,148.278
        c-0.012,0.327-0.021,0.66-0.021,0.998C68.466,148.938,68.471,148.605,68.482,148.278z M40.162,145.531
        c0.023,0.104,0.048,0.229,0.072,0.354C40.21,145.762,40.188,145.642,40.162,145.531z M40.488,147.74
        c0.02,0.194,0.039,0.396,0.055,0.631c0-0.001,0-0.003,0-0.004C40.527,148.144,40.508,147.943,40.488,147.74z M68.484,148.207
        c0.013-0.313,0.031-0.604,0.057-0.896C68.516,147.606,68.497,147.904,68.484,148.207z M40.393,146.888
        c0.023,0.171,0.047,0.34,0.066,0.528C40.438,147.229,40.416,147.059,40.393,146.888z M40.279,146.147
        c0.025,0.146,0.049,0.284,0.072,0.441C40.329,146.431,40.305,146.287,40.279,146.147z M54.691,141.446
        c-2.958,0.479-8.607,2.807-11.774,2.151c-1.899-0.386-4.552-1.384-6.171-2.996c0.357,0.604,0.783,1.207,1.279,1.825
        c0.041,0.053,0.086,0.106,0.131,0.16c0.197,0.241,0.408,0.479,0.631,0.727c0.066,0.074,0.133,0.147,0.201,0.229
        c0.277,0.297,0.568,0.595,0.885,0.895c0,0,0.008,0.023,0.021,0.067c0.008,0.021,0.018,0.055,0.021,0.09
        c0.019,0.037,0.021,0.063,0.035,0.119c0.021,0.052,0.024,0.104,0.05,0.184c0.021,0.058,0.023,0.104,0.043,0.163
        c0.021,0.082,0.042,0.173,0.062,0.271c0.02,0.062,0.025,0.135,0.051,0.21c0.021,0.104,0.048,0.229,0.066,0.354
        c0.021,0.083,0.025,0.169,0.047,0.258c0.021,0.146,0.053,0.284,0.067,0.441c0.019,0.095,0.021,0.199,0.039,0.3
        c0.021,0.171,0.048,0.34,0.062,0.528c0.016,0.102,0.021,0.215,0.027,0.322c0.021,0.194,0.039,0.396,0.057,0.631
        c0.039,0.166,0.041,0.354,0.025,0.562c0.036,0.832,0.036,1.771-0.021,2.813c7.514-5.273,15.354-7.695,28.011-0.479
        c-0.056-0.674-0.082-1.336-0.088-1.979c0-0.002,0-0.003,0-0.005c0-0.015,0-0.017,0-0.021c-0.005-0.338,0.002-0.668,0.019-1
        c0.004-0.021,0.004-0.047,0.006-0.062c0.014-0.313,0.022-0.604,0.06-0.896c0.004-0.043,0.008-0.087,0.015-0.13
        c0.021-0.268,0.061-0.53,0.1-0.788c0.017-0.06,0.021-0.12,0.025-0.179c0.036-0.236,0.084-0.465,0.139-0.689
        c0.021-0.062,0.025-0.143,0.047-0.212c0.059-0.207,0.11-0.403,0.183-0.603c0.021-0.076,0.046-0.155,0.065-0.229
        c0.062-0.184,0.146-0.354,0.224-0.521c0.026-0.076,0.062-0.154,0.098-0.229c0.085-0.171,0.187-0.331,0.275-0.484
        c0.03-0.063,0.063-0.134,0.104-0.188c0.146-0.211,0.293-0.411,0.461-0.595c0.256-0.281,0.498-0.563,0.729-0.854
        c0.004-0.005,0.008-0.01,0.02-0.015C64.786,147.121,60.365,140.546,54.691,141.446z M55.557,127.167l-2.396,0.047l-1.688-3.941
        l-7.33,2.332c0,0,0.621-10.676,0.646-15.479l3.725-2.834l-0.092,2.157l3.583,10.521l0.138-0.035l2.159,6.415l2.039,0.521
        l-2.11,6.562L55.557,127.167z M57.471,123.267l7.32,2.332c0,0-0.625-10.676-0.646-15.479l-3.062-2.734l-0.562,2.063l-3.582,10.521
        l-0.145-0.035l-2.562,6.54L57.471,123.267z" data-fill="clothes-upper-color_shade"></path>
    <path id="fillClothesUpperColorBase" display="inline" fill="#D6453F" d="M48.34,108.552l3.799,11.383l-7.145,3.438
        c0,0,1.262-8.021-0.154-13.043l3.703-3.146L48.34,108.552z M60.829,108.496l-4.021,11.438l7.146,3.438
        c0,0-1.265-8.021,0.151-13.043l-2.924-2.984L60.829,108.496z" data-fill="clothes-upper-color_base"></path>
    <path id="fillSkinColorBase_47_" display="inline" fill="#F9D7B9" d="M93.014,148.524c-0.396-0.244-0.836-0.479-1.139-0.838
        c-0.354-0.417-0.395-0.883-0.434-1.396c-0.021-0.32-0.168-1.135,0.145-1.382c0.826-0.647,1.419-1.572,2.148-2.319
        c0.865-0.877,0.433-2.406-0.526-3.039c-0.496-0.336-1.13-0.469-1.742-0.382c-0.87,0.13-1.647,0.896-2.288,1.426
        c-0.714,0.586-1.382,1.229-1.906,1.973c-0.847,1.204-1.592,2.479-2.396,3.703c-0.122,0.188-1.827,1.979-2.235,3.026
        c-0.013,0.026-0.021,0.056-0.031,0.079c-0.014,0.044-0.35,1.01-0.477,1.461c-0.094,0.291-0.13,2.5-0.188,2.8
        c-0.334,1.56-0.396,2.973,0.304,4.445c0.646,1.366,7.597,3.812,12.044,5.312c0.375-0.396,0.66-0.688,0.885-0.932
        c0.469-0.59,0.854-1.206,1.17-1.829c0.008-0.033,0.021-0.056,0.035-0.093c0.399-1.029,0.657-1.694,0.823-2.361
        c0.087-0.39,0.144-0.771,0.19-1.161c0.013-0.103,0.016-0.215,0.021-0.316c0.017-0.139,0.013-0.246,0.021-0.372
        c0.021-0.355,0.021-0.771,0.021-1.229c-0.074-2.162-0.615-4.136-1.129-5.521C95.148,149.413,94.014,149.126,93.014,148.524z" data-fill="skin-color_base"></path>
    <path id="fillSkinColorBase_46_" display="inline" fill="#F9D7B9" d="M105.585,149.119c-0.771,0.271-1.575,0.47-2.394,0.584
        c-1.521,0.213-3.072,0.222-4.604,0.097c-0.752-0.056-1.521-0.119-2.272-0.227c-2.271,0.134-4.233,4.176,1.125,4.939
        c3.438,0.396,7.125,0.327,10.318-0.839C111.012,152.515,108.813,147.949,105.585,149.119z" data-fill="skin-color_base"></path>
    <path id="fillSkinColorBase_45_" display="inline" fill="#F9D7B9" d="M96.004,154.554c3.219,0.252,6.446,0.593,9.65-0.049
        c3.402-0.691,4.254,4.245,0.867,4.93c-3.646,0.735-7.396,0.4-11.039,0.105C92.018,159.27,92.557,154.28,96.004,154.554z
         M93.549,162.938c3.038,2.324,7.168,2.575,10.729,1.729c2.688-0.646,1.354-4.437-1.312-3.788c-1.913,0.46-4.858,0.224-6.502-0.882
        c-0.946-0.64-2.174-0.739-3.028,0.131C92.703,160.858,92.645,162.247,93.549,162.938z" data-fill="skin-color_base"></path>
    <path id="fillSkinColorBase_44_" display="inline" fill="#F9D7B9" d="M83.3,149.295c-14.877-1.199-26.673-3.847-26.673-3.847
        s-15.544-11.692-16.855-21.02c-0.092-1.188-1.896-5.304-4.688-7.137c-0.619-0.635-1.374-0.316-1.374-0.316s-3.75,3.771-3.375,9.313
        c0.317,13.295,20.604,29.676,20.604,29.676s19.486,3.795,33.617,2.711C90.951,158.191,89.729,149.814,83.3,149.295z" data-fill="skin-color_base"></path>
    <path id="fillSkinColorShade_28_" display="inline" fill="#E1C3A9" d="M40.238,145.537c5.275,6.057,10.687,10.43,10.687,10.43
        s17.771,3.458,31.677,2.825l0.219-0.119l-17.5-2.25c0,0-11.668-1.334-14.418-3.584c-2.117-1.734-7.295-7.118-9.562-9.501
        c0,0-8.027-9.271-10.777-19.707c-0.25,0.729-1.125,4.75,2.562,11.875c2.797,5.047,5.312,7.812,5.312,7.812L40.238,145.537z" data-fill="skin-color_shade"></path>
    <path id="fillClothesUpperColorShade_30_" display="inline" fill="#B03833" d="M31.047,132.725c0,0-0.159,0.288,0.078,0.953
        s0.688,3.453,0.688,3.453l2.036-0.321c-0.799-1.372-1.504-2.763-2.065-4.146L31.047,132.725z" data-fill="clothes-upper-color_shade"></path>
    <path id="fillClothesUpperColorShade_29_" display="inline" fill="#B03833" d="M43.984,131.24
        c-0.922-0.603-1.844-2.359-1.844-2.359c-0.33,0.127-0.539,0.236-0.679,0.321c0.521,0.964,1.124,1.927,1.8,2.878
        C43.482,131.853,43.771,131.538,43.984,131.24z" data-fill="clothes-upper-color_shade"></path>
    <path id="fillSkinColorShade_12_" display="inline" fill="#E1C3A9" d="M43.871,132.904c-0.457-0.606-0.9-1.229-1.307-1.854
        c-2.082-0.129-6.064,0.275-9.488,4.363c0.354,0.674,0.736,1.345,1.14,2.011C36.721,132.216,40.176,131.776,43.871,132.904z" data-fill="skin-color_shade"></path>
    <path id="fillClothesUpperColorBase_14_" display="inline" fill="#D6453F" d="M44,131.256c0,0-7.146-2-12.188,5.875
        c0,0-2.48-6.292-2.313-11.125s0.712-7.354,6.2-11.302c3.834,1.667,4.971,5.897,4.971,5.897S42,130.048,44,131.256z" data-fill="clothes-upper-color_base"></path>
    <path id="fillClothesUpperColorShade_8_" display="inline" fill="#B03833" d="M40.969,122.506c0,0,0.124,6.767,1.734,8.547
        c0,0,0.062-0.016,0.594,0.063c0.426,0.062,0.703,0.141,0.703,0.141S41.432,127.538,40.969,122.506z" data-fill="clothes-upper-color_shade"></path>
</g><g id="fey1" xmlns="http://www.w3.org/2000/svg" class="avatar-eyes">
    <path fill="#543318" d="M77.046,67.402c-0.004,2.751-1.978,4.979-4.405,4.979c-2.425-0.003-4.393-2.236-4.388-4.988
        c0.005-2.751,1.979-4.978,4.404-4.975C75.085,62.418,77.05,64.651,77.046,67.402z" data-fill="#543318"></path>
    <path fill="#543318" d="M43.693,67.233c-0.004,2.751-1.979,4.979-4.405,4.979c-2.425-0.003-4.393-2.236-4.387-4.988
        c0.004-2.751,1.979-4.978,4.402-4.975C41.732,62.249,43.697,64.482,43.693,67.233z" data-fill="#543318"></path>
</g><g id="fmo1" xmlns="http://www.w3.org/2000/svg" class="avatar-mouth">
    
        <path display="inline" fill="none" stroke="#816951" stroke-width="2.0555" stroke-linecap="round" stroke-linejoin="round" stroke-miterlimit="10" d="
        M48.65,90.158c0,0,5.476,2.896,13.736-0.07" data-stroke="#816951"></path>
</g><g id="feb1" xmlns="http://www.w3.org/2000/svg" class="avatar-eyebrows">
    <path id="fillEyebrowColorBase_2_" display="inline" fill="#816951" d="M32.271,56.782c-0.291,0-0.58-0.122-0.783-0.36
        c-0.369-0.432-0.317-1.08,0.115-1.449c5.831-4.979,13.678-0.863,14.01-0.686c0.5,0.268,0.688,0.89,0.42,1.39
        c-0.268,0.5-0.889,0.689-1.389,0.422c-0.07-0.037-6.951-3.626-11.708,0.438C32.743,56.701,32.506,56.782,32.271,56.782z" data-fill="eyebrow-color_base"></path>
    <path id="fillEyebrowColorBase_3_" display="inline" fill="#816951" d="M79.247,56.6c-0.243,0-0.487-0.085-0.685-0.26
        c-4.688-4.168-11.623-0.708-11.692-0.671c-0.507,0.258-1.125,0.058-1.384-0.448c-0.258-0.506-0.057-1.125,0.447-1.383
        c0.336-0.171,8.269-4.127,13.983,0.966c0.437,0.377,0.474,1.027,0.097,1.451C79.812,56.483,79.529,56.6,79.247,56.6z" data-fill="eyebrow-color_base"></path>
</g><g id="fhf1" xmlns="http://www.w3.org/2000/svg" class="avatar-hair-front">
    <path id="fillHairColorBase_2_" display="inline" fill="#3D383A" d="M76.958,28.97l-0.528,0.796
        c-17.344-10.783-33.164-7.695-42.883-0.451C15.213,42.982,20.625,62.971,20.625,62.971c14.312-1.755,26.488-7.339,35.915-13.362
        c-1.205,4.854-3.581,9.362-3.581,9.362c7.924-4.979,13.538-13.802,16.325-18.951c1.771-1.555,3.293-2.997,4.559-4.254
        c0.589,4.146,2.529,14.337,7.781,18.539c0,0-1.332-6-0.332-9.667c0,0-0.074,14.743,6.129,19.538
        C87.421,64.175,95.624,39.636,76.958,28.97z" data-fill="hair-color_base"></path>
</g><g id="fdev1" xmlns="http://www.w3.org/2000/svg" class="avatar-device">
    <g>
        <path id="fillSkinColorShade_23_" fill="#E1C3A9" d="M116.966,120.186c1.179-1.463,2.11-2.844,2.726-4.102
            c1.396-2.565,2.229-4.648,2.313-6.043c0.036-0.646-5.404-4.021-7.438-5.189l-2.793,6.188c-1.101,2.107-2.434,3.956-3.862,5.581
            C112.162,116.101,114.982,117.644,116.966,120.186z" data-fill="skin-color_shade"></path>
        <path id="fillSkinColorShade_4_" fill="#E1C3A9" d="M101.62,110.658c0,0,19.459,16.396,32.375-0.368L101.62,110.658z" data-fill="skin-color_shade"></path>
        <g>
            <polygon fill="#2F2F2D" points="152.604,103.781 152.909,112.525 165.291,107.144 165.051,100.338             " data-fill="#2F2F2D"></polygon>
            <polygon fill="#5A5756" points="152.604,103.781 90.938,103.035 107.475,99.445 165.051,100.338           " data-fill="#5A5756"></polygon>
            <polygon fill="#3A3A39" points="152.909,112.525 91.496,111.257 91.202,102.938 152.604,103.781           " data-fill="#3A3A39"></polygon>
            <polygon fill="#4DB2E4" points="123.021,109.556 112.975,109.179 112.718,105.147 122.756,105.323             " data-fill="#4DB2E4"></polygon>
            <polygon fill="#6197D0" points="95.352,108.353 92.764,108.153 92.648,104.969 95.124,105.127             " data-fill="#6197D0"></polygon>
            <polygon fill="#5E6062" points="127.471,105.759 124.122,105.635 124.035,104.29 127.383,104.349          " data-fill="#5E6062"></polygon>
            <polygon fill="#5E6062" points="127.55,108.05 124.203,107.924 124.115,106.58 127.463,106.639            " data-fill="#5E6062"></polygon>
            <polygon fill="#5E6062" points="127.629,110.224 124.279,110.098 124.193,108.755 127.541,108.813             " data-fill="#5E6062"></polygon>
            <polygon fill="#5E6062" points="149.895,110.93 132.712,110.26 132.627,108.916 149.807,109.52            " data-fill="#5E6062"></polygon>
            <polygon fill="#5E6062" points="112.105,105.615 108.755,105.488 108.672,104.144 112.018,104.202             " data-fill="#5E6062"></polygon>
            <polygon fill="#5E6062" points="112.186,107.903 108.84,107.777 108.752,106.433 112.098,106.492          " data-fill="#5E6062"></polygon>
            <polygon fill="#5E6062" points="112.264,110.078 108.914,109.952 108.827,108.609 112.173,108.668             " data-fill="#5E6062"></polygon>
            <polygon fill="#5E6062" points="108.091,105.525 104.741,105.4 104.657,104.055 108.003,104.115           " data-fill="#5E6062"></polygon>
            <polygon fill="#5E6062" points="108.171,107.815 104.822,107.69 104.734,106.344 108.082,106.405          " data-fill="#5E6062"></polygon>
            <polygon fill="#5E6062" points="108.248,109.99 104.898,109.865 104.813,108.52 108.159,108.58            " data-fill="#5E6062"></polygon>
            <polygon fill="none" stroke="#5E6062" stroke-width="0.1994" stroke-miterlimit="10" points="96.227,110.413 92.878,110.288 
                92.792,108.943 96.139,109.004           " data-stroke="#5E6062"></polygon>
            <path fill="#52504F" d="M91.586,111.289l-3.638-0.155l-0.351-8.266l3.644,0.147L91.586,111.289z M90.564,104.405
                c-0.019-0.354-0.32-0.648-0.688-0.672l-0.917-0.04c-0.363-0.015-0.646,0.267-0.639,0.616l0,0
                c0.015,0.354,0.322,0.656,0.688,0.671l0.922,0.038C90.294,105.034,90.579,104.76,90.564,104.405L90.564,104.405z M90.805,109.899
                c-0.013-0.354-0.322-0.648-0.687-0.672l-0.925-0.038c-0.364-0.016-0.646,0.266-0.635,0.616l0,0
                c0.012,0.354,0.313,0.656,0.688,0.67l0.913,0.038C90.534,110.528,90.818,110.252,90.805,109.899L90.805,109.899z" data-fill="#52504F"></path>
            <path fill="#52504F" d="M156.563,112.616l-3.914-0.074l-0.365-8.8l3.919,0.063L156.563,112.616z M155.471,105.365
                c-0.016-0.396-0.345-0.724-0.738-0.729l-0.979-0.019c-0.396-0.013-0.695,0.305-0.688,0.691l0,0
                c0.02,0.396,0.351,0.723,0.735,0.729l0.985,0.018C155.18,106.071,155.486,105.758,155.471,105.365L155.471,105.365z
                 M155.723,111.097c-0.017-0.394-0.346-0.716-0.736-0.726L154,110.354c-0.393-0.01-0.697,0.309-0.684,0.694l0,0
                c0.018,0.392,0.347,0.719,0.74,0.725l0.979,0.021C155.432,111.803,155.736,111.49,155.723,111.097L155.723,111.097z" data-fill="#52504F"></path>
            
                <line fill="none" stroke="#3A3A39" stroke-width="0.7975" stroke-miterlimit="10" x1="135.091" y1="107.297" x2="135.221" y2="110.959" data-stroke="#3A3A39"></line>
            
                <line fill="none" stroke="#3A3A39" stroke-width="0.7975" stroke-miterlimit="10" x1="137.725" y1="107.203" x2="137.852" y2="110.866" data-stroke="#3A3A39"></line>
            
                <line fill="none" stroke="#3A3A39" stroke-width="0.7975" stroke-miterlimit="10" x1="140.355" y1="107.111" x2="140.484" y2="110.774" data-stroke="#3A3A39"></line>
            
                <line fill="none" stroke="#3A3A39" stroke-width="0.7975" stroke-miterlimit="10" x1="142.988" y1="107.019" x2="143.148" y2="111.597" data-stroke="#3A3A39"></line>
            
                <line fill="none" stroke="#3A3A39" stroke-width="0.7975" stroke-miterlimit="10" x1="145.622" y1="106.926" x2="145.783" y2="111.505" data-stroke="#3A3A39"></line>
            
                <line fill="none" stroke="#3A3A39" stroke-width="0.7975" stroke-miterlimit="10" x1="148.255" y1="106.834" x2="148.417" y2="111.412" data-stroke="#3A3A39"></line>
            
                <ellipse transform="matrix(0.9994 -0.0344 0.0344 0.9994 -3.6167 4.5391)" fill="none" stroke="#666361" stroke-width="0.3987" stroke-miterlimit="10" cx="130.145" cy="107.408" rx="1.604" ry="1.888" data-stroke="#666361"></ellipse>
        </g>
    </g>
    <g>
        <g>
            <path fill="#FBD9BB" d="M125.294,102.772C125.32,103.161,125.795,102.53,125.294,102.772L125.294,102.772z" data-fill="#FBD9BB"></path>
        </g>
        <g>
            <polygon fill="#2F2F2D" points="152.613,95.68 152.924,104.423 165.305,99.042 165.064,92.237             " data-fill="#2F2F2D"></polygon>
            <polygon fill="#5A5756" points="152.613,95.68 90.952,94.934 107.486,91.345 165.064,92.237           " data-fill="#5A5756"></polygon>
            <polygon fill="#D7D5D5" points="152.924,104.423 91.51,103.156 91.217,94.838 152.613,95.68           " data-fill="#D7D5D5"></polygon>
            <polygon fill="#454445" points="151.213,104.158 93.205,102.961 92.928,95.102 150.923,95.899             " data-fill="#454445"></polygon>
            <polygon fill="#5E6062" points="132.008,103.558 106.423,103.295 106.072,95.242 131.859,95.73            " data-fill="#5E6062"></polygon>
            <polygon fill="#5E6062" points="99.635,100.042 93.523,99.857 93.438,98.512 99.547,98.63             " data-fill="#5E6062"></polygon>
            <path fill="#D7D5D5" d="M91.602,103.188l-3.645-0.147l-0.344-8.271l3.638,0.155L91.602,103.188z M90.579,96.303
                c-0.013-0.354-0.32-0.655-0.687-0.67l-0.93-0.04c-0.359-0.016-0.646,0.259-0.641,0.615l0,0c0.015,0.354,0.318,0.648,0.689,0.671
                l0.916,0.04C90.309,96.935,90.596,96.659,90.579,96.303L90.579,96.303z M90.818,101.798c-0.014-0.356-0.321-0.656-0.688-0.671
                l-0.917-0.04c-0.372-0.021-0.648,0.26-0.646,0.616l0,0c0.019,0.354,0.326,0.649,0.69,0.67l0.914,0.039
                C90.548,102.427,90.833,102.152,90.818,101.798L90.818,101.798z" data-fill="#D7D5D5"></path>
            <path fill="#D7D5D5" d="M156.575,104.515l-3.916-0.073l-0.361-8.801l3.911,0.073L156.575,104.515z M155.482,97.265
                c-0.02-0.394-0.344-0.717-0.736-0.725l-0.984-0.021c-0.393-0.007-0.697,0.313-0.683,0.698l0,0
                c0.015,0.394,0.345,0.719,0.735,0.726l0.98,0.021C155.193,97.97,155.499,97.657,155.482,97.265L155.482,97.265z M155.734,102.996
                c-0.014-0.396-0.344-0.724-0.735-0.729l-0.985-0.019c-0.395-0.007-0.699,0.305-0.683,0.689l0,0
                c0.017,0.396,0.345,0.725,0.735,0.729l0.979,0.019C155.443,103.702,155.753,103.387,155.734,102.996L155.734,102.996z" data-fill="#D7D5D5"></path>
        </g>
        
            <line fill="none" stroke="#454445" stroke-width="0.25" stroke-miterlimit="10" x1="106.245" y1="97.204" x2="131.782" y2="97.59" data-stroke="#454445"></line>
        
            <line fill="none" stroke="#454445" stroke-width="0.25" stroke-miterlimit="10" x1="106.303" y1="101.927" x2="131.84" y2="102.315" data-stroke="#454445"></line>
        
            <ellipse transform="matrix(0.9961 -0.0886 0.0886 0.9961 -8.3265 11.9235)" fill="#0090C9" cx="130.165" cy="99.767" rx="0.656" ry="0.626" data-fill="#0090C9"></ellipse>
        
            <ellipse transform="matrix(0.9965 -0.0839 0.0839 0.9965 -7.9461 9.411)" fill="#EE4031" cx="108.05" cy="99.29" rx="0.198" ry="0.184" data-fill="#EE4031"></ellipse>
        
            <ellipse transform="matrix(0.9962 -0.0872 0.0872 0.9962 -8.2421 10.022)" fill="#33B34A" cx="110.635" cy="99.386" rx="0.196" ry="0.185" data-fill="#33B34A"></ellipse>
        
            <ellipse transform="matrix(0.9964 -0.0849 0.0849 0.9964 -8.0376 9.9569)" fill="#33B34A" cx="113.04" cy="99.473" rx="0.196" ry="0.185" data-fill="#33B34A"></ellipse>
    </g>
</g></svg>
                        