<svg version="1.1" id="Standing" xmlns="http://www.w3.org/2000/svg" xmlns:xlink="http://www.w3.org/1999/xlink" x="0px" y="0px" width="175px" height="296.512px" viewBox="0 0 175 296.512" enable-background="new 0 0 175 296.512" xml:space="preserve" class="parent">
    <g id="fhb1" xmlns="http://www.w3.org/2000/svg" class="avatar-hair-back">
        <path id="fillHairColorBase_7_" fill="#3D383A" d="M64.207,82.556c1.206-17.312,1.312-35.554,9.475-51.346
            c6.501-12.58,21.939-15.755,34.537-15.895c34.19-0.375,43.639,29.198,42.502,69.308c-0.296,10.396-1.677,35.5-7.664,48.977
            c-26.013-7.938-42.007-12.075-60.604-1.08c-2.223-5.548-4.959-15.332-4.646-21.646c-0.312,6.312,0.963,16.735,3.186,22.288
            c-2.15,1.271-4.276,2.717-6.377,4.373C66.074,124.418,63.177,97.32,64.207,82.556z" data-fill="hair-color_base"></path>
    </g>
    <g id="fbo1" xmlns="http://www.w3.org/2000/svg">
        <path id="fillSkinColorBase_21_" fill="#F9D7B9" d="M48.914,109.955c-0.064-0.272-0.142-0.534-0.228-0.793
            c-0.133-0.406-0.447-1.271-0.463-1.31c-0.008-0.021-0.018-0.044-0.027-0.064c-0.385-0.944-1.959-4.251-2.07-4.416
            c-0.748-1.088-1.443-2.215-2.23-3.281c-0.486-0.661-1.102-1.224-1.758-1.74c-0.584-0.457-1.297-1.138-2.084-1.239
            c-0.555-0.067-1.117,0.065-1.562,0.381c-0.844,0.589-1.209,1.969-0.414,2.746c0.67,0.654,1.221,1.478,1.979,2.048
            c0.287,0.214,0.174,0.95,0.158,1.238c-0.025,0.46-0.055,0.885-0.365,1.263c-0.264,0.318-0.645,0.551-1.004,0.774
            c-1.467,0.934-3.275,1.089-4.992,1.265c-1.379,0.138-2.773,0.167-4.15,0.001c-0.738-0.093-1.467-0.243-2.167-0.481
            c-2.924-0.99-4.813,3.161-1.865,4.16c2.737,0.925,5.84,0.961,8.771,0.614c-2.317,0.378-4.643,0.688-7.001,0.419
            c-3.111-0.357-3.489,4.136-0.399,4.486c2.883,0.334,5.77-0.068,8.614-0.533c0.06,0.149,0.125,0.309,0.195,0.479
            c-1.471,0.612-3.442,0.764-4.834,0.485c-2.422-0.487-3.496,2.964-1.059,3.455c2.615,0.522,5.563,0.176,7.984-0.982
            c0.018,0.019,0.03,0.03,0.049,0.049c3.973-1.442,10.182-3.775,10.736-5.021C49.328,112.621,49.246,111.35,48.914,109.955z" data-fill="skin-color_base"></path>
        <path id="fillSkinColorBase_20_" fill="#F9D7B9" d="M127.415,118.765c0,0,1.631,0.453,2.354,8.52
            c0.729,8.062,4.438,51.188,4.438,51.188s4.105,22.51-7.695,21.978l-1.639-33.023c0,0-1.354-25.91-2.896-29.719
            C120.438,133.896,116.725,111.515,127.415,118.765z" data-fill="skin-color_base"></path>
        <path id="fillSkinColorBase_19_" fill="#F9D7B9" d="M94.057,263.027l6.461-50.368c-1.346-4.306-14.917-0.843-14.917-0.843
            s-2.247,33.656-2.111,51.117C87.344,264.327,90.3,263.956,94.057,263.027z" data-fill="skin-color_base"></path>
        <path id="fillSkinColorBase_18_" fill="#F9D7B9" d="M120.825,262.527c1.558-18.242,5.237-51.834,5.237-51.834
            s-13.879-4.918-16.11-0.574c0,0,0.427,33.754,0.308,52.859C113.758,263.634,117.352,263.295,120.825,262.527z" data-fill="skin-color_base"></path>
        <path id="fillSkinColorBase_17_" fill="#F9D7B9" d="M84.887,118.754l-0.313-0.035c-0.208,0.164-11.032,7.745-16.655,7.844
            c0,0-14.592-2.688-18.936-15.525l-2.793-6.187c-3.615,2.076-3.348,7.935-5.133,11.232c2.143,4.378,8.012,10.188,15.242,16.023
            c12.52,10.104,34.514-4.894,34.514-4.894S89.59,124.068,84.887,118.754z" data-fill="skin-color_base"></path>
        <path id="fillSkinColorBase_16_" fill="#F9D7B9" d="M124.23,115.548c0,0-1.967-2.112-3.584-2.854
            c-1.617-0.742-7.317-3.74-7.317-3.74l0.375-6.368l-12.177,0.375l0.188,5.432l-9.795,5.568c-0.001,0-3.985,19.562,14.432,19.562
            C124.251,133.524,124.506,129.312,124.23,115.548z" data-fill="skin-color_base"></path>
        <path id="fillSkinColorShade_1_" fill="#E1C3A9" d="M113.398,106.652l0.306-4.062l-12.177,0.293l0.229,3.958
            C105.665,107.335,109.493,107.247,113.398,106.652z" data-fill="skin-color_shade"></path>
        <path id="fillSkinColorBase_15_" fill="#F9D7B9" d="M122.887,168.809c-1.373-3.871-2.716-11.174-3.115-13.713
            c-0.832-5.256-1.385-11.339,0.83-14.104c2.211-2.771,3.594-5.262,2.211-13.278c0,0,4.397-6.586,5.271-7.562
            c0,0-1.875-4.584-7.945-7.696c-9.188,7.376-16.771,11.528-26.33,0.456c-3.396,2.12-7.354,3.881-9.467,5.983l6.951,9.368
            c0,0-4.149,6.915,3.042,14.66c0,0,3.133,5.921-0.563,18.183c0,0-1.558,3.795-3.106,7.979
            C101.41,173.316,112.643,174.244,122.887,168.809z" data-fill="skin-color_base"></path>
        <path id="fillSkinColorBase_14_" fill="#F9D7B9" d="M91.499,167.191c0,0-5.214,3.422-5.899,44.629l14.917,0.842l2.766-15.396h5.563
            c0,0,1.174,9.664,1.174,15.67l15.813-0.127c0,0,3.979-33.438-3.364-45.453L91.499,167.191z" data-fill="skin-color_base"></path>
    </g>
    <g id="fhd1" xmlns="http://www.w3.org/2000/svg" class="avatar-head">
        <g display="inline">
            <path id="fillSkinColorBase" fill="#F9D7B9" d="M138.729,50.321c1.736,9.145,2.48,18.673,0.916,27.808
                c-1.514,8.824-5.057,17.107-12.994,21.944c-5.176,3.15-11.896,4.342-17.912,4.321C64.23,104.27,76.953,49.991,76.953,49.991
                s3.088-21.571,31.785-22.008c12.228-0.184,26.063,4.592,29.056,17.827C138.126,47.303,138.441,48.807,138.729,50.321z" data-fill="skin-color_base"></path>
            <path id="fillSkinColorBase_1_" fill="#F9D7B9" d="M140.958,64.801c-0.198-0.181-0.42-0.411-0.649-0.665
                c0.028,5.719-0.617,11.534-1.646,17.253C151.926,73.358,140.958,64.801,140.958,64.801z" data-fill="skin-color_base"></path>
            <path id="fillSkinColorBase_2_" fill="#F9D7B9" d="M75.176,64.801c0.199-0.181,0.42-0.411,0.65-0.665
                c-0.029,5.719,0.618,11.534,1.654,17.253C64.208,73.358,75.176,64.801,75.176,64.801z" data-fill="skin-color_base"></path>
        </g>
    </g>
    <g id="fsh1_x5F_bl" xmlns="http://www.w3.org/2000/svg" class="avatar-shoes">
        <g id="fsh1_x5F_bl_1_">
            <g>
                <path id="fillShoesColorBase" fill="#535763" d="M120.689,281.35l5.854,0.637c1.012,0.33,2.021,0.65,3.035,0.978
                    c1.404,0.438,2.961,0.545,4.164,1.479c1.086,0.839,2.396,2.635,0.479,3.375c0,0-2.969,1.146-9.313,0.5
                    c-6.346-0.646-11.688-1.297-15.746-0.946c0,0-0.34-2.699,0.271-5.402L120.689,281.35z" data-fill="shoes-color_base"></path>
                <path id="fillShoesColorTint_1_" fill="#7C7B83" d="M127.85,284.829c-1.521-0.965-1.635-1.896-1.059-2.767
                    c0.93,0.304,1.854,0.599,2.791,0.892c1.408,0.438,2.961,0.545,4.164,1.479c0.223,0.172,0.449,0.383,0.658,0.605
                    C132.17,287.036,130.018,285.611,127.85,284.829z" data-fill="shoes-color_tint"></path>
                <path fill="#AAA6BA" d="M135.148,286.99c-0.109,0.322-0.394,0.609-0.918,0.813c0,0-2.967,1.146-9.313,0.5
                    c-6.345-0.646-11.826-1.268-15.894-0.915c0,0,0.039-0.375-0.076-0.937C118.201,285.956,123.584,288.665,135.148,286.99z" data-fill="#AAA6BA"></path>
            </g>
            <g>
                <path id="fillShoesColorBase_15_" fill="#535763" d="M81.045,280.648l-5.855,0.64c-1.012,0.33-2.023,0.647-3.039,0.969
                    c-1.408,0.438-2.959,0.55-4.164,1.479c-1.086,0.843-2.401,2.638-0.479,3.375c0,0,2.965,1.146,9.312,0.5
                    c6.345-0.646,11.683-1.297,15.747-0.944c0,0,0.348-2.701-0.271-5.403L81.045,280.648z" data-fill="shoes-color_base"></path>
                <path id="fillShoesColorTint" fill="#7C7B83" d="M73.883,284.129c1.523-0.967,1.639-1.896,1.059-2.766
                    c-0.928,0.301-1.856,0.598-2.791,0.889c-1.408,0.438-2.959,0.545-4.164,1.479c-0.223,0.179-0.448,0.39-0.658,0.615
                    C69.565,286.336,71.717,284.914,73.883,284.129z" data-fill="shoes-color_tint"></path>
                <path fill="#AAA6BA" d="M66.586,286.289c0.107,0.324,0.385,0.609,0.918,0.814c0,0,2.965,1.146,9.312,0.5
                    c6.345-0.646,11.831-1.269,15.894-0.916c0,0-0.039-0.375,0.074-0.937C83.532,285.254,78.149,287.965,66.586,286.289z" data-fill="#AAA6BA"></path>
            </g>
        </g>
        <path id="fillSkinColorBase_22_" fill="#F9D7B9" d="M123.355,235.934c-0.146,1.396-2.144,20.152-2.902,32.062
            c-0.348,5.442-0.643,9.386-0.245,9.665c2.046,1.438,4.604,3.434,6.866,4.438c-2.729,2.988-7.092,2.217-10.521,1.477
            c-0.543-0.116-6.695-1.116-6.615-1.428c0.604-1.521,0.293-7.254,0.27-14.23c0.063-6.822,0.007-15.096-0.029-21.541
            c-0.029-5.941-0.146-10.488,0.012-11.051c0.01-0.034,5.508-1.957,5.976-1.963C117.789,233.329,122.605,234.736,123.355,235.934z
            M84.312,235.725c-0.064,0.818-1.056,33.613-1.188,35.188c-0.278,3.313-0.555,5.604-0.975,5.907
            c-2.043,1.438-4.875,3.547-7.137,4.549c2.729,2.992,7.09,2.213,10.52,1.475c0.541-0.117,6.696-1.117,6.614-1.428
            c-0.271-1.854,0.188-8.023,1.481-15.484c1.835-13.425,3.937-30.214,4.052-31.648c0.002-0.033-6.479-1.321-6.943-1.323
            C89.102,232.936,85.062,234.527,84.312,235.725z" data-fill="skin-color_base"></path>
    </g>
    <g id="flo1_1_" xmlns="http://www.w3.org/2000/svg" class="avatar-clothes-lower">
        <path id="fillClothesLowerColorBase" display="inline" fill="#535763" d="M121.339,263.906c0.837-13.607,4.402-51.227,4.402-51.227
            s3.979-33.563-3.363-45.582L91.064,167c0,0-5.214,3.422-5.898,44.627c0,0-1.848,36.979-2.938,52.506
            c3.856,1.803,8.9,1.676,12.127-0.527l8.886-65.854l5.088-0.162l1.549,66.42C113.548,265.898,117.902,265.543,121.339,263.906z" data-fill="clothes-lower-color_base"></path>
        <path id="fillClothesLowerColorShade_1_" display="inline" fill="#484B56" d="M124.591,172.497
            c-0.396-0.979-1.271-5.003-1.76-5.812l-32.39-0.188c0,0-0.756,3.438-1.646,5.867C101.182,176.313,113.736,176.193,124.591,172.497z
            " data-fill="clothes-lower-color_shade"></path>
    </g>
    <g id="fup1" xmlns="http://www.w3.org/2000/svg" class="avatar-clothes-upper">
        <path id="fillClothesUpperColorBase_3_" fill="#D6453F" d="M92.512,114.264c-0.354,0-0.707-0.25-1.104-0.528
            c-0.438,0.249-0.877,0.497-1.311,0.739c-2.374,1.32-4.686,2.341-6.146,3.775c-0.662,0.458-2.93,1.75-5.533,3.255
            c0.646,3.992,3.812,6.974,6.357,9.728c2.688-1.333,4.729-2.582,5.696-3.198l0.188,0.236
            C94.504,124.202,96.762,118.514,92.512,114.264z" data-fill="clothes-upper-color_base"></path>
        <path id="fillClothesUpperColorBase_2_" fill="#D6453F" d="M121.337,137.29l0.935-0.08c2.785-0.928,6.438-0.999,9.34-3.404
            c-0.258-2.938-0.463-5.277-0.586-6.624c-0.646-7.305-2.021-8.738-2.582-8.987c-0.016-0.011-0.062,0.056-0.082,0.042
            c-0.229-0.361-1.301-0.472-1.646-0.906C121.247,121.659,120.501,130.604,121.337,137.29z" data-fill="clothes-upper-color_base"></path>
        <path id="fillClothesUpperColorBase_1_" fill="#D6453F" d="M125.835,128.886c0,0,1.771-8.342,2.771-9.334
            c0,0-0.604-2.437-5.967-6.129c-2.093-1.441-4.252-2.312-6.744-3.292c-1.896,5.354-4.354,11.813-8.672,16.359
            c0.116,0.232-5.812-10.973-7.727-16.354c-4.111,1.053-13.386,3.944-16.823,9.292l6.679,10.021c0,0-4.802,7.064,3.521,14.979
            c0,0,2.563,7.065-1.92,18.938c-0.854,2.26-1.551,5.108-2.568,7.312c12.547,4.836,25.813,4.887,37.773,0.229
            c-1.787-4.384-3.309-11.021-3.85-14.043c-0.963-5.369-1.604-11.591,0.961-14.413C125.835,139.626,127.436,137.081,125.835,128.886z
            " data-fill="clothes-upper-color_base"></path>
        <path id="fillClothesUpperColorShade" fill="#B03833" d="M125.455,139.961c0.021-0.044,0.046-0.087,0.07-0.13
            c0.035-0.071,0.078-0.134,0.111-0.208C125.581,139.744,125.512,139.847,125.455,139.961z M93.234,145.889
            c0.016,0.083,0.029,0.169,0.045,0.258C93.266,146.059,93.25,145.97,93.234,145.889z M92.924,144.585
            c0.012,0.037,0.021,0.068,0.035,0.119C92.945,144.657,92.936,144.62,92.924,144.585z M122.037,144.713
            c0.023-0.076,0.046-0.155,0.072-0.229C122.083,144.558,122.063,144.636,122.037,144.713z M93.009,144.887
            c0.015,0.052,0.027,0.101,0.044,0.163C93.037,144.991,93.021,144.938,93.009,144.887z M122.326,143.953
            c0.033-0.076,0.063-0.154,0.098-0.228C122.389,143.798,122.359,143.878,122.326,143.953z M93.162,145.531
            c-0.016-0.075-0.031-0.143-0.046-0.21C93.131,145.387,93.146,145.458,93.162,145.531z M93.354,146.588
            c0.018,0.095,0.025,0.199,0.039,0.3C93.379,146.788,93.366,146.683,93.354,146.588z M121.65,146.396
            c0.01-0.06,0.018-0.12,0.027-0.179C121.668,146.276,121.66,146.336,121.65,146.396z M121.482,148.278
            c0-0.024,0.002-0.047,0.002-0.071C121.484,148.231,121.482,148.254,121.482,148.278z M121.861,145.316
            c-0.021,0.069-0.031,0.141-0.047,0.212C121.83,145.457,121.846,145.385,121.861,145.316z M93.488,147.739
            c-0.01-0.107-0.018-0.22-0.029-0.322C93.471,147.518,93.479,147.633,93.488,147.739z M93.543,148.37
            c0.014,0.179,0.02,0.376,0.027,0.567C93.584,148.73,93.583,148.536,93.543,148.37z M121.553,147.183
            c-0.004,0.043-0.008,0.087-0.012,0.13C121.545,147.27,121.549,147.227,121.553,147.183z M91.156,142.585
            c0.197,0.241,0.408,0.483,0.631,0.727C91.564,143.069,91.354,142.826,91.156,142.585z M121.469,149.287c0-0.004,0-0.01,0-0.014
            c0,0.004,0,0.006,0,0.009C121.469,149.284,121.469,149.285,121.469,149.287z M124.002,141.609
            c-0.234,0.282-0.477,0.561-0.732,0.842C123.525,142.17,123.768,141.891,124.002,141.609z M92.873,144.428
            c0,0,0.008,0.023,0.021,0.067C92.884,144.459,92.873,144.428,92.873,144.428z M122.811,143.047
            c-0.041,0.06-0.072,0.127-0.106,0.189C122.736,143.174,122.77,143.107,122.811,143.047z M91.988,143.533
            c0.277,0.297,0.568,0.595,0.885,0.895C92.559,144.128,92.268,143.83,91.988,143.533z M124.002,141.609
            c0.004-0.005,0.008-0.01,0.012-0.015c0.002,0,0.002-0.001,0.002-0.001C124.012,141.598,124.006,141.604,124.002,141.609z
            M122.326,143.953c-0.077,0.172-0.151,0.347-0.217,0.53C122.175,144.3,122.25,144.125,122.326,143.953z M121.65,146.396
            c-0.039,0.257-0.071,0.52-0.098,0.788C121.579,146.915,121.611,146.653,121.65,146.396z M121.814,145.528
            c-0.053,0.225-0.103,0.454-0.137,0.689C121.717,145.981,121.764,145.752,121.814,145.528z M122.811,143.047
            c0.145-0.211,0.293-0.411,0.459-0.595C123.104,142.635,122.95,142.835,122.811,143.047z M122.699,143.236
            c-0.098,0.158-0.191,0.318-0.275,0.489C122.508,143.554,122.604,143.394,122.699,143.236z M121.861,145.316
            c0.052-0.207,0.111-0.407,0.176-0.603C121.975,144.909,121.913,145.108,121.861,145.316z M91.156,142.585
            c-0.045-0.053-0.09-0.106-0.131-0.16C91.066,142.479,91.111,142.532,91.156,142.585z M92.924,144.585
            c-0.012-0.035-0.021-0.068-0.027-0.09C92.902,144.515,92.914,144.555,92.924,144.585z M91.988,143.533
            c-0.068-0.074-0.135-0.147-0.201-0.221C91.854,143.386,91.92,143.459,91.988,143.533z M93.116,145.321
            c-0.022-0.098-0.044-0.189-0.064-0.271C93.072,145.131,93.094,145.225,93.116,145.321z M93.009,144.887
            c-0.018-0.067-0.034-0.131-0.05-0.184C92.975,144.755,92.992,144.823,93.009,144.887z M121.482,148.278
            c-0.012,0.327-0.021,0.66-0.019,0.998C121.466,148.938,121.471,148.605,121.482,148.278z M93.162,145.531
            c0.023,0.112,0.048,0.229,0.072,0.357C93.21,145.762,93.188,145.642,93.162,145.531z M93.488,147.739
            c0.02,0.206,0.039,0.407,0.055,0.631c0-0.001,0-0.003,0-0.004C93.527,148.144,93.508,147.943,93.488,147.739z M121.484,148.207
            c0.013-0.303,0.031-0.601,0.057-0.893C121.516,147.606,121.497,147.904,121.484,148.207z M93.393,146.888
            c0.023,0.171,0.047,0.34,0.066,0.528C93.438,147.229,93.416,147.059,93.393,146.888z M93.279,146.147
            c0.025,0.141,0.049,0.284,0.072,0.441C93.329,146.431,93.305,146.287,93.279,146.147z M106.206,141.446
            c-2.958,0.468-7.122,2.795-10.289,2.151c-1.899-0.386-4.552-1.384-6.171-2.996c0.357,0.597,0.783,1.207,1.279,1.825
            c0.041,0.053,0.086,0.106,0.131,0.16c0.197,0.241,0.408,0.483,0.631,0.727c0.066,0.074,0.133,0.147,0.201,0.221
            c0.277,0.297,0.568,0.595,0.885,0.895c0,0,0.008,0.023,0.021,0.067c0.008,0.022,0.018,0.055,0.024,0.09
            c0.015,0.037,0.021,0.068,0.035,0.119c0.021,0.052,0.028,0.116,0.05,0.184c0.02,0.052,0.027,0.101,0.043,0.163
            c0.021,0.082,0.042,0.173,0.063,0.271c0.018,0.067,0.029,0.135,0.049,0.21c0.021,0.112,0.048,0.229,0.068,0.357
            c0.02,0.083,0.03,0.169,0.047,0.258c0.022,0.141,0.051,0.284,0.072,0.441c0.014,0.095,0.024,0.199,0.039,0.3
            c0.022,0.171,0.047,0.34,0.065,0.528c0.012,0.102,0.021,0.215,0.028,0.322c0.021,0.206,0.039,0.407,0.056,0.631
            c0.04,0.166,0.041,0.36,0.026,0.567c0.037,0.832,0.037,1.771-0.021,2.813c7.511-5.273,15.352-7.695,28.008-0.479
            c-0.052-0.674-0.082-1.336-0.088-1.984c0-0.002,0-0.003,0-0.005c0-0.003,0-0.005,0-0.009c-0.003-0.338,0.002-0.668,0.016-1
            c0.002-0.024,0.002-0.047,0.004-0.071c0.014-0.303,0.027-0.601,0.058-0.893c0.004-0.043,0.008-0.087,0.015-0.13
            c0.023-0.268,0.059-0.53,0.098-0.788c0.012-0.06,0.02-0.12,0.027-0.179c0.036-0.236,0.084-0.465,0.137-0.689
            c0.018-0.071,0.027-0.143,0.047-0.212c0.054-0.207,0.111-0.407,0.178-0.603c0.021-0.076,0.046-0.155,0.07-0.229
            c0.063-0.184,0.142-0.358,0.219-0.53c0.031-0.076,0.063-0.154,0.098-0.228c0.084-0.171,0.182-0.331,0.275-0.489
            c0.035-0.062,0.068-0.129,0.107-0.189c0.144-0.211,0.293-0.411,0.461-0.595c0.256-0.281,0.498-0.562,0.729-0.842
            c0.004-0.005,0.008-0.01,0.015-0.015C117.786,147.121,111.88,140.546,106.206,141.446z M108.557,127.167l-2.396,0.047l-1.688-3.941
            l-7.33,2.332c0,0,0.621-10.676,0.646-15.479l3.725-2.834l-0.092,2.157l3.583,10.521l0.138-0.035l2.159,6.415l2.039,0.519
            l-2.11,6.564L108.557,127.167z M110.471,123.267l7.32,2.332c0,0-0.625-10.676-0.646-15.479l-3.062-2.734l-0.562,2.063
            l-3.582,10.521l-0.137-0.035l-2.564,6.54L110.471,123.267z" data-fill="clothes-upper-color_shade"></path>
        <path id="fillClothesUpperColorBase" fill="#D6453F" d="M101.34,108.552l3.799,11.383l-7.145,3.438c0,0,1.262-8.014-0.154-13.043
            l3.703-3.137L101.34,108.552z M113.829,108.496l-4.021,11.438l7.146,3.438c0,0-1.265-8.014,0.151-13.043l-2.924-2.984
            L113.829,108.496z" data-fill="clothes-upper-color_base"></path>
    </g>
    <g id="fey1" xmlns="http://www.w3.org/2000/svg" class="avatar-eyes">
        <path display="inline" fill="#543318" d="M130.046,67.402c-0.004,2.751-1.978,4.979-4.405,4.979
            c-2.425-0.003-4.393-2.236-4.388-4.988c0.005-2.751,1.979-4.978,4.404-4.975C128.085,62.418,130.05,64.651,130.046,67.402z" data-fill="#543318"></path>
        <path display="inline" fill="#543318" d="M96.693,67.233c-0.004,2.751-1.979,4.979-4.405,4.979
            c-2.425-0.003-4.393-2.236-4.387-4.988c0.004-2.751,1.979-4.978,4.402-4.975C94.732,62.249,96.697,64.482,96.693,67.233z" data-fill="#543318"></path>
    </g>
    <g id="fmo1" xmlns="http://www.w3.org/2000/svg" class="avatar-mouth">
        <path display="inline" fill="none" stroke="#816951" stroke-width="2.0555" stroke-linecap="round" stroke-linejoin="round" stroke-miterlimit="10" d="
            M101.65,90.158c0,0,5.476,2.896,13.736-0.07" data-stroke="#816951"></path>
    </g>
    <g id="feb1" xmlns="http://www.w3.org/2000/svg" class="avatar-eyebrows">
        <path id="fillEyebrowColorBase_2_" display="inline" fill="#816951" d="M85.271,56.782c-0.291,0-0.58-0.122-0.783-0.36
            c-0.369-0.432-0.317-1.08,0.115-1.449c5.831-4.982,13.678-0.863,14.01-0.686c0.5,0.268,0.688,0.89,0.42,1.39
            s-0.889,0.689-1.389,0.422c-0.07-0.037-6.951-3.626-11.708,0.436C85.743,56.701,85.506,56.782,85.271,56.782z" data-fill="eyebrow-color_base"></path>
        <path id="fillEyebrowColorBase_3_" display="inline" fill="#816951" d="M132.247,56.6c-0.243,0-0.487-0.085-0.685-0.26
            c-4.688-4.168-11.623-0.708-11.692-0.671c-0.507,0.258-1.125,0.058-1.384-0.448c-0.258-0.506-0.057-1.125,0.447-1.383
            c0.336-0.171,8.269-4.127,13.99,0.966c0.43,0.377,0.467,1.027,0.09,1.451C132.813,56.483,132.529,56.6,132.247,56.6z" data-fill="eyebrow-color_base"></path>
    </g>
    <g id="fhf1" xmlns="http://www.w3.org/2000/svg" class="avatar-hair-front">
        <path id="fillHairColorBase_2_" fill="#3D383A" d="M129.958,28.97l-0.528,0.796c-17.344-10.783-33.164-7.695-42.883-0.451
            C68.213,42.982,73.625,62.971,73.625,62.971c14.312-1.755,26.488-7.339,35.915-13.362c-1.205,4.85-3.581,9.362-3.581,9.362
            c7.924-4.979,13.538-13.802,16.325-18.951c1.771-1.555,3.293-2.997,4.559-4.254c0.589,4.143,2.529,14.337,7.781,18.539
            c0,0-1.332-6-0.332-9.667c0,0-0.074,14.743,6.129,19.538C140.421,64.175,148.624,39.636,129.958,28.97z" data-fill="hair-color_base"></path>
    </g>
</svg>