
                            <svg version="1.1" id="Standing" xmlns="http://www.w3.org/2000/svg" xmlns:xlink="http://www.w3.org/1999/xlink" x="0px" y="0px" width="175px" height="296.512px" viewBox="0 0 175 296.512" enable-background="new 0 0 175 296.512" xml:space="preserve" class="parent"><g id="mbo1" xmlns="http://www.w3.org/2000/svg">
    <path id="fillSkinColorBase_13_" fill="#F9D7B9" d="M71.078,114.694l-10.749-5.732l0.375-6.368l-12.177,0.375l0.188,5.432
        l-9.795,5.568c-0.001,0-3.985,19.562,14.432,19.562C71.251,133.524,71.354,128.457,71.078,114.694z" data-fill="skin-color_base"></path>
    <path id="fillSkinColorShade" fill="#E1C3A9" d="M60.438,106.279l0.271-3.688l-12.182,0.293l0.117,3.415
        C52.671,107.325,56.587,107.166,60.438,106.279z" data-fill="skin-color_shade"></path>
    <path id="fillSkinColorBase_11_" fill="#F9D7B9" d="M73.406,183.569c0.673-50.397-2.989-65.854-2.795-69.136
        c0,0-2.762-1.134-7.174-3.786c-0.44,3.063-0.651,11.655-9.828,11.185c-7.646-0.399-6.959-5.563-8.666-11.271
        c-3.631,1.502-8.746,4.377-9.721,5.082c0,0,2.012,41.14-2.357,67.015c0,0,2.38,0.614,2.361,0.666
        C43.508,189.158,65.675,188.024,73.406,183.569z" data-fill="skin-color_base"></path>
    <path id="fillSkinColorBase_10_" fill="#F9D7B9" d="M72.805,180.004c-0.207-5.17-0.479-8.48-0.479-9.521
        c-0.564,0.021-10.562,1.896-18.405,1.285l0,0c-0.021-0.002-0.062-0.004-0.071-0.006c-0.021,0-0.052-0.013-0.062-0.013l0,0
        c-8.187-0.463-17.312-0.946-17.981-1.063c-0.408,0.729-0.412,2-1.52,7.396c-0.565,5.021-1.31,9.93-1.517,15.307
        c1.689,3.563,9.966,4.416,12.895,4.521c3.604,0.141,5.812,0.979,8.271,0.803c2.521-0.146,4.69-0.658,8.067-0.787
        c2.653-0.104,9.521-1.459,10.894-4.672C73.012,188.141,73.012,184.486,72.805,180.004z" data-fill="skin-color_base"></path>
    <path id="fillSkinColorBase_9_" fill="#F9D7B9" d="M53.607,194.516l19.188-1.738c0.344,7.396-1.679,61.734-4.688,79.563
        c0,0-8.568,1.521-11.596-1.521C56.514,270.818,59.657,215.686,53.607,194.516z" data-fill="skin-color_base"></path>
    <path id="fillSkinColorBase_8_" fill="#F9D7B9" d="M32.917,191.156l19.833,3.354c-2.803,7.967-9.312,59.383-13.091,76.408
        c0,0-8.845,0.709-11.381-2.732C28.28,268.189,31.373,214.223,32.917,191.156z" data-fill="skin-color_base"></path>
    <path id="fillSkinColorBase_6_" fill="#F9D7B9" d="M69.936,127.211c0,0,21.994,14.998,34.52,4.894
        c7.229-5.834,13.101-11.644,15.235-16.021c1.395-2.565,2.229-4.648,2.312-6.043c0.036-0.646-5.405-4.021-7.438-5.189l-2.793,6.188
        c-6.019,11.592-18.938,15.521-18.938,15.521c-4.021-0.063-12.923-6.132-18.954-10.181c-2.396-1.609-4.602-2.532-5.607-3.188
        l-1.607,2.684C61.953,121.184,69.936,127.211,69.936,127.211z" data-fill="skin-color_base"></path>
    <path id="fillSkinColorShade_8_" fill="#E1C3A9" d="M82.41,133.427c7.074,2.5,15.732,3.743,22.01-1.322
        c3.766-3.038,7.154-6.063,9.846-8.894c-2.027,1.55-8.309,6.812-11.828,8.42c-7.25,3-17.042-0.581-17.042-0.581l-0.836-0.355
        c0,0-10.158-3.642-12.981-6.396c0.065,0.89,0.354,4.117,0.354,4.117S76.715,131.411,82.41,133.427z" data-fill="skin-color_shade"></path>
</g><g id="mhd1" xmlns="http://www.w3.org/2000/svg" class="avatar-head">
    <g display="inline">
        <path id="fillSkinColorBase" fill="#F9D7B9" d="M85.729,50.321c1.736,9.146,2.48,18.685,0.916,27.813
            c-1.514,8.824-5.057,17.104-12.994,21.944c-5.176,3.146-11.896,4.342-17.912,4.312c-44.507-0.122-31.784-54.396-31.784-54.396
            s3.088-21.571,31.784-22.02c12.229-0.184,26.062,4.604,29.057,17.827C85.126,47.303,85.441,48.807,85.729,50.321z" data-fill="skin-color_base"></path>
        <path id="fillSkinColorBase_1_" fill="#F9D7B9" d="M87.958,64.801c-0.198-0.181-0.42-0.411-0.649-0.665
            c0.028,5.719-0.617,11.534-1.646,17.253C98.926,73.358,87.958,64.801,87.958,64.801z" data-fill="skin-color_base"></path>
        <path id="fillSkinColorBase_2_" fill="#F9D7B9" d="M22.176,64.801c0.199-0.181,0.42-0.411,0.65-0.665
            c-0.029,5.719,0.618,11.534,1.654,17.253C11.208,73.358,22.176,64.801,22.176,64.801z" data-fill="skin-color_base"></path>
    </g>
</g><g id="mlo1" xmlns="http://www.w3.org/2000/svg" class="avatar-clothes-lower">
    <path id="fillClothesLowerColorBase_1_" fill="#54667B" d="M72.805,180.004c-0.207-5.17-0.479-8.48-0.479-9.521
        c-0.564,0.021-10.562,1.896-18.405,1.285c-0.021-0.002-0.062-0.004-0.071-0.006c-0.021,0-0.052-0.013-0.062-0.013
        c-8.187-0.463-17.312-0.946-17.981-1.063c-0.408,0.729-0.412,2-1.52,7.396c-0.565,5.021-1.31,9.93-1.517,15.307
        c0.006,0.021,0.017,0.021,0.024,0.039c-1.586,24.146-4.488,74.771-4.489,74.771c2.537,3.438,11.38,2.729,11.38,2.729
        c3.354-15.146,8.89-57.521,12.041-72.295c0.731,0.085,1.467,0.13,2.215,0.076c0.229-0.021,0.455-0.033,0.687-0.063
        c4.692,23.418,1.922,72.166,1.922,72.166c3.021,3.021,11.604,1.521,11.604,1.521c2.953-17.438,4.994-69.44,4.768-78.652
        c0.021-0.028-0.018-0.393,0.003-0.428C73.012,188.141,73.012,184.486,72.805,180.004z" data-fill="clothes-lower-color_base"></path>
    <path id="fillClothesLowerColorShade" fill="#4D5E71" d="M72.85,185.922c-0.007-2.191,0.063-3.598-0.045-5.918
        c-0.207-5.17-0.479-8.48-0.479-9.521c-0.564,0.021-10.562,1.896-18.405,1.285l0,0c-0.021-0.002-0.062-0.004-0.071-0.006
        c-0.021,0-0.052-0.013-0.062-0.013l0,0c-8.187-0.463-17.312-0.946-17.981-1.063c-0.408,0.729-0.412,2-1.52,7.396
        c-0.261,2.312-0.558,4.604-0.824,6.938C45.377,191.119,57.732,191.25,72.85,185.922z M72.85,185.922
        c-0.007-2.191,0.063-3.598-0.045-5.918c-0.207-5.17-0.479-8.48-0.479-9.521c-0.564,0.021-10.562,1.896-18.405,1.285l0,0
        c-0.021-0.002-0.062-0.004-0.071-0.006c-0.021,0-0.052-0.013-0.062-0.013l0,0c-8.187-0.463-17.312-0.946-17.981-1.063
        c-0.408,0.729-0.412,2-1.52,7.396c-0.261,2.312-0.558,4.604-0.824,6.938C45.377,191.119,57.732,191.25,72.85,185.922z
         M63.148,234.941c-7.248-3.229-5.42-11.629-6.521-18.959c1.664,21.418-0.254,54.851-0.254,54.851
        c3.023,3.021,11.46,1.502,11.46,1.502c1.172-6.903,2.92-27.024,3.551-38.39C69.081,235.799,66.374,236.408,63.148,234.941z
         M34.434,232.941c-1.29-0.646-2.529-1.479-3.707-2.479c-0.838,16.729-2.447,37.728-2.447,37.728
        c2.537,3.438,11.381,2.729,11.381,2.729c2.36-10.646,6.38-39.938,9.021-55.938C46.791,224.695,42.042,236.323,34.434,232.941z" data-fill="clothes-lower-color_shade"></path>
</g><g id="mup1" xmlns="http://www.w3.org/2000/svg" class="avatar-clothes-upper">
    <path id="fillClothesUpperColorBase_16_" fill="#D6453F" d="M73.404,183.83c0.673-50.404-2.981-66.544-2.788-69.827
        c0,0-2.272-1.247-6.892-3.577c-0.44,3.063,0.323,11.81-8.854,11.33c-7.297-0.565-8.293-5.771-10-11.484
        c-3.631,1.502-7.578,2.797-9.625,4.938c0,0,1.624,41.68-2.745,67.555c0,0,2.267,1.245,2.249,1.297
        C43.036,189.9,65.673,188.285,73.404,183.83z" data-fill="clothes-upper-color_base"></path>
    <path id="fillClothesUpperColorShade_9_" fill="#B03833" d="M72.434,177.941c-8,2-16,2-23-1
        c-11.037-3.438-13.508-13.562-13.979-24.424c-0.542,10.459-1.448,21.354-2.95,30.246c0,0,2.267,1.232,2.249,1.297
        c8.282,5.84,30.92,4.229,38.65-0.229c0.029-2.188,0.05-4.271,0.062-6.324C73.122,177.652,72.779,177.803,72.434,177.941z" data-fill="clothes-upper-color_shade"></path>
    <path id="fillClothesUpperColorShade_10_" fill="#B03833" d="M49.014,137.334c0.027-0.063,0.11-0.134,0.07-0.203
        c-1.896-3.25-2.083-4.125-5-7.125c-1.529-1.573-2.688-3.589-3.449-5.155C41.326,127.825,43.395,132.183,49.014,137.334z" data-fill="clothes-upper-color_shade"></path>
    <path id="fillClothesUpperColorBase_15_" fill="#D6453F" d="M72.223,131.237c2.391,1.015,5.865,2.165,9.452,2.984
        c2.273-2.238,5.863-7.402,6.294-10.749c-4.63-2.27-7.923-4.169-10.798-5.872c-2.235-1.507-7.827-4.25-7.827-4.25l-5.511,8.156
        l3.667,9l4.688,0.683" data-fill="clothes-upper-color_base"></path>
    <path id="fillClothesUpperColorShade_23_" fill="#B03833" d="M72.188,131.189c0.066,0.042,0.129,0.083,0.197,0.126
        c2.381,0.989,5.764,2.107,9.258,2.905c0.857-0.844,1.9-2.103,2.896-3.524c-3.812-0.55-8.33-1.611-12.562-3.178L72.188,131.189z" data-fill="clothes-upper-color_shade"></path>
    <path id="fillSkinColorShade_6_" fill="#E1C3A9" d="M88.578,125.319c-0.406-0.154-0.521-0.258-0.953-0.445
        c-0.961,2.854-3.357,6.479-5.234,8.562c0.297,0.104,0.614,0.175,0.916,0.273C86.17,131.323,87.607,128.998,88.578,125.319z" data-fill="skin-color_shade"></path>
    <path id="fillClothesUpperColorShade_31_" fill="#B03833" d="M39.484,148.069l2.445-0.643c-0.562-0.607-1.131-1.238-1.693-1.888
        C39.934,146.312,39.668,147.14,39.484,148.069z" data-fill="clothes-upper-color_shade"></path>
    <path id="fillClothesUpperColorShade_14_" fill="#B03833" d="M49.154,138.884l0.361-1.253c0,0-0.494,0.086-1.264,0.343
        C48.557,138.284,48.855,138.587,49.154,138.884z" data-fill="clothes-upper-color_shade"></path>
    <path id="fillSkinColorBase_20_" fill="#F9D7B9" d="M93.014,148.524c-0.396-0.244-0.836-0.479-1.139-0.838
        c-0.354-0.417-0.395-0.883-0.434-1.396c-0.021-0.32-0.168-1.135,0.145-1.382c0.826-0.647,1.419-1.572,2.148-2.319
        c0.865-0.877,0.433-2.406-0.526-3.039c-0.496-0.336-1.13-0.469-1.742-0.382c-0.87,0.13-1.647,0.896-2.288,1.426
        c-0.714,0.586-1.382,1.229-1.906,1.973c-0.847,1.204-1.592,2.479-2.396,3.703c-0.122,0.188-1.827,1.979-2.235,3.026
        c-0.013,0.026-0.021,0.056-0.031,0.079c-0.014,0.044-0.35,1.01-0.477,1.461c-0.094,0.291-0.13,2.5-0.188,2.8
        c-0.334,1.56-0.396,2.973,0.304,4.445c0.646,1.366,7.597,3.812,12.044,5.312c0.375-0.396,0.66-0.688,0.885-0.932
        c0.469-0.59,0.854-1.206,1.17-1.829c0.008-0.033,0.021-0.056,0.035-0.093c0.399-1.029,0.657-1.694,0.823-2.361
        c0.087-0.39,0.144-0.771,0.19-1.161c0.013-0.103,0.016-0.215,0.021-0.316c0.017-0.139,0.013-0.246,0.021-0.372
        c0.021-0.355,0.021-0.771,0.021-1.229c-0.074-2.162-0.615-4.136-1.129-5.521C95.148,149.413,94.014,149.126,93.014,148.524z" data-fill="skin-color_base"></path>
    <path id="fillSkinColorBase_17_" fill="#F9D7B9" d="M105.585,149.119c-0.771,0.271-1.575,0.47-2.394,0.584
        c-1.521,0.213-3.072,0.222-4.604,0.097c-0.752-0.056-1.521-0.119-2.272-0.227c-2.271,0.134-4.233,4.176,1.125,4.939
        c3.438,0.396,7.125,0.327,10.318-0.839C111.012,152.515,108.813,147.949,105.585,149.119z" data-fill="skin-color_base"></path>
    <path id="fillSkinColorBase_12_" fill="#F9D7B9" d="M96.004,154.554c3.219,0.252,6.446,0.593,9.65-0.049
        c3.402-0.691,4.254,4.245,0.867,4.93c-3.646,0.735-7.396,0.4-11.039,0.105C92.018,159.27,92.557,154.28,96.004,154.554z
         M93.549,162.938c3.038,2.324,7.168,2.575,10.729,1.729c2.688-0.646,1.354-4.437-1.312-3.788c-1.913,0.46-4.858,0.224-6.502-0.882
        c-0.946-0.64-2.174-0.739-3.028,0.131C92.703,160.858,92.645,162.247,93.549,162.938z" data-fill="skin-color_base"></path>
    <path id="fillSkinColorBase_7_" fill="#F9D7B9" d="M83.3,149.295c-14.877-1.199-26.673-3.847-26.673-3.847
        s-15.544-11.692-16.855-21.02c-0.092-1.188-1.896-5.304-4.688-7.137c-0.619-0.635-1.374-0.316-1.374-0.316s-3.75,3.771-3.375,9.313
        c0.317,13.295,20.604,29.676,20.604,29.676s19.486,3.795,33.617,2.711C90.951,158.191,89.729,149.814,83.3,149.295z" data-fill="skin-color_base"></path>
    <path id="fillSkinColorShade_14_" fill="#E1C3A9" d="M40.238,145.537c5.275,6.057,10.687,10.43,10.687,10.43
        s17.771,3.458,31.677,2.825l0.219-0.119l-17.5-2.25c0,0-11.668-1.334-14.418-3.584c-2.117-1.734-7.295-7.118-9.562-9.501
        c0,0-8.027-9.271-10.777-19.707c-0.25,0.729-1.125,4.75,2.562,11.875c2.797,5.047,5.312,7.812,5.312,7.812L40.238,145.537z" data-fill="skin-color_shade"></path>
    <path id="fillSkinColorShade_19_" fill="#E1C3A9" d="M49.266,139.012c-0.344-0.338-0.688-0.683-1.033-1.038
        c-2.049,0.688-6.059,2.646-7.984,7.564c0.695,0.801,1.396,1.563,2.088,2.307C42.098,143.665,45.617,139.988,49.266,139.012z" data-fill="skin-color_shade"></path>
    <path id="fillClothesUpperColorBase_2_" fill="#D6453F" d="M49.5,137.631c0,0-8.209,1.395-10,10.438
        c0,0-10.592-11.555-10.001-22.062c0.251-4.458,1.4-7.548,6.267-11.267c3.834,1.667,4.904,5.862,4.904,5.862
        S38.438,127.673,49.5,137.631z" data-fill="clothes-upper-color_base"></path>
</g><g id="msh1_x5F_tl" xmlns="http://www.w3.org/2000/svg" class="avatar-shoes">
    <path id="fillShoesColorBase_10_" display="inline" fill="#4F4E55" d="M68.896,267.172c0,0.248,14.604,6.688,14.604,6.688
        s2.229,2.854-0.688,3.229l-26.5-0.521v-6.428c0,0,4.062,0.908,6.312,0.313C64.887,269.82,68.896,267.172,68.896,267.172z" data-fill="shoes-color_base" class="tl"></path>
    <polyline id="fillShoesColorTint_2_" display="inline" fill="#8C898D" points="85.225,276.566 55.122,276.059 55.469,278.508 
        85.053,278.592 85.57,276.482    " data-fill="shoes-color_tint" class="tl"></polyline>
    <path id="fillShoesColorBase_11_" display="inline" fill="#4F4E55" d="M27.739,267.172c0,0.248-14.609,6.688-14.609,6.688
        s-2.232,2.854,0.682,3.229l26.502-0.521v-6.426c0,0-4.067,0.916-6.316,0.313C31.748,269.82,27.739,267.172,27.739,267.172z" data-fill="shoes-color_base" class="tl"></path>
    <polyline id="fillShoesColorTint_7_" display="inline" fill="#8C898D" points="11.409,276.566 41.512,276.059 41.166,278.508 
        11.581,278.592 11.063,276.482   " data-fill="shoes-color_tint" class="tl"></polyline>
</g><g id="mey1" xmlns="http://www.w3.org/2000/svg" class="avatar-eyes">
    <path fill="#543318" d="M77.046,67.402c-0.004,2.751-1.978,4.979-4.405,4.979c-2.425-0.003-4.393-2.236-4.388-4.988
        c0.005-2.751,1.979-4.978,4.404-4.975C75.085,62.418,77.05,64.651,77.046,67.402z" data-fill="#543318"></path>
    <path fill="#543318" d="M43.693,67.233c-0.004,2.751-1.979,4.979-4.405,4.979c-2.425-0.003-4.393-2.236-4.387-4.988
        c0.004-2.751,1.979-4.978,4.402-4.975C41.732,62.249,43.697,64.482,43.693,67.233z" data-fill="#543318"></path>
</g><g id="mmo1" xmlns="http://www.w3.org/2000/svg" class="avatar-mouth">
    
        <path display="inline" fill="none" stroke="#816951" stroke-width="2.0555" stroke-linecap="round" stroke-linejoin="round" stroke-miterlimit="10" d="
        M48.65,90.158c0,0,5.476,2.896,13.736-0.07" data-stroke="#816951"></path>
</g><g id="meb1" xmlns="http://www.w3.org/2000/svg" class="avatar-eyebrows">
    <path id="fillEyebrowColorBase_2_" display="inline" fill="#816951" d="M32.271,56.782c-0.291,0-0.58-0.122-0.783-0.36
        c-0.369-0.432-0.317-1.08,0.115-1.449c5.831-4.979,13.678-0.863,14.01-0.686c0.5,0.268,0.688,0.89,0.42,1.39
        c-0.268,0.5-0.889,0.689-1.389,0.422c-0.07-0.037-6.951-3.626-11.708,0.438C32.743,56.701,32.506,56.782,32.271,56.782z" data-fill="eyebrow-color_base"></path>
    <path id="fillEyebrowColorBase_3_" display="inline" fill="#816951" d="M79.247,56.6c-0.243,0-0.487-0.085-0.685-0.26
        c-4.688-4.168-11.623-0.708-11.692-0.671c-0.507,0.258-1.125,0.058-1.384-0.448c-0.258-0.506-0.057-1.125,0.447-1.383
        c0.336-0.171,8.269-4.127,13.983,0.966c0.437,0.377,0.474,1.027,0.097,1.451C79.812,56.483,79.529,56.6,79.247,56.6z" data-fill="eyebrow-color_base"></path>
</g><g id="mhf1" xmlns="http://www.w3.org/2000/svg" class="avatar-hair-front">
    <path id="fillHairColorBase_5_" fill="#3D383A" d="M31.28,25.957c0.773-0.938,1.933-1.651,2.646-2.217
        c12.733-10.146,30.553-9.333,43.389,0.215c1.172,0.551,2.33,1.122,3.479,1.688c0.271,0.146,0.479,0.313,0.718,0.457
        c0.896,0.396,1.812,0.771,2.771,1.146c4.146,1.646,3.659,6.75,0.971,8.892c2.979,7.42,3.988,18,1.341,33.054l-0.062,0.454
        c0,0-0.688,2.193-0.949-0.798c-0.244-2.717-1.312-19.387-4.115-25.548c-0.497,0.672-1.2,1.255-2.217,1.646
        c-15.324,5.943-34.646,5.568-49.398-2.269c-1.846,1.649-3.674,3.479-4.406,7.838c-0.402,8.369,0.215,20.032-1.082,20.08
        c-0.467,0.021-1.818-6.389-2.529-14.719C20.946,45.968,21.971,33.408,31.28,25.957z" data-fill="hair-color_base"></path>
</g><g id="mdev1" xmlns="http://www.w3.org/2000/svg" class="avatar-device">
    <g>
        <path id="fillSkinColorShade_23_" fill="#E1C3A9" d="M116.966,120.186c1.179-1.463,2.11-2.844,2.726-4.102
            c1.396-2.565,2.229-4.648,2.313-6.043c0.036-0.646-5.404-4.021-7.438-5.189l-2.793,6.188c-1.101,2.107-2.434,3.956-3.862,5.581
            C112.162,116.101,114.982,117.644,116.966,120.186z" data-fill="skin-color_shade"></path>
        <path id="fillSkinColorShade_4_" fill="#E1C3A9" d="M101.62,110.658c0,0,19.459,16.396,32.375-0.368L101.62,110.658z" data-fill="skin-color_shade"></path>
        <g>
            <polygon fill="#2F2F2D" points="152.604,103.781 152.909,112.525 165.291,107.144 165.051,100.338             " data-fill="#2F2F2D"></polygon>
            <polygon fill="#5A5756" points="152.604,103.781 90.938,103.035 107.475,99.445 165.051,100.338           " data-fill="#5A5756"></polygon>
            <polygon fill="#3A3A39" points="152.909,112.525 91.496,111.257 91.202,102.938 152.604,103.781           " data-fill="#3A3A39"></polygon>
            <polygon fill="#4DB2E4" points="123.021,109.556 112.975,109.179 112.718,105.147 122.756,105.323             " data-fill="#4DB2E4"></polygon>
            <polygon fill="#6197D0" points="95.352,108.353 92.764,108.153 92.648,104.969 95.124,105.127             " data-fill="#6197D0"></polygon>
            <polygon fill="#5E6062" points="127.471,105.759 124.122,105.635 124.035,104.29 127.383,104.349          " data-fill="#5E6062"></polygon>
            <polygon fill="#5E6062" points="127.55,108.05 124.203,107.924 124.115,106.58 127.463,106.639            " data-fill="#5E6062"></polygon>
            <polygon fill="#5E6062" points="127.629,110.224 124.279,110.098 124.193,108.755 127.541,108.813             " data-fill="#5E6062"></polygon>
            <polygon fill="#5E6062" points="149.895,110.93 132.712,110.26 132.627,108.916 149.807,109.52            " data-fill="#5E6062"></polygon>
            <polygon fill="#5E6062" points="112.105,105.615 108.755,105.488 108.672,104.144 112.018,104.202             " data-fill="#5E6062"></polygon>
            <polygon fill="#5E6062" points="112.186,107.903 108.84,107.777 108.752,106.433 112.098,106.492          " data-fill="#5E6062"></polygon>
            <polygon fill="#5E6062" points="112.264,110.078 108.914,109.952 108.827,108.609 112.173,108.668             " data-fill="#5E6062"></polygon>
            <polygon fill="#5E6062" points="108.091,105.525 104.741,105.4 104.657,104.055 108.003,104.115           " data-fill="#5E6062"></polygon>
            <polygon fill="#5E6062" points="108.171,107.815 104.822,107.69 104.734,106.344 108.082,106.405          " data-fill="#5E6062"></polygon>
            <polygon fill="#5E6062" points="108.248,109.99 104.898,109.865 104.813,108.52 108.159,108.58            " data-fill="#5E6062"></polygon>
            <polygon fill="none" stroke="#5E6062" stroke-width="0.1994" stroke-miterlimit="10" points="96.227,110.413 92.878,110.288 
                92.792,108.943 96.139,109.004           " data-stroke="#5E6062"></polygon>
            <path fill="#52504F" d="M91.586,111.289l-3.638-0.155l-0.351-8.266l3.644,0.147L91.586,111.289z M90.564,104.405
                c-0.019-0.354-0.32-0.648-0.688-0.672l-0.917-0.04c-0.363-0.015-0.646,0.267-0.639,0.616l0,0
                c0.015,0.354,0.322,0.656,0.688,0.671l0.922,0.038C90.294,105.034,90.579,104.76,90.564,104.405L90.564,104.405z M90.805,109.899
                c-0.013-0.354-0.322-0.648-0.687-0.672l-0.925-0.038c-0.364-0.016-0.646,0.266-0.635,0.616l0,0
                c0.012,0.354,0.313,0.656,0.688,0.67l0.913,0.038C90.534,110.528,90.818,110.252,90.805,109.899L90.805,109.899z" data-fill="#52504F"></path>
            <path fill="#52504F" d="M156.563,112.616l-3.914-0.074l-0.365-8.8l3.919,0.063L156.563,112.616z M155.471,105.365
                c-0.016-0.396-0.345-0.724-0.738-0.729l-0.979-0.019c-0.396-0.013-0.695,0.305-0.688,0.691l0,0
                c0.02,0.396,0.351,0.723,0.735,0.729l0.985,0.018C155.18,106.071,155.486,105.758,155.471,105.365L155.471,105.365z
                 M155.723,111.097c-0.017-0.394-0.346-0.716-0.736-0.726L154,110.354c-0.393-0.01-0.697,0.309-0.684,0.694l0,0
                c0.018,0.392,0.347,0.719,0.74,0.725l0.979,0.021C155.432,111.803,155.736,111.49,155.723,111.097L155.723,111.097z" data-fill="#52504F"></path>
            
                <line fill="none" stroke="#3A3A39" stroke-width="0.7975" stroke-miterlimit="10" x1="135.091" y1="107.297" x2="135.221" y2="110.959" data-stroke="#3A3A39"></line>
            
                <line fill="none" stroke="#3A3A39" stroke-width="0.7975" stroke-miterlimit="10" x1="137.725" y1="107.203" x2="137.852" y2="110.866" data-stroke="#3A3A39"></line>
            
                <line fill="none" stroke="#3A3A39" stroke-width="0.7975" stroke-miterlimit="10" x1="140.355" y1="107.111" x2="140.484" y2="110.774" data-stroke="#3A3A39"></line>
            
                <line fill="none" stroke="#3A3A39" stroke-width="0.7975" stroke-miterlimit="10" x1="142.988" y1="107.019" x2="143.148" y2="111.597" data-stroke="#3A3A39"></line>
            
                <line fill="none" stroke="#3A3A39" stroke-width="0.7975" stroke-miterlimit="10" x1="145.622" y1="106.926" x2="145.783" y2="111.505" data-stroke="#3A3A39"></line>
            
                <line fill="none" stroke="#3A3A39" stroke-width="0.7975" stroke-miterlimit="10" x1="148.255" y1="106.834" x2="148.417" y2="111.412" data-stroke="#3A3A39"></line>
            
                <ellipse transform="matrix(0.9994 -0.0344 0.0344 0.9994 -3.6167 4.5391)" fill="none" stroke="#666361" stroke-width="0.3987" stroke-miterlimit="10" cx="130.145" cy="107.408" rx="1.604" ry="1.888" data-stroke="#666361"></ellipse>
        </g>
    </g>
    <g>
        <g>
            <path fill="#FBD9BB" d="M125.294,102.772C125.32,103.161,125.795,102.53,125.294,102.772L125.294,102.772z" data-fill="#FBD9BB"></path>
        </g>
        <g>
            <polygon fill="#2F2F2D" points="152.613,95.68 152.924,104.423 165.305,99.042 165.064,92.237             " data-fill="#2F2F2D"></polygon>
            <polygon fill="#5A5756" points="152.613,95.68 90.952,94.934 107.486,91.345 165.064,92.237           " data-fill="#5A5756"></polygon>
            <polygon fill="#D7D5D5" points="152.924,104.423 91.51,103.156 91.217,94.838 152.613,95.68           " data-fill="#D7D5D5"></polygon>
            <polygon fill="#454445" points="151.213,104.158 93.205,102.961 92.928,95.102 150.923,95.899             " data-fill="#454445"></polygon>
            <polygon fill="#5E6062" points="132.008,103.558 106.423,103.295 106.072,95.242 131.859,95.73            " data-fill="#5E6062"></polygon>
            <polygon fill="#5E6062" points="99.635,100.042 93.523,99.857 93.438,98.512 99.547,98.63             " data-fill="#5E6062"></polygon>
            <path fill="#D7D5D5" d="M91.602,103.188l-3.645-0.147l-0.344-8.271l3.638,0.155L91.602,103.188z M90.579,96.303
                c-0.013-0.354-0.32-0.655-0.687-0.67l-0.93-0.04c-0.359-0.016-0.646,0.259-0.641,0.615l0,0c0.015,0.354,0.318,0.648,0.689,0.671
                l0.916,0.04C90.309,96.935,90.596,96.659,90.579,96.303L90.579,96.303z M90.818,101.798c-0.014-0.356-0.321-0.656-0.688-0.671
                l-0.917-0.04c-0.372-0.021-0.648,0.26-0.646,0.616l0,0c0.019,0.354,0.326,0.649,0.69,0.67l0.914,0.039
                C90.548,102.427,90.833,102.152,90.818,101.798L90.818,101.798z" data-fill="#D7D5D5"></path>
            <path fill="#D7D5D5" d="M156.575,104.515l-3.916-0.073l-0.361-8.801l3.911,0.073L156.575,104.515z M155.482,97.265
                c-0.02-0.394-0.344-0.717-0.736-0.725l-0.984-0.021c-0.393-0.007-0.697,0.313-0.683,0.698l0,0
                c0.015,0.394,0.345,0.719,0.735,0.726l0.98,0.021C155.193,97.97,155.499,97.657,155.482,97.265L155.482,97.265z M155.734,102.996
                c-0.014-0.396-0.344-0.724-0.735-0.729l-0.985-0.019c-0.395-0.007-0.699,0.305-0.683,0.689l0,0
                c0.017,0.396,0.345,0.725,0.735,0.729l0.979,0.019C155.443,103.702,155.753,103.387,155.734,102.996L155.734,102.996z" data-fill="#D7D5D5"></path>
        </g>
        
            <line fill="none" stroke="#454445" stroke-width="0.25" stroke-miterlimit="10" x1="106.245" y1="97.204" x2="131.782" y2="97.59" data-stroke="#454445"></line>
        
            <line fill="none" stroke="#454445" stroke-width="0.25" stroke-miterlimit="10" x1="106.303" y1="101.927" x2="131.84" y2="102.315" data-stroke="#454445"></line>
        
            <ellipse transform="matrix(0.9961 -0.0886 0.0886 0.9961 -8.3265 11.9235)" fill="#0090C9" cx="130.165" cy="99.767" rx="0.656" ry="0.626" data-fill="#0090C9"></ellipse>
        
            <ellipse transform="matrix(0.9965 -0.0839 0.0839 0.9965 -7.9461 9.411)" fill="#EE4031" cx="108.05" cy="99.29" rx="0.198" ry="0.184" data-fill="#EE4031"></ellipse>
        
            <ellipse transform="matrix(0.9962 -0.0872 0.0872 0.9962 -8.2421 10.022)" fill="#33B34A" cx="110.635" cy="99.386" rx="0.196" ry="0.185" data-fill="#33B34A"></ellipse>
        
            <ellipse transform="matrix(0.9964 -0.0849 0.0849 0.9964 -8.0376 9.9569)" fill="#33B34A" cx="113.04" cy="99.473" rx="0.196" ry="0.185" data-fill="#33B34A"></ellipse>
    </g>
</g></svg>
                        