
							<svg version="1.1" id="Layer_1" xmlns="http://www.w3.org/2000/svg" xmlns:xlink="http://www.w3.org/1999/xlink" x="0px" y="0px" width="240px" height="319.333px" viewBox="0 0 240 319.333" enable-background="new 0 0 240 319.333" xml:space="preserve" class="parent"><g id="fhb1_1_" xmlns="http://www.w3.org/2000/svg" class="avatar-hair-back">
	<path id="fillHairColorBase_19_" fill="#3D383A" d="M68.856,30.205c-36.668-1.647-42.679,26.126-42.518,64.614
		c0.104,24.991-4.091,48.163-4.091,48.163l7.241,2.915c0,0,46.036,12.946,70.824,1.05l4.788-79.274
		C105.103,67.671,105.913,31.871,68.856,30.205z" data-fill="hair-color_base"></path>
</g><g id="fuchair11" xmlns="http://www.w3.org/2000/svg">
	<g>
		<polygon fill="#4F606A" points="50.139,223.687 52.021,260.37 55.112,260.937 56.055,259.797 58.609,223.499 		" data-fill="#4F606A"></polygon>
		<polygon fill="#4F606A" points="75.399,225.829 77.282,262.508 80.373,263.079 81.315,261.938 83.869,225.638 		" data-fill="#4F606A"></polygon>
		<polygon fill="#4F606A" points="95.156,216.73 96.85,255.42 99.628,255.988 100.473,254.849 102.77,216.542 		" data-fill="#4F606A"></polygon>
		<polygon fill="#42525B" points="68.823,214.491 70.516,253.179 73.295,253.749 74.141,252.608 76.438,214.299 		" data-fill="#42525B"></polygon>
		<path fill="#3E4E58" d="M49.244,228.667c1.681-0.562,35.299,2.799,35.299,2.799l20.73-10.643l0.56-11.209
			c0,0-26.188-14.885-59.247,5.848L49.244,228.667z" data-fill="#3E4E58"></path>
		<polygon fill="#A0A1A7" points="48.919,227.04 84.543,229.752 105.273,219.109 105.834,224.151 85.104,234.797 49.244,232.556 		
			" data-fill="#A0A1A7"></polygon>
	</g>
</g><g id="fbo1" xmlns="http://www.w3.org/2000/svg">
	<path id="fillSkinColorBase_2_" fill="#F9D7B9" d="M128.234,249.87c-0.553-1.511-0.627-2.902-0.592-3.543
		c-0.272-3.703,0.133-9.227,0.133-9.227c0.646-13.26,1.287-28.121,1.287-28.121s0.75-5.688-5.313-7.75
		c-4.252-1.445-16.428-4.488-23.326-6.18c-2.937-0.721-4.924-1.195-4.924-1.195l-4.691-1.213c0,0-5.975-2.059-5.976-2.059
		c-0.32-0.11-2.398-5.729-2.5-6.25c-0.517-2.649-2.178-5.377-2.833-8c-1.045-4.188-1.168-7.354-0.814-10.021
		c0.032-0.047,0.059-0.105,0.075-0.193c1.301-7.042,2.406-5.119,5.406-10.791c0.598-1.129,0.901-2.358,1.017-3.601
		c0.906,1.322,1.867,2.601,2.15,2.935c2.062,2.435,7.339,7.347,10,9.167c3.357,2.293,5.213,3.666,14.667,7.5
		c4.435,1.799,8.502,3.666,13.137,4.979c0.514,0.146,1.564,0.104,1.896,0.021c3.583-0.81,3.553-4.601,3.367-6.211
		c-0.053-0.451-0.896-0.826-1.25-1.012c-5.442-2.729-10.146-4.031-15.484-6.959c-4.971-2.716-11.318-6.2-15.142-10.583
		c-2.654-3.043-4.843-6.459-6.964-9.886c-1.896-3.061-3.556-6.523-5.561-9.531c-4.667-7-12.918-10.01-15.817-11.07v-5.78
		c-4.687,1.06-7.023,1.502-11.711-0.065v6.377c-1.683,0.374-4.856,1.86-6.644,2.494c-7.5,4.75-10.495,7.38-7.453,22.422
		c1.375,6,3.733,7.876,5.125,17.75c2.167,15.375-4.224,19.547-3.223,28.912c0.485,4.544,0.253,4.688,0.939,6.312
		c1.032,4.867,2.551,10.938,11.502,13.521c7.299,1.375,34.062,4.229,34.062,4.229l4.812,43.938
		c13.358,4.307,17.783,2.753,15.447,0.921c-1.782-1.104-3.651-2.479-4.607-3.655c-0.869-1.063-0.8-3.891-0.745-4.93
		c0.74-13.971,1.688-38.012,1.688-38.012s0.247-1.949-0.757-3.979c2.745,0.441,5.382,1.229,5.382,1.229l1.671,24.396l1.332,15.979
		c5.336,1.843,10.186,2.875,13.371,3.238c2.304,0.271,0.525-1.679-0.893-3.738C128.807,251.652,128.459,250.482,128.234,249.87z" data-fill="skin-color_base"></path>
	<path id="fillSkinColorShade_7_" fill="#E1C3A9" d="M58.472,118.29v-3.076c4.688,1.568,7.024,1.125,11.711,0.065v4.412
		C66.406,121.871,59.417,120.75,58.472,118.29z" data-fill="skin-color_shade"></path>
</g><g id="fsh1_x5F_bl" xmlns="http://www.w3.org/2000/svg" class="avatar-shoes">
	<g id="fsh1_x5F_bl_1_">
		<path id="fillShoesColorBase_18_" fill="#535763" d="M108.691,262.086l5.884,0.271c1.029,0.271,2.059,0.522,3.092,0.787
			c1.434,0.342,2.99,0.358,4.247,1.216c1.135,0.77,2.559,2.479,0.688,3.336c0,0-2.891,1.33-9.263,1.075
			c-6.372-0.253-11.744-0.569-15.772,0.024c0,0-0.506-2.674-0.062-5.41L108.691,262.086z" data-fill="shoes-color_base"></path>
		<path id="fillShoesColorTint_3_" fill="#7C7B83" d="M116.051,265.12c-1.58-0.869-1.752-1.791-1.229-2.697
			c0.947,0.244,1.885,0.481,2.84,0.729c1.434,0.354,2.992,0.354,4.249,1.229c0.229,0.147,0.47,0.354,0.692,0.562
			C120.502,267.053,118.262,265.764,116.051,265.12z" data-fill="shoes-color_tint"></path>
		<path fill="#AAA6BA" d="M123.471,266.823c-0.09,0.329-0.352,0.633-0.867,0.87c0,0-2.889,1.328-9.264,1.075
			c-6.371-0.253-11.882-0.536-15.919,0.07c0,0,0.017-0.375-0.133-0.938C106.491,266.838,112.032,269.209,123.471,266.823z" data-fill="#AAA6BA"></path>
	</g>
	<g id="fsh1_x5F_bl_2_">
		<path id="fillShoesColorBase_10_" fill="#535763" d="M128.078,252.979l5.884,0.271c1.029,0.27,2.06,0.521,3.093,0.787
			c1.438,0.342,2.989,0.354,4.246,1.217c1.135,0.768,2.559,2.477,0.688,3.336c0,0-2.891,1.33-9.262,1.074
			c-6.373-0.252-11.744-0.572-15.771,0.021c0,0-0.506-2.675-0.062-5.412L128.078,252.979z" data-fill="shoes-color_base"></path>
		<path id="fillShoesColorTint_2_" fill="#7C7B83" d="M135.438,256.01c-1.58-0.869-1.752-1.791-1.229-2.697
			c0.947,0.245,1.887,0.482,2.84,0.717c1.436,0.352,2.992,0.361,4.249,1.221c0.229,0.158,0.47,0.354,0.692,0.565
			C139.889,257.945,137.648,256.657,135.438,256.01z" data-fill="shoes-color_tint"></path>
		<path fill="#AAA6BA" d="M142.857,257.713c-0.09,0.33-0.354,0.633-0.867,0.871c0,0-2.889,1.328-9.264,1.074
			c-6.371-0.252-11.896-0.535-15.92,0.063c0,0,0.018-0.375-0.133-0.938C125.878,257.73,131.418,260.101,142.857,257.713z" data-fill="#AAA6BA"></path>
	</g>
	<path id="fillSkinColorBase_6_" fill="#FAD9BC" d="M128.204,249.719c0,0-1.185-1.723-0.362-12.619l1.236-28.121
		c0,0,0.75-5.688-5.311-7.75c-2.438-0.822-7.419-2.166-12.545-3.48c-9.645,0.369-13.906,3.321-17.664,6.502
		c-5.462,4.621-7.289,10.244-7.792,12.246c4.135,0.461,7.03,0.771,7.03,0.771l4.11,37.367l0.922,9.188
		c1.69,0.289,6.342,0.717,6.761,0.781c3.239,0.492,7.287,0.961,9.877-1.541c0.185-0.182,0.364-0.371,0.534-0.582
		c-1.019-0.377-1.988-0.615-2.922-0.982c-1.456-0.973-2.848-2.062-3.629-3.021c-0.869-1.063-0.8-3.892-0.745-4.931
		c0.74-13.969,1.688-38.01,1.688-38.01s0.247-1.951-0.757-3.979c2.745,0.442,5.382,1.229,5.382,1.229l1.671,24.396l0.751,8.544
		l0.686,8.92c1.521,0.287,6.413,0.783,6.85,0.848c2.387,0.358,5.211,0.715,7.564-0.125c1.068-0.387,2.049-1.016,2.843-1.998
		C132.063,252.51,130.188,252.312,128.204,249.719z" data-fill="skin-color_base"></path>
</g><g id="flo1" xmlns="http://www.w3.org/2000/svg" class="avatar-clothes-lower">
	<path id="fillClothesLowerColorBase_4_" fill="#535763" d="M70.272,202.833l7.818,5.731l25.913,3.158c0,0,4.352-0.222,5.352,0.362
		c1,0.582,4.019,0.926,4.479,6.082l1.667,23.688c0,0,7.25,4.25,12.562-0.188c0,0,1.467-32.258,1.5-32.375
		c0.5-7.25-6.646-8.916-6.646-8.916l-1.133-0.354l-36.098-9.668c0,0-6.173,3.86-12.251,4.694
		C67.358,195.881,70.272,202.833,70.272,202.833z" data-fill="clothes-lower-color_base"></path>
	<path id="fillClothesLowerColorBase_3_" fill="#535763" d="M46.167,191.833c0,0-0.556,3.637-0.535,4.813
		c0.415,9.177,5.359,12.979,5.368,12.987c2.764,3.047,9.375,4.74,9.375,4.74c1.619,0.303,4,0.584,6.982,1.104
		c0,0,17.476,2.104,21.393,2.521c3.917,0.416,3.833,2.666,3.833,2.666L95.8,250.4c-0.002,0,7.233,4.127,12.425-0.978l1.366-32.73
		c0,0,0.596-3.275-1.029-6.525c-0.981-1.963-5.299-3.104-5.299-3.104l-26.458-6.813c0.065-0.705,6.501-7.916,6.56-8.604
		c0,0-10.271,6.146-26.69,3.604C48.883,193.776,46.167,191.833,46.167,191.833z" data-fill="clothes-lower-color_base"></path>
</g><g id="fup1_1_" xmlns="http://www.w3.org/2000/svg" class="avatar-clothes-upper">
	<path id="fillSkinColorShade_14_" fill="#E1C3A9" d="M96.7,149.324c-0.517-0.678-1.02-1.366-1.509-2.065
		c-1.789,0.531-5.249,3.172-8.03,7.191c0.069,0.087,0.129,0.163,0.171,0.212c0.438,0.518,1.027,1.151,1.7,1.839
		C90.137,152.5,93.625,149.75,96.7,149.324z" data-fill="skin-color_shade"></path>
	<path id="fillClothesUpperColorBase_10_" fill="#D6453F" d="M95.751,147.153c-1.334-1.892-2.573-3.831-3.742-5.718
		c-0.816-1.318-1.606-2.743-2.37-4.121c-1.01-1.821-2.054-3.705-3.2-5.424c-2.569-3.854-6.19-6.461-8.705-8.083
		c-1.624-1.047-7.104-3.092-7.438-2.859c-0.163,0.114,1.582,2.066,2,4.578c0.174,1.042,0.569,2.279,0.375,3.25
		c-0.156,0.781-1.047,2.484-1.047,2.484l-1.835,4.693c0,0-4.055-4.431-6.54-7.506c-3.339-4.13-5.369-7.219-5.422-7.219
		c-0.062,0-3.515,1.424-3.575,1.443c-1.831,0.557-5.693,2.97-6.866,3.921c-4.455,3.609-5.94,7.874-3.476,20.06
		c0.541,2.362,1.226,4.078,1.95,5.894c1.142,2.863,2.323,5.824,3.167,11.813c1.223,8.677-0.315,13.751-1.673,18.229
		c-0.907,2.994-1.982,5.055-2.326,8.914c0.005,0.158,0.085,0.309,0.216,0.396c0.3,0.207,3.83,2.416,11.376,3.835
		c2.669,0.414,5.349,0.624,7.964,0.624c7.193,0,12.655-1.552,15.981-2.854c2.239-0.938,4.821-2.351,5.667-2.842
		c0.17-0.102,0.266-0.285,0.247-0.479c-0.019-0.189-0.15-0.355-0.335-0.426l-0.17-0.063c-0.45-0.751-2.32-4.063-2.912-5.498
		c-0.875-2.094-1.128-2.926-1.733-4.358c-0.505-1.203-1.027-2.438-1.322-3.625c-1.943-7.771-0.684-11.955,1.047-16.209
		c0.111-0.123,0.196-0.231,0.263-0.334c2.086-2.242,3.429-4.552,4.006-6.885c0.67,0.946,1.263,1.741,1.551,2.093
		C90.016,150.135,94.177,147.188,95.751,147.153z" data-fill="clothes-upper-color_base"></path>
	<path id="fillClothesUpperColorBase_12_" fill="#D6453F" d="M72.53,128.842l6.031,4.533c0,0-1.682-9.29-5.843-12.457
		c-1.479-1.272-2.56-1.834-2.56-1.834l-0.01,2.289C70.15,121.374,72.066,123,72.53,128.842z M60.508,124.325
		c1.11,1.331,3.412,4.391,6.142,6.947c-2.409,2.615-4.194,5.145-4.194,5.145c-3.256-4.292-6.275-9-8.076-14.042
		c1.874-2.141,3.091-3.109,3.091-3.109l1.02-0.397l0.019,2.117C58.509,120.984,59.396,122.995,60.508,124.325z" data-fill="clothes-upper-color_base"></path>
	<path id="fillClothesUpperColorShade_6_" fill="#B03833" d="M73.593,131.612l-3.192,3.892l2.003,0.149l0.257,7.531l-0.952-5.893
		l-2.482,0.114l-2.64-3.066l-4.03,3.64c-5.27-5.886-8.577-15.136-8.577-15.136l0.491-0.562c0.198,0.864,2.781,7.469,8.066,13.781
		c1.054-1.854,4.036-4.896,4.036-4.896l3.021,4.039c0.87-1.958,2.933-6.413,2.933-6.413l5.74,3.958c0,0-2.813-8.849-4.407-10.692
		c0.788,0.28,0.875,0.328,0.875,0.328s3.449,4.918,4.615,12.362C77.578,133.807,75.131,132.538,73.593,131.612z M61.455,154.979
		c1.142,2.14,2.479,3.132,3.561,3.755c-2.112-5.313-4.066-10.63-4.066-10.63s-2.345-6.233-4.241-10.27s-6.3-3.547-6.3-3.547
		c3.12,0.184,4.465,3.242,4.465,3.242s2.202,5.811,5.934,16.026L61.455,154.979z M61.688,154.792
		c1.112,2.849,3.98,10.146,4.575,11.152c0,0,0.593-0.367,1.385-0.838c-0.818-1.852-1.745-4.107-2.644-6.372
		C63.922,158.111,62.829,156.932,61.688,154.792z M71.066,163.278c1.447-0.578,6.583-2.199,7.531,0.025
		c0.437,1.025,0.231,2.676,0.207,4.14c-0.014,0.812,0.102,2.524,0.293,3.356c-0.338-4.543,0.68-7.654,1.958-10.804
		c0.111-0.123,0.196-0.231,0.263-0.334c0.561-0.603,2.179-2.859,2.632-3.47c-1.106,1.022-4.007,1.718-6.37,0.854
		c-1.465-0.536-2.233-0.635-3.295-0.229c-1.331,0.508-2.852,2.03-5.41,2.413c-1.314,0.197-2.585,0.247-3.872-0.495
		c0.899,2.263,1.826,4.521,2.644,6.372C68.744,164.458,70.226,163.614,71.066,163.278z M87.988,151.7
		c-0.663-2.923-0.107-6.219-6.321-11.95c0,0,5,5.167,3.71,12.222c-0.007,0.296-0.006,0.589-0.002,0.875
		c0.343,0.483,0.893,1.269,1.505,2.023c0.266-0.621,1.089-1.579,1.773-2.391C88.577,152.295,88.021,151.849,87.988,151.7z
		 M60.667,178.861c-3.171-2.538-9.959-21.24-9.959-21.24l-5.182-21.568c0,0-1.78,1.738-0.811,6.585
		c0.969,4.847,7.035,33.682,14.718,39.043c7.762,5.416,22.21,10.047,22.21,10.047l1.732,0.454l2.172-1.141l-2.758-1.521
		C82.789,189.525,63.837,181.399,60.667,178.861z" data-fill="clothes-upper-color_shade"></path>
	<path id="fillSkinColorBase_9_" fill="#F9D7B9" d="M57.626,176.542c3.026,4.938,9.835,6.955,14.803,9.188
		c6.356,2.854,12.855,5.386,19.43,7.688c1.436,0.502,2.873,1.021,4.33,1.473c0.001,0,2.771,0.832,5.313-2.438
		c1.834-2.361-0.25-4.143-0.542-4.23c-0.667-0.229-1.979-0.791-1.979-0.791c-8.193-4.035-17.516-10.225-25.834-13.997
		c-3.481-1.575-4.91-4.132-6.884-7.478c-2.327-3.945-10.387-27.53-10.387-27.53s-2.87-6.8-8.5-3.75
		c-3,1.625-2.006,6.301-1.875,6.875c2.62,9.972,5.18,18.494,8.833,28.125c0.629,1.657,2.272,5.12,3.162,6.655
		C57.539,176.396,57.582,176.467,57.626,176.542z" data-fill="skin-color_base"></path>
	<path id="fillSkinColorShade_11_" fill="#E1C3A9" d="M63.031,158.276c-0.412-1.067-0.596-1.503-1.029-2.665
		c-3.602,0.154-8.158,1.81-11.25,3.91c0.388,1.183,0.585,1.812,0.998,3.005C54.909,158.321,58.879,157.603,63.031,158.276z" data-fill="skin-color_shade"></path>
	<path id="fillClothesUpperColorBase_14_" fill="#D6453F" d="M62.897,155.583c-3.018-8.026-6.5-17.185-6.562-17.361
		c-0.083-0.198-2.09-4.842-6.145-4.842c-0.988,0-2.016,0.285-3.054,0.847c-3.234,1.752-2.337,6.493-2.12,7.441
		c1.651,6.284,3.75,13.063,5.367,18.086C53.723,157.363,59.062,155.46,62.897,155.583z" data-fill="clothes-upper-color_base"></path>
</g><g id="fkb1" xmlns="http://www.w3.org/2000/svg" class="avatar-keyboard">
	<path display="inline" fill="#9A9DA5" d="M203.871,228.502c-0.477,0-0.896-0.346-0.975-0.83l-8.576-52.426
		c-0.09-0.537,0.277-1.047,0.812-1.146c0.539-0.085,1.052,0.271,1.14,0.813l8.576,52.438c0.088,0.529-0.277,1.047-0.812,1.135
		C203.979,228.499,203.924,228.502,203.871,228.502z M55.207,280.997c-0.052,0-0.104-0.002-0.157-0.008
		c-0.815-0.086-1.406-0.814-1.32-1.631l5.324-50.677c0.085-0.813,0.812-1.399,1.63-1.32c0.815,0.086,1.406,0.815,1.32,1.632
		l-5.324,50.676C56.6,280.43,55.957,280.997,55.207,280.997z M135.202,284.331c-0.733,0-1.37-0.543-1.47-1.289l-6.521-49.471
		c-0.104-0.813,0.471-1.557,1.275-1.664c0.812-0.107,1.559,0.465,1.662,1.277l6.521,49.47c0.104,0.812-0.465,1.558-1.272,1.664
		C135.332,284.327,135.268,284.331,135.202,284.331z" data-fill="#9A9DA5"></path>
	<polygon display="inline" fill="#405361" points="198.436,166.676 199.204,177.513 131.852,235.565 114.897,227.859 
		118.884,205.848 	" data-fill="#405361"></polygon>
	<polygon display="inline" fill="#7A808A" points="53.121,218.495 54.823,228.734 131.852,235.565 130.159,225.396 118.884,205.848 
			" data-fill="#7A808A"></polygon>
	<polygon display="inline" fill="#4D6779" points="53.907,218.144 146.007,165.381 198.159,166.629 129.751,225.14 	" data-fill="#4D6779"></polygon>
	<polygon display="inline" fill="#4D6779" points="54.289,218.125 146.372,165.379 198.499,166.625 130.083,225.122 	" data-fill="#4D6779"></polygon>
	<g display="inline">
		<g>
			<polygon fill="#FFFFFF" points="131.335,173.35 134.329,171.642 168.382,172.711 165.88,174.502 			" data-fill="#FFFFFF"></polygon>
			<path fill="#B2BABF" d="M165.88,174.774c-0.003,0-0.006,0-0.009,0l-34.545-1.152c-0.122-0.004-0.227-0.088-0.256-0.205
				c-0.028-0.119,0.021-0.242,0.13-0.303l2.993-1.707c0.043-0.025,0.096-0.031,0.145-0.035l34.053,1.068
				c0.116,0.004,0.217,0.081,0.252,0.191c0.033,0.111-0.008,0.229-0.103,0.301l-2.502,1.791
				C165.992,174.756,165.938,174.774,165.88,174.774z M132.303,173.111l33.494,1.117l1.773-1.271l-33.174-1.043L132.303,173.111z" data-fill="#B2BABF"></path>
		</g>
		<g>
			<polygon fill="#FFFFFF" points="128.279,175.094 131.378,173.329 165.917,174.478 163.322,176.333 			" data-fill="#FFFFFF"></polygon>
			<path fill="#B2BABF" d="M163.322,176.604c-0.002,0-0.006,0-0.01,0l-35.043-1.238c-0.121-0.004-0.229-0.089-0.254-0.207
				c-0.029-0.117,0.021-0.24,0.129-0.301l3.099-1.766c0.044-0.024,0.101-0.033,0.144-0.035l34.539,1.148
				c0.116,0.004,0.219,0.082,0.252,0.188c0.033,0.107-0.008,0.229-0.103,0.3l-2.595,1.854
				C163.436,176.586,163.38,176.604,163.322,176.604z M129.245,174.857l33.995,1.201l1.867-1.335l-33.662-1.12L129.245,174.857z" data-fill="#B2BABF"></path>
		</g>
		<g>
			<polygon fill="#FFFFFF" points="125.016,176.958 128.223,175.125 163.275,176.37 160.589,178.292 			" data-fill="#FFFFFF"></polygon>
			<path fill="#B2BABF" d="M160.589,178.563c-0.003,0-0.007,0-0.01,0l-35.573-1.334c-0.122-0.005-0.225-0.089-0.254-0.207
				c-0.029-0.117,0.023-0.24,0.129-0.3l3.207-1.832c0.044-0.026,0.102-0.038,0.145-0.036l35.063,1.244
				c0.106,0.004,0.22,0.082,0.25,0.193c0.024,0.104-0.008,0.229-0.104,0.299l-2.688,1.922
				C160.701,178.545,160.646,178.563,160.589,178.563z M125.977,176.722l34.529,1.295l1.963-1.404L128.29,175.4L125.977,176.722z" data-fill="#B2BABF"></path>
		</g>
		<g>
			<polygon fill="#FFFFFF" points="121.736,178.825 125.063,176.928 160.626,178.268 157.837,180.266 			" data-fill="#FFFFFF"></polygon>
			<path fill="#B2BABF" d="M157.837,180.538c-0.004,0-0.007,0-0.011,0l-36.102-1.438c-0.121-0.008-0.229-0.094-0.252-0.207
				c-0.029-0.118,0.021-0.24,0.129-0.305l3.312-1.896c0.058-0.023,0.104-0.035,0.146-0.033l35.563,1.34
				c0.112,0.004,0.229,0.082,0.25,0.191c0.032,0.109-0.009,0.23-0.104,0.301l-2.787,1.996
				C157.949,180.52,157.895,180.538,157.837,180.538z M122.693,178.59l35.062,1.4l2.067-1.482l-34.692-1.307L122.693,178.59z" data-fill="#B2BABF"></path>
		</g>
		
			<polygon fill="#FFFFFF" stroke="#B2BABF" stroke-width="0.5432" stroke-linecap="round" stroke-linejoin="round" stroke-miterlimit="10" points="
			103.029,189.497 107.043,187.208 145.454,189.142 142.059,191.579 		" data-fill="#FFFFFF" data-stroke="#B2BABF"></polygon>
		
			<polygon fill="#FFFFFF" stroke="#B2BABF" stroke-width="0.5432" stroke-linecap="round" stroke-linejoin="round" stroke-miterlimit="10" points="
			98.91,191.847 103.086,189.463 142.105,191.543 138.563,194.083 		" data-fill="#FFFFFF" data-stroke="#B2BABF"></polygon>
		
			<polygon fill="#FFFFFF" stroke="#B2BABF" stroke-width="0.5432" stroke-linecap="round" stroke-linejoin="round" stroke-miterlimit="10" points="
			94.479,194.374 98.832,191.892 138.497,194.129 134.803,196.782 		" data-fill="#FFFFFF" data-stroke="#B2BABF"></polygon>
		
			<polygon fill="#FFFFFF" stroke="#B2BABF" stroke-width="0.5432" stroke-linecap="round" stroke-linejoin="round" stroke-miterlimit="10" points="
			90.006,196.926 94.543,194.336 134.854,196.741 130.995,199.51 		" data-fill="#FFFFFF" data-stroke="#B2BABF"></polygon>
		<g>
			<polygon fill="#FFFFFF" points="118.312,180.831 121.757,178.866 157.872,180.31 154.977,182.387 			" data-fill="#FFFFFF"></polygon>
			<path fill="#B2BABF" d="M154.977,182.659c-0.004,0-0.008,0-0.012,0l-36.665-1.557c-0.121-0.005-0.224-0.09-0.252-0.207
				c-0.028-0.118,0.024-0.24,0.129-0.301l3.445-1.965c0.044-0.025,0.095-0.037,0.146-0.035l36.115,1.443
				c0.116,0.006,0.217,0.082,0.249,0.188c0.033,0.105-0.007,0.229-0.103,0.299l-2.896,2.077
				C155.089,182.641,155.033,182.659,154.977,182.659z M119.266,180.599l35.628,1.513l2.178-1.563l-35.247-1.396L119.266,180.599z" data-fill="#B2BABF"></path>
		</g>
		<g>
			<polygon fill="#FFFFFF" points="114.786,182.842 118.36,180.801 155.021,182.355 152.009,184.515 			" data-fill="#FFFFFF"></polygon>
			<path fill="#B2BABF" d="M152.009,184.788c-0.004,0-0.008,0-0.012,0l-37.223-1.674c-0.121-0.006-0.224-0.09-0.252-0.207
				s0.024-0.24,0.129-0.301l3.574-2.041c0.044-0.025,0.094-0.04,0.146-0.035l36.662,1.555c0.115,0.004,0.216,0.082,0.249,0.193
				c0.032,0.11-0.009,0.23-0.103,0.299l-3.021,2.159C152.121,184.769,152.064,184.788,152.009,184.788z M115.735,182.613
				l36.191,1.628l2.297-1.646l-35.797-1.519L115.735,182.613z" data-fill="#B2BABF"></path>
		</g>
		<g>
			<polygon fill="#FFFFFF" points="111.004,185 114.718,182.881 151.95,184.556 148.82,186.799 			" data-fill="#FFFFFF"></polygon>
			<path fill="#B2BABF" d="M148.82,187.071c-0.004,0-0.01,0-0.014,0l-37.815-1.799c-0.121-0.006-0.223-0.091-0.251-0.208
				c-0.028-0.116,0.024-0.239,0.129-0.3l3.714-2.119c0.044-0.025,0.096-0.037,0.147-0.035l37.232,1.676
				c0.116,0.004,0.216,0.082,0.249,0.193c0.032,0.111-0.009,0.23-0.104,0.298l-3.129,2.243
				C148.934,187.053,148.877,187.071,148.82,187.071z M111.95,184.774l36.79,1.75l2.414-1.73l-36.369-1.637L111.95,184.774z" data-fill="#B2BABF"></path>
		</g>
		<g>
			<polygon fill="#FFFFFF" points="107.201,187.168 111.061,184.97 148.866,186.769 145.607,189.104 			" data-fill="#FFFFFF"></polygon>
			<path fill="#B2BABF" d="M145.607,189.375c-0.006,0-0.01,0-0.021,0l-38.406-1.938c-0.121-0.006-0.223-0.091-0.25-0.209
				c-0.028-0.117,0.025-0.237,0.13-0.299l3.86-2.198c0.044-0.023,0.099-0.038,0.147-0.033l37.805,1.799
				c0.112,0.006,0.215,0.084,0.248,0.192c0.028,0.108-0.013,0.229-0.104,0.298l-3.259,2.338
				C145.721,189.358,145.664,189.375,145.607,189.375z M108.144,186.944l37.381,1.885l2.547-1.824l-36.945-1.758L108.144,186.944z" data-fill="#B2BABF"></path>
		</g>
		<g>
			<polygon fill="#FFFFFF" points="103.029,189.497 107.043,187.208 145.454,189.142 142.059,191.579 			" data-fill="#FFFFFF"></polygon>
			<path fill="#B2BABF" d="M142.059,191.85c-0.004,0-0.01,0-0.015,0l-39.03-2.082c-0.12-0.008-0.222-0.092-0.25-0.209
				c-0.028-0.117,0.025-0.238,0.129-0.299l4.014-2.289c0.045-0.025,0.096-0.037,0.148-0.035l38.411,1.936
				c0.115,0.006,0.214,0.084,0.247,0.194c0.032,0.11-0.009,0.229-0.104,0.297l-3.396,2.437
				C142.171,191.833,142.115,191.85,142.059,191.85z M103.966,189.275l38.011,2.026l2.688-1.928l-37.557-1.896L103.966,189.275z" data-fill="#B2BABF"></path>
		</g>
		<g>
			<polygon fill="#FFFFFF" points="98.91,191.847 103.086,189.463 142.105,191.543 138.563,194.083 			" data-fill="#FFFFFF"></polygon>
			<path fill="#B2BABF" d="M138.563,194.354c-0.006,0-0.021,0-0.021,0L98.89,192.12c-0.12-0.008-0.222-0.093-0.249-0.209
				c-0.028-0.117,0.025-0.238,0.129-0.3l4.176-2.384c0.045-0.025,0.097-0.034,0.149-0.035l39.02,2.08
				c0.111,0.007,0.214,0.085,0.242,0.195c0.031,0.109-0.01,0.229-0.104,0.297l-3.543,2.539
				C138.675,194.336,138.619,194.354,138.563,194.354z M99.842,191.627l38.641,2.179l2.836-2.032l-38.167-2.035L99.842,191.627z" data-fill="#B2BABF"></path>
		</g>
		<g>
			<polygon fill="#FFFFFF" points="94.479,194.374 98.832,191.892 138.497,194.129 134.803,196.782 			" data-fill="#FFFFFF"></polygon>
			<path fill="#B2BABF" d="M134.803,197.053c-0.007,0-0.012,0-0.018,0l-40.322-2.408c-0.12-0.008-0.221-0.094-0.249-0.21
				c-0.028-0.117,0.026-0.238,0.13-0.298l4.353-2.481c0.045-0.026,0.098-0.038,0.149-0.034l39.666,2.236
				c0.114,0.008,0.213,0.085,0.245,0.195c0.032,0.111-0.009,0.229-0.103,0.297l-3.695,2.652
				C134.914,197.036,134.857,197.053,134.803,197.053z M95.407,194.157l39.313,2.348l2.979-2.146l-38.81-2.188L95.407,194.157z" data-fill="#B2BABF"></path>
		</g>
		<g>
			<polygon fill="#FFFFFF" points="90.006,196.926 94.543,194.336 134.854,196.741 130.995,199.51 			" data-fill="#FFFFFF"></polygon>
			<path fill="#B2BABF" d="M130.995,199.782c-0.007,0-0.013,0-0.017,0l-41-2.584c-0.12-0.008-0.22-0.093-0.248-0.21
				c-0.027-0.116,0.026-0.237,0.13-0.298l4.537-2.59c0.046-0.025,0.1-0.034,0.151-0.035l40.312,2.404
				c0.109,0.007,0.224,0.086,0.24,0.195c0.028,0.104-0.013,0.229-0.104,0.297l-3.855,2.77
				C131.107,199.764,131.053,199.782,130.995,199.782z M90.929,196.711l39.986,2.521l3.158-2.269l-39.466-2.354L90.929,196.711z" data-fill="#B2BABF"></path>
		</g>
		
			<polygon fill="#FFFFFF" stroke="#B2BABF" stroke-width="0.5432" stroke-linecap="round" stroke-linejoin="round" stroke-miterlimit="10" points="
			63.947,211.792 69.617,208.556 113.548,212.013 108.67,215.514 		" data-fill="#FFFFFF" data-stroke="#B2BABF"></polygon>
		<g>
			<polygon fill="#FFFFFF" points="85.277,199.68 90.012,196.98 131.023,199.566 126.984,202.461 			" data-fill="#FFFFFF"></polygon>
			<path fill="#B2BABF" d="M126.984,202.733c-0.006,0-0.012,0-0.021-0.001l-41.707-2.78c-0.12-0.009-0.22-0.094-0.247-0.211
				c-0.027-0.115,0.026-0.236,0.13-0.297l4.735-2.699c0.046-0.027,0.098-0.037,0.152-0.035l41.012,2.586
				c0.112,0.021,0.212,0.086,0.243,0.195c0.029,0.11-0.012,0.229-0.104,0.297l-4.038,2.896
				C127.098,202.715,127.041,202.733,126.984,202.733z M86.195,199.469l40.709,2.715l3.342-2.396l-40.17-2.531L86.195,199.469z" data-fill="#B2BABF"></path>
		</g>
		<g>
			<polygon fill="#FFFFFF" points="80.406,202.459 85.35,199.642 127.046,202.42 122.825,205.448 			" data-fill="#FFFFFF"></polygon>
			<path fill="#B2BABF" d="M122.825,205.719c-0.007,0-0.013,0-0.021-0.002l-42.418-2.987c-0.12-0.008-0.219-0.095-0.246-0.21
				c-0.027-0.117,0.026-0.236,0.13-0.297l4.944-2.816c0.046-0.027,0.102-0.035,0.152-0.035l41.694,2.777
				c0.104,0.008,0.213,0.087,0.244,0.197c0.021,0.109-0.021,0.229-0.104,0.295l-4.222,3.027
				C122.938,205.702,122.882,205.719,122.825,205.719z M81.319,202.25l41.427,2.92l3.525-2.529l-40.858-2.723L81.319,202.25z" data-fill="#B2BABF"></path>
		</g>
		<g>
			<polygon fill="#FFFFFF" points="75.146,205.463 80.314,202.514 122.743,205.502 118.317,208.681 			" data-fill="#FFFFFF"></polygon>
			<path fill="#B2BABF" d="M118.317,208.954c-0.007,0-0.014,0-0.02-0.002l-43.171-3.218c-0.119-0.009-0.219-0.094-0.245-0.211
				c-0.026-0.116,0.027-0.235,0.13-0.296l5.168-2.949c0.046-0.025,0.099-0.042,0.154-0.033l42.431,2.987
				c0.112,0.009,0.211,0.086,0.241,0.196c0.031,0.109-0.011,0.229-0.104,0.295l-4.417,3.179
				C118.429,208.935,118.374,208.954,118.317,208.954z M76.053,205.258l42.186,3.145l3.736-2.683l-41.598-2.931L76.053,205.258z" data-fill="#B2BABF"></path>
		</g>
		<g>
			<polyline fill="#FFFFFF" points="75.219,205.42 118.382,208.631 113.741,211.961 69.816,208.506 			" data-fill="#FFFFFF"></polyline>
			<path fill="#B2BABF" d="M113.741,212.233c-0.007,0-0.014,0-0.021-0.001l-43.925-3.455c-0.119-0.009-0.217-0.095-0.244-0.211
				c-0.026-0.116,0.027-0.235,0.13-0.296l5.403-3.086c0.047-0.027,0.104-0.045,0.155-0.034l43.163,3.211
				c0.114,0.009,0.21,0.087,0.241,0.197c0.031,0.108-0.01,0.228-0.103,0.294l-4.641,3.33
				C113.853,212.215,113.798,212.233,113.741,212.233z M70.717,208.305l42.947,3.378l3.952-2.836l-42.334-3.149L70.717,208.305z" data-fill="#B2BABF"></path>
		</g>
		<g>
			<polygon fill="#FFFFFF" points="63.947,211.792 69.617,208.556 113.548,212.013 108.67,215.514 			" data-fill="#FFFFFF"></polygon>
			<path fill="#B2BABF" d="M108.67,215.786c-0.007,0-0.015,0-0.022,0l-44.723-3.724c-0.119-0.011-0.217-0.097-0.243-0.212
				c-0.026-0.116,0.027-0.234,0.13-0.295l5.67-3.235c0.048-0.026,0.103-0.042,0.156-0.034l43.931,3.457
				c0.113,0.01,0.209,0.088,0.24,0.197c0.031,0.109-0.011,0.229-0.104,0.294l-4.878,3.501
				C108.782,215.768,108.727,215.786,108.67,215.786z M64.842,211.592l43.751,3.643l4.193-3.009l-43.107-3.394L64.842,211.592z" data-fill="#B2BABF"></path>
		</g>
	</g>
	<path display="inline" fill="#4D6779" d="M141.909,174.271l1.784-1.095l22.791,0.746l-1.575,1.127L141.909,174.271z
		 M138.988,176.055l1.849-1.131l23.125,0.803l-1.635,1.171L138.988,176.055z M132.54,180.004l1.994-1.217l23.844,0.933l-1.767,1.268
		L132.54,180.004z M129.279,181.999l2.068-1.265l24.209,1.009l-1.832,1.313L129.279,181.999z M125.962,184.029l2.142-1.312
		l24.576,1.084l-1.906,1.365L125.962,184.029z M118.737,188.454l2.316-1.418l25.358,1.254l-2.062,1.479L118.737,188.454z
		 M114.94,190.777l2.409-1.472l25.764,1.345l-2.147,1.537L114.94,190.777z M106.484,195.954l2.623-1.604l26.655,1.563l-2.345,1.674
		L106.484,195.954z M102.176,198.59l2.734-1.674l27.102,1.678l-2.447,1.751L102.176,198.59z M97.764,201.292l2.853-1.748
		l27.55,1.813l-2.554,1.817L97.764,201.292z M87.605,207.51l3.131-1.918l28.572,2.094l-2.815,2.016L87.605,207.51z M82.442,210.668
		l3.277-2.004l29.079,2.25l-2.95,2.104L82.442,210.668z" data-fill="#4D6779"></path>
	<g display="inline">
		<polygon fill="#4D6779" points="160.189,168.445 161.54,167.569 161.434,167.566 160.063,168.441 		" data-fill="#4D6779"></polygon>
		<polygon fill="#4D6779" points="161.363,170.609 161.367,170.609 161.477,170.538 		" data-fill="#4D6779"></polygon>
		<polygon fill="#4D6779" points="161.04,170.599 161.363,170.609 161.477,170.538 162.766,169.674 162.369,169.665 
			161.006,170.545 		" data-fill="#4D6779"></polygon>
		<g>
			<path fill="#DCDCE0" d="M161.425,167.277l-7.817-0.159h-0.037l-2.186,1.338l15.018,0.404l0.039,0.001l2.021-1.36L161.425,167.277
				z M164.857,168.57l1.312-0.882l1.503,0.039l-1.309,0.884L164.857,168.57z M162.736,168.513l1.334-0.88l1.675,0.043l-1.313,0.883
				L162.736,168.513z M160.626,168.458l1.351-0.877l1.66,0.043l-1.332,0.879L160.626,168.458z M160.063,168.441l1.369-0.875
				l0.104,0.003l-1.354,0.876L160.063,168.441z M158.525,168.4l1.365-0.874l1.1,0.028l-1.311,0.838l0.021,0.039L158.525,168.4z
				 M156.434,168.342l1.381-0.87l1.646,0.043l-1.361,0.873L156.434,168.342z M154.354,168.288l1.396-0.867l1.619,0.041l-1.378,0.871
				L154.354,168.288z M152.225,168.23l1.412-0.864l1.663,0.043l-1.396,0.866L152.225,168.23z" data-fill="#DCDCE0"></path>
			<path fill="#DCDCE0" d="M150.363,169.081l-2.26,1.387l15.271,0.449h0.04l2.074-1.414l-15.1-0.42L150.363,169.081z
				 M154.234,169.437l-1.457,0.92l-1.678-0.049l1.479-0.918L154.234,169.437z M156.354,169.497l-1.438,0.924l-1.688-0.051
				l1.459-0.92L156.354,169.497z M158.48,169.555l-1.426,0.927l-1.707-0.05l1.438-0.924L158.48,169.555z M160.616,169.616
				l-1.409,0.93l-1.719-0.051l1.427-0.928L160.616,169.616z M162.369,169.665l0.396,0.01l-1.291,0.863l-0.107,0.071h-0.004
				l-0.323-0.01l-1.401-0.041l1.409-0.933L162.369,169.665z M164.725,169.729l-1.377,0.938l-1.555-0.045l1.398-0.936
				L164.725,169.729z M150.648,170.293l-1.709-0.049l1.49-0.914l1.688,0.047L150.648,170.293z" data-fill="#DCDCE0"></path>
		</g>
	</g>
	<path display="inline" fill="#E4DFD8" d="M177.016,180.452c-1.029-0.041-1.476-0.391-1-0.775c0.479-0.383,1.688-0.645,2.702-0.625
		c1.027,0.037,1.482,0.396,1.021,0.771C179.271,180.208,178.053,180.493,177.016,180.452z M171.484,180.233
		c-1.021-0.041-1.442-0.387-0.948-0.77c0.489-0.381,1.702-0.656,2.713-0.621c1.013,0.041,1.446,0.379,0.967,0.764
		C173.73,179.989,172.507,180.272,171.484,180.233z M165.264,179.988c-1.007-0.038-1.396-0.381-0.892-0.763
		c0.51-0.377,1.729-0.65,2.721-0.613c1,0.038,1.408,0.373,0.91,0.754C167.501,179.749,166.271,180.029,165.264,179.988z
		 M173.659,183.213c-1.056-0.045-1.5-0.414-0.998-0.819c0.498-0.401,1.743-0.694,2.786-0.651c1.048,0.043,1.507,0.403,1.017,0.813
		C175.977,182.961,174.716,183.258,173.659,183.213z M168.007,182.974c-1.041-0.043-1.461-0.408-0.942-0.815
		c0.521-0.398,1.771-0.688,2.793-0.643c1.035,0.039,1.479,0.4,0.979,0.801C170.313,182.722,169.05,183.018,168.007,182.974z
		 M161.65,182.708c-1.026-0.045-1.42-0.408-0.881-0.808c0.521-0.396,1.789-0.685,2.801-0.642c1.021,0.041,1.431,0.396,0.906,0.795
		C163.947,182.456,162.682,182.749,161.65,182.708z M170.122,186.124c-1.074-0.049-1.519-0.438-0.99-0.865
		c0.522-0.428,1.812-0.729,2.875-0.686c1.072,0.047,1.522,0.43,1.011,0.858C172.503,185.863,171.206,186.174,170.122,186.124z
		 M164.348,185.857c-1.062-0.049-1.479-0.433-0.937-0.858c0.545-0.422,1.832-0.724,2.885-0.677c1.056,0.048,1.486,0.425,0.955,0.849
		C166.714,185.598,165.413,185.909,164.348,185.857z M157.854,185.562c-1.049-0.049-1.438-0.431-0.869-0.853
		c0.563-0.416,1.854-0.715,2.896-0.67s1.445,0.42,0.895,0.838C160.214,185.303,158.902,185.61,157.854,185.562z M166.396,189.188
		c-1.104-0.055-1.539-0.465-0.98-0.915c0.553-0.45,1.879-0.771,2.967-0.717c1.094,0.049,1.547,0.456,1.008,0.907
		C168.848,188.917,167.503,189.243,166.396,189.188z M160.491,188.896c-1.091-0.054-1.5-0.461-0.927-0.908
		c0.572-0.444,1.896-0.759,2.979-0.709s1.508,0.45,0.947,0.897C162.928,188.627,161.581,188.95,160.491,188.896z M153.852,188.573
		c-1.072-0.056-1.453-0.461-0.854-0.902c0.594-0.438,1.936-0.752,2.988-0.703c1.062,0.064,1.459,0.447,0.883,0.896
		C156.277,188.301,154.93,188.625,153.852,188.573z M162.466,192.424c-1.127-0.063-1.562-0.498-0.978-0.975
		c0.587-0.48,1.962-0.814,3.074-0.75c1.117,0.059,1.562,0.479,0.996,0.963C164.984,192.142,163.598,192.484,162.466,192.424z
		 M156.419,192.104c-1.112-0.061-1.519-0.491-0.907-0.966c0.604-0.47,1.979-0.802,3.079-0.743c1.103,0.055,1.521,0.48,0.935,0.954
		C158.932,191.823,157.538,192.163,156.419,192.104z M149.632,191.743c-1.098-0.058-1.471-0.484-0.84-0.951
		c0.627-0.467,2.008-0.795,3.088-0.74c1.091,0.064,1.479,0.48,0.867,0.947C152.132,191.467,150.73,191.801,149.632,191.743z" data-fill="#E4DFD8"></path>
	<path display="inline" fill="#003346" d="M177.98,168.823l0.623-0.461l13.256,0.35l-0.565,0.479L177.98,168.823z M176.085,170.227
		l0.638-0.473l13.424,0.373l-0.584,0.479L176.085,170.227z M173.729,171.97l0.662-0.489l13.631,0.402l-0.604,0.498L173.729,171.97z
		 M171.697,173.471l0.687-0.508l13.806,0.436l-0.623,0.516L171.697,173.471z M140.525,196.532l1.031-0.761l16.428,0.955
		l-0.944,0.778L140.525,196.532z M137.359,198.87l1.074-0.785l16.68,1.021l-0.977,0.813L137.359,198.87z M133.407,201.795
		l1.116-0.824l17.002,1.094l-1.028,0.852L133.407,201.795z M129.971,204.34l1.159-0.858l17.271,1.166l-1.062,0.886L129.971,204.34z" data-fill="#003346"></path>
	<path display="inline" fill="#E4DFD8" d="M186.702,169.493l1.75-1.396l1.524,0.041l-1.729,1.396L186.702,169.493z M181.077,170.715
		l1.846-1.422l1.529,0.041l-1.828,1.428L181.077,170.715z M182.673,172.709l1.865-1.489l1.567,0.046l-1.844,1.49L182.673,172.709z
		 M176.82,174.006l1.97-1.521l1.571,0.049l-1.948,1.525L176.82,174.006z M151.104,197.915l2.908-2.322l1.887,0.107l-2.875,2.328
		L151.104,197.915z M143.37,199.854l3.09-2.389l1.896,0.113l-3.062,2.396L143.37,199.854z M144.307,203.34l3.161-2.524l1.955,0.123
		l-3.131,2.528L144.307,203.34z M136.146,205.436l3.354-2.598l1.971,0.129l-3.328,2.604L136.146,205.436z" data-fill="#E4DFD8"></path>
	<path id="fillSkinColorBase_23_" display="inline" fill="#F9D7B9" d="M125.258,176.284c1.076,0.449,2.455-0.447,5.551,1.004
		c1.84,0.387,2.674,1.239,3.193,1.064c3.656-1.229,4.352-3.193,5.865-6.646c0.021-0.047,0.023-0.09,0.029-0.134
		c0.172-0.229,0.181-0.577-0.155-0.731c-3.095-2.424-6.565-0.309-9.298-1.385c-0.043,0-0.7-0.199-1.258-0.306l-0.459,0.169
		c-2.119,0.697-3.629,3.881-3.57,6.366c0,0.015,0,0.028,0,0.044C125.156,175.729,125.234,176.135,125.258,176.284z" data-fill="skin-color_base"></path>
	<path id="fillSkinColorBase_22_" display="inline" fill="#F9D7B9" d="M144.621,171.883c-2.393-1.447-4.771-2.008-7.502-1.809
		c-1.281,0.09-1.469,2.469-0.172,2.375c2.363-0.189,4.453,0.186,6.535,1.438C144.602,174.579,145.752,172.579,144.621,171.883z" data-fill="skin-color_base"></path>
	<path id="fillSkinColorBase_21_" display="inline" fill="#F9D7B9" d="M144.279,174.909c-2.283-1.806-4.99-2.062-7.66-2.082
		c-1.293-0.007-1.18,2.37,0.104,2.377c2.355,0.021,4.648,0.244,6.66,1.834C144.455,177.885,145.341,175.75,144.279,174.909z" data-fill="skin-color_base"></path>
	<path id="fillSkinColorBase_20_" display="inline" fill="#F9D7B9" d="M143.066,178.329c-1.963-2.082-4.908-2.479-7.539-2.945
		c-1.271-0.225-1.545,2.031-0.277,2.271c2.322,0.396,4.547,1.014,6.271,2.85C142.443,181.456,143.979,179.295,143.066,178.329z" data-fill="skin-color_base"></path>
	<path id="fillSkinColorBase_19_" display="inline" fill="#F9D7B9" d="M135.156,172.885c-1.586-1.438-5.258,2.671-7.301,2.533
		c-0.188-0.012-0.328,0.021-0.453,0.084c-0.547,0.099-2.104,0.252-1.832,0.91c1.752,0.221,2.729,2.188,4.011,2.479
		c1.244,1.541,2.539,3.186,4.51,3.729c1.244,0.342,1.644-1.617,0.406-1.961c-0.863-0.238-1.071-1.188-1.709-1.896
		c0,0,0.649-0.33,1.649-0.353c2.973-0.063,3.375-2.25,3.312-2.688S135.156,172.885,135.156,172.885z" data-fill="skin-color_base"></path>
	<path id="fillSkinColorBase_18_" display="inline" fill="#F9D7B9" d="M110.402,189.93c-2.365-2.727-6.551-0.232-10.181-2.012
		c-0.469-0.166-5.133,3.229-6.297,5.082c-0.215,0.344-0.104,0.951,0.227,1.188c2.152,1.559,4.505,3.167,7.119,3.729
		c0.377,0.104,0.358,0.078,0.865,0.15c0.48,0.059,0.968,0.086,1.467,0.061c3.529-0.18,5.562-3.715,6.778-6.562
		C110.592,191.065,110.913,190.181,110.402,189.93z" data-fill="skin-color_base"></path>
	<path id="fillSkinColorBase_17_" display="inline" fill="#F9D7B9" d="M119.588,192.458c-1.543-1.863-3.203-3.283-5.611-3.812
		c-2.484-0.549-5.222,0.092-7.731,0.123c-1.938,0.024-1.773,3.021,0.158,2.996c4.045-0.054,7.733-1.224,10.655,2.312
		C118.279,195.547,120.818,193.944,119.588,192.458z" data-fill="skin-color_base"></path>
	<path id="fillSkinColorBase_16_" display="inline" fill="#F9D7B9" d="M115.971,196.204c-2.678-2.904-5.989-3.771-9.699-4.688
		c-1.878-0.467-2.485,2.475-0.608,2.938c3.223,0.797,5.975,1.457,8.3,3.979C115.276,199.854,117.27,197.613,115.971,196.204z" data-fill="skin-color_base"></path>
	<path id="fillSkinColorBase_15_" display="inline" fill="#F9D7B9" d="M111.135,198.038c-2.257-0.699-4.214-2.136-6.299-3.205
		c-1.719-0.883-3.066,1.799-1.343,2.688c2.342,1.203,4.497,2.674,7.034,3.461C112.372,201.547,112.97,198.605,111.135,198.038z" data-fill="skin-color_base"></path>
</g><g id="fhd1" xmlns="http://www.w3.org/2000/svg" class="avatar-head">
	<g id="fillSkinColorBase_57_" display="inline" data-fill="skin-color_base">
		<path id="fillSkinColorBase_41_" fill="#F9D7B9" d="M98.521,67.682c0.613,9.289,0.193,18.839-2.471,27.715
			c-2.571,8.576-7.097,16.364-15.564,20.201c-5.521,2.499-12.347,2.866-18.304,2.114c-44.166-5.528-24.944-57.859-24.944-57.859
			s5.684-21.036,34.225-17.989c12.158,1.301,25.311,7.727,26.675,21.223C98.29,64.612,98.419,66.144,98.521,67.682z" data-fill="skin-color_base"></path>
		<path id="fillSkinColorBase_40_" fill="#F9D7B9" d="M99.055,82.285c-0.176-0.204-0.367-0.459-0.565-0.74
			c-0.665,5.681-2.013,11.374-3.735,16.926C108.902,92.11,99.055,82.285,99.055,82.285z" data-fill="skin-color_base"></path>
		<path id="fillSkinColorBase_39_" fill="#F9D7B9" d="M33.758,74.296c0.22-0.156,0.467-0.356,0.725-0.582
			c-0.723,5.674-0.787,11.524-0.453,17.326C21.833,81.458,33.758,74.296,33.758,74.296z" data-fill="skin-color_base"></path>
	</g>
</g><g id="fey1" xmlns="http://www.w3.org/2000/svg" class="avatar-eyes">
	<path fill="#543318" d="M87.8,83.488c-0.338,2.73-2.566,4.703-4.979,4.407c-2.406-0.296-4.089-2.752-3.748-5.483
		c0.338-2.73,2.568-4.702,4.977-4.405C86.459,78.302,88.138,80.757,87.8,83.488z" data-fill="#543318"></path>
	<path fill="#543318" d="M54.714,79.27c-0.337,2.73-2.568,4.702-4.978,4.407c-2.405-0.296-4.088-2.753-3.748-5.485
		c0.338-2.73,2.567-4.7,4.975-4.403C53.375,74.084,55.053,76.54,54.714,79.27z" data-fill="#543318"></path>
</g><g id="fmo1" xmlns="http://www.w3.org/2000/svg" class="avatar-mouth">
	
		<path display="inline" fill="none" stroke="#816951" stroke-width="2.0555" stroke-linecap="round" stroke-linejoin="round" stroke-miterlimit="10" d="
		M57.641,102.987c0,0,5.275,3.247,13.713,0.824" data-stroke="#816951"></path>
</g><g id="feb1" xmlns="http://www.w3.org/2000/svg" class="avatar-eyebrows">
	<path id="fillEyebrowColorBase_45_" display="inline" fill="#816951" d="M43.467,68.616c-0.29-0.019-0.57-0.159-0.757-0.409
		c-0.341-0.456-0.248-1.099,0.207-1.439c6.142-4.592,13.707,0.029,14.026,0.229c0.481,0.299,0.628,0.932,0.329,1.413
		s-0.931,0.629-1.413,0.331c-0.066-0.042-6.7-4.07-11.71-0.325C43.943,68.566,43.701,68.631,43.467,68.616z" data-fill="eyebrow-color_base"></path>
	<path id="fillEyebrowColorBase_44_" display="inline" fill="#816951" d="M90.355,71.492c-0.242-0.016-0.483-0.118-0.665-0.305
		c-4.408-4.464-11.557-1.462-11.627-1.43c-0.521,0.224-1.126-0.015-1.35-0.537c-0.226-0.521,0.017-1.126,0.538-1.351
		c0.342-0.148,8.518-3.581,13.9,1.875c0.4,0.403,0.396,1.055-0.008,1.453C90.929,71.411,90.639,71.511,90.355,71.492z" data-fill="eyebrow-color_base"></path>
</g><g id="fhf1" xmlns="http://www.w3.org/2000/svg" class="avatar-hair-front">
	<path id="fillHairColorBase_18_" fill="#3D383A" d="M100.484,81.746c0.002,0,1.536-41.655-24.315-44.313
		c-11.395-7.648-27.694-3.334-35.252,7.56c-27.052,38.995-7.064,49.865-7.064,49.865c9.419-34.616,35.607-40.181,47.325-40.892
		C85.824,65.838,92.859,80.016,100.484,81.746z" data-fill="hair-color_base"></path>
</g></svg>
						