<?xml version="1.0" encoding="utf-8"?>
<!-- Generator: Adobe Illustrator 16.0.0, SVG Export Plug-In . SVG Version: 6.00 Build 0)  -->
<!DOCTYPE svg PUBLIC "-//W3C//DTD SVG 1.1//EN" "http://www.w3.org/Graphics/SVG/1.1/DTD/svg11.dtd">
<svg version="1.1" id="Guitar" xmlns="http://www.w3.org/2000/svg" xmlns:xlink="http://www.w3.org/1999/xlink" x="0px" y="0px"
    width="250px" height="350px" viewBox="0 0 250 350" enable-background="new 0 0 250 350" xml:space="preserve">
    <g class="avatar-shoes">
        <path fill="#4F4E55" d="M117.765,315.576c0,0.281,16.591,7.595,16.591,7.595s2.537,3.239-0.775,3.657l-30.098-0.594v-7.296
            c0,0,4.62,1.04,7.175,0.347C113.214,318.584,117.765,315.576,117.765,315.576z"/>
        <polyline fill="#8C898D" points="136.312,326.246 102.123,325.666 102.518,328.448 136.117,328.543 136.704,326.15 	"/>
        <path fill="#4F4E55" d="M68.604,315.503c0,0.281-16.59,7.595-16.59,7.595s-2.535,3.239,0.775,3.655l30.1-0.592v-7.296
            c0,0-4.621,1.04-7.175,0.345C73.161,318.511,68.604,315.503,68.604,315.503z"/>
        <polyline fill="#8C898D" points="50.059,326.173 84.247,325.595 83.856,328.377 50.255,328.472 49.667,326.077 	"/>
    </g>
    <g class="avatar-body">
        <path fill="#F9D7B9" d="M112.089,133.414l-16.468-5.963l-0.638-6.677l-14.317,1.072l1.352,8.489l-13.17,11.538
            c0,0,2.535,19.902,23.195,16.627C112.12,155.318,114.848,148.802,112.089,133.414z"/>
        <path fill="#E3C5AB" d="M95.342,124.517l-0.355-3.743l-14.317,1.072l0.537,3.369C86.127,125.859,91.256,126.211,95.342,124.517z"/>
        <path fill="#FAD9BC" d="M122.94,207.873c-0.234-5.872-1.311-9.729-1.309-10.904c-0.649,0.026-11.235,2.235-20.149,1.555l0,0
            c-0.027-0.002-0.055-0.007-0.084-0.007c-0.025-0.003-0.056-0.005-0.081-0.007l0,0c-9.288-0.525-19.661-1.082-20.426-1.209
            c-0.466,0.832-0.47,2.27-1.724,8.378c-0.641,5.713-1.488,11.279-1.724,17.387c1.919,4.039,11.322,5.015,14.646,5.137
            c4.094,0.155,6.59,1.109,9.397,0.907c2.865-0.168,5.335-0.748,9.169-0.895c3.018-0.117,10.813-1.656,12.365-5.308
            C123.175,217.111,123.175,212.964,122.94,207.873z"/>
        <path fill="#FAD9BC" d="M101.14,224.352l21.8-1.973c0.382,8.396-2.646,70.035-5.329,90.34c0,0-0.632,4.089-1.127,4.767
            c-1.979,2.713-9.601,5.723-12.247,3.081C104.237,320.566,108.01,248.396,101.14,224.352z"/>
        <path fill="#FAD9BC" d="M77.676,220.63l22.437,4.325c-3.386,8.971-16.208,76.542-20.935,95.78c0,0-6.462,0.359-9.252-3.613
            C69.924,317.122,75.332,246.777,77.676,220.63z"/>
        <path fill="#65534E" d="M93.425,162.982c0,0-36.749,54.83-37.185,72.666c0,0-6.6-1.544-9.813-7.233l35.85-78.25L93.425,162.982z"/>
        <path fill="#FAD9BC" d="M114.644,135.117l24.135,34.544c0,0,24.792,16.688,24.417,13.723c0,0-2.214,6.848-9.37,6.531
            c-10.128-4.969-19.665-9.379-24.251-12.615c-6.683-8-19.114-29.407-19.114-29.407s-3.765-5.108-0.925-9.368
            C112.375,134.267,114.644,135.117,114.644,135.117z"/>
        <path fill="#FAD9BC" d="M163.196,183.384c0,0-0.031,0.101-0.095,0.26C163.17,183.586,163.215,183.506,163.196,183.384z"/>
        <path fill="#FAD9BC" d="M122.31,207.518c-3.732-25.766-5.849-45.148-8.951-57.249c2.422-4.363,2.137-4.363,2.894-8.068
            c1.515-3.961-0.416-5.06-0.827-7.963c0,0-10.956-3.175-16.374-5.366c-0.258,4.369-6.553,13.626-6.553,13.626
            s-8.688-4.627-13.293-9.489c-4.643,1.994-10.664,8.619-11.85,9.478c0,0,15.206,40.044,10.159,72.207c0,0,2.778,0.267,2.769,0.326
            C90.611,220.1,114.432,213.887,122.31,207.518z"/>
    </g>
    <g class="avatar-clothes-lower">
        <path fill="#3D383A" d="M122.94,207.873c-0.234-5.872-1.311-9.729-1.309-10.904c-0.649,0.026-11.235,2.235-20.149,1.555l0,0
            c-0.027-0.002-0.055-0.007-0.084-0.007c-0.025-0.003-0.056-0.005-0.081-0.007l0,0c-9.288-0.525-21.394-1.089-22.161-1.216
            c-0.464,0.835-0.449,3.545-1.703,9.654c-0.64,5.709,0.226,10.006-0.009,16.114c1.919,4.039,11.322,5.014,14.646,5.138
            c4.094,0.155,6.59,1.109,9.397,0.905c2.865-0.168,5.335-0.748,9.169-0.895c3.018-0.115,10.813-1.656,12.365-5.306
            C123.175,217.111,123.175,212.964,122.94,207.873z"/>
        <path fill="#3D383A" d="M101.14,224.352l21.8-1.973c0.382,8.396-1.925,71.949-5.358,92.175c0,0-9.908,5.49-13.345,2.054
            C104.237,316.607,108.01,248.396,101.14,224.352z"/>
        <path fill="#3D383A" d="M77.676,220.63l22.437,4.325c-3.386,8.971-13.604,72.849-18.33,92.087c0,0-9.356,1.56-12.149-2.413
            C69.634,314.629,75.332,246.777,77.676,220.63z"/>
    </g>
    <g class="avatar-clothes-top">
        <path fill="#939688" d="M110.838,129.989c-6.147,0.933,1.948,22.864,3.838,26.723c0.328,0.667,1.17,1.618,2.887,4.022
            c3.192-1.596,9.198-6.851,10.982-9.385C120.16,141.259,113.586,129.574,110.838,129.989z"/>
        <path fill="#939688" d="M124.708,206.579c-8.68-56.587-13.047-73.017-13.442-76.73c0,0-7.153-1.024-12.59-3.172
            c-1.64,3.627-2.141,10.153-7.834,19.392c-6.483-4.268-7.707-10.028-12.68-14.818c-3.784,2.36-10.486,8.09-11.446,9.06
            c10.108,41.535,10.576,41.5,10.522,73.239c0,0,2.77,0.972,2.763,1.033C90.367,219.569,116.879,213.018,124.708,206.579z"/>
        <path fill="#777A6F" d="M92.551,154.087l1.067-7.766l-2.525-0.222l-3.541-6.698l-0.141,0.067l-6.083-11.064l-0.185-2.481
            l-3.747,3.951c0.921,5.376,2.332,17.438,2.332,17.438l7.738-4.053l2.66,4.075l2.676-0.526L92.551,154.087z"/>
        <path fill="#939688" d="M81.521,127.451l6.034,11.949l-7.312,5.25c0,0-0.169-9.207-2.746-14.557l3.666-4.283L81.521,127.451z"/>
        <path fill="#777A6F" d="M91.05,146.144l1.723-7.663l0.158,0.013l1.93-12.477l0.233-2.417l3.963,2.455
            c0.972,5.368,3.776,17.183,3.776,17.183l-8.658-1.161L91.05,146.144z"/>
        <path fill="#939688" d="M95.017,124.892l-2.246,13.591l8.666,2.432c0,0-2.99-8.711-2.397-14.62l-3.859-2.762L95.017,124.892z"/>
    </g>
    <g id="Strat">
        <g>
            <g>
                <path fill="#908678" d="M66.427,234.786c0,0,2.004-0.232,2.769,0.752l-2.334,7.399c0,0-2.138,0.752-2.73-1.029L66.427,234.786z"
                    />
                <path fill="#908678" d="M66.427,234.786c0,0,2.004-0.232,2.769,0.752l-2.334,7.399c0,0-2.138,0.752-2.73-1.029L66.427,234.786z"
                    />
                <path fill="#65534E" d="M104.423,128.301c0,0,4.283,29.893,3.741,48.196c0,0-0.802,6.282,3.818,1.661l1.942-47.06
                    L104.423,128.301z"/>
                <path fill="#A39161" d="M48.578,227.619c0,0,7.732,23.263,24.325,18.874c0,0,7.251-1.721,14.683-11.71
                    c0,0,3.82-7.881,13.034-7.024c0,0,18.573-0.721,15.939-9.29c0,0,0.015-2.054-3.87-1.235c-3.88,0.818-9.719,0.792-10.275-8.404
                    l5.092-12.708c0,0-4.674,1.493-5.742-4.319c-1.066-5.815,4.618-8.558,7.183-10.196c2.564-1.638,2.103-3.004,0.332-3.773
                    c-1.769-0.772-8.27-5.377-24.012,10.592c0,0-2.706,5.483-17.791,5.563c0,0-8.947-0.975-15.366,2.572
                    C45.687,200.111,41.662,209.972,48.578,227.619z"/>
                <path fill="#F1F3F5" d="M71.253,224.999c0,0,3.053,4.962,2.041,9.426c-1.014,4.462-2.212,7.462-0.116,8.91
                    c2.099,1.448,7.215-3.971,7.215-3.971s5.797-6.262,7.243-8.254c1.443-1.99,6.247-5.506,12.28-5.151
                    c6.029,0.356,13.058-1.557,14.16-5.472c0,0,0-0.588-2.56,0.362c-2.555,0.946-12.246,1.454-12.218-10.456
                    c-0.04-0.09-0.105-0.114-0.105-0.114l-0.517-10.649c0,0,0.01-3.737-1.068-3.999c0,0-0.259-1.16-3.949,2.114
                    c0,0-5.641,3.79-8.354,4.278c-2.713,0.486-10.971,0.981-10.971,0.981s-8.254,0.973-9.545,6.47c0,0-0.366,1.661,0.663,3.811"/>
                <path fill="#FAD9BC" d="M166.378,180.276c-0.631-0.732-1.469-1.103-2.4-1.249c-0.154-0.049-0.307-0.104-0.464-0.135
                    c-0.349-0.271-0.814-0.413-1.411-0.319c-0.27,0.044-0.534,0.102-0.797,0.159c-2.185-0.144-4.547,0.504-6.095,1.943
                    c-0.047,0.045-0.079,0.098-0.125,0.145c-1.183,0.368-2.355,0.82-3.254,1.654c-0.905,0.836-1.118,1.89-0.844,2.866
                    c-0.156,0.548-0.341,1.528-0.092,2.149c1.216,3.048,5.949,3.36,8.882,2.4c1.507-0.313,3.438-1.671,4.479-2.32
                    C166.885,186.159,168.748,183.033,166.378,180.276z"/>
                <g>
                    <path fill="#B59F7E" d="M94.801,201.793c0.076,0.727,0.272,1.53,0.509,2.277c0.238,0.757,0.535,1.5,0.875,2.224
                        c0.682,1.443,1.539,2.811,2.53,4.072l-0.687-0.167l43.319-20.291l21.657-10.151l10.83-5.075
                        c0.922-0.406,1.755-0.874,2.771-1.253c0.989-0.351,2.04-0.574,3.127-0.559c1.083,0.014,2.217,0.321,3.134,0.986
                        c0.401,0.289,0.798,0.568,1.204,0.825c0.202,0.129,0.406,0.253,0.599,0.351c0.096,0.049,0.193,0.093,0.254,0.113
                        c0.016,0.013,0.063-0.007-0.082,0.009c-0.063-0.016-0.349,0.142-0.383,0.359c-0.032,0.183-0.011,0.202,0.021,0.284l-0.16-0.477
                        l0.375-0.235l0.007-0.004c3.892-2.464,7.807-4.921,11.637-7.451c0.233-0.158,0.481-0.323,0.679-0.475l0.117-0.087
                        c0.024-0.015,0.045-0.037,0.179-0.097c0.226-0.094,0.352-0.077,0.499-0.073c0.268,0.031,0.436,0.114,0.596,0.184
                        c0.596,0.302,1.027,0.604,1.52,0.829c0.954,0.471,1.98,0.617,2.99,0.371c0.982-0.264,2.073-0.752,2.889-1.369
                        c0.829-0.634,1.395-1.506,1.537-2.512l0.584,0.086c0.054,1.188-0.586,2.4-1.522,3.203c-0.977,0.78-2.011,1.327-3.239,1.655
                        c-1.229,0.321-2.609,0.125-3.72-0.421c-0.556-0.256-1.085-0.606-1.519-0.817c-0.103-0.049-0.205-0.08-0.223-0.077
                        c0.007-0.002-0.02,0.014,0.076-0.021c0.062-0.04,0.022-0.022-0.013,0.007l-0.023,0.013c0.093-0.07,0.011-0.004,0.023-0.013
                        l-0.056,0.044c-0.261,0.2-0.493,0.354-0.732,0.521c-1.922,1.301-3.856,2.553-5.793,3.811c-1.933,1.261-3.92,2.433-5.88,3.648
                        l-0.009,0.005l0.214-0.712c0.053,0.142,0.089,0.224,0.041,0.468c-0.049,0.279-0.396,0.477-0.517,0.47
                        c-0.271,0.031-0.349-0.02-0.45-0.042c-0.178-0.058-0.306-0.119-0.433-0.184c-0.252-0.129-0.472-0.265-0.69-0.404
                        c-0.437-0.275-0.854-0.572-1.26-0.863c-0.707-0.51-1.582-0.758-2.486-0.774c-0.909-0.013-1.839,0.18-2.723,0.495
                        c-0.857,0.313-1.774,0.814-2.674,1.21l-10.83,5.076l-21.658,10.147l-43.318,20.295l-0.409,0.192l-0.279-0.354
                        c-1.035-1.325-1.944-2.762-2.665-4.288c-0.355-0.768-0.673-1.555-0.929-2.364c-0.254-0.821-0.46-1.624-0.558-2.531
                        L94.801,201.793z"/>
                </g>
                <path fill="#DABF96" d="M94.235,201.837c0,0,0.297,4.119,4.033,8.877l77.53-36.32c0,0,3.93-2.102,6.743-0.071
                    c2.811,2.031,2.455,1.246,2.455,1.246s11.634-7.33,12.428-8.007c0.793-0.677,2.671,2.41,6.314,1.066
                    c2.025-0.742,3.835-1.915,4.165-4.142c0.826-5.558-4.667-5.142-8.46-4.613c-7.999,1.111-24.77,3.376-24.77,3.376l-0.761,3.18
                    c0,0-0.603,0.746-3.085,1.875C167.835,169.662,167.881,169.634,94.235,201.837z"/>
                <circle fill="#AAABAD" cx="178.927" cy="164.731" r="1.389"/>
                <circle fill="#AAABAD" cx="183.635" cy="164.083" r="1.388"/>
                <circle fill="#AAABAD" cx="188.094" cy="163.512" r="1.389"/>
                <circle fill="#AAABAD" cx="192.803" cy="162.864" r="1.391"/>
                <circle fill="#AAABAD" cx="197.354" cy="162.18" r="1.39"/>
                <circle fill="#AAABAD" cx="201.931" cy="161.557" r="1.389"/>
                <g>
                    <ellipse transform="matrix(-0.9896 0.1436 -0.1436 -0.9896 378.6855 293.5729)" fill="#AAABAD" cx="178.745" cy="160.457" rx="1.628" ry="1.315"/>
                    <rect x="178.754" y="161.204" transform="matrix(0.9896 -0.1439 0.1439 0.9896 -21.4399 27.4431)" fill="#AAABAD" width="0.38" height="1.384"/>
                </g>
                <g>
                    <ellipse transform="matrix(-0.9897 0.143 -0.143 -0.9897 387.5502 291.762)" fill="#AAABAD" cx="183.29" cy="159.809" rx="1.629" ry="1.315"/>
                    <rect x="183.332" y="160.551" transform="matrix(0.9894 -0.145 0.145 0.9894 -21.4384 28.3112)" fill="#AAABAD" width="0.384" height="1.387"/>
                </g>
                <g>
                    <path fill="#AAABAD" d="M189.492,158.909c0.106,0.719-0.531,1.406-1.422,1.538c-0.887,0.126-1.693-0.351-1.801-1.069
                        c-0.103-0.719,0.533-1.406,1.424-1.538C188.583,157.712,189.389,158.189,189.492,158.909z"/>
                    <rect x="187.9" y="159.888" transform="matrix(0.9895 -0.1448 0.1448 0.9895 -21.2738 28.9342)" fill="#AAABAD" width="0.381" height="1.386"/>
                </g>
                <g>
                    <ellipse transform="matrix(-0.9896 0.144 -0.144 -0.9896 405.7197 287.5758)" fill="#AAABAD" cx="192.45" cy="158.475" rx="1.629" ry="1.318"/>
                    <rect x="192.478" y="159.233" transform="matrix(0.9901 -0.1402 0.1402 0.9901 -20.5135 28.5832)" fill="#AAABAD" width="0.38" height="1.386"/>
                </g>
                <g>
                    <ellipse transform="matrix(-0.9897 0.1432 -0.1432 -0.9897 414.6138 285.801)" fill="#AAABAD" cx="197.025" cy="157.817" rx="1.629" ry="1.316"/>
                    <rect x="197.034" y="158.563" transform="matrix(0.9893 -0.1457 0.1457 0.9893 -21.1008 30.4383)" fill="#AAABAD" width="0.382" height="1.385"/>
                </g>
                <g>
                    <ellipse transform="matrix(-0.9896 0.144 -0.144 -0.9896 423.239 283.9135)" fill="#AAABAD" cx="201.348" cy="157.269" rx="1.626" ry="1.316"/>
                    <rect x="201.341" y="158.037" transform="matrix(0.9894 -0.1453 0.1453 0.9894 -20.9306 30.9778)" fill="#AAABAD" width="0.383" height="1.384"/>
                </g>
                <line fill="none" stroke="#FFFFFF" stroke-width="0.8155" stroke-miterlimit="10" x1="172.64" y1="167.468" x2="175.786" y2="174.398"/>
                <line fill="none" stroke="#8D8F92" stroke-width="0.4078" stroke-miterlimit="10" x1="166.033" y1="170.469" x2="169.182" y2="177.399"/>
                <line fill="none" stroke="#8D8F92" stroke-width="0.4078" stroke-miterlimit="10" x1="159.884" y1="173.158" x2="163.151" y2="180.476"/>
                <line fill="none" stroke="#8D8F92" stroke-width="0.4078" stroke-miterlimit="10" x1="154.206" y1="175.647" x2="157.58" y2="183.071"/>
                <line fill="none" stroke="#8D8F92" stroke-width="0.4078" stroke-miterlimit="10" x1="149.062" y1="177.811" x2="152.339" y2="185.455"/>
                <line fill="none" stroke="#8D8F92" stroke-width="0.4078" stroke-miterlimit="10" x1="144.129" y1="180.107" x2="147.534" y2="187.665"/>
                <line fill="none" stroke="#8D8F92" stroke-width="0.4078" stroke-miterlimit="10" x1="139.438" y1="182.153" x2="142.924" y2="190.025"/>
                <line fill="none" stroke="#8D8F92" stroke-width="0.4078" stroke-miterlimit="10" x1="135.028" y1="184.034" x2="138.581" y2="191.788"/>
                <line fill="none" stroke="#8D8F92" stroke-width="0.4078" stroke-miterlimit="10" x1="130.894" y1="185.732" x2="134.71" y2="193.765"/>
                <line fill="none" stroke="#8D8F92" stroke-width="0.4078" stroke-miterlimit="10" x1="127.204" y1="187.501" x2="130.868" y2="195.564"/>
                <line fill="none" stroke="#8D8F92" stroke-width="0.4078" stroke-miterlimit="10" x1="123.639" y1="189.016" x2="127.264" y2="197.256"/>
                <line fill="none" stroke="#8D8F92" stroke-width="0.4078" stroke-miterlimit="10" x1="120.09" y1="190.372" x2="123.963" y2="198.759"/>
                <line fill="none" stroke="#8D8F92" stroke-width="0.4256" stroke-miterlimit="10" x1="103.917" y1="197.693" x2="107.834" y2="206.32"/>
                <line fill="none" stroke="#8D8F92" stroke-width="0.4256" stroke-miterlimit="10" x1="106.111" y1="196.697" x2="110.031" y2="205.322"/>
                <line fill="none" stroke="#8D8F92" stroke-width="0.4256" stroke-miterlimit="10" x1="108.55" y1="195.589" x2="112.471" y2="204.215"/>
                <line fill="none" stroke="#8D8F92" stroke-width="0.4256" stroke-miterlimit="10" x1="111.116" y1="194.424" x2="115.035" y2="203.049"/>
                <line fill="none" stroke="#8D8F92" stroke-width="0.4256" stroke-miterlimit="10" x1="113.925" y1="193.146" x2="117.848" y2="201.773"/>
                <line fill="none" stroke="#8D8F92" stroke-width="0.4256" stroke-miterlimit="10" x1="116.958" y1="191.769" x2="120.878" y2="200.397"/>
                <line fill="none" stroke="#8D8F92" stroke-width="0.4078" stroke-miterlimit="10" x1="97.682" y1="200.377" x2="101.624" y2="209.055"/>
                <line fill="none" stroke="#8D8F92" stroke-width="0.4078" stroke-miterlimit="10" x1="99.627" y1="199.492" x2="103.572" y2="208.168"/>
                <line fill="none" stroke="#8D8F92" stroke-width="0.4106" stroke-miterlimit="10" x1="101.578" y1="198.604" x2="105.575" y2="207.407"/>
                <line fill="none" stroke="#8D8F92" stroke-width="0.4078" stroke-miterlimit="10" x1="95.868" y1="201.141" x2="99.841" y2="209.954"/>
                <circle fill="#777170" cx="158.735" cy="178.186" r="0.498"/>
                <circle fill="#777170" cx="148.269" cy="182.867" r="0.499"/>
                <circle fill="#777170" cx="139.038" cy="187.031" r="0.499"/>
                <circle fill="#777170" cx="130.941" cy="190.62" r="0.499"/>
                <circle fill="#777170" cx="121.379" cy="197.195" r="0.498"/>
                <circle fill="#777170" cx="119.642" cy="193.701" r="0.499"/>
                <circle fill="#777170" cx="111.808" cy="199.372" r="0.498"/>
                <circle fill="#777170" cx="106.94" cy="201.553" r="0.5"/>
                <circle fill="#777170" cx="102.38" cy="203.625" r="0.499"/>
                <circle fill="#777170" cx="98.607" cy="205.339" r="0.498"/>
                <path fill="#CAC8BE" d="M61.054,215.707l5.439,11.028l0.264-0.119l0.841,1.38l3.553-1.455l-0.563-1.237
                    c0,0,2.188-0.941,2.208-1.485c0.021-0.543-5.144-10.735-5.144-10.735s-0.374-0.47-1.037-0.168
                    C65.952,213.216,61.054,215.707,61.054,215.707z"/>
                <path fill="#CAC8BE" d="M95.784,211.937c0.354,0.78,0.012,1.703-0.772,2.059l0,0c-0.781,0.353-1.703,0.009-2.058-0.774
                    l-3.92-8.626c-0.354-0.781-0.009-1.704,0.775-2.059l0,0c0.781-0.353,1.7-0.009,2.056,0.773L95.784,211.937z"/>
                <path fill="#CAC8BE" d="M86.465,215.701c0.396,0.873,0.011,1.905-0.864,2.3l0,0c-0.875,0.399-1.907,0.011-2.304-0.864
                    l-3.684-8.113c-0.397-0.873-0.011-1.905,0.865-2.302l0,0c0.875-0.399,1.905-0.012,2.3,0.865L86.465,215.701z"/>
                <path fill="#CAC8BE" d="M77.579,220.252c0.271,0.921-0.26,1.891-1.18,2.156l0,0c-0.922,0.271-1.888-0.259-2.157-1.18l-2.5-8.549
                    c-0.269-0.923,0.259-1.888,1.179-2.159l0,0c0.922-0.268,1.888,0.261,2.158,1.183L77.579,220.252z"/>
                <path fill="none" stroke="#D2CEBB" stroke-width="0.2039" stroke-miterlimit="10" d="M66.812,232.142"/>
                <ellipse transform="matrix(-0.9106 0.4133 -0.4133 -0.9106 240.4979 399.1514)" fill="#FFFFFF" cx="77.08" cy="225.586" rx="2.283" ry="2.381"/>
                <ellipse transform="matrix(-0.9104 0.4138 -0.4138 -0.9104 243.4679 412.957)" fill="#CAC8BE" cx="77.009" cy="232.847" rx="2.283" ry="2.381"/>
                <ellipse transform="matrix(-0.9103 0.414 -0.414 -0.9103 242.9037 427.2116)" fill="#CAC8BE" cx="75.161" cy="239.926" rx="2.283" ry="2.381"/>
                <path fill="#FFFFFF" d="M75.037,233.546c-0.543-1.198-0.053-2.591,1.094-3.111c1.148-0.522,2.52,0.025,3.064,1.224
                    c0.543,1.196,0.054,2.589-1.096,3.109C76.951,235.292,75.581,234.744,75.037,233.546z"/>
                <ellipse transform="matrix(-0.9102 0.4142 -0.4142 -0.9102 243.0225 426.646)" fill="#FFFFFF" cx="75.257" cy="239.67" rx="2.282" ry="2.38"/>
                <path fill="none" stroke="#FFFFFF" stroke-width="0.2039" stroke-miterlimit="10" d="M84.242,224.111"/>
                <path fill="#D1D2D3" d="M68.536,230.29c0,0-3.624-0.808-4.002,5.874c0,0-0.836,6.491,1.048,6.887
                    C68.47,243.656,72.932,231.864,68.536,230.29z"/>
            </g>
            <path fill="#FAD9BC" d="M167.722,173.418c-1.948-1.913-4.944,1.072-3,2.979c1.684,1.651,1.034,3.325-0.517,4.811
                c-1.974,1.893,1.014,4.883,2.979,3.004C170.39,181.14,171.047,176.677,167.722,173.418z"/>
            <path fill="#FAD9BC" d="M156.375,179.32c-1.464-1.675-4.086,0.568-2.619,2.238c1.266,1.446,0.635,2.767-0.719,3.88
                c-1.722,1.415,0.523,4.03,2.236,2.624C158.07,185.764,158.876,182.175,156.375,179.32z"/>
            <path fill="#FAD9BC" d="M161.326,175.35c-2.022-1.833-4.897,1.266-2.879,3.097c1.748,1.583,1.165,3.28-0.326,4.826
                c-1.898,1.968,1.206,4.84,3.097,2.881C164.299,182.96,164.775,178.476,161.326,175.35z"/>
            <g>
                <g>
                    <polyline fill="none" stroke="#E3E5E6" stroke-width="0.8155" stroke-linecap="round" stroke-linejoin="round" stroke-miterlimit="10" points="
                        67.229,226.967 81.405,230.795 84.181,230.807 				"/>
                    <g>
                        <path fill="#FFFFFF" d="M89.742,230.803c-1.001,0.341-2.019,0.496-3.044,0.606c-0.513,0.05-1.025,0.079-1.542,0.069
                            c-0.516-0.012-1.036-0.026-1.56-0.125c-0.26-0.048-0.434-0.301-0.385-0.561c0.033-0.168,0.153-0.304,0.302-0.358
                            c0.499-0.191,1.007-0.301,1.512-0.404c0.508-0.103,1.018-0.162,1.532-0.206c1.025-0.076,2.058-0.104,3.102,0.053
                            c0.262,0.04,0.44,0.282,0.402,0.546C90.035,230.601,89.906,230.742,89.742,230.803z"/>
                    </g>
                </g>
            </g>
        </g>
    </g>
    <g>
        <g>
            <path fill="#FAD9BC" d="M91.815,221.439c-3.339-1.352-2.16-0.883-5.217-2.736c-0.131,0.017-0.272,0.006-0.419-0.077
                c-0.393-0.22-1.26,0.151-1.631-0.102c-0.935,0.772-1.426,0.878-2.509,1.493c0.058,0.04,0.111,0.09,0.168,0.131
                c0.139,0.1,0.291,0.121,0.43,0.104c0.093,0.166,0.277,0.285,0.474,0.307c0.103,0.093,0.217,0.18,0.354,0.255
                c3.672,2.007,2.873,2.072,6.777,3.648C92.258,225.278,93.856,222.262,91.815,221.439z"/>
            <path fill="#FAD9BC" d="M99.233,214.405c-4.913,0-10.373,0.25-15.172-0.889c-0.266,1.1-0.676,2.153-1.157,3.181
                c0.147,0.048,0.292,0.099,0.436,0.154l0.002-0.002c5.083,1.212,10.785,1.358,15.979,1.36
                C101.522,218.21,101.424,214.407,99.233,214.405z"/>
            <path fill="#FAD9BC" d="M89.746,213.642c-0.022-0.004-0.04-0.008-0.062-0.013c0.004-0.415-0.008-0.834-0.029-1.251
                c0.117,0.002,0.233-0.004,0.35-0.004c0.181-1.104,0.248-2.234,0.199-3.383c-0.521,0.002-1.04-0.002-1.562-0.023
                c-0.299-0.557-0.484-1.157-0.407-1.827c0.061-0.543,0.275-1.066,0.517-1.581c0.295-0.078,0.592-0.162,0.887-0.242
                c-0.28-1.061-0.67-2.127-1.166-3.201c-0.232,0.064-0.466,0.124-0.699,0.193c-0.19-0.042-0.402-0.056-0.643-0.012
                c-0.726,0.129-1.446,0.265-2.167,0.404c-0.258-0.058-0.542-0.056-0.857,0.045c-0.332,0.107-0.659,0.226-0.989,0.335
                c-2.229,0.495-4.422,1.108-6.548,2.012c-0.259,0.111-0.466,0.262-0.628,0.438c-0.719,0.298-1.024,0.912-1.005,1.538
                c-1.438,1.98-1.38,4.587-1.621,6.947c-0.011,0.104,0.011,0.192,0.041,0.275c-0.108,0.201-0.1,0.447,0.135,0.632
                c3.503,2.75,7.422,5.354,11.665,6.923C87.637,219.329,88.936,216.94,89.746,213.642z"/>
            <path fill="#FAD9BC" d="M94.723,204.552c-0.332,0.031-0.078,0.056-0.354-0.063c-0.014-0.005-0.353-0.264-0.458-0.357
                c-0.426-0.363-0.796-0.785-1.213-1.158c-0.165-0.146-0.354-0.241-0.556-0.301c-0.243-0.256-0.557-0.424-0.92-0.438
                c-0.748-0.029-1.5-0.063-2.25-0.089c-0.927-0.033-1.79,0.432-1.94,1.428c-0.012,0.071-0.012,0.143-0.012,0.216
                c-0.922,0.309-1.771,0.776-2.446,1.563c-1.433,1.665,1.247,3.772,2.673,2.106c0.138-0.16,0.16-0.18,0.061-0.064
                c-0.009,0.004,0.479-0.293,0.245-0.175c0.303-0.15,0.626-0.251,0.948-0.347c0.468-0.138,1.129-0.224,1.695-0.324
                c0.351-0.062,0.66-0.212,0.915-0.43c1.146,1.045,2.223,1.98,3.971,1.821C97.274,207.735,96.906,204.35,94.723,204.552z"/>
            <path fill="#FAD9BC" d="M95.876,207.979c-2.987,0.157-5.408,0.386-8.4,0.438c-2.201,0.037-1.331,4.504,0.865,4.464
                c2.995-0.053,4.799-0.618,7.66-1.414C98.348,210.81,98.071,207.868,95.876,207.979z"/>
        </g>
        <path fill="#F9D7B9" d="M73.759,144.203c-1.773-1.633-3.265-2.914-6.246-1.895c-2.547,0.568-24.988,33.053-24.934,35.241
            c0.055,2.19,31.195,38.148,31.195,38.148c9.349-1.54,4.949-9.57,4.949-9.57c-10.131-8.276-21.999-28.992-21.999-28.992
            s16.474-19.468,17.982-22.711C78.624,148.037,75.536,145.835,73.759,144.203z"/>
    </g>
    <g id="SHIRT_MALE_3_SLEEVE">
        <path fill="#939688" d="M67.216,166.042c3.233-4.848,8.379-8.378,9.225-9.612l2.134-7.534l-3.86-15.012l-7.773,6.041
            c0,0-9.433,11.257-13.191,15.749c0,0,4.712,4.377,6.329,5.925C61.695,163.146,67.216,166.042,67.216,166.042z"/>
    </g>
    <g class="avatar-head">
        <g>
            <path fill="#F9D7B9" d="M122.47,77.488c-0.215-0.205-0.457-0.466-0.707-0.755c0.03,6.496-0.671,13.1-1.792,19.595
                C134.365,87.207,122.47,77.488,122.47,77.488z"/>
            <path fill="#F9D7B9" d="M49.621,77.488c0.216-0.205,0.456-0.466,0.708-0.755c-0.031,6.496,0.67,13.1,1.791,19.595
                C37.728,87.207,49.621,77.488,49.621,77.488z"/>
        </g>
        <path fill="#F9D7B9" d="M120.167,61.159c-0.311-1.72-0.651-3.428-1.017-5.119c-3.241-15.036-18.251-20.455-31.51-20.246
            c-31.128,0.492-36.802,24.673-36.802,24.673s-11.476,61.964,36.801,62.104c6.511,0.021,13.814-1.329,19.425-4.908
            c8.613-5.493,12.455-14.904,14.095-24.924C122.859,82.363,122.051,71.541,120.167,61.159z"/>
    </g>
    <g class="avatar-mouth">
        <path fill="#F5F5F5" d="M95.276,104.568c-8.674,4.111-15.601,0.114-15.601,0.114s1.392,9.93,7.683,9.917
            C93.65,114.585,95.276,104.568,95.276,104.568z"/>
    </g>
    <g class="avatar-eyes">
        <path fill="#543318" d="M110.345,82.242c0.033-0.263,0.065-0.529,0.065-0.804c-0.007-3.124-2.194-5.653-4.883-5.649
            c-2.69,0.004-4.869,2.54-4.864,5.665c0,0.084,0.016,0.164,0.018,0.246C104.083,80.91,107.283,81.245,110.345,82.242z"/>
        <path fill="#543318" d="M63.908,82.242c-0.034-0.263-0.064-0.529-0.064-0.804c0.007-3.124,2.193-5.653,4.88-5.649
            c2.69,0.004,4.869,2.54,4.867,5.665c0,0.084-0.015,0.164-0.02,0.246C70.17,80.91,66.972,81.245,63.908,82.242z"/>
    </g>
    <g class="avatar-eyebrows">
        <path fill="none" stroke="#816951" stroke-width="2.0555" stroke-linecap="round" stroke-linejoin="round" stroke-miterlimit="10" d="
            M74.132,64.873c0,0-9.388-2.284-13.981,4.274"/>
        <path fill="none" stroke="#816951" stroke-width="2.0555" stroke-linecap="round" stroke-linejoin="round" stroke-miterlimit="10" d="
            M99,65.248c0,0,9.115-3.194,14.33,2.881"/>
    </g>
    <g class="avatar-hair-top">
        <path fill="#B8824C" d="M117.326,38.799c-0.002-0.425-0.088-0.843-0.216-1.252c-20.857-10.722-36.776-10.337-49.146-3.663
            c-5.758,1.806-11.287,5.506-15.756,8.719c-0.258,0.184-0.295,0.464-0.217,0.702c-0.351,0.443,0.2,1.208,0.79,0.873
            c1.277-0.729,2.668-1.348,4.114-1.841c-3.429,3.462-6.507,7.44-9.278,11.771c0.061,0.305,0.144,0.609,0.249,0.913
            c0.265,0.79,0.92,1.063,1.574,0.985c-1.432,7.318-1.349,16.572,0.999,28.251l0.46-0.093c0,0-0.205,2.915,0.687-0.299
            c0.701-2.563,0.271-11.854,3.379-19.351c2.857-6.888,6.331-9.449,9.644-8.987c-2.574,2.544-3.535,6.987-3.535,6.987
            s17.741-2.984,28.732-5.216c-2.717,2.404-5.403,4.565-7.825,6.069c12.278-0.983,21.531-6.242,27.077-12.13
            c1.861-0.813,4.008-1.762,6.708-2.926c0.411-0.152,4.069,35.508,5.264,35.514c0.53,0.006,2.159-6.838,3.102-15.75
            C125.383,56.112,128.709,42.563,117.326,38.799z"/>
        <path fill="#AA7846" d="M50.486,84.239l0.468-0.094c0,0-0.204,2.972,0.7-0.305c0.557-2.042,0.406-8.27,1.818-14.501
            c-1.752,0.121-3.392-0.399-4.941-1.25C48.659,72.869,49.273,78.224,50.486,84.239z"/>
        <path fill="#AA7846" d="M117.417,60.481c1.265,10.3,2.886,23.341,3.611,23.347c0.53,0.006,2.158-6.838,3.104-15.749
            c0.348-3.325,0.854-6.772,1.162-10.097C122.907,59.735,120.088,60.645,117.417,60.481z"/>
    </g>
</svg>