<svg version="1.1" id="Standing" xmlns="http://www.w3.org/2000/svg" xmlns:xlink="http://www.w3.org/1999/xlink" x="0px" y="0px" width="175px" height="296.512px" viewBox="0 0 175 296.512" enable-background="new 0 0 175 296.512" xml:space="preserve" class="parent">
    <g id="mbo1" xmlns="http://www.w3.org/2000/svg">
        <path id="fillSkinColorBase_13_" display="inline" fill="#F9D7B9" d="M124.234,114.533l-10.905-5.58l0.375-6.368l-12.177,0.375
            l0.188,5.432l-9.795,5.568c-0.001,0-3.985,19.562,14.432,19.562C124.251,133.524,124.51,128.297,124.234,114.533z" data-fill="skin-color_base"></path>
        <path id="fillSkinColorShade" display="inline" fill="#E1C3A9" d="M113.438,106.279l0.271-3.689l-12.182,0.293l0.117,3.415
            C105.671,107.325,109.587,107.166,113.438,106.279z" data-fill="skin-color_shade"></path>
        <path id="fillSkinColorBase_12_" display="inline" fill="#F9D7B9" d="M127.671,118.582c0,0,1.183,1.727,2.097,8.699
            c1.063,8.021,4.442,51.188,4.442,51.188s3.24,22.299-8.573,21.762l-0.761-32.812c0,0-1.356-25.91-2.897-29.719
            c-1.289-3.188-4.5-22.903,0.969-23.207C124.581,114.401,126.747,117.036,127.671,118.582z" data-fill="skin-color_base"></path>
        <path id="fillSkinColorBase_11_" display="inline" fill="#F9D7B9" d="M126.404,183.83c0.673-50.404-2.987-66.115-2.793-69.397
            c0,0-2.475-1.354-6.887-4.006c-0.44,3.063-0.938,11.875-10.115,11.396c-7.646-0.399-6.959-5.558-8.666-11.271
            c-3.631,1.502-7.772,3.517-8.748,4.221c0,0,1.039,42-3.33,67.875c0,0,2.38,0.615,2.361,0.666
            C96.508,189.158,118.673,188.285,126.404,183.83z" data-fill="skin-color_base"></path>
        <path id="fillSkinColorBase_10_" display="inline" fill="#F9D7B9" d="M125.805,180.004c-0.207-5.17-0.479-8.48-0.479-9.521
            c-0.564,0.021-10.563,1.892-18.405,1.285l0,0c-0.021-0.002-0.062-0.004-0.071-0.006c-0.021,0-0.052-0.013-0.063-0.013l0,0
            c-8.186-0.463-17.313-0.946-17.982-1.063c-0.408,0.729-0.412,2-1.519,7.39c-0.565,5.021-1.31,9.93-1.517,15.307
            c1.689,3.562,9.967,4.416,12.895,4.521c3.604,0.14,5.811,0.979,8.271,0.802c2.521-0.146,4.691-0.658,8.068-0.787
            c2.653-0.104,9.521-1.459,10.893-4.672C126.012,188.141,126.012,184.486,125.805,180.004z" data-fill="skin-color_base"></path>
        <path id="fillSkinColorBase_9_" display="inline" fill="#F9D7B9" d="M106.607,194.516l19.19-1.738
            c0.341,7.396-1.679,61.734-4.688,79.563c0,0-8.569,1.521-11.596-1.521C109.514,270.818,112.657,215.686,106.607,194.516z" data-fill="skin-color_base"></path>
        <path id="fillSkinColorBase_8_" display="inline" fill="#F9D7B9" d="M85.917,191.156l19.833,3.354
            c-2.803,7.967-9.313,59.383-13.091,76.408c0,0-8.845,0.709-11.381-2.732C81.28,268.189,84.373,214.223,85.917,191.156z" data-fill="skin-color_base"></path>
        <path id="fillSkinColorBase_7_" display="inline" fill="#F9D7B9" d="M48.914,109.955c-0.064-0.272-0.142-0.534-0.228-0.793
            c-0.133-0.406-0.447-1.271-0.463-1.31c-0.008-0.021-0.018-0.044-0.027-0.064c-0.385-0.944-1.959-4.251-2.07-4.416
            c-0.748-1.088-1.443-2.215-2.23-3.281c-0.486-0.661-1.102-1.224-1.758-1.74c-0.584-0.457-1.297-1.138-2.084-1.239
            c-0.555-0.067-1.117,0.065-1.562,0.381c-0.844,0.589-1.209,1.969-0.414,2.746c0.67,0.654,1.221,1.478,1.979,2.048
            c0.287,0.214,0.174,0.95,0.158,1.238c-0.025,0.46-0.055,0.885-0.365,1.263c-0.264,0.318-0.645,0.551-1.004,0.774
            c-1.467,0.934-3.275,1.089-4.992,1.265c-1.379,0.138-2.773,0.167-4.15,0.001c-0.738-0.093-1.467-0.243-2.167-0.481
            c-2.924-0.99-4.813,3.161-1.865,4.16c2.737,0.925,5.84,0.961,8.771,0.614c-2.317,0.378-4.643,0.688-7.001,0.419
            c-3.111-0.357-3.489,4.136-0.399,4.486c2.883,0.334,5.77-0.068,8.614-0.533c0.06,0.149,0.125,0.309,0.195,0.479
            c-1.471,0.612-3.442,0.764-4.834,0.485c-2.422-0.487-3.496,2.964-1.059,3.455c2.615,0.522,5.563,0.176,7.984-0.982
            c0.018,0.019,0.03,0.03,0.049,0.049c3.973-1.442,10.182-3.775,10.736-5.021C49.328,112.621,49.246,111.35,48.914,109.955z" data-fill="skin-color_base"></path>
        <path id="fillSkinColorBase_6_" display="inline" fill="#F9D7B9" d="M101.325,127.454l-4.509-13.397l-6.805,0.635l-5.451,4.027
            c-0.208,0.164-11.032,7.745-16.655,7.844c0,0-14.592-2.688-18.936-15.525l-2.793-6.187c-3.615,2.076-3.348,7.935-5.133,11.232
            c2.143,4.378,8.012,10.188,15.242,16.023c10.744,8.672,28.453-1.139,33.271-4.097L101.325,127.454z" data-fill="skin-color_base"></path>
    </g>
    <g id="mhd1" xmlns="http://www.w3.org/2000/svg" class="avatar-head">
        <g display="inline">
            <path id="fillSkinColorBase" fill="#F9D7B9" d="M138.729,50.321c1.736,9.145,2.48,18.673,0.916,27.808
                c-1.514,8.824-5.057,17.107-12.994,21.944c-5.176,3.15-11.896,4.342-17.912,4.321C64.23,104.27,76.953,49.991,76.953,49.991
                s3.088-21.571,31.785-22.008c12.228-0.184,26.063,4.592,29.056,17.827C138.126,47.303,138.441,48.807,138.729,50.321z" data-fill="skin-color_base"></path>
            <path id="fillSkinColorBase_1_" fill="#F9D7B9" d="M140.958,64.801c-0.198-0.181-0.42-0.411-0.649-0.665
                c0.028,5.719-0.617,11.534-1.646,17.253C151.926,73.358,140.958,64.801,140.958,64.801z" data-fill="skin-color_base"></path>
            <path id="fillSkinColorBase_2_" fill="#F9D7B9" d="M75.176,64.801c0.199-0.181,0.42-0.411,0.65-0.665
                c-0.029,5.719,0.618,11.534,1.654,17.253C64.208,73.358,75.176,64.801,75.176,64.801z" data-fill="skin-color_base"></path>
        </g>
    </g>
    <g id="mlo1" xmlns="http://www.w3.org/2000/svg" class="avatar-clothes-lower">
        <path id="fillClothesLowerColorBase_1_" display="inline" fill="#54667B" d="M125.805,180.004c-0.207-5.17-0.479-8.48-0.479-9.521
            c-0.564,0.021-10.563,1.892-18.405,1.285c-0.021-0.002-0.062-0.004-0.071-0.006c-0.021,0-0.052-0.013-0.063-0.013
            c-8.186-0.463-17.313-0.946-17.982-1.063c-0.408,0.729-0.412,2-1.519,7.39c-0.565,5.021-1.31,9.93-1.517,15.307
            c0.006,0.019,0.017,0.021,0.024,0.039c-1.586,24.146-4.488,74.771-4.489,74.771c2.537,3.439,11.381,2.73,11.381,2.73
            c3.357-15.146,8.889-57.521,12.041-72.295c0.738,0.085,1.467,0.13,2.215,0.076c0.229-0.021,0.455-0.033,0.686-0.059
            c4.693,23.418,1.922,72.166,1.922,72.166c3.021,3.021,11.604,1.514,11.604,1.514c2.953-17.428,4.938-69.771,4.711-78.983
            c0.021-0.028,0.039-0.063,0.059-0.097C126.012,188.141,126.012,184.486,125.805,180.004z" data-fill="clothes-lower-color_base"></path>
        <path id="fillClothesLowerColorShade" display="inline" fill="#4D5E71" d="M125.85,185.922c-0.007-2.191,0.063-3.598-0.045-5.918
            c-0.207-5.17-0.479-8.48-0.479-9.521c-0.564,0.021-10.563,1.892-18.405,1.285l0,0c-0.021-0.002-0.062-0.004-0.071-0.006
            c-0.021,0-0.052-0.013-0.063-0.013l0,0c-8.186-0.463-17.313-0.946-17.982-1.063c-0.408,0.729-0.412,2-1.519,7.39
            c-0.261,2.313-0.558,4.606-0.824,6.938C98.377,191.119,110.732,191.25,125.85,185.922z M125.85,185.922
            c-0.007-2.191,0.063-3.598-0.045-5.918c-0.207-5.17-0.479-8.48-0.479-9.521c-0.564,0.021-10.563,1.892-18.405,1.285l0,0
            c-0.021-0.002-0.062-0.004-0.071-0.006c-0.021,0-0.052-0.013-0.063-0.013l0,0c-8.186-0.463-17.313-0.946-17.982-1.063
            c-0.408,0.729-0.412,2-1.519,7.39c-0.261,2.313-0.558,4.606-0.824,6.938C98.377,191.119,110.732,191.25,125.85,185.922z
            M116.148,234.941c-7.248-3.229-5.42-11.629-6.521-18.959c1.664,21.418-0.398,54.836-0.398,54.836
            c3.023,3.021,11.604,1.505,11.604,1.505c1.172-6.903,2.92-27.024,3.551-38.378C122.081,235.799,119.374,236.408,116.148,234.941z
            M87.434,232.941c-1.29-0.646-2.529-1.48-3.707-2.479c-0.838,16.729-2.447,37.728-2.447,37.728
            c2.537,3.438,11.381,2.729,11.381,2.729c2.36-10.646,6.38-39.938,9.021-55.938C99.791,224.695,95.042,236.323,87.434,232.941z" data-fill="clothes-lower-color_shade"></path>
    </g>
    <g id="mup1" xmlns="http://www.w3.org/2000/svg" class="avatar-clothes-upper">
        <path id="fillClothesUpperColorBase_18_" display="inline" fill="#C74541" d="M131.264,127.212
            c-0.916-6.972-3.509-9.593-3.509-9.593c-1.563-1.778-3.127-3.604-4.762-3.672c-5.476-0.238-1.992,20.097-1.021,23.752
            c0.17,0.633,0.479,1.778,0.719,3.315c2.916-0.206,7.476-1.649,10.091-2.864C132.316,132.98,131.527,129.218,131.264,127.212z" data-fill="clothes-upper-color_base"></path>
        <path id="fillClothesUpperColorBase_17_" display="inline" fill="#C74541" d="M101.325,127.454l-4.509-13.397l-7.67,0.007
            l-5.271,3.981c-0.132,0.104-4.757,3.846-9.387,6.115c0.43,3.347,3.77,7.93,6.044,10.168c4.462-1.712,8.062-3.146,9.884-4.271
            L101.325,127.454z" data-fill="clothes-upper-color_base"></path>
        <path id="fillClothesUpperColorShade_11_" display="inline" fill="#BD413D" d="M121.208,133.84
            c0.291,1.746,0.576,3.133,0.771,3.859c0.17,0.633,0.487,1.778,0.729,3.315c1.979-0.14,4.707-0.854,7.069-1.677
            C126.404,138.289,123.318,136.13,121.208,133.84z" data-fill="clothes-upper-color_shade"></path>
        <path id="fillClothesUpperColorShade_10_" display="inline" fill="#BD413D" d="M99.221,121.2
            c-5.518,5.475-13.27,9.482-21.054,10.383c0.813,1.076,1.648,2.032,2.375,2.747c4.462-1.712,8.056-3.146,9.884-4.271l10.898-2.604
            L99.221,121.2z" data-fill="clothes-upper-color_shade"></path>
        <path id="fillClothesUpperColorBase_16_" display="inline" fill="#C74541" d="M126.404,183.83
            c0.673-50.404-2.981-66.544-2.788-69.827c0,0-2.479-0.924-6.892-3.577c-0.44,3.063-0.938,11.875-10.115,11.396
            c-7.646-0.399-6.959-5.558-8.666-11.271c-3.631,1.502-7.772,2.907-8.748,3.611c0,0,0.679,42.727-3.69,68.602
            c0,0,2.267,1.245,2.249,1.297C96.036,189.9,118.673,188.285,126.404,183.83z" data-fill="clothes-upper-color_base"></path>
        <path id="fillClothesUpperColorShade_9_" display="inline" fill="#BD413D" d="M125.434,177.941c-8,2-16,2-23-1
            c-11.037-3.445-13.508-13.563-13.979-24.424c-0.542,10.459-1.448,21.354-2.95,30.246c0,0,2.267,1.232,2.249,1.297
            c8.282,5.84,30.92,4.229,38.65-0.229c0.029-2.185,0.05-4.271,0.063-6.324C126.122,177.652,125.779,177.803,125.434,177.941z" data-fill="clothes-upper-color_shade"></path>
    </g>
    <g id="msh1_x5F_tl" xmlns="http://www.w3.org/2000/svg" class="avatar-shoes">
        <path id="fillShoesColorBase_10_" display="inline" fill="#4F4E55" d="M121.896,267.172c0,0.248,14.604,6.688,14.604,6.688
            s2.229,2.854-0.688,3.229l-26.5-0.521v-6.428c0,0,4.062,0.908,6.312,0.309C117.887,269.82,121.896,267.172,121.896,267.172z" data-fill="shoes-color_base" class="tl"></path>
        <polyline id="fillShoesColorTint_2_" display="inline" fill="#8C898D" points="138.225,276.566 108.122,276.059 108.469,278.508 
            138.053,278.592 138.57,276.482  " data-fill="shoes-color_tint" class="tl"></polyline>
        <path id="fillShoesColorBase_11_" display="inline" fill="#4F4E55" d="M80.739,267.172c0,0.248-14.609,6.688-14.609,6.688
            s-2.232,2.854,0.682,3.229l26.502-0.521v-6.426c0,0-4.067,0.916-6.316,0.306C84.748,269.82,80.739,267.172,80.739,267.172z" data-fill="shoes-color_base" class="tl"></path>
        <polyline id="fillShoesColorTint_7_" display="inline" fill="#8C898D" points="64.409,276.566 94.512,276.059 94.166,278.508 
            64.581,278.592 64.063,276.482   " data-fill="shoes-color_tint" class="tl"></polyline>
    </g>
    <g id="mey1" xmlns="http://www.w3.org/2000/svg" class="avatar-eyes">
        <path display="inline" fill="#543318" d="M130.046,67.402c-0.004,2.751-1.978,4.979-4.405,4.979
            c-2.425-0.003-4.393-2.236-4.388-4.988c0.005-2.751,1.979-4.978,4.404-4.975C128.085,62.418,130.05,64.651,130.046,67.402z" data-fill="#543318"></path>
        <path display="inline" fill="#543318" d="M96.693,67.233c-0.004,2.751-1.979,4.979-4.405,4.979
            c-2.425-0.003-4.393-2.236-4.387-4.988c0.004-2.751,1.979-4.978,4.402-4.975C94.732,62.249,96.697,64.482,96.693,67.233z" data-fill="#543318"></path>
    </g>
    <g id="mmo1" xmlns="http://www.w3.org/2000/svg" class="avatar-mouth">
        <path display="inline" fill="none" stroke="#816951" stroke-width="2.0555" stroke-linecap="round" stroke-linejoin="round" stroke-miterlimit="10" d="
            M101.65,90.158c0,0,5.476,2.896,13.736-0.07" data-stroke="#816951"></path>
    </g>
    <g id="meb1" xmlns="http://www.w3.org/2000/svg" class="avatar-eyebrows">
        <path id="fillEyebrowColorBase_2_" display="inline" fill="#816951" d="M85.271,56.782c-0.291,0-0.58-0.122-0.783-0.36
            c-0.369-0.432-0.317-1.08,0.115-1.449c5.831-4.982,13.678-0.863,14.01-0.686c0.5,0.268,0.688,0.89,0.42,1.39
            s-0.889,0.689-1.389,0.422c-0.07-0.037-6.951-3.626-11.708,0.436C85.743,56.701,85.506,56.782,85.271,56.782z" data-fill="eyebrow-color_base"></path>
        <path id="fillEyebrowColorBase_3_" display="inline" fill="#816951" d="M132.247,56.6c-0.243,0-0.487-0.085-0.685-0.26
            c-4.688-4.168-11.623-0.708-11.692-0.671c-0.507,0.258-1.125,0.058-1.384-0.448c-0.258-0.506-0.057-1.125,0.447-1.383
            c0.336-0.171,8.269-4.127,13.991,0.966c0.429,0.377,0.466,1.027,0.089,1.451C132.813,56.483,132.529,56.6,132.247,56.6z" data-fill="eyebrow-color_base"></path>
    </g>
    <g id="mhf1" xmlns="http://www.w3.org/2000/svg" class="avatar-hair-front">
        <path id="fillHairColorBase_5_" display="inline" fill="#3D383A" d="M84.28,25.957c0.773-0.938,1.933-1.651,2.646-2.217
            c12.733-10.146,30.553-9.333,43.389,0.215c1.172,0.551,2.33,1.122,3.472,1.692c0.271,0.14,0.485,0.302,0.717,0.457
            c0.901,0.388,1.817,0.768,2.769,1.14c4.146,1.651,3.66,6.75,0.969,8.892c2.979,7.42,3.99,18,1.341,33.054l-0.062,0.454
            c0,0-0.688,2.193-0.951-0.798c-0.244-2.717-1.313-19.387-4.115-25.548c-0.498,0.672-1.201,1.255-2.217,1.646
            c-15.324,5.943-34.644,5.568-49.398-2.269c-1.846,1.649-3.674,3.479-4.406,7.838c-0.402,8.369,0.215,20.032-1.082,20.08
            c-0.467,0.021-1.818-6.389-2.529-14.719C73.946,45.968,74.971,33.408,84.28,25.957z" data-fill="hair-color_base"></path>
    </g>
</svg>