<svg version="1.1" id="Layer_1" xmlns="http://www.w3.org/2000/svg" xmlns:xlink="http://www.w3.org/1999/xlink" x="0px" y="0px" width="240px" height="319.333px" viewBox="0 0 240 319.333" enable-background="new 0 0 240 319.333" xml:space="preserve" class="parent">
    <g id="mbo1" xmlns="http://www.w3.org/2000/svg">
        <path id="fillSkinColorShade_3_" fill="#F9D7B9" d="M127.566,127.52l-14.479-4.838l-0.59-6.291l-12.607,0.944l1.191,7.474
            l-11.875,8.265c0,0,2.512,19.419,20.703,16.536C127.594,146.807,129.996,141.07,127.566,127.52z" data-fill="skin-color_shade"></path>
        <path id="fillSkinColorShade_2_" fill="#E3C5AB" d="M112.821,119.686l-0.313-3.295L99.9,117.335l0.474,2.966
            C104.707,120.868,109.223,121.178,112.821,119.686z" data-fill="skin-color_shade"></path>
        <path id="fillSkinColorShade_1_" fill="#F9D7B9" d="M137.121,193.083c-0.207-5.17-1.154-8.562-1.152-9.603
            c-0.572,0.024-9.894,1.97-17.742,1.369l0,0c-0.025-0.002-0.049-0.005-0.074-0.005c-0.023-0.002-0.049-0.004-0.072-0.006l0,0
            c-8.179-0.463-17.312-0.953-17.986-1.065c-0.409,0.733-0.414,1.998-1.517,7.377c-0.565,5.029-1.31,9.933-1.517,15.31
            c1.689,3.563,9.969,4.416,12.895,4.522c3.604,0.138,5.803,0.978,8.275,0.8c2.523-0.148,4.697-0.658,8.074-0.787
            c2.656-0.104,9.521-1.459,10.887-4.675C137.328,201.217,137.328,197.564,137.121,193.083z" data-fill="skin-color_shade"></path>
        <path id="fillSkinColorShade" fill="#F9D7B9" d="M117.926,207.592l19.195-1.737c0.336,7.394-3.008,61.683-5.371,79.562
            c0,0-0.738,2.438-0.137,4.197c0.863,2.516,3.134,4.668,2.878,5.018c-1.742,2.396-11.612,3.721-13.942,1.396
            C120.549,296.016,123.975,228.763,117.926,207.592z" data-fill="skin-color_shade"></path>
        <path id="fillSkinColorBase_10_" fill="#F9D7B9" d="M97.266,204.314l19.755,3.81c-2.764,7.324-12.934,62.676-16.99,84.146
            c-0.318,1.688,0.268,2.813,0.333,4.384c0,0-10.072,0.822-12.53-2.676c0,0,2.135-1.535,2.305-3.646
            C91.241,276.647,95.478,224.254,97.266,204.314z" data-fill="skin-color_base"></path>
        <path id="_x3C_Path_x3E_" fill="#65534E" d="M111.133,153.555c0,0-32.358,48.279-32.742,63.984c0,0-5.811-1.359-8.641-6.369
            l31.566-68.9L111.133,153.555z"></path>
        <path id="fillSkinColorBase_8_" fill="#F9D7B9" d="M129.816,129.02l21.25,30.416c0,0,19.822,13.344,21.396,12.341
            c0.078-0.05-2.188,5.759-8.146,5.493c-8.918-4.375-16.947-8.531-20.985-11.381c-5.886-7.043-17.037-25.875-17.037-25.875
            s-3.476-4.243-0.976-7.993S129.816,129.02,129.816,129.02z" data-fill="skin-color_base"></path>
        <path id="fillSkinColorBase_6_" fill="#F9D7B9" d="M136.566,192.769c-3.287-22.687-5.15-39.753-7.883-50.408
            c2.133-3.842,1.883-3.842,2.549-7.104c1.334-3.488-0.367-4.455-0.729-7.012c0,0-9.646-2.796-14.418-4.725
            c-0.226,3.847-5.769,11.998-5.769,11.998s-7.651-4.074-11.706-8.355c-4.088,1.756-9.389,7.589-10.434,8.346
            c0,0,13.39,35.259,8.945,63.58c0,0,2.446,0.234,2.438,0.287C108.654,203.847,129.629,198.377,136.566,192.769z" data-fill="skin-color_base"></path>
        <g id="fillSkinColorBase_12_" data-fill="skin-color_base">
            <path id="fillSkinColorBase_37_" fill="#FAD9BC" d="M109.715,205.027c-2.939-1.188-1.903-0.776-4.594-2.407
                c-0.115,0.014-0.24,0.004-0.369-0.068c-0.346-0.188-1.11,0.146-1.436-0.09c-0.823,0.688-1.256,0.772-2.208,1.313
                c0.05,0.035,0.097,0.08,0.147,0.115c0.123,0.088,0.256,0.108,0.379,0.092c0.082,0.147,0.244,0.25,0.418,0.271
                c0.091,0.082,0.19,0.158,0.312,0.229c3.231,1.771,2.529,1.819,5.966,3.213C110.105,208.409,111.512,205.752,109.715,205.027z" data-fill="skin-color_base"></path>
            <path id="fillSkinColorBase_36_" fill="#FAD9BC" d="M116.246,198.834c-4.326,0-9.133,0.22-13.359-0.783
                c-0.235,0.968-0.596,1.896-1.019,2.8c0.13,0.043,0.257,0.088,0.384,0.137l0.002-0.002c4.474,1.067,9.496,1.195,14.069,1.197
                C118.262,202.183,118.176,198.836,116.246,198.834z" data-fill="skin-color_base"></path>
            <path id="fillSkinColorBase_35_" fill="#FAD9BC" d="M107.892,198.163c-0.019-0.004-0.035-0.009-0.054-0.013
                c0.004-0.364-0.006-0.733-0.026-1.101c0.103,0.002,0.205-0.004,0.308-0.004c0.159-0.971,0.219-1.967,0.176-2.979
                c-0.459,0.002-0.916-0.002-1.375-0.019c-0.263-0.491-0.427-1.021-0.359-1.61c0.053-0.478,0.242-0.938,0.456-1.392
                c0.26-0.069,0.521-0.146,0.78-0.213c0.055-0.021-0.811-2.326-0.891-2.529c-0.176-0.45-1.196-0.146-1.539-0.1
                c-0.361,0.051-0.721,0.104-1.081,0.164c-0.725,0.107-1.447,0.264-2.152,0.471c-0.502,0.146-1.021,0.238-1.527,0.369
                c-0.946,0.242-1.884,0.517-2.805,0.842c-0.51,0.179-1.015,0.371-1.512,0.584c-0.229,0.098-0.41,0.229-0.553,0.387
                c-0.633,0.264-0.902,0.805-0.885,1.354c-1.266,1.744-1.215,4.039-1.426,6.117c-0.01,0.092,0.008,0.17,0.035,0.241
                c-0.095,0.179-0.088,0.396,0.119,0.558c0.169,0.133,0.123,0.526,0.294,0.658c0.258,0.199,6.969,4.266,9.977,5.438
                C106.036,203.17,107.18,201.066,107.892,198.163z" data-fill="skin-color_base"></path>
            <path id="fillSkinColorBase_34_" fill="#FAD9BC" d="M112.275,190.159c-0.293,0.026-0.068,0.049-0.311-0.058
                c-0.012-0.004-0.309-0.231-0.403-0.313c-0.307-0.269-0.587-0.562-0.882-0.847c-0.342-0.328-0.723-0.64-1.187-0.767
                c-0.714-0.193-1.543-0.108-2.279-0.135c-0.483-0.021-1.011,0.119-1.346,0.479c-0.323,0.354-0.382,0.874-0.781,1.176
                c-0.563,0.422-1.278,0.611-1.747,1.157c-1.262,1.478,1.097,3.317,2.354,1.854c0.121-0.146,0.14-0.156,0.052-0.063
                c-0.008,0.006,0.422-0.265,0.217-0.147c0.499-0.248,1.06-0.375,1.606-0.474c0.538-0.099,1.093-0.136,1.527-0.5
                c1.01,0.921,1.957,1.739,3.496,1.604C114.521,192.961,114.198,189.98,112.275,190.159z" data-fill="skin-color_base"></path>
            <path id="fillSkinColorBase_7_" fill="#FAD9BC" d="M113.291,193.176c-2.63,0.138-4.762,0.339-7.397,0.384
                c-1.938,0.034-1.171,3.967,0.762,3.933c2.638-0.048,4.226-0.545,6.745-1.246C115.467,195.668,115.223,193.079,113.291,193.176z" data-fill="skin-color_base"></path>
        </g>
        <path id="fillSkinColorBase_11_" fill="#F9D7B9" d="M93.817,137.02c-1.562-1.438-2.876-2.566-5.5-1.668
            c-2.243,0.5-22.002,29.104-21.954,31.031c0.048,1.928,27.467,33.59,27.467,33.59c8.233-1.355,4.358-8.428,4.358-8.428
            c-8.921-7.287-19.371-25.527-19.371-25.527s14.506-17.142,15.834-19.998C98.1,140.396,95.381,138.457,93.817,137.02z" data-fill="skin-color_base"></path>
    </g>
    <g id="msh1_x5F_bl" xmlns="http://www.w3.org/2000/svg" class="avatar-shoes">
        <path id="fillShoesColorBase_15_" fill="#4F4E55" d="M132.564,289.292c0,0.248,14.604,6.688,14.604,6.688s2.229,2.853-0.688,3.222
            l-26.5-0.523v-6.424c0,0,4.073,0.916,6.323,0.313C128.557,291.939,132.564,289.292,132.564,289.292z" data-fill="shoes-color_base"></path>
        <polyline id="fillShoesColorTint_1_" fill="#8C898D" points="148.895,298.685 118.791,298.176 119.139,300.625 148.723,300.709 
            149.24,298.601  " data-fill="shoes-color_tint"></polyline>
        <path id="fillShoesColorBase_14_" fill="#4F4E55" d="M89.278,289.226c0,0.248-14.608,6.688-14.608,6.688s-2.232,2.851,0.682,3.219
            l26.503-0.522v-6.424c0,0-4.069,0.916-6.317,0.304C93.289,291.875,89.278,289.226,89.278,289.226z" data-fill="shoes-color_base"></path>
        <polyline id="fillShoesColorTint" fill="#8C898D" points="72.948,298.622 103.051,298.114 102.707,300.562 73.121,300.646 
            72.603,298.538  " data-fill="shoes-color_tint"></polyline>
    </g>
    <g id="mlo1" xmlns="http://www.w3.org/2000/svg" class="avatar-clothes-lower">
        <path id="fillClothesLowerColorBase_1_" display="inline" fill="#54667B" d="M121.191,235.075
            c0.217,5.43,0.301,11.038,0.301,16.473c0,18.666-0.992,35.244-0.992,35.244c3.025,3.024,11.875,0.25,11.875,0.25
            c1.249-7.354,2.334-21.226,3.152-35.494c0.229-4.004,0.438-8.039,0.623-11.971c0.158-3.347,0.3-6.615,0.422-9.729
            c0.439-11.063,0.648-20.118,0.566-23.436c0.016-0.033,0.036-0.063,0.053-0.1c0.099-3.648,0.123-6.564,0.055-9.57
            c0.001,0,0.001,0,0.001,0c-0.001-0.025-0.002-0.056-0.002-0.078c-0.013-0.525-0.026-1.058-0.045-1.59
            c-0.003-0.061-0.005-0.113-0.007-0.173c-0.021-0.596-0.045-1.196-0.072-1.819c-0.207-5.17-1.154-8.563-1.152-9.604
            c-0.572,0.022-9.894,1.972-17.742,1.369c-0.025-0.003-0.049-0.007-0.074-0.007c-0.023-0.002-0.049-0.004-0.072-0.006
            c-8.179-0.463-18.838-0.959-19.512-1.069c-0.41,0.733-0.396,3.12-1.5,8.5c-0.082,0.731-0.13,1.438-0.163,2.124
            c-0.011,0.222-0.015,0.438-0.021,0.652c-0.014,0.475-0.022,0.938-0.021,1.398c0.001,0.236,0.002,0.479,0.006,0.714
            c0.008,0.45,0.02,0.897,0.036,1.349c0.03,0.842,0.067,1.685,0.104,2.543l0,0c0.072,1.685,0.126,3.438,0.051,5.408
            c0.003,0.006,0.009,0.012,0.012,0.021c-0.552,6.21-1.27,14.479-2.033,23.368c-0.294,3.432-0.596,6.947-0.897,10.48
            c-0.321,3.768-0.643,7.54-0.956,11.223c-1.616,19.016-3.003,35.535-3.003,35.535c2.458,3.498,10.697,2.125,10.697,2.125
            c1.829-7.44,4.591-22.478,7.367-37.66c1.085-5.938,2.173-11.9,3.208-17.441c0.271-1.452,0.538-2.871,0.8-4.257
            c1.44-7.601,2.742-14.091,3.74-18.146c0.75,0.086,1.481,0.131,2.235,0.073c0.227-0.015,0.449-0.03,0.671-0.051
            c0.994,5.043,1.636,11.339,2.034,18.123c0.104,1.716,0.188,3.461,0.258,5.229" data-fill="clothes-lower-color_base"></path>
        <path id="fillClothesLowerColorShade" display="inline" fill="#4D5E71" d="M137.247,196.743c-0.026-1.188-0.067-2.391-0.126-3.66
            c-0.207-5.17-1.154-8.562-1.152-9.603c-0.572,0.024-9.894,1.97-17.742,1.369c-0.025-0.002-0.049-0.005-0.074-0.005
            c-0.023-0.002-0.049-0.004-0.072-0.006c-8.179-0.463-18.838-0.959-19.512-1.071c-0.41,0.735-0.396,3.121-1.5,8.5
            c-0.357,3.187-0.183,5.874-0.059,8.782C110.514,205.75,124.922,204.883,137.247,196.743z M126.5,244.167
            c-3.686-2.211-4.652-5.508-5.309-9.092c0.963,24.086-0.691,51.717-0.691,51.717c3.025,3.024,11.875,0.25,11.875,0.25
            c1.6-9.42,2.93-29.521,3.775-47.465C134.54,243.653,132.074,246.396,126.5,244.167z M97.5,245.167
            c-1.574-0.521-2.595-2.432-3.357-4.842c-1.982,23.221-3.959,46.758-3.959,46.758c2.458,3.498,10.697,2.125,10.697,2.125
            c2.544-10.354,6.895-35.396,10.574-55.104C108.427,241.685,103.668,248.592,97.5,245.167z" data-fill="clothes-lower-color_shade"></path>
    </g>
    <g id="mup1" xmlns="http://www.w3.org/2000/svg" class="avatar-clothes-upper">
        <path id="fillSkinColorShade_4_" fill="#E3C5AB" d="M134.305,152.967c-0.195-0.305-0.39-0.608-0.582-0.911
            c2.139-0.911,5.959-3.324,8.223-5.688l0.496,0.709C140.309,149.971,137.557,152.315,134.305,152.967z M86.443,156.846
            c0.217-0.267,0.436-0.534,0.653-0.802c-2.655-1.119-6.924-4.514-9.647-7.073c-0.226,0.32-0.452,0.639-0.677,0.96
            C79.338,153.159,82.688,155.372,86.443,156.846z" data-fill="skin-color_shade"></path>
        <path id="fillClothesUpperColorBase_2_" fill="#D6453F" d="M143.18,144.831l-12.66-16.546c-0.008-0.014-0.014-0.027-0.021-0.041
            c-0.006-0.002-0.011-0.003-0.017-0.005l-0.076-0.1l-0.018,0.069c-9.433-3.125-9.47-3.136-14.24-5.065
            c0.81,4.162-0.966,9.148-6.654,9.898c-5.304,0.699-10.125-2.938-11.744-7.057c-4.04,1.736-10.257,6.123-11.409,6.958l-0.039,0.013
            l-10.99,13.815c1.878,2.354,9.399,8.804,12.647,9.582l3.124-3.557c2.96,13.727,6.171,32.022,6.028,46.29
            c0,0,2.446,0.229,2.438,0.287c9.099,4.479,31.66,0.146,38.597-5.47c-2.655-18.344-5.422-33.751-7.826-44.612
            c0.568,0.935,1.219,1.968,1.979,3.14C133.508,152.684,141.02,148.288,143.18,144.831z" data-fill="clothes-upper-color_base"></path>
        <path id="fillClothesUpperColorShade_1_" fill="#B03833" d="M135.295,151.248c-0.025,0.013-0.055,0.047-0.08,0.067
            c-1.387,0.753-2.512,1.201-2.916,1.115c-0.732-1.125-1.354-2.115-1.904-3.02c-0.377-2.117-0.863-5.056-1.168-6.667
            C130.668,145.984,132.525,148.694,135.295,151.248z M137.578,190.045c-7.553,7.832-17.257,6.555-26.31,1.229
            c-7.849-4.62-10.343-11.979-11.305-15.078c-1.009-3.254-3.049-12.21-4.007-17.157c-1.355-6.994-1.22-9.556-2.697-13.262
            c-0.525-1.319-0.833-1.471-1.446-2.111c-0.258,0.91-0.564,1.71-0.888,2.463c-0.309,0.718-0.632,1.39-0.968,2.027
            c-0.159,0.303-0.324,0.602-0.479,0.898c-1.044,1.985-2.226,3.541-4.488,5.871c1.146,0.714,2.184,1.239,2.97,1.427l3.124-3.557
            c0.623,2.89,1.256,5.991,1.868,9.206c1.132,5.949,2.183,12.312,2.948,18.586c0.785,6.442,1.27,12.793,1.212,18.498
            c0,0,2.446,0.229,2.438,0.287c9.099,4.479,31.66,0.146,38.595-5.47C137.957,192.6,137.768,191.318,137.578,190.045z" data-fill="clothes-upper-color_shade"></path>
    </g>
    <g id="mgtr1" xmlns="http://www.w3.org/2000/svg" class="avatar-instrument">
        <path id="fillSkinColorBase_33_" display="inline" fill="#FAD9BC" d="M175.368,168.784c-0.556-0.646-1.293-0.972-2.114-1.101
            c-0.136-0.043-0.27-0.091-0.408-0.119c-0.307-0.237-0.717-0.362-1.242-0.28c-0.229,0.039-0.471,0.09-0.701,0.141
            c-1.924-0.127-4.004,0.443-5.354,1.711c-0.041,0.039-0.063,0.102-0.104,0.143c-1.041,0.313-2.068,0.729-2.859,1.455
            c-0.797,0.729-0.982,1.65-0.744,2.521c-0.137,0.479-0.299,1.348-0.08,1.896c1.07,2.688,5.238,2.962,7.82,2.106
            c1.322-0.271,3.021-1.475,3.938-2.043C175.814,173.963,177.455,171.211,175.368,168.784z" data-fill="skin-color_base"></path>
        <g display="inline">
            <path fill="#908678" d="M87.361,216.779c0,0,1.764-0.204,2.438,0.662l-2.056,6.517c0,0-1.882,0.662-2.403-0.906L87.361,216.779z" data-fill="#908678"></path>
            <path fill="#908678" d="M87.361,216.779c0,0,1.764-0.204,2.438,0.662l-2.056,6.517c0,0-1.882,0.662-2.403-0.906L87.361,216.779z" data-fill="#908678"></path>
            <path fill="#65534E" d="M120.816,123.018c0,0,3.771,26.321,3.295,42.438c0,0-0.707,5.53,3.361,1.463l1.711-41.438L120.816,123.018
                z" data-fill="#65534E"></path>
            <path id="fillGuitarColorBase" fill="#A39161" d="M71.644,210.469c0,0,6.808,20.482,21.418,16.619c0,0,6.385-1.521,12.929-10.313
                c0,0,3.365-6.938,11.477-6.187c0,0,16.354-0.635,14.035-8.18c0,0,0.013-1.814-3.407-1.099c-3.416,0.729-8.558,0.688-9.048-7.396
                l4.483-11.188c0,0-4.116,1.313-5.056-3.81c-0.939-5.117,4.066-7.528,6.324-8.979c2.258-1.441,1.852-2.646,0.293-3.322
                c-1.558-0.682-7.281-4.729-21.143,9.326c0,0-2.382,4.826-15.665,4.896c0,0-7.878-0.854-13.53,2.27
                C69.098,186.249,65.554,194.929,71.644,210.469z" data-fill="guitar-color_base"></path>
            <path fill="#F1F3F5" d="M91.609,208.163c0,0,2.689,4.369,1.797,8.299c-0.892,3.938-1.947,6.57-0.102,7.854
                c1.848,1.271,6.353-3.496,6.353-3.496s5.104-5.521,6.378-7.271c1.271-1.752,5.501-4.85,10.812-4.534
                c5.309,0.313,11.499-1.367,12.469-4.813c0,0,0-0.521-2.254,0.313c-2.25,0.834-10.792,1.28-10.758-9.207
                c-0.035-0.073-0.092-0.101-0.092-0.101l-0.455-9.377c0,0,0.008-3.291-0.94-3.521c0,0-0.229-1.021-3.478,1.857
                c0,0-4.967,3.338-7.356,3.771c-2.389,0.431-9.66,0.858-9.66,0.858s-7.269,0.854-8.405,5.697c0,0-0.322,1.463,0.584,3.354" data-fill="#F1F3F5"></path>
            <path fill="#B59F7E" d="M112.344,187.728c0.067,0.642,0.24,1.349,0.449,2.006c0.209,0.666,0.471,1.32,0.769,1.957
                c0.6,1.272,1.356,2.476,2.228,3.586l-0.604-0.146l38.142-17.868l19.07-8.937l9.535-4.479c0.812-0.354,1.545-0.771,2.438-1.104
                c0.871-0.312,1.797-0.507,2.754-0.492c0.953,0.021,1.951,0.283,2.758,0.869c0.354,0.254,0.703,0.5,1.063,0.729
                c0.186,0.104,0.354,0.229,0.527,0.312c0.084,0.043,0.17,0.082,0.223,0.104c0.021,0.012,0.063-0.011-0.064,0.008
                c-0.063-0.019-0.313,0.125-0.337,0.312c-0.022,0.16-0.017,0.187,0.021,0.25l-0.146-0.42l0.329-0.207l0.007-0.004
                c3.431-2.17,6.873-4.333,10.246-6.562c0.205-0.139,0.424-0.285,0.603-0.418l0.104-0.076c0.021-0.014,0.03-0.033,0.147-0.086
                c0.199-0.082,0.313-0.068,0.438-0.064c0.231,0.027,0.39,0.1,0.521,0.162c0.521,0.266,0.9,0.531,1.338,0.73
                c0.846,0.414,1.744,0.543,2.639,0.326c0.859-0.229,1.82-0.662,2.543-1.205c0.729-0.559,1.229-1.326,1.354-2.212l0.521,0.076
                c0.048,1.046-0.521,2.113-1.35,2.82c-0.854,0.686-1.771,1.168-2.854,1.457c-1.082,0.283-2.297,0.111-3.271-0.371
                c-0.481-0.225-0.955-0.533-1.338-0.719c-0.09-0.043-0.188-0.07-0.188-0.068c0.006-0.002-0.021,0.012,0.063-0.018
                c0.058-0.035,0.021-0.02-0.021,0.006L202.986,158c0.082-0.062,0.009-0.004,0.021-0.012l-0.049,0.039
                c-0.229,0.176-0.435,0.312-0.646,0.459c-1.692,1.146-3.396,2.248-5.104,3.354c-1.701,1.111-3.451,2.144-5.179,3.214l-0.01,0.004
                l0.188-0.627c0.047,0.125,0.078,0.196,0.037,0.411c-0.043,0.246-0.352,0.421-0.455,0.414c-0.236,0.027-0.307-0.021-0.396-0.036
                c-0.156-0.052-0.271-0.104-0.381-0.162c-0.227-0.113-0.416-0.231-0.609-0.354c-0.383-0.242-0.752-0.504-1.104-0.761
                c-0.621-0.448-1.396-0.668-2.188-0.683c-0.801-0.012-1.614,0.158-2.396,0.438c-0.754,0.274-1.563,0.717-2.354,1.065l-9.531,4.469
                l-19.07,8.937l-38.142,17.869l-0.36,0.17l-0.246-0.312c-0.912-1.166-1.711-2.433-2.346-3.772
                c-0.314-0.679-0.593-1.369-0.818-2.082c-0.224-0.726-0.405-1.433-0.491-2.229L112.344,187.728z" data-fill="#B59F7E"></path>
            <path fill="#DABF96" d="M111.846,187.767c0,0,0.261,3.627,3.551,7.817l68.265-31.981c0,0,3.46-1.851,5.938-0.062
                c2.479,1.789,2.162,1.098,2.162,1.098s10.243-6.455,10.942-7.051c0.698-0.596,2.353,2.123,5.56,0.939
                c1.784-0.654,3.377-1.686,3.668-3.647c0.729-4.894-4.104-4.528-7.449-4.062c-7.043,0.979-21.81,2.973-21.81,2.973l-0.67,2.8
                c0,0-0.53,0.656-2.717,1.65C176.65,159.437,176.691,159.412,111.846,187.767z" data-fill="#DABF96"></path>
            <path fill="#AAABAD" d="M186.418,153.872c0.676,0,1.223,0.547,1.223,1.223c0,0.675-0.547,1.223-1.223,1.223
                s-1.223-0.547-1.223-1.223C185.195,154.419,185.742,153.872,186.418,153.872z M190.563,153.303c0.674,0,1.229,0.547,1.229,1.222
                c0,0.675-0.555,1.222-1.229,1.222c-0.676,0-1.229-0.547-1.229-1.222C189.339,153.85,189.887,153.303,190.563,153.303z
                M194.488,152.799c0.676,0,1.223,0.548,1.223,1.223c0,0.675-0.547,1.223-1.223,1.223s-1.223-0.548-1.223-1.223
                C193.266,153.347,193.813,152.799,194.488,152.799z M198.635,152.226c0.678,0,1.225,0.548,1.225,1.225
                c0,0.676-0.547,1.225-1.225,1.225c-0.676,0-1.225-0.548-1.225-1.225C197.41,152.774,197.959,152.226,198.635,152.226z
                M202.643,151.625c0.676,0,1.229,0.548,1.229,1.224c0,0.676-0.554,1.224-1.229,1.224c-0.674,0-1.224-0.548-1.224-1.224
                C201.419,152.173,201.967,151.625,202.643,151.625z M206.672,151.077c0.676,0,1.223,0.547,1.223,1.223
                c0,0.676-0.547,1.223-1.223,1.223s-1.223-0.547-1.223-1.223C205.449,151.625,205.996,151.077,206.672,151.077z" data-fill="#AAABAD"></path>
            <path fill="#AAABAD" d="M186.083,150.325c0.782-0.113,1.491,0.308,1.583,0.94c0.093,0.633-0.467,1.238-1.25,1.352
                c-0.783,0.114-1.492-0.307-1.584-0.94C184.74,151.044,185.301,150.439,186.083,150.325z M186.184,152.135l0.33-0.048l0.176,1.206
                l-0.332,0.048L186.184,152.135z M190.105,149.735c0.783-0.113,1.492,0.308,1.584,0.941c0.092,0.633-0.479,1.237-1.254,1.351
                c-0.783,0.114-1.492-0.308-1.584-0.941C188.762,150.453,189.322,149.848,190.105,149.735z M190.213,151.589l0.336-0.049
                l0.178,1.208l-0.336,0.049L190.213,151.589z M195.721,150.094c0.094,0.633-0.469,1.238-1.252,1.354
                c-0.781,0.111-1.492-0.309-1.586-0.941c-0.09-0.633,0.469-1.238,1.254-1.354C194.92,149.04,195.629,149.46,195.721,150.094z
                M194.205,150.987l0.336-0.049l0.176,1.207l-0.336,0.049L194.205,150.987z M198.156,148.57c0.785-0.114,1.494,0.308,1.587,0.941
                c0.093,0.634-0.468,1.24-1.252,1.354c-0.784,0.114-1.493-0.308-1.587-0.941C196.813,149.29,197.373,148.684,198.156,148.57z
                M198.262,150.404l0.329-0.047l0.173,1.208l-0.33,0.047L198.262,150.404z M202.178,147.987c0.783-0.113,1.494,0.308,1.586,0.941
                c0.092,0.634-0.471,1.239-1.255,1.354c-0.784,0.114-1.495-0.308-1.587-0.941C200.83,148.707,201.393,148.101,202.178,147.987z
                M202.248,149.821l0.336-0.049l0.176,1.207l-0.336,0.049L202.248,149.821z M205.993,147.513c0.782-0.114,1.491,0.307,1.584,0.941
                c0.093,0.633-0.468,1.239-1.25,1.353c-0.782,0.114-1.491-0.307-1.584-0.94C204.65,148.232,205.211,147.627,205.993,147.513z
                M206.055,149.348l0.332-0.049l0.178,1.206l-0.332,0.05L206.055,149.348z" data-fill="#AAABAD"></path>
            <line id="nut" fill="none" stroke="#FFFFFF" stroke-width="0.8155" stroke-miterlimit="10" x1="180.881" y1="157.505" x2="183.652" y2="163.607"></line>
            <path fill="none" stroke="#8D8F92" stroke-width="0.4078" stroke-miterlimit="10" d="M175.064,160.148l2.771,6.103
                M169.65,162.515l2.877,6.444 M164.65,164.708l2.971,6.537 M160.121,166.611l2.885,6.733 M155.777,168.635l2.998,6.654
                M151.646,170.435l3.062,6.933 M147.764,172.092l3.129,6.828 M144.123,173.588l3.361,7.072 M140.875,175.144l3.227,7.101
                M137.736,176.478l3.188,7.256 M134.611,177.672l3.41,7.384 M120.371,184.12l3.449,7.596 M122.303,183.243l3.451,7.594
                M124.45,182.265l3.452,7.596 M126.709,181.241l3.451,7.594 M129.184,180.116l3.453,7.596 M131.854,178.902l3.451,7.599
                M114.881,186.482l3.471,7.642 M116.594,185.704l3.473,7.639 M118.31,184.922l3.52,7.75 M113.283,187.154l3.498,7.761" data-stroke="#8D8F92"></path>
            <path id="fretmarkers" fill="#777170" d="M168.639,166.504c0.242,0,0.438,0.197,0.438,0.438c0,0.242-0.196,0.438-0.438,0.438
                s-0.438-0.188-0.438-0.438C168.201,166.702,168.396,166.504,168.639,166.504z M159.422,170.625c0.242,0,0.439,0.197,0.439,0.438
                c0,0.242-0.197,0.438-0.439,0.438s-0.439-0.188-0.439-0.438C158.982,170.823,159.18,170.625,159.422,170.625z M151.295,174.292
                c0.242,0,0.439,0.197,0.439,0.439s-0.197,0.439-0.439,0.439s-0.439-0.197-0.439-0.439S151.053,174.292,151.295,174.292z
                M144.166,177.452c0.242,0,0.439,0.197,0.439,0.439s-0.197,0.439-0.439,0.439s-0.439-0.197-0.439-0.439
                S143.924,177.452,144.166,177.452z M135.746,183.243c0.242,0,0.438,0.196,0.438,0.438c0,0.241-0.195,0.438-0.438,0.438
                c-0.243,0-0.438-0.197-0.438-0.438C135.309,183.439,135.504,183.243,135.746,183.243z M134.217,180.165
                c0.242,0,0.439,0.197,0.439,0.439s-0.197,0.439-0.439,0.439s-0.439-0.197-0.439-0.439S133.975,180.165,134.217,180.165z
                M127.318,185.159c0.242,0,0.438,0.196,0.438,0.438c0,0.241-0.195,0.438-0.438,0.438c-0.243,0-0.438-0.197-0.438-0.438
                C126.88,185.355,127.076,185.159,127.318,185.159z M123.031,187.079c0.242,0,0.439,0.197,0.439,0.439s-0.197,0.439-0.439,0.439
                s-0.438-0.197-0.438-0.439S122.789,187.079,123.031,187.079z M119.018,188.902c0.243,0,0.44,0.197,0.44,0.44
                c0,0.242-0.197,0.439-0.44,0.439s-0.44-0.197-0.44-0.439C118.578,189.099,118.775,188.902,119.018,188.902z M115.695,190.413
                c0.242,0,0.438,0.196,0.438,0.438c0,0.241-0.196,0.438-0.438,0.438c-0.242,0-0.438-0.197-0.438-0.438
                C115.257,190.609,115.453,190.413,115.695,190.413z"></path>
            <g>
                <ellipse transform="matrix(-0.9103 0.4139 -0.4139 -0.9103 273.7011 370.8478)" fill="#CAC8BE" cx="96.678" cy="215.073" rx="2.01" ry="2.096" data-fill="#CAC8BE"></ellipse>
                <ellipse transform="matrix(-0.9102 0.4142 -0.4142 -0.9102 273.2279 383.376)" fill="#CAC8BE" cx="95.052" cy="221.309" rx="2.01" ry="2.096" data-fill="#CAC8BE"></ellipse>
                <ellipse transform="matrix(-0.9106 0.4133 -0.4133 -0.9106 273.6882 370.4896)" fill="#FFFFFF" cx="96.773" cy="214.846" rx="2.011" ry="2.096" data-fill="#FFFFFF"></ellipse>
                <ellipse transform="matrix(-0.9105 0.4135 -0.4135 -0.9105 272.8034 358.7441)" fill="#CAC8BE" cx="97.582" cy="208.892" rx="2.01" ry="2.097" data-fill="#CAC8BE"></ellipse>
                <ellipse transform="matrix(-0.9106 0.4133 -0.4133 -0.9106 272.8847 358.3372)" fill="#FFFFFF" cx="97.686" cy="208.683" rx="2.011" ry="2.096" data-fill="#FFFFFF"></ellipse>
                <ellipse transform="matrix(-0.9104 0.4137 -0.4137 -0.9104 273.2977 382.9568)" fill="#FFFFFF" cx="95.18" cy="221.073" rx="2.011" ry="2.096" data-fill="#FFFFFF"></ellipse>
            </g>
            <path fill="none" stroke="#FFFFFF" stroke-width="0.2039" stroke-miterlimit="10" d="M103.047,207.381" data-stroke="#FFFFFF"></path>
            <path fill="#CAC8BE" d="M82.629,199.98l4.789,9.711l0.233-0.104l0.74,1.215l3.129-1.27l-0.496-1.091c0,0,1.926-0.828,1.944-1.312
                c0.018-0.479-4.529-9.453-4.529-9.453s-0.329-0.414-0.913-0.146S82.629,199.98,82.629,199.98z M113.209,196.661
                c0.312,0.688,0.01,1.5-0.68,1.813l0,0c-0.688,0.313-1.5,0.008-1.812-0.683l-3.451-7.604c-0.312-0.688-0.008-1.5,0.682-1.812l0,0
                c0.688-0.313,1.498-0.008,1.811,0.686L113.209,196.661z M105.004,199.974c0.35,0.771,0.01,1.678-0.761,2.026l0,0
                c-0.771,0.351-1.679,0.01-2.028-0.771l-3.244-7.146c-0.35-0.771-0.01-1.678,0.762-2.021l0,0c0.77-0.354,1.677-0.011,2.025,0.769
                L105.004,199.974z M97.18,203.982c0.238,0.812-0.229,1.664-1.039,1.899l0,0c-0.812,0.238-1.662-0.229-1.9-1.039l-2.201-7.528
                c-0.238-0.812,0.228-1.662,1.038-1.899l0,0c0.812-0.229,1.662,0.229,1.9,1.041L97.18,203.982z M89.217,212.82
                c0,0-3.191-0.711-3.524,5.173c0,0-0.737,5.717,0.922,6.063C89.159,224.59,93.088,214.208,89.217,212.82z" data-fill="#CAC8BE"></path>
            <g id="trembar">
                <polyline fill="none" stroke="#E3E5E6" stroke-width="0.8155" stroke-linecap="round" stroke-linejoin="round" stroke-miterlimit="10" points="
                    88.066,209.894 100.549,213.265 102.993,213.275          " data-stroke="#E3E5E6"></polyline>
                <path fill="#FFFFFF" d="M107.889,213.271c-0.881,0.302-1.778,0.438-2.68,0.535c-0.451,0.043-0.902,0.069-1.357,0.062
                    c-0.456-0.01-0.912-0.021-1.374-0.109c-0.229-0.043-0.382-0.266-0.339-0.479c0.029-0.146,0.134-0.271,0.266-0.313
                    c0.439-0.17,0.887-0.271,1.332-0.354c0.447-0.095,0.896-0.146,1.348-0.188c0.903-0.063,1.812-0.094,2.732,0.047
                    c0.229,0.035,0.387,0.248,0.354,0.48C108.146,213.094,108.033,213.219,107.889,213.271z" data-fill="#FFFFFF"></path>
            </g>
        </g>
        <path id="fillSkinColorBase_32_" display="inline" fill="#FAD9BC" d="M176.551,162.745c-1.715-1.685-4.354,0.942-2.641,2.623
            c1.482,1.455,0.91,2.928-0.455,4.235c-1.738,1.666,0.893,4.299,2.622,2.646C178.9,169.543,179.479,165.614,176.551,162.745z
            M166.561,167.941c-1.289-1.474-3.598,0.5-2.307,1.972c1.114,1.272,0.559,2.438-0.633,3.416c-1.516,1.246,0.461,3.549,1.969,2.313
            C168.053,173.616,168.762,170.456,166.561,167.941z M170.92,164.445c-1.781-1.612-4.313,1.115-2.535,2.728
            c1.539,1.396,1.025,2.896-0.287,4.25c-1.672,1.731,1.063,4.271,2.729,2.537C173.537,171.146,173.957,167.198,170.92,164.445z" data-fill="skin-color_base"></path>
        <path id="fillSkinColorBase_14_" display="inline" fill="#F9D7B9" d="M85.468,176.497c-2.887,0.805-5.606,1.94-7.384,4.963
            c7.471,8.938,15.758,18.508,15.758,18.508c0.179-0.023,6.589,4.146,10.022,5.412c0.01-0.01,0.019-0.021,0.029-0.025
            c1.594,0.969,1.693,1.229,4.449,2.34c1.775,0.719,3.182-1.938,1.385-2.667c-2.653-1.067-2.076-0.853-3.915-1.985
            c0.288-0.431,0.545-0.861,0.779-1.313c3.245,0.385,6.6,0.448,9.745,0.452c1.937,0.007,1.852-3.344-0.079-3.346
            c-2.734,0-5.66,0.086-8.51-0.104c0.052-0.188,0.107-0.373,0.156-0.566c-0.019-0.004-0.035-0.012-0.054-0.016
            c0.002-0.234-0.009-0.479-0.017-0.716c1.987-0.154,3.456-0.599,5.58-1.188c2.066-0.578,1.822-3.168-0.11-3.07
            c-2.351,0.123-4.321,0.291-6.591,0.359c-0.12-0.348-0.183-0.707-0.138-1.101c0.006-0.062,0.031-0.115,0.041-0.175
            c0.318-0.098,0.642-0.176,0.965-0.229c0.538-0.094,1.093-0.133,1.527-0.5c1.01,0.923,1.957,1.742,3.496,1.604
            c1.93-0.176,1.607-3.156-0.316-2.979c-0.293,0.026-0.068,0.052-0.311-0.058c-0.012-0.008-0.309-0.229-0.403-0.313
            c-0.307-0.271-0.587-0.564-0.882-0.851c-0.342-0.328-0.723-0.644-1.187-0.771c-0.714-0.189-1.543-0.104-2.279-0.137
            c-0.184-0.008-0.372,0.021-0.556,0.063c-0.375-0.111-1.028,0.066-1.289,0.104c-0.361,0.054-0.721,0.104-1.081,0.163
            c-0.725,0.118-1.447,0.268-2.152,0.475c-0.502,0.146-1.021,0.234-1.527,0.369c-0.946,0.237-1.884,0.518-2.805,0.842
            c-0.311,0.104-0.616,0.23-0.922,0.354c-3.838-3.519-7.846-8.747-11.109-13.463L85.468,176.497z" data-fill="skin-color_base"></path>
    </g>
    <g id="mhd1" xmlns="http://www.w3.org/2000/svg" class="avatar-head">
        <g id="fillSkinColorBase_52_" display="inline" data-fill="skin-color_base">
            <path id="fillSkinColorBase" fill="#F9D7B9" d="M135.971,64.781c1.736,9.146,2.48,18.676,0.914,27.811
                c-1.512,8.824-5.055,17.104-12.994,21.94c-5.175,3.151-11.907,4.346-17.911,4.322c-44.511-0.124-31.787-54.402-31.787-54.402
                s3.088-21.571,31.787-22.011c12.225-0.184,26.063,4.595,29.054,17.827C135.367,61.763,135.682,63.267,135.971,64.781z" data-fill="skin-color_base"></path>
            <path id="fillSkinColorBase_1_" fill="#F9D7B9" d="M138.273,79.211c-0.199-0.181-0.42-0.411-0.65-0.665
                c0.029,5.719-0.617,11.534-1.652,17.253C149.24,87.768,138.273,79.211,138.273,79.211z" data-fill="skin-color_base"></path>
            <path id="fillSkinColorBase_2_" fill="#F9D7B9" d="M72.491,79.211c0.198-0.181,0.42-0.411,0.649-0.665
                c-0.029,5.719,0.618,11.534,1.654,17.253C61.523,87.768,72.491,79.211,72.491,79.211z" data-fill="skin-color_base"></path>
        </g>
    </g>
    <g id="mey1" xmlns="http://www.w3.org/2000/svg" class="avatar-eyes">
        <path fill="#543318" d="M127.248,81.772c-0.004,2.751-1.977,4.979-4.406,4.979c-2.424-0.003-4.392-2.236-4.387-4.988
            c0.005-2.751,1.979-4.978,4.404-4.975C125.287,76.788,127.252,79.021,127.248,81.772z" data-fill="#543318"></path>
        <path fill="#543318" d="M93.896,81.603c-0.004,2.751-1.978,4.979-4.406,4.979c-2.424-0.003-4.393-2.236-4.387-4.988
            c0.004-2.751,1.979-4.978,4.403-4.975C91.935,76.619,93.9,78.852,93.896,81.603z" data-fill="#543318"></path>
    </g>
    <g id="mmo1" xmlns="http://www.w3.org/2000/svg" class="avatar-mouth">
        <path display="inline" fill="none" stroke="#816951" stroke-width="2.0555" stroke-linecap="round" stroke-linejoin="round" stroke-miterlimit="10" d="
            M98.853,104.528c0,0,5.475,2.896,13.737-0.07" data-stroke="#816951"></path>
    </g>
    <g id="meb1" xmlns="http://www.w3.org/2000/svg" class="avatar-eyebrows">
        <path id="fillEyebrowColorBase_2_" display="inline" fill="#816951" d="M82.472,71.152c-0.29,0-0.579-0.122-0.782-0.36
            c-0.369-0.432-0.318-1.08,0.114-1.449c5.831-4.982,13.679-0.863,14.011-0.686c0.5,0.268,0.687,0.89,0.42,1.39
            s-0.889,0.689-1.39,0.422c-0.069-0.037-6.951-3.626-11.706,0.438C82.946,71.071,82.708,71.152,82.472,71.152z" data-fill="eyebrow-color_base"></path>
        <path id="fillEyebrowColorBase_3_" display="inline" fill="#816951" d="M129.449,70.97c-0.243,0-0.487-0.085-0.684-0.26
            c-4.689-4.168-11.625-0.708-11.706-0.671c-0.506,0.258-1.125,0.058-1.383-0.448c-0.258-0.506-0.057-1.125,0.448-1.383
            c0.335-0.171,8.271-4.127,13.994,0.966c0.438,0.377,0.463,1.027,0.086,1.451C130.016,70.853,129.732,70.97,129.449,70.97z" data-fill="eyebrow-color_base"></path>
    </g>
    <g id="mhf1" xmlns="http://www.w3.org/2000/svg" class="avatar-hair-front">
        <path id="fillHairColorBase_5_" fill="#3D383A" d="M81.482,40.327c0.774-0.938,1.933-1.651,2.646-2.217
            c12.733-10.146,30.552-9.333,43.388,0.215c1.172,0.551,2.33,1.122,3.469,1.692c0.271,0.14,0.488,0.302,0.729,0.457
            c0.896,0.388,1.813,0.768,2.771,1.14c4.146,1.651,3.654,6.75,0.973,8.892c2.979,7.42,3.988,18,1.34,33.054l-0.063,0.454
            c0,0-0.688,2.193-0.95-0.798c-0.242-2.717-1.313-19.387-4.112-25.548c-0.498,0.672-1.197,1.255-2.22,1.646
            c-15.324,5.943-34.641,5.568-49.396-2.269c-1.845,1.649-3.674,3.479-4.406,7.838c-0.402,8.369,0.215,20.032-1.082,20.08
            c-0.467,0.021-1.818-6.389-2.529-14.719C71.148,60.338,72.173,47.778,81.482,40.327z" data-fill="hair-color_base"></path>
    </g>
</svg>