<svg version="1.1" id="Layer_1" xmlns="http://www.w3.org/2000/svg" xmlns:xlink="http://www.w3.org/1999/xlink" x="0px" y="0px" width="256.486px" height="271.486px" viewBox="0 0 256.486 271.486" enable-background="new 0 0 256.486 271.486" xml:space="preserve" class="parent">
    <g id="muchair11" xmlns="http://www.w3.org/2000/svg">
        <line fill="none" stroke="#4A4D4F" stroke-width="4" stroke-linecap="round" stroke-linejoin="round" stroke-miterlimit="10" x1="102.098" y1="206.836" x2="96.106" y2="248.241" data-stroke="#4A4D4F"></line>
        <line fill="none" stroke="#4A4D4F" stroke-width="4" stroke-linecap="round" stroke-linejoin="round" stroke-miterlimit="10" x1="150.041" y1="206.836" x2="156.033" y2="248.241" data-stroke="#4A4D4F"></line>
        <g>
            <path fill="none" stroke="#4A4D4F" stroke-width="3.7324" stroke-miterlimit="10" d="M96.284,204.01
                c0,0-28.53-72.062-4.677-73.145c23.716-1.075,38.229,0.098,38.229,0.098s8.085,0.313,7.276,19.73
                c-0.866,20.832,2.955,52.224,2.955,52.224L96.284,204.01z" data-stroke="#4A4D4F"></path>
            <path fill="#6A6C6E" d="M141.561,152.391c0-0.027,0.257-1.902,0.257-1.938c0.741-22.313-8.551-22.67-8.551-22.67
                s-16.688-1.341-43.942-0.117c-8.067,0.363-11.882,15.119-11.247,23.313C78.818,157.564,140.967,156.111,141.561,152.391z" data-fill="#6A6C6E"></path>
            <g>
                <g>
                    <rect x="94.798" y="200.281" fill="#4A4D4F" width="60.836" height="10.996" data-fill="#4A4D4F"></rect>
                </g>
                <g>
                    <rect x="94.798" y="200.281" fill="#6A6C6E" width="60.836" height="10.996" data-fill="#6A6C6E"></rect>
                </g>
            </g>
        </g>
    </g>
    <g id="must11" xmlns="http://www.w3.org/2000/svg">
        <g>
            <path id="fillSkinColorBase_24_" fill="#F9D7B9" d="M191.032,99.133c0,0-20.907,21.242-58.657,22.492l5.75,11.25
                c0,0,41.896-6.601,59.492-30.723C197.617,102.152,194.303,100.017,191.032,99.133z" data-fill="skin-color_base"></path>
            <g>
                <g>
                    <path id="fillSkinColorBase_27_" fill="#F9D7B9" d="M188.409,101.12c0.045-0.411,0.165-1.294,0.173-1.334
                        c0.002-0.021,0.01-0.045,0.009-0.07c0.184-0.977,0.997-4.438,1.069-4.61c0.492-1.188,1.988-4.75,1.455-3.575
                        c-0.312,0.676-0.084-0.327,1.313-2.013c0.464-0.559,1.003-1.352,1.729-1.604c0.509-0.183,1.074-0.165,1.563,0.042
                        c0.92,0.387,1.548,1.623,0.948,2.525c-0.508,0.761-0.86,1.646-1.465,2.349c-0.229,0.262,0.027,0.946,0.104,1.213
                        c0.104,0.435,0.229,0.825,0.603,1.122c0.317,0.253,0.729,0.396,1.11,0.534c1.585,0.588,3.338,0.367,5.004,0.184
                        c1.34-0.146,2.671-0.398,3.939-0.844c0.688-0.233,1.352-0.532,1.962-0.896c2.58-1.533,5.228,2.021,2.621,3.573
                        c-2.562,1.525-5.721,2.188-8.729,2.418c0.557,2.707,0.502,3.101,0.074,5.354c-0.246,1.293-0.278,1.139-1.325,2.799
                        c-4.075-0.563-10.448-1.521-11.229-2.589c-0.845-1.148-1.021-2.371-0.989-3.771C188.362,101.653,188.379,101.389,188.409,101.12
                        z" data-fill="skin-color_base"></path>
                    <path id="fillSkinColorBase_26_" fill="#F9D7B9" d="M201.815,100.542c2.813-0.062,5.67-0.057,8.396-0.896
                        c2.91-0.906,4.084,3.313,1.199,4.215c-3.104,0.969-6.396,1.006-9.604,1.082C198.765,105.007,198.785,100.614,201.815,100.542z" data-fill="skin-color_base"></path>
                    <path id="fillSkinColorBase_25_" fill="#F9D7B9" d="M198.387,105.021c0.776-0.729,1.854-0.582,2.648,0.013
                        c1.396,1.034,3.956,1.358,5.646,1.036c2.354-0.448,3.369,2.917,0.996,3.367c-3.146,0.602-6.771-0.074-9.309-1.95
                        C197.58,106.891,197.727,105.632,198.387,105.021z" data-fill="skin-color_base"></path>
                </g>
            </g>
        </g>
        <g>
            <path id="fillSkinColorBase_28_" fill="#E5C7AC" d="M190.636,108.55c0.855-0.67,1.718-1.347,2.549-2.05
                C192.176,106.77,191.307,107.384,190.636,108.55z" data-fill="skin-color_base"></path>
            <path id="fillSkinColorShade_10_" fill="#E5C7AC" d="M190.636,108.55c-0.232,0.413-0.45,0.896-0.643,1.45
                C190.186,109.442,190.399,108.962,190.636,108.55c-15.146,11.771-34.927,18.406-54.104,21.227l1.587,3.104
                c0,0,36.977-5.827,56.041-26.531c-0.34,0.021-0.668,0.072-0.979,0.156C192.354,107.203,191.498,107.88,190.636,108.55z" data-fill="skin-color_shade"></path>
            <g>
                <g>
                    <path id="fillSkinColorShade_13_" fill="#E5C7AC" d="M192.292,106.852c0.121,0.021,0.24,0.059,0.366,0.087
                        c0.172-0.146,0.339-0.291,0.51-0.438C192.864,106.587,192.57,106.699,192.292,106.852z" data-fill="skin-color_shade"></path>
                    <path id="fillSkinColorShade_11_" fill="#E5C7AC" d="M193.168,106.504c-0.171,0.146-0.338,0.292-0.51,0.438
                        c2.376,0.542,5.537,1.005,7.919,1.334c0.146-0.24,0.271-0.438,0.389-0.608C198.069,106.918,195.301,105.925,193.168,106.504z" data-fill="skin-color_shade"></path>
                    <path id="fillSkinColorShade_12_" fill="#E5C7AC" d="M197.928,106.852c0.085,0.244,0.229,0.468,0.447,0.636
                        c2.526,1.876,6.161,2.552,9.309,1.95c1.104-0.21,1.476-1.06,1.312-1.854C205.522,109.305,201.467,107.749,197.928,106.852z" data-fill="skin-color_shade"></path>
                </g>
            </g>
        </g>
        <path id="fillSkinColorBase_23_" fill="#F9D7B9" d="M131.311,121.437l-6.563-0.543l-0.424-6.729l-11.938,2.038l1.059,6.937
            l-8.873,5.857c0,0,1.654,19.736,19.334,15.318c9.938-2.481,13.714-5.231,14.341-9.649
            C137.196,129.857,134.438,125.249,131.311,121.437z" data-fill="skin-color_base"></path>
        <path id="fillSkinColorShade_9_" fill="#E1C3A9" d="M124.727,120.197l-0.336-5.327l-11.938,2.038l0.616,4.042
            C117.674,123.222,121.33,123.155,124.727,120.197z" data-fill="skin-color_shade"></path>
    </g>
    <g id="msh1_x5F_bl" xmlns="http://www.w3.org/2000/svg" class="avatar-shoes">
        <path fill="#D9D5E0" d="M169.636,232.518c-3.57,1.976-5.369,3.021-8.831,0.93l-0.063,10.209l-0.521,2.248
            c5.771,1.664,12.28-3.461,12.28-3.461l-2.715-0.512L169.636,232.518z" data-fill="#D9D5E0"></path>
        <path id="fillShoesColorBase_17_" fill="#4F4E55" d="M171.622,240.863c-0.015,0.241,14.563,6.096,14.563,6.096
            s1.413,3.337-1.434,3.547l-25.842-0.979l0.345-6.388c0,0,3.565,2.237,5.814,1.556C167.324,244.001,171.622,240.863,171.622,240.863
            z" data-fill="shoes-color_base"></path>
        <polyline fill="#8C898D" points="187.043,249.332 158.216,249.151 158.028,251.456 186.894,251.145 187.346,249.255    " data-fill="#8C898D"></polyline>
        <path fill="#D9D5E0" d="M139.272,234.615c-3.574,1.979-7.171,3.062-10.633,0.974l-0.063,10.209l-0.52,2.247
            c5.771,1.66,12.273-3.465,12.273-3.465l-2.064-0.854L139.272,234.615z" data-fill="#D9D5E0"></path>
        <path id="fillShoesColorBase_16_" fill="#4F4E55" d="M139.46,242.998c-0.014,0.236,14.563,6.103,14.563,6.103
            s1.413,3.336-1.43,3.546l-25.846-0.979l0.352-6.389c0,0,3.563,2.248,5.813,1.557C135.161,246.135,139.46,242.998,139.46,242.998z" data-fill="shoes-color_base"></path>
        <polyline fill="#8C898D" points="154.881,251.468 126.054,251.287 125.865,253.592 154.732,253.281 155.184,251.39     " data-fill="#8C898D"></polyline>
    </g>
    <g id="mlo1" xmlns="http://www.w3.org/2000/svg" class="avatar-clothes-lower">
        <path id="fillClothesLowerColorBase_6_" fill="#45474E" d="M142.518,182.426c-1.821-5.381-1.708-6.086-2.088-6.854
            c-0.627,0.063-8.515,0.027-16.598-0.057v-0.009c-0.021,0-0.05,0.009-0.068,0.009c-0.021,0-0.057-0.009-0.071-0.009v0.009
            c-8.085,0.084-15.968,0.116-16.594,0.057c-0.388,0.771-0.27,1.479-2.096,6.854c-1.516,4.477-2.562,11.148-0.604,15.646
            c1.54,3.537,8.374,4.889,11.168,4.994c3.497,0.143,5.729,0.354,8.188,0.176c2.467,0.188,4.692-0.033,8.19-0.176
            c2.794-0.105,9.628-1.457,11.168-4.994C145.08,193.574,144.033,186.895,142.518,182.426z" data-fill="clothes-lower-color_base"></path>
        <path id="fillClothesLowerColorBase_5_" fill="#45474E" d="M139.094,181.314c0,0,27.178,3.799,29.485,6.936
            c4.25,5,1.416,52,1.416,52s-5.303,3.242-9.969,0.908l-5.042-37.977l-22.115-0.557C132.875,202.635,125.472,186.646,139.094,181.314
            z" data-fill="clothes-lower-color_base"></path>
        <path id="fillClothesLowerColorBase_4_" fill="#45474E" d="M115.7,182.797c0,0,27.838,6.057,29.146,8.653
            c1.312,2.604-5.154,49.247-5.154,49.247c-1.083,0.312-9.259,3.592-12.025,0.637l-0.417-36.625l-18.952-3.553
            C108.297,201.156,106.7,189.047,115.7,182.797z" data-fill="clothes-lower-color_base"></path>
        <path id="fillClothesLowerColorShade" fill="#57565D" d="M138.627,208.209c0.324,7.452,3.423,5.77,4.791,3.313
            c1.15-9.994,1.987-18.979,1.438-20.071c-0.695-1.39-8.938-3.757-16.479-5.663c0.215,0.126,0.421,0.213,0.627,0.213
            C144.136,192.008,143.494,192.049,138.627,208.209z" data-fill="clothes-lower-color_shade"></path>
    </g>
    <g id="mar1" xmlns="http://www.w3.org/2000/svg">
        <path id="fillSkinColorBase_6_" fill="#F9D7B9" d="M94.668,156.025c2.292-3.369,11.61-16.918,12.651-20.802
            c0.05-0.549-2.563-4.666-2.91-4.771c-2.714-0.754-4.266,0.458-5.943,2.322c-2.129,2.373-3.882,5.092-5.812,7.637
            c-2.271,2.979-4.248,6.15-5.896,9.546c-3.024,6.279-6.646,24.396-6.189,33.442c-1.293,1.556-2.979,4.145-4.321,6.271
            c-2.104,1.521-3.712,4.054-4.333,6.661c-0.529,2.201,2.569,2.672,3.1,0.484c0.325-1.373,1.313-3.124,2.47-4.06
            c0.15,0.116,0.3,0.229,0.437,0.329c-1.273,2.158-2.504,4.386-3.187,6.85c-0.755,2.728,2.964,3.984,3.723,1.248
            c0.646-2.329,1.855-4.375,3.076-6.41c0.098,0.021,0.188,0.033,0.289,0.052c-0.005,0.013-0.016,0.021-0.021,0.036
            c-0.974,2.65-1.648,5.595-1.399,8.375c0.256,2.832,4.132,2.031,3.889-0.776c-0.063-0.667-0.05-1.35,0.023-2.021
            c0.138-1.256,0.438-2.488,0.828-3.688c0.192-0.587,0.396-1.182,0.616-1.762c0-0.001,0-0.002,0-0.003h0.001
            c0.356-0.895,0.797-1.731,1.451-2.405c0.266-0.271,0.533-0.561,0.854-0.729c0.388-0.194,0.737-0.136,1.143-0.063
            c0.243,0.051,0.891,0.104,1.015,0.4c0.326,0.792,0.907,1.454,1.327,2.188c0.492,0.867,1.729,0.838,2.396,0.213
            c0.354-0.318,0.583-0.805,0.637-1.311c0.068-0.722-0.354-1.498-0.625-2.113c-0.307-0.688-0.656-1.354-1.113-1.93
            c-0.735-0.921-1.553-1.775-2.313-2.677c-0.088-0.104-0.661-1.063-1.243-1.782c0.003-0.019,0.015-0.025,0.017-0.043
            C89.447,182.671,89.486,163.654,94.668,156.025z" data-fill="skin-color_base"></path>
    </g>
    <g id="mup1" xmlns="http://www.w3.org/2000/svg" class="avatar-clothes-upper">
        <path id="fillClothesUpperColorBase_7_" fill="#D6453F" d="M152.038,118.349c-2.161,0.729-11.425,1.663-18.771,2.44
            c0,0-1.229,3.732,0.292,7.224c1.729,3.978,4.806,8.283,4.806,8.283s8.361-1.688,17.191-4.521
            C155.063,127.183,153.7,120.719,152.038,118.349z" data-fill="clothes-upper-color_base"></path>
        <path id="fillClothesUpperColorShade_8_" fill="#C33E39" d="M135.754,132.239c1.355,2.305,2.605,4.062,2.605,4.062
            s8.361-1.687,17.188-4.521c-0.092-0.855-0.214-1.776-0.354-2.729C149.257,132.302,142.411,133.85,135.754,132.239z" data-fill="clothes-upper-color_shade"></path>
        <path id="fillClothesUpperColorBase_5_" fill="#D6453F" d="M104.835,146.666c-1.938-6.792-4.342-11.563-6.835-15.166
            c1.872-1.473,8.479-4.658,12.745-6.83c1.875,5.917,4.755,14.458,13.42,11.33c9.486-3.425,4.362-11.92,1.99-15.083
            c3.925-0.117,7.032-0.508,9.678-0.252c1.175,1.833,5.646,14.732,7.335,28.667c1.793,14.729-0.67,31.002-0.67,31.002
            S125,189.5,103.831,181C103.831,181,107.502,155.998,104.835,146.666z" data-fill="clothes-upper-color_base"></path>
        <path id="fillSkinColorShade_2_" fill="#DBBEA5" d="M107.06,134.635c0.056-0.524-2.465-4.521-2.813-4.609
            c-2.639-0.718-4.146,0.468-5.796,2.289c-2.086,2.313-3.805,4.97-5.701,7.456c-2.217,2.896-4.165,5.998-5.774,9.312
            c-0.293,0.604-0.599,1.313-0.896,2.122c1.925,2.648,5.376,4.508,8.468,5.021c0.402-0.472,1.017-1.432,1.248-1.771
            C98.044,151.163,106.027,138.417,107.06,134.635z" data-fill="skin-color_shade"></path>
        <path id="fillClothesUpperColorBase_6_" fill="#D6453F" d="M107.012,143.997c3.582-4.757,7.021-8.062,3.103-13.76
            c-2.532-3.676-9.72-1.136-12.1,1.377c-2.346,2.469-1.931,1.645-4.81,5.237c-2.021,2.521-5.143,7.271-6.688,10.104
            c1.271,3.969,6.979,8.594,12.479,8.002C102.529,150.354,105.302,146.587,107.012,143.997z" data-fill="clothes-upper-color_base"></path>
        <path id="fillClothesUpperColorShade_9_" fill="#C33E39" d="M116,179c-15.681-3.92-2.56-23.203-8.619-35.268
            c-0.812,0.966-1.651,1.953-2.552,2.914c0.002,0.006,0.004,0.013,0.006,0.02c2.667,9.332-1.004,34.334-1.004,34.334
            c21.169,8.5,38.667-0.666,38.667-0.666s0.233-1.543,0.503-4.102C134.319,178.941,125.535,181.602,116,179z" data-fill="clothes-upper-color_shade"></path>
        <path id="fillClothesUpperColorShade_10_" fill="#C33E39" d="M90,149c-0.625-1.25-2.032-2.104-2.754-3.312
            c-0.266,0.453-0.513,0.887-0.729,1.271c1.271,3.978,6.979,8.603,12.479,8.002c3.161-4.137,5.712-7.587,7.439-10.124
            C101.613,150.438,95.402,156.201,90,149z" data-fill="clothes-upper-color_shade"></path>
    </g>
    <g id="mhd1" xmlns="http://www.w3.org/2000/svg" class="avatar-head">
        <g>
            <path id="fillSkinColorBase" fill="#F9D7B9" d="M139.497,58.669c3.135,8.771,5.354,18.065,5.215,27.333
                c-0.125,8.952-2.342,17.687-9.436,23.689c-4.623,3.915-11.088,6.139-17.023,7.046c-43.993,6.778-39.837-48.816-39.837-48.816
                s-0.294-21.789,27.99-26.673c12.048-2.077,26.459,0.499,31.465,13.107C138.434,55.781,138.977,57.218,139.497,58.669z" data-fill="skin-color_base"></path>
            <path id="fillSkinColorBase_1_" fill="#F9D7B9" d="M144.01,72.567c-0.227-0.148-0.479-0.341-0.74-0.562
                c0.916,5.646,1.178,11.491,1.041,17.307C156.171,79.321,144.01,72.567,144.01,72.567z" data-fill="skin-color_base"></path>
            <path id="fillSkinColorBase_2_" fill="#F9D7B9" d="M79.023,82.766c0.168-0.21,0.352-0.478,0.539-0.764
                c0.854,5.655,2.396,11.305,4.308,16.788C69.514,92.92,79.023,82.766,79.023,82.766z" data-fill="skin-color_base"></path>
        </g>
    </g>
    <g id="mey1" xmlns="http://www.w3.org/2000/svg" class="avatar-eyes">
        <path fill="#543318" d="M133.514,76.807c0.422,2.718-1.186,5.225-3.58,5.602c-2.396,0.373-4.688-1.528-5.108-4.247
            s1.183-5.225,3.58-5.598C130.805,72.187,133.093,74.089,133.514,76.807z" data-fill="#543318"></path>
        <path fill="#543318" d="M100.54,81.81c0.422,2.718-1.183,5.225-3.581,5.602c-2.396,0.373-4.687-1.527-5.104-4.248
            c-0.422-2.718,1.184-5.224,3.578-5.597C97.83,77.191,100.117,79.092,100.54,81.81z" data-fill="#543318"></path>
    </g>
    <g id="mmo1" xmlns="http://www.w3.org/2000/svg" class="avatar-mouth">
        <path fill="none" stroke="#816951" stroke-width="2.0555" stroke-linecap="round" stroke-linejoin="round" stroke-miterlimit="10" d="
            M108.991,103.69c0,0,5.857,2.012,13.56-2.199" data-stroke="#816951"></path>
    </g>
    <g id="meb1" xmlns="http://www.w3.org/2000/svg" class="avatar-eyebrows">
        <path id="fillEyebrowColorBase_2_" fill="#816951" d="M87.634,73.256c-0.281,0.045-0.592-0.024-0.824-0.229
            c-0.437-0.37-0.48-1.021-0.109-1.45c4.986-5.825,13.378-2.972,13.733-2.849c0.529,0.187,0.813,0.771,0.63,1.308
            c-0.188,0.535-0.771,0.818-1.312,0.632c-0.076-0.021-7.43-2.504-11.499,2.246C88.088,73.103,87.866,73.219,87.634,73.256z" data-fill="eyebrow-color_base"></path>
        <path id="fillEyebrowColorBase_3_" fill="#816951" d="M134.014,65.794c-0.24,0.038-0.494-0.009-0.721-0.146
            c-5.274-3.396-11.593,1.103-11.651,1.146c-0.46,0.333-1.104,0.232-1.438-0.229c-0.333-0.459-0.229-1.104,0.229-1.438
            c0.306-0.221,7.522-5.354,13.974-1.215c0.479,0.306,0.617,0.943,0.313,1.42C134.555,65.591,134.294,65.75,134.014,65.794z" data-fill="eyebrow-color_base"></path>
    </g>
    <g id="mhf1" xmlns="http://www.w3.org/2000/svg" class="avatar-hair-front">
        <path id="fillHairColorBase_5_" fill="#3D383A" d="M81.877,42.958c0.618-1.047,1.653-1.931,2.271-2.601
            C95.155,28.359,112.88,26.4,127.044,33.84c1.243,0.363,2.479,0.747,3.69,1.14c0.289,0.096,0.529,0.222,0.771,0.34
            c0.955,0.243,1.924,0.477,2.91,0.698c4.354,0.982,4.662,6.101,2.336,8.634c4.098,6.869,6.732,17.164,6.447,32.447l0.01,0.458
            c0,0-0.336,2.271-1.063-0.646c-0.662-2.646-4.304-18.949-8.027-24.602c-0.387,0.735-0.99,1.426-1.934,1.97
            c-14.219,8.247-33.358,10.871-49.153,5.417c-1.568,1.915-3.091,4.006-3.138,8.426c0.896,8.33,3.313,19.757,2.044,20.004
            c-0.458,0.099-2.787-6.023-4.78-14.146C74.77,64.329,73.835,51.762,81.877,42.958z" data-fill="hair-color_base"></path>
    </g>
</svg>